<svg width="966" height="1089" viewBox="0 0 966 1089" fill="none" xmlns="http://www.w3.org/2000/svg">
<path d="M191.883 133.702C243.491 18.2047 321.608 -22.45 426.235 11.7382C530.863 45.9263 621.576 81.3672 698.376 118.061C775.176 154.754 838.495 214.798 888.332 298.193C938.169 381.588 964.036 486.102 965.933 611.734C967.83 737.367 919.3 845.902 820.342 937.339C721.385 1028.78 612.952 1078.69 495.045 1087.09C377.138 1095.49 289.382 1054.11 231.778 962.95C174.174 871.793 114.079 789.031 51.4937 714.662C-11.0918 640.293 -16.2419 553.749 36.0432 455.029C88.3285 356.309 140.275 249.2 191.883 133.702Z" fill="#3C6E71"/>
</svg>
