<svg width="371" height="382" viewBox="0 0 371 382" fill="none" xmlns="http://www.w3.org/2000/svg">
<path d="M369.622 279.097C374.596 327.04 356.564 355.337 315.527 363.988C274.49 372.64 237.805 378.227 205.473 380.75C173.141 383.273 140.808 375.523 108.476 357.5C76.1439 339.476 47.6978 309.918 23.1377 268.824C-1.42243 227.73 -6.08574 182.671 9.14774 133.647C24.3812 84.6231 50.6512 47.4945 87.9577 22.2615C125.264 -2.97144 162.104 -6.03544 198.478 13.0695C234.852 32.1745 270.448 48.0352 305.268 60.6517C340.087 73.2682 358.274 100.844 359.829 143.38C361.383 185.915 364.647 231.155 369.622 279.097Z" fill="#284B63"/>
</svg>
