<svg width="610" height="627" viewBox="0 0 610 627" fill="none" xmlns="http://www.w3.org/2000/svg">
<path d="M608.389 458.457C616.579 537.394 586.891 583.984 519.324 598.228C451.757 612.473 391.356 621.672 338.121 625.827C284.887 629.981 231.652 617.221 178.418 587.545C125.183 557.87 78.347 509.202 37.9092 441.542C-2.52859 373.882 -10.2066 299.693 14.875 218.976C39.9567 138.258 83.2098 77.1268 144.634 35.5811C206.059 -5.96462 266.715 -11.0095 326.604 20.4466C386.493 51.9026 445.102 78.017 502.432 98.7899C559.762 119.563 589.706 164.966 592.265 235C594.825 305.035 600.199 379.52 608.389 458.457Z" fill="#284B63"/>
</svg>
