<svg width="610" height="627" viewBox="0 0 610 627" fill="none" xmlns="http://www.w3.org/2000/svg">
<path d="M608.389 458.457C616.579 537.393 586.891 583.984 519.324 598.228C451.757 612.472 391.356 621.672 338.121 625.826C284.887 629.981 231.652 617.221 178.418 587.545C125.183 557.87 78.347 509.202 37.9092 441.542C-2.52859 373.881 -10.2066 299.693 14.875 218.975C39.9567 138.258 83.2098 77.1265 144.634 35.5808C206.059 -5.96487 266.715 -11.0097 326.604 20.4463C386.493 51.9023 445.102 78.0168 502.432 98.7896C559.762 119.562 589.706 164.966 592.265 235C594.825 305.034 600.199 379.52 608.389 458.457Z" fill="#284B63"/>
</svg>
