<svg width="865" height="890" viewBox="0 0 865 890" fill="none" xmlns="http://www.w3.org/2000/svg">
<path d="M863.114 650.76C874.742 762.834 832.591 828.983 736.66 849.206C640.729 869.43 554.973 882.492 479.391 888.39C403.809 894.289 328.227 876.172 252.645 834.039C177.063 791.906 110.565 722.807 53.1521 626.744C-4.26114 530.681 -15.1624 425.349 20.4483 310.747C56.0591 196.145 117.469 109.351 204.679 50.365C291.889 -8.6212 378.009 -15.7838 463.039 28.8772C548.068 73.5381 631.281 110.615 712.677 140.108C794.073 169.601 836.588 234.065 840.222 333.499C843.856 432.933 851.486 538.686 863.114 650.76Z" fill="#284B63"/>
</svg>
