<svg width="500" height="500" viewBox="0 0 500 500" fill="none" xmlns="http://www.w3.org/2000/svg">
<path d="M183.11 142.29H83.6504V308.56H183.11V142.29Z" fill="#F0F0F0"/>
<path d="M81.6396 141.65V310H185.64V141.65H81.6396ZM87.1497 148.17H180.09V175.49H87.1497V148.17ZM180.09 304.45H87.1497V181.19H180.09V304.45Z" fill="#E6E6E6"/>
<path d="M157.77 181.19H132.42L100.83 304.15H126.18L157.77 181.19Z" fill="#FAFAFA"/>
<path d="M139.64 304.45H133.38L164.97 181.19H171.23L139.64 304.45Z" fill="#FAFAFA"/>
<path d="M127.51 148.18H109.5L95.6396 175.49H113.65L127.51 148.18Z" fill="#FAFAFA"/>
<path d="M132.13 175.49H121.5L135.36 148.18H145.98L132.13 175.49Z" fill="#FAFAFA"/>
<path d="M188.42 209.32H78.3496V213.8H188.42V209.32Z" fill="#E0E0E0"/>
<path d="M188.42 217.07H78.3496V221.55H188.42V217.07Z" fill="#E0E0E0"/>
<path d="M188.42 224.81H78.3496V229.29H188.42V224.81Z" fill="#E0E0E0"/>
<path d="M188.42 232.56H78.3496V237.04H188.42V232.56Z" fill="#E0E0E0"/>
<path d="M188.42 240.3H78.3496V244.78H188.42V240.3Z" fill="#E0E0E0"/>
<path d="M188.42 201.58H78.3496V206.06H188.42V201.58Z" fill="#E0E0E0"/>
<path d="M188.42 193.83H78.3496V198.31H188.42V193.83Z" fill="#E0E0E0"/>
<path d="M188.42 186.09H78.3496V190.57H188.42V186.09Z" fill="#E0E0E0"/>
<path d="M188.42 178.34H78.3496V182.82H188.42V178.34Z" fill="#E0E0E0"/>
<path d="M188.42 170.6H78.3496V175.08H188.42V170.6Z" fill="#E0E0E0"/>
<path d="M188.42 162.85H78.3496V167.33H188.42V162.85Z" fill="#E0E0E0"/>
<path d="M188.42 155.1H78.3496V159.58H188.42V155.1Z" fill="#E0E0E0"/>
<path d="M188.42 147.36H78.3496V151.84H188.42V147.36Z" fill="#E0E0E0"/>
<path d="M188.42 139.61H78.3496V144.09H188.42V139.61Z" fill="#E0E0E0"/>
<path d="M500 382.4H0V382.65H500V382.4Z" fill="#EBEBEB"/>
<path d="M449.9 398.49H416.78V398.74H449.9V398.49Z" fill="#EBEBEB"/>
<path d="M331.22 401.21H322.53V401.46H331.22V401.21Z" fill="#EBEBEB"/>
<path d="M415.78 389.21H396.59V389.46H415.78V389.21Z" fill="#EBEBEB"/>
<path d="M95.65 390.89H52.46V391.14H95.65V390.89Z" fill="#EBEBEB"/>
<path d="M110.89 390.89H104.56V391.14H110.89V390.89Z" fill="#EBEBEB"/>
<path d="M225.15 395.11H131.47V395.36H225.15V395.11Z" fill="#EBEBEB"/>
<path d="M237 337.8H43.91C42.3973 337.797 40.9475 337.195 39.8788 336.124C38.8102 335.053 38.21 333.603 38.21 332.09V60.66C38.2231 59.156 38.8292 57.718 39.8964 56.6582C40.9637 55.5985 42.4059 55.0026 43.91 55H237C238.514 55 239.967 55.6016 241.038 56.6724C242.108 57.7433 242.71 59.1956 242.71 60.71V332.09C242.71 333.604 242.108 335.057 241.038 336.128C239.967 337.198 238.514 337.8 237 337.8ZM43.91 55.2C42.4636 55.2026 41.0774 55.7791 40.0556 56.8027C39.0338 57.8264 38.46 59.2136 38.46 60.66V332.09C38.46 333.536 39.0338 334.924 40.0556 335.947C41.0774 336.971 42.4636 337.547 43.91 337.55H237C238.447 337.547 239.834 336.971 240.858 335.948C241.881 334.924 242.457 333.537 242.46 332.09V60.66C242.457 59.2127 241.881 57.8255 240.858 56.8021C239.834 55.7787 238.447 55.2026 237 55.2H43.91Z" fill="#EBEBEB"/>
<path d="M453.31 337.8H260.21C258.696 337.797 257.246 337.195 256.175 336.125C255.105 335.054 254.503 333.604 254.5 332.09V60.66C254.516 59.1551 255.124 57.7171 256.193 56.6576C257.262 55.5981 258.705 55.0025 260.21 55H453.31C454.812 55.0052 456.252 55.6022 457.317 56.6617C458.382 57.7212 458.987 59.1578 459 60.66V332.09C459 333.601 458.401 335.05 457.335 336.121C456.268 337.191 454.821 337.795 453.31 337.8ZM260.21 55.2C258.763 55.2026 257.375 55.7787 256.352 56.8021C255.329 57.8255 254.753 59.2127 254.75 60.66V332.09C254.753 333.537 255.329 334.924 256.352 335.948C257.375 336.971 258.763 337.547 260.21 337.55H453.31C454.757 337.547 456.145 336.971 457.168 335.948C458.191 334.924 458.767 333.537 458.77 332.09V60.66C458.767 59.2127 458.191 57.8255 457.168 56.8021C456.145 55.7787 454.757 55.2026 453.31 55.2H260.21Z" fill="#EBEBEB"/>
<path d="M233.86 383.13H380.08V168.76L233.86 168.76L233.86 383.13Z" fill="#F0F0F0"/>
<path d="M239.03 215.1L374.91 215.1V175.51H239.03V215.1Z" fill="#E0E0E0"/>
<path d="M367.19 215.1H374.91V181.92H367.19V215.1Z" fill="#EBEBEB"/>
<path d="M329.86 215.1H337.58V181.92H329.86V215.1Z" fill="#EBEBEB"/>
<path d="M281.859 213.789L289.467 215.101L295.103 182.403L287.495 181.091L281.859 213.789Z" fill="#EBEBEB"/>
<path d="M357.62 215.1H365.34V186.29H357.62V215.1Z" fill="#EBEBEB"/>
<path d="M339.89 215.1H347.61V186.29H339.89V215.1Z" fill="#EBEBEB"/>
<path d="M295.1 215.1H302.82V186.29H295.1V215.1Z" fill="#EBEBEB"/>
<path d="M313.492 213.414L321.028 215.088L327.279 186.965L319.743 185.29L313.492 213.414Z" fill="#EBEBEB"/>
<path d="M350.95 215.1H354.81V180.27H350.95V215.1Z" fill="#EBEBEB"/>
<path d="M305.04 215.1H308.9V180.27H305.04V215.1Z" fill="#EBEBEB"/>
<path d="M374.91 221.37H239.03V260.96H374.91V221.37Z" fill="#E0E0E0"/>
<path d="M246.75 227.78H239.03V260.96H246.75V227.78Z" fill="#EBEBEB"/>
<path d="M284.07 227.78H276.35V260.96H284.07V227.78Z" fill="#EBEBEB"/>
<path d="M326.456 226.945L318.849 228.257L324.485 260.955L332.093 259.643L326.456 226.945Z" fill="#EBEBEB"/>
<path d="M256.31 232.15H248.59V260.96H256.31V232.15Z" fill="#EBEBEB"/>
<path d="M274.05 232.15H266.33V260.96H274.05V232.15Z" fill="#EBEBEB"/>
<path d="M318.84 232.15H311.12V260.96H318.84V232.15Z" fill="#EBEBEB"/>
<path d="M294.225 231.145L286.688 232.82L292.939 260.944L300.475 259.269L294.225 231.145Z" fill="#EBEBEB"/>
<path d="M262.99 226.13H259.13V260.96H262.99V226.13Z" fill="#EBEBEB"/>
<path d="M308.9 226.13H305.04V260.96H308.9V226.13Z" fill="#EBEBEB"/>
<path d="M367.19 260.96H374.91V227.78H367.19V260.96Z" fill="#EBEBEB"/>
<path d="M357.62 260.96H365.34V232.15H357.62V260.96Z" fill="#EBEBEB"/>
<path d="M339.89 260.96H347.61V232.15H339.89V260.96Z" fill="#EBEBEB"/>
<path d="M350.95 260.96H354.81V226.13H350.95V260.96Z" fill="#EBEBEB"/>
<path d="M239.03 306.83H374.91V267.24H239.03V306.83Z" fill="#E0E0E0"/>
<path d="M289.2 306.83H296.92V273.65H289.2V306.83Z" fill="#EBEBEB"/>
<path d="M241.2 305.501L248.808 306.812L254.444 274.114L246.836 272.803L241.2 305.501Z" fill="#EBEBEB"/>
<path d="M316.96 306.83H324.68V278.02H316.96V306.83Z" fill="#EBEBEB"/>
<path d="M299.21 306.83H306.93V278.02H299.21V306.83Z" fill="#EBEBEB"/>
<path d="M254.44 306.83H262.16V278.02H254.44V306.83Z" fill="#EBEBEB"/>
<path d="M272.832 305.141L280.368 306.816L286.619 278.692L279.082 277.017L272.832 305.141Z" fill="#EBEBEB"/>
<path d="M310.29 306.83H314.15V272H310.29V306.83Z" fill="#EBEBEB"/>
<path d="M264.37 306.83H268.23V272H264.37V306.83Z" fill="#EBEBEB"/>
<path d="M330.001 305.505L337.608 306.816L343.245 274.119L335.637 272.807L330.001 305.505Z" fill="#EBEBEB"/>
<path d="M343.23 306.83H350.95V278.02H343.23V306.83Z" fill="#EBEBEB"/>
<path d="M361.627 305.134L369.163 306.809L375.413 278.685L367.877 277.01L361.627 305.134Z" fill="#EBEBEB"/>
<path d="M353.17 306.83H357.03V272H353.17V306.83Z" fill="#EBEBEB"/>
<path d="M405.31 168.76H380.08V383.7H405.31V168.76Z" fill="#E0E0E0"/>
<path d="M378.32 119.75V92.7598H340.13V119.75H378.32Z" fill="#F0F0F0"/>
<path d="M376.53 117.99V94.52H341.93V117.99H376.53Z" fill="#FAFAFA"/>
<path d="M365.09 153.65V126.66H326.9V153.65H365.09Z" fill="#F0F0F0"/>
<path d="M363.29 151.89V128.42H328.69V151.89H363.29Z" fill="#FAFAFA"/>
<path d="M308.59 119.75H332.89V85.36H308.59V119.75Z" fill="#F0F0F0"/>
<path d="M310.18 118.13H331.31V86.9799H310.18V118.13Z" fill="#FAFAFA"/>
<path d="M294.77 164.86H321.76V126.67H294.77V164.86Z" fill="#F0F0F0"/>
<path d="M296.53 163.06H320V128.46H296.53V163.06Z" fill="#FAFAFA"/>
<path d="M270.43 98.62V119.75H300.33V98.62H270.43Z" fill="#F0F0F0"/>
<path d="M271.84 99.9901V118.37H298.93V99.9901H271.84Z" fill="#FAFAFA"/>
<path d="M250 427.56C357.083 427.56 443.89 422.492 443.89 416.24C443.89 409.988 357.083 404.92 250 404.92C142.918 404.92 56.1104 409.988 56.1104 416.24C56.1104 422.492 142.918 427.56 250 427.56Z" fill="#F5F5F5"/>
<path d="M166.229 226.63L185.309 209.1L171.769 201.47L152.689 213.81L166.229 226.63Z" fill="#E4897B"/>
<path d="M223.05 268.13C209.45 266.96 149.59 259.05 147.34 254.57C150.85 250.67 179.65 219.31 179.65 219.31L165.16 203C165.16 203 93.4799 239 105.7 261.62C117.92 284.24 226.25 309.27 226.25 309.27L223.05 268.13Z" fill="#407BFF"/>
<path opacity="0.2" d="M147.34 254.57L141.72 261.4L161.8 259.19C154.51 257.57 148.65 256.37 147.34 254.57Z" fill="black"/>
<path d="M237.4 399.65C210.72 320.9 212.65 272.83 223.05 268.13C223.05 268.13 247.24 256.46 249.15 255.87C261.49 252.04 282.15 245.71 296.76 245.71C326.35 245.71 332.42 250 332.42 250C334.92 276.06 338.55 291.16 342.35 313.64C345.14 330.08 348.49 345.58 351.86 359.54C355.23 373.5 359.95 389.33 362.86 399.65H237.4Z" fill="#263238"/>
<path d="M305.329 246.17C303.909 262.17 302.799 278.96 298.099 286.1C298.099 286.1 284.789 304.89 268.099 310.18C251.189 315.54 241.769 300.28 239.219 293.75C236.279 286.49 238.099 273.16 240.819 259.62C243.129 258.2 247.019 256.97 249.149 255.87C263.091 251.034 277.504 247.683 292.149 245.87C296.542 245.54 300.956 245.64 305.329 246.17Z" fill="#407BFF"/>
<path d="M290.19 248.92C290.19 248.92 268.99 274.41 261.31 275.92C255.93 277.01 246.31 269.86 246.31 269.86C249.291 267.637 251.692 264.728 253.31 261.38C257.08 252.96 252.12 244.76 246.08 237.58L261.82 201.81C263.808 209.29 266.362 216.608 269.46 223.7C274.5 235.29 281.53 246.11 290.19 248.92Z" fill="#E4897B"/>
<path opacity="0.2" d="M269.4 223.72C269.95 237.77 267.35 254.67 253.24 261.37C257.01 252.95 252.05 244.75 246.01 237.57L261.75 201.8C263.74 209.29 266.297 216.618 269.4 223.72Z" fill="black"/>
<path d="M197.45 194.2C198.36 202.66 206.31 217.37 214.53 207.87C222.75 198.37 195.89 179.67 197.45 194.2Z" fill="#263238"/>
<path d="M218.509 233.71C219.019 234.28 219.509 234.84 220.049 235.38C233.889 249.73 258.349 246.73 266.209 228.75C266.832 227.331 267.333 225.863 267.709 224.36C271.409 209.86 264.899 199.45 255.409 180.84C245.919 162.23 220.149 158.9 206.859 176C193.889 192.72 205.649 219.33 218.509 233.71Z" fill="#E4897B"/>
<path d="M258.64 156.4L236 161.73L239.06 174.73C239.41 174.36 239.82 174 240.15 173.64C240.15 173.64 246.89 191.96 259.4 195.33C270.76 180.15 269.86 160.88 258.64 156.4Z" fill="#263238"/>
<path d="M272.28 190.67C272.855 193.199 272.922 195.817 272.475 198.371C272.029 200.926 271.079 203.366 269.68 205.55C265.89 211.38 259.36 209.11 256.53 203.15C253.99 197.79 252.89 188.3 258.53 184.54C264.17 180.78 270.81 184.41 272.28 190.67Z" fill="#E4897B"/>
<path d="M220 209C220 209 221.36 219.11 220 225.2C223.92 226 227.7 222.33 227.7 222.33L220 209Z" fill="#DE5753"/>
<path d="M242 224.11C242.74 224.121 243.479 224.185 244.21 224.3C244.275 224.309 244.337 224.332 244.394 224.366C244.45 224.4 244.499 224.445 244.538 224.497C244.577 224.55 244.605 224.611 244.621 224.674C244.637 224.738 244.64 224.805 244.63 224.87C244.62 224.933 244.598 224.995 244.564 225.05C244.531 225.105 244.487 225.153 244.435 225.191C244.383 225.229 244.324 225.256 244.261 225.272C244.199 225.287 244.134 225.29 244.07 225.28C241.991 224.912 239.855 225.043 237.836 225.662C235.818 226.281 233.975 227.37 232.46 228.84C232.371 228.939 232.246 228.999 232.113 229.007C231.98 229.014 231.849 228.968 231.75 228.88C231.65 228.791 231.59 228.666 231.583 228.533C231.575 228.4 231.621 228.269 231.71 228.17C233.055 226.824 234.663 225.769 236.433 225.07C238.203 224.372 240.098 224.045 242 224.11Z" fill="#263238"/>
<path d="M231.17 194.25C231.023 194.347 230.854 194.403 230.678 194.414C230.502 194.424 230.327 194.389 230.17 194.31C229.058 193.723 227.824 193.404 226.568 193.378C225.311 193.352 224.065 193.62 222.93 194.16C222.817 194.228 222.691 194.274 222.56 194.293C222.429 194.313 222.295 194.306 222.167 194.273C222.038 194.241 221.918 194.183 221.812 194.103C221.706 194.024 221.617 193.924 221.55 193.81C221.419 193.581 221.383 193.31 221.45 193.056C221.518 192.801 221.683 192.583 221.91 192.45C223.331 191.734 224.903 191.368 226.495 191.382C228.086 191.396 229.651 191.789 231.06 192.53C231.297 192.648 231.478 192.855 231.562 193.107C231.647 193.358 231.628 193.632 231.51 193.87C231.434 194.026 231.316 194.157 231.17 194.25Z" fill="#263238"/>
<path d="M204.89 210.81C204.748 210.921 204.578 210.991 204.399 211.013C204.22 211.035 204.038 211.008 203.873 210.935C203.708 210.862 203.566 210.746 203.462 210.599C203.357 210.452 203.294 210.28 203.28 210.1C203.12 208.53 203.342 206.944 203.927 205.478C204.512 204.011 205.443 202.709 206.64 201.68C206.744 201.599 206.863 201.539 206.991 201.504C207.118 201.469 207.252 201.459 207.383 201.476C207.514 201.493 207.64 201.535 207.755 201.601C207.869 201.667 207.97 201.755 208.05 201.86C208.208 202.069 208.278 202.332 208.244 202.592C208.211 202.852 208.076 203.088 207.87 203.25C206.924 204.071 206.194 205.11 205.742 206.278C205.291 207.446 205.132 208.707 205.28 209.95C205.291 210.114 205.261 210.279 205.193 210.429C205.125 210.579 205.021 210.71 204.89 210.81Z" fill="#263238"/>
<path d="M267.32 168.88C266.32 160.8 268.1 155.55 254.45 149.82C240.42 143.92 232 147 232 147C232 147 197.58 156.79 193.3 168.9C188.62 182.15 186.37 202.9 195.78 202.9C205.19 202.9 209.78 194.16 213.78 188.81C217.78 183.46 223.78 175.81 223.78 175.81C231.05 178.81 232.45 179.41 238.78 180.57C240.324 180.859 241.917 180.753 243.409 180.26C244.9 179.766 246.243 178.903 247.31 177.75C247.714 177.344 248.076 176.899 248.39 176.42L267.32 168.88Z" fill="#263238"/>
<path opacity="0.2" d="M221.479 188.07C222.155 187.864 222.766 187.487 223.253 186.975C223.74 186.463 224.087 185.835 224.259 185.15C224.739 182.86 221.96 181.43 221.96 181.43C221.96 181.43 225.839 183.53 225.249 185.28C224.659 187.03 221.479 188.07 221.479 188.07Z" fill="black"/>
<path opacity="0.2" d="M223.439 179.75C223.646 180.424 224.024 181.034 224.535 181.519C225.047 182.004 225.675 182.349 226.359 182.52C228.649 183 230.079 180.22 230.079 180.22C230.079 180.22 227.989 184.1 226.239 183.51C224.489 182.92 223.439 179.75 223.439 179.75Z" fill="black"/>
<path opacity="0.2" d="M231.53 181.47C230.855 181.676 230.244 182.053 229.757 182.564C229.27 183.076 228.923 183.705 228.75 184.39C228.27 186.68 231.05 188.11 231.05 188.11C231.05 188.11 227.17 186.01 227.76 184.26C228.35 182.51 231.53 181.47 231.53 181.47Z" fill="black"/>
<path opacity="0.2" d="M229.57 189.79C229.363 189.116 228.986 188.506 228.474 188.021C227.962 187.535 227.334 187.191 226.65 187.02C224.36 186.54 222.93 189.32 222.93 189.32C222.93 189.32 225.03 185.44 226.78 186.03C228.53 186.62 229.57 189.79 229.57 189.79Z" fill="black"/>
<path d="M230.69 197.52C229.036 197.523 227.45 198.181 226.281 199.351C225.111 200.52 224.453 202.106 224.45 203.76C224.51 205.125 225.093 206.413 226.08 207.358C227.066 208.303 228.379 208.83 229.745 208.83C231.111 208.83 232.424 208.303 233.411 207.358C234.397 206.413 234.981 205.125 235.04 203.76C235.04 202.606 234.582 201.5 233.766 200.684C232.95 199.868 231.844 199.41 230.69 199.41C229.537 199.41 228.43 199.868 227.614 200.684C226.799 201.5 226.34 202.606 226.34 203.76C226.34 204.662 226.698 205.527 227.336 206.164C227.974 206.802 228.838 207.16 229.74 207.16C230.642 207.16 231.507 206.802 232.144 206.164C232.782 205.527 233.14 204.662 233.14 203.76C233.14 203.11 232.882 202.487 232.423 202.028C231.963 201.568 231.34 201.31 230.69 201.31C230.04 201.31 229.417 201.568 228.958 202.028C228.498 202.487 228.24 203.11 228.24 203.76C228.283 204.128 228.459 204.467 228.736 204.714C229.012 204.96 229.37 205.097 229.74 205.097C230.111 205.097 230.468 204.96 230.745 204.714C231.021 204.467 231.198 204.128 231.24 203.76C231.24 203.641 231.193 203.526 231.108 203.442C231.024 203.357 230.91 203.31 230.79 203.31H230.57C230.451 203.31 230.336 203.357 230.252 203.442C230.168 203.526 230.12 203.641 230.12 203.76C230.12 203.863 230.079 203.963 230.006 204.036C229.933 204.109 229.834 204.15 229.73 204.15C229.628 204.147 229.53 204.106 229.457 204.033C229.385 203.96 229.343 203.863 229.34 203.76C229.34 203.405 229.481 203.064 229.733 202.812C229.984 202.561 230.325 202.42 230.68 202.42C231.036 202.42 231.376 202.561 231.628 202.812C231.879 203.064 232.02 203.405 232.02 203.76C231.982 204.34 231.724 204.884 231.3 205.281C230.876 205.678 230.316 205.899 229.735 205.899C229.154 205.899 228.595 205.678 228.17 205.281C227.746 204.884 227.489 204.34 227.45 203.76C227.45 202.903 227.79 202.082 228.396 201.476C229.002 200.87 229.824 200.53 230.68 200.53C231.537 200.53 232.358 200.87 232.964 201.476C233.57 202.082 233.91 202.903 233.91 203.76C233.91 204.869 233.47 205.932 232.686 206.716C231.902 207.5 230.839 207.94 229.73 207.94C228.622 207.94 227.558 207.5 226.774 206.716C225.991 205.932 225.55 204.869 225.55 203.76C225.55 202.399 226.091 201.095 227.053 200.133C228.015 199.17 229.32 198.63 230.68 198.63C232.041 198.63 233.346 199.17 234.308 200.133C235.27 201.095 235.81 202.399 235.81 203.76C235.81 203.877 235.857 203.989 235.939 204.071C236.022 204.154 236.134 204.2 236.25 204.2H236.48C236.597 204.2 236.709 204.154 236.791 204.071C236.874 203.989 236.92 203.877 236.92 203.76C236.918 202.108 236.261 200.523 235.093 199.354C233.926 198.185 232.343 197.525 230.69 197.52Z" fill="#263238"/>
<path d="M212.12 208.41C210.464 208.41 208.876 209.067 207.704 210.237C206.532 211.407 205.873 212.994 205.87 214.65C205.87 216.055 206.429 217.403 207.422 218.397C208.416 219.391 209.764 219.95 211.17 219.95C212.576 219.95 213.924 219.391 214.918 218.397C215.912 217.403 216.47 216.055 216.47 214.65C216.47 213.496 216.012 212.39 215.196 211.574C214.38 210.758 213.274 210.3 212.12 210.3C210.966 210.3 209.86 210.758 209.044 211.574C208.228 212.39 207.77 213.496 207.77 214.65C207.77 215.551 208.128 216.416 208.766 217.054C209.404 217.691 210.268 218.05 211.17 218.05C212.072 218.05 212.937 217.691 213.574 217.054C214.212 216.416 214.57 215.551 214.57 214.65C214.53 214.026 214.254 213.44 213.798 213.012C213.342 212.585 212.74 212.346 212.115 212.346C211.49 212.346 210.888 212.585 210.432 213.012C209.976 213.44 209.7 214.026 209.66 214.65C209.703 215.018 209.879 215.357 210.156 215.604C210.432 215.85 210.79 215.986 211.16 215.986C211.531 215.986 211.888 215.85 212.165 215.604C212.441 215.357 212.618 215.018 212.66 214.65C212.661 214.592 212.651 214.534 212.629 214.48C212.608 214.426 212.575 214.377 212.534 214.335C212.493 214.294 212.444 214.262 212.39 214.24C212.336 214.219 212.278 214.208 212.22 214.21H212C211.942 214.208 211.883 214.219 211.829 214.24C211.774 214.262 211.724 214.294 211.683 214.335C211.641 214.376 211.607 214.425 211.585 214.479C211.562 214.533 211.55 214.591 211.55 214.65C211.55 214.753 211.509 214.852 211.436 214.925C211.363 214.999 211.264 215.04 211.16 215.04C211.057 215.04 210.957 214.999 210.884 214.925C210.811 214.852 210.77 214.753 210.77 214.65C210.77 214.294 210.911 213.953 211.163 213.702C211.414 213.451 211.755 213.31 212.11 213.31C212.466 213.31 212.806 213.451 213.058 213.702C213.309 213.953 213.45 214.294 213.45 214.65C213.45 215.257 213.209 215.839 212.779 216.269C212.35 216.698 211.767 216.94 211.16 216.94C210.553 216.94 209.97 216.698 209.541 216.269C209.111 215.839 208.87 215.257 208.87 214.65C208.916 213.823 209.277 213.045 209.879 212.476C210.48 211.907 211.277 211.59 212.105 211.59C212.933 211.59 213.73 211.907 214.332 212.476C214.933 213.045 215.294 213.823 215.34 214.65C215.34 215.758 214.9 216.821 214.116 217.605C213.332 218.389 212.269 218.83 211.16 218.83C210.052 218.83 208.988 218.389 208.204 217.605C207.421 216.821 206.98 215.758 206.98 214.65C206.98 213.976 207.113 213.309 207.371 212.686C207.628 212.064 208.006 211.499 208.483 211.022C208.959 210.546 209.525 210.168 210.147 209.91C210.769 209.652 211.436 209.52 212.11 209.52C212.784 209.52 213.451 209.652 214.073 209.91C214.696 210.168 215.261 210.546 215.738 211.022C216.214 211.499 216.592 212.064 216.85 212.686C217.107 213.309 217.24 213.976 217.24 214.65C217.24 214.767 217.286 214.88 217.368 214.964C217.451 215.048 217.563 215.097 217.68 215.1H217.91C218.028 215.097 218.14 215.048 218.222 214.964C218.304 214.88 218.35 214.767 218.35 214.65C218.347 212.997 217.691 211.413 216.523 210.244C215.356 209.074 213.773 208.415 212.12 208.41Z" fill="#263238"/>
<path d="M172.23 205.14L185.66 209.24C200.39 208.24 195.86 189.55 195.86 189.55L197.32 179.67C197.81 176.32 195.44 173.01 191.71 171.84L182.34 168.9C178.07 167.56 173.58 169.5 172.4 173.19L169.73 181.48C168.957 183.896 168.793 186.465 169.25 188.96L172.23 205.14Z" fill="#E4897B"/>
<path d="M272.39 276.16L265.39 285.25L274.51 307.35C271.35 309.143 267.918 310.41 264.35 311.1C261.436 311.679 258.423 311.528 255.58 310.66L259.24 286L251.36 278.63L260.92 276.09L272.39 276.16Z" fill="#407BFF"/>
<path opacity="0.5" d="M272.39 276.16L265.39 285.25L274.51 307.35C271.35 309.143 267.918 310.41 264.35 311.1C261.436 311.679 258.423 311.528 255.58 310.66L259.24 286L251.36 278.63L260.92 276.09L272.39 276.16Z" fill="white"/>
<path d="M259.24 285.97L262.92 285.41L268.28 281.76L272.39 276.16L258.01 284.82L259.24 285.97Z" fill="#263238"/>
<path d="M255.11 282.11L264.33 276.09L260.92 276.06L258.01 276.83L252.89 280.03L255.11 282.11Z" fill="#263238"/>
<path d="M264.2 285.41L257.97 294.48L256.91 301.55L266.63 288.32L265.36 285.25L264.2 285.41Z" fill="#263238"/>
<path d="M255.75 309.29L268.87 293.75L270.33 297.29L258.09 311.29C257.228 311.166 256.378 310.968 255.55 310.7L255.75 309.29Z" fill="#263238"/>
<path d="M271.669 300.53L263.359 311.25C265.034 311.03 266.683 310.642 268.279 310.09L273.189 304.22L271.669 300.53Z" fill="#263238"/>
<path d="M253.38 287.44C255.55 279.09 261.31 275.95 261.31 275.95C255.49 271.5 254.61 262.47 254.64 257.17V257.07C254.64 256.87 254.64 256.67 254.64 256.48C254.638 255.413 254.565 254.347 254.42 253.29C251.211 254.995 248.357 257.296 246.01 260.07C244.4 263.16 245.44 285.44 253.38 287.44Z" fill="#263238"/>
<path d="M261.31 276C261.31 276 268.7 280.33 276.96 284.28C284.27 276.79 300.89 257.78 296.11 247.09C293.79 244.29 284.69 245.09 284.69 245.09C284.69 245.09 279.58 260.09 261.31 276Z" fill="#263238"/>
<g opacity="0.2">
<path d="M261.31 276C261.31 276 268.7 280.33 276.96 284.28C284.27 276.79 300.89 257.78 296.11 247.09C293.79 244.29 284.69 245.09 284.69 245.09C284.69 245.09 279.58 260.09 261.31 276Z" fill="white"/>
<path d="M253.38 287.44C255.55 279.09 261.31 275.95 261.31 275.95C255.49 271.5 254.61 262.47 254.64 257.17V257.07C254.64 256.87 254.64 256.67 254.64 256.48C254.638 255.412 254.565 254.347 254.42 253.29C251.211 254.995 248.357 257.296 246.01 260.07C244.4 263.16 245.44 285.44 253.38 287.44Z" fill="white"/>
</g>
<path opacity="0.3" d="M226.25 362.5L242.44 377.65L252.63 358.39L270.75 372.15L280.23 352.48L297 365.74L306.94 346.15L325.29 358.28L332.62 340.56L350.84 354.76L351.98 361.26L333.68 347.26L326.65 365.01L308.46 353.07L298.63 372.48L280.76 358.52L272.29 378.35L253.72 363.48L243.72 382.55L227.65 367.79L226.25 362.5Z" fill="white"/>
<path d="M290.73 375.85L294.13 389.47C292.4 404.13 273.94 398.65 273.94 398.65L264 399.65C260.63 399.97 257.45 397.43 256.47 393.65L254.02 384.15C252.9 379.81 255.02 375.43 258.81 374.44L267.23 372.2C269.68 371.55 272.254 371.519 274.72 372.11L290.73 375.85Z" fill="#E4897B"/>
<path d="M289.12 375.46L310.24 368.83L315.2 385.64L293.79 391.38L289.12 375.46Z" fill="#E4897B"/>
<path d="M329 248.66C313.23 245.89 319.63 281.66 330.07 295.91C336.16 304.99 338.63 307.1 342.35 313.64C355.58 336.88 357.35 345.81 357.35 345.81C352.02 349.32 291.1 371.63 291.1 371.63L299.4 395.63C299.4 395.63 390.4 381.89 391.32 353.18C392.13 328.82 382.96 310.51 365.86 284.27C345.71 253.36 338.89 250.39 329 248.66Z" fill="#407BFF"/>
<path opacity="0.2" d="M357.31 345.81L370.37 340.13L350 327.84C354.45 336.82 355.89 339.74 357.31 345.81Z" fill="black"/>
<path d="M319.131 143.82C315.271 143.82 312.641 141.58 312.281 137.96C312.181 135.67 312.331 132.84 314.471 131.14C314.986 130.718 315.611 130.449 316.272 130.364C316.933 130.28 317.605 130.383 318.21 130.663C318.816 130.943 319.33 131.387 319.694 131.946C320.059 132.504 320.259 133.154 320.271 133.82C320.381 135.82 319.981 137.31 319.161 138.13C318.946 138.346 318.688 138.514 318.403 138.623C318.119 138.731 317.815 138.778 317.511 138.76C315.781 138.66 315.311 137.88 315.131 136.76C315.055 136.285 315.125 135.799 315.332 135.365C315.539 134.931 315.874 134.57 316.291 134.33L316.541 134.77C316.206 134.959 315.937 135.247 315.773 135.594C315.608 135.942 315.555 136.331 315.621 136.71C315.751 137.5 315.981 138.18 317.541 138.27C317.776 138.287 318.011 138.252 318.231 138.167C318.45 138.082 318.648 137.95 318.811 137.78C319.521 137.08 319.871 135.65 319.811 133.86C319.81 133.283 319.642 132.719 319.328 132.234C319.014 131.75 318.567 131.367 318.041 131.13C317.518 130.896 316.94 130.811 316.371 130.885C315.803 130.959 315.266 131.189 314.821 131.55C312.821 133.1 312.721 135.78 312.821 137.93C313.151 141.26 315.591 143.33 319.171 143.33C319.945 143.26 320.692 143.014 321.356 142.61C322.02 142.206 322.583 141.655 323.001 141C323.894 139.823 324.517 138.464 324.826 137.019C325.135 135.575 325.123 134.08 324.791 132.64C324.237 130.97 323.352 129.429 322.189 128.11C321.026 126.79 319.608 125.719 318.021 124.96C316.988 124.459 315.854 124.198 314.706 124.198C313.557 124.198 312.424 124.459 311.391 124.96C305.731 127.76 306.271 132.67 307.391 137.87L306.901 137.98C306.021 133.89 304.681 127.72 311.161 124.51C312.259 123.977 313.465 123.7 314.686 123.7C315.907 123.7 317.112 123.977 318.211 124.51C319.872 125.289 321.354 126.401 322.567 127.778C323.78 129.154 324.697 130.765 325.261 132.51C325.613 134.025 325.628 135.598 325.305 137.118C324.982 138.639 324.328 140.07 323.391 141.31C322.922 142.028 322.293 142.629 321.555 143.064C320.816 143.499 319.986 143.758 319.131 143.82Z" fill="#407BFF"/>
<path d="M215.821 104.19C213.307 104.194 210.882 103.26 209.021 101.57C207.421 100.115 206.465 98.084 206.362 95.9239C206.259 93.7639 207.017 91.6513 208.471 90.0501C209.644 88.7647 211.279 87.9959 213.018 87.9116C214.757 87.8272 216.458 88.4343 217.751 89.6001C218.793 90.547 219.416 91.8691 219.484 93.2756C219.551 94.6821 219.057 96.0578 218.111 97.1001C217.342 97.9404 216.273 98.4426 215.136 98.4969C213.998 98.5513 212.886 98.1534 212.041 97.3901C211.369 96.7617 210.969 95.8958 210.926 94.9769C210.883 94.0579 211.2 93.1585 211.811 92.4701C212.049 92.1799 212.344 91.9414 212.677 91.7694C213.011 91.5974 213.376 91.4956 213.751 91.4701C214.131 91.46 214.511 91.5254 214.866 91.6627C215.221 91.8001 215.546 92.0065 215.821 92.2701C216.27 92.6877 216.539 93.2646 216.569 93.8775C216.599 94.4905 216.388 95.0908 215.981 95.5501C215.636 95.9193 215.164 96.1443 214.661 96.1801C214.409 96.193 214.157 96.1554 213.92 96.0696C213.683 95.9837 213.466 95.8513 213.281 95.6801C212.974 95.3992 212.79 95.0084 212.769 94.5927C212.749 94.1771 212.893 93.7701 213.171 93.4601L213.541 93.7901C213.351 94.0027 213.252 94.2819 213.267 94.5666C213.282 94.8514 213.409 95.1186 213.621 95.3101C213.898 95.5623 214.265 95.6944 214.639 95.6775C215.014 95.6607 215.367 95.4962 215.621 95.2201C215.941 94.8607 216.109 94.3912 216.091 93.9101C216.079 93.671 216.019 93.4366 215.916 93.2203C215.813 93.0041 215.669 92.8103 215.491 92.6501C215.033 92.2053 214.419 91.9576 213.781 91.9601C213.473 91.9856 213.173 92.0732 212.9 92.2175C212.627 92.3619 212.385 92.5601 212.191 92.8001C211.661 93.3877 211.384 94.1609 211.422 94.9513C211.459 95.7417 211.808 96.4853 212.391 97.0201C212.759 97.3556 213.191 97.615 213.66 97.7835C214.129 97.952 214.627 98.0263 215.125 98.0021C215.623 97.978 216.111 97.8558 216.561 97.6427C217.012 97.4296 217.416 97.1297 217.751 96.7601C218.607 95.8156 219.053 94.57 218.991 93.2968C218.929 92.0237 218.364 90.8272 217.421 89.9701C216.228 88.8901 214.656 88.3276 213.049 88.4064C211.442 88.4851 209.932 89.1987 208.851 90.3901C208.167 91.1292 207.638 91.9972 207.295 92.9434C206.951 93.8896 206.8 94.8948 206.851 95.9001C206.898 96.9046 207.143 97.8899 207.572 98.7994C208.001 99.7088 208.606 100.525 209.351 101.2C211.243 102.913 213.738 103.806 216.287 103.682C218.837 103.558 221.233 102.428 222.951 100.54L223.321 100.87C222.433 101.859 221.356 102.662 220.154 103.23C218.952 103.798 217.649 104.121 216.321 104.18L215.821 104.19Z" fill="#407BFF"/>
<path d="M242.821 139.19L244.351 133.81L239.351 130.43L245.461 130.08L246.351 126.95L247.711 129.95L252.711 129.66L249.151 133.11L251.621 138.62L246.801 135.39L242.821 139.19ZM244.821 134.1L243.821 137.54L246.321 135.12L244.821 134.1ZM247.131 135.1L250.411 137.29L248.731 133.54L247.131 135.1ZM244.961 133.65L246.701 134.81L248.511 133.06L247.371 130.53L245.831 130.61L244.961 133.65ZM240.851 130.9L244.531 133.36L245.301 130.64L240.851 130.9ZM247.911 130.5L248.911 132.69L251.381 130.3L247.911 130.5ZM246.441 128.5L245.971 130.15L247.151 130.09L246.441 128.5Z" fill="#407BFF"/>
<path d="M143.121 157.07L143.181 151.47L137.421 149.54L143.231 147.6V144.34L145.331 146.89L150.061 145.3L147.541 149.57L151.371 154.23L145.871 152.38L143.121 157.07ZM143.681 151.64V155.21L145.451 152.21L143.681 151.64ZM146.161 151.94L149.911 153.2L147.291 150L146.161 151.94ZM143.691 151.11L145.691 151.78L146.981 149.61L145.211 147.47L143.741 147.96L143.691 151.11ZM138.991 149.54L143.191 150.95V148.13L138.991 149.54ZM145.701 147.3L147.231 149.16L148.981 146.16L145.701 147.3ZM143.751 145.71V147.43L144.871 147.06L143.751 145.71Z" fill="#407BFF"/>
<path d="M286.791 204.06L284.431 198.76L279.101 199.88L283.261 196.15L280.791 190.59L286.151 193.59L288.571 191.42L288.111 194.68L292.481 197.1L287.631 198.1L286.791 204.06ZM284.931 198.66L286.531 202.27L287.111 198.2L284.931 198.66ZM283.481 196.66L280.821 199L284.221 198.29L283.481 196.66ZM283.871 196.31L284.721 198.22L287.181 197.7L287.571 194.95L286.221 194.2L283.871 196.31ZM288.041 195.21L287.701 197.59L291.061 196.89L288.041 195.21ZM281.861 191.78L283.651 195.83L285.751 193.94L281.861 191.78ZM286.611 193.85L287.611 194.42L287.851 192.7L286.611 193.85Z" fill="#407BFF"/>
<path d="M290.9 146.94C287.47 144.41 283.7 141.94 279.65 139.44C283.17 136.26 286.41 133.09 289.3 129.96C302.02 116.21 306.83 104.83 302.83 97.9102C298.83 90.9902 286.58 89.4702 268.31 93.6102C253.49 96.9702 236.11 103.73 218.39 112.94C199.26 107.2 180.92 103.81 165.73 103.28C147.02 102.64 135.26 106.42 132.62 113.96C129.98 121.5 136.84 131.78 151.91 142.96C155.34 145.49 159.11 147.96 163.16 150.47C159.64 153.65 156.4 156.82 153.51 159.94C140.79 173.64 136 185 140 191.94C142.48 196.25 148.31 198.53 156.85 198.53C162.806 198.413 168.731 197.645 174.52 196.24C189.34 192.88 206.72 186.13 224.44 176.91C243.57 182.66 261.91 186.04 277.09 186.57C278.47 186.62 279.84 186.65 281.16 186.65C297.47 186.65 307.79 182.83 310.16 175.9C312.81 168.36 306 158.08 290.9 146.94ZM277.11 185.57C262.26 185.06 244.38 181.79 225.68 176.25C229.167 174.41 232.66 172.487 236.16 170.48C251.383 161.827 265.695 151.662 278.88 140.14C283 142.64 286.83 145.14 290.31 147.75C304.99 158.6 311.71 168.48 309.24 175.57C306.77 182.66 295.36 186.22 277.11 185.57ZM161.71 104.21C177.06 104.21 196.71 107.58 217.12 113.61C213.63 115.45 210.12 117.36 206.65 119.38C191.419 128.034 177.1 138.202 163.91 149.73C142.62 136.86 130.37 123.47 133.57 114.29C135.83 107.79 145.83 104.21 161.71 104.21ZM164.79 150.26C177.883 138.883 192.072 128.834 207.15 120.26C210.93 118.08 214.707 116.01 218.48 114.05C222.56 115.27 226.68 116.6 230.79 118.05C247.206 123.642 263.021 130.861 278 139.6C264.917 150.98 250.734 161.03 235.66 169.6C231.88 171.79 228.09 173.86 224.32 175.83C220.24 174.604 216.14 173.27 212.02 171.83C195.599 166.227 179.778 159.002 164.79 150.26ZM231.12 117.07C227.32 115.737 223.533 114.5 219.76 113.36C245.26 100.23 269.82 92.3602 285.97 92.3602C294.14 92.3602 299.67 94.4702 301.97 98.4402C306.83 106.87 297.28 122.31 278.78 138.93C263.669 130.059 247.702 122.735 231.12 117.07ZM211.69 172.79C215.49 174.11 219.29 175.34 223.05 176.49C205.72 185.43 188.76 191.98 174.28 195.27C156.47 199.27 144.6 197.94 140.84 191.44C136 183 145.53 167.58 164 151C179.123 159.849 195.101 167.15 211.69 172.79Z" fill="#407BFF"/>
<path d="M141.11 110.5L154.16 122.61L156.74 120.8L167.44 127.73L155.92 114.58L152.7 117.55L141.11 110.5Z" fill="#407BFF"/>
<path d="M306.141 207.66L319.191 219.76L321.771 217.96L332.481 224.89L320.961 211.74L317.741 214.71L306.141 207.66Z" fill="#407BFF"/>
<path d="M329.021 102.49L315.961 114.59L313.381 112.78L302.681 119.72L314.201 106.57L317.421 109.53L329.021 102.49Z" fill="#407BFF"/>
<path d="M154.28 202.27L141.22 214.38L138.64 212.57L127.94 219.5L139.46 206.35L142.68 209.32L154.28 202.27Z" fill="#407BFF"/>
<path d="M419.009 399.65H80.0293V415.45H419.009V399.65Z" fill="#407BFF"/>
<path opacity="0.2" d="M419.009 399.65H80.0293V415.45H419.009V399.65Z" fill="#FAFAFA"/>
<path d="M424.07 399.65H75.9297C74.8688 399.65 73.8514 400.071 73.1013 400.821C72.3511 401.572 71.9297 402.589 71.9297 403.65C71.9283 404.173 72.0312 404.692 72.2324 405.175C72.4335 405.658 72.7289 406.096 73.1013 406.464C73.4736 406.832 73.9155 407.121 74.4012 407.316C74.8868 407.512 75.4064 407.608 75.9297 407.6H424.07C424.591 407.599 425.108 407.494 425.588 407.291C426.069 407.089 426.505 406.793 426.871 406.421C427.236 406.049 427.524 405.608 427.718 405.124C427.912 404.639 428.008 404.122 428 403.6C427.987 402.56 427.569 401.565 426.836 400.828C426.102 400.091 425.11 399.668 424.07 399.65Z" fill="#407BFF"/>
<path opacity="0.4" d="M424.07 399.65H75.9297C74.8688 399.65 73.8514 400.071 73.1013 400.821C72.3511 401.572 71.9297 402.589 71.9297 403.65C71.9283 404.173 72.0312 404.692 72.2324 405.175C72.4335 405.658 72.7289 406.096 73.1013 406.464C73.4736 406.832 73.9155 407.121 74.4012 407.316C74.8868 407.512 75.4064 407.608 75.9297 407.6H424.07C424.591 407.599 425.108 407.494 425.588 407.291C426.069 407.089 426.505 406.793 426.871 406.421C427.236 406.049 427.524 405.608 427.718 405.124C427.912 404.639 428.008 404.122 428 403.6C427.987 402.56 427.569 401.565 426.836 400.828C426.102 400.091 425.11 399.668 424.07 399.65Z" fill="#FAFAFA"/>
<path d="M164.81 399.45H143.13V393C143.28 386.75 141.25 376.88 139.49 367.44C137.98 363.77 139.7 352.87 140.85 343.27H167.66C168.84 352.6 170.66 363.08 169.02 367.44C166.76 377.5 164.37 387.8 164.81 393.01V399.45Z" fill="#407BFF"/>
<path opacity="0.6" d="M164.81 399.45H143.13V393C143.28 386.75 141.25 376.88 139.49 367.44C137.98 363.77 139.7 352.87 140.85 343.27H167.66C168.84 352.6 170.66 363.08 169.02 367.44C166.76 377.5 164.37 387.8 164.81 393.01V399.45Z" fill="white"/>
<path opacity="0.7" d="M163.579 397.8H144.439V392.03C144.559 386.52 142.779 377.8 141.219 369.47C140.409 365.26 140.369 362.47 141.389 354.02H167.139C168.139 362.25 168.139 364.02 167.279 369.47C165.279 378.35 163.179 387.47 163.569 392.04L163.579 397.8Z" fill="#407BFF"/>
<path opacity="0.5" d="M141.38 354.05L167.14 354.02L166.02 343.19L142.6 343.22L141.38 354.05Z" fill="white"/>
<path d="M147.309 358.4C147.85 358.4 148.289 357.961 148.289 357.42C148.289 356.879 147.85 356.44 147.309 356.44C146.768 356.44 146.329 356.879 146.329 357.42C146.329 357.961 146.768 358.4 147.309 358.4Z" fill="#407BFF"/>
<path opacity="0.4" d="M147.309 358.4C147.85 358.4 148.289 357.961 148.289 357.42C148.289 356.879 147.85 356.44 147.309 356.44C146.768 356.44 146.329 356.879 146.329 357.42C146.329 357.961 146.768 358.4 147.309 358.4Z" fill="white"/>
<path d="M154.26 364.55C154.26 364.748 154.201 364.941 154.091 365.105C153.981 365.27 153.825 365.398 153.642 365.474C153.46 365.549 153.259 365.569 153.065 365.531C152.871 365.492 152.693 365.397 152.553 365.257C152.413 365.117 152.318 364.939 152.279 364.745C152.24 364.551 152.26 364.35 152.336 364.167C152.412 363.984 152.54 363.828 152.704 363.718C152.869 363.608 153.062 363.55 153.26 363.55C153.525 363.55 153.779 363.655 153.967 363.843C154.154 364.03 154.26 364.285 154.26 364.55Z" fill="#407BFF"/>
<path opacity="0.4" d="M154.26 364.55C154.26 364.748 154.201 364.941 154.091 365.105C153.981 365.27 153.825 365.398 153.642 365.474C153.46 365.549 153.259 365.569 153.065 365.531C152.871 365.492 152.693 365.397 152.553 365.257C152.413 365.117 152.318 364.939 152.279 364.745C152.24 364.551 152.26 364.35 152.336 364.167C152.412 363.984 152.54 363.828 152.704 363.718C152.869 363.608 153.062 363.55 153.26 363.55C153.525 363.55 153.779 363.655 153.967 363.843C154.154 364.03 154.26 364.285 154.26 364.55Z" fill="white"/>
<path d="M164.379 356.64C164.921 356.64 165.359 356.201 165.359 355.66C165.359 355.118 164.921 354.68 164.379 354.68C163.838 354.68 163.399 355.118 163.399 355.66C163.399 356.201 163.838 356.64 164.379 356.64Z" fill="#407BFF"/>
<path opacity="0.4" d="M164.379 356.64C164.921 356.64 165.359 356.201 165.359 355.66C165.359 355.118 164.921 354.68 164.379 354.68C163.838 354.68 163.399 355.118 163.399 355.66C163.399 356.201 163.838 356.64 164.379 356.64Z" fill="white"/>
<path d="M154.549 357.43C155.091 357.43 155.529 356.991 155.529 356.45C155.529 355.908 155.091 355.47 154.549 355.47C154.008 355.47 153.569 355.908 153.569 356.45C153.569 356.991 154.008 357.43 154.549 357.43Z" fill="#407BFF"/>
<path opacity="0.4" d="M154.549 357.43C155.091 357.43 155.529 356.991 155.529 356.45C155.529 355.908 155.091 355.47 154.549 355.47C154.008 355.47 153.569 355.908 153.569 356.45C153.569 356.991 154.008 357.43 154.549 357.43Z" fill="white"/>
<path d="M142.78 364.09C143.321 364.09 143.76 363.651 143.76 363.11C143.76 362.569 143.321 362.13 142.78 362.13C142.239 362.13 141.8 362.569 141.8 363.11C141.8 363.651 142.239 364.09 142.78 364.09Z" fill="#407BFF"/>
<path opacity="0.4" d="M142.78 364.09C143.321 364.09 143.76 363.651 143.76 363.11C143.76 362.569 143.321 362.13 142.78 362.13C142.239 362.13 141.8 362.569 141.8 363.11C141.8 363.651 142.239 364.09 142.78 364.09Z" fill="white"/>
<path d="M162 368.08C162.541 368.08 162.98 367.641 162.98 367.1C162.98 366.558 162.541 366.12 162 366.12C161.458 366.12 161.02 366.558 161.02 367.1C161.02 367.641 161.458 368.08 162 368.08Z" fill="#407BFF"/>
<path opacity="0.4" d="M162 368.08C162.541 368.08 162.98 367.641 162.98 367.1C162.98 366.558 162.541 366.12 162 366.12C161.458 366.12 161.02 366.558 161.02 367.1C161.02 367.641 161.458 368.08 162 368.08Z" fill="white"/>
<path d="M146.33 372.31C146.871 372.31 147.31 371.871 147.31 371.33C147.31 370.788 146.871 370.35 146.33 370.35C145.788 370.35 145.35 370.788 145.35 371.33C145.35 371.871 145.788 372.31 146.33 372.31Z" fill="#407BFF"/>
<path opacity="0.4" d="M146.33 372.31C146.871 372.31 147.31 371.871 147.31 371.33C147.31 370.788 146.871 370.35 146.33 370.35C145.788 370.35 145.35 370.788 145.35 371.33C145.35 371.871 145.788 372.31 146.33 372.31Z" fill="white"/>
<path d="M147.09 365.76C147.088 365.88 147.051 365.997 146.982 366.096C146.914 366.195 146.818 366.271 146.707 366.316C146.595 366.361 146.473 366.371 146.355 366.347C146.237 366.322 146.13 366.263 146.045 366.177C145.961 366.092 145.904 365.983 145.881 365.865C145.858 365.747 145.871 365.625 145.917 365.514C145.964 365.403 146.042 365.308 146.142 365.242C146.242 365.175 146.36 365.14 146.48 365.14C146.561 365.14 146.641 365.156 146.716 365.187C146.79 365.218 146.858 365.264 146.915 365.322C146.972 365.38 147.016 365.448 147.047 365.523C147.077 365.598 147.091 365.679 147.09 365.76Z" fill="#407BFF"/>
<path opacity="0.4" d="M147.09 365.76C147.088 365.88 147.051 365.997 146.982 366.096C146.914 366.195 146.818 366.271 146.707 366.316C146.595 366.361 146.473 366.371 146.355 366.347C146.237 366.322 146.13 366.263 146.045 366.177C145.961 366.092 145.904 365.983 145.881 365.865C145.858 365.747 145.871 365.625 145.917 365.514C145.964 365.403 146.042 365.308 146.142 365.242C146.242 365.175 146.36 365.14 146.48 365.14C146.561 365.14 146.641 365.156 146.716 365.187C146.79 365.218 146.858 365.264 146.915 365.322C146.972 365.38 147.016 365.448 147.047 365.523C147.077 365.598 147.091 365.679 147.09 365.76Z" fill="white"/>
<path d="M147.71 362.5C147.691 362.649 147.618 362.787 147.504 362.887C147.391 362.986 147.245 363.041 147.095 363.041C146.944 363.041 146.798 362.986 146.685 362.887C146.572 362.787 146.499 362.649 146.48 362.5C146.468 362.413 146.476 362.324 146.502 362.24C146.528 362.155 146.571 362.078 146.629 362.012C146.687 361.946 146.759 361.893 146.839 361.856C146.92 361.82 147.007 361.801 147.095 361.801C147.183 361.801 147.27 361.82 147.35 361.856C147.43 361.893 147.502 361.946 147.56 362.012C147.618 362.078 147.662 362.155 147.687 362.24C147.713 362.324 147.721 362.413 147.71 362.5Z" fill="#407BFF"/>
<path opacity="0.4" d="M147.71 362.5C147.691 362.649 147.618 362.787 147.504 362.887C147.391 362.986 147.245 363.041 147.095 363.041C146.944 363.041 146.798 362.986 146.685 362.887C146.572 362.787 146.499 362.649 146.48 362.5C146.468 362.413 146.476 362.324 146.502 362.24C146.528 362.155 146.571 362.078 146.629 362.012C146.687 361.946 146.759 361.893 146.839 361.856C146.92 361.82 147.007 361.801 147.095 361.801C147.183 361.801 147.27 361.82 147.35 361.856C147.43 361.893 147.502 361.946 147.56 362.012C147.618 362.078 147.662 362.155 147.687 362.24C147.713 362.324 147.721 362.413 147.71 362.5Z" fill="white"/>
<path d="M151.249 360.13C151.249 360.292 151.185 360.447 151.071 360.561C150.956 360.676 150.801 360.74 150.639 360.74C150.478 360.74 150.322 360.676 150.208 360.561C150.094 360.447 150.029 360.292 150.029 360.13C150.029 359.968 150.094 359.813 150.208 359.699C150.322 359.584 150.478 359.52 150.639 359.52C150.801 359.52 150.956 359.584 151.071 359.699C151.185 359.813 151.249 359.968 151.249 360.13Z" fill="#407BFF"/>
<path opacity="0.4" d="M151.249 360.13C151.249 360.292 151.185 360.447 151.071 360.561C150.956 360.676 150.801 360.74 150.639 360.74C150.478 360.74 150.322 360.676 150.208 360.561C150.094 360.447 150.029 360.292 150.029 360.13C150.029 359.968 150.094 359.813 150.208 359.699C150.322 359.584 150.478 359.52 150.639 359.52C150.801 359.52 150.956 359.584 151.071 359.699C151.185 359.813 151.249 359.968 151.249 360.13Z" fill="white"/>
<path d="M158.86 370.96C159.197 370.96 159.47 370.687 159.47 370.35C159.47 370.013 159.197 369.74 158.86 369.74C158.523 369.74 158.25 370.013 158.25 370.35C158.25 370.687 158.523 370.96 158.86 370.96Z" fill="#407BFF"/>
<path opacity="0.4" d="M158.86 370.96C159.197 370.96 159.47 370.687 159.47 370.35C159.47 370.013 159.197 369.74 158.86 369.74C158.523 369.74 158.25 370.013 158.25 370.35C158.25 370.687 158.523 370.96 158.86 370.96Z" fill="white"/>
<path d="M162.61 375.92C162.611 376.001 162.596 376.081 162.566 376.156C162.536 376.231 162.492 376.3 162.435 376.357C162.378 376.415 162.31 376.461 162.236 376.492C162.161 376.524 162.081 376.54 162 376.54C161.835 376.54 161.678 376.474 161.561 376.358C161.445 376.242 161.38 376.084 161.38 375.92C161.38 375.839 161.396 375.759 161.427 375.684C161.459 375.609 161.504 375.542 161.562 375.485C161.62 375.428 161.688 375.383 161.763 375.353C161.839 375.323 161.919 375.308 162 375.31C162.08 375.31 162.159 375.325 162.233 375.356C162.307 375.387 162.375 375.432 162.431 375.488C162.488 375.545 162.533 375.612 162.563 375.686C162.594 375.76 162.61 375.84 162.61 375.92Z" fill="#407BFF"/>
<path opacity="0.4" d="M162.61 375.92C162.611 376.001 162.596 376.081 162.566 376.156C162.536 376.231 162.492 376.3 162.435 376.357C162.378 376.415 162.31 376.461 162.236 376.492C162.161 376.524 162.081 376.54 162 376.54C161.835 376.54 161.678 376.474 161.561 376.358C161.445 376.242 161.38 376.084 161.38 375.92C161.38 375.839 161.396 375.759 161.427 375.684C161.459 375.609 161.504 375.542 161.562 375.485C161.62 375.428 161.688 375.383 161.763 375.353C161.839 375.323 161.919 375.308 162 375.31C162.08 375.31 162.159 375.325 162.233 375.356C162.307 375.387 162.375 375.432 162.431 375.488C162.488 375.545 162.533 375.612 162.563 375.686C162.594 375.76 162.61 375.84 162.61 375.92Z" fill="white"/>
<path d="M163.229 359C163.229 359.081 163.213 359.161 163.182 359.236C163.15 359.31 163.105 359.378 163.047 359.435C162.989 359.492 162.921 359.536 162.846 359.566C162.77 359.596 162.69 359.611 162.609 359.61C162.447 359.61 162.292 359.546 162.178 359.431C162.063 359.317 161.999 359.162 161.999 359C161.998 358.919 162.013 358.839 162.043 358.763C162.073 358.688 162.117 358.62 162.174 358.562C162.231 358.504 162.299 358.459 162.373 358.427C162.448 358.396 162.528 358.38 162.609 358.38C162.774 358.38 162.931 358.445 163.048 358.561C163.164 358.678 163.229 358.835 163.229 359Z" fill="#407BFF"/>
<path opacity="0.4" d="M163.229 359C163.229 359.081 163.213 359.161 163.182 359.236C163.15 359.31 163.105 359.378 163.047 359.435C162.989 359.492 162.921 359.536 162.846 359.566C162.77 359.596 162.69 359.611 162.609 359.61C162.447 359.61 162.292 359.546 162.178 359.431C162.063 359.317 161.999 359.162 161.999 359C161.998 358.919 162.013 358.839 162.043 358.763C162.073 358.688 162.117 358.62 162.174 358.562C162.231 358.504 162.299 358.459 162.373 358.427C162.448 358.396 162.528 358.38 162.609 358.38C162.774 358.38 162.931 358.445 163.048 358.561C163.164 358.678 163.229 358.835 163.229 359Z" fill="white"/>
<path d="M140.62 343.18C141.189 343.18 141.65 342.718 141.65 342.15C141.65 341.581 141.189 341.12 140.62 341.12C140.051 341.12 139.59 341.581 139.59 342.15C139.59 342.718 140.051 343.18 140.62 343.18Z" fill="#407BFF"/>
<path opacity="0.4" d="M140.62 343.18C141.189 343.18 141.65 342.718 141.65 342.15C141.65 341.581 141.189 341.12 140.62 341.12C140.051 341.12 139.59 341.581 139.59 342.15C139.59 342.718 140.051 343.18 140.62 343.18Z" fill="white"/>
<path d="M143.849 340.11C144.418 340.11 144.879 339.649 144.879 339.08C144.879 338.511 144.418 338.05 143.849 338.05C143.28 338.05 142.819 338.511 142.819 339.08C142.819 339.649 143.28 340.11 143.849 340.11Z" fill="#407BFF"/>
<path opacity="0.4" d="M143.849 340.11C144.418 340.11 144.879 339.649 144.879 339.08C144.879 338.511 144.418 338.05 143.849 338.05C143.28 338.05 142.819 338.511 142.819 339.08C142.819 339.649 143.28 340.11 143.849 340.11Z" fill="white"/>
<path d="M146.259 338.87C146.259 339.032 146.211 339.191 146.121 339.325C146.031 339.46 145.903 339.565 145.753 339.627C145.603 339.689 145.438 339.706 145.279 339.674C145.12 339.642 144.974 339.564 144.859 339.45C144.745 339.335 144.667 339.189 144.635 339.03C144.603 338.871 144.619 338.706 144.682 338.556C144.744 338.406 144.849 338.278 144.984 338.188C145.118 338.098 145.277 338.05 145.439 338.05C145.657 338.05 145.865 338.136 146.019 338.29C146.173 338.444 146.259 338.652 146.259 338.87Z" fill="#407BFF"/>
<path opacity="0.4" d="M146.259 338.87C146.259 339.032 146.211 339.191 146.121 339.325C146.031 339.46 145.903 339.565 145.753 339.627C145.603 339.689 145.438 339.706 145.279 339.674C145.12 339.642 144.974 339.564 144.859 339.45C144.745 339.335 144.667 339.189 144.635 339.03C144.603 338.871 144.619 338.706 144.682 338.556C144.744 338.406 144.849 338.278 144.984 338.188C145.118 338.098 145.277 338.05 145.439 338.05C145.657 338.05 145.865 338.136 146.019 338.29C146.173 338.444 146.259 338.652 146.259 338.87Z" fill="white"/>
<path d="M149.609 340.72C150.178 340.72 150.639 340.259 150.639 339.69C150.639 339.121 150.178 338.66 149.609 338.66C149.04 338.66 148.579 339.121 148.579 339.69C148.579 340.259 149.04 340.72 149.609 340.72Z" fill="#407BFF"/>
<path opacity="0.4" d="M149.609 340.72C150.178 340.72 150.639 340.259 150.639 339.69C150.639 339.121 150.178 338.66 149.609 338.66C149.04 338.66 148.579 339.121 148.579 339.69C148.579 340.259 149.04 340.72 149.609 340.72Z" fill="white"/>
<path d="M153.929 342.15C154.498 342.15 154.959 341.689 154.959 341.12C154.959 340.551 154.498 340.09 153.929 340.09C153.361 340.09 152.899 340.551 152.899 341.12C152.899 341.689 153.361 342.15 153.929 342.15Z" fill="#407BFF"/>
<path opacity="0.4" d="M153.929 342.15C154.498 342.15 154.959 341.689 154.959 341.12C154.959 340.551 154.498 340.09 153.929 340.09C153.361 340.09 152.899 340.551 152.899 341.12C152.899 341.689 153.361 342.15 153.929 342.15Z" fill="white"/>
<path d="M162.24 340.11C162.809 340.11 163.27 339.649 163.27 339.08C163.27 338.511 162.809 338.05 162.24 338.05C161.671 338.05 161.21 338.511 161.21 339.08C161.21 339.649 161.671 340.11 162.24 340.11Z" fill="#407BFF"/>
<path opacity="0.4" d="M162.24 340.11C162.809 340.11 163.27 339.649 163.27 339.08C163.27 338.511 162.809 338.05 162.24 338.05C161.671 338.05 161.21 338.511 161.21 339.08C161.21 339.649 161.671 340.11 162.24 340.11Z" fill="white"/>
<path d="M142.779 343.19C143.796 343.19 144.619 342.366 144.619 341.35C144.619 340.334 143.796 339.51 142.779 339.51C141.763 339.51 140.939 340.334 140.939 341.35C140.939 342.366 141.763 343.19 142.779 343.19Z" fill="#407BFF"/>
<path opacity="0.4" d="M142.779 343.19C143.796 343.19 144.619 342.366 144.619 341.35C144.619 340.334 143.796 339.51 142.779 339.51C141.763 339.51 140.939 340.334 140.939 341.35C140.939 342.366 141.763 343.19 142.779 343.19Z" fill="white"/>
<path d="M147.57 340.5C148.586 340.5 149.41 339.676 149.41 338.66C149.41 337.644 148.586 336.82 147.57 336.82C146.553 336.82 145.729 337.644 145.729 338.66C145.729 339.676 146.553 340.5 147.57 340.5Z" fill="#407BFF"/>
<path opacity="0.4" d="M147.57 340.5C148.586 340.5 149.41 339.676 149.41 338.66C149.41 337.644 148.586 336.82 147.57 336.82C146.553 336.82 145.729 337.644 145.729 338.66C145.729 339.676 146.553 340.5 147.57 340.5Z" fill="white"/>
<path d="M151.949 341.35C152.966 341.35 153.789 340.526 153.789 339.51C153.789 338.494 152.966 337.67 151.949 337.67C150.933 337.67 150.109 338.494 150.109 339.51C150.109 340.526 150.933 341.35 151.949 341.35Z" fill="#407BFF"/>
<path opacity="0.4" d="M151.949 341.35C152.966 341.35 153.789 340.526 153.789 339.51C153.789 338.494 152.966 337.67 151.949 337.67C150.933 337.67 150.109 338.494 150.109 339.51C150.109 340.526 150.933 341.35 151.949 341.35Z" fill="white"/>
<path d="M156.39 342.33C157.406 342.33 158.23 341.506 158.23 340.49C158.23 339.474 157.406 338.65 156.39 338.65C155.374 338.65 154.55 339.474 154.55 340.49C154.55 341.506 155.374 342.33 156.39 342.33Z" fill="#407BFF"/>
<path opacity="0.4" d="M156.39 342.33C157.406 342.33 158.23 341.506 158.23 340.49C158.23 339.474 157.406 338.65 156.39 338.65C155.374 338.65 154.55 339.474 154.55 340.49C154.55 341.506 155.374 342.33 156.39 342.33Z" fill="white"/>
<path d="M159.81 342.33C160.826 342.33 161.65 341.506 161.65 340.49C161.65 339.474 160.826 338.65 159.81 338.65C158.794 338.65 157.97 339.474 157.97 340.49C157.97 341.506 158.794 342.33 159.81 342.33Z" fill="#407BFF"/>
<path opacity="0.4" d="M159.81 342.33C160.826 342.33 161.65 341.506 161.65 340.49C161.65 339.474 160.826 338.65 159.81 338.65C158.794 338.65 157.97 339.474 157.97 340.49C157.97 341.506 158.794 342.33 159.81 342.33Z" fill="white"/>
<path d="M164.38 341.95C165.396 341.95 166.22 341.126 166.22 340.11C166.22 339.094 165.396 338.27 164.38 338.27C163.364 338.27 162.54 339.094 162.54 340.11C162.54 341.126 163.364 341.95 164.38 341.95Z" fill="#407BFF"/>
<path opacity="0.4" d="M164.38 341.95C165.396 341.95 166.22 341.126 166.22 340.11C166.22 339.094 165.396 338.27 164.38 338.27C163.364 338.27 162.54 339.094 162.54 340.11C162.54 341.126 163.364 341.95 164.38 341.95Z" fill="white"/>
<path d="M167.14 343.19C168.156 343.19 168.98 342.366 168.98 341.35C168.98 340.334 168.156 339.51 167.14 339.51C166.124 339.51 165.3 340.334 165.3 341.35C165.3 342.366 166.124 343.19 167.14 343.19Z" fill="#407BFF"/>
<path opacity="0.4" d="M167.14 343.19C168.156 343.19 168.98 342.366 168.98 341.35C168.98 340.334 168.156 339.51 167.14 339.51C166.124 339.51 165.3 340.334 165.3 341.35C165.3 342.366 166.124 343.19 167.14 343.19Z" fill="white"/>
<path d="M140.84 343.22L167.65 343.18L167.55 340.92L162.55 339.08L158.89 340.49L153.57 340.92L151.35 339.51L147.57 338.66L144.04 339.08L140.84 343.22Z" fill="#407BFF"/>
<path opacity="0.4" d="M140.84 343.22L167.65 343.18L167.55 340.92L162.55 339.08L158.89 340.49L153.57 340.92L151.35 339.51L147.57 338.66L144.04 339.08L140.84 343.22Z" fill="white"/>
</svg>
