<svg width="256" height="256" viewBox="0 0 256 256" fill="none" xmlns="http://www.w3.org/2000/svg">
<path d="M230.349 204.027H213.392V204.155H230.349V204.027Z" fill="#EBEBEB"/>
<path d="M169.585 205.419H165.136V205.547H169.585V205.419Z" fill="#EBEBEB"/>
<path d="M212.879 199.276H203.054V199.404H212.879V199.276Z" fill="#EBEBEB"/>
<path d="M48.9727 200.136H26.8594V200.264H48.9727V200.136Z" fill="#EBEBEB"/>
<path d="M56.7761 200.136H53.5352V200.264H56.7761V200.136Z" fill="#EBEBEB"/>
<path d="M115.277 202.296H67.3125V202.424H115.277V202.296Z" fill="#EBEBEB"/>
<path d="M121.344 172.954H22.487C21.7116 172.954 20.968 172.646 20.4198 172.097C19.8715 171.549 19.5635 170.805 19.5635 170.03V31.058C19.5702 30.287 19.8812 29.55 20.4288 29.0072C20.9763 28.4645 21.716 28.16 22.487 28.16H121.344C122.119 28.16 122.863 28.468 123.411 29.0163C123.959 29.5646 124.267 30.3082 124.267 31.0836V170.03C124.267 170.805 123.959 171.549 123.411 172.097C122.863 172.646 122.119 172.954 121.344 172.954ZM22.487 28.2624C21.746 28.2638 21.0357 28.5587 20.5118 29.0827C19.9878 29.6067 19.6928 30.317 19.6915 31.058V170.03C19.6928 170.771 19.9878 171.481 20.5118 172.005C21.0357 172.529 21.746 172.824 22.487 172.826H121.344C122.085 172.824 122.795 172.529 123.319 172.005C123.843 171.481 124.138 170.771 124.139 170.03V31.058C124.138 30.317 123.843 29.6067 123.319 29.0827C122.795 28.5587 122.085 28.2638 121.344 28.2624H22.487Z" fill="#EBEBEB"/>
<path d="M232.094 172.954H133.227C132.452 172.952 131.709 172.644 131.161 172.096C130.614 171.548 130.305 170.805 130.304 170.03V31.058C130.312 30.2875 130.623 29.5512 131.17 29.0087C131.718 28.4663 132.457 28.1613 133.227 28.16H232.094C232.864 28.1627 233.601 28.4684 234.146 29.0108C234.691 29.5533 235.001 30.2888 235.008 31.058V170.03C235.008 170.804 234.701 171.546 234.155 172.094C233.609 172.642 232.868 172.951 232.094 172.954ZM133.227 28.2624C132.486 28.2638 131.776 28.5587 131.252 29.0827C130.728 29.6067 130.433 30.317 130.432 31.058V170.03C130.433 170.771 130.728 171.481 131.252 172.005C131.776 172.529 132.486 172.824 133.227 172.826H232.094C232.835 172.824 233.546 172.529 234.07 172.005C234.594 171.481 234.889 170.771 234.89 170.03V31.058C234.889 30.317 234.594 29.6067 234.07 29.0827C233.546 28.5587 232.835 28.2638 232.094 28.2624H133.227Z" fill="#EBEBEB"/>
<path d="M256 195.789H0V195.917H256V195.789Z" fill="#EBEBEB"/>
<path d="M43.3307 194.944H44.498L44.498 121.754H43.3307L43.3307 194.944Z" fill="#EBEBEB"/>
<path d="M57.0261 114.176C57.0261 117.909 54.374 121.17 50.4367 122.906H37.3756C33.4383 121.17 30.7861 117.909 30.7861 114.176C30.7861 110.444 33.4588 107.187 37.3756 105.472H50.4367C54.374 107.187 57.0261 110.444 57.0261 114.176Z" fill="#F0F0F0"/>
<path d="M39.6797 114.176C39.6797 110.438 42.3267 107.182 46.264 105.441H50.4368C54.3741 107.182 57.0262 110.438 57.0262 114.176C57.0262 117.914 54.3741 121.17 50.4368 122.906H46.264C42.3267 121.175 39.6797 117.914 39.6797 114.176Z" fill="#F5F5F5"/>
<path d="M35.7021 195.502H52.1322C52.1322 195.239 52.0803 194.978 51.9794 194.735C51.8784 194.492 51.7305 194.271 51.5441 194.085C51.3576 193.899 51.1363 193.751 50.8929 193.651C50.6494 193.551 50.3885 193.5 50.1252 193.5H37.7092C37.1778 193.5 36.668 193.711 36.2918 194.086C35.9156 194.462 35.7035 194.971 35.7021 195.502Z" fill="#EBEBEB"/>
<path d="M209.827 164.644C209.873 164.69 209.628 165.033 210.626 164.884C213.084 164.516 217.364 163.517 218.552 160.988C220.257 157.378 214.968 158.699 215.162 156.851C215.357 155.003 221.347 155.315 221.982 152.622C222.617 149.929 218.552 151.204 218.496 149.888C218.439 148.572 223.134 149.376 224.061 146.468C224.988 143.56 221.45 145.695 221.854 144.481C222.259 143.268 226.232 137.774 224.071 137.139C221.911 136.504 218.275 142.136 216.873 142.935C215.47 143.734 214.225 139.131 212.551 141.076C210.877 143.022 213.529 149.811 211.399 151.132C209.807 152.11 210.257 149.407 208.158 149.914C205.312 150.6 206.269 160.655 209.827 164.644Z" fill="#F5F5F5"/>
<path d="M217.416 149.903C216.692 149.954 215.977 150.101 215.291 150.339C215.743 149.654 216.248 149.005 216.801 148.398C216.819 148.381 216.832 148.361 216.842 148.338C216.851 148.316 216.856 148.292 216.856 148.267C216.856 148.243 216.851 148.219 216.842 148.197C216.832 148.174 216.819 148.154 216.801 148.137C216.785 148.12 216.765 148.106 216.743 148.097C216.721 148.088 216.697 148.083 216.673 148.083C216.65 148.083 216.626 148.088 216.604 148.097C216.582 148.106 216.562 148.12 216.545 148.137C215.355 149.466 214.336 150.941 213.514 152.525C213.095 149.548 213.51 146.514 214.712 143.759C214.721 143.743 214.726 143.726 214.728 143.708C214.73 143.689 214.727 143.671 214.722 143.654C214.716 143.637 214.707 143.621 214.695 143.607C214.682 143.594 214.668 143.583 214.651 143.575C214.618 143.559 214.581 143.556 214.546 143.568C214.512 143.579 214.483 143.604 214.467 143.636C213.194 146.551 212.792 149.771 213.31 152.909C213.059 153.39 212.798 153.902 212.557 154.445C211.676 156.403 210.98 158.439 210.478 160.527C209.569 158.814 209.073 156.911 209.029 154.972C209.027 154.936 209.01 154.902 208.984 154.877C208.957 154.853 208.922 154.839 208.886 154.839C208.868 154.84 208.851 154.844 208.835 154.851C208.819 154.858 208.805 154.869 208.793 154.882C208.781 154.894 208.772 154.909 208.766 154.926C208.76 154.942 208.757 154.96 208.758 154.977C208.798 157.06 209.357 159.1 210.386 160.911C209.455 165.023 209.143 169.251 209.459 173.455C209.463 173.504 209.486 173.549 209.522 173.581C209.558 173.614 209.605 173.631 209.654 173.629C209.697 173.621 209.735 173.597 209.761 173.562C209.788 173.527 209.801 173.484 209.797 173.44C209.365 168.104 210.005 162.735 211.681 157.65C212.431 156.781 213.455 156.195 214.584 155.991C214.619 155.985 214.65 155.965 214.671 155.937C214.692 155.908 214.702 155.873 214.697 155.837C214.695 155.82 214.69 155.802 214.681 155.787C214.672 155.771 214.66 155.757 214.645 155.747C214.631 155.736 214.614 155.729 214.597 155.725C214.579 155.721 214.561 155.721 214.544 155.725C213.549 155.893 212.627 156.35 211.891 157.041C212.695 154.826 213.752 152.711 215.04 150.738C215.808 150.42 216.623 150.23 217.452 150.175C217.488 150.171 217.521 150.153 217.545 150.126C217.569 150.098 217.581 150.063 217.58 150.026C217.578 150.007 217.572 149.988 217.563 149.972C217.553 149.955 217.54 149.94 217.525 149.928C217.51 149.917 217.492 149.909 217.473 149.904C217.454 149.9 217.435 149.9 217.416 149.903Z" fill="#E0E0E0"/>
<path d="M205.824 167.137C203.31 167.189 199.014 164.849 197.324 162.581C195.635 160.312 200.432 161.705 199.936 159.893C199.439 158.08 193.505 159.422 192.409 156.821C191.314 154.22 195.599 154.824 195.425 153.498C195.251 152.172 190.817 152.443 189.394 149.683C187.97 146.924 191.872 148.47 191.262 147.328C190.653 146.186 185.758 141.379 187.806 140.375C189.854 139.372 194.437 144.379 195.973 144.937C197.509 145.495 197.867 142.039 199.869 143.693C201.871 145.347 200.381 152.581 202.726 153.534C204.477 154.245 203.75 150.938 205.752 151.772C209.29 153.237 206.848 167.122 205.824 167.137Z" fill="#E6E6E6"/>
<g opacity="0.3">
<path d="M205.824 167.137C203.31 167.189 199.014 164.849 197.324 162.581C195.635 160.312 200.432 161.705 199.936 159.893C199.439 158.08 193.505 159.422 192.409 156.821C191.314 154.22 195.599 154.824 195.425 153.498C195.251 152.172 190.817 152.443 189.394 149.683C187.97 146.924 191.872 148.47 191.262 147.328C190.653 146.186 185.758 141.379 187.806 140.375C189.854 139.372 194.437 144.379 195.973 144.937C197.509 145.495 197.867 142.039 199.869 143.693C201.871 145.347 200.381 152.581 202.726 153.534C204.477 154.245 203.75 150.938 205.752 151.772C209.29 153.237 206.848 167.122 205.824 167.137Z" fill="#E6E6E6"/>
</g>
<path d="M205 164.122C205.039 164.108 205.072 164.081 205.092 164.045C206.049 161.934 206.438 159.609 206.218 157.302C206.218 157.257 206.2 157.214 206.169 157.182C206.137 157.151 206.094 157.133 206.049 157.133C206.004 157.133 205.961 157.151 205.93 157.182C205.898 157.214 205.88 157.257 205.88 157.302C206.068 159.49 205.717 161.691 204.856 163.712C203.819 160.918 202.539 158.22 201.032 155.648C201.228 152.2 200.411 148.771 198.682 145.782C198.657 145.745 198.62 145.719 198.577 145.709C198.534 145.7 198.489 145.707 198.451 145.731C198.432 145.742 198.416 145.757 198.403 145.775C198.39 145.793 198.381 145.813 198.377 145.835C198.372 145.856 198.371 145.879 198.375 145.9C198.379 145.922 198.388 145.943 198.4 145.961C200.004 148.748 200.81 151.922 200.73 155.136C198.92 152.032 196.761 149.146 194.294 146.534C194.274 146.513 194.249 146.496 194.223 146.485C194.196 146.473 194.167 146.467 194.138 146.467C194.108 146.467 194.079 146.473 194.053 146.485C194.026 146.496 194.002 146.513 193.981 146.534C193.94 146.577 193.916 146.634 193.916 146.693C193.916 146.753 193.94 146.81 193.981 146.852C195.801 148.769 197.444 150.846 198.892 153.057C197.371 152.489 195.758 152.206 194.135 152.223C194.111 152.219 194.086 152.22 194.062 152.226C194.038 152.232 194.016 152.244 193.997 152.26C193.978 152.276 193.963 152.295 193.953 152.318C193.942 152.34 193.937 152.365 193.937 152.389C193.937 152.414 193.942 152.438 193.953 152.461C193.963 152.483 193.978 152.503 193.997 152.519C194.016 152.534 194.038 152.546 194.062 152.552C194.086 152.559 194.111 152.56 194.135 152.556C195.875 152.543 197.6 152.879 199.209 153.544C200.202 155.066 201.116 156.638 201.948 158.254C201.273 157.783 200.503 157.466 199.692 157.322C198.881 157.179 198.049 157.214 197.253 157.425C197.211 157.437 197.174 157.465 197.152 157.503C197.13 157.541 197.124 157.587 197.135 157.63C197.14 157.651 197.149 157.672 197.162 157.69C197.175 157.708 197.192 157.724 197.211 157.735C197.23 157.747 197.252 157.754 197.274 157.757C197.296 157.76 197.319 157.758 197.34 157.752C198.202 157.529 199.105 157.522 199.971 157.731C200.836 157.939 201.637 158.358 202.301 158.95C205.208 164.682 206.869 170.964 207.176 177.382C207.176 177.411 207.183 177.44 207.194 177.466C207.206 177.493 207.223 177.517 207.244 177.537C207.265 177.557 207.289 177.572 207.316 177.583C207.343 177.593 207.372 177.598 207.401 177.598C207.46 177.595 207.515 177.569 207.555 177.526C207.596 177.483 207.617 177.426 207.616 177.367C207.425 172.844 206.543 168.377 205 164.122Z" fill="#F5F5F5"/>
<path d="M212.423 195.502C214.374 189.952 215.654 181.929 215.654 178.411C215.707 175.714 214.87 173.075 213.273 170.9H203.295C201.695 173.073 200.858 175.714 200.914 178.411C200.914 181.929 202.194 189.952 204.144 195.502H212.423Z" fill="#E6E6E6"/>
<path d="M100.695 162.273H56.8164V177.418H100.695V162.273Z" fill="#EBEBEB"/>
<path d="M100.695 177.418H56.8164V192.563H100.695V177.418Z" fill="#EBEBEB"/>
<path d="M73.4927 177.418L78.9507 162.273H70.5487L65.0908 177.418H73.4927Z" fill="#F5F5F5"/>
<path d="M83.0152 162.273H81.172L75.709 177.418H77.5573L83.0152 162.273Z" fill="#F5F5F5"/>
<path d="M68.0298 192.563L73.4929 177.418H65.091L59.6279 192.563H68.0298Z" fill="#F5F5F5"/>
<path d="M77.5582 177.418H75.7099L70.252 192.563H72.0951L77.5582 177.418Z" fill="#F5F5F5"/>
<path d="M100.695 164.598V163.067H56.8169V164.598H100.695Z" fill="#E0E0E0"/>
<path d="M100.695 179.625V178.094H56.8169V179.625H100.695Z" fill="#E0E0E0"/>
<path d="M56.0488 161.592V193.224H101.463V161.592H56.0488ZM99.9272 191.693H57.5848V178.217H99.9272V191.693ZM99.9272 176.686H57.5848V163.21H99.9272V176.686Z" fill="#F5F5F5"/>
<path d="M146.104 162.273H102.226V177.418H146.104V162.273Z" fill="#EBEBEB"/>
<path d="M146.104 177.418H102.226V192.563H146.104V177.418Z" fill="#EBEBEB"/>
<path d="M123.484 177.418L128.942 162.273H120.54L115.082 177.418H123.484Z" fill="#F5F5F5"/>
<path d="M133.007 162.273H131.164L125.701 177.418H127.549L133.007 162.273Z" fill="#F5F5F5"/>
<path d="M118.021 192.563L123.484 177.418H115.082L109.619 192.563H118.021Z" fill="#F5F5F5"/>
<path d="M127.549 177.418H125.701L120.243 192.563H122.091L127.549 177.418Z" fill="#F5F5F5"/>
<path d="M146.104 164.598V163.067H102.226V164.598H146.104Z" fill="#E0E0E0"/>
<path d="M146.104 179.625V178.094H102.226V179.625H146.104Z" fill="#E0E0E0"/>
<path d="M101.463 161.592V193.224H146.872V161.592H101.463ZM145.336 191.693H102.994V178.217H145.336V191.693ZM145.336 176.686H102.994V163.21H145.336V176.686Z" fill="#F5F5F5"/>
<path d="M191.513 162.273H147.635V177.418H191.513V162.273Z" fill="#EBEBEB"/>
<path d="M191.513 177.418H147.635V192.563H191.513V177.418Z" fill="#EBEBEB"/>
<path d="M166.308 177.418L171.771 162.273H163.369L157.906 177.418H166.308Z" fill="#F5F5F5"/>
<path d="M175.837 162.273H173.988L168.53 177.418H170.379L175.837 162.273Z" fill="#F5F5F5"/>
<path d="M160.85 192.563L166.308 177.418H157.906L152.448 192.563H160.85Z" fill="#F5F5F5"/>
<path d="M170.379 177.418H168.53L163.072 192.563H164.915L170.379 177.418Z" fill="#F5F5F5"/>
<path d="M191.514 164.598V163.067H147.635V164.598H191.514Z" fill="#E0E0E0"/>
<path d="M191.514 179.625V178.094H147.635V179.625H191.514Z" fill="#E0E0E0"/>
<path d="M146.872 161.592V193.224H192.281V161.592H146.872ZM190.745 191.693H148.403V178.217H190.745V191.693ZM190.745 176.686H148.403V163.21H190.745V176.686Z" fill="#F5F5F5"/>
<path d="M187.889 195.502H60.442L59.7764 193.224H188.555L187.889 195.502Z" fill="#E0E0E0"/>
<path d="M125.481 171.264C125.481 171.524 125.404 171.779 125.26 171.995C125.115 172.212 124.909 172.38 124.669 172.48C124.429 172.579 124.164 172.605 123.909 172.555C123.653 172.504 123.419 172.379 123.235 172.195C123.051 172.01 122.926 171.776 122.875 171.521C122.824 171.266 122.85 171.001 122.95 170.761C123.049 170.52 123.218 170.315 123.434 170.17C123.651 170.025 123.905 169.948 124.165 169.948C124.514 169.95 124.848 170.089 125.094 170.335C125.341 170.582 125.48 170.916 125.481 171.264Z" fill="#E0E0E0"/>
<path d="M124.165 172.211C124.892 172.211 125.481 171.622 125.481 170.895C125.481 170.169 124.892 169.58 124.165 169.58C123.439 169.58 122.85 170.169 122.85 170.895C122.85 171.622 123.439 172.211 124.165 172.211Z" fill="#FAFAFA"/>
<path d="M124.165 186.491C124.892 186.491 125.481 185.902 125.481 185.175C125.481 184.448 124.892 183.859 124.165 183.859C123.439 183.859 122.85 184.448 122.85 185.175C122.85 185.902 123.439 186.491 124.165 186.491Z" fill="#E0E0E0"/>
<path d="M125.481 184.832C125.48 185.092 125.402 185.346 125.257 185.562C125.112 185.777 124.906 185.945 124.665 186.044C124.425 186.143 124.161 186.168 123.906 186.117C123.651 186.065 123.417 185.94 123.233 185.755C123.05 185.571 122.925 185.337 122.875 185.082C122.824 184.827 122.851 184.562 122.95 184.322C123.05 184.082 123.219 183.877 123.435 183.732C123.651 183.588 123.905 183.511 124.165 183.511C124.339 183.511 124.51 183.545 124.67 183.612C124.83 183.678 124.975 183.775 125.098 183.898C125.22 184.021 125.317 184.167 125.383 184.327C125.448 184.487 125.482 184.659 125.481 184.832Z" fill="#FAFAFA"/>
<path d="M80.0721 171.264C80.0721 171.524 79.9949 171.779 79.8504 171.995C79.7058 172.212 79.5003 172.38 79.2598 172.48C79.0194 172.579 78.7548 172.605 78.4996 172.555C78.2443 172.504 78.0099 172.379 77.8258 172.195C77.6418 172.01 77.5165 171.776 77.4657 171.521C77.4149 171.266 77.441 171.001 77.5406 170.761C77.6402 170.52 77.8088 170.315 78.0252 170.17C78.2416 170.025 78.496 169.948 78.7563 169.948C79.1048 169.95 79.4387 170.089 79.6852 170.335C79.9317 170.582 80.0708 170.916 80.0721 171.264Z" fill="#E0E0E0"/>
<path d="M78.7563 172.211C79.483 172.211 80.0721 171.622 80.0721 170.895C80.0721 170.169 79.483 169.58 78.7563 169.58C78.0296 169.58 77.4404 170.169 77.4404 170.895C77.4404 171.622 78.0296 172.211 78.7563 172.211Z" fill="#FAFAFA"/>
<path d="M78.7563 186.491C79.483 186.491 80.0721 185.902 80.0721 185.175C80.0721 184.448 79.483 183.859 78.7563 183.859C78.0296 183.859 77.4404 184.448 77.4404 185.175C77.4404 185.902 78.0296 186.491 78.7563 186.491Z" fill="#E0E0E0"/>
<path d="M80.0721 184.832C80.0711 185.092 79.9931 185.346 79.8479 185.562C79.7027 185.777 79.4968 185.945 79.2563 186.044C79.0157 186.143 78.7513 186.168 78.4964 186.117C78.2415 186.065 78.0075 185.94 77.824 185.755C77.6405 185.571 77.5157 185.337 77.4653 185.082C77.415 184.827 77.4413 184.562 77.5411 184.322C77.6408 184.082 77.8095 183.877 78.0258 183.732C78.242 183.588 78.4962 183.511 78.7563 183.511C78.9295 183.511 79.101 183.545 79.261 183.612C79.421 183.678 79.5663 183.775 79.6885 183.898C79.8108 184.021 79.9076 184.167 79.9734 184.327C80.0392 184.487 80.0728 184.659 80.0721 184.832Z" fill="#FAFAFA"/>
<path d="M171.694 171.264C171.695 171.526 171.618 171.782 171.473 172C171.328 172.218 171.122 172.388 170.881 172.489C170.639 172.589 170.373 172.616 170.116 172.565C169.86 172.514 169.624 172.388 169.439 172.203C169.254 172.018 169.128 171.782 169.077 171.526C169.026 171.269 169.053 171.003 169.153 170.761C169.254 170.52 169.424 170.313 169.642 170.169C169.86 170.024 170.116 169.947 170.378 169.948C170.726 169.95 171.06 170.089 171.307 170.335C171.553 170.582 171.692 170.916 171.694 171.264Z" fill="#E0E0E0"/>
<path d="M170.378 172.211C171.105 172.211 171.694 171.622 171.694 170.895C171.694 170.169 171.105 169.58 170.378 169.58C169.652 169.58 169.062 170.169 169.062 170.895C169.062 171.622 169.652 172.211 170.378 172.211Z" fill="#FAFAFA"/>
<path d="M170.378 186.491C171.105 186.491 171.694 185.902 171.694 185.175C171.694 184.448 171.105 183.859 170.378 183.859C169.652 183.859 169.062 184.448 169.062 185.175C169.062 185.902 169.652 186.491 170.378 186.491Z" fill="#E0E0E0"/>
<path d="M171.694 184.832C171.694 185.093 171.616 185.349 171.471 185.566C171.325 185.784 171.119 185.953 170.877 186.053C170.635 186.153 170.37 186.179 170.113 186.127C169.857 186.076 169.621 185.949 169.437 185.764C169.252 185.579 169.127 185.343 169.077 185.086C169.026 184.83 169.053 184.564 169.154 184.323C169.255 184.082 169.425 183.876 169.643 183.731C169.86 183.587 170.116 183.51 170.378 183.511C170.551 183.511 170.723 183.545 170.883 183.612C171.043 183.678 171.188 183.775 171.31 183.898C171.432 184.021 171.529 184.167 171.595 184.327C171.661 184.487 171.694 184.659 171.694 184.832Z" fill="#FAFAFA"/>
<path d="M125.532 216.94C180.359 216.94 224.804 214.345 224.804 211.144C224.804 207.943 180.359 205.348 125.532 205.348C70.7062 205.348 26.2607 207.943 26.2607 211.144C26.2607 214.345 70.7062 216.94 125.532 216.94Z" fill="#F5F5F5"/>
<path d="M212.198 41.6359H41.9121V140.483H212.198V41.6359Z" fill="#407BFF"/>
<path opacity="0.5" d="M212.198 41.6359H41.9121V140.483H212.198V41.6359Z" fill="white"/>
<path d="M41.9121 41.6359V49.6077H70.3998V46.5357C70.3998 45.8051 70.69 45.1045 71.2066 44.5879C71.7232 44.0714 72.4238 43.7811 73.1544 43.7811H92.0983C92.4598 43.7811 92.8178 43.8524 93.1517 43.9909C93.4856 44.1294 93.7889 44.3324 94.0443 44.5882C94.2997 44.8441 94.5021 45.1478 94.64 45.482C94.7778 45.8161 94.8485 46.1742 94.8478 46.5357V49.6077H212.198V41.6359H41.9121Z" fill="#407BFF"/>
<path opacity="0.7" d="M49.0185 45.6192C49.0195 45.9822 48.9127 46.3373 48.7117 46.6395C48.5107 46.9417 48.2244 47.1774 47.8893 47.3168C47.5542 47.4562 47.1852 47.4929 46.8292 47.4223C46.4731 47.3518 46.1461 47.1771 45.8894 46.9204C45.6327 46.6638 45.4581 46.3367 45.3875 45.9807C45.3169 45.6246 45.3537 45.2557 45.493 44.9205C45.6324 44.5854 45.8681 44.2992 46.1704 44.0982C46.4726 43.8971 46.8277 43.7904 47.1906 43.7914C47.6754 43.7914 48.1403 43.984 48.4831 44.3268C48.8259 44.6695 49.0185 45.1345 49.0185 45.6192Z" fill="white"/>
<path opacity="0.7" d="M54.5077 45.6192C54.5087 45.9822 54.402 46.3373 54.2009 46.6395C53.9999 46.9417 53.7137 47.1774 53.3786 47.3168C53.0434 47.4562 52.6745 47.4929 52.3184 47.4223C51.9624 47.3518 51.6353 47.1771 51.3787 46.9204C51.122 46.6638 50.9473 46.3367 50.8768 45.9807C50.8062 45.6246 50.8429 45.2557 50.9823 44.9205C51.1217 44.5854 51.3574 44.2992 51.6596 44.0982C51.9618 43.8971 52.3169 43.7904 52.6799 43.7914C53.1646 43.7914 53.6296 43.984 53.9723 44.3268C54.3151 44.6695 54.5077 45.1345 54.5077 45.6192Z" fill="white"/>
<path opacity="0.7" d="M59.996 45.6192C59.997 45.9822 59.8902 46.3373 59.6892 46.6395C59.4882 46.9417 59.202 47.1774 58.8668 47.3168C58.5317 47.4562 58.1627 47.4929 57.8067 47.4223C57.4507 47.3518 57.1236 47.1771 56.8669 46.9204C56.6103 46.6638 56.4356 46.3367 56.365 45.9807C56.2945 45.6246 56.3312 45.2557 56.4706 44.9205C56.61 44.5854 56.8457 44.2992 57.1479 44.0982C57.4501 43.8971 57.8052 43.7904 58.1682 43.7914C58.6529 43.7914 59.1178 43.984 59.4606 44.3268C59.8034 44.6695 59.996 45.1345 59.996 45.6192Z" fill="white"/>
<path opacity="0.3" d="M205.957 64.85H94.8633V134.282H205.957V64.85Z" fill="white"/>
<path opacity="0.3" d="M80.5374 64.85H47.877V97.5105H80.5374V64.85Z" fill="white"/>
<path opacity="0.4" d="M80.5374 64.85H47.877V97.5105H80.5374V64.85Z" fill="white"/>
<path d="M74.8439 106.163H55.5107V107.54H74.8439V106.163Z" fill="#263238"/>
<path d="M205.337 54.2157H172.615V59.2282H205.337V54.2157Z" fill="#407BFF"/>
<path opacity="0.9" d="M205.337 54.2157H172.615V59.2282H205.337V54.2157Z" fill="white"/>
<path d="M205.957 54.2157H205.332V59.2282H205.957V54.2157Z" fill="#407BFF"/>
<path d="M128.21 54.2157H127.585V59.2282H128.21V54.2157Z" fill="#407BFF"/>
<path d="M127.585 54.2157H94.8633V59.2282H127.585V54.2157Z" fill="#407BFF"/>
<path opacity="0.9" d="M127.585 54.2157H94.8633V59.2282H127.585V54.2157Z" fill="white"/>
<path opacity="0.4" d="M91.9598 133.775C91.5525 133.775 91.1618 133.614 90.8737 133.325C90.5857 133.037 90.4238 132.647 90.4238 132.239V112.732C90.4238 112.325 90.5857 111.934 90.8737 111.646C91.1618 111.358 91.5525 111.196 91.9598 111.196C92.3672 111.196 92.7579 111.358 93.0459 111.646C93.334 111.934 93.4958 112.325 93.4958 112.732V132.239C93.4958 132.647 93.334 133.037 93.0459 133.325C92.7579 133.614 92.3672 133.775 91.9598 133.775Z" fill="white"/>
<path opacity="0.4" d="M53.0222 106.849C53.0222 107.332 52.8788 107.805 52.6102 108.207C52.3416 108.608 51.9599 108.921 51.5134 109.106C51.0668 109.291 50.5755 109.339 50.1016 109.244C49.6277 109.15 49.1926 108.916 48.8512 108.574C48.5099 108.232 48.2777 107.797 48.184 107.323C48.0903 106.848 48.1394 106.357 48.3251 105.911C48.5107 105.465 48.8245 105.084 49.2268 104.816C49.6291 104.548 50.1018 104.406 50.5851 104.407C50.9055 104.407 51.2229 104.47 51.5189 104.593C51.8149 104.716 52.0838 104.896 52.3102 105.123C52.5366 105.349 52.716 105.619 52.8381 105.915C52.9603 106.211 53.0228 106.529 53.0222 106.849Z" fill="white"/>
<path d="M80.2711 113.838H55.5107V115.215H80.2711V113.838Z" fill="#263238"/>
<path opacity="0.4" d="M53.0222 114.529C53.0222 115.013 52.8788 115.485 52.6102 115.887C52.3416 116.288 51.9599 116.601 51.5134 116.786C51.0668 116.971 50.5755 117.019 50.1016 116.924C49.6277 116.83 49.1926 116.596 48.8512 116.254C48.5099 115.912 48.2777 115.477 48.184 115.003C48.0903 114.529 48.1394 114.037 48.3251 113.591C48.5107 113.145 48.8245 112.764 49.2268 112.496C49.6291 112.228 50.1018 112.086 50.5851 112.087C51.2319 112.088 51.8518 112.346 52.3087 112.804C52.7656 113.262 53.0222 113.882 53.0222 114.529Z" fill="white"/>
<path d="M76.8151 121.518H55.5107V122.895H76.8151V121.518Z" fill="#263238"/>
<path opacity="0.4" d="M53.0222 122.209C53.0222 122.693 52.8788 123.165 52.6102 123.567C52.3416 123.968 51.9599 124.281 51.5134 124.466C51.0668 124.651 50.5755 124.699 50.1016 124.604C49.6277 124.51 49.1926 124.277 48.8512 123.934C48.5099 123.592 48.2777 123.157 48.184 122.683C48.0903 122.209 48.1394 121.717 48.3251 121.271C48.5107 120.825 48.8245 120.444 49.2268 120.176C49.6291 119.908 50.1018 119.766 50.5851 119.767C51.2319 119.768 51.8518 120.026 52.3087 120.484C52.7656 120.942 53.0222 121.563 53.0222 122.209Z" fill="white"/>
<path d="M74.8439 129.198H55.5107V130.575H74.8439V129.198Z" fill="#263238"/>
<path opacity="0.4" d="M53.0222 129.884C53.0232 130.368 52.8807 130.841 52.6127 131.243C52.3447 131.645 51.9634 131.959 51.5169 132.145C51.0704 132.33 50.579 132.379 50.1047 132.285C49.6305 132.191 49.1949 131.958 48.853 131.616C48.5112 131.274 48.2784 130.839 48.1844 130.364C48.0903 129.89 48.1391 129.399 48.3246 128.952C48.5101 128.506 48.8239 128.124 49.2263 127.856C49.6287 127.589 50.1016 127.446 50.5851 127.447C51.2314 127.447 51.8513 127.704 52.3084 128.161C52.7654 128.618 53.0222 129.238 53.0222 129.884Z" fill="white"/>
<path d="M159.473 143.683H176.83C177.203 143.683 177.255 143.099 176.881 143.099H159.524C159.15 143.099 159.099 143.683 159.473 143.683Z" fill="#407BFF"/>
<path d="M179.625 143.683H181.816C182.19 143.683 182.241 143.099 181.868 143.099H179.676C179.297 143.099 179.246 143.683 179.625 143.683Z" fill="#407BFF"/>
<path d="M94.1461 39.2806H76.7995C76.4258 39.2806 76.3694 39.8643 76.7483 39.8643H94.1051C94.4789 39.8643 94.5301 39.2806 94.1563 39.2806H94.1461Z" fill="#407BFF"/>
<path d="M73.9937 39.2806H71.8023C71.4286 39.2806 71.3774 39.8643 71.7511 39.8643H73.9425C74.3214 39.8643 74.3726 39.2806 73.9937 39.2806Z" fill="#407BFF"/>
<path d="M203.515 77.1737H168.325V109.865H203.515V77.1737Z" fill="#407BFF"/>
<path opacity="0.9" d="M203.515 77.1737H168.325V109.865H203.515V77.1737Z" fill="white"/>
<path d="M203.515 109.865H204.231V77.1738H203.515V109.865Z" fill="#407BFF"/>
<path d="M203.526 101.396H168.315V109.865H203.526V101.396Z" fill="#407BFF"/>
<path d="M198.191 80.215H173.65V82.4934H198.191V80.215Z" fill="#263238"/>
<path d="M198.191 88.3405H173.65V90.6189H198.191V88.3405Z" fill="#263238"/>
<path d="M198.191 96.4659H173.65V98.7443H198.191V96.4659Z" fill="#263238"/>
<path d="M201.461 104.289H170.378V107.177H201.461V104.289Z" fill="white"/>
<path d="M167.614 53.55H132.424V93.9315H167.614V53.55Z" fill="#407BFF"/>
<path opacity="0.9" d="M167.614 53.55H132.424V93.9315H167.614V53.55Z" fill="white"/>
<path d="M167.608 93.9366H168.325V53.5552H167.608V93.9366Z" fill="#407BFF"/>
<path d="M166.38 54.7839H133.658V59.7964H166.38V54.7839Z" fill="#407BFF"/>
<path d="M167.614 77.1737H132.403V85.6422H167.614V77.1737Z" fill="#407BFF"/>
<path d="M162.289 64.2816H137.749V66.56H162.289V64.2816Z" fill="#263238"/>
<path d="M162.289 72.407H137.749V74.6854H162.289V72.407Z" fill="#263238"/>
<path d="M165.56 80.2303H134.477V83.118H165.56V80.2303Z" fill="white"/>
<path d="M162.289 88.663H137.749V90.9414H162.289V88.663Z" fill="#263238"/>
<path d="M91.0592 103.142C91.0592 103.142 85.0637 115.471 87.5674 116.485C90.0711 117.499 98.5088 118.067 98.5088 118.067L102.19 121.59L104.32 120.202L103.782 116.618L98.944 115.594L92.4826 113.587C92.3482 113.542 92.2246 113.47 92.1196 113.374C92.0147 113.279 91.9307 113.163 91.8729 113.034C91.8152 112.904 91.7849 112.764 91.7841 112.622C91.7833 112.48 91.8119 112.34 91.8682 112.21L94.9914 105.359L91.0592 103.142Z" fill="#E4897B"/>
<path d="M92.8515 98.6728C92.8134 98.5581 92.7457 98.4555 92.6552 98.3753C92.5647 98.2952 92.4546 98.2405 92.3361 98.2166C92.2177 98.1927 92.095 98.2005 91.9805 98.2392C91.866 98.278 91.7638 98.3463 91.6842 98.4372C91.0595 99.1336 90.1482 100.536 89.073 103.363L87.9824 106.276L93.5427 110.106L95.6368 106.916L92.8515 98.6728Z" fill="white"/>
<path opacity="0.2" d="M92.2471 102.093L92.8564 101.309L94.0493 102.211L95.6365 106.916L93.5424 110.106L92.4775 109.373C92.8051 106.368 92.2471 102.093 92.2471 102.093Z" fill="black"/>
<path d="M94.3464 109.583L87.9823 105.103L87.5215 106.481L93.5324 110.653L94.3464 109.583Z" fill="#407BFF"/>
<path opacity="0.5" d="M94.3464 109.583L87.9823 105.103L87.5215 106.481L93.5324 110.653L94.3464 109.583Z" fill="white"/>
<path d="M93.9781 194.857L91.0443 204.831L88.0645 204.657L88.6942 193.833L93.9781 194.857Z" fill="#E4897B"/>
<path d="M109.41 121.027C109.41 121.027 113.03 128.302 109.548 141.681C106.067 155.059 92.1404 201.672 92.1404 201.672L88.2184 201.201C88.2184 201.201 87.9727 184.474 93.4869 170.993C93.4869 170.993 96.134 148.045 94.8437 142.648C93.9426 138.88 93.3948 135.726 94.9512 130.017C95.5597 127.574 96.3998 125.195 97.46 122.911C98.484 120.863 98.182 120.09 98.182 120.09L109.41 121.027Z" fill="#407BFF"/>
<path opacity="0.5" d="M109.41 121.027C109.41 121.027 113.03 128.302 109.548 141.681C106.067 155.059 92.1404 201.672 92.1404 201.672L88.2184 201.201C88.2184 201.201 87.9727 184.474 93.4869 170.993C93.4869 170.993 96.134 148.045 94.8437 142.648C93.9426 138.88 93.3948 135.726 94.9512 130.017C95.5597 127.574 96.3998 125.195 97.46 122.911C98.484 120.863 98.182 120.09 98.182 120.09L109.41 121.027Z" fill="black"/>
<path opacity="0.4" d="M104.776 158.72C99.7486 144.743 101.131 134.6 101.131 134.6L104.28 134.19L106.737 138.563L108.458 145.731C107.48 149.289 106.2 153.8 104.776 158.72Z" fill="black"/>
<path d="M91.7303 204.841C91.7117 204.835 91.6955 204.823 91.6836 204.808C91.6717 204.792 91.6648 204.773 91.6637 204.754C91.6614 204.734 91.6656 204.715 91.6759 204.698C91.6861 204.681 91.7016 204.668 91.72 204.662C91.7866 204.636 93.256 204.017 93.8807 204.278C93.9397 204.301 93.9936 204.335 94.0393 204.379C94.085 204.423 94.1216 204.476 94.1469 204.534C94.1833 204.597 94.199 204.67 94.1916 204.743C94.1843 204.815 94.1543 204.884 94.106 204.938C93.7426 205.134 93.3202 205.19 92.9181 205.097C92.5156 205.046 92.1182 204.96 91.7303 204.841ZM92.0477 204.749C92.7645 204.928 93.7578 205.046 93.9677 204.81C93.9984 204.779 94.0292 204.728 93.9677 204.605C93.9546 204.569 93.9329 204.535 93.9044 204.509C93.8759 204.482 93.8414 204.463 93.8039 204.452C93.7472 204.432 93.689 204.416 93.6298 204.406C93.0859 204.422 92.5496 204.538 92.0477 204.749Z" fill="#407BFF"/>
<path d="M91.6788 204.826C91.6665 204.815 91.6571 204.802 91.6517 204.786C91.6463 204.771 91.6451 204.755 91.6481 204.739C91.6481 204.693 91.8938 203.643 92.4417 203.295C92.5939 203.199 92.7768 203.164 92.9537 203.197C93.2045 203.254 93.2711 203.392 93.266 203.5C93.2967 203.955 92.242 204.687 91.73 204.841H91.6941C91.6883 204.837 91.6831 204.831 91.6788 204.826ZM92.8973 203.366C92.7792 203.352 92.6597 203.379 92.5594 203.443C92.2248 203.746 91.9923 204.145 91.8938 204.585C92.4058 204.355 93.1124 203.766 93.1226 203.494C93.1226 203.469 93.1226 203.402 92.9485 203.366H92.8973Z" fill="#407BFF"/>
<path d="M91.3925 204.242L87.1122 203.73C87.0335 203.719 86.9536 203.736 86.8856 203.777C86.8176 203.818 86.7657 203.881 86.7384 203.955L85.5454 207.36C85.5195 207.431 85.5079 207.507 85.5113 207.583C85.5148 207.658 85.5333 207.733 85.5656 207.801C85.598 207.87 85.6437 207.931 85.7 207.982C85.7563 208.033 85.8221 208.072 85.8936 208.097C85.9312 208.113 85.9709 208.123 86.0114 208.128C87.5474 208.287 88.94 208.369 90.8651 208.604C93.1333 208.881 92.524 209.08 95.1864 209.444C96.7941 209.659 97.3112 207.867 96.6405 207.693C93.5685 206.925 93.3586 205.942 92.2885 204.682C92.0551 204.429 91.7356 204.272 91.3925 204.242Z" fill="#263238"/>
<path d="M93.0104 200.945L87.5781 200.264L87.66 201.882L92.4524 202.476L93.0104 200.945Z" fill="#263238"/>
<path opacity="0.4" d="M93.0104 200.945L87.5781 200.264L87.66 201.882L92.4524 202.476L93.0104 200.945Z" fill="black"/>
<path d="M109 195.533L107.72 205.471H104.71L103.937 195.717L109 195.533Z" fill="#E4897B"/>
<path d="M114.176 119.91C114.292 120.81 114.536 121.687 114.903 122.516C116.127 125.624 117.463 135.398 117.166 140.344C116.404 154.168 108.227 202.163 108.227 202.163H104.295C104.295 202.163 101.586 185.825 104.807 171.443C104.807 171.443 105.938 151.178 104.254 145.894C103.076 142.218 99.7584 138.66 100.608 130.888C101.458 123.116 103.522 120.458 103.522 120.458L114.176 119.91Z" fill="#407BFF"/>
<path opacity="0.5" d="M114.176 119.91C114.292 120.81 114.536 121.687 114.903 122.516C116.127 125.624 117.463 135.398 117.166 140.344C116.404 154.168 108.227 202.163 108.227 202.163H104.295C104.295 202.163 101.586 185.825 104.807 171.443C104.807 171.443 105.938 151.178 104.254 145.894C103.076 142.218 99.7584 138.66 100.608 130.888C101.458 123.116 103.522 120.458 103.522 120.458L114.176 119.91Z" fill="black"/>
<path d="M97.5771 123.981L98.3298 122.445L99.1183 122.552L98.6626 124.15L97.5771 123.981Z" fill="#407BFF"/>
<path d="M108.954 122.803C111.089 122.675 112.825 122.455 113.936 122.291L114.489 123.873C112.655 124.168 110.808 124.368 108.954 124.472V122.803Z" fill="#407BFF"/>
<path d="M100.317 122.67C102.777 122.905 105.251 122.971 107.72 122.87V124.524C107.004 124.524 106.256 124.57 105.478 124.57C103.617 124.571 101.758 124.475 99.9072 124.283L100.317 122.67Z" fill="#407BFF"/>
<g opacity="0.5">
<path d="M97.5771 123.981L98.3298 122.445L99.1183 122.552L98.6626 124.15L97.5771 123.981Z" fill="white"/>
<path d="M108.954 122.803C111.089 122.675 112.825 122.455 113.936 122.291L114.489 123.873C112.655 124.168 110.808 124.368 108.954 124.472V122.803Z" fill="white"/>
<path d="M99.9072 124.283L100.317 122.67C102.777 122.905 105.251 122.971 107.72 122.87V124.524C107.004 124.524 106.256 124.57 105.478 124.57" fill="white"/>
</g>
<path d="M109.056 205.379C109.037 205.376 109.018 205.368 109.005 205.354C108.991 205.34 108.982 205.321 108.98 205.302C108.976 205.283 108.977 205.264 108.985 205.247C108.992 205.229 109.005 205.215 109.021 205.205C109.082 205.169 110.444 204.355 111.11 204.524C111.232 204.556 111.337 204.633 111.406 204.739C111.449 204.798 111.472 204.87 111.472 204.943C111.472 205.017 111.449 205.088 111.406 205.148C111.073 205.394 110.662 205.509 110.249 205.471C109.85 205.475 109.451 205.444 109.056 205.379ZM109.358 205.251C110.096 205.327 111.089 205.302 111.268 205.041C111.268 205.01 111.319 204.954 111.268 204.836C111.248 204.802 111.221 204.772 111.188 204.75C111.155 204.728 111.118 204.713 111.079 204.708C111.019 204.7 110.959 204.7 110.9 204.708C110.353 204.789 109.826 204.973 109.348 205.251H109.358Z" fill="#407BFF"/>
<path d="M108.995 205.373C108.981 205.366 108.969 205.354 108.961 205.339C108.954 205.325 108.951 205.308 108.954 205.292C108.954 205.24 109.041 204.175 109.538 203.756C109.68 203.634 109.864 203.573 110.05 203.587C110.311 203.587 110.393 203.735 110.403 203.843C110.495 204.288 109.564 205.158 109.093 205.379C109.087 205.381 109.081 205.382 109.075 205.382C109.068 205.382 109.062 205.381 109.057 205.379C109.036 205.383 109.015 205.381 108.995 205.373ZM110.019 203.761C109.9 203.759 109.785 203.803 109.697 203.884C109.404 204.227 109.226 204.653 109.185 205.102C109.666 204.805 110.28 204.124 110.25 203.858C110.25 203.832 110.25 203.766 110.06 203.756L110.019 203.761Z" fill="#407BFF"/>
<path d="M108.631 204.831L104.315 204.913C104.236 204.913 104.159 204.94 104.099 204.991C104.038 205.041 103.997 205.111 103.982 205.189L103.265 208.717C103.25 208.791 103.249 208.867 103.263 208.942C103.277 209.016 103.305 209.087 103.346 209.15C103.388 209.213 103.441 209.268 103.504 209.31C103.566 209.353 103.637 209.383 103.711 209.398H103.834C105.37 209.341 106.773 209.229 108.708 209.198C110.992 209.157 110.418 209.439 113.106 209.429C114.724 209.429 114.985 207.575 114.299 207.498C111.15 207.16 110.807 206.218 109.573 205.112C109.303 204.909 108.969 204.809 108.631 204.831Z" fill="#263238"/>
<path d="M104.064 81.2954C103.972 80.9831 104.064 80.6759 104.274 80.6195C104.484 80.5632 104.719 80.768 104.812 81.0854C104.904 81.4029 104.812 81.705 104.602 81.7613C104.392 81.8176 104.151 81.6128 104.064 81.2954Z" fill="#263238"/>
<path d="M104.028 81.7767L106.445 83.3127C106.262 83.5942 106.016 83.8292 105.726 83.9989C105.436 84.1687 105.111 84.2686 104.776 84.2907L104.028 81.7767Z" fill="#DE5753"/>
<path d="M103.296 80.7117C103.326 80.702 103.353 80.6853 103.376 80.6631C103.398 80.6408 103.415 80.6136 103.424 80.5837C103.49 80.3509 103.609 80.1369 103.773 79.9589C103.937 79.781 104.14 79.6442 104.366 79.5597C104.39 79.5527 104.413 79.541 104.432 79.5253C104.451 79.5097 104.467 79.4904 104.479 79.4685C104.491 79.4466 104.499 79.4226 104.501 79.3979C104.504 79.3731 104.502 79.3481 104.494 79.3242C104.481 79.2748 104.449 79.2327 104.405 79.2068C104.361 79.181 104.308 79.1735 104.259 79.186C103.971 79.2886 103.712 79.4582 103.503 79.6807C103.294 79.9033 103.14 80.1725 103.056 80.466C103.039 80.5128 103.042 80.5643 103.063 80.6093C103.084 80.6544 103.122 80.6893 103.168 80.7066C103.188 80.7166 103.21 80.7223 103.232 80.7231C103.254 80.724 103.276 80.7201 103.296 80.7117Z" fill="#263238"/>
<path d="M93.2458 84.736C94.8638 88.5607 95.4679 90.2144 98.1508 91.5251C101.894 92.5031 106.542 90.6701 106.092 86.4307C105.693 82.6215 103.117 77.0202 98.7294 76.7949C97.7633 76.7446 96.8004 76.9423 95.9324 77.3694C95.0644 77.7964 94.3202 78.4385 93.7705 79.2345C93.2208 80.0305 92.884 80.954 92.7922 81.917C92.7004 82.88 92.8565 83.8505 93.2458 84.736Z" fill="#E4897B"/>
<path opacity="0.2" d="M102.16 89.7281C102.16 89.7281 104.94 90.2913 106.041 87.8644C105.667 89.8151 104.044 91.0541 102.094 91.5457L101.423 91.0746L101.786 90.0865L102.16 89.7281Z" fill="black"/>
<path d="M97.1016 96.0768C97.1016 96.0768 99.508 94.8992 97.7723 90.3117C97.7723 90.3117 99.6923 88.4071 101.689 89.216C103.686 90.025 102.007 94.249 104.357 94.8992C104.357 94.8992 103.133 96.5939 97.1016 96.0768Z" fill="#E4897B"/>
<path d="M101.801 83.7531C101.184 83.1548 100.627 82.4981 100.137 81.7921C99.3229 80.6196 101.222 79.2577 100.9 77.0868C100.577 74.916 98.3399 76.2369 98.3399 76.2369C98.3399 76.2369 92.9127 75.6225 92.1959 81.2596C91.494 82.3488 91.1252 83.6192 91.135 84.915C91.1447 86.2107 91.5324 87.4754 92.2505 88.554C92.9686 89.6325 93.986 90.478 95.1777 90.9867C96.3694 91.4954 97.6837 91.6452 98.9594 91.4177L99.3178 91.3358C100.025 91.1059 100.642 90.6582 101.079 90.0568C101.517 89.4555 101.754 88.7311 101.755 87.9873L101.801 83.7531Z" fill="#263238"/>
<path d="M98.3046 91.4945C98.3046 91.4945 96.8813 91.9707 97.4342 92.5441C97.9872 93.1175 98.3046 91.4945 98.3046 91.4945Z" fill="#263238"/>
<path d="M93.6143 82.5447C93.5272 81.2596 93.1944 80.2356 91.9093 80.3227C90.6242 80.4097 90.5474 81.4696 90.6344 82.7547C90.7215 84.0398 90.9519 85.0689 92.237 84.9767C93.5221 84.8846 93.6962 83.8299 93.6143 82.5447Z" fill="#407BFF"/>
<path d="M100.655 83.5072C101.045 83.6631 101.4 83.895 101.7 84.1895C101.999 84.4839 102.238 84.835 102.4 85.2224C102.831 86.2464 101.935 86.9274 100.864 86.7584C99.9121 86.6099 98.5502 85.8829 98.5656 84.777C98.5693 84.5328 98.6348 84.2935 98.7562 84.0815C98.8775 83.8696 99.0506 83.6919 99.2593 83.565C99.468 83.4382 99.7054 83.3663 99.9494 83.3562C100.193 83.3461 100.436 83.3981 100.655 83.5072Z" fill="#E4897B"/>
<path d="M87.1941 82.9953C87.2597 83.908 87.6846 84.7575 88.3757 85.3574C89.0668 85.9573 89.9676 86.2586 90.8805 86.1953C92.7851 86.0622 92.8978 84.5057 92.7647 82.6113C92.6315 80.7169 92.2987 79.186 90.3992 79.3191C89.4874 79.3835 88.6383 79.8064 88.0376 80.4954C87.4369 81.1843 87.1336 82.0832 87.1941 82.9953Z" fill="#263238"/>
<path d="M100.276 75.4381C99.9172 75.9501 99.5588 76.6925 99.9479 77.2097C100.168 77.5066 100.567 77.609 100.834 77.8701C101.1 78.1862 101.258 78.5792 101.284 78.9914C101.531 80.4653 101.657 81.9567 101.663 83.4509C102.687 81.6794 103.783 79.8055 103.824 77.7524C103.854 77.139 103.729 76.5279 103.46 75.9757C103.321 75.7026 103.121 75.4654 102.875 75.2824C102.629 75.0995 102.344 74.9758 102.042 74.921C101.438 74.8391 100.276 75.4381 100.276 75.4381Z" fill="#263238"/>
<path d="M105.888 95.1399C105.888 95.1399 106.123 92.2113 100.45 93.394C94.7772 94.5767 98.5865 96.2049 98.5865 96.2049L105.888 95.1399Z" fill="#407BFF"/>
<path opacity="0.5" d="M105.888 95.1399C105.888 95.1399 106.123 92.2113 100.45 93.394C94.7772 94.5767 98.5865 96.2049 98.5865 96.2049L105.888 95.1399Z" fill="white"/>
<path d="M114.079 120.96C107.73 122.194 100.45 121.687 97.782 121.436C97.1779 121.375 98.294 114.268 91.8838 101.391C91.5665 100.801 91.4591 100.12 91.5791 99.4609C91.699 98.8014 92.0393 98.2022 92.5443 97.7614C96.9065 94.1518 104.832 94.29 108.467 94.5819C109.102 94.6264 109.718 94.8168 110.266 95.1383C110.815 95.4598 111.282 95.9037 111.632 96.4353C112.897 98.579 113.75 100.941 114.146 103.399C114.574 105.736 114.818 108.104 114.878 110.479C115.047 116.101 114.366 120.904 114.079 120.96Z" fill="white"/>
<path opacity="0.2" d="M114.878 110.479C112.83 110.09 109.952 102.538 109.952 102.538L114.145 103.398C114.573 105.736 114.818 108.104 114.878 110.479Z" fill="black"/>
<path d="M113.665 98.5037L119.758 102.39C119.867 102.46 119.989 102.507 120.117 102.528C120.245 102.549 120.376 102.543 120.502 102.512C120.627 102.48 120.745 102.423 120.848 102.344C120.951 102.265 121.036 102.165 121.099 102.052L126.045 93.184L127.837 88.576L128.349 88.018L131.421 85.417H132.599L130.315 87.465L130.95 88.5504L131.974 90.88L127.904 94.464C127.904 94.464 125.538 105.098 123.004 107.366C120.992 109.169 110.864 102.011 110.864 102.011L113.665 98.5037Z" fill="#E4897B"/>
<path d="M109.461 94.7969C111.043 95.2782 114.524 96.8449 119.982 101.996L115.968 107.372C114.662 107.081 113.44 106.494 112.397 105.656C111.354 104.818 110.517 103.751 109.952 102.538C108.914 100.36 108.389 97.9727 108.416 95.5598C108.418 95.4343 108.449 95.311 108.506 95.1995C108.564 95.0881 108.646 94.9915 108.748 94.9175C108.849 94.8435 108.966 94.7941 109.09 94.7732C109.214 94.7522 109.341 94.7604 109.461 94.7969Z" fill="white"/>
<path d="M119.353 100.9L114.812 107.459L116.332 107.776L120.618 101.924L119.353 100.9Z" fill="#407BFF"/>
<path opacity="0.5" d="M119.353 100.9L114.812 107.459L116.332 107.776L120.618 101.924L119.353 100.9Z" fill="white"/>
<path d="M109 201.329H103.521L103.824 202.921H108.657L109 201.329Z" fill="#263238"/>
<path opacity="0.4" d="M109 201.329H103.521L103.824 202.921H108.657L109 201.329Z" fill="black"/>
</svg>
