<svg width="110" height="110" viewBox="0 0 110 110" fill="none" xmlns="http://www.w3.org/2000/svg">
<g clip-path="url(#clip0_85_1493)">
<path d="M98.7823 87.2837H91.5283V87.3384H98.7823V87.2837Z" fill="#EBEBEB"/>
<path d="M72.789 87.8794H70.8857V87.9342H72.789V87.8794Z" fill="#EBEBEB"/>
<path d="M91.3095 85.2512H87.1064V85.306H91.3095V85.2512Z" fill="#EBEBEB"/>
<path d="M21.1939 85.6191H11.7344V85.6739H21.1939V85.6191Z" fill="#EBEBEB"/>
<path d="M24.5319 85.6191H23.1455V85.6739H24.5319V85.6191Z" fill="#EBEBEB"/>
<path d="M49.5571 86.5435H29.0391V86.5982H49.5571V86.5435Z" fill="#EBEBEB"/>
<path d="M52.1527 73.991H9.8639C9.53221 73.991 9.21411 73.8592 8.97958 73.6247C8.74504 73.3902 8.61328 73.0721 8.61328 72.7404V13.2912C8.61617 12.9614 8.7492 12.6461 8.98343 12.4139C9.21765 12.1818 9.5341 12.0515 9.8639 12.0515H52.1527C52.4844 12.0515 52.8025 12.1833 53.037 12.4178C53.2716 12.6523 53.4033 12.9704 53.4033 13.3021V72.7404C53.4033 73.0721 53.2716 73.3902 53.037 73.6247C52.8025 73.8592 52.4844 73.991 52.1527 73.991ZM9.8639 12.0953C9.54691 12.0959 9.24308 12.2221 9.01894 12.4462C8.79479 12.6704 8.66862 12.9742 8.66804 13.2912V72.7404C8.66862 73.0574 8.79479 73.3612 9.01894 73.5853C9.24308 73.8095 9.54691 73.9357 9.8639 73.9362H52.1527C52.4697 73.9357 52.7735 73.8095 52.9977 73.5853C53.2218 73.3612 53.348 73.0574 53.3486 72.7404V13.2912C53.348 12.9742 53.2218 12.6704 52.9977 12.4462C52.7735 12.2221 52.4697 12.0959 52.1527 12.0953H9.8639Z" fill="#EBEBEB"/>
<path d="M99.5292 73.991H57.236C56.9045 73.9904 56.5867 73.8585 56.3523 73.6241C56.1179 73.3896 55.9859 73.0719 55.9854 72.7404V13.2912C55.9888 12.9616 56.122 12.6466 56.3561 12.4146C56.5902 12.1825 56.9063 12.0521 57.236 12.0515H99.5292C99.8582 12.0527 100.174 12.1834 100.407 12.4155C100.64 12.6475 100.773 12.9622 100.775 13.2912V72.7404C100.775 73.0713 100.644 73.3887 100.411 73.6231C100.177 73.8576 99.8601 73.9898 99.5292 73.991ZM57.236 12.0953C56.919 12.0959 56.6151 12.2221 56.391 12.4462C56.1669 12.6704 56.0407 12.9742 56.0401 13.2912V72.7404C56.0407 73.0574 56.1669 73.3612 56.391 73.5853C56.6151 73.8095 56.919 73.9357 57.236 73.9362H99.5292C99.8461 73.9357 100.15 73.8095 100.374 73.5853C100.598 73.3612 100.724 73.0574 100.725 72.7404V13.2912C100.724 12.9742 100.598 12.6704 100.374 12.4462C100.15 12.2221 99.8461 12.0959 99.5292 12.0953H57.236Z" fill="#EBEBEB"/>
<path d="M109.755 83.76H0.244141V83.8148H109.755V83.76Z" fill="#EBEBEB"/>
<path d="M18.7799 83.3982H19.2793L19.2793 52.089H18.7799L18.7799 83.3982Z" fill="#EBEBEB"/>
<path d="M24.639 48.8476C24.639 50.4443 23.5044 51.8395 21.8201 52.582H16.2329C14.5486 51.8395 13.4141 50.4443 13.4141 48.8476C13.4141 47.251 14.5574 45.858 16.2329 45.1243H21.8201C23.5044 45.858 24.639 47.251 24.639 48.8476Z" fill="#F0F0F0"/>
<path d="M17.2188 48.8474C17.2188 47.2485 18.3511 45.8555 20.0354 45.1108H21.8204C23.5047 45.8555 24.6392 47.2485 24.6392 48.8474C24.6392 50.4462 23.5047 51.8392 21.8204 52.5817H20.0354C18.3511 51.8414 17.2188 50.4462 17.2188 48.8474Z" fill="#F5F5F5"/>
<path d="M15.5166 83.6371H22.545C22.545 83.5245 22.5228 83.413 22.4796 83.3089C22.4365 83.2049 22.3732 83.1104 22.2934 83.0308C22.2137 82.9513 22.119 82.8882 22.0149 82.8453C21.9107 82.8024 21.7991 82.7805 21.6865 82.7808H16.3752C16.1478 82.7808 15.9298 82.8709 15.7688 83.0315C15.6079 83.192 15.5172 83.4098 15.5166 83.6371Z" fill="#EBEBEB"/>
<path d="M90.0043 70.4366C90.024 70.4563 89.9189 70.603 90.346 70.5395C91.3973 70.3818 93.2283 69.9547 93.7364 68.8728C94.4658 67.3287 92.2033 67.8937 92.2865 67.1031C92.3697 66.3124 94.9323 66.446 95.2039 65.2939C95.4755 64.1419 93.7364 64.6873 93.7123 64.1244C93.6883 63.5615 95.6967 63.9053 96.0931 62.6613C96.4895 61.4173 94.9761 62.3306 95.1491 61.8115C95.3222 61.2924 97.0218 58.9423 96.0975 58.6707C95.1732 58.3991 93.6182 60.8084 93.018 61.15C92.4179 61.4917 91.8857 59.5227 91.1695 60.355C90.4533 61.1873 91.5878 64.0915 90.6767 64.6566C89.9955 65.0749 90.1883 63.9185 89.2903 64.1353C88.0725 64.4288 88.4821 68.7304 90.0043 70.4366Z" fill="#F5F5F5"/>
<path d="M93.2496 64.1309C92.9398 64.1528 92.6341 64.2154 92.3407 64.3171C92.5342 64.0241 92.7502 63.7465 92.9868 63.487C92.9941 63.4797 93 63.471 93.0039 63.4614C93.0079 63.4518 93.01 63.4415 93.01 63.4311C93.01 63.4208 93.0079 63.4105 93.0039 63.4009C93 63.3913 92.9941 63.3826 92.9868 63.3753C92.9796 63.368 92.9711 63.3622 92.9617 63.3583C92.9523 63.3543 92.9422 63.3523 92.932 63.3523C92.9218 63.3523 92.9117 63.3543 92.9023 63.3583C92.8929 63.3622 92.8844 63.368 92.8773 63.3753C92.3679 63.944 91.9323 64.5746 91.5807 65.2523C91.4014 63.9791 91.5789 62.6811 92.0932 61.5027C92.0969 61.4958 92.0991 61.4883 92.0998 61.4805C92.1005 61.4727 92.0996 61.4649 92.0971 61.4575C92.0947 61.4501 92.0907 61.4433 92.0855 61.4375C92.0803 61.4317 92.074 61.4271 92.0669 61.4238C92.0529 61.4169 92.0368 61.4158 92.0221 61.4208C92.0073 61.4257 91.9951 61.4362 91.988 61.4501C91.4435 62.6967 91.2716 64.0744 91.493 65.4166C91.3857 65.6225 91.274 65.8415 91.1711 66.0736C90.7941 66.9113 90.4964 67.7825 90.2819 68.6756C89.8929 67.9426 89.6806 67.1288 89.662 66.2992C89.6609 66.2837 89.654 66.2692 89.6426 66.2587C89.6312 66.2481 89.6162 66.2423 89.6007 66.2423C89.5932 66.2426 89.5859 66.2443 89.5791 66.2475C89.5723 66.2506 89.5661 66.255 89.5611 66.2605C89.556 66.266 89.552 66.2724 89.5494 66.2795C89.5468 66.2865 89.5456 66.2939 89.5459 66.3014C89.563 67.1924 89.8024 68.065 90.2424 68.8399C89.8443 70.5989 89.7107 72.4075 89.846 74.2059C89.8477 74.2267 89.8572 74.2459 89.8727 74.2598C89.8882 74.2737 89.9085 74.281 89.9292 74.2804C89.9476 74.2767 89.964 74.2664 89.9753 74.2515C89.9865 74.2366 89.992 74.218 89.9906 74.1994C89.8054 71.9166 90.0795 69.6199 90.7966 67.4447C91.1171 67.073 91.5554 66.8225 92.0384 66.7351C92.0533 66.7324 92.0667 66.7241 92.0756 66.7119C92.0846 66.6996 92.0885 66.6844 92.0866 66.6694C92.0858 66.6617 92.0835 66.6543 92.0797 66.6477C92.0759 66.641 92.0707 66.6352 92.0645 66.6306C92.0583 66.6261 92.0512 66.6229 92.0437 66.6213C92.0362 66.6197 92.0284 66.6196 92.0209 66.6212C91.5955 66.693 91.2009 66.8888 90.8864 67.1841C91.2303 66.2366 91.6823 65.3319 92.2333 64.4879C92.5618 64.352 92.9103 64.2707 93.2649 64.247C93.2804 64.2453 93.2947 64.2379 93.3049 64.2261C93.315 64.2143 93.3203 64.199 93.3197 64.1835C93.3189 64.1753 93.3164 64.1673 93.3124 64.1601C93.3084 64.1529 93.3029 64.1466 93.2963 64.1417C93.2897 64.1367 93.2821 64.1332 93.2741 64.1314C93.266 64.1295 93.2577 64.1294 93.2496 64.1309Z" fill="#E0E0E0"/>
<path d="M88.2914 71.503C87.216 71.5249 85.3784 70.524 84.6556 69.5537C83.9329 68.5835 85.9851 69.1792 85.7726 68.4039C85.5602 67.6285 83.0217 68.2024 82.553 67.0897C82.0843 65.9771 83.9175 66.2355 83.8431 65.6683C83.7686 65.101 81.8719 65.2171 81.263 64.0366C80.6541 62.856 82.323 63.5175 82.0624 63.0291C81.8018 62.5406 79.7079 60.484 80.584 60.0547C81.4601 59.6255 83.4204 61.7675 84.0774 62.0062C84.7345 62.245 84.8878 60.7666 85.7442 61.474C86.6006 62.1814 85.9632 65.2762 86.9663 65.6836C87.7154 65.988 87.4044 64.5732 88.2607 64.9302C89.7742 65.5566 88.7294 71.4965 88.2914 71.503Z" fill="#E6E6E6"/>
<g opacity="0.3">
<path d="M88.2914 71.503C87.216 71.5249 85.3784 70.524 84.6556 69.5537C83.9329 68.5835 85.9851 69.1792 85.7726 68.4039C85.5602 67.6285 83.0217 68.2024 82.553 67.0897C82.0843 65.9771 83.9175 66.2355 83.8431 65.6683C83.7686 65.101 81.8719 65.2171 81.263 64.0366C80.6541 62.856 82.323 63.5175 82.0624 63.0291C81.8018 62.5406 79.7079 60.484 80.584 60.0547C81.4601 59.6255 83.4204 61.7675 84.0774 62.0062C84.7345 62.245 84.8878 60.7666 85.7442 61.474C86.6006 62.1814 85.9632 65.2762 86.9663 65.6836C87.7154 65.988 87.4044 64.5732 88.2607 64.9302C89.7742 65.5566 88.7294 71.4965 88.2914 71.503Z" fill="#E6E6E6"/>
</g>
<path d="M87.9386 70.2133C87.9553 70.2076 87.9693 70.1959 87.978 70.1805C88.3877 69.2775 88.5538 68.283 88.4599 67.2959C88.4599 67.2768 88.4523 67.2584 88.4387 67.2448C88.4252 67.2313 88.4068 67.2237 88.3876 67.2237C88.3684 67.2237 88.35 67.2313 88.3365 67.2448C88.3229 67.2584 88.3153 67.2768 88.3153 67.2959C88.3958 68.2321 88.2454 69.1736 87.8773 70.0381C87.4335 68.8428 86.886 67.6885 86.2412 66.5885C86.3253 65.1137 85.9759 63.6465 85.2359 62.3679C85.2255 62.3521 85.2095 62.341 85.1911 62.3369C85.1726 62.3328 85.1533 62.3361 85.1373 62.346C85.1293 62.3509 85.1223 62.3574 85.1168 62.3651C85.1113 62.3728 85.1074 62.3815 85.1054 62.3907C85.1034 62.3999 85.1032 62.4094 85.1049 62.4186C85.1066 62.4279 85.1102 62.4367 85.1154 62.4446C85.8015 63.6366 86.1463 64.9945 86.112 66.3695C85.338 65.0417 84.4143 63.8071 83.3589 62.6899C83.3503 62.6808 83.3399 62.6736 83.3284 62.6686C83.3169 62.6637 83.3045 62.6612 83.292 62.6612C83.2795 62.6612 83.2672 62.6637 83.2557 62.6686C83.2442 62.6736 83.2338 62.6808 83.2252 62.6899C83.2073 62.708 83.1973 62.7324 83.1973 62.7578C83.1973 62.7832 83.2073 62.8076 83.2252 62.8257C84.0035 63.6458 84.7065 64.5343 85.3257 65.4802C84.6751 65.2372 83.9854 65.1162 83.291 65.1232C83.2806 65.1214 83.2699 65.1219 83.2597 65.1246C83.2495 65.1273 83.24 65.1323 83.232 65.1391C83.2239 65.1458 83.2174 65.1543 83.2129 65.1639C83.2085 65.1734 83.2061 65.1839 83.2061 65.1944C83.2061 65.205 83.2085 65.2154 83.2129 65.225C83.2174 65.2345 83.2239 65.243 83.232 65.2498C83.24 65.2566 83.2495 65.2615 83.2597 65.2642C83.2699 65.267 83.2806 65.2674 83.291 65.2656C84.0354 65.2604 84.7734 65.4041 85.4615 65.6883C85.8861 66.3396 86.2772 67.0121 86.6332 67.7033C86.3443 67.502 86.0149 67.3659 85.6681 67.3047C85.3213 67.2434 84.9653 67.2584 84.6248 67.3485C84.6066 67.3536 84.5912 67.3657 84.5818 67.382C84.5723 67.3984 84.5697 67.4178 84.5744 67.4361C84.5765 67.4455 84.5804 67.4543 84.586 67.4621C84.5915 67.4699 84.5986 67.4764 84.6069 67.4813C84.6151 67.4863 84.6242 67.4895 84.6337 67.4907C84.6432 67.492 84.6528 67.4913 84.662 67.4887C85.0307 67.3931 85.4172 67.3899 85.7873 67.4793C86.1575 67.5687 86.4999 67.748 86.7844 68.0012C88.0276 70.453 88.7382 73.1401 88.8695 75.886C88.8697 75.8984 88.8724 75.9105 88.8774 75.9219C88.8824 75.9332 88.8896 75.9434 88.8986 75.952C88.9075 75.9605 88.9181 75.9672 88.9296 75.9717C88.9411 75.9761 88.9534 75.9783 88.9658 75.978C88.991 75.9768 89.0147 75.9659 89.0319 75.9475C89.0491 75.929 89.0584 75.9046 89.0578 75.8794C88.9761 73.9447 88.5987 72.0338 87.9386 70.2133Z" fill="#F5F5F5"/>
<path d="M91.1142 83.6371C91.9487 81.2629 92.4962 77.8308 92.4962 76.3261C92.5186 75.1723 92.1607 74.0432 91.4778 73.113H87.209C86.5249 74.0426 86.1668 75.1721 86.1906 76.3261C86.1906 77.8308 86.7381 81.2629 87.5726 83.6371H91.1142Z" fill="#E6E6E6"/>
<path d="M43.319 69.4226H24.5488V75.9013H43.319V69.4226Z" fill="#EBEBEB"/>
<path d="M43.319 75.9011H24.5488V82.3798H43.319V75.9011Z" fill="#EBEBEB"/>
<path d="M31.683 75.9013L34.0178 69.4226H30.4236L28.0889 75.9013H31.683Z" fill="#F5F5F5"/>
<path d="M35.7563 69.4226H34.9678L32.6309 75.9013H33.4215L35.7563 69.4226Z" fill="#F5F5F5"/>
<path d="M29.3451 82.3798L31.6821 75.9011H28.0879L25.751 82.3798H29.3451Z" fill="#F5F5F5"/>
<path d="M33.4213 75.9011H32.6307L30.2959 82.3798H31.0844L33.4213 75.9011Z" fill="#F5F5F5"/>
<path d="M43.3193 70.4168V69.762H24.5491V70.4168H43.3193Z" fill="#E0E0E0"/>
<path d="M43.3193 76.8451V76.1902H24.5491V76.8451H43.3193Z" fill="#E0E0E0"/>
<path d="M24.2207 69.1311V82.6623H43.648V69.1311H24.2207ZM42.9909 82.0074H24.8778V76.2428H42.9909V82.0074ZM42.9909 75.5879H24.8778V69.8232H42.9909V75.5879Z" fill="#F5F5F5"/>
<path d="M62.7448 69.4226H43.9746V75.9013H62.7448V69.4226Z" fill="#EBEBEB"/>
<path d="M62.7448 75.9011H43.9746V82.3798H62.7448V75.9011Z" fill="#EBEBEB"/>
<path d="M53.0678 75.9013L55.4026 69.4226H51.8084L49.4736 75.9013H53.0678Z" fill="#F5F5F5"/>
<path d="M57.142 69.4226H56.3536L54.0166 75.9013H54.8073L57.142 69.4226Z" fill="#F5F5F5"/>
<path d="M50.7309 82.3798L53.0678 75.9011H49.4737L47.1367 82.3798H50.7309Z" fill="#F5F5F5"/>
<path d="M54.8071 75.9011H54.0164L51.6816 82.3798H52.4723L54.8071 75.9011Z" fill="#F5F5F5"/>
<path d="M62.7441 70.4168V69.762H43.9739V70.4168H62.7441Z" fill="#E0E0E0"/>
<path d="M62.7441 76.8451V76.1902H43.9739V76.8451H62.7441Z" fill="#E0E0E0"/>
<path d="M43.6475 69.1311V82.6623H63.0725V69.1311H43.6475ZM62.4155 82.0074H44.3023V76.2428H62.4155V82.0074ZM62.4155 75.5879H44.3023V69.8232H62.4155V75.5879Z" fill="#F5F5F5"/>
<path d="M82.1696 69.4226H63.3994V75.9013H82.1696V69.4226Z" fill="#EBEBEB"/>
<path d="M82.1696 75.9011H63.3994V82.3798H82.1696V75.9011Z" fill="#EBEBEB"/>
<path d="M71.3871 75.9013L73.7241 69.4226H70.1299L67.793 75.9013H71.3871Z" fill="#F5F5F5"/>
<path d="M75.4633 69.4226H74.6727L72.3379 75.9013H73.1286L75.4633 69.4226Z" fill="#F5F5F5"/>
<path d="M69.0522 82.3798L71.3869 75.9011H67.7928L65.458 82.3798H69.0522Z" fill="#F5F5F5"/>
<path d="M73.1284 75.9011H72.3377L70.0029 82.3798H70.7914L73.1284 75.9011Z" fill="#F5F5F5"/>
<path d="M82.1699 70.4168V69.762H63.3997V70.4168H82.1699Z" fill="#E0E0E0"/>
<path d="M82.1699 76.8451V76.1902H63.3997V76.8451H82.1699Z" fill="#E0E0E0"/>
<path d="M63.0732 69.1311V82.6623H82.4983V69.1311H63.0732ZM81.8413 82.0074H63.7281V76.2428H81.8413V82.0074ZM81.8413 75.5879H63.7281V69.8232H81.8413V75.5879Z" fill="#F5F5F5"/>
<path d="M80.6192 83.6368H26.1002L25.8154 82.6621H80.9039L80.6192 83.6368Z" fill="#E0E0E0"/>
<path d="M53.9226 73.2685C53.9226 73.3798 53.8896 73.4886 53.8278 73.5812C53.7659 73.6737 53.678 73.7459 53.5752 73.7885C53.4723 73.8311 53.3591 73.8422 53.2499 73.8205C53.1408 73.7988 53.0405 73.7452 52.9617 73.6665C52.883 73.5878 52.8294 73.4875 52.8077 73.3783C52.786 73.2691 52.7971 73.1559 52.8397 73.053C52.8823 72.9502 52.9545 72.8623 53.047 72.8004C53.1396 72.7386 53.2484 72.7056 53.3598 72.7056C53.5089 72.7061 53.6517 72.7656 53.7571 72.8711C53.8626 72.9765 53.9221 73.1193 53.9226 73.2685Z" fill="#E0E0E0"/>
<path d="M53.3598 73.6736C53.6706 73.6736 53.9226 73.4216 53.9226 73.1107C53.9226 72.7999 53.6706 72.5479 53.3598 72.5479C53.0489 72.5479 52.7969 72.7999 52.7969 73.1107C52.7969 73.4216 53.0489 73.6736 53.3598 73.6736Z" fill="#FAFAFA"/>
<path d="M53.3598 79.7818C53.6706 79.7818 53.9226 79.5298 53.9226 79.2189C53.9226 78.908 53.6706 78.656 53.3598 78.656C53.0489 78.656 52.7969 78.908 52.7969 79.2189C52.7969 79.5298 53.0489 79.7818 53.3598 79.7818Z" fill="#E0E0E0"/>
<path d="M53.9226 79.0724C53.9222 79.1836 53.8888 79.2922 53.8267 79.3845C53.7646 79.4768 53.6765 79.5486 53.5737 79.5909C53.4708 79.6331 53.3577 79.644 53.2486 79.622C53.1396 79.6 53.0395 79.5463 52.961 79.4675C52.8825 79.3887 52.8291 79.2883 52.8075 79.1792C52.786 79.0701 52.7973 78.957 52.8399 78.8543C52.8826 78.7516 52.9547 78.6638 53.0473 78.602C53.1398 78.5403 53.2485 78.5073 53.3598 78.5073C53.4339 78.5073 53.5072 78.522 53.5757 78.5504C53.6441 78.5788 53.7063 78.6205 53.7586 78.673C53.8109 78.7255 53.8523 78.7878 53.8804 78.8563C53.9086 78.9249 53.9229 78.9983 53.9226 79.0724Z" fill="#FAFAFA"/>
<path d="M34.4969 73.2685C34.4969 73.3798 34.4639 73.4886 34.402 73.5812C34.3402 73.6737 34.2522 73.7459 34.1494 73.7885C34.0465 73.8311 33.9334 73.8422 33.8242 73.8205C33.715 73.7988 33.6147 73.7452 33.536 73.6665C33.4572 73.5878 33.4036 73.4875 33.3819 73.3783C33.3602 73.2691 33.3713 73.1559 33.4139 73.053C33.4565 72.9502 33.5287 72.8623 33.6213 72.8004C33.7138 72.7386 33.8227 72.7056 33.934 72.7056C34.0831 72.7061 34.2259 72.7656 34.3314 72.8711C34.4368 72.9765 34.4963 73.1193 34.4969 73.2685Z" fill="#E0E0E0"/>
<path d="M33.934 73.6736C34.2449 73.6736 34.4969 73.4216 34.4969 73.1107C34.4969 72.7999 34.2449 72.5479 33.934 72.5479C33.6231 72.5479 33.3711 72.7999 33.3711 73.1107C33.3711 73.4216 33.6231 73.6736 33.934 73.6736Z" fill="#FAFAFA"/>
<path d="M33.934 79.7818C34.2449 79.7818 34.4969 79.5298 34.4969 79.2189C34.4969 78.908 34.2449 78.656 33.934 78.656C33.6231 78.656 33.3711 78.908 33.3711 79.2189C33.3711 79.5298 33.6231 79.7818 33.934 79.7818Z" fill="#E0E0E0"/>
<path d="M34.4969 79.0724C34.4964 79.1836 34.4631 79.2922 34.4009 79.3845C34.3388 79.4768 34.2508 79.5486 34.1479 79.5909C34.045 79.6331 33.9319 79.644 33.8228 79.622C33.7138 79.6 33.6137 79.5463 33.5352 79.4675C33.4567 79.3887 33.4033 79.2883 33.3818 79.1792C33.3602 79.0701 33.3715 78.957 33.4141 78.8543C33.4568 78.7516 33.529 78.6638 33.6215 78.602C33.714 78.5403 33.8227 78.5073 33.934 78.5073C34.0081 78.5073 34.0815 78.522 34.1499 78.5504C34.2183 78.5788 34.2805 78.6205 34.3328 78.673C34.3851 78.7255 34.4265 78.7878 34.4546 78.8563C34.4828 78.9249 34.4972 78.9983 34.4969 79.0724Z" fill="#FAFAFA"/>
<path d="M73.6917 73.2685C73.6921 73.3804 73.6593 73.49 73.5974 73.5832C73.5354 73.6765 73.4472 73.7492 73.3439 73.7923C73.2405 73.8353 73.1267 73.8467 73.0169 73.825C72.9071 73.8032 72.8062 73.7494 72.727 73.6702C72.6479 73.5911 72.594 73.4902 72.5723 73.3803C72.5505 73.2705 72.5619 73.1567 72.605 73.0534C72.648 72.95 72.7208 72.8618 72.814 72.7999C72.9073 72.738 73.0168 72.7051 73.1288 72.7056C73.2779 72.7061 73.4207 72.7656 73.5262 72.8711C73.6316 72.9765 73.6911 73.1194 73.6917 73.2685Z" fill="#E0E0E0"/>
<path d="M73.1283 73.6736C73.4392 73.6736 73.6912 73.4216 73.6912 73.1107C73.6912 72.7999 73.4392 72.5479 73.1283 72.5479C72.8174 72.5479 72.5654 72.7999 72.5654 73.1107C72.5654 73.4216 72.8174 73.6736 73.1283 73.6736Z" fill="#FAFAFA"/>
<path d="M73.1283 79.7818C73.4392 79.7818 73.6912 79.5298 73.6912 79.2189C73.6912 78.908 73.4392 78.656 73.1283 78.656C72.8174 78.656 72.5654 78.908 72.5654 79.2189C72.5654 79.5298 72.8174 79.7818 73.1283 79.7818Z" fill="#E0E0E0"/>
<path d="M73.6917 79.0724C73.6917 79.1843 73.6585 79.2936 73.5963 79.3866C73.5341 79.4795 73.4457 79.552 73.3423 79.5947C73.239 79.6374 73.1252 79.6484 73.0156 79.6265C72.9059 79.6045 72.8052 79.5504 72.7263 79.4712C72.6473 79.3919 72.5937 79.2911 72.5721 79.1813C72.5506 79.0715 72.5621 78.9579 72.6052 78.8546C72.6483 78.7514 72.721 78.6633 72.8143 78.6015C72.9075 78.5397 73.0169 78.5069 73.1288 78.5073C73.2029 78.5073 73.2763 78.522 73.3447 78.5504C73.4131 78.5788 73.4753 78.6205 73.5276 78.673C73.5799 78.7255 73.6213 78.7878 73.6495 78.8563C73.6776 78.9249 73.692 78.9983 73.6917 79.0724Z" fill="#FAFAFA"/>
<path d="M53.9438 92.8073C77.3972 92.8073 96.41 91.6973 96.41 90.328C96.41 88.9587 77.3972 87.8486 53.9438 87.8486C30.4903 87.8486 11.4775 88.9587 11.4775 90.328C11.4775 91.6973 30.4903 92.8073 53.9438 92.8073Z" fill="#F5F5F5"/>
<path d="M91.0184 17.8164H18.1738V60.1008H91.0184V17.8164Z" fill="#407BFF"/>
<path opacity="0.5" d="M91.0184 17.8164H18.1738V60.1008H91.0184V17.8164Z" fill="white"/>
<path d="M18.1738 17.8164V21.2266H30.3602V19.9124C30.3602 19.5999 30.4844 19.3002 30.7054 19.0792C30.9263 18.8583 31.2261 18.7341 31.5386 18.7341H39.6424C39.797 18.7341 39.9501 18.7646 40.093 18.8238C40.2358 18.8831 40.3656 18.9699 40.4748 19.0794C40.5841 19.1888 40.6707 19.3187 40.7296 19.4617C40.7886 19.6046 40.8188 19.7578 40.8185 19.9124V21.2266H91.0184V17.8164H18.1738Z" fill="#407BFF"/>
<path opacity="0.7" d="M21.2137 19.5207C21.2141 19.6759 21.1685 19.8278 21.0825 19.9571C20.9965 20.0864 20.874 20.1872 20.7307 20.2469C20.5873 20.3065 20.4295 20.3222 20.2772 20.292C20.1249 20.2618 19.985 20.1871 19.8752 20.0773C19.7654 19.9675 19.6907 19.8276 19.6605 19.6753C19.6303 19.523 19.646 19.3652 19.7056 19.2218C19.7652 19.0784 19.8661 18.956 19.9954 18.87C20.1246 18.784 20.2765 18.7383 20.4318 18.7388C20.6392 18.7388 20.8381 18.8212 20.9847 18.9678C21.1313 19.1144 21.2137 19.3133 21.2137 19.5207Z" fill="white"/>
<path opacity="0.7" d="M23.5614 19.5207C23.5618 19.6759 23.5161 19.8278 23.4301 19.9571C23.3441 20.0864 23.2217 20.1872 23.0783 20.2469C22.935 20.3065 22.7771 20.3222 22.6248 20.292C22.4725 20.2618 22.3326 20.1871 22.2228 20.0773C22.113 19.9675 22.0383 19.8276 22.0081 19.6753C21.9779 19.523 21.9937 19.3652 22.0533 19.2218C22.1129 19.0784 22.2137 18.956 22.343 18.87C22.4723 18.784 22.6242 18.7383 22.7795 18.7388C22.9868 18.7388 23.1857 18.8212 23.3323 18.9678C23.479 19.1144 23.5614 19.3133 23.5614 19.5207Z" fill="white"/>
<path opacity="0.7" d="M25.91 19.5207C25.9104 19.6759 25.8648 19.8278 25.7788 19.9571C25.6928 20.0864 25.5703 20.1872 25.427 20.2469C25.2836 20.3065 25.1258 20.3222 24.9735 20.292C24.8212 20.2618 24.6812 20.1871 24.5715 20.0773C24.4617 19.9675 24.3869 19.8276 24.3568 19.6753C24.3266 19.523 24.3423 19.3652 24.4019 19.2218C24.4615 19.0784 24.5624 18.956 24.6916 18.87C24.8209 18.784 24.9728 18.7383 25.1281 18.7388C25.3355 18.7388 25.5343 18.8212 25.681 18.9678C25.8276 19.1144 25.91 19.3133 25.91 19.5207Z" fill="white"/>
<path opacity="0.3" d="M88.3486 27.7471H40.8252V57.4487H88.3486V27.7471Z" fill="white"/>
<path opacity="0.3" d="M34.697 27.7471H20.7256V41.7185H34.697V27.7471Z" fill="white"/>
<path opacity="0.4" d="M34.697 27.7471H20.7256V41.7185H34.697V27.7471Z" fill="white"/>
<path d="M32.2615 45.4199H23.9912V46.0091H32.2615V45.4199Z" fill="#263238"/>
<path d="M88.0836 23.1978H74.0859V25.342H88.0836V23.1978Z" fill="#407BFF"/>
<path opacity="0.9" d="M88.0836 23.1978H74.0859V25.342H88.0836V23.1978Z" fill="white"/>
<path d="M88.3483 23.1978H88.0811V25.342H88.3483V23.1978Z" fill="#407BFF"/>
<path d="M55.0895 23.1978H54.8223V25.342H55.0895V23.1978Z" fill="#407BFF"/>
<path d="M54.8229 23.1978H40.8252V25.342H54.8229V23.1978Z" fill="#407BFF"/>
<path opacity="0.9" d="M54.8229 23.1978H40.8252V25.342H54.8229V23.1978Z" fill="white"/>
<path opacity="0.4" d="M39.5828 57.2314C39.4086 57.2314 39.2415 57.1622 39.1182 57.0389C38.995 56.9157 38.9258 56.7486 38.9258 56.5743V48.2296C38.9258 48.0553 38.995 47.8882 39.1182 47.765C39.2415 47.6417 39.4086 47.5725 39.5828 47.5725C39.7571 47.5725 39.9242 47.6417 40.0475 47.765C40.1707 47.8882 40.2399 48.0553 40.2399 48.2296V56.5743C40.2399 56.7486 40.1707 56.9157 40.0475 57.0389C39.9242 57.1622 39.7571 57.2314 39.5828 57.2314Z" fill="white"/>
<path opacity="0.4" d="M22.9264 45.7137C22.9264 45.9204 22.8651 46.1225 22.7502 46.2943C22.6353 46.4662 22.472 46.6001 22.2809 46.6791C22.0899 46.7581 21.8797 46.7787 21.677 46.7382C21.4743 46.6977 21.2882 46.598 21.1421 46.4516C20.9961 46.3053 20.8968 46.119 20.8567 45.9162C20.8167 45.7134 20.8377 45.5032 20.9171 45.3124C20.9965 45.1215 21.1307 44.9585 21.3028 44.844C21.4749 44.7294 21.6771 44.6685 21.8838 44.6689C22.0209 44.6689 22.1567 44.696 22.2833 44.7485C22.4099 44.801 22.525 44.878 22.6218 44.9751C22.7186 45.0721 22.7954 45.1873 22.8477 45.314C22.8999 45.4408 22.9267 45.5766 22.9264 45.7137Z" fill="white"/>
<path d="M34.5831 48.7029H23.9912V49.2921H34.5831V48.7029Z" fill="#263238"/>
<path opacity="0.4" d="M22.9264 48.9986C22.9264 49.2053 22.8651 49.4074 22.7502 49.5792C22.6353 49.7511 22.472 49.885 22.2809 49.964C22.0899 50.043 21.8797 50.0636 21.677 50.0231C21.4743 49.9826 21.2882 49.8829 21.1421 49.7366C20.9961 49.5902 20.8968 49.4039 20.8567 49.2011C20.8167 48.9983 20.8377 48.7881 20.9171 48.5973C20.9965 48.4064 21.1307 48.2434 21.3028 48.1289C21.4749 48.0143 21.6771 47.9534 21.8838 47.9539C22.1605 47.9544 22.4257 48.0648 22.6212 48.2606C22.8166 48.4565 22.9264 48.7219 22.9264 48.9986Z" fill="white"/>
<path d="M33.1047 51.9883H23.9912V52.5775H33.1047V51.9883Z" fill="#263238"/>
<path opacity="0.4" d="M22.9264 52.2838C22.9264 52.4905 22.8651 52.6926 22.7502 52.8644C22.6353 53.0363 22.472 53.1702 22.2809 53.2492C22.0899 53.3282 21.8797 53.3487 21.677 53.3083C21.4743 53.2678 21.2882 53.168 21.1421 53.0217C20.9961 52.8754 20.8968 52.689 20.8567 52.4862C20.8167 52.2834 20.8377 52.0733 20.9171 51.8824C20.9965 51.6916 21.1307 51.5286 21.3028 51.414C21.4749 51.2995 21.6771 51.2386 21.8838 51.239C22.1605 51.2396 22.4257 51.3499 22.6212 51.5458C22.8166 51.7416 22.9264 52.0071 22.9264 52.2838Z" fill="white"/>
<path d="M32.2615 55.2737H23.9912V55.8629H32.2615V55.2737Z" fill="#263238"/>
<path opacity="0.4" d="M22.9264 55.5672C22.9268 55.774 22.8659 55.9763 22.7512 56.1485C22.6366 56.3206 22.4735 56.4548 22.2825 56.5342C22.0915 56.6135 21.8812 56.6344 21.6784 56.5942C21.4755 56.5539 21.2892 56.4544 21.1429 56.3081C20.9967 56.1619 20.8971 55.9755 20.8569 55.7727C20.8166 55.5698 20.8375 55.3596 20.9169 55.1686C20.9962 54.9776 21.1305 54.8144 21.3026 54.6998C21.4747 54.5852 21.677 54.5242 21.8838 54.5247C22.1603 54.5247 22.4255 54.6345 22.621 54.83C22.8165 55.0255 22.9264 55.2907 22.9264 55.5672Z" fill="white"/>
<path d="M68.463 61.4699H75.8879C76.0478 61.4699 76.0697 61.2202 75.9098 61.2202H68.4849C68.3251 61.2202 68.3032 61.4699 68.463 61.4699Z" fill="#407BFF"/>
<path d="M77.0838 61.4699H78.0212C78.1811 61.4699 78.203 61.2202 78.0431 61.2202H77.1057C76.9436 61.2202 76.9217 61.4699 77.0838 61.4699Z" fill="#407BFF"/>
<path d="M40.5186 16.8091H33.0981C32.9382 16.8091 32.9141 17.0588 33.0762 17.0588H40.5011C40.661 17.0588 40.6829 16.8091 40.523 16.8091H40.5186Z" fill="#407BFF"/>
<path d="M31.8979 16.8091H30.9605C30.8006 16.8091 30.7787 17.0588 30.9386 17.0588H31.876C32.0381 17.0588 32.06 16.8091 31.8979 16.8091Z" fill="#407BFF"/>
<path d="M87.3034 33.0188H72.25V47.0034H87.3034V33.0188Z" fill="#407BFF"/>
<path opacity="0.9" d="M87.3034 33.0188H72.25V47.0034H87.3034V33.0188Z" fill="white"/>
<path d="M87.3037 47.0032H87.6104V33.0186H87.3037V47.0032Z" fill="#407BFF"/>
<path d="M87.3083 43.3809H72.2461V47.0035H87.3083V43.3809Z" fill="#407BFF"/>
<path d="M85.0261 34.3196H74.5283V35.2942H85.0261V34.3196Z" fill="#263238"/>
<path d="M85.0261 37.7954H74.5283V38.7701H85.0261V37.7954Z" fill="#263238"/>
<path d="M85.0261 41.2715H74.5283V42.2461H85.0261V41.2715Z" fill="#263238"/>
<path d="M86.4257 44.6184H73.1289V45.8537H86.4257V44.6184Z" fill="white"/>
<path d="M71.945 22.9128H56.8916V40.1871H71.945V22.9128Z" fill="#407BFF"/>
<path opacity="0.9" d="M71.945 22.9128H56.8916V40.1871H71.945V22.9128Z" fill="white"/>
<path d="M71.9434 40.1895H72.25V22.9152H71.9434V40.1895Z" fill="#407BFF"/>
<path d="M71.4176 23.4409H57.4199V25.5851H71.4176V23.4409Z" fill="#407BFF"/>
<path d="M71.9459 33.0188H56.8838V36.6414H71.9459V33.0188Z" fill="#407BFF"/>
<path d="M69.6677 27.5039H59.1699V28.4786H69.6677V27.5039Z" fill="#263238"/>
<path d="M69.6677 30.9797H59.1699V31.9544H69.6677V30.9797Z" fill="#263238"/>
<path d="M71.0673 34.3262H57.7705V35.5615H71.0673V34.3262Z" fill="white"/>
<path d="M69.6677 37.9333H59.1699V38.908H69.6677V37.9333Z" fill="#263238"/>
<path d="M39.1967 44.1277C39.1967 44.1277 36.6319 49.4017 37.7029 49.8354C38.7739 50.2691 42.3834 50.5122 42.3834 50.5122L43.9582 52.0191L44.8693 51.4255L44.6394 49.8924L42.5696 49.4543L39.8055 48.5957C39.748 48.5765 39.6952 48.5455 39.6503 48.5047C39.6054 48.4639 39.5694 48.4143 39.5447 48.3589C39.52 48.3035 39.5071 48.2436 39.5067 48.1829C39.5064 48.1223 39.5186 48.0622 39.5427 48.0066L40.8787 45.0761L39.1967 44.1277Z" fill="#E4897B"/>
<path d="M39.9638 42.2154C39.9475 42.1663 39.9185 42.1224 39.8798 42.0881C39.8411 42.0539 39.794 42.0304 39.7433 42.0202C39.6926 42.01 39.6401 42.0133 39.5911 42.0299C39.5422 42.0465 39.4984 42.0757 39.4644 42.1146C39.1972 42.4125 38.8073 43.0126 38.3474 44.2216L37.8809 45.4678L40.2594 47.1061L41.1552 45.7416L39.9638 42.2154Z" fill="white"/>
<path opacity="0.2" d="M39.7051 43.6786L39.9657 43.3435L40.476 43.729L41.155 45.7418L40.2592 47.1063L39.8036 46.7931C39.9438 45.5074 39.7051 43.6786 39.7051 43.6786Z" fill="black"/>
<path d="M40.6032 46.8828L37.8807 44.9663L37.6836 45.5555L40.2549 47.3405L40.6032 46.8828Z" fill="#407BFF"/>
<path opacity="0.5" d="M40.6032 46.8828L37.8807 44.9663L37.6836 45.5555L40.2549 47.3405L40.6032 46.8828Z" fill="white"/>
<path d="M40.4457 83.3611L39.1907 87.6277L37.916 87.5532L38.1854 82.9231L40.4457 83.3611Z" fill="#E4897B"/>
<path d="M47.0465 51.7783C47.0465 51.7783 48.595 54.8906 47.1056 60.6136C45.6163 66.3367 39.6589 86.2764 39.6589 86.2764L37.9812 86.0749C37.9812 86.0749 37.876 78.9195 40.2349 73.1526C40.2349 73.1526 41.3673 63.3361 40.8153 61.0276C40.4298 59.4156 40.1955 58.0664 40.8613 55.6243C41.1216 54.5791 41.481 53.5612 41.9345 52.5843C42.3726 51.7082 42.2433 51.3774 42.2433 51.3774L47.0465 51.7783Z" fill="#407BFF"/>
<path opacity="0.5" d="M47.0465 51.7783C47.0465 51.7783 48.595 54.8906 47.1056 60.6136C45.6163 66.3367 39.6589 86.2764 39.6589 86.2764L37.9812 86.0749C37.9812 86.0749 37.876 78.9195 40.2349 73.1526C40.2349 73.1526 41.3673 63.3361 40.8153 61.0276C40.4298 59.4156 40.1955 58.0664 40.8613 55.6243C41.1216 54.5791 41.481 53.5612 41.9345 52.5843C42.3726 51.7082 42.2433 51.3774 42.2433 51.3774L47.0465 51.7783Z" fill="black"/>
<path opacity="0.4" d="M45.0645 67.9023C42.9137 61.923 43.5051 57.5842 43.5051 57.5842L44.8521 57.4089L45.9034 59.2794L46.6393 62.3457C46.221 63.8679 45.6734 65.7975 45.0645 67.9023Z" fill="black"/>
<path d="M39.4838 87.6319C39.4759 87.6292 39.4689 87.6243 39.4638 87.6176C39.4588 87.611 39.4558 87.603 39.4553 87.5946C39.4543 87.5863 39.4562 87.5779 39.4605 87.5707C39.4649 87.5636 39.4716 87.5581 39.4794 87.5552C39.5079 87.5443 40.1365 87.2792 40.4037 87.3909C40.429 87.4008 40.452 87.4155 40.4716 87.4343C40.4911 87.4531 40.5068 87.4756 40.5176 87.5005C40.5332 87.5275 40.5399 87.5587 40.5367 87.5898C40.5336 87.6208 40.5208 87.6501 40.5001 87.6735C40.3446 87.7572 40.1639 87.7814 39.992 87.7414C39.8198 87.7194 39.6498 87.6828 39.4838 87.6319ZM39.6196 87.5924C39.9262 87.6691 40.3511 87.7195 40.4409 87.6187C40.4541 87.6056 40.4672 87.5837 40.4409 87.5311C40.4353 87.5154 40.426 87.5012 40.4138 87.4898C40.4017 87.4784 40.3869 87.47 40.3709 87.4654C40.3466 87.4568 40.3217 87.4502 40.2964 87.4457C40.0637 87.4527 39.8343 87.5024 39.6196 87.5924Z" fill="#407BFF"/>
<path d="M39.4621 87.6256C39.4568 87.6211 39.4528 87.6153 39.4505 87.6088C39.4482 87.6022 39.4476 87.5952 39.4489 87.5884C39.4489 87.5687 39.554 87.1197 39.7884 86.9708C39.8535 86.9297 39.9318 86.9148 40.0074 86.9291C40.1147 86.9532 40.1432 87.0124 40.141 87.0584C40.1542 87.2533 39.703 87.5665 39.484 87.6322H39.4686C39.4661 87.6303 39.4639 87.6281 39.4621 87.6256ZM39.9833 87.0014C39.9328 86.9952 39.8817 87.0069 39.8388 87.0343C39.6956 87.1637 39.5962 87.3344 39.554 87.5227C39.7731 87.4241 40.0753 87.1723 40.0797 87.0562C40.0797 87.0452 40.0797 87.0168 40.0052 87.0014H39.9833Z" fill="#407BFF"/>
<path d="M39.3393 87.3756L37.5083 87.1566C37.4746 87.1521 37.4405 87.1591 37.4114 87.1767C37.3823 87.1942 37.3601 87.2211 37.3484 87.253L36.8381 88.7095C36.827 88.74 36.822 88.7723 36.8235 88.8047C36.825 88.8372 36.8329 88.8689 36.8467 88.8983C36.8606 88.9276 36.8801 88.9539 36.9042 88.9756C36.9283 88.9974 36.9564 89.0141 36.987 89.0249C37.0031 89.0316 37.0201 89.036 37.0374 89.038C37.6945 89.1059 38.2902 89.141 39.1137 89.2417C40.084 89.36 39.8234 89.4454 40.9623 89.6009C41.65 89.6929 41.8712 88.9263 41.5843 88.8519C40.2702 88.5233 40.1804 88.1028 39.7226 87.564C39.6228 87.4557 39.4861 87.3885 39.3393 87.3756Z" fill="#263238"/>
<path d="M40.0318 85.9649L37.708 85.6736L37.7431 86.3657L39.7931 86.6198L40.0318 85.9649Z" fill="#263238"/>
<path opacity="0.4" d="M40.0318 85.9649L37.708 85.6736L37.7431 86.3657L39.7931 86.6198L40.0318 85.9649Z" fill="black"/>
<path d="M46.8712 83.6501L46.3237 87.9014H45.0358L44.7051 83.729L46.8712 83.6501Z" fill="#E4897B"/>
<path d="M49.0856 51.3003C49.1349 51.685 49.2396 52.0605 49.3966 52.4151C49.9201 53.7446 50.4917 57.9257 50.3647 60.0415C50.0384 65.9551 46.5406 86.4862 46.5406 86.4862H44.8585C44.8585 86.4862 43.6999 79.4972 45.0775 73.3449C45.0775 73.3449 45.5615 64.676 44.841 62.4157C44.3372 60.8431 42.9179 59.3209 43.2815 55.9961C43.6451 52.6714 44.5278 51.5346 44.5278 51.5346L49.0856 51.3003Z" fill="#407BFF"/>
<path opacity="0.5" d="M49.0856 51.3003C49.1349 51.685 49.2396 52.0605 49.3966 52.4151C49.9201 53.7446 50.4917 57.9257 50.3647 60.0415C50.0384 65.9551 46.5406 86.4862 46.5406 86.4862H44.8585C44.8585 86.4862 43.6999 79.4972 45.0775 73.3449C45.0775 73.3449 45.5615 64.676 44.841 62.4157C44.3372 60.8431 42.9179 59.3209 43.2815 55.9961C43.6451 52.6714 44.5278 51.5346 44.5278 51.5346L49.0856 51.3003Z" fill="black"/>
<path d="M41.9854 53.0416L42.3073 52.3845L42.6446 52.4305L42.4497 53.1139L41.9854 53.0416Z" fill="#407BFF"/>
<path d="M46.8516 52.5379C47.7649 52.4831 48.5074 52.3889 48.9826 52.3188L49.2192 52.9956C48.4349 53.1216 47.6446 53.2071 46.8516 53.2519V52.5379Z" fill="#407BFF"/>
<path d="M43.1567 52.481C44.2092 52.5812 45.2673 52.6098 46.3237 52.5664V53.2738C46.0171 53.2738 45.6973 53.2935 45.3644 53.2935C44.5685 53.294 43.7731 53.253 42.9814 53.1709L43.1567 52.481Z" fill="#407BFF"/>
<g opacity="0.5">
<path d="M41.9854 53.0418L42.3073 52.3848L42.6446 52.4308L42.4497 53.1141L41.9854 53.0418Z" fill="white"/>
<path d="M46.8525 52.5379C47.7659 52.4831 48.5083 52.3889 48.9836 52.3188L49.2202 52.9956C48.4359 53.1216 47.6456 53.2071 46.8525 53.2519V52.5379Z" fill="white"/>
<path d="M42.9824 53.1709L43.1576 52.481C44.2102 52.5812 45.2683 52.6098 46.3247 52.5664V53.2738C46.0181 53.2738 45.6983 53.2935 45.3654 53.2935" fill="white"/>
</g>
<path d="M46.896 87.862C46.8876 87.861 46.8798 87.8573 46.8739 87.8513C46.8679 87.8453 46.8641 87.8375 46.8632 87.8291C46.8615 87.8212 46.8623 87.813 46.8654 87.8055C46.8685 87.7981 46.8739 87.7918 46.8807 87.7875C46.907 87.7722 47.4896 87.4239 47.7743 87.4962C47.8266 87.5101 47.8718 87.5429 47.9013 87.5882C47.9195 87.6138 47.9293 87.6444 47.9293 87.6758C47.9293 87.7072 47.9195 87.7378 47.9013 87.7634C47.7588 87.8685 47.5827 87.9176 47.4064 87.9014C47.2354 87.9032 47.0647 87.89 46.896 87.862ZM47.0253 87.8072C47.3406 87.8401 47.7656 87.8291 47.8422 87.7174C47.8422 87.7043 47.8641 87.6802 47.8422 87.6298C47.8337 87.6151 47.822 87.6026 47.808 87.5931C47.794 87.5836 47.7779 87.5774 47.7612 87.575C47.7357 87.5717 47.71 87.5717 47.6845 87.575C47.4506 87.6097 47.2254 87.6885 47.0209 87.8072H47.0253Z" fill="#407BFF"/>
<path d="M46.8696 87.8594C46.8633 87.8562 46.8582 87.8511 46.855 87.8448C46.8519 87.8385 46.8508 87.8313 46.8521 87.8244C46.8521 87.8025 46.8893 87.3469 47.1018 87.1673C47.1623 87.1152 47.2411 87.0892 47.3208 87.095C47.4325 87.095 47.4675 87.1586 47.4719 87.2045C47.5113 87.3951 47.1127 87.7674 46.9112 87.8616C46.9088 87.8626 46.9062 87.8632 46.9035 87.8632C46.9009 87.8632 46.8983 87.8626 46.8959 87.8616C46.8871 87.8636 46.8779 87.8628 46.8696 87.8594ZM47.3076 87.1695C47.2566 87.1689 47.2073 87.1877 47.1696 87.2221C47.0446 87.3691 46.9681 87.5511 46.9506 87.7433C47.1565 87.6163 47.4193 87.325 47.4062 87.2111C47.4062 87.2002 47.4062 87.1717 47.3252 87.1673L47.3076 87.1695Z" fill="#407BFF"/>
<path d="M46.7138 87.6277L44.8674 87.6627C44.8336 87.6627 44.8009 87.6745 44.7749 87.6961C44.7488 87.7177 44.7312 87.7478 44.7251 87.781L44.4184 89.2901C44.4117 89.3217 44.4113 89.3544 44.4173 89.3862C44.4232 89.418 44.4354 89.4483 44.4531 89.4754C44.4708 89.5024 44.4937 89.5257 44.5205 89.5439C44.5472 89.5621 44.5773 89.5749 44.609 89.5814H44.6616C45.3186 89.5573 45.9188 89.5091 46.7467 89.4959C47.7235 89.4784 47.4782 89.5989 48.6281 89.5945C49.3202 89.5945 49.4319 88.8016 49.1384 88.7688C47.7914 88.6242 47.6446 88.2212 47.1168 87.7481C47.0011 87.6612 46.8582 87.6185 46.7138 87.6277Z" fill="#263238"/>
<path d="M44.7604 34.7816C44.721 34.648 44.7604 34.5166 44.8502 34.4925C44.94 34.4684 45.0407 34.556 45.0802 34.6918C45.1196 34.8276 45.0802 34.9568 44.9904 34.9809C44.9006 35.005 44.7976 34.9174 44.7604 34.7816Z" fill="#263238"/>
<path d="M44.7451 34.9875L45.7789 35.6446C45.7006 35.765 45.5953 35.8655 45.4713 35.9382C45.3474 36.0108 45.2082 36.0535 45.0649 36.0629L44.7451 34.9875Z" fill="#DE5753"/>
<path d="M44.4318 34.5322C44.4446 34.528 44.4562 34.5209 44.4657 34.5114C44.4752 34.5018 44.4824 34.4902 44.4865 34.4774C44.5145 34.3778 44.5656 34.2863 44.6356 34.2101C44.7056 34.134 44.7926 34.0755 44.8895 34.0394C44.8998 34.0364 44.9093 34.0314 44.9176 34.0247C44.9258 34.018 44.9327 34.0097 44.9378 34.0003C44.9429 33.991 44.9461 33.9807 44.9472 33.9701C44.9483 33.9595 44.9473 33.9488 44.9443 33.9386C44.9386 33.9175 44.9249 33.8995 44.906 33.8884C44.8872 33.8773 44.8647 33.8741 44.8435 33.8795C44.7205 33.9234 44.6096 33.9959 44.5201 34.0911C44.4306 34.1863 44.365 34.3015 44.3288 34.427C44.3218 34.4471 44.3228 34.4691 44.3319 34.4884C44.3409 34.5076 44.3571 34.5226 44.377 34.53C44.3855 34.5343 44.3947 34.5367 44.4042 34.5371C44.4136 34.5374 44.423 34.5358 44.4318 34.5322Z" fill="#263238"/>
<path d="M40.1327 36.2538C40.8249 37.8899 41.0833 38.5974 42.231 39.1581C43.832 39.5764 45.8207 38.7923 45.628 36.9788C45.4572 35.3493 44.3555 32.9532 42.4785 32.8568C42.0652 32.8353 41.6533 32.9199 41.282 33.1025C40.9107 33.2852 40.5923 33.5599 40.3572 33.9004C40.122 34.2409 39.978 34.636 39.9387 35.0479C39.8994 35.4599 39.9662 35.875 40.1327 36.2538Z" fill="#E4897B"/>
<path opacity="0.2" d="M43.9453 38.3893C43.9453 38.3893 45.1346 38.6302 45.6055 37.592C45.4456 38.4265 44.7513 38.9566 43.9168 39.1668L43.6299 38.9653L43.7854 38.5426L43.9453 38.3893Z" fill="black"/>
<path d="M41.7812 41.1052C41.7812 41.1052 42.8107 40.6015 42.0682 38.639C42.0682 38.639 42.8895 37.8243 43.7437 38.1703C44.5979 38.5164 43.8795 40.3233 44.8848 40.6015C44.8848 40.6015 44.3613 41.3264 41.7812 41.1052Z" fill="#E4897B"/>
<path d="M43.7923 35.833C43.5284 35.5771 43.29 35.2962 43.0804 34.9942C42.7322 34.4926 43.5448 33.91 43.4068 32.9814C43.2688 32.0527 42.3117 32.6178 42.3117 32.6178C42.3117 32.6178 39.99 32.355 39.6834 34.7664C39.3831 35.2323 39.2254 35.7758 39.2296 36.3301C39.2337 36.8843 39.3996 37.4254 39.7068 37.8867C40.014 38.3481 40.4492 38.7098 40.959 38.9274C41.4688 39.145 42.031 39.2091 42.5767 39.1118L42.73 39.0768C43.0326 38.9784 43.2964 38.7869 43.4836 38.5296C43.6708 38.2724 43.772 37.9625 43.7726 37.6443L43.7923 35.833Z" fill="#263238"/>
<path d="M42.2961 39.1453C42.2961 39.1453 41.6872 39.349 41.9237 39.5943C42.1603 39.8396 42.2961 39.1453 42.2961 39.1453Z" fill="#263238"/>
<path d="M40.2903 35.3165C40.2531 34.7668 40.1107 34.3287 39.561 34.366C39.0112 34.4032 38.9784 34.8566 39.0156 35.4063C39.0528 35.9561 39.1514 36.3963 39.7011 36.3569C40.2509 36.3175 40.3254 35.8663 40.2903 35.3165Z" fill="#407BFF"/>
<path d="M43.3019 35.7277C43.4688 35.7944 43.6208 35.8936 43.749 36.0196C43.8772 36.1455 43.9791 36.2957 44.0487 36.4614C44.2327 36.8995 43.8494 37.1908 43.3917 37.1185C42.9843 37.055 42.4017 36.744 42.4083 36.2709C42.4098 36.1664 42.4379 36.0641 42.4898 35.9734C42.5417 35.8827 42.6157 35.8067 42.705 35.7524C42.7943 35.6982 42.8959 35.6675 43.0003 35.6631C43.1046 35.6588 43.2084 35.681 43.3019 35.7277Z" fill="#E4897B"/>
<path d="M37.5433 35.5094C37.5713 35.8998 37.7531 36.2632 38.0487 36.5199C38.3444 36.7765 38.7297 36.9054 39.1202 36.8783C39.935 36.8213 39.9832 36.1555 39.9262 35.3451C39.8693 34.5347 39.7269 33.8799 38.9144 33.9368C38.5243 33.9643 38.1611 34.1453 37.9041 34.44C37.6471 34.7347 37.5174 35.1192 37.5433 35.5094Z" fill="#263238"/>
<path d="M43.1391 32.2767C42.9858 32.4958 42.8324 32.8134 42.9989 33.0346C43.0931 33.1616 43.2639 33.2054 43.3778 33.3171C43.4916 33.4523 43.5591 33.6204 43.5706 33.7968C43.676 34.4272 43.7302 35.0652 43.7326 35.7044C44.1707 34.9466 44.6394 34.145 44.6569 33.2667C44.6699 33.0043 44.6164 32.7429 44.5014 32.5067C44.4418 32.3899 44.3561 32.2884 44.2508 32.2101C44.1456 32.1319 44.0237 32.079 43.8947 32.0555C43.6363 32.0205 43.1391 32.2767 43.1391 32.2767Z" fill="#263238"/>
<path d="M45.5395 40.7044C45.5395 40.7044 45.6402 39.4516 43.2135 39.9575C40.7867 40.4635 42.4162 41.1599 42.4162 41.1599L45.5395 40.7044Z" fill="#407BFF"/>
<path opacity="0.5" d="M45.5395 40.7044C45.5395 40.7044 45.6402 39.4516 43.2135 39.9575C40.7867 40.4635 42.4162 41.1599 42.4162 41.1599L45.5395 40.7044Z" fill="white"/>
<path d="M49.0448 51.7498C46.329 52.2776 43.2145 52.0608 42.0734 51.9535C41.8149 51.9272 42.2924 48.8872 39.5502 43.3788C39.4145 43.1262 39.3685 42.835 39.4199 42.5529C39.4712 42.2708 39.6168 42.0145 39.8328 41.8259C41.6988 40.2818 45.0893 40.3409 46.6444 40.4658C46.9158 40.4848 47.1791 40.5663 47.4139 40.7038C47.6487 40.8413 47.8485 41.0312 47.9979 41.2586C48.5392 42.1757 48.904 43.186 49.0733 44.2373C49.2564 45.2373 49.3611 46.2501 49.3865 47.2664C49.4588 49.6713 49.1675 51.7257 49.0448 51.7498Z" fill="white"/>
<path opacity="0.2" d="M49.3863 47.2659C48.5102 47.0995 47.2793 43.8689 47.2793 43.8689L49.0731 44.2369C49.2562 45.2368 49.3609 46.2496 49.3863 47.2659Z" fill="black"/>
<path d="M48.867 42.1431L51.4734 43.8055C51.52 43.8355 51.5723 43.8557 51.6271 43.8646C51.6818 43.8736 51.7378 43.8713 51.7916 43.8577C51.8454 43.8442 51.8959 43.8197 51.9398 43.7859C51.9838 43.752 52.0203 43.7095 52.0472 43.661L54.163 39.8675L54.9295 37.8963L55.1486 37.6576L56.4627 36.5449H56.9664L55.9896 37.421L56.2612 37.8853L56.6992 38.8819L54.958 40.415C54.958 40.415 53.9461 44.9641 52.862 45.9344C52.0012 46.7054 47.6689 43.6434 47.6689 43.6434L48.867 42.1431Z" fill="#E4897B"/>
<path d="M47.0683 40.5575C47.7451 40.7634 49.2345 41.4336 51.5692 43.6369L49.8521 45.9367C49.2934 45.8123 48.7707 45.5612 48.3245 45.2027C47.8782 44.8442 47.5204 44.3879 47.2786 43.8691C46.8346 42.9372 46.6099 41.916 46.6215 40.8838C46.6223 40.8302 46.6355 40.7774 46.6601 40.7297C46.6847 40.682 46.7201 40.6407 46.7634 40.6091C46.8068 40.5774 46.8569 40.5563 46.9098 40.5473C46.9627 40.5384 47.017 40.5418 47.0683 40.5575Z" fill="white"/>
<path d="M51.3001 43.1682L49.3574 45.9739L50.0079 46.1097L51.8411 43.6063L51.3001 43.1682Z" fill="#407BFF"/>
<path opacity="0.5" d="M51.3001 43.1682L49.3574 45.9739L50.0079 46.1097L51.8411 43.6063L51.3001 43.1682Z" fill="white"/>
<path d="M46.8719 86.1294H44.5283L44.6575 86.8106H46.7251L46.8719 86.1294Z" fill="#263238"/>
<path opacity="0.4" d="M46.8719 86.1294H44.5283L44.6575 86.8106H46.7251L46.8719 86.1294Z" fill="black"/>
</g>
<defs>
<clipPath id="clip0_85_1493">
<rect width="109.511" height="109.511" fill="white" transform="translate(0.244141 0.00561523)"/>
</clipPath>
</defs>
</svg>
