<svg width="182" height="181" viewBox="0 0 182 181" fill="none" xmlns="http://www.w3.org/2000/svg">
<g clip-path="url(#clip0_85_2741)">
<path d="M163.204 144.344H151.261V144.434H163.204V144.344Z" fill="#EBEBEB"/>
<path d="M120.406 145.325H117.272V145.415H120.406V145.325Z" fill="#EBEBEB"/>
<path d="M150.9 140.998H143.979V141.088H150.9V140.998Z" fill="#EBEBEB"/>
<path d="M35.4559 141.604H19.8809V141.694H35.4559V141.604Z" fill="#EBEBEB"/>
<path d="M40.9516 141.604H38.6689V141.694H40.9516V141.604Z" fill="#EBEBEB"/>
<path d="M82.1556 143.125H48.373V143.216H82.1556V143.125Z" fill="#EBEBEB"/>
<path d="M86.4292 122.458H16.8013C16.2552 122.458 15.7315 122.241 15.3453 121.855C14.9591 121.469 14.7422 120.945 14.7422 120.399V22.5167C14.7469 21.9737 14.966 21.4546 15.3516 21.0723C15.7373 20.69 16.2583 20.4756 16.8013 20.4756H86.4292C86.9753 20.4756 87.499 20.6925 87.8852 21.0787C88.2713 21.4648 88.4883 21.9886 88.4883 22.5347V120.399C88.4883 120.945 88.2713 121.469 87.8852 121.855C87.499 122.241 86.9753 122.458 86.4292 122.458ZM16.8013 20.5477C16.2794 20.5487 15.7791 20.7564 15.4101 21.1255C15.041 21.4945 14.8333 21.9948 14.8323 22.5167V120.399C14.8333 120.921 15.041 121.421 15.4101 121.79C15.7791 122.159 16.2794 122.367 16.8013 122.368H86.4292C86.9511 122.367 87.4513 122.159 87.8204 121.79C88.1894 121.421 88.3972 120.921 88.3981 120.399V22.5167C88.3972 21.9948 88.1894 21.4945 87.8204 21.1255C87.4513 20.7564 86.9511 20.5487 86.4292 20.5477H16.8013Z" fill="#EBEBEB"/>
<path d="M164.434 122.458H94.7994C94.2535 122.457 93.7303 122.24 93.3444 121.854C92.9584 121.468 92.7412 120.945 92.7402 120.399V22.5167C92.7459 21.974 92.9653 21.4554 93.3507 21.0733C93.7362 20.6913 94.2566 20.4765 94.7994 20.4756H164.434C164.976 20.4775 165.495 20.6928 165.879 21.0748C166.264 21.4569 166.482 21.9749 166.486 22.5167V120.399C166.486 120.944 166.27 121.466 165.886 121.852C165.501 122.238 164.979 122.456 164.434 122.458ZM94.7994 20.5477C94.2774 20.5487 93.7772 20.7564 93.4081 21.1255C93.0391 21.4945 92.8313 21.9948 92.8304 22.5167V120.399C92.8313 120.921 93.0391 121.421 93.4081 121.79C93.7772 122.159 94.2774 122.367 94.7994 122.368H164.434C164.956 122.367 165.457 122.159 165.826 121.79C166.195 121.421 166.402 120.921 166.403 120.399V22.5167C166.402 21.9948 166.195 21.4945 165.826 21.1255C165.457 20.7564 164.956 20.5487 164.434 20.5477H94.7994Z" fill="#EBEBEB"/>
<path d="M181.271 138.542H0.962891V138.633H181.271V138.542Z" fill="#EBEBEB"/>
<path d="M31.4815 137.947H32.3037L32.3037 86.3966H31.4815L31.4815 137.947Z" fill="#EBEBEB"/>
<path d="M41.1281 81.0597C41.1281 83.6886 39.2601 85.9857 36.4869 87.2082H27.2876C24.5145 85.9857 22.6465 83.6886 22.6465 81.0597C22.6465 78.4308 24.5289 76.1373 27.2876 74.9292H36.4869C39.2601 76.1373 41.1281 78.4308 41.1281 81.0597Z" fill="#F0F0F0"/>
<path d="M28.9111 81.0593C28.9111 78.4268 30.7755 76.1333 33.5487 74.9072H36.4877C39.2608 76.1333 41.1288 78.4268 41.1288 81.0593C41.1288 83.6918 39.2608 85.9854 36.4877 87.2079H33.5487C30.7755 85.989 28.9111 83.6918 28.9111 81.0593Z" fill="#F5F5F5"/>
<path d="M26.1084 138.34H37.6806C37.6806 138.154 37.644 137.971 37.5729 137.799C37.5018 137.628 37.3976 137.472 37.2663 137.341C37.135 137.21 36.9791 137.107 36.8077 137.036C36.6362 136.965 36.4524 136.929 36.267 136.93H27.522C27.1477 136.93 26.7887 137.078 26.5237 137.342C26.2587 137.607 26.1094 137.965 26.1084 138.34Z" fill="#EBEBEB"/>
<path d="M148.751 116.606C148.784 116.638 148.611 116.88 149.314 116.775C151.045 116.515 154.059 115.812 154.896 114.031C156.097 111.488 152.372 112.419 152.509 111.117C152.646 109.815 156.865 110.035 157.312 108.138C157.759 106.242 154.896 107.139 154.856 106.213C154.817 105.286 158.124 105.852 158.776 103.804C159.429 101.755 156.937 103.259 157.222 102.405C157.507 101.55 160.305 97.6805 158.784 97.2333C157.262 96.7861 154.701 100.753 153.713 101.315C152.725 101.878 151.849 98.6361 150.67 100.006C149.49 101.377 151.358 106.159 149.858 107.089C148.737 107.778 149.054 105.874 147.576 106.231C145.571 106.714 146.245 113.796 148.751 116.606Z" fill="#F5F5F5"/>
<path d="M154.095 106.223C153.585 106.259 153.082 106.362 152.599 106.53C152.917 106.047 153.273 105.59 153.662 105.163C153.675 105.151 153.684 105.136 153.691 105.121C153.697 105.105 153.701 105.088 153.701 105.071C153.701 105.054 153.697 105.037 153.691 105.021C153.684 105.005 153.675 104.991 153.662 104.979C153.651 104.967 153.637 104.957 153.621 104.951C153.606 104.944 153.589 104.941 153.572 104.941C153.555 104.941 153.539 104.944 153.523 104.951C153.508 104.957 153.494 104.967 153.482 104.979C152.643 105.915 151.926 106.954 151.347 108.069C151.052 105.973 151.344 103.836 152.191 101.896C152.197 101.884 152.201 101.872 152.202 101.859C152.203 101.846 152.202 101.834 152.198 101.821C152.194 101.809 152.187 101.798 152.178 101.788C152.17 101.779 152.159 101.771 152.148 101.766C152.125 101.755 152.098 101.753 152.074 101.761C152.05 101.769 152.03 101.786 152.018 101.809C151.121 103.862 150.838 106.13 151.203 108.34C151.026 108.679 150.842 109.04 150.673 109.422C150.052 110.801 149.562 112.235 149.209 113.706C148.568 112.499 148.219 111.159 148.188 109.793C148.186 109.768 148.175 109.744 148.156 109.726C148.138 109.709 148.113 109.699 148.087 109.699C148.075 109.7 148.063 109.703 148.052 109.708C148.04 109.713 148.03 109.72 148.022 109.729C148.014 109.738 148.007 109.749 148.003 109.761C147.999 109.772 147.997 109.784 147.997 109.797C148.025 111.264 148.419 112.7 149.144 113.976C148.488 116.873 148.268 119.85 148.491 122.811C148.494 122.846 148.51 122.877 148.535 122.9C148.561 122.923 148.594 122.935 148.628 122.934C148.658 122.928 148.685 122.911 148.704 122.886C148.723 122.862 148.732 122.831 148.729 122.801C148.424 119.042 148.876 115.261 150.056 111.679C150.584 111.067 151.306 110.655 152.101 110.511C152.126 110.506 152.147 110.493 152.162 110.473C152.177 110.452 152.183 110.427 152.18 110.403C152.179 110.39 152.175 110.378 152.169 110.367C152.163 110.356 152.154 110.346 152.144 110.339C152.134 110.331 152.122 110.326 152.11 110.323C152.097 110.321 152.084 110.321 152.072 110.323C151.372 110.442 150.722 110.764 150.204 111.25C150.77 109.69 151.515 108.201 152.422 106.811C152.963 106.587 153.536 106.453 154.12 106.414C154.146 106.411 154.169 106.399 154.186 106.38C154.203 106.36 154.212 106.335 154.211 106.31C154.209 106.296 154.205 106.283 154.199 106.271C154.192 106.259 154.183 106.249 154.172 106.241C154.161 106.233 154.149 106.227 154.135 106.224C154.122 106.221 154.109 106.221 154.095 106.223Z" fill="#E0E0E0"/>
<path d="M145.931 118.361C144.161 118.397 141.135 116.749 139.945 115.152C138.755 113.554 142.134 114.535 141.784 113.258C141.434 111.982 137.255 112.927 136.483 111.095C135.711 109.263 138.73 109.688 138.607 108.754C138.485 107.82 135.362 108.012 134.359 106.068C133.357 104.124 136.104 105.213 135.675 104.409C135.246 103.605 131.799 100.219 133.241 99.5118C134.684 98.805 137.911 102.332 138.993 102.725C140.075 103.118 140.327 100.684 141.737 101.849C143.147 103.013 142.098 108.109 143.75 108.78C144.983 109.281 144.471 106.951 145.881 107.539C148.373 108.57 146.653 118.35 145.931 118.361Z" fill="#E6E6E6"/>
<g opacity="0.3">
<path d="M145.931 118.361C144.161 118.397 141.135 116.749 139.945 115.152C138.755 113.554 142.134 114.535 141.784 113.258C141.434 111.982 137.255 112.927 136.483 111.095C135.711 109.263 138.73 109.688 138.607 108.754C138.485 107.82 135.362 108.012 134.359 106.068C133.357 104.124 136.104 105.213 135.675 104.409C135.246 103.605 131.799 100.219 133.241 99.5118C134.684 98.805 137.911 102.332 138.993 102.725C140.075 103.118 140.327 100.684 141.737 101.849C143.147 103.013 142.098 108.109 143.75 108.78C144.983 109.281 144.471 106.951 145.881 107.539C148.373 108.57 146.653 118.35 145.931 118.361Z" fill="#E6E6E6"/>
</g>
<path d="M145.35 116.238C145.378 116.228 145.401 116.209 145.415 116.184C146.09 114.697 146.363 113.06 146.209 111.434C146.209 111.403 146.196 111.373 146.174 111.35C146.152 111.328 146.121 111.315 146.09 111.315C146.058 111.315 146.028 111.328 146.006 111.35C145.983 111.373 145.971 111.403 145.971 111.434C146.103 112.976 145.856 114.526 145.25 115.949C144.519 113.981 143.617 112.081 142.556 110.27C142.694 107.841 142.119 105.426 140.9 103.32C140.883 103.295 140.857 103.276 140.827 103.269C140.796 103.263 140.765 103.268 140.738 103.284C140.725 103.293 140.713 103.303 140.704 103.316C140.695 103.328 140.689 103.343 140.686 103.358C140.682 103.373 140.682 103.389 140.685 103.404C140.688 103.419 140.694 103.434 140.702 103.447C141.832 105.409 142.399 107.645 142.343 109.909C141.069 107.723 139.548 105.69 137.81 103.851C137.796 103.836 137.779 103.824 137.76 103.816C137.741 103.807 137.721 103.803 137.7 103.803C137.679 103.803 137.659 103.807 137.64 103.816C137.621 103.824 137.604 103.836 137.59 103.851C137.561 103.88 137.544 103.921 137.544 103.962C137.544 104.004 137.561 104.044 137.59 104.074C138.871 105.425 140.029 106.887 141.048 108.445C139.977 108.045 138.842 107.845 137.698 107.857C137.681 107.854 137.664 107.855 137.647 107.859C137.63 107.864 137.614 107.872 137.601 107.883C137.588 107.894 137.577 107.908 137.57 107.924C137.562 107.94 137.559 107.957 137.559 107.974C137.559 107.992 137.562 108.009 137.57 108.025C137.577 108.04 137.588 108.054 137.601 108.065C137.614 108.077 137.63 108.085 137.647 108.089C137.664 108.094 137.681 108.094 137.698 108.091C138.924 108.083 140.139 108.319 141.272 108.787C141.971 109.86 142.615 110.967 143.201 112.105C142.725 111.774 142.183 111.55 141.612 111.449C141.041 111.348 140.455 111.372 139.894 111.521C139.864 111.529 139.839 111.549 139.823 111.576C139.808 111.603 139.804 111.635 139.811 111.665C139.815 111.681 139.821 111.695 139.83 111.708C139.84 111.721 139.851 111.732 139.865 111.74C139.878 111.748 139.893 111.753 139.909 111.755C139.925 111.757 139.94 111.756 139.956 111.752C140.563 111.594 141.199 111.589 141.808 111.736C142.418 111.883 142.982 112.179 143.45 112.596C145.497 116.632 146.667 121.057 146.883 125.578C146.884 125.598 146.888 125.618 146.896 125.637C146.904 125.655 146.916 125.672 146.931 125.686C146.946 125.7 146.963 125.711 146.982 125.719C147.001 125.726 147.021 125.73 147.042 125.729C147.083 125.727 147.122 125.709 147.151 125.679C147.179 125.649 147.194 125.608 147.193 125.567C147.059 122.381 146.437 119.235 145.35 116.238Z" fill="#F5F5F5"/>
<path d="M150.579 138.34C151.953 134.431 152.855 128.78 152.855 126.302C152.892 124.403 152.302 122.544 151.178 121.012H144.149C143.023 122.543 142.433 124.402 142.473 126.302C142.473 128.78 143.374 134.431 144.748 138.34H150.579Z" fill="#E6E6E6"/>
<path d="M71.8853 114.936H40.9805V125.603H71.8853V114.936Z" fill="#EBEBEB"/>
<path d="M71.8853 125.603H40.9805V136.27H71.8853V125.603Z" fill="#EBEBEB"/>
<path d="M52.7263 125.603L56.5705 114.936H50.6528L46.8086 125.603H52.7263Z" fill="#F5F5F5"/>
<path d="M59.4331 114.936H58.1349L54.2871 125.603H55.5889L59.4331 114.936Z" fill="#F5F5F5"/>
<path d="M48.8777 136.27L52.7255 125.603H46.8077L42.96 136.27H48.8777Z" fill="#F5F5F5"/>
<path d="M55.5894 125.603H54.2875L50.4434 136.27H51.7416L55.5894 125.603Z" fill="#F5F5F5"/>
<path d="M71.8857 116.573V115.495H40.9809V116.573H71.8857Z" fill="#E0E0E0"/>
<path d="M71.8857 127.157V126.079H40.9809V127.157H71.8857Z" fill="#E0E0E0"/>
<path d="M40.4395 114.456V136.735H72.4261V114.456H40.4395ZM71.3443 135.657H41.5213V126.165H71.3443V135.657ZM71.3443 125.087H41.5213V115.596H71.3443V125.087Z" fill="#F5F5F5"/>
<path d="M103.869 114.936H72.9639V125.603H103.869V114.936Z" fill="#EBEBEB"/>
<path d="M103.869 125.603H72.9639V136.27H103.869V125.603Z" fill="#EBEBEB"/>
<path d="M87.9363 125.603L91.7804 114.936H85.8627L82.0186 125.603H87.9363Z" fill="#F5F5F5"/>
<path d="M94.644 114.936H93.3458L89.498 125.603H90.7999L94.644 114.936Z" fill="#F5F5F5"/>
<path d="M84.0886 136.27L87.9364 125.603H82.0187L78.1709 136.27H84.0886Z" fill="#F5F5F5"/>
<path d="M90.7993 125.603H89.4975L85.6533 136.27H86.9551L90.7993 125.603Z" fill="#F5F5F5"/>
<path d="M103.868 116.573V115.495H72.9633V116.573H103.868Z" fill="#E0E0E0"/>
<path d="M103.868 127.157V126.079H72.9633V127.157H103.868Z" fill="#E0E0E0"/>
<path d="M72.4268 114.456V136.735H104.41V114.456H72.4268ZM103.328 135.657H73.505V126.165H103.328V135.657ZM103.328 125.087H73.505V115.596H103.328V125.087Z" fill="#F5F5F5"/>
<path d="M135.851 114.936H104.946V125.603H135.851V114.936Z" fill="#EBEBEB"/>
<path d="M135.851 125.603H104.946V136.27H135.851V125.603Z" fill="#EBEBEB"/>
<path d="M118.098 125.603L121.946 114.936H116.028L112.181 125.603H118.098Z" fill="#F5F5F5"/>
<path d="M124.81 114.936H123.508L119.664 125.603H120.966L124.81 114.936Z" fill="#F5F5F5"/>
<path d="M114.255 136.27L118.099 125.603H112.181L108.337 136.27H114.255Z" fill="#F5F5F5"/>
<path d="M120.965 125.603H119.664L115.819 136.27H117.118L120.965 125.603Z" fill="#F5F5F5"/>
<path d="M135.852 116.573V115.495H104.947V116.573H135.852Z" fill="#E0E0E0"/>
<path d="M135.852 127.157V126.079H104.947V127.157H135.852Z" fill="#E0E0E0"/>
<path d="M104.409 114.456V136.735H136.392V114.456H104.409ZM135.31 135.657H105.487V126.165H135.31V135.657ZM135.31 125.087H105.487V115.596H135.31V125.087Z" fill="#F5F5F5"/>
<path d="M133.298 138.339H43.5333L43.0645 136.734H133.767L133.298 138.339Z" fill="#E0E0E0"/>
<path d="M89.3428 121.268C89.3428 121.451 89.2885 121.631 89.1866 121.783C89.0848 121.935 88.9401 122.054 88.7707 122.124C88.6014 122.194 88.415 122.213 88.2352 122.177C88.0555 122.141 87.8903 122.053 87.7607 121.923C87.6311 121.794 87.5428 121.629 87.5071 121.449C87.4713 121.269 87.4897 121.083 87.5598 120.913C87.63 120.744 87.7487 120.599 87.9011 120.498C88.0536 120.396 88.2327 120.341 88.416 120.341C88.6615 120.342 88.8967 120.44 89.0703 120.614C89.2439 120.787 89.3419 121.023 89.3428 121.268Z" fill="#E0E0E0"/>
<path d="M88.416 121.935C88.9279 121.935 89.3428 121.52 89.3428 121.008C89.3428 120.496 88.9279 120.082 88.416 120.082C87.9042 120.082 87.4893 120.496 87.4893 121.008C87.4893 121.52 87.9042 121.935 88.416 121.935Z" fill="#FAFAFA"/>
<path d="M88.416 131.992C88.9279 131.992 89.3428 131.577 89.3428 131.065C89.3428 130.554 88.9279 130.139 88.416 130.139C87.9042 130.139 87.4893 130.554 87.4893 131.065C87.4893 131.577 87.9042 131.992 88.416 131.992Z" fill="#E0E0E0"/>
<path d="M89.3428 130.824C89.3421 131.007 89.2871 131.186 89.1849 131.338C89.0826 131.49 88.9376 131.608 88.7682 131.678C88.5988 131.747 88.4126 131.765 88.233 131.729C88.0535 131.693 87.8887 131.604 87.7594 131.474C87.6302 131.345 87.5423 131.179 87.5068 131C87.4713 130.82 87.4899 130.634 87.5601 130.465C87.6304 130.296 87.7492 130.151 87.9015 130.049C88.0539 129.948 88.2329 129.894 88.416 129.894C88.538 129.894 88.6589 129.918 88.7715 129.964C88.8842 130.011 88.9865 130.08 89.0726 130.166C89.1588 130.253 89.2269 130.355 89.2733 130.468C89.3197 130.581 89.3433 130.702 89.3428 130.824Z" fill="#FAFAFA"/>
<path d="M57.3594 121.268C57.3594 121.451 57.3051 121.631 57.2032 121.783C57.1014 121.935 56.9567 122.054 56.7873 122.124C56.618 122.194 56.4316 122.213 56.2518 122.177C56.0721 122.141 55.9069 122.053 55.7773 121.923C55.6477 121.794 55.5594 121.629 55.5237 121.449C55.4879 121.269 55.5063 121.083 55.5764 120.913C55.6466 120.744 55.7653 120.599 55.9178 120.498C56.0702 120.396 56.2493 120.341 56.4326 120.341C56.6782 120.342 56.9133 120.44 57.0869 120.614C57.2605 120.787 57.3585 121.023 57.3594 121.268Z" fill="#E0E0E0"/>
<path d="M56.4326 121.935C56.9445 121.935 57.3594 121.52 57.3594 121.008C57.3594 120.496 56.9445 120.082 56.4326 120.082C55.9208 120.082 55.5059 120.496 55.5059 121.008C55.5059 121.52 55.9208 121.935 56.4326 121.935Z" fill="#FAFAFA"/>
<path d="M56.4326 131.992C56.9445 131.992 57.3594 131.577 57.3594 131.065C57.3594 130.554 56.9445 130.139 56.4326 130.139C55.9208 130.139 55.5059 130.554 55.5059 131.065C55.5059 131.577 55.9208 131.992 56.4326 131.992Z" fill="#E0E0E0"/>
<path d="M57.3594 130.824C57.3587 131.007 57.3038 131.186 57.2015 131.338C57.0992 131.49 56.9542 131.608 56.7848 131.678C56.6154 131.747 56.4292 131.765 56.2496 131.729C56.0701 131.693 55.9053 131.604 55.776 131.474C55.6468 131.345 55.5589 131.179 55.5234 131C55.4879 130.82 55.5065 130.634 55.5767 130.465C55.647 130.296 55.7658 130.151 55.9181 130.049C56.0705 129.948 56.2495 129.894 56.4326 129.894C56.5547 129.894 56.6755 129.918 56.7881 129.964C56.9008 130.011 57.0031 130.08 57.0893 130.166C57.1754 130.253 57.2436 130.355 57.2899 130.468C57.3363 130.581 57.3599 130.702 57.3594 130.824Z" fill="#FAFAFA"/>
<path d="M121.892 121.268C121.893 121.452 121.839 121.633 121.737 121.786C121.635 121.94 121.49 122.06 121.319 122.131C121.149 122.201 120.962 122.22 120.781 122.184C120.6 122.149 120.434 122.06 120.304 121.93C120.173 121.799 120.085 121.633 120.049 121.452C120.013 121.272 120.032 121.084 120.103 120.914C120.174 120.744 120.293 120.599 120.447 120.497C120.601 120.395 120.781 120.341 120.965 120.341C121.211 120.342 121.446 120.44 121.62 120.614C121.793 120.787 121.891 121.023 121.892 121.268Z" fill="#E0E0E0"/>
<path d="M120.965 121.935C121.477 121.935 121.892 121.52 121.892 121.008C121.892 120.496 121.477 120.082 120.965 120.082C120.453 120.082 120.038 120.496 120.038 121.008C120.038 121.52 120.453 121.935 120.965 121.935Z" fill="#FAFAFA"/>
<path d="M120.965 131.992C121.477 131.992 121.892 131.577 121.892 131.065C121.892 130.554 121.477 130.139 120.965 130.139C120.453 130.139 120.038 130.554 120.038 131.065C120.038 131.577 120.453 131.992 120.965 131.992Z" fill="#E0E0E0"/>
<path d="M121.892 130.824C121.892 131.008 121.837 131.188 121.735 131.341C121.633 131.494 121.487 131.614 121.317 131.684C121.147 131.754 120.959 131.772 120.779 131.736C120.598 131.7 120.432 131.611 120.302 131.481C120.173 131.35 120.084 131.184 120.049 131.003C120.013 130.823 120.032 130.635 120.103 130.465C120.174 130.295 120.294 130.15 120.447 130.049C120.601 129.947 120.781 129.893 120.965 129.894C121.087 129.894 121.208 129.918 121.321 129.964C121.433 130.011 121.536 130.08 121.622 130.166C121.708 130.253 121.776 130.355 121.823 130.468C121.869 130.581 121.893 130.702 121.892 130.824Z" fill="#FAFAFA"/>
<path d="M89.3789 153.439C127.995 153.439 159.299 151.611 159.299 149.357C159.299 147.102 127.995 145.274 89.3789 145.274C50.7632 145.274 19.459 147.102 19.459 149.357C19.459 151.611 50.7632 153.439 89.3789 153.439Z" fill="#F5F5F5"/>
<path d="M150.421 29.9668H30.4834V99.5874H150.421V29.9668Z" fill="#407BFF"/>
<path opacity="0.5" d="M150.421 29.9668H30.4834V99.5874H150.421V29.9668Z" fill="white"/>
<path d="M30.4834 29.9668V35.5816H50.5481V33.4179C50.5481 32.9033 50.7525 32.4099 51.1163 32.046C51.4802 31.6822 51.9737 31.4778 52.4882 31.4778H65.831C66.0856 31.4778 66.3378 31.528 66.5729 31.6255C66.8081 31.7231 67.0218 31.866 67.2016 32.0462C67.3815 32.2264 67.5241 32.4404 67.6212 32.6757C67.7183 32.9111 67.768 33.1633 67.7675 33.4179V35.5816H150.421V29.9668H30.4834Z" fill="#407BFF"/>
<path opacity="0.7" d="M35.4892 32.7732C35.4899 33.0289 35.4147 33.279 35.2732 33.4918C35.1316 33.7047 34.93 33.8707 34.6939 33.9689C34.4579 34.0671 34.198 34.0929 33.9473 34.0432C33.6965 33.9935 33.4661 33.8705 33.2854 33.6897C33.1046 33.509 32.9816 33.2786 32.9319 33.0278C32.8822 32.7771 32.908 32.5172 33.0062 32.2811C33.1043 32.0451 33.2704 31.8435 33.4832 31.7019C33.6961 31.5603 33.9462 31.4851 34.2018 31.4858C34.5433 31.4858 34.8707 31.6215 35.1122 31.8629C35.3536 32.1044 35.4892 32.4318 35.4892 32.7732Z" fill="white"/>
<path opacity="0.7" d="M39.3545 32.7732C39.3552 33.0289 39.28 33.279 39.1384 33.4918C38.9968 33.7047 38.7952 33.8707 38.5592 33.9689C38.3231 34.0671 38.0633 34.0929 37.8125 34.0432C37.5617 33.9935 37.3314 33.8705 37.1506 33.6897C36.9698 33.509 36.8468 33.2786 36.7971 33.0278C36.7474 32.7771 36.7733 32.5172 36.8714 32.2811C36.9696 32.0451 37.1356 31.8435 37.3485 31.7019C37.5613 31.5603 37.8114 31.4851 38.0671 31.4858C38.4085 31.4858 38.736 31.6215 38.9774 31.8629C39.2188 32.1044 39.3545 32.4318 39.3545 32.7732Z" fill="white"/>
<path opacity="0.7" d="M43.2207 32.7732C43.2214 33.0289 43.1462 33.279 43.0046 33.4918C42.863 33.7047 42.6614 33.8707 42.4254 33.9689C42.1893 34.0671 41.9295 34.0929 41.6787 34.0432C41.4279 33.9935 41.1976 33.8705 41.0168 33.6897C40.836 33.509 40.713 33.2786 40.6633 33.0278C40.6136 32.7771 40.6395 32.5172 40.7376 32.2811C40.8358 32.0451 41.0018 31.8435 41.2147 31.7019C41.4275 31.5603 41.6776 31.4851 41.9333 31.4858C42.2747 31.4858 42.6022 31.6215 42.8436 31.8629C43.085 32.1044 43.2207 32.4318 43.2207 32.7732Z" fill="white"/>
<path opacity="0.3" d="M146.025 46.3179H67.7783V95.2211H146.025V46.3179Z" fill="white"/>
<path opacity="0.3" d="M57.6883 46.3179H34.6846V69.3216H57.6883V46.3179Z" fill="white"/>
<path opacity="0.4" d="M57.6883 46.3179H34.6846V69.3216H57.6883V46.3179Z" fill="white"/>
<path d="M53.6784 75.4155H40.0615V76.3856H53.6784V75.4155Z" fill="#263238"/>
<path d="M145.589 38.8271H122.542V42.3576H145.589V38.8271Z" fill="#407BFF"/>
<path opacity="0.9" d="M145.589 38.8271H122.542V42.3576H145.589V38.8271Z" fill="white"/>
<path d="M146.025 38.8271H145.585V42.3576H146.025V38.8271Z" fill="#407BFF"/>
<path d="M91.2651 38.8271H90.8252V42.3576H91.2651V38.8271Z" fill="#407BFF"/>
<path d="M90.8253 38.8271H67.7783V42.3576H90.8253V38.8271Z" fill="#407BFF"/>
<path opacity="0.9" d="M90.8253 38.8271H67.7783V42.3576H90.8253V38.8271Z" fill="white"/>
<path opacity="0.4" d="M65.7332 94.8632C65.4463 94.8632 65.1711 94.7492 64.9682 94.5463C64.7653 94.3434 64.6514 94.0682 64.6514 93.7813V80.0418C64.6514 79.7549 64.7653 79.4797 64.9682 79.2768C65.1711 79.0739 65.4463 78.96 65.7332 78.96C66.0201 78.96 66.2953 79.0739 66.4982 79.2768C66.7011 79.4797 66.8151 79.7549 66.8151 80.0418V93.7813C66.8151 94.0682 66.7011 94.3434 66.4982 94.5463C66.2953 94.7492 66.0201 94.8632 65.7332 94.8632Z" fill="white"/>
<path opacity="0.4" d="M38.3084 75.8993C38.3084 76.2397 38.2075 76.5724 38.0183 76.8554C37.8291 77.1383 37.5603 77.3588 37.2457 77.4889C36.9312 77.619 36.5852 77.6528 36.2514 77.5862C35.9176 77.5195 35.6111 77.3553 35.3707 77.1144C35.1303 76.8735 34.9667 76.5666 34.9008 76.2327C34.8348 75.8988 34.8694 75.5528 35.0001 75.2386C35.1309 74.9243 35.3519 74.6559 35.6353 74.4673C35.9186 74.2788 36.2515 74.1785 36.5919 74.1792C36.8176 74.1792 37.0411 74.2237 37.2496 74.3102C37.4581 74.3967 37.6475 74.5235 37.807 74.6832C37.9664 74.843 38.0928 75.0327 38.1788 75.2413C38.2649 75.45 38.3089 75.6736 38.3084 75.8993Z" fill="white"/>
<path d="M57.5009 80.8213H40.0615V81.7913H57.5009V80.8213Z" fill="#263238"/>
<path opacity="0.4" d="M38.3084 81.308C38.3084 81.6484 38.2075 81.9811 38.0183 82.2641C37.8291 82.547 37.5603 82.7675 37.2457 82.8976C36.9312 83.0277 36.5852 83.0615 36.2514 82.9949C35.9176 82.9282 35.6111 82.764 35.3707 82.5231C35.1303 82.2821 34.9667 81.9753 34.9008 81.6414C34.8348 81.3075 34.8694 80.9615 35.0001 80.6473C35.1309 80.333 35.3519 80.0646 35.6353 79.876C35.9186 79.6875 36.2515 79.5872 36.5919 79.5879C37.0475 79.5888 37.4841 79.7705 37.8059 80.093C38.1277 80.4155 38.3084 80.8525 38.3084 81.308Z" fill="white"/>
<path d="M55.0668 86.2305H40.0615V87.2005H55.0668V86.2305Z" fill="#263238"/>
<path opacity="0.4" d="M38.3084 86.7172C38.3084 87.0576 38.2075 87.3903 38.0183 87.6732C37.8291 87.9562 37.5603 88.1767 37.2457 88.3068C36.9312 88.4368 36.5852 88.4707 36.2514 88.404C35.9176 88.3374 35.6111 88.1732 35.3707 87.9323C35.1303 87.6913 34.9667 87.3845 34.9008 87.0506C34.8348 86.7167 34.8694 86.3707 35.0001 86.0564C35.1309 85.7422 35.3519 85.4738 35.6353 85.2852C35.9186 85.0966 36.2515 84.9964 36.5919 84.9971C37.0475 84.998 37.4841 85.1797 37.8059 85.5022C38.1277 85.8247 38.3084 86.2616 38.3084 86.7172Z" fill="white"/>
<path d="M53.6784 91.6396H40.0615V92.6097H53.6784V91.6396Z" fill="#263238"/>
<path opacity="0.4" d="M38.3084 92.1233C38.3092 92.4638 38.2088 92.7969 38.0201 93.0803C37.8313 93.3637 37.5627 93.5847 37.2482 93.7154C36.9338 93.846 36.5876 93.8804 36.2536 93.8141C35.9196 93.7479 35.6128 93.584 35.372 93.3432C35.1312 93.1024 34.9673 92.7956 34.901 92.4616C34.8348 92.1276 34.8692 91.7814 34.9998 91.4669C35.1304 91.1525 35.3515 90.8839 35.6349 90.6951C35.9183 90.5064 36.2514 90.406 36.5919 90.4067C37.0472 90.4067 37.4838 90.5876 37.8057 90.9095C38.1276 91.2314 38.3084 91.668 38.3084 92.1233Z" fill="white"/>
<path d="M113.285 101.842H125.51C125.773 101.842 125.809 101.431 125.546 101.431H113.321C113.058 101.431 113.022 101.842 113.285 101.842Z" fill="#407BFF"/>
<path d="M127.479 101.842H129.022C129.286 101.842 129.322 101.431 129.058 101.431H127.515C127.248 101.431 127.212 101.842 127.479 101.842Z" fill="#407BFF"/>
<path d="M67.2734 28.3086H55.0557C54.7925 28.3086 54.7528 28.7197 55.0197 28.7197H67.2446C67.5078 28.7197 67.5439 28.3086 67.2806 28.3086H67.2734Z" fill="#407BFF"/>
<path d="M53.0792 28.3086H51.5357C51.2725 28.3086 51.2364 28.7197 51.4997 28.7197H53.0431C53.31 28.7197 53.346 28.3086 53.0792 28.3086Z" fill="#407BFF"/>
<path d="M144.305 54.9976H119.52V78.0229H144.305V54.9976Z" fill="#407BFF"/>
<path opacity="0.9" d="M144.305 54.9976H119.52V78.0229H144.305V54.9976Z" fill="white"/>
<path d="M144.305 78.0229H144.81V54.9976H144.305V78.0229Z" fill="#407BFF"/>
<path d="M144.312 72.0586H119.513V78.0232H144.312V72.0586Z" fill="#407BFF"/>
<path d="M140.554 57.1396H123.27V58.7444H140.554V57.1396Z" fill="#263238"/>
<path d="M140.554 62.8623H123.27V64.4671H140.554V62.8623Z" fill="#263238"/>
<path d="M140.554 68.5854H123.27V70.1902H140.554V68.5854Z" fill="#263238"/>
<path d="M142.859 74.0962H120.966V76.1301H142.859V74.0962Z" fill="white"/>
<path d="M119.018 38.3584H94.2324V66.8002H119.018V38.3584Z" fill="#407BFF"/>
<path opacity="0.9" d="M119.018 38.3584H94.2324V66.8002H119.018V38.3584Z" fill="white"/>
<path d="M119.015 66.8042H119.52V38.3624H119.015V66.8042Z" fill="#407BFF"/>
<path d="M118.15 39.228H95.1025V42.7585H118.15V39.228Z" fill="#407BFF"/>
<path d="M119.018 54.9976H94.2188V60.9622H119.018V54.9976Z" fill="#407BFF"/>
<path d="M115.268 45.9175H97.9834V47.5222H115.268V45.9175Z" fill="#263238"/>
<path d="M115.268 51.6406H97.9834V53.2454H115.268V51.6406Z" fill="#263238"/>
<path d="M117.572 57.1504H95.6787V59.1843H117.572V57.1504Z" fill="white"/>
<path d="M115.268 63.0894H97.9834V64.6941H115.268V63.0894Z" fill="#263238"/>
<path d="M65.099 73.2881C65.099 73.2881 60.8762 81.9717 62.6396 82.6858C64.403 83.3998 70.3459 83.8001 70.3459 83.8001L72.9388 86.2811L74.4389 85.3038L74.0603 82.7795L70.6525 82.0583L66.1015 80.6447C66.0068 80.6129 65.9198 80.5619 65.8459 80.4947C65.7719 80.4276 65.7128 80.3459 65.6721 80.2547C65.6314 80.1635 65.6101 80.0648 65.6095 79.965C65.609 79.8651 65.6291 79.7663 65.6687 79.6746L67.8685 74.8496L65.099 73.2881Z" fill="#E4897B"/>
<path d="M66.3611 70.1395C66.3343 70.0587 66.2866 69.9864 66.2228 69.93C66.1591 69.8736 66.0815 69.835 65.9981 69.8181C65.9146 69.8013 65.8282 69.8068 65.7476 69.8341C65.667 69.8614 65.595 69.9095 65.5389 69.9736C65.0989 70.464 64.4571 71.4521 63.6998 73.4427L62.9316 75.4946L66.8479 78.192L68.3229 75.9454L66.3611 70.1395Z" fill="white"/>
<path opacity="0.2" d="M65.9355 72.5488L66.3647 71.9971L67.2049 72.6318L68.3228 75.9458L66.8479 78.1925L66.0978 77.6768C66.3286 75.56 65.9355 72.5488 65.9355 72.5488Z" fill="black"/>
<path d="M67.4144 77.8243L62.932 74.6689L62.6074 75.639L66.8411 78.578L67.4144 77.8243Z" fill="#407BFF"/>
<path opacity="0.5" d="M67.4144 77.8243L62.932 74.6689L62.6074 75.639L66.8411 78.578L67.4144 77.8243Z" fill="white"/>
<path d="M67.1544 137.885L65.088 144.91L62.9893 144.788L63.4328 137.164L67.1544 137.885Z" fill="#E4897B"/>
<path d="M78.0228 85.8845C78.0228 85.8845 80.5723 91.0089 78.1202 100.432C75.668 109.855 65.8592 142.685 65.8592 142.685L63.0969 142.353C63.0969 142.353 62.9238 130.572 66.8076 121.077C66.8076 121.077 68.672 104.914 67.7632 101.113C67.1286 98.4592 66.7427 96.2378 67.839 92.217C68.2675 90.4961 68.8592 88.8201 69.606 87.2116C70.3272 85.7691 70.1145 85.2246 70.1145 85.2246L78.0228 85.8845Z" fill="#407BFF"/>
<path opacity="0.5" d="M78.0228 85.8845C78.0228 85.8845 80.5723 91.0089 78.1202 100.432C75.668 109.855 65.8592 142.685 65.8592 142.685L63.0969 142.353C63.0969 142.353 62.9238 130.572 66.8076 121.077C66.8076 121.077 68.672 104.914 67.7632 101.113C67.1286 98.4592 66.7427 96.2378 67.839 92.217C68.2675 90.4961 68.8592 88.8201 69.606 87.2116C70.3272 85.7691 70.1145 85.2246 70.1145 85.2246L78.0228 85.8845Z" fill="black"/>
<path opacity="0.4" d="M74.7595 112.432C71.2182 102.588 72.1919 95.4438 72.1919 95.4438L74.4097 95.1553L76.1407 98.2349L77.3523 103.284C76.6635 105.79 75.762 108.967 74.7595 112.432Z" fill="black"/>
<path d="M65.5708 144.917C65.5577 144.913 65.5462 144.904 65.5379 144.893C65.5295 144.883 65.5246 144.869 65.5239 144.856C65.5222 144.842 65.5252 144.828 65.5324 144.816C65.5396 144.804 65.5506 144.795 65.5636 144.791C65.6104 144.773 66.6454 144.336 67.0854 144.52C67.1269 144.536 67.1649 144.561 67.1971 144.592C67.2293 144.623 67.255 144.66 67.2729 144.701C67.2985 144.745 67.3095 144.797 67.3044 144.848C67.2992 144.899 67.2781 144.947 67.244 144.985C66.9881 145.123 66.6906 145.163 66.4074 145.097C66.1239 145.061 65.844 145.001 65.5708 144.917ZM65.7943 144.852C66.2992 144.978 66.9988 145.061 67.1467 144.895C67.1683 144.874 67.1899 144.838 67.1467 144.751C67.1374 144.725 67.1221 144.702 67.102 144.683C67.082 144.664 67.0577 144.65 67.0313 144.643C66.9914 144.629 66.9503 144.618 66.9086 144.61C66.5255 144.622 66.1478 144.704 65.7943 144.852Z" fill="#407BFF"/>
<path d="M65.5354 144.906C65.5268 144.899 65.5202 144.89 65.5164 144.879C65.5126 144.868 65.5117 144.856 65.5138 144.845C65.5138 144.813 65.6869 144.073 66.0728 143.828C66.18 143.761 66.3088 143.736 66.4334 143.76C66.6101 143.799 66.657 143.897 66.6534 143.972C66.675 144.293 65.9321 144.809 65.5715 144.917H65.5463C65.5422 144.914 65.5385 144.911 65.5354 144.906ZM66.3937 143.879C66.3105 143.869 66.2263 143.888 66.1557 143.933C65.92 144.146 65.7562 144.427 65.6869 144.737C66.0475 144.575 66.5452 144.16 66.5524 143.969C66.5524 143.951 66.5524 143.904 66.4298 143.879H66.3937Z" fill="#407BFF"/>
<path d="M65.3331 144.495L62.3184 144.135C62.263 144.127 62.2067 144.139 62.1588 144.168C62.1109 144.196 62.0743 144.241 62.0551 144.293L61.2149 146.691C61.1966 146.741 61.1884 146.795 61.1909 146.848C61.1933 146.902 61.2063 146.954 61.2291 147.002C61.2519 147.05 61.2841 147.094 61.3237 147.13C61.3634 147.165 61.4097 147.193 61.4601 147.211C61.4866 147.222 61.5145 147.229 61.543 147.232C62.6249 147.344 63.6058 147.402 64.9617 147.568C66.5592 147.762 66.1301 147.903 68.0053 148.159C69.1376 148.31 69.5018 147.048 69.0294 146.926C66.8657 146.385 66.7179 145.692 65.9642 144.805C65.7998 144.627 65.5748 144.516 65.3331 144.495Z" fill="#263238"/>
<path d="M66.4726 142.172L62.6465 141.692L62.7042 142.832L66.0796 143.25L66.4726 142.172Z" fill="#263238"/>
<path opacity="0.4" d="M66.4726 142.172L62.6465 141.692L62.7042 142.832L66.0796 143.25L66.4726 142.172Z" fill="black"/>
<path d="M77.7345 138.361L76.8329 145.361H74.7125L74.168 138.491L77.7345 138.361Z" fill="#E4897B"/>
<path d="M81.3808 85.0977C81.4619 85.731 81.6344 86.3493 81.8929 86.9332C82.7547 89.1221 83.696 96.0063 83.4868 99.4899C82.9495 109.227 77.1904 143.031 77.1904 143.031H74.4209C74.4209 143.031 72.5132 131.523 74.7815 121.394C74.7815 121.394 75.5785 107.121 74.392 103.399C73.5626 100.81 71.2258 98.3034 71.8245 92.8293C72.4231 87.3551 73.8764 85.4835 73.8764 85.4835L81.3808 85.0977Z" fill="#407BFF"/>
<path opacity="0.5" d="M81.3808 85.0977C81.4619 85.731 81.6344 86.3493 81.8929 86.9332C82.7547 89.1221 83.696 96.0063 83.4868 99.4899C82.9495 109.227 77.1904 143.031 77.1904 143.031H74.4209C74.4209 143.031 72.5132 131.523 74.7815 121.394C74.7815 121.394 75.5785 107.121 74.392 103.399C73.5626 100.81 71.2258 98.3034 71.8245 92.8293C72.4231 87.3551 73.8764 85.4835 73.8764 85.4835L81.3808 85.0977Z" fill="black"/>
<path d="M69.6895 87.9647L70.2196 86.8828L70.7749 86.9585L70.454 88.0837L69.6895 87.9647Z" fill="#407BFF"/>
<path d="M77.7021 87.1355C79.2059 87.0454 80.4284 86.8903 81.2109 86.7749L81.6004 87.8892C80.3091 88.0966 79.0079 88.2374 77.7021 88.3111V87.1355Z" fill="#407BFF"/>
<path d="M71.6186 87.0415C73.3515 87.2066 75.0937 87.2536 76.8331 87.1821V88.3469C76.3282 88.3469 75.8017 88.3794 75.2536 88.3794C73.9431 88.3801 72.6335 88.3127 71.3301 88.1774L71.6186 87.0415Z" fill="#407BFF"/>
<g opacity="0.5">
<path d="M69.6895 87.9656L70.2196 86.8838L70.7749 86.9595L70.454 88.0846L69.6895 87.9656Z" fill="white"/>
<path d="M77.7021 87.1355C79.2059 87.0454 80.4284 86.8903 81.2109 86.7749L81.6004 87.8892C80.3091 88.0966 79.0079 88.2374 77.7021 88.3111V87.1355Z" fill="white"/>
<path d="M71.3301 88.1779L71.6186 87.042C73.3515 87.2071 75.0937 87.2541 76.8331 87.1826V88.3474C76.3282 88.3474 75.8017 88.3799 75.2536 88.3799" fill="white"/>
</g>
<path d="M77.7743 145.296C77.7605 145.294 77.7476 145.288 77.7378 145.278C77.7279 145.268 77.7217 145.255 77.7202 145.242C77.7174 145.229 77.7187 145.215 77.7238 145.203C77.729 145.191 77.7378 145.18 77.749 145.173C77.7923 145.148 78.7516 144.574 79.2204 144.693C79.3064 144.716 79.3809 144.77 79.4295 144.845C79.4595 144.887 79.4756 144.937 79.4756 144.989C79.4756 145.041 79.4595 145.091 79.4295 145.133C79.1948 145.306 78.9048 145.387 78.6145 145.361C78.3331 145.364 78.0519 145.342 77.7743 145.296ZM77.987 145.206C78.5063 145.26 79.2059 145.242 79.3321 145.058C79.3321 145.036 79.3682 144.996 79.3321 144.913C79.3182 144.889 79.2989 144.869 79.2758 144.853C79.2527 144.837 79.2263 144.827 79.1987 144.823C79.1568 144.818 79.1144 144.818 79.0725 144.823C78.6874 144.88 78.3166 145.01 77.9798 145.206H77.987Z" fill="#407BFF"/>
<path d="M77.7309 145.292C77.7205 145.286 77.7121 145.278 77.7069 145.268C77.7017 145.257 77.7 145.245 77.702 145.234C77.702 145.198 77.7633 144.448 78.1131 144.152C78.2129 144.066 78.3425 144.023 78.4737 144.033C78.6576 144.033 78.7153 144.138 78.7225 144.213C78.7875 144.527 78.1311 145.14 77.7994 145.295C77.7954 145.297 77.7911 145.298 77.7867 145.298C77.7824 145.298 77.7781 145.297 77.7741 145.295C77.7597 145.298 77.7446 145.297 77.7309 145.292ZM78.4521 144.156C78.3681 144.155 78.2869 144.186 78.2249 144.242C78.019 144.484 77.8931 144.784 77.8643 145.1C78.2033 144.891 78.636 144.412 78.6144 144.224C78.6144 144.206 78.6144 144.159 78.4809 144.152L78.4521 144.156Z" fill="#407BFF"/>
<path d="M77.4756 144.91L74.4356 144.968C74.3799 144.968 74.326 144.987 74.2831 145.023C74.2403 145.058 74.2113 145.108 74.2012 145.163L73.6963 147.647C73.6853 147.699 73.6846 147.753 73.6944 147.806C73.7042 147.858 73.7242 147.908 73.7534 147.952C73.7825 147.997 73.8202 148.035 73.8643 148.065C73.9083 148.095 73.9579 148.116 74.0101 148.127H74.0966C75.1785 148.087 76.1666 148.008 77.5297 147.986C79.138 147.957 78.7341 148.156 80.6274 148.149C81.7669 148.149 81.9508 146.843 81.4676 146.789C79.2498 146.551 79.0082 145.887 78.1391 145.109C77.9487 144.965 77.7133 144.895 77.4756 144.91Z" fill="#263238"/>
<path d="M74.2585 57.9C74.1936 57.6801 74.2585 57.4637 74.4064 57.424C74.5542 57.3844 74.7201 57.5286 74.785 57.7522C74.8499 57.9758 74.785 58.1885 74.6372 58.2282C74.4893 58.2679 74.3198 58.1236 74.2585 57.9Z" fill="#263238"/>
<path d="M74.2334 58.2393L75.9355 59.3211C75.8066 59.5194 75.6332 59.6849 75.4291 59.8044C75.225 59.924 74.9959 59.9943 74.7599 60.0099L74.2334 58.2393Z" fill="#DE5753"/>
<path d="M73.7171 57.4894C73.7382 57.4826 73.7574 57.4708 73.773 57.4552C73.7887 57.4395 73.8004 57.4204 73.8073 57.3993C73.8533 57.2353 73.9374 57.0846 74.0527 56.9592C74.168 56.8339 74.3113 56.7376 74.4708 56.6781C74.4876 56.6731 74.5033 56.6649 74.517 56.6538C74.5306 56.6428 74.5419 56.6292 74.5503 56.6138C74.5587 56.5984 74.5639 56.5815 74.5658 56.5641C74.5676 56.5466 74.566 56.529 74.561 56.5122C74.5517 56.4774 74.529 56.4477 74.498 56.4295C74.467 56.4113 74.43 56.406 74.3951 56.4148C74.1924 56.4871 74.0099 56.6065 73.8625 56.7633C73.7152 56.92 73.6072 57.1096 73.5476 57.3164C73.536 57.3494 73.5378 57.3856 73.5526 57.4173C73.5675 57.449 73.5942 57.4736 73.627 57.4858C73.6409 57.4929 73.6561 57.4969 73.6717 57.4975C73.6872 57.4981 73.7027 57.4954 73.7171 57.4894Z" fill="#263238"/>
<path d="M66.6383 60.3242C67.7779 63.018 68.2034 64.1827 70.093 65.1059C72.7291 65.7947 76.0035 64.5037 75.6862 61.5178C75.4049 58.8348 73.591 54.8897 70.5005 54.731C69.8201 54.6955 69.1419 54.8348 68.5306 55.1356C67.9192 55.4364 67.395 55.8886 67.0079 56.4493C66.6207 57.0099 66.3835 57.6604 66.3188 58.3386C66.2541 59.0169 66.3641 59.7004 66.6383 60.3242Z" fill="#E4897B"/>
<path opacity="0.2" d="M72.9167 63.84C72.9167 63.84 74.8749 64.2367 75.6502 62.5273C75.387 63.9013 74.2438 64.774 72.8699 65.1202L72.3975 64.7884L72.6535 64.0924L72.9167 63.84Z" fill="black"/>
<path d="M69.3545 68.3116C69.3545 68.3116 71.0494 67.4822 69.8269 64.2511C69.8269 64.2511 71.1792 62.9096 72.5856 63.4793C73.992 64.0491 72.8092 67.0242 74.4644 67.4822C74.4644 67.4822 73.6026 68.6758 69.3545 68.3116Z" fill="#E4897B"/>
<path d="M72.6649 59.6313C72.2304 59.2099 71.8379 58.7474 71.4929 58.2502C70.9195 57.4244 72.2574 56.4651 72.0302 54.9361C71.803 53.4071 70.2271 54.3375 70.2271 54.3375C70.2271 54.3375 66.4046 53.9047 65.8997 57.8751C65.4053 58.6423 65.1456 59.5371 65.1525 60.4497C65.1593 61.3623 65.4324 62.2531 65.9382 63.0127C66.444 63.7724 67.1605 64.3679 67.9999 64.7262C68.8393 65.0845 69.765 65.19 70.6634 65.0298L70.9159 64.9721C71.4141 64.8101 71.8484 64.4948 72.1567 64.0713C72.465 63.6477 72.6315 63.1375 72.6324 62.6136L72.6649 59.6313Z" fill="#263238"/>
<path d="M70.2019 65.0845C70.2019 65.0845 69.1994 65.4198 69.5889 65.8237C69.9784 66.2276 70.2019 65.0845 70.2019 65.0845Z" fill="#263238"/>
<path d="M66.8987 58.7806C66.8374 57.8755 66.603 57.1542 65.6978 57.2156C64.7927 57.2769 64.7386 58.0233 64.7999 58.9285C64.8612 59.8336 65.0235 60.5585 65.9286 60.4936C66.8337 60.4286 66.9564 59.6858 66.8987 58.7806Z" fill="#407BFF"/>
<path d="M71.8571 59.4578C72.132 59.5676 72.3822 59.7309 72.5933 59.9383C72.8044 60.1457 72.9722 60.393 73.0869 60.6659C73.3898 61.3871 72.7587 61.8667 72.005 61.7477C71.3343 61.6431 70.375 61.1311 70.3858 60.3521C70.3884 60.1801 70.4346 60.0116 70.5201 59.8623C70.6055 59.713 70.7275 59.5879 70.8744 59.4985C71.0214 59.4092 71.1887 59.3586 71.3605 59.3515C71.5324 59.3443 71.7033 59.3809 71.8571 59.4578Z" fill="#E4897B"/>
<path d="M62.3764 59.0983C62.4226 59.7412 62.7219 60.3395 63.2087 60.7621C63.6954 61.1846 64.3299 61.3968 64.9729 61.3522C66.3144 61.2584 66.3937 60.1622 66.2999 58.8279C66.2062 57.4936 65.9718 56.4153 64.6339 56.5091C63.9917 56.5544 63.3936 56.8523 62.9705 57.3376C62.5474 57.8228 62.3338 58.4559 62.3764 59.0983Z" fill="#263238"/>
<path d="M71.5898 53.7759C71.3374 54.1365 71.085 54.6594 71.359 55.0236C71.5141 55.2328 71.7954 55.3049 71.9829 55.4888C72.1702 55.7115 72.2815 55.9882 72.3002 56.2786C72.4738 57.3166 72.563 58.3671 72.5671 59.4195C73.2883 58.1718 74.06 56.852 74.0889 55.4059C74.1103 54.9739 74.0222 54.5434 73.8328 54.1545C73.7347 53.9622 73.5936 53.7951 73.4203 53.6662C73.2471 53.5374 73.0464 53.4503 72.8339 53.4117C72.4084 53.354 71.5898 53.7759 71.5898 53.7759Z" fill="#263238"/>
<path d="M75.5424 67.652C75.5424 67.652 75.7083 65.5893 71.7127 66.4223C67.7171 67.2553 70.4 68.4021 70.4 68.4021L75.5424 67.652Z" fill="#407BFF"/>
<path opacity="0.5" d="M75.5424 67.652C75.5424 67.652 75.7083 65.5893 71.7127 66.4223C67.7171 67.2553 70.4 68.4021 70.4 68.4021L75.5424 67.652Z" fill="white"/>
<path d="M81.3127 85.8379C76.841 86.707 71.7131 86.35 69.8342 86.1733C69.4087 86.13 70.1949 81.1246 65.6799 72.0551C65.4565 71.6393 65.3808 71.1598 65.4653 70.6954C65.5498 70.2309 65.7895 69.8089 66.1451 69.4984C69.2176 66.956 74.7999 67.0534 77.3603 67.2589C77.8072 67.2903 78.2408 67.4244 78.6274 67.6509C79.0139 67.8773 79.343 68.1899 79.5889 68.5644C80.4802 70.0742 81.0808 71.7377 81.3596 73.4687C81.6611 75.1152 81.8335 76.7827 81.8752 78.4561C81.9942 82.4156 81.5146 85.7982 81.3127 85.8379Z" fill="white"/>
<path opacity="0.2" d="M81.8744 78.4555C80.4319 78.1814 78.4053 72.8623 78.4053 72.8623L81.3587 73.4681C81.6602 75.1146 81.8326 76.7821 81.8744 78.4555Z" fill="black"/>
<path d="M81.0204 70.0206L85.3118 72.7577C85.3886 72.8071 85.4747 72.8402 85.5649 72.855C85.655 72.8698 85.7472 72.8659 85.8358 72.8436C85.9244 72.8213 86.0074 72.781 86.0798 72.7253C86.1522 72.6696 86.2124 72.5996 86.2566 72.5197L89.7401 66.2738L91.0023 63.0282L91.3629 62.6352L93.5266 60.8032H94.356L92.7477 62.2457L93.1948 63.0102L93.9161 64.651L91.0492 67.1753C91.0492 67.1753 89.3831 74.6653 87.5981 76.2629C86.1808 77.5322 79.0479 72.4908 79.0479 72.4908L81.0204 70.0206Z" fill="#E4897B"/>
<path d="M78.0596 67.4095C79.1739 67.7484 81.6261 68.8519 85.4703 72.4797L82.643 76.2662C81.7231 76.0615 80.8625 75.648 80.1278 75.0577C79.3931 74.4675 78.8039 73.7162 78.4058 72.862C77.6748 71.3276 77.3048 69.6463 77.324 67.9468C77.3252 67.8584 77.3469 67.7716 77.3874 67.6931C77.428 67.6145 77.4863 67.5465 77.5576 67.4944C77.629 67.4423 77.7115 67.4075 77.7986 67.3928C77.8857 67.378 77.9751 67.3837 78.0596 67.4095Z" fill="white"/>
<path d="M85.0268 71.708L81.8281 76.3275L82.8992 76.5511L85.9175 72.4292L85.0268 71.708Z" fill="#407BFF"/>
<path opacity="0.5" d="M85.0268 71.708L81.8281 76.3275L82.8992 76.5511L85.9175 72.4292L85.0268 71.708Z" fill="white"/>
<path d="M77.7346 142.443H73.876L74.0887 143.565H77.493L77.7346 142.443Z" fill="#263238"/>
<path opacity="0.4" d="M77.7346 142.443H73.876L74.0887 143.565H77.493L77.7346 142.443Z" fill="black"/>
</g>
<defs>
<clipPath id="clip0_85_2741">
<rect width="180.308" height="180.308" fill="white" transform="translate(0.962891 0.64209)"/>
</clipPath>
</defs>
</svg>
