<svg width="728" height="951" viewBox="0 0 728 951" fill="none" xmlns="http://www.w3.org/2000/svg">
<rect width="728" height="951" fill="#30585A"/>
<path d="M483.574 435.904C503.836 417.683 518.892 392.796 530.257 368.664C547.141 332.813 556.128 288.082 532.561 253.224C518.965 233.118 497.727 220.424 474.152 215.644C451.471 211.052 429.413 212.044 409.905 197.669C390.176 183.114 373.005 164.959 355.343 148.059C309.931 104.599 227.423 117.063 189.104 175.578C150.785 234.094 161.224 310.108 198.124 345.368C231.26 377.044 277.492 383.235 314.08 407.999C332.21 420.299 344.888 438.397 364.1 449.196C386.445 461.75 413.841 466.9 439.015 460.487C456.153 456.117 470.881 447.318 483.574 435.904Z" fill="#407BFF"/>
<path opacity="0.7" d="M483.574 435.904C503.836 417.683 518.892 392.796 530.257 368.664C547.141 332.813 556.128 288.082 532.561 253.224C518.965 233.118 497.727 220.424 474.152 215.644C451.471 211.052 429.413 212.044 409.905 197.669C390.176 183.114 373.005 164.959 355.343 148.059C309.931 104.599 227.423 117.063 189.104 175.578C150.785 234.094 161.224 310.108 198.124 345.368C231.26 377.044 277.492 383.235 314.08 407.999C332.21 420.299 344.888 438.397 364.1 449.196C386.445 461.75 413.841 466.9 439.015 460.487C456.153 456.117 470.881 447.318 483.574 435.904Z" fill="white"/>
<path d="M521.343 445.957L518.17 416.166" stroke="#263238" stroke-width="0.867092" stroke-linecap="round" stroke-linejoin="round"/>
<path d="M518.153 417.003C518.153 417.003 512.454 412.567 512.454 402.423C512.454 392.28 520.056 384.047 520.056 384.047C520.056 384.047 528.297 394.19 526.394 404.326C524.492 414.461 518.153 417.003 518.153 417.003Z" fill="#407BFF" stroke="#263238" stroke-width="0.867092" stroke-linecap="round" stroke-linejoin="round"/>
<path d="M518.17 416.166L519.621 393.78" stroke="#263238" stroke-width="0.867092" stroke-linecap="round" stroke-linejoin="round"/>
<path d="M524.271 443.759C527.037 436.629 530.414 429.751 534.365 423.202" stroke="#263238" stroke-width="0.867092" stroke-linecap="round" stroke-linejoin="round"/>
<path d="M531.38 428.589C531.38 428.589 528.215 422.087 532.692 413.009C537.169 403.932 547.632 399.889 547.632 399.889C547.632 399.889 550.543 412.624 544.352 420.881C538.161 429.139 531.38 428.589 531.38 428.589Z" fill="#407BFF" stroke="#263238" stroke-width="0.867092" stroke-linecap="round" stroke-linejoin="round"/>
<path d="M531.38 428.589L542.917 409.623" stroke="#263238" stroke-width="0.867092" stroke-linecap="round" stroke-linejoin="round"/>
<path d="M516.202 446.416C514.482 440.689 512.145 435.165 509.232 429.942L504.795 422.3" stroke="#263238" stroke-width="0.867092" stroke-linecap="round" stroke-linejoin="round"/>
<path d="M508.363 428.212C504.862 429.287 501.146 429.459 497.562 428.71C493.977 427.962 490.64 426.318 487.863 423.932C478.023 415.666 478.572 398.799 478.572 398.799C478.572 398.799 497.645 396.076 505.345 406.884C507.577 409.91 509.022 413.444 509.548 417.167C510.075 420.89 509.668 424.686 508.363 428.212Z" fill="#407BFF" stroke="#263238" stroke-width="0.867092" stroke-linecap="round" stroke-linejoin="round"/>
<path d="M508.363 428.212L485.755 404.654" stroke="#263238" stroke-width="0.867092" stroke-linecap="round" stroke-linejoin="round"/>
<path d="M531.773 439.577H507.641V463.243H531.773V439.577Z" fill="#263238" stroke="#263238" stroke-width="0.867092" stroke-linecap="round" stroke-linejoin="round"/>
<path d="M491.454 105.78H330.029V241.777H491.454V105.78Z" fill="white" stroke="#263238" stroke-width="0.867092" stroke-linecap="round" stroke-linejoin="round"/>
<path d="M363.534 182.237H362.222L362.001 180.744H360.41L360.18 182.237H358.991L360.311 173.979H362.214L363.534 182.237ZM360.574 179.621H361.82L361.197 175.439L360.574 179.621Z" fill="#263238"/>
<path d="M365.371 173.979V180.351C365.371 180.941 365.633 181.171 366.043 181.171C366.453 181.171 366.724 180.958 366.724 180.351V173.979H367.946V180.269C367.946 181.589 367.29 182.343 366.01 182.343C364.731 182.343 364.075 181.589 364.075 180.269V173.979H365.371Z" fill="#263238"/>
<path d="M368.454 173.979H372.464V175.16H371.111V182.237H369.84V175.16H368.487L368.454 173.979Z" fill="#263238"/>
<path d="M374.334 182.237H373.03V173.979H374.334V177.522H375.801V173.979H377.13V182.237H375.801V178.703H374.334V182.237Z" fill="#263238"/>
<path d="M379.368 177.456H381.148V178.637H379.368V181.097H381.607V182.278H378.04V173.979H381.574V175.16H379.335L379.368 177.456Z" fill="#263238"/>
<path d="M383.567 176.3V182.278H382.402V173.979H384.042L385.379 178.899V173.979H386.535V182.237H385.199L383.567 176.3Z" fill="#263238"/>
<path d="M387.06 173.979H391.078V175.16H389.717V182.237H388.421V175.16H387.06V173.979Z" fill="#263238"/>
<path d="M391.652 173.979H392.947V182.237H391.652V173.979Z" fill="#263238"/>
<path d="M397.654 179.162V180.261C397.654 181.581 396.998 182.335 395.719 182.335C394.44 182.335 393.784 181.581 393.784 180.261V175.964C393.784 174.635 394.448 173.881 395.719 173.881C396.99 173.881 397.654 174.635 397.654 175.964V176.784H396.433V175.898C396.433 175.308 396.17 175.078 395.76 175.078C395.35 175.078 395.088 175.308 395.088 175.898V180.359C395.088 180.949 395.342 181.179 395.76 181.179C396.178 181.179 396.433 180.974 396.433 180.359V179.178L397.654 179.162Z" fill="#263238"/>
<path d="M402.64 182.237H401.328L401.106 180.744H399.524L399.294 182.237H398.105L399.425 173.979H401.328L402.64 182.237ZM399.68 179.621H400.926L400.303 175.439L399.68 179.621Z" fill="#263238"/>
<path d="M402.418 173.979H406.436V175.16H405.1V182.237H403.804V175.16H402.443L402.418 173.979Z" fill="#263238"/>
<path d="M408.298 177.456H410.077V178.637H408.298V181.097H410.545V182.278H407.002V173.979H410.545V175.16H408.298V177.456Z" fill="#263238"/>
<path d="M414.39 179.498L412.75 173.979H414.12L415.112 177.743L416.104 173.979H417.342L415.702 179.498V182.237H414.407L414.39 179.498Z" fill="#263238"/>
<path d="M417.564 175.964C417.564 175.442 417.771 174.941 418.14 174.572C418.509 174.203 419.01 173.996 419.532 173.996C420.054 173.996 420.554 174.203 420.924 174.572C421.293 174.941 421.5 175.442 421.5 175.964V180.261C421.5 180.783 421.293 181.283 420.924 181.652C420.554 182.021 420.054 182.229 419.532 182.229C419.01 182.229 418.509 182.021 418.14 181.652C417.771 181.283 417.564 180.783 417.564 180.261V175.964ZM418.86 180.343C418.86 180.933 419.122 181.163 419.532 181.163C419.942 181.163 420.204 180.941 420.204 180.343V175.882C420.204 175.291 419.942 175.062 419.532 175.062C419.122 175.062 418.86 175.291 418.86 175.882V180.343Z" fill="#263238"/>
<path d="M423.574 173.979V180.351C423.574 180.941 423.837 181.171 424.247 181.171C424.657 181.171 424.919 180.958 424.919 180.351V173.979H426.149V180.269C426.149 181.589 425.493 182.343 424.214 182.343C422.935 182.343 422.279 181.589 422.279 180.269V173.979H423.574Z" fill="#263238"/>
<path d="M429.749 182.237C429.64 181.91 429.601 181.563 429.634 181.22V179.924C429.634 179.162 429.372 178.875 428.814 178.875H428.363V182.237H427.068V173.979H429.027C430.372 173.979 430.946 174.603 430.946 175.882V176.53C430.988 176.854 430.933 177.183 430.787 177.475C430.641 177.767 430.411 178.009 430.126 178.17C430.774 178.44 430.987 179.063 430.987 179.924V181.22C430.962 181.56 431.009 181.901 431.127 182.22L429.749 182.237ZM428.33 175.16V177.694H428.88C429.364 177.694 429.659 177.481 429.659 176.825V176.005C429.659 175.414 429.462 175.185 429.003 175.185L428.33 175.16Z" fill="#263238"/>
<path d="M437.81 182.237H436.498L436.276 180.744H434.677L434.456 182.237H433.267L434.62 173.979H436.522L437.81 182.237ZM434.849 179.621H436.096L435.44 175.48L434.849 179.621Z" fill="#263238"/>
<path d="M442.164 179.162V180.261C442.164 181.581 441.5 182.335 440.229 182.335C438.958 182.335 438.293 181.581 438.293 180.261V175.964C438.293 174.635 438.949 173.881 440.229 173.881C441.508 173.881 442.164 174.635 442.164 175.964V176.784H440.934V175.898C440.934 175.308 440.671 175.078 440.261 175.078C439.851 175.078 439.589 175.308 439.589 175.898V180.359C439.589 180.949 439.851 181.179 440.261 181.179C440.671 181.179 440.934 180.974 440.934 180.359V179.178L442.164 179.162Z" fill="#263238"/>
<path d="M446.715 179.162V180.261C446.715 181.581 446.059 182.335 444.78 182.335C443.5 182.335 442.844 181.581 442.844 180.261V175.964C442.844 174.635 443.509 173.881 444.78 173.881C446.051 173.881 446.715 174.635 446.715 175.964V176.784H445.485V175.898C445.485 175.308 445.231 175.078 444.812 175.078C444.394 175.078 444.14 175.308 444.14 175.898V180.359C444.14 180.949 444.402 181.179 444.812 181.179C445.222 181.179 445.485 180.974 445.485 180.359V179.178L446.715 179.162Z" fill="#263238"/>
<path d="M447.395 175.964C447.378 175.694 447.416 175.424 447.507 175.169C447.599 174.915 447.741 174.682 447.926 174.485C448.111 174.288 448.334 174.131 448.582 174.023C448.83 173.916 449.097 173.86 449.368 173.86C449.638 173.86 449.905 173.916 450.153 174.023C450.401 174.131 450.624 174.288 450.809 174.485C450.994 174.682 451.137 174.915 451.228 175.169C451.319 175.424 451.357 175.694 451.34 175.964V180.261C451.357 180.53 451.319 180.801 451.228 181.055C451.137 181.309 450.994 181.542 450.809 181.739C450.624 181.937 450.401 182.094 450.153 182.201C449.905 182.309 449.638 182.364 449.368 182.364C449.097 182.364 448.83 182.309 448.582 182.201C448.334 182.094 448.111 181.937 447.926 181.739C447.741 181.542 447.599 181.309 447.507 181.055C447.416 180.801 447.378 180.53 447.395 180.261V175.964ZM448.699 180.343C448.699 180.933 448.953 181.163 449.372 181.163C449.79 181.163 450.044 180.941 450.044 180.343V175.882C450.044 175.291 449.782 175.062 449.372 175.062C448.962 175.062 448.699 175.291 448.699 175.882V180.343Z" fill="#263238"/>
<path d="M453.414 173.979V180.351C453.414 180.941 453.677 181.171 454.087 181.171C454.497 181.171 454.759 180.958 454.759 180.351V173.979H455.989V180.269C455.989 181.589 455.333 182.343 454.054 182.343C452.775 182.343 452.119 181.589 452.119 180.269V173.979H453.414Z" fill="#263238"/>
<path d="M458.031 176.3V182.278H456.866V173.979H458.506L459.843 178.899V173.979H460.999V182.237H459.663L458.031 176.3Z" fill="#263238"/>
<path d="M461.532 173.979H465.55V175.16H464.189V182.237H462.893V175.16H461.532V173.979Z" fill="#263238"/>
<path d="M429.778 148.655C431.404 138.559 424.538 129.057 414.442 127.431C404.347 125.805 394.844 132.671 393.218 142.766C391.592 152.862 398.458 162.365 408.554 163.991C418.649 165.617 428.152 158.751 429.778 148.655Z" fill="#407BFF"/>
<path d="M419.573 141.442C419.573 143.039 419.099 144.601 418.212 145.929C417.324 147.257 416.063 148.293 414.587 148.904C413.111 149.515 411.487 149.675 409.92 149.364C408.353 149.052 406.914 148.283 405.785 147.153C404.655 146.024 403.886 144.584 403.574 143.018C403.262 141.451 403.422 139.827 404.034 138.351C404.645 136.875 405.68 135.614 407.009 134.726C408.337 133.839 409.898 133.365 411.496 133.365C413.638 133.365 415.693 134.216 417.207 135.731C418.722 137.245 419.573 139.3 419.573 141.442Z" fill="#263238"/>
<path d="M398.204 158.588C399.928 160.37 401.994 161.787 404.278 162.755C406.561 163.722 409.016 164.221 411.496 164.221C413.976 164.221 416.431 163.722 418.714 162.755C420.998 161.787 423.063 160.37 424.788 158.588V158.055C424.789 157.12 424.606 156.193 424.249 155.329C423.891 154.464 423.367 153.679 422.706 153.017C422.045 152.355 421.26 151.83 420.396 151.472C419.532 151.114 418.606 150.929 417.67 150.929H405.329C403.44 150.929 401.627 151.68 400.291 153.016C398.954 154.353 398.204 156.165 398.204 158.055V158.588Z" fill="#263238"/>
<path d="M466.985 197.12H355.285V210.699H466.985V197.12Z" stroke="#263238" stroke-width="0.867092" stroke-miterlimit="10"/>
<path d="M466.985 217.48H355.285V231.06H466.985V217.48Z" fill="#407BFF" stroke="#263238" stroke-width="0.867092" stroke-miterlimit="10"/>
<path d="M392.751 204.295V205.115H390.733V208.05H393.193V208.87H389.799V200.638H393.193V201.458H390.733V204.278L392.751 204.295Z" fill="#BDBDBD"/>
<path d="M394.874 208.903H394.054V200.638H395.26L397.17 206.607V200.638H397.99V208.903H397.031L394.915 202.22L394.874 208.903Z" fill="#BDBDBD"/>
<path d="M400.09 208.903V201.474H398.54V200.654H402.509V201.474H401V208.903H400.09Z" fill="#BDBDBD"/>
<path d="M406.108 204.295V205.115H404.091V208.05H406.551V208.87H403.156V200.638H406.551V201.458H404.091V204.278L406.108 204.295Z" fill="#BDBDBD"/>
<path d="M409.257 200.638C410.561 200.638 411.102 201.302 411.102 202.524V203.196C411.159 203.555 411.087 203.923 410.9 204.235C410.712 204.547 410.421 204.783 410.077 204.902C410.832 205.123 411.11 205.722 411.11 206.624V207.911C411.086 208.25 411.143 208.59 411.274 208.903H410.348C410.217 208.584 410.163 208.238 410.192 207.895V206.64C410.192 205.705 409.757 205.41 408.987 205.41H408.38V208.944H407.461V200.638H409.257ZM409.028 204.533C409.757 204.533 410.192 204.295 410.192 203.401V202.581C410.192 201.843 409.921 201.449 409.233 201.449H408.38V204.508L409.028 204.533Z" fill="#BDBDBD"/>
<path d="M417.547 202.63V203.36H416.67V202.54C416.67 201.794 416.375 201.343 415.702 201.343C415.03 201.343 414.735 201.794 414.735 202.54V206.902C414.735 207.649 415.038 208.1 415.702 208.1C416.367 208.1 416.67 207.649 416.67 206.902V205.828H417.547V206.853C417.547 208.108 416.949 208.936 415.678 208.936C414.407 208.936 413.825 208.116 413.825 206.853V202.581C413.825 201.335 414.415 200.506 415.678 200.506C416.941 200.506 417.547 201.384 417.547 202.63Z" fill="#BDBDBD"/>
<path d="M418.31 202.63C418.31 201.367 418.933 200.556 420.196 200.556C421.459 200.556 422.098 201.376 422.098 202.63V206.902C422.098 208.157 421.475 208.985 420.196 208.985C418.917 208.985 418.31 208.165 418.31 206.902V202.63ZM419.22 206.952C419.22 207.706 419.54 208.149 420.196 208.149C420.852 208.149 421.18 207.706 421.18 206.952V202.589C421.18 201.843 420.868 201.392 420.196 201.392C419.524 201.392 419.22 201.843 419.22 202.589V206.952Z" fill="#BDBDBD"/>
<path d="M424.903 200.638C426.19 200.638 426.781 201.417 426.781 202.696V206.861C426.781 208.124 426.19 208.903 424.903 208.903H422.968V200.638H424.903ZM424.903 208.018C425.559 208.018 425.879 207.608 425.879 206.853V202.606C425.879 201.851 425.559 201.433 424.887 201.433H423.894V207.993L424.903 208.018Z" fill="#BDBDBD"/>
<path d="M430.577 204.295V205.115H428.56V208.05H431.02V208.87H427.617V200.638H431.02V201.458H428.56V204.278L430.577 204.295Z" fill="#BDBDBD"/>
<path d="M403.624 221.072C404.903 221.072 405.493 221.892 405.493 223.13V227.296C405.493 228.559 404.903 229.338 403.624 229.338H401.68V221.072H403.624ZM403.624 228.501C404.288 228.501 404.608 228.083 404.608 227.329V223.081C404.608 222.327 404.288 221.917 403.616 221.917H402.64V228.477L403.624 228.501Z" fill="#263238"/>
<path d="M406.289 223.04C406.289 221.777 406.912 220.957 408.175 220.957C409.438 220.957 410.077 221.777 410.077 223.04V227.312C410.115 227.579 410.094 227.85 410.014 228.108C409.934 228.365 409.799 228.601 409.617 228.8C409.435 228.998 409.211 229.154 408.962 229.255C408.712 229.357 408.444 229.402 408.175 229.387C406.912 229.387 406.289 228.567 406.289 227.312V223.04ZM407.191 227.361C407.191 228.116 407.511 228.55 408.175 228.55C408.839 228.55 409.151 228.116 409.151 227.361V223.04C409.151 222.294 408.847 221.843 408.175 221.843C407.502 221.843 407.191 222.294 407.191 223.04V227.361Z" fill="#263238"/>
<path d="M411.758 229.338H410.938V221.072H412.103L414.013 227.05V221.072H414.833V229.338H413.874L411.758 222.655V229.338Z" fill="#263238"/>
<path d="M418.712 224.737V225.557H416.695V228.501H419.155V229.321H415.76V221.072H419.163V221.892H416.703V224.713L418.712 224.737Z" fill="#263238"/>
<path d="M491.454 105.78H330.029V112.356H491.454V105.78Z" fill="#407BFF" stroke="#263238" stroke-width="0.867092" stroke-linecap="round" stroke-linejoin="round"/>
<path d="M222.01 315.921V314.708" stroke="#263238" stroke-width="0.867092" stroke-linecap="round" stroke-linejoin="round"/>
<path d="M222.01 312.305V208.337C222.01 206.237 222.424 204.157 223.228 202.216C224.032 200.276 225.211 198.513 226.697 197.028C228.182 195.543 229.946 194.365 231.887 193.562C233.828 192.759 235.908 192.346 238.008 192.347H314.08" stroke="#263238" stroke-width="0.867092" stroke-linecap="round" stroke-linejoin="round" stroke-dasharray="2.58 2.58"/>
<path d="M315.318 192.347H316.523" stroke="#263238" stroke-width="0.867092" stroke-linecap="round" stroke-linejoin="round"/>
<path d="M324.519 193.012L311.448 185.459V200.556L324.519 193.012Z" fill="#263238"/>
<path d="M449.298 417.183H450.511" stroke="#263238" stroke-width="0.867092" stroke-linecap="round" stroke-linejoin="round"/>
<path d="M452.914 417.183H457.399C461.655 417.183 465.737 415.492 468.747 412.483C471.756 409.474 473.447 405.392 473.447 401.136V249.436" stroke="#263238" stroke-width="0.867092" stroke-linecap="round" stroke-linejoin="round" stroke-dasharray="2.58 2.58"/>
<path d="M473.447 248.239V247.033" stroke="#263238" stroke-width="0.867092" stroke-linecap="round" stroke-linejoin="round"/>
<path d="M444.722 416.478L457.793 424.022V408.926L444.722 416.478Z" fill="#263238"/>
<path d="M376.228 318.045C376.925 316.718 377.972 315.608 379.256 314.834C380.54 314.061 382.011 313.654 383.51 313.658H453.661C453.661 313.658 458.728 313.658 457.211 323.293C455.694 332.928 434.899 391.755 429.823 409.5C424.747 427.245 423.739 464.776 423.739 464.776H339.558C339.558 464.776 346.306 375.175 376.228 318.045Z" fill="white" stroke="#263238" stroke-width="0.867092" stroke-linecap="round" stroke-linejoin="round"/>
<path d="M441.492 330.394C434.399 346.942 419.352 412.394 416.957 464.776H423.739C423.739 464.776 424.78 427.22 429.823 409.5C434.866 391.78 455.686 332.928 457.211 323.293C458.736 313.658 453.66 313.658 453.66 313.658C453.66 313.658 447.174 317.127 441.492 330.394Z" fill="#263238" stroke="#263238" stroke-width="0.867092" stroke-linecap="round" stroke-linejoin="round"/>
<path d="M308.094 314.987C308.094 314.987 295.22 313.42 286.717 304.482C278.213 295.544 305.199 263.671 319.607 256.16C334.014 248.649 339.951 250.707 355.4 262.097C370.849 273.486 385.928 291.764 385.74 304.023C385.551 316.282 378.876 322.145 388.2 328.189C397.523 334.232 423.911 351.395 427.765 363.186C431.619 374.978 424.936 389.648 409.462 397.626C393.989 405.605 368.602 405.236 344.149 397.331C319.697 389.426 314.375 364.416 317.524 354.24C320.673 344.064 329.004 337.069 326.495 329.328C323.986 321.588 308.094 314.987 308.094 314.987Z" fill="#263238" stroke="#263238" stroke-width="0.867092" stroke-linecap="round" stroke-linejoin="round"/>
<path d="M319.132 350.14C319.132 350.14 305.815 348.287 299.665 352.264C293.515 356.241 263.126 408.18 263.126 408.18L246.34 385.589L231.785 392.124C231.785 392.124 238.608 418.528 246.545 431.664C254.483 444.801 259.009 446.129 261.732 445.695C269.833 444.407 293.302 417.257 293.302 417.257L301.83 445.629L296.04 466.252H403.87L390.791 444.44C390.791 444.44 407.856 365.72 403.51 357.381C399.164 349.041 373.842 350.14 365.88 350.14H343.084C339.629 350.825 336.118 351.187 332.596 351.222C328.092 351.091 323.598 350.73 319.132 350.14Z" fill="#407BFF"/>
<path d="M391.16 352.797L391.381 352.887L389.315 358.151L389.085 358.061L391.16 352.797ZM390.594 358.652L390.815 358.742L392.89 353.477L392.66 353.387L390.594 358.652ZM399.999 375.404L399.762 375.339L398.851 378.578H399.106L399.999 375.404ZM401.557 375.847L401.32 375.781L400.5 378.578H400.746L401.557 375.847ZM391.717 376.027L392.488 378.578H392.742L391.922 375.954L391.717 376.027ZM393.505 375.494L393.267 375.56L394.177 378.578H394.432L393.505 375.494ZM400.106 363.449L402.919 358.529L402.714 358.406L399.901 363.326L400.106 363.449ZM401.516 364.269L404.149 359.668C404.149 359.529 404.149 359.406 404.099 359.275L401.303 364.154L401.516 364.269ZM403.361 371.263L403.829 370.648L403.878 370.197L403.165 371.116L403.361 371.263ZM396.4 366.269L400.319 370.369L400.491 370.205L396.572 366.105L396.4 366.269ZM395.161 367.36L399.073 371.46L399.253 371.296L395.334 367.196L395.161 367.36ZM390.84 367.36L390.906 367.122L387.88 366.376V366.622L390.84 367.36ZM387.839 364.9L391.242 365.761L391.299 365.523L387.88 364.703L387.839 364.9ZM391.635 372.223L391.562 371.993L387.88 373.272V373.526L391.635 372.223ZM391.053 370.451L387.839 371.517V371.772L391.119 370.681L391.053 370.451ZM389.274 416.265L391.34 411L391.119 410.91L389.044 416.175L389.274 416.265ZM392.619 411.501L390.553 416.765L390.774 416.855L392.849 411.591L392.619 411.501ZM392.513 436.183L391.881 434.075L391.644 434.141L392.414 436.683L392.513 436.183ZM396.613 400.775L396.383 400.857L398.302 406.179H398.351L398.425 405.81L396.613 400.775ZM397.9 400.308L398.909 403.087C398.909 402.932 398.966 402.776 398.991 402.612L398.13 400.226L397.9 400.308ZM401.492 386.45L401.623 386.884L401.697 386.392L401.492 386.45ZM396.096 386.13L395.768 391.771H396.006L396.334 386.122L396.096 386.13ZM397.384 391.87H397.621L397.949 386.22H397.712L397.384 391.87ZM390.487 385.884L390.602 385.671L387.814 384.17V384.449L390.487 385.884ZM387.814 382.604L391.25 384.449L391.365 384.236L387.88 382.391L387.814 382.604ZM389.963 391.14L389.807 390.96L387.88 392.78V393.1L389.963 391.14ZM388.905 389.918L388.749 389.73L387.814 390.55V390.869L388.905 389.918ZM387.88 399.619V399.873L392.98 397.88L392.89 397.659L387.88 399.619ZM387.88 397.88V398.143L392.39 396.38L392.3 396.15L387.88 397.88ZM390.889 408.147L390.947 407.909L387.88 407.22V407.466L390.889 408.147ZM391.242 406.572L391.299 406.335L387.88 405.564V405.81L391.242 406.572ZM390.84 425.58L390.906 425.35L387.839 424.571V424.826L390.84 425.58ZM387.88 423.12L391.283 423.989L391.34 423.751L387.88 422.882V423.12ZM391.676 430.443L391.603 430.213L387.88 431.443V431.705L391.676 430.443ZM391.168 428.909L391.094 428.68L387.88 429.746V430L391.168 428.909ZM398.458 380.841L399.106 378.569H398.851L398.228 380.775L398.458 380.841ZM400.779 378.569H400.532L399.786 381.21L400.016 381.284L400.779 378.569ZM393.316 381.431L393.554 381.366L392.734 378.569H392.48L393.316 381.431ZM395.096 380.898L394.399 378.569H394.145L394.866 380.972L395.096 380.898ZM396.449 459.085L398.368 464.399L398.597 464.317L396.678 459.003L396.449 459.085ZM400.114 463.767L398.195 458.454L397.966 458.536L399.893 463.849L400.114 463.767ZM402.828 465.079L402.591 465.014L402.246 466.244H402.5L402.828 465.079ZM387.88 442.677L390.553 444.112L390.668 443.899L387.88 442.398V442.677ZM387.88 440.84L391.16 442.636L391.209 442.39L387.88 440.57V440.84ZM389.987 449.36L389.831 449.171L387.88 450.918V451.23L389.987 449.36ZM388.929 448.13L388.774 447.95L387.839 448.77V449.089L388.929 448.13ZM392.849 455.805L387.88 457.79V458.052L392.98 456.051L392.849 455.805ZM387.839 456.289L392.349 454.526L392.259 454.305L387.839 456.027V456.289ZM387.839 465.366V465.621L390.553 466.227H390.865L390.906 466.063L387.839 465.366ZM391.201 464.719L391.258 464.481L387.839 463.71V463.964L391.201 464.719ZM330.873 358.037L331.095 358.127L333.169 352.862L332.94 352.772L330.873 358.037ZM332.374 358.627L332.604 358.717L334.67 353.453L334.449 353.363L332.374 358.627ZM385.362 365.966L387.822 366.597V366.351L385.404 365.736L385.362 365.966ZM385.822 364.17L385.756 364.4L387.839 364.933V364.679L385.822 364.17ZM387.88 373.526V373.272L386.24 373.822L386.314 374.051L387.88 373.526ZM385.682 372.28L385.756 372.51L387.839 371.821V371.567L385.682 372.28ZM381.32 378.578H381.599L382.665 376.724L382.46 376.601L381.32 378.578ZM383.189 378.578H383.468L384.067 377.528L383.862 377.405L383.189 378.578ZM370.996 376.314L370.807 376.47L372.538 378.578H372.849L370.996 376.314ZM372.062 375.445L374.629 378.578H374.94L372.251 375.298L372.062 375.445ZM365.945 378.209L365.723 378.291L365.822 378.578H366.084L365.945 378.209ZM367.24 377.741L367.544 378.561H367.798L367.47 377.643L367.24 377.741ZM358.368 378.561L359.065 375.814L358.827 375.757L358.114 378.561H358.368ZM360.393 376.15L359.778 378.561H360L360.598 376.216L360.393 376.15ZM341.804 375.388L341.566 375.322L340.648 378.561H340.902L341.804 375.388ZM343.354 375.831L343.124 375.765L342.304 378.561H342.558L343.354 375.831ZM333.514 376.011L334.285 378.561H334.539L333.719 375.937L333.514 376.011ZM335.293 375.478L335.064 375.544L335.974 378.561H336.22L335.293 375.478ZM341.902 363.432L344.715 358.512L344.502 358.389L341.689 363.309L341.902 363.432ZM343.1 364.121L343.305 364.236L346.117 359.316L345.904 359.193L343.1 364.121ZM375.186 367.729L380.393 369.935L380.483 369.713L375.276 367.508L375.186 367.729ZM374.555 369.213L379.762 371.419L379.852 371.198L374.604 369L374.555 369.213ZM378.942 360.718L379.171 360.784L380.713 355.347L380.475 355.273L378.942 360.718ZM380.492 361.161L380.729 361.226L382.263 355.782L382.033 355.716L380.492 361.161ZM372.029 351.042L373.669 356.454L373.899 356.388L372.3 350.96L372.029 351.042ZM373.571 350.575L375.211 355.987L375.44 355.921L373.8 350.509L373.571 350.575ZM355.703 373.756L354.063 368.344L353.833 368.41L355.473 373.83L355.703 373.756ZM357.253 373.289L355.613 367.877L355.375 367.942L357.015 373.362L357.253 373.289ZM363.649 370.156L369.249 369.336V369.098L363.649 369.918V370.156ZM363.878 371.755L369.479 370.935V370.697L363.878 371.517V371.755ZM367.979 364.859L368.216 364.916L369.479 359.406L369.241 359.349L367.979 364.859ZM370.816 359.709L369.553 365.22L369.791 365.277L371.053 359.767L370.816 359.709ZM350.98 361.718L351.185 361.85L354.211 357.069L354.006 356.946L350.98 361.718ZM355.58 357.938L355.375 357.807L352.349 362.588L352.554 362.719L355.58 357.938ZM350.324 352.436L355.506 350.173V350.115H355.063L350.25 352.215L350.324 352.436ZM350.873 353.691L350.972 353.912L356.154 351.657L356.056 351.436L350.873 353.691ZM345.953 350.115H345.699L344.42 354.56L344.658 354.625L345.953 350.115ZM343.124 354.215L344.272 350.115H344.018L342.886 354.117L343.124 354.215ZM365.313 351.854L364.756 350.14H364.502L365.035 351.911L365.313 351.854ZM363.534 352.387L363.772 352.321L363.116 350.148H362.862L363.534 352.387ZM344.969 371.132L345.158 371.28L348.602 366.794L348.405 366.647L344.969 371.132ZM346.248 372.116L346.445 372.264L349.881 367.77L349.692 367.622L346.248 372.116ZM338.196 366.286L342.116 370.386L342.296 370.222L338.376 366.122L338.196 366.286ZM336.982 367.36L340.902 371.46L341.074 371.296L337.163 367.196L336.982 367.36ZM358.45 360.111L358.352 360.333L363.559 362.547L363.657 362.317L358.45 360.111ZM358.983 358.848L364.19 361.054L364.288 360.833L359.081 358.627L358.983 358.848ZM332.669 367.36L332.727 367.122L329.66 366.376V366.622L332.669 367.36ZM329.668 364.9L333.063 365.761L333.128 365.523L329.66 364.703L329.668 364.9ZM333.465 372.223L333.383 371.993L329.66 373.272V373.526L333.465 372.223ZM332.874 370.451L329.668 371.517V371.772L332.948 370.681L332.874 370.451ZM332.94 410.91L330.873 416.175L331.095 416.265L333.169 411L332.94 410.91ZM334.449 411.501L332.374 416.765L332.604 416.855L334.67 411.591L334.449 411.501ZM385.535 383.202L387.839 384.449V384.17L385.649 382.989L385.535 383.202ZM386.412 381.562L386.297 381.767L387.839 382.587V382.309L386.412 381.562ZM387.88 392.78L385.592 394.764L385.748 394.945L387.88 393.1V392.78ZM384.69 393.723L387.88 390.968V390.648L384.534 393.534L384.69 393.723ZM387.626 399.758L387.708 399.988L387.88 399.914V399.66L387.626 399.758ZM387.035 398.258L387.117 398.479L387.88 398.184V397.921L387.035 398.258ZM387.855 407.278L385.395 406.72L385.338 406.958L387.847 407.524L387.855 407.278ZM387.855 405.638L385.756 405.162L385.707 405.4L387.855 405.884V405.638ZM387.855 424.621L385.42 423.94L385.362 424.178L387.822 424.809L387.855 424.621ZM385.838 422.439L385.772 422.677L387.88 423.12V422.874L385.838 422.439ZM387.88 431.705V431.443L386.24 431.992L386.314 432.222L387.88 431.705ZM387.88 430V429.746L385.723 430.459L385.797 430.689L387.88 430ZM354.588 381.448L349.381 379.234L349.291 379.455L354.498 381.669L354.588 381.448ZM348.659 380.947L353.866 383.153L353.956 382.932L348.749 380.726L348.659 380.947ZM382.648 434.895L382.443 434.78L381.32 436.757H381.599L382.648 434.895ZM384.05 435.715L383.845 435.592L383.173 436.773H383.452L384.05 435.715ZM370.791 434.657L372.521 436.773H372.833L370.98 434.502L370.791 434.657ZM372.046 433.632L374.612 436.773H374.924L372.234 433.493L372.046 433.632ZM365.928 436.404L365.707 436.486L365.805 436.773H366.068L365.928 436.404ZM367.224 435.937L367.527 436.757H367.782L367.454 435.838L367.224 435.937ZM359.024 434.026L358.786 433.96L358.073 436.773H358.36L359.024 434.026ZM360.352 434.362L359.737 436.773H360L360.598 434.42L360.352 434.362ZM341.763 433.591L341.525 433.526L340.607 436.806H340.861L341.763 433.591ZM343.313 434.034L343.083 433.969L342.263 436.773H342.517L343.313 434.034ZM333.473 434.215L334.244 436.773H334.498L333.678 434.149L333.473 434.215ZM335.023 433.755L335.933 436.773H336.179L335.252 433.682L335.023 433.755ZM344.461 416.617L341.648 421.537L341.861 421.66L344.674 416.74L344.461 416.617ZM346.101 417.536L345.888 417.413L343.083 422.333L343.288 422.456L346.101 417.536ZM368.971 390.591L365.363 386.22L365.182 386.376L368.757 390.755L368.971 390.591ZM367.724 391.616L364.1 387.22L363.911 387.376L367.495 391.755L367.724 391.616ZM358.86 389.221L360.779 394.535L361.008 394.453L359.09 389.139L358.86 389.221ZM360.385 388.672L362.304 393.985L362.525 393.903L360.607 388.59L360.385 388.672ZM380.467 427.917L375.26 425.711L375.17 425.933L380.377 428.138L380.467 427.917ZM379.836 429.409L374.629 427.195L374.538 427.425L379.745 429.631L379.836 429.409ZM380.459 413.485L378.925 418.93L379.155 418.995L380.697 413.551L380.459 413.485ZM382.246 413.993L382.017 413.928L380.475 419.364L380.713 419.43L382.246 413.993ZM373.907 414.576L372.267 409.164L372.037 409.229L373.677 414.649L373.907 414.576ZM375.457 414.108L373.817 408.696L373.579 408.762L375.219 414.182L375.457 414.108ZM359.057 399.947L356.244 404.867L356.449 404.982L359.262 400.062L359.057 399.947ZM357.86 399.266L357.646 399.143L354.842 404.063L355.047 404.178L357.86 399.266ZM348.307 403.735L344.723 399.34L344.535 399.496L348.118 403.875L348.307 403.735ZM349.553 402.71L345.978 398.331L345.789 398.487L349.364 402.866L349.553 402.71ZM338.237 400.931L340.156 406.253L340.385 406.171L338.458 400.849L338.237 400.931ZM339.754 400.381L341.673 405.703L341.902 405.621L339.984 400.299L339.754 400.381ZM378.86 404.686L379.098 404.744L380.492 399.266L380.254 399.201L378.86 404.686ZM382.058 399.66L381.82 399.602L380.426 405.08L380.664 405.137L382.058 399.66ZM372.808 404.26L367.601 402.054L367.511 402.276L372.718 404.49L372.808 404.26ZM373.44 402.776L368.2 400.57L368.11 400.791L373.317 402.997L373.44 402.776ZM355.703 431.935L354.063 426.515L353.833 426.589L355.473 432.001L355.703 431.935ZM357.253 431.468L355.613 426.047L355.375 426.121L357.015 431.533L357.253 431.468ZM369.249 427.54V427.302L363.649 428.122V428.36L369.249 427.54ZM369.479 429.139V428.901L363.878 429.721V429.959L369.479 429.139ZM368.2 423.12L369.463 417.61L369.225 417.552L367.962 423.071L368.2 423.12ZM369.774 423.481L371.037 417.97L370.799 417.913L369.536 423.432L369.774 423.481ZM354.194 415.281L353.989 415.15L350.98 419.897L351.185 420.029L354.194 415.281ZM355.564 416.142L355.359 416.011L352.333 420.791L352.538 420.922L355.564 416.142ZM355.49 408.376L355.4 408.155L350.209 410.418L350.307 410.64L355.49 408.376ZM356.138 409.861L356.039 409.639L350.857 411.902L350.955 412.124L356.138 409.861ZM346.175 407.401L345.945 407.327L344.42 412.731L344.658 412.796L346.175 407.401ZM343.083 412.403L344.617 406.958L344.387 406.892L342.846 412.337L343.083 412.403ZM365.264 410L363.624 404.588L363.386 404.654L365.026 410.074L365.264 410ZM361.861 405.08L363.501 410.492L363.739 410.426L362.099 405.014L361.861 405.08ZM353.997 391.14L349.479 394.551L349.627 394.74L354.145 391.337L353.997 391.14ZM350.603 396.06L355.113 392.649L354.973 392.46L350.455 395.863L350.603 396.06ZM346.699 391.378L345.133 385.941L344.896 386.015L346.47 391.443L346.699 391.378ZM343.346 386.458L344.912 391.96L345.15 391.894L343.6 386.441L343.346 386.458ZM337.95 386.138L337.622 391.78H337.86L338.188 386.13L337.95 386.138ZM339.229 391.878H339.475L339.803 386.228H339.557L339.229 391.878ZM348.52 424.932L348.323 424.785L344.887 429.278L345.076 429.426L348.52 424.932ZM349.799 425.916L349.611 425.769L346.166 430.262L346.363 430.41L349.799 425.916ZM338.114 424.424L342.034 428.524L342.214 428.352L338.294 424.252L338.114 424.424ZM336.982 425.58L340.902 429.68L341.074 429.516L337.163 425.416L336.982 425.58ZM378.163 394.084L377.974 393.936L374.415 398.331L374.604 398.487L378.163 394.084ZM376.72 392.919L373.161 397.315L373.349 397.47L376.9 393.067L376.72 392.919ZM377.712 384.58H377.474L376.834 390.197H377.08L377.712 384.58ZM375.867 384.367L375.235 389.992H375.473L376.105 384.375L375.867 384.367ZM363.657 420.529L358.45 418.323L358.352 418.544L363.559 420.75L363.657 420.529ZM358.983 417.052L364.19 419.258L364.288 419.036L359.081 416.831L358.983 417.052ZM332.341 385.966L332.456 385.753L329.668 384.252V384.531L332.341 385.966ZM329.668 382.686L333.104 384.531L333.219 384.318L329.66 382.391L329.668 382.686ZM331.816 391.222L331.652 391.042L329.66 392.78V393.1L331.816 391.222ZM330.759 390L330.595 389.812L329.668 390.632V390.951L330.759 390ZM334.67 397.675L329.668 399.635V399.889L334.76 397.897L334.67 397.675ZM334.17 396.396L334.088 396.167L329.66 397.88V398.143L334.17 396.396ZM332.677 408.163L332.727 407.925L329.668 407.237V407.483L332.677 408.163ZM329.66 405.81L333.022 406.572L333.079 406.335L329.66 405.564V405.81ZM332.669 425.58L332.727 425.35L329.668 424.571V424.826L332.669 425.58ZM329.66 423.12L333.055 423.989L333.12 423.751L329.66 422.882V423.12ZM333.456 430.443L333.374 430.213L329.66 431.443V431.705L333.456 430.443ZM332.948 428.909L332.866 428.68L329.66 429.746V430L332.948 428.909ZM379.622 381.505L379.827 381.62L381.574 378.569H381.32L379.622 381.505ZM381.025 382.325L381.23 382.44L383.444 378.586H383.165L381.025 382.325ZM374.555 380.685L372.825 378.569H372.513L374.366 380.833L374.555 380.685ZM375.621 379.816L375.809 379.66L374.916 378.569H374.604L375.621 379.816ZM367.847 383.522L366.06 378.602H365.797L367.618 383.637L367.847 383.522ZM369.135 383.055L369.364 382.973L367.773 378.569H367.519L369.135 383.055ZM357.409 381.243L357.646 381.3L358.343 378.569H358.089L357.409 381.243ZM358.975 381.644L359.213 381.702L360.033 378.569H359.778L358.975 381.644ZM340.238 380.824L340.877 378.553H340.623L340 380.759L340.238 380.824ZM342.558 378.553H342.304L341.558 381.193L341.796 381.267L342.558 378.553ZM335.096 381.415L335.326 381.349L334.506 378.553H334.252L335.096 381.415ZM336.876 380.882L336.171 378.553H335.925L336.638 380.956L336.876 380.882ZM385.641 441.193L385.526 441.406L387.831 442.652V442.374L385.641 441.193ZM386.404 439.774L386.289 439.987L387.831 440.807V440.537L386.404 439.774ZM387.88 451.23V450.918L385.592 452.894L385.748 453.075L387.88 451.23ZM387.88 449.098V448.778L384.534 451.672L384.69 451.853L387.88 449.098ZM387.626 457.888L387.708 458.118L387.88 458.052V457.79L387.626 457.888ZM387.035 456.387L387.117 456.617L387.88 456.314V456.051L387.035 456.387ZM385.395 464.842L385.338 465.079L387.847 465.645V465.391L385.395 464.842ZM387.855 463.735L385.756 463.259L385.707 463.497L387.855 463.989V463.735ZM354.588 439.618L349.381 437.413L349.291 437.634L354.498 439.84L354.588 439.618ZM348.659 439.118L353.866 441.332L353.956 441.103L348.749 438.897L348.659 439.118ZM365.182 444.522L368.757 448.901L368.946 448.745L365.363 444.374L365.182 444.522ZM367.7 449.77L364.1 445.399L363.911 445.547L367.495 449.926L367.7 449.77ZM360.984 452.64L359.065 447.318L358.836 447.4L360.754 452.722L360.984 452.64ZM362.501 452.091L360.582 446.769L360.361 446.851L362.279 452.173L362.501 452.091ZM359.221 458.249L359.016 458.126L356.203 463.046L356.408 463.169L359.221 458.249ZM357.819 457.429L357.605 457.314L354.801 462.234L355.006 462.357L357.819 457.429ZM348.266 461.898L344.723 457.56L344.535 457.708L348.118 462.086L348.266 461.898ZM349.512 460.873L345.937 456.502L345.748 456.65L349.323 461.029L349.512 460.873ZM340.344 464.333L338.417 459.02L338.196 459.102L340.115 464.415L340.344 464.333ZM341.861 463.784L339.943 458.47L339.713 458.552L341.632 463.866L341.861 463.784ZM380.401 457.445L380.164 457.388L378.77 462.865L379.007 462.923L380.401 457.445ZM381.968 457.839L381.73 457.781L380.336 463.267L380.574 463.325L381.968 457.839ZM372.808 462.48L367.601 460.274L367.511 460.496L372.718 462.701L372.808 462.48ZM373.44 460.988L368.2 458.741L368.11 458.962L373.317 461.176L373.44 460.988ZM345.937 465.506L345.707 466.326H345.961L346.166 465.604L345.937 465.506ZM344.608 465.129L344.379 465.063L344.026 466.293H344.281L344.608 465.129ZM363.403 462.865L364.436 466.293H364.69L363.641 462.792L363.403 462.865ZM362.091 463.259L361.861 463.325L362.747 466.293H363.001L362.091 463.259ZM354.145 449.622L353.997 449.434L349.479 452.837L349.627 453.034L354.145 449.622ZM355.113 450.918L354.973 450.721L350.455 454.124L350.603 454.321L355.113 450.918ZM346.47 449.713L346.699 449.639L345.133 444.21L344.896 444.276L346.47 449.713ZM345.15 450.09L343.6 444.62L343.37 444.686L344.936 450.114L345.15 450.09ZM337.86 450.09L338.188 444.448H337.95L337.622 450.098L337.86 450.09ZM339.5 450.188L339.828 444.538H339.582L339.254 450.18L339.5 450.188ZM378.187 452.304L377.999 452.148L374.44 456.543L374.629 456.699L378.187 452.304ZM376.744 451.131L373.185 455.526L373.374 455.682L376.925 451.287L376.744 451.131ZM377.736 442.8H377.499L376.859 448.417H377.105L377.736 442.8ZM375.891 442.595L375.26 448.212H375.498L376.129 442.587L375.891 442.595ZM332.366 444.186L332.481 443.973L329.693 442.472V442.751L332.366 444.186ZM333.243 442.546L329.66 440.57V440.84L333.096 442.693L333.243 442.546ZM331.816 449.36L331.652 449.171L329.66 450.91V451.23L331.816 449.36ZM330.759 448.13L330.595 447.95L329.668 448.77V449.089L330.759 448.13ZM334.67 455.805L329.668 457.765V458.027L334.76 456.027L334.67 455.805ZM329.668 456.289L334.17 454.526L334.088 454.305L329.668 456.027V456.289ZM329.668 465.366V465.621L332.382 466.227H332.686L332.727 466.063L329.668 465.366ZM333.03 464.719L333.087 464.481L329.668 463.71V463.964L333.03 464.719ZM379.836 439.782L381.582 436.732H381.32L379.68 439.659L379.836 439.782ZM383.173 436.732L381.033 440.463L381.238 440.586L383.452 436.732H383.173ZM374.374 438.995L374.563 438.839L372.833 436.732H372.521L374.374 438.995ZM375.629 437.97L375.818 437.814L374.924 436.732H374.612L375.629 437.97ZM367.855 441.677L366.068 436.757H365.805L367.626 441.783L367.855 441.677ZM369.143 441.217L369.372 441.127L367.782 436.732H367.527L369.143 441.217ZM357.663 439.463L358.36 436.732H358.106L357.425 439.405L357.663 439.463ZM358.991 439.799L359.229 439.856L360.049 436.732H359.795L358.991 439.799ZM340.254 438.979L340.894 436.716H340.64L340.016 438.913L340.254 438.979ZM342.321 436.716L341.574 439.356L341.812 439.422L342.575 436.716H342.321ZM335.113 439.577L335.342 439.504L334.522 436.716H334.268L335.113 439.577ZM336.654 439.11L336.892 439.044L336.187 436.716H335.941L336.654 439.11ZM327.2 365.991L329.66 366.622V366.376L327.241 365.761L327.2 365.991ZM327.659 364.195L327.602 364.424L329.684 364.957V364.703L327.659 364.195ZM329.66 373.526V373.272L328.02 373.822L328.102 374.051L329.66 373.526ZM327.511 372.28L327.585 372.51L329.668 371.821V371.567L327.511 372.28ZM323.1 378.578H323.379L324.445 376.724L324.231 376.601L323.1 378.578ZM324.961 378.578H325.24L325.847 377.528L325.634 377.405L324.961 378.578ZM312.776 376.314L312.587 376.47L314.318 378.578H314.629L312.776 376.314ZM313.842 375.445L316.4 378.578H316.72L314.031 375.298L313.842 375.445ZM307.725 378.209L307.495 378.291L307.602 378.578H307.856L307.725 378.209ZM309.02 377.741L309.316 378.561H309.578L309.25 377.643L309.02 377.741ZM300.14 378.561L300.837 375.814L300.607 375.757L299.894 378.561H300.14ZM302.173 376.15L301.558 378.561H301.813L302.403 376.216L302.173 376.15ZM282.682 378.561L283.576 375.388L283.346 375.322L282.428 378.561H282.682ZM285.142 375.831L284.904 375.765L284.084 378.561H284.338L285.142 375.831ZM316.942 367.729L322.149 369.935L322.247 369.713L317.04 367.508L316.942 367.729ZM316.31 369.213L321.542 371.46L321.64 371.239L316.433 369L316.31 369.213ZM320.697 360.718L320.935 360.784L322.468 355.347L322.239 355.273L320.697 360.718ZM322.255 361.161L322.485 361.226L324.026 355.782L323.797 355.716L322.255 361.161ZM313.85 351.042L315.49 356.454L315.72 356.388L314.08 350.96L313.85 351.042ZM315.4 350.575L317.04 355.987L317.27 355.921L315.63 350.509L315.4 350.575ZM295.671 368.41L297.311 373.83L297.54 373.756L295.9 368.344L295.671 368.41ZM299.082 373.33L297.442 367.918L297.212 367.983L298.852 373.403L299.082 373.33ZM305.478 370.197L311.079 369.377V369.139L305.478 369.959V370.197ZM305.667 371.558V371.796L311.267 370.976V370.738L305.667 371.558ZM311.292 359.447L311.054 359.39L309.799 364.9L310.029 364.957L311.292 359.447ZM312.637 359.75L311.374 365.261L311.603 365.318L312.866 359.808L312.637 359.75ZM292.76 361.718L292.965 361.85L295.991 357.069L295.786 356.946L292.76 361.718ZM294.129 362.588L294.334 362.719L297.36 357.938L297.155 357.807L294.129 362.588ZM307.069 351.821L306.544 350.074H306.298L306.839 351.854L307.069 351.821ZM305.289 352.354L305.519 352.288L304.937 350.337L304.699 350.386L305.289 352.354ZM286.725 371.099L286.913 371.247L290.349 366.761L290.16 366.614L286.725 371.099ZM291.645 367.737L291.448 367.59L288.012 372.083L288.209 372.231L291.645 367.737ZM300.255 360.119L300.164 360.341L305.371 362.555L305.462 362.325L300.255 360.119ZM300.796 358.857L306.003 361.062L306.093 360.841L300.886 358.635L300.796 358.857ZM274.753 410.968L272.686 416.232L272.908 416.322L274.974 411.058L274.753 410.968ZM276.253 411.558L274.187 416.822L274.408 416.913L276.483 411.648L276.253 411.558ZM327.339 383.26L329.652 384.506V384.227L327.454 383.047L327.339 383.26ZM328.225 381.62L328.11 381.825L329.652 382.645V382.366L328.225 381.62ZM329.66 392.78L327.364 394.764L327.528 394.945L329.66 393.1V392.78ZM326.47 393.723L329.66 390.968V390.648L326.314 393.534L326.47 393.723ZM329.397 399.758L329.488 399.988L329.66 399.914V399.66L329.397 399.758ZM329.66 397.921L328.84 398.258L328.93 398.479L329.693 398.184L329.66 397.921ZM329.66 407.261L327.2 406.704L327.151 406.941L329.66 407.507V407.261ZM327.561 405.129L327.503 405.367L329.66 405.851V405.605L327.561 405.129ZM329.66 424.547L327.241 423.932L327.175 424.17L329.635 424.801L329.66 424.547ZM327.634 422.366L327.577 422.603L329.66 423.12V422.874L327.634 422.366ZM329.66 431.705V431.443L328.02 431.992L328.102 432.222L329.66 431.705ZM329.66 430V429.746L327.503 430.459L327.577 430.689L329.66 430ZM291.12 379.455L296.327 381.669L296.425 381.448L291.218 379.234L291.12 379.455ZM290.488 380.947L295.695 383.153L295.794 382.932L290.587 380.726L290.488 380.947ZM324.486 434.895L324.272 434.78L323.1 436.757H323.379L324.486 434.895ZM325.888 435.715L325.675 435.592L325.002 436.773H325.281L325.888 435.715ZM312.628 434.657L314.359 436.773H314.67L312.817 434.502L312.628 434.657ZM313.883 433.632L316.441 436.773H316.761L314.072 433.493L313.883 433.632ZM307.766 436.404L307.536 436.486L307.643 436.773H307.897L307.766 436.404ZM309.062 435.937L309.357 436.757H309.619L309.291 435.838L309.062 435.937ZM299.935 436.757H300.181L300.878 434.01L300.648 433.944L299.935 436.757ZM302.214 434.346L301.599 436.757H301.854L302.444 434.403L302.214 434.346ZM275.54 434.133L275.31 434.198L275.761 435.691L275.958 435.51L275.54 434.133ZM277.09 433.665L276.852 433.739L277.073 434.444L277.262 434.256L277.09 433.665ZM286.511 416.716L286.298 416.601L283.486 421.521L283.699 421.644L286.511 416.716ZM285.101 422.456L287.914 417.536L287.7 417.413L284.888 422.333L285.101 422.456ZM310.8 390.574L307.192 386.22L307.003 386.376L310.587 390.755L310.8 390.574ZM309.545 391.599L305.962 387.22L305.781 387.376L309.357 391.755L309.545 391.599ZM300.689 389.205L302.608 394.518L302.838 394.436L300.919 389.123L300.689 389.205ZM302.206 388.655L304.125 393.969L304.355 393.887L302.436 388.573L302.206 388.655ZM322.28 427.901L317.073 425.695L316.974 425.916L322.181 428.122L322.28 427.901ZM321.648 429.393L316.441 427.179L316.343 427.409L321.55 429.614L321.648 429.393ZM322.272 413.469L320.73 418.913L320.968 418.979L322.501 413.534L322.272 413.469ZM324.059 413.977L323.83 413.911L322.28 419.348L322.509 419.414L324.059 413.977ZM315.72 414.559L314.08 409.147L313.85 409.213L315.49 414.633L315.72 414.559ZM317.27 414.092L315.63 408.68L315.4 408.745L317.04 414.166L317.27 414.092ZM300.87 399.93L298.057 404.85L298.27 404.965L301.083 400.045L300.87 399.93ZM299.467 399.11L296.655 404.03L296.868 404.145L299.681 399.225L299.467 399.11ZM286.347 399.479L289.931 403.858L290.111 403.702L286.552 399.34L286.347 399.479ZM287.594 398.454L291.177 402.833L291.366 402.677L287.84 398.315L287.594 398.454ZM280.042 400.914L281.96 406.236L282.19 406.154L280.271 400.832L280.042 400.914ZM281.567 400.365L283.486 405.687L283.707 405.605L281.788 400.283L281.567 400.365ZM320.64 404.686L320.878 404.744L322.263 399.266L322.034 399.201L320.64 404.686ZM323.838 399.66L323.6 399.602L322.206 405.08L322.444 405.137L323.838 399.66ZM314.637 404.26L309.43 402.054L309.332 402.276L314.539 404.49L314.637 404.26ZM315.269 402.776L310.062 400.57L309.963 400.791L315.17 402.997L315.269 402.776ZM297.229 426.121L298.869 431.533L299.098 431.468L297.458 426.047L297.229 426.121ZM311.087 427.54V427.302L305.486 428.122V428.36L311.087 427.54ZM311.308 429.139V428.901L305.708 429.721V429.959L311.308 429.139ZM310.029 423.12L311.292 417.61L311.054 417.552L309.799 423.071L310.029 423.12ZM311.603 423.481L312.866 417.97L312.637 417.913L311.374 423.432L311.603 423.481ZM295.81 415.15L293.678 418.52L293.768 418.831L296.04 415.248L295.81 415.15ZM297.18 416.011L294.293 420.57L294.383 420.873L297.385 416.142L297.18 416.011ZM292.03 410.418L292.128 410.64L297.311 408.376L297.212 408.155L292.03 410.418ZM297.959 409.861L297.86 409.639L292.678 411.902L292.768 412.124L297.959 409.861ZM287.996 407.401L287.758 407.327L286.2 412.731L286.429 412.796L287.996 407.401ZM284.896 412.403L286.438 406.958L286.208 406.892L284.666 412.337L284.896 412.403ZM307.093 410L305.453 404.588L305.224 404.654L306.864 410.074L307.093 410ZM303.682 405.08L305.322 410.492L305.552 410.426L303.912 405.014L303.682 405.08ZM295.818 391.14L291.308 394.551L291.456 394.74L295.966 391.337L295.818 391.14ZM292.276 395.839L292.424 396.035L296.942 392.624L296.794 392.436L292.276 395.839ZM286.725 385.999L288.291 391.427L288.529 391.361L286.954 385.925L286.725 385.999ZM285.175 386.441L286.741 391.878L286.971 391.812L285.38 386.441H285.175ZM279.435 391.763H279.681L280.009 386.113H279.763L279.435 391.763ZM281.616 386.228H281.378L281.05 391.878H281.288L281.616 386.228ZM283.6 427.794L280.14 424.194L279.968 424.358L283.436 427.966L283.6 427.794ZM278.976 425.334L278.82 425.58L282.329 429.229L282.493 429.057L278.976 425.334ZM319.976 394.01L319.787 393.862L316.236 398.258L316.425 398.413L319.976 394.01ZM318.532 392.846L314.974 397.241L315.162 397.397L318.721 392.993L318.532 392.846ZM319.541 384.58H319.295L318.664 390.197H318.901L319.541 384.58ZM317.688 384.367L317.056 389.992H317.302L317.934 384.375L317.688 384.367ZM305.478 420.529L300.271 418.323L300.181 418.544L305.388 420.75L305.478 420.529ZM306.109 419.036L300.902 416.831L300.812 417.052L306.019 419.258L306.109 419.036ZM273.637 391.23L273.482 391.05L273.293 391.214L272.883 391.886L273.637 391.23ZM276.499 397.684L271.497 399.643V399.898L276.589 397.905L276.499 397.684ZM275.999 396.404L275.909 396.175L271.497 397.905V398.167L275.999 396.404ZM274.498 408.171L274.556 407.934L271.497 407.245V407.491L274.498 408.171ZM274.859 406.597L274.908 406.359L271.497 405.588V405.834L274.859 406.597ZM274.49 425.58L274.556 425.35L271.497 424.571V424.826L274.49 425.58ZM271.497 423.12L274.892 423.989L274.949 423.751L271.497 422.874V423.12ZM275.286 430.443L275.212 430.213L271.497 431.435V431.697L275.286 430.443ZM274.777 428.909L274.703 428.68L271.497 429.737V429.992L274.777 428.909ZM321.46 381.513L321.673 381.628L323.42 378.578H323.1L321.46 381.513ZM322.862 382.333L323.075 382.448L325.281 378.594H325.002L322.862 382.333ZM316.4 380.693L314.67 378.578H314.359L316.212 380.841L316.4 380.693ZM317.458 379.824L317.647 379.668L316.761 378.578H316.441L317.458 379.824ZM309.685 383.53L307.897 378.61H307.643L309.455 383.645L309.685 383.53ZM310.98 383.063L311.21 382.981L309.619 378.578H309.357L310.98 383.063ZM299.254 381.251L299.492 381.308L300.181 378.578H299.935L299.254 381.251ZM300.82 381.653L301.05 381.71L301.87 378.578H301.616L300.82 381.653ZM281.846 380.783L282.083 380.849L282.723 378.578H282.469L281.846 380.783ZM284.404 378.578H284.15L283.404 381.218L283.633 381.292L284.404 378.578ZM327.364 441.431L329.676 442.677V442.398L327.479 441.217L327.364 441.431ZM328.249 439.791L328.135 440.004L329.676 440.824V440.553L328.249 439.791ZM329.66 451.23V450.91L327.364 452.894L327.528 453.075L329.66 451.23ZM329.66 449.098V448.778L326.314 451.672L326.47 451.853L329.66 449.098ZM329.397 457.888L329.488 458.118L329.66 458.052V457.79L329.397 457.888ZM328.807 456.387L328.897 456.617L329.66 456.314V456.051L328.807 456.387ZM327.167 464.842L327.118 465.079L329.627 465.645V465.391L327.167 464.842ZM329.627 463.735L327.528 463.259L327.47 463.497L329.627 463.989V463.735ZM307.003 444.522L310.587 448.901L310.775 448.745L307.192 444.374L307.003 444.522ZM309.521 449.77L305.937 445.399L305.757 445.547L309.332 449.926L309.521 449.77ZM302.813 452.64L301.173 448.064L301.058 448.466L302.592 452.722L302.813 452.64ZM304.33 452.091L302.411 446.769L302.182 446.851L304.1 452.173L304.33 452.091ZM301.05 458.249L300.837 458.126L298.024 463.046L298.237 463.169L301.05 458.249ZM299.41 457.33L297.68 460.43L297.409 461.389L299.681 457.421L299.41 457.33ZM322.214 457.462L321.985 457.404L320.591 462.882L320.828 462.939L322.214 457.462ZM323.789 457.855L323.551 457.798L322.157 463.284L322.395 463.341L323.789 457.855ZM314.637 462.48L309.43 460.274L309.332 460.496L314.539 462.701L314.637 462.48ZM315.269 460.988L310.062 458.782L309.963 459.003L315.17 461.217L315.269 460.988ZM305.232 462.865L306.265 466.293H306.519L305.462 462.792L305.232 462.865ZM303.92 463.259L303.682 463.325L304.576 466.293H304.83L303.92 463.259ZM319.984 452.271L319.795 452.115L316.245 456.51L316.433 456.666L319.984 452.271ZM318.541 451.098L314.982 455.494L315.17 455.649L318.729 451.254L318.541 451.098ZM319.541 442.767H319.295L318.664 448.384H318.901L319.541 442.767ZM317.688 442.562L317.056 448.179H317.302L317.934 442.554L317.688 442.562ZM321.665 439.848L323.411 436.798H323.1L321.46 439.725L321.665 439.848ZM324.994 436.798L322.854 440.529L323.067 440.652L325.273 436.798H324.994ZM316.204 439.061L316.392 438.905L314.662 436.798H314.35L316.204 439.061ZM317.45 438.036L317.639 437.88L316.753 436.798H316.433L317.45 438.036ZM309.676 441.742L307.889 436.822H307.635L309.447 441.849L309.676 441.742ZM310.972 441.283L311.202 441.193L309.611 436.798H309.348L310.972 441.283ZM299.574 438.159L299.713 438.61L300.173 436.798H299.927L299.574 438.159ZM300.812 439.864L301.042 439.922L301.862 436.798H301.608L300.812 439.864ZM271.235 399.758L271.325 399.988L271.497 399.914V399.66L271.235 399.758ZM271.497 397.921L270.677 398.258L270.767 398.479L271.53 398.184L271.497 397.921ZM268.98 406.941L271.497 407.507V407.261L269.037 406.704L268.98 406.941ZM269.341 405.367L271.497 405.851V405.605L269.39 405.08L269.341 405.367ZM271.497 424.588L269.037 423.973L268.98 424.211L271.44 424.842L271.497 424.588ZM269.472 422.407L269.414 422.644L271.497 423.169V422.923L269.472 422.407ZM271.497 431.746V431.484L269.857 432.033L269.931 432.263L271.497 431.746ZM271.497 430.041V429.787L269.332 430.5L269.406 430.73L271.497 430.041ZM266.298 434.961L266.093 434.846L264.962 436.822H265.241L266.298 434.961ZM267.701 435.781L267.496 435.658L266.823 436.839H267.102L267.701 435.781ZM254.449 434.723L256.171 436.839H256.491L254.638 434.567L254.449 434.723ZM255.696 433.698L258.262 436.839H258.574L255.884 433.559L255.696 433.698ZM251.104 435.92L250.874 436.002L251.178 436.822H251.44L251.104 435.92ZM247.578 387.458L248.398 388.508L247.578 387.417V387.458ZM242.486 389.287L244.413 394.6L244.634 394.518L242.74 389.123L242.486 389.287ZM244.011 388.737L245.93 394.051L246.159 393.969L244.24 388.655L244.011 388.737ZM264.06 427.901L258.853 425.695L258.763 425.916L263.97 428.122L264.06 427.901ZM263.428 429.393L258.23 427.179L258.131 427.409L263.338 429.614L263.428 429.393ZM264.06 413.469L262.518 418.913L262.748 418.979L264.289 413.534L264.06 413.469ZM265.847 413.977L265.61 413.911L264.076 419.348L264.306 419.414L265.847 413.977ZM257.508 414.559L255.868 409.147L255.638 409.213L257.278 414.633L257.508 414.559ZM259.05 414.092L257.41 408.68L257.18 408.745L258.82 414.166L259.05 414.092ZM242.879 400.053L242.674 399.93L239.862 404.85L240.075 404.965L242.879 400.053ZM241.477 399.233L241.272 399.11L238.459 404.03L238.673 404.145L241.477 399.233ZM256.458 404.26L251.251 402.054L251.161 402.276L256.368 404.49L256.458 404.26ZM257.09 402.776L251.883 400.57L251.793 400.791L257 402.997L257.09 402.776ZM247.299 428.327L252.9 427.507V427.269L247.299 428.089V428.327ZM247.529 429.926L253.129 429.106V428.868L247.529 429.688V429.926ZM251.629 423.038L251.866 423.087L253.129 417.577L252.891 417.519L251.629 423.038ZM254.466 417.88L253.203 423.399L253.441 423.448L254.704 417.938L254.466 417.88ZM239.05 408.122L236.893 409.065L236.975 409.295L239.148 408.344L239.05 408.122ZM239.689 409.606L237.418 410.599L237.5 410.828L239.788 409.828L239.689 409.606ZM247.069 404.686L248.709 410.107L248.947 410.033L247.307 404.621L247.069 404.686ZM245.52 405.154L247.16 410.566L247.397 410.5L245.757 405.088L245.52 405.154ZM233.138 394.666L233.285 394.855L237.803 391.452L237.656 391.255L233.138 394.666ZM238.779 392.739L238.632 392.55L234.113 395.953L234.261 396.15L238.779 392.739ZM247.315 420.545L242.108 418.339L242.01 418.561L247.217 420.767L247.315 420.545ZM242.641 417.068L247.848 419.274L247.947 419.053L242.74 416.806L242.641 417.068ZM269.308 441.258L269.193 441.472L269.398 441.308L269.308 441.258ZM270.07 439.84L269.956 440.053L270.554 440.373L270.751 440.201L270.07 439.84ZM260.78 445.76H261.026L261.362 442.726H261.124L260.78 445.76ZM259.14 445.481L259.378 445.555L259.714 442.546H259.476L259.14 445.481ZM265.2 436.757H264.921L263.281 439.684L263.486 439.807L265.2 436.757ZM267.061 436.757H266.782L264.642 440.488L264.855 440.611L267.061 436.757ZM257.992 439.02L258.172 438.864L256.45 436.757H256.13L257.992 439.02ZM259.238 437.995L259.427 437.839L258.533 436.757H258.221L259.238 437.995ZM251.137 436.757L252.309 440.037L252.76 440.561L251.399 436.789L251.137 436.757Z" fill="white"/>
<path d="M319.132 350.14C319.132 350.14 305.815 348.287 299.665 352.264C293.515 356.241 263.126 408.18 263.126 408.18L246.34 385.589L231.785 392.124C231.785 392.124 238.608 418.528 246.545 431.664C254.483 444.801 259.009 446.129 261.732 445.695C269.833 444.407 293.302 417.257 293.302 417.257L301.83 445.629L296.04 466.252H403.87L390.791 444.44C390.791 444.44 407.856 365.72 403.51 357.381C399.164 349.041 373.842 350.14 365.88 350.14H343.084C339.629 350.825 336.118 351.187 332.596 351.222C328.092 351.091 323.598 350.73 319.132 350.14Z" stroke="#263238" stroke-width="0.867092"/>
<path d="M293.309 417.257C290.188 411.02 288.975 404 289.824 397.077C291.407 386.031 298.246 373.936 298.246 373.936C298.246 373.936 284.601 393.616 284.601 400.176C284.601 406.736 288.66 416.33 288.66 416.33L285.118 426.441L293.309 417.257Z" fill="#263238" stroke="#263238" stroke-width="0.867092" stroke-linecap="round" stroke-linejoin="round"/>
<path d="M330.423 339.259L330.783 350.837L321.017 351.198C321.017 351.198 319 393.682 327.692 401.283C336.384 408.885 362.624 350.14 362.624 350.14L353.604 348.328L350.709 324.81L330.423 339.259Z" fill="#CFCFCF" stroke="#263238" stroke-width="0.867092" stroke-linecap="round" stroke-linejoin="round"/>
<path d="M351.751 329.402L330.866 349.082V342.12L351.751 329.402Z" fill="#263238" stroke="#263238" stroke-width="0.867092" stroke-linecap="round" stroke-linejoin="round"/>
<path d="M327.692 401.283C327.692 401.283 328.741 394.445 333.998 385.507L327.692 401.283Z" fill="white"/>
<path d="M327.692 401.283C327.692 401.283 328.741 394.445 333.998 385.507" stroke="#263238" stroke-width="0.867092" stroke-linecap="round" stroke-linejoin="round"/>
<path d="M326.216 273.97L302.436 298.693C304.304 303.955 305.21 309.51 305.109 315.093C304.83 323.851 312.793 336.733 319.303 342.719C325.814 348.705 339.098 339.505 344.059 336.257C347.373 334.012 350.462 331.453 353.284 328.615C355.094 328.537 356.854 328 358.4 327.057C359.946 326.113 361.227 324.793 362.124 323.219C362.124 323.219 327.569 286.295 326.216 273.97Z" fill="#CFCFCF" stroke="#263238" stroke-width="0.867092" stroke-linecap="round" stroke-linejoin="round"/>
<path d="M319.771 299.357C320.593 301.032 321.126 302.835 321.346 304.687C321.419 306.975 317.409 317.693 317.983 318.406C318.557 319.119 320.353 321.481 321.756 321.178" stroke="#263238" stroke-width="0.867092" stroke-linecap="round" stroke-linejoin="round"/>
<path d="M329.66 311.075C333.011 309.82 336.695 309.776 340.074 310.952" stroke="#263238" stroke-width="0.433546" stroke-linecap="round" stroke-linejoin="round"/>
<path d="M311.153 311.928C312.944 311.425 314.795 311.166 316.655 311.157" stroke="#263238" stroke-width="0.433546" stroke-linecap="round" stroke-linejoin="round"/>
<path d="M316.77 293.298C315.851 293.229 314.929 293.375 314.075 293.722C313.222 294.069 312.46 294.608 311.85 295.298C309.792 297.668 308.791 299.735 308.275 298.062C307.758 296.389 310.054 293.314 310.866 292.691C311.678 292.068 315.482 289.624 316.77 293.298Z" fill="#263238"/>
<path d="M326.946 291.92C329.358 291.911 331.738 292.473 333.891 293.56C337.032 295.282 335.531 291.789 333.325 290.788C331.12 289.788 327.298 289.886 326.946 291.92Z" fill="#263238"/>
<path d="M363.354 333.043C363.501 335.503 362.23 337.553 360.533 337.651C358.836 337.75 357.335 335.847 357.187 333.404C357.04 330.96 358.065 324.654 359.762 324.556C361.46 324.458 363.214 330.591 363.354 333.043Z" fill="#407BFF" stroke="#263238" stroke-width="0.867092" stroke-linecap="round" stroke-linejoin="round"/>
<path d="M315.794 307.5C315.909 309.14 315.286 310.468 314.408 310.526C313.531 310.583 312.768 309.329 312.629 307.721C312.489 306.114 313.137 304.753 314.015 304.696C314.892 304.638 315.72 305.926 315.794 307.5Z" fill="#263238"/>
<path d="M333.49 306.869C333.604 308.509 332.981 309.829 332.112 309.894C331.243 309.96 330.472 308.697 330.324 307.082C330.177 305.466 330.841 304.122 331.71 304.064C332.579 304.007 333.383 305.261 333.49 306.869Z" fill="#263238"/>
<path d="M321.641 325.843C321.641 325.843 325.814 327.18 331.481 322.334" stroke="#263238" stroke-width="0.867092" stroke-linecap="round" stroke-linejoin="round"/>
<path d="M246.34 385.605L238.706 375.38C238.353 372.657 237.672 367.032 237.558 363.235C237.402 358.069 237.656 354.912 234.72 350.329C231.785 345.745 223.593 338.504 222.822 336.823C222.051 335.142 219.821 339.882 221.223 342.957C222.625 346.032 223.905 346.975 223.905 346.975C223.905 346.975 208.825 339.48 208.325 340.702C207.824 341.924 215.344 363.531 218.788 369.23C220.223 371.608 224.2 374.789 226.119 377.544C227.057 378.904 227.862 380.351 228.521 381.866C230.309 389.467 232.392 397.831 233.441 398.135C235.827 398.832 245.954 398.996 246.34 385.605Z" fill="#CFCFCF" stroke="#263238" stroke-width="0.867092" stroke-miterlimit="10"/>
<path d="M224.905 362.112C224.767 362.149 224.623 362.159 224.482 362.14C224.34 362.121 224.204 362.075 224.08 362.003C223.957 361.931 223.849 361.836 223.762 361.722C223.676 361.609 223.613 361.479 223.577 361.341L211.58 316.987C211.516 316.719 211.556 316.437 211.694 316.197C211.831 315.958 212.054 315.78 212.318 315.7C212.595 315.627 212.89 315.666 213.139 315.809C213.387 315.952 213.57 316.186 213.646 316.463L225.676 360.8C225.744 361.076 225.701 361.368 225.557 361.613C225.413 361.858 225.179 362.037 224.905 362.112Z" fill="#263238" stroke="#263238" stroke-width="0.867092" stroke-miterlimit="10"/>
<path d="M216.254 333.896C216.254 333.896 204.676 340.013 205.389 341.21C206.102 342.407 208.218 346.68 209.186 346.581C210.153 346.483 217.181 340.743 217.689 340.021C218.197 339.3 216.254 333.896 216.254 333.896Z" fill="#CFCFCF" stroke="#263238" stroke-width="0.867092" stroke-miterlimit="10"/>
<path d="M218.32 341.407C218.32 341.407 208.702 348.5 209.013 349.533C209.325 350.566 214.04 362.793 214.86 363.785C215.68 364.777 223.207 361.325 223.207 361.325L218.32 341.407Z" fill="#CFCFCF" stroke="#263238" stroke-width="0.867092" stroke-miterlimit="10"/>
<path d="M219.78 348C219.78 348 210.571 355.232 211.178 355.462" stroke="#263238" stroke-width="0.867092" stroke-miterlimit="10"/>
<path d="M221.519 355.839L213.778 360.374" stroke="#263238" stroke-width="0.867092" stroke-miterlimit="10"/>
<path d="M223.88 346.975L228.127 351.124C228.127 351.124 222.486 363.17 227.89 369.82" stroke="#263238" stroke-width="0.867092" stroke-miterlimit="10"/>
<path d="M391.48 352.707C391.48 352.707 401.787 351.362 406.24 359.882C410.693 368.401 438.515 443.702 438.966 450.902C439.417 458.101 420.582 459.864 414.309 456.732C408.036 453.599 390.529 416.388 388.758 411.451" fill="#407BFF"/>
<path d="M394.757 404.849L393.229 410.281L393.465 410.347L394.993 404.915L394.757 404.849Z" fill="white"/>
<path d="M398.319 389.533L396.752 384.096L396.515 384.17L398.089 389.598L398.319 389.533Z" fill="white"/>
<path d="M397.552 405.388L396.008 410.831L396.244 410.898L397.789 405.455L397.552 405.388Z" fill="white"/>
<path d="M399.926 401.825L396.342 397.446L396.154 397.602L399.737 401.972L399.926 401.825Z" fill="white"/>
<path d="M407.66 407.691L402.474 409.954L402.572 410.179L407.758 407.917L407.66 407.691Z" fill="white"/>
<path d="M407.175 414.215L406.97 414.084L403.944 418.864L404.149 418.995L407.175 414.215Z" fill="white"/>
<path d="M394.965 384.613L396.531 390.049L396.769 389.976L395.194 384.547L394.965 384.613Z" fill="white"/>
<path d="M402.574 417.995L402.779 418.126L405.805 413.354L405.6 413.223L402.574 417.995Z" fill="white"/>
<path d="M401.172 400.8L397.597 396.421L397.408 396.577L400.984 400.947L401.172 400.8Z" fill="white"/>
<path d="M406.596 390.594L402.073 393.993L402.221 394.19L406.743 390.79L406.596 390.594Z" fill="white"/>
<path d="M405.461 366.515L407.093 371.936L407.322 371.862L405.699 366.45L405.461 366.515Z" fill="white"/>
<path d="M405.764 389.516L405.617 389.32L401.098 392.723L401.246 392.919L405.764 389.516Z" fill="white"/>
<path d="M402.779 359.98L404.477 357.299C404.419 357.241 404.37 357.176 404.313 357.11L402.574 359.849L402.779 359.98Z" fill="white"/>
<path d="M397.819 370.189L398.015 370.337L401.451 365.843L401.263 365.695L397.819 370.189Z" fill="white"/>
<path d="M400.902 377.561L406.109 379.767L406.207 379.545L401 377.339L400.902 377.561Z" fill="white"/>
<path d="M407.011 366.048L408.643 371.468L408.872 371.394L407.249 365.982L407.011 366.048Z" fill="white"/>
<path d="M406.666 402.259L409.479 397.347L409.266 397.233L406.461 402.136L406.666 402.259Z" fill="white"/>
<path d="M400.376 378.847L400.283 379.066L405.491 381.276L405.584 381.057L400.376 378.847Z" fill="white"/>
<path d="M406.999 406.242L401.813 408.504L401.911 408.729L407.097 406.468L406.999 406.242Z" fill="white"/>
<path d="M419.86 456.847L419.77 457.068L422.386 458.183H423.025L419.86 456.847Z" fill="white"/>
<path d="M420.992 439.258L419.401 434.854L419.073 433.944L418.843 434.026L419.147 434.854L420.762 439.34L420.992 439.258Z" fill="white"/>
<path d="M415.547 443.653L419.13 448.032L419.311 447.876L415.735 443.497L415.547 443.653Z" fill="white"/>
<path d="M419.467 439.807L417.687 434.854L417.548 434.493L417.326 434.567L417.425 434.854L419.245 439.889L419.467 439.807Z" fill="white"/>
<path d="M421.057 427.007L415.457 427.794L415.49 428.032L421.09 427.245L421.057 427.007Z" fill="white"/>
<path d="M437.326 451.18L438.843 449.868L438.794 449.598L437.154 451L437.326 451.18Z" fill="white"/>
<path d="M396.539 369.205L396.728 369.353L400.172 364.859L399.975 364.711L396.539 369.205Z" fill="white"/>
<path d="M390.084 398.943L389.853 399.026L391.774 404.348L392.006 404.265L390.084 398.943Z" fill="white"/>
<path d="M436.26 449.959L438.425 448.089C438.398 448.003 438.376 447.915 438.359 447.827L436.104 449.778L436.26 449.959Z" fill="white"/>
<path d="M420.565 446.851L416.982 442.48L416.793 442.628L420.377 447.007L420.565 446.851Z" fill="white"/>
<path d="M391.192 384.403L390.864 390.051L391.109 390.065L391.438 384.417L391.192 384.403Z" fill="white"/>
<path d="M416.883 408.098L415.26 402.686L415.022 402.751L416.654 408.171L416.883 408.098Z" fill="white"/>
<path d="M412.204 386.663L411.98 386.744L413.901 392.066L414.124 391.985L412.204 386.663Z" fill="white"/>
<path d="M411.381 376.683L410.602 379.758L410.84 379.816L411.636 376.683L412.234 374.33L411.996 374.273L411.381 376.683Z" fill="white"/>
<path d="M409.717 376.683L409.036 379.357L409.274 379.414L409.963 376.683L410.668 373.936L410.43 373.879L409.717 376.683Z" fill="white"/>
<path d="M413.472 403.219L415.104 408.631L415.334 408.565L413.71 403.145L413.472 403.219Z" fill="white"/>
<path d="M410.671 387.235L410.448 387.316L412.369 392.638L412.592 392.557L410.671 387.235Z" fill="white"/>
<path d="M391.615 398.379L391.383 398.462L393.304 403.784L393.535 403.701L391.615 398.379Z" fill="white"/>
<path d="M404.149 360.8L405.526 358.627L405.379 358.397L403.944 360.677L404.149 360.8Z" fill="white"/>
<path d="M410.602 415.133L415.809 417.339L415.9 417.118L410.693 414.912L410.602 415.133Z" fill="white"/>
<path d="M396.293 356.651L396.08 356.528L393.268 361.431L393.481 361.554L396.293 356.651Z" fill="white"/>
<path d="M434.62 435.666L434.513 435.363L432.668 438.593L432.873 438.708L434.62 435.666Z" fill="white"/>
<path d="M429.331 440.832L429.093 440.807L428.454 446.424L428.7 446.449L429.331 440.832Z" fill="white"/>
<path d="M426.234 425.312L426.141 425.531L431.349 427.741L431.442 427.522L426.234 425.312Z" fill="white"/>
<path d="M433.201 434.854L433.915 433.616L433.816 433.304L432.923 434.854L431.242 437.79L431.455 437.905L433.201 434.854Z" fill="white"/>
<path d="M429.782 450.336L429.593 450.18L426.035 454.575L426.223 454.731L429.782 450.336Z" fill="white"/>
<path d="M431.184 425.637L426.855 423.801L426.764 424.022L431.291 425.941L431.184 425.637Z" fill="white"/>
<path d="M428.519 449.319L428.331 449.163L424.78 453.558L424.969 453.714L428.519 449.319Z" fill="white"/>
<path d="M422.664 416.043L422.427 415.986L421.164 421.496L421.402 421.554L422.664 416.043Z" fill="white"/>
<path d="M425.994 437.126L426.182 436.97L424.452 434.854L422.599 432.591L422.41 432.747L424.141 434.854L425.994 437.126Z" fill="white"/>
<path d="M394.67 362.235L394.883 362.358L397.695 357.446L397.482 357.331L394.67 362.235Z" fill="white"/>
<path d="M410.67 445.402L410.446 445.483L412.367 450.805L412.591 450.724L410.67 445.402Z" fill="white"/>
<path d="M432.078 455.543L431.84 455.477L431.406 457.183L431.676 457.109L432.078 455.543Z" fill="white"/>
<path d="M412.21 444.833L411.986 444.914L413.906 450.236L414.13 450.155L412.21 444.833Z" fill="white"/>
<path d="M419.762 398.897L421.927 399.816C421.927 399.709 421.845 399.602 421.812 399.504L419.852 398.684L419.762 398.897Z" fill="white"/>
<path d="M433.644 455.92L433.407 455.863L433.21 456.625L433.489 456.527L433.644 455.92Z" fill="white"/>
<path d="M405.576 439.208L401.279 437.388L401.459 437.724L405.477 439.43L405.576 439.208Z" fill="white"/>
<path d="M390.889 365.523L393.686 368.434L393.866 368.27L390.906 365.195L390.889 365.523Z" fill="white"/>
<path d="M415.547 385.482L417.466 387.819L417.195 387.114L415.76 385.326L415.547 385.482Z" fill="white"/>
<path d="M392.521 369.558L392.693 369.385L390.807 367.417L390.791 367.754L392.521 369.558Z" fill="white"/>
<path d="M423.64 407.319L425.272 412.739L425.502 412.665L423.878 407.253L423.64 407.319Z" fill="white"/>
<path d="M406.207 437.724L401 435.51L400.902 435.732L406.109 437.946L406.207 437.724Z" fill="white"/>
<path d="M400.172 423.038L399.975 422.89L396.539 427.376L396.728 427.523L400.172 423.038Z" fill="white"/>
<path d="M408.872 429.573L407.249 424.153L407.011 424.227L408.643 429.639L408.872 429.573Z" fill="white"/>
<path d="M407.322 430.041L405.699 424.621L405.461 424.694L407.093 430.106L407.322 430.041Z" fill="white"/>
<path d="M401.451 424.014L401.263 423.874L397.819 428.36L398.015 428.507L401.451 424.014Z" fill="white"/>
<path d="M393.186 379.324L393.423 379.389L394.186 376.683L394.957 373.953L394.727 373.879L393.932 376.683L393.186 379.324Z" fill="white"/>
<path d="M392.251 376.683L391.627 378.889L391.865 378.955L392.505 376.683L393.399 373.51L393.169 373.444L392.251 376.683Z" fill="white"/>
<path d="M396.293 414.822L396.08 414.699L393.268 419.61L393.481 419.725L396.293 414.822Z" fill="white"/>
<path d="M397.695 415.625L397.482 415.502L394.67 420.414L394.883 420.529L397.695 415.625Z" fill="white"/>
<path d="M410.676 398.036L407.864 402.94L408.069 403.063L410.881 398.151L410.676 398.036Z" fill="white"/>
<path d="M420.852 415.625L419.59 421.136L419.827 421.193L421.09 415.683L420.852 415.625Z" fill="white"/>
<path d="M422.574 401.579L419.221 400.16L419.13 400.381L422.689 401.89C422.648 401.8 422.615 401.685 422.574 401.579Z" fill="white"/>
<path d="M420.869 425.646L420.836 425.408L415.235 426.195L415.268 426.433L420.869 425.646Z" fill="white"/>
<path d="M423.854 431.566L423.665 431.722L426.232 434.854L427.248 436.101L427.437 435.945L426.543 434.854L423.854 431.566Z" fill="white"/>
<path d="M411.636 434.854L412.234 432.509L411.996 432.452L411.381 434.854L410.602 437.929L410.84 437.987L411.636 434.854Z" fill="white"/>
<path d="M410.066 416.424L409.973 416.643L415.181 418.852L415.274 418.634L410.066 416.424Z" fill="white"/>
<path d="M409.963 434.854L410.668 432.107L410.43 432.05L409.717 434.854L409.036 437.527L409.274 437.593L409.963 434.854Z" fill="white"/>
<path d="M427.092 446.269L427.724 440.652L427.486 440.627L426.846 446.244L427.092 446.269Z" fill="white"/>
<path d="M391.48 352.707C391.48 352.707 401.787 351.362 406.24 359.882C410.693 368.401 438.515 443.702 438.966 450.902C439.417 458.101 420.582 459.864 414.309 456.732C408.036 453.599 390.529 416.388 388.758 411.451" stroke="#263238" stroke-width="0.867092"/>
<path d="M329.168 455.362C329.168 455.362 308.102 452.673 304.511 453.116C300.919 453.558 284.79 464.325 284.79 464.325H330.48L329.168 455.362Z" fill="#CFCFCF" stroke="#263238" stroke-width="0.867092" stroke-linecap="round" stroke-linejoin="round"/>
<path d="M416.129 441.012L329.209 455.362L330.48 464.325H437.654C438.487 459.889 438.937 455.39 438.999 450.877C438.999 444.153 434.964 436.535 434.964 436.535" fill="#407BFF"/>
<path d="M423.329 455.813L424.96 461.225L425.19 461.16L423.566 455.74L423.329 455.813Z" fill="white"/>
<path d="M429.282 440.496L425.723 444.891L425.912 445.047L429.471 440.652L429.282 440.496Z" fill="white"/>
<path d="M424.469 443.874L424.657 444.03L428.208 439.635L428.019 439.479L424.469 443.874Z" fill="white"/>
<path d="M413.161 451.705L414.792 457.125L415.022 457.052L413.398 451.64L413.161 451.705Z" fill="white"/>
<path d="M426.74 460.692L425.108 455.272L424.878 455.346L426.51 460.758L426.74 460.692Z" fill="white"/>
<path d="M416.572 456.592L414.948 451.172L414.71 451.246L416.342 456.658L416.572 456.592Z" fill="white"/>
<path d="M431.534 445.797L430.142 451.28L430.38 451.341L431.773 445.857L431.534 445.797Z" fill="white"/>
<path d="M430.537 464.325H430.791L431.98 460.127L431.742 460.061L430.537 464.325Z" fill="white"/>
<path d="M410.381 463.398L410.291 463.62L411.947 464.325H412.57L410.381 463.398Z" fill="white"/>
<path d="M433.079 446.155L431.686 451.639L431.924 451.699L433.318 446.216L433.079 446.155Z" fill="white"/>
<path d="M391.296 446.865L391.064 446.948L392.985 452.27L393.216 452.187L391.296 446.865Z" fill="white"/>
<path d="M418.819 448.876L424.017 451.082L424.116 450.861L418.909 448.647L418.819 448.876Z" fill="white"/>
<path d="M420.541 464.12L420.491 464.325H420.737L420.778 464.169L420.541 464.12Z" fill="white"/>
<path d="M419.541 447.181L419.448 447.4L424.657 449.609L424.75 449.391L419.541 447.181Z" fill="white"/>
<path d="M395.842 446.088L399.426 450.467L399.614 450.311L396.031 445.932L395.842 446.088Z" fill="white"/>
<path d="M400.861 449.286L397.277 444.916L397.097 445.063L400.672 449.442L400.861 449.286Z" fill="white"/>
<path d="M435.957 440.274L436.457 439.84L436.358 439.602L435.801 440.094L435.957 440.274Z" fill="white"/>
<path d="M395.685 453.439L394.14 458.882L394.377 458.949L395.921 453.506L395.685 453.439Z" fill="white"/>
<path d="M436.998 451.918L438.974 452.369C438.974 452.287 438.974 452.205 438.974 452.123L437.039 451.681L436.998 451.918Z" fill="white"/>
<path d="M406.658 462.578L405.551 464.325H405.838L406.863 462.701L406.658 462.578Z" fill="white"/>
<path d="M438.917 453.763L436.695 453.263L436.637 453.493L438.9 454.009C438.909 453.927 438.917 453.845 438.917 453.763Z" fill="white"/>
<path d="M437.014 441.496L437.072 441.447L436.982 441.201L436.859 441.316L437.014 441.496Z" fill="white"/>
<path d="M406.685 454.723L401.498 456.985L401.597 457.21L406.783 454.949L406.685 454.723Z" fill="white"/>
<path d="M405.494 461.84L405.289 461.709L403.632 464.325H403.919L405.494 461.84Z" fill="white"/>
<path d="M397.257 453.922L395.713 459.365L395.95 459.433L397.494 453.989L397.257 453.922Z" fill="white"/>
<path d="M407.348 456.185L402.162 458.447L402.261 458.672L407.447 456.41L407.348 456.185Z" fill="white"/>
<path d="M410.57 446.646L410.365 446.523L407.552 451.435L407.757 451.558L410.57 446.646Z" fill="white"/>
<path d="M406.15 450.631L406.355 450.746L409.167 445.842L408.954 445.719L406.15 450.631Z" fill="white"/>
<path d="M348.517 454.728L343.33 456.989L343.429 457.215L348.615 454.953L348.517 454.728Z" fill="white"/>
<path d="M337.811 463.308L337.598 463.193L336.95 464.325H337.229L337.811 463.308Z" fill="white"/>
<path d="M336.204 458.954L337.614 453.968L337.352 454.009L335.974 458.888L336.204 458.954Z" fill="white"/>
<path d="M339.213 464.112L339 463.997L338.811 464.325H339.09L339.213 464.112Z" fill="white"/>
<path d="M366.478 449.59L366.576 449.368L366.265 449.245L365.822 449.311L366.478 449.59Z" fill="white"/>
<path d="M372.366 464.325H372.62L373.801 460.127L373.571 460.061L372.366 464.325Z" fill="white"/>
<path d="M374.489 447.884L373.53 451.672L373.76 451.738L374.752 447.843L374.489 447.884Z" fill="white"/>
<path d="M347.323 461.84L347.118 461.709L345.461 464.325H345.748L347.323 461.84Z" fill="white"/>
<path d="M348.692 462.701L348.487 462.578L347.372 464.325H347.659L348.692 462.701Z" fill="white"/>
<path d="M397.171 463.997L396.982 464.325H397.261L397.384 464.112L397.171 463.997Z" fill="white"/>
<path d="M433.3 460.504L432.218 464.325H432.472L433.53 460.569L433.3 460.504Z" fill="white"/>
<path d="M389.773 447.426L389.542 447.509L391.463 452.831L391.695 452.748L389.773 447.426Z" fill="white"/>
<path d="M375.121 460.504L374.047 464.325H374.293L375.359 460.569L375.121 460.504Z" fill="white"/>
<path d="M352.21 463.398L352.112 463.62L353.776 464.325H354.391L352.21 463.398Z" fill="white"/>
<path d="M395.982 463.308L395.768 463.193L395.121 464.325H395.399L395.982 463.308Z" fill="white"/>
<path d="M337.832 453.544L336.305 458.976L336.541 459.042L338.069 453.61L337.832 453.544Z" fill="white"/>
<path d="M384.477 457.658L384.248 457.568L382.181 462.833L382.403 462.923L384.477 457.658Z" fill="white"/>
<path d="M349.162 456.206L343.976 458.468L344.074 458.693L349.261 456.432L349.162 456.206Z" fill="white"/>
<path d="M385.978 458.241L385.748 458.159L383.682 463.423L383.911 463.505L385.978 458.241Z" fill="white"/>
<path d="M378.467 453.501L380.976 454.067L383.977 454.739L384.034 454.501L380.976 453.813L378.516 453.263L378.467 453.501Z" fill="white"/>
<path d="M384.338 453.165L384.395 452.927L380.976 452.156L378.876 451.681L378.819 451.918L380.976 452.402L384.338 453.165Z" fill="white"/>
<path d="M372.202 451.336L373.013 448.13L372.751 448.171L371.964 451.279L372.202 451.336Z" fill="white"/>
<path d="M365.945 450.861L363.288 449.729L362.845 449.803L365.847 451.082L365.945 450.861Z" fill="white"/>
<path d="M358.163 456.658L358.401 456.592L356.769 451.172L356.54 451.246L358.163 456.658Z" fill="white"/>
<path d="M356.851 457.052L355.22 451.64L354.99 451.705L356.622 457.125L356.851 457.052Z" fill="white"/>
<path d="M365.158 455.813L366.79 461.225L367.019 461.16L365.388 455.74L365.158 455.813Z" fill="white"/>
<path d="M362.362 464.12L362.312 464.325H362.567L362.599 464.169L362.362 464.12Z" fill="white"/>
<path d="M368.569 460.692L366.937 455.272L366.708 455.346L368.331 460.758L368.569 460.692Z" fill="white"/>
<path d="M416.129 441.012L329.209 455.362L330.48 464.325H437.654C438.487 459.889 438.937 455.39 438.999 450.877C438.999 444.153 434.964 436.535 434.964 436.535" stroke="#263238" stroke-width="0.867092"/>
<path d="M435.243 462.874H327.2L323.657 403.44C323.561 402.861 323.592 402.268 323.748 401.702C323.904 401.137 324.181 400.611 324.56 400.164C324.939 399.716 325.411 399.356 325.944 399.109C326.476 398.862 327.056 398.734 327.643 398.733H434.784C435.371 398.732 435.952 398.859 436.485 399.106C437.018 399.352 437.491 399.712 437.87 400.161C438.25 400.609 438.527 401.135 438.682 401.701C438.837 402.267 438.867 402.861 438.769 403.44L435.243 462.874Z" fill="#263238" stroke="#263238" stroke-width="0.867092" stroke-linecap="round" stroke-linejoin="round"/>
<path d="M332.505 400.16H434.005C434.578 400.154 435.146 400.273 435.668 400.509C436.19 400.745 436.654 401.093 437.028 401.527C437.403 401.961 437.677 402.472 437.833 403.023C437.99 403.574 438.024 404.153 437.933 404.719" stroke="white" stroke-width="0.867092" stroke-linecap="round" stroke-linejoin="round"/>
<path d="M324.461 403.809C324.538 402.811 324.99 401.88 325.727 401.203C326.463 400.526 327.429 400.153 328.43 400.16" stroke="white" stroke-width="0.867092" stroke-linecap="round" stroke-linejoin="round"/>
<path d="M435.694 457.084H326.732V462.874H435.694V457.084Z" fill="white" stroke="#263238" stroke-width="0.867092" stroke-linecap="round" stroke-linejoin="round"/>
<path d="M388.552 431.041C388.552 433.6 385.092 435.674 380.828 435.674C376.564 435.674 373.112 433.6 373.112 431.041C373.112 428.483 376.572 426.408 380.828 426.408C385.084 426.408 388.552 428.483 388.552 431.041Z" fill="white" stroke="#263238" stroke-width="0.867092" stroke-linecap="round" stroke-linejoin="round"/>
<path d="M219.731 456.904C217.441 456.79 215.192 456.254 213.097 455.321C212.563 455.065 212.15 454.612 211.942 454.057C211.735 453.503 211.749 452.889 211.983 452.346C212.217 451.802 212.652 451.369 213.197 451.138C213.742 450.907 214.356 450.896 214.909 451.107C217.025 452.009 219.739 452.566 220.469 452.255C221.797 450.754 223.855 441.693 221.199 437.372C221.059 437.067 220.849 436.8 220.585 436.593C220.321 436.386 220.011 436.245 219.682 436.183C218.173 435.978 215.942 437.527 215.155 438.265C214.706 438.656 214.124 438.857 213.53 438.826C212.935 438.795 212.377 438.535 211.971 438.1C211.565 437.665 211.343 437.09 211.353 436.495C211.363 435.901 211.603 435.333 212.023 434.912C212.441 434.518 216.246 431.099 220.288 431.632C221.292 431.781 222.248 432.16 223.082 432.737C223.917 433.314 224.607 434.075 225.102 434.961C229.013 441.324 226.34 453.46 223.331 455.838C222.286 456.59 221.017 456.966 219.731 456.904Z" fill="#263238" stroke="#263238" stroke-width="0.867092" stroke-linecap="round" stroke-linejoin="round"/>
<path d="M215.672 429.762H190.375V463.341H215.672V429.762Z" fill="#263238" stroke="#263238" stroke-width="0.867092" stroke-linecap="round" stroke-linejoin="round"/>
<path d="M192.671 427.925C192.671 427.925 192.671 425.129 197.796 422.333C202.921 419.537 205.717 415.346 202.921 407.425C200.125 399.504 200.592 393.912 206.201 389.246" stroke="#263238" stroke-width="0.867092" stroke-linecap="round" stroke-linejoin="round"/>
<path d="M193.835 398.118C194.098 394.715 195.615 391.837 198.755 389.246" stroke="#263238" stroke-width="0.867092" stroke-linecap="round" stroke-linejoin="round"/>
<path d="M195.467 407.425C194.955 406.012 194.542 404.566 194.229 403.096" stroke="#263238" stroke-width="0.867092" stroke-linecap="round" stroke-linejoin="round"/>
<path d="M213.483 410.156C213.286 409.229 213.026 408.316 212.704 407.425L212.277 406.162" stroke="#263238" stroke-width="0.867092" stroke-linecap="round" stroke-linejoin="round"/>
<path d="M202.454 427.925C202.454 427.925 202.454 425.129 207.579 422.333C210.941 420.496 213.319 418.061 213.737 414.371" stroke="#263238" stroke-width="0.867092" stroke-linecap="round" stroke-linejoin="round"/>
<path d="M548.625 462.767H166.964V471.213H548.625V462.767Z" fill="#263238"/>
</svg>
