<svg width="24" height="24" viewBox="0 0 24 24" fill="none" xmlns="http://www.w3.org/2000/svg">
<path d="M21.4883 15.4688C21.5629 15.5983 21.583 15.7522 21.5442 15.8965C21.5053 16.0408 21.4107 16.1638 21.2812 16.2384C21.1516 16.313 20.9977 16.3331 20.8534 16.2943C20.7091 16.2554 20.5861 16.1608 20.5115 16.0313L18.6365 12.7425C17.5277 13.5198 16.2897 14.094 14.9802 14.4384L15.5587 17.9072C15.5709 17.9801 15.5686 18.0547 15.552 18.1267C15.5354 18.1987 15.5047 18.2667 15.4618 18.3269C15.4189 18.387 15.3645 18.4381 15.3018 18.4773C15.2391 18.5164 15.1694 18.5428 15.0965 18.555C15.0654 18.5598 15.0341 18.5623 15.0027 18.5625C14.8699 18.5624 14.7414 18.5152 14.64 18.4294C14.5386 18.3436 14.4708 18.2247 14.4487 18.0938L13.8749 14.6663C12.6325 14.8614 11.3673 14.8614 10.1249 14.6663L9.5549 18.0938C9.53274 18.2249 9.46483 18.3439 9.36322 18.4297C9.26162 18.5156 9.1329 18.5626 8.9999 18.5625C8.96851 18.5623 8.93718 18.5598 8.90615 18.555C8.83325 18.5427 8.76348 18.5162 8.70083 18.477C8.63818 18.4377 8.58389 18.3865 8.54105 18.3262C8.49821 18.266 8.46767 18.1979 8.45117 18.1258C8.43467 18.0538 8.43254 17.9791 8.4449 17.9063L9.02334 14.4375C7.71381 14.0931 6.47584 13.5189 5.36709 12.7416L3.48834 16.0313C3.41375 16.1608 3.29075 16.2554 3.14641 16.2943C3.00206 16.3331 2.8482 16.313 2.71866 16.2384C2.58911 16.1638 2.49451 16.0408 2.45565 15.8965C2.4168 15.7522 2.43688 15.5983 2.51147 15.4688L4.46616 12.0488C3.77076 11.462 3.13316 10.8099 2.56209 10.1016C2.46836 9.98545 2.42458 9.83685 2.44041 9.68847C2.45623 9.54008 2.53035 9.40405 2.64647 9.31031C2.76258 9.21658 2.91118 9.17281 3.05957 9.18863C3.20796 9.20445 3.34398 9.27858 3.43772 9.39469C5.01928 11.3541 7.78772 13.6875 11.9999 13.6875C16.2121 13.6875 18.9805 11.3541 20.5621 9.39657C20.6558 9.28045 20.7919 9.20633 20.9402 9.1905C21.0886 9.17468 21.2372 9.21845 21.3533 9.31219C21.4695 9.40593 21.5436 9.54195 21.5594 9.69034C21.5752 9.83873 21.5315 9.98732 21.4377 10.1034C20.8666 10.8118 20.2291 11.4638 19.5337 12.0506L21.4883 15.4688Z" fill="#666666"/>
</svg>
