<svg width="111" height="110" viewBox="0 0 111 110" fill="none" xmlns="http://www.w3.org/2000/svg">
<g clip-path="url(#clip0_85_4830)">
<path d="M110.3 83.9487H0.789062V84.0035H110.3V83.9487Z" fill="#EBEBEB"/>
<path d="M15.7968 86.0342H12.2793V86.0889H15.7968V86.0342Z" fill="#EBEBEB"/>
<path d="M49.9967 85.4399H38.2725V85.4947H49.9967V85.4399Z" fill="#EBEBEB"/>
<path d="M23.9552 88.0684H16.0156V88.1231H23.9552V88.0684Z" fill="#EBEBEB"/>
<path d="M93.2887 85.4116H83.8291V85.4664H93.2887V85.4116Z" fill="#EBEBEB"/>
<path d="M96.6266 85.4116H95.2402V85.4664H96.6266V85.4116Z" fill="#EBEBEB"/>
<path d="M82.0219 86.7764H70.2188V86.8311H82.0219V86.7764Z" fill="#EBEBEB"/>
<path d="M52.6976 74.1807H10.4066C10.0753 74.1801 9.75779 74.0481 9.52373 73.8136C9.28966 73.5792 9.1582 73.2614 9.1582 72.9301V13.4809C9.16109 13.1515 9.29382 12.8365 9.52757 12.6044C9.76132 12.3723 10.0772 12.2418 10.4066 12.2412H52.6976C53.0293 12.2412 53.3474 12.373 53.582 12.6075C53.8165 12.842 53.9483 13.1601 53.9483 13.4918V72.9301C53.9483 73.2618 53.8165 73.5799 53.582 73.8144C53.3474 74.0489 53.0293 74.1807 52.6976 74.1807ZM10.4066 12.285C10.0898 12.2856 9.78624 12.4118 9.56244 12.636C9.33865 12.8603 9.21296 13.1641 9.21296 13.4809V72.9301C9.21296 73.2469 9.33865 73.5507 9.56244 73.7749C9.78624 73.9991 10.0898 74.1254 10.4066 74.1259H52.6976C53.0146 74.1254 53.3185 73.9992 53.5426 73.775C53.7667 73.5509 53.8929 73.2471 53.8935 72.9301V13.4809C53.8929 13.1639 53.7667 12.8601 53.5426 12.6359C53.3185 12.4118 53.0146 12.2856 52.6976 12.285H10.4066Z" fill="#EBEBEB"/>
<path d="M100.074 74.1807H57.7809C57.4494 74.1801 57.1316 74.0482 56.8972 73.8138C56.6628 73.5793 56.5309 73.2616 56.5303 72.9301V13.4809C56.5337 13.1513 56.6669 12.8363 56.901 12.6043C57.1352 12.3722 57.4513 12.2418 57.7809 12.2412H100.074C100.403 12.2424 100.718 12.3731 100.952 12.6052C101.185 12.8372 101.317 13.1519 101.32 13.4809V72.9301C101.32 73.261 101.189 73.5784 100.956 73.8128C100.722 74.0473 100.405 74.1795 100.074 74.1807ZM57.7809 12.285C57.4639 12.2856 57.1601 12.4118 56.9359 12.6359C56.7118 12.8601 56.5856 13.1639 56.585 13.4809V72.9301C56.5856 73.2471 56.7118 73.5509 56.9359 73.775C57.1601 73.9992 57.4639 74.1254 57.7809 74.1259H100.074C100.391 74.1254 100.695 73.9992 100.919 73.775C101.143 73.5509 101.269 73.2471 101.27 72.9301V13.4809C101.269 13.1639 101.143 12.8601 100.919 12.6359C100.695 12.4118 100.391 12.2856 100.074 12.285H57.7809Z" fill="#EBEBEB"/>
<path d="M87.5988 65.6406H86.1445V83.9487H87.5988V65.6406Z" fill="#F5F5F5"/>
<path d="M88.2318 65.6406H86.9658V83.9487H88.2318V65.6406Z" fill="#F0F0F0"/>
<path d="M53.676 65.6406H52.2217V83.9487H53.676V65.6406Z" fill="#F5F5F5"/>
<path d="M54.3089 65.6406H53.043V83.9487H54.3089V65.6406Z" fill="#F0F0F0"/>
<path d="M93.1115 65.6406H91.6572V83.9487H93.1115V65.6406Z" fill="#F5F5F5"/>
<path d="M93.7445 65.6406H92.4785V83.9487H93.7445V65.6406Z" fill="#F0F0F0"/>
<path d="M59.1887 65.6406H57.7344V83.9487H59.1887V65.6406Z" fill="#F5F5F5"/>
<path d="M52.2241 65.9868H93.7441V65.2925H52.2241V65.9868Z" fill="#F0F0F0"/>
<path d="M52.2215 65.9868H58.5557V65.2925H52.2215V65.9868Z" fill="#E6E6E6"/>
<path d="M59.8216 65.6406H58.5557V83.9487H59.8216V65.6406Z" fill="#F0F0F0"/>
<path d="M72.9876 51.959H69.0605V65.2931H72.9876V51.959Z" fill="#EBEBEB"/>
<path d="M83.6361 65.2923H70.5999L68.6309 49.687H81.6671L83.6361 65.2923Z" fill="#E0E0E0"/>
<path d="M84.4032 65.2923H70.9378L68.9688 49.687H82.4342L84.4032 65.2923Z" fill="#F0F0F0"/>
<path d="M76.8493 65.2923H74.2363L74.9722 49.687H77.5852L76.8493 65.2923Z" fill="#FAFAFA"/>
<path d="M79.8428 65.2923H77.2715L78.0074 49.687H80.5787L79.8428 65.2923Z" fill="#FAFAFA"/>
<path d="M95.177 16.0762H61.3096V42.5757H95.177V16.0762Z" fill="#E6E6E6"/>
<path d="M96.1926 16.0762H61.7842V42.5757H96.1926V16.0762Z" fill="#F0F0F0"/>
<path d="M95.177 42.5757H61.3096V43.4627H95.177V42.5757Z" fill="#E6E6E6"/>
<path d="M96.7336 42.5757H62.3252V43.4627H96.7336V42.5757Z" fill="#F0F0F0"/>
<path d="M94.7715 41.152V17.4976L63.2082 17.4976V41.152H94.7715Z" fill="#FAFAFA"/>
<path d="M80.4805 41.1517L82.7583 17.4995H86.7007L84.4229 41.1517H80.4805Z" fill="white"/>
<path d="M70.5322 41.1517L72.8101 17.4995H76.7525L74.4746 41.1517H70.5322Z" fill="white"/>
<path d="M63.8671 33.1357C63.8384 33.1351 63.8111 33.1233 63.7911 33.1028C63.771 33.0824 63.7598 33.0548 63.7598 33.0262V18.424C63.7598 18.3949 63.7713 18.3671 63.7918 18.3465C63.8124 18.326 63.8402 18.3145 63.8693 18.3145C63.8983 18.3145 63.9262 18.326 63.9467 18.3465C63.9672 18.3671 63.9788 18.3949 63.9788 18.424V33.0262C63.9788 33.0407 63.9759 33.0552 63.9702 33.0686C63.9646 33.082 63.9563 33.0942 63.9459 33.1044C63.9355 33.1146 63.9232 33.1226 63.9097 33.128C63.8961 33.1334 63.8816 33.136 63.8671 33.1357Z" fill="#F0F0F0"/>
<path d="M85.2676 41.1517L87.5454 17.4995H89.0829L86.8051 41.1517H85.2676Z" fill="white"/>
<path d="M94.7715 41.1539V17.4995H94.5919V41.1539H94.7715Z" fill="#E6E6E6"/>
<path opacity="0.5" d="M96.5301 20.0772H62.6627L62.5312 18.0513H96.3987L96.5301 20.0772Z" fill="#E0E0E0"/>
<path opacity="0.5" d="M96.5301 23.4093H62.6627L62.5312 21.3833H96.3987L96.5301 23.4093Z" fill="#E0E0E0"/>
<path opacity="0.5" d="M96.5301 26.7403H62.6627L62.5312 24.7144H96.3987L96.5301 26.7403Z" fill="#E0E0E0"/>
<path opacity="0.5" d="M96.5301 30.0714H62.6627L62.5312 28.0454H96.3987L96.5301 30.0714Z" fill="#E0E0E0"/>
<path opacity="0.5" d="M96.5301 33.4005H62.6627L62.5312 31.3745H96.3987L96.5301 33.4005Z" fill="#E0E0E0"/>
<path opacity="0.5" d="M96.5301 36.732H62.6627L62.5312 34.7061H96.3987L96.5301 36.732Z" fill="#E0E0E0"/>
<path opacity="0.5" d="M96.5301 21.7442H62.6627L62.5312 19.7183H96.3987L96.5301 21.7442Z" fill="#E0E0E0"/>
<path opacity="0.5" d="M96.5301 25.0733H62.6627L62.5312 23.0474H96.3987L96.5301 25.0733Z" fill="#E0E0E0"/>
<path opacity="0.5" d="M96.5301 28.4049H62.6627L62.5312 26.3789H96.3987L96.5301 28.4049Z" fill="#E0E0E0"/>
<path opacity="0.5" d="M96.5301 31.7364H62.6627L62.5312 29.7104H96.3987L96.5301 31.7364Z" fill="#E0E0E0"/>
<path opacity="0.5" d="M96.5301 35.0679H62.6627L62.5312 33.042H96.3987L96.5301 35.0679Z" fill="#E0E0E0"/>
<path opacity="0.5" d="M96.5301 38.3987H62.6627L62.5312 36.3706H96.3987L96.5301 38.3987Z" fill="#E0E0E0"/>
<path d="M22.516 29.2285H27.1133C27.6963 29.2285 28.1689 28.7559 28.1689 28.1728V26.4075C28.1689 25.8245 27.6963 25.3518 27.1133 25.3518H22.516C21.9329 25.3518 21.4603 25.8245 21.4603 26.4075V28.1728C21.4603 28.7559 21.9329 29.2285 22.516 29.2285Z" fill="#F5F5F5"/>
<path d="M22.516 25.3491H27.1133C27.6963 25.3491 28.1689 24.8765 28.1689 24.2934V22.5281C28.1689 21.9451 27.6963 21.4724 27.1133 21.4724H22.516C21.9329 21.4724 21.4603 21.9451 21.4603 22.5281V24.2934C21.4603 24.8765 21.9329 25.3491 22.516 25.3491Z" fill="#F5F5F5"/>
<path d="M24.0185 21.4731H25.6108C25.8128 21.4731 25.9766 21.3094 25.9766 21.1074V20.4963C25.9766 20.2943 25.8128 20.1305 25.6108 20.1305H24.0185C23.8165 20.1305 23.6527 20.2943 23.6527 20.4963V21.1074C23.6527 21.3094 23.8165 21.4731 24.0185 21.4731Z" fill="#E0E0E0"/>
<path d="M22.516 33.103H27.1133C27.6963 33.103 28.1689 32.6304 28.1689 32.0473V30.282C28.1689 29.699 27.6963 29.2263 27.1133 29.2263H22.516C21.9329 29.2263 21.4603 29.699 21.4603 30.282V32.0473C21.4603 32.6304 21.9329 33.103 22.516 33.103Z" fill="#F5F5F5"/>
<path d="M46.8977 30.4199C46.8977 30.4199 46.6786 33.1139 38.1609 33.1139C29.6431 33.1139 29.4219 30.4199 29.4219 30.4199H46.8977Z" fill="#F0F0F0"/>
<path d="M20.7727 33.6504H14.0225V81.4476H20.7727V33.6504Z" fill="#F0F0F0"/>
<path d="M48.6034 81.4478H15.3164V83.949H48.6034V81.4478Z" fill="#F0F0F0"/>
<path d="M20.7726 81.4453H49.9004L49.9004 33.6481L20.7726 33.6481L20.7726 81.4453Z" fill="#F5F5F5"/>
<path d="M23.4252 61.9131H47.2461V50.6334H23.4252V61.9131Z" fill="#F0F0F0"/>
<path d="M23.4252 75.7095H47.2461V64.4298H23.4252V75.7095Z" fill="#F0F0F0"/>
<path d="M23.4252 79.7764H47.2461V78.057H23.4252V79.7764Z" fill="#F0F0F0"/>
<path d="M41.3897 51.5269H29.2821C29.0313 51.5263 28.791 51.4264 28.6137 51.2491C28.4364 51.0718 28.3365 50.8315 28.3359 50.5807C28.3371 50.3303 28.4372 50.0906 28.6145 49.9137C28.7917 49.7369 29.0317 49.6373 29.2821 49.6367H41.3897C41.64 49.6373 41.88 49.7369 42.0573 49.9137C42.2346 50.0906 42.3347 50.3303 42.3358 50.5807C42.3353 50.8315 42.2354 51.0718 42.0581 51.2491C41.8808 51.4264 41.6404 51.5263 41.3897 51.5269Z" fill="#F5F5F5"/>
<path d="M23.4252 48.1187H47.2461V36.839H23.4252V48.1187Z" fill="#F0F0F0"/>
<path d="M41.3897 37.7327H29.2821C29.0313 37.7321 28.791 37.6322 28.6137 37.4549C28.4364 37.2776 28.3365 37.0373 28.3359 36.7865C28.3365 36.5357 28.4364 36.2954 28.6137 36.1181C28.791 35.9408 29.0313 35.8409 29.2821 35.8403H41.3897C41.6404 35.8409 41.8808 35.9408 42.0581 36.1181C42.2354 36.2954 42.3353 36.5357 42.3358 36.7865C42.3353 37.0373 42.2354 37.2776 42.0581 37.4549C41.8808 37.6322 41.6404 37.7321 41.3897 37.7327Z" fill="#F5F5F5"/>
<path d="M41.3897 65.3235H29.2821C29.0313 65.3229 28.791 65.2231 28.6137 65.0457C28.4364 64.8684 28.3365 64.6281 28.3359 64.3773C28.3365 64.1266 28.4364 63.8862 28.6137 63.7089C28.791 63.5316 29.0313 63.4317 29.2821 63.4312H41.3897C41.6404 63.4317 41.8808 63.5316 42.0581 63.7089C42.2354 63.8862 42.3353 64.1266 42.3358 64.3773C42.3353 64.6281 42.2354 64.8684 42.0581 65.0457C41.8808 65.2231 41.6404 65.3229 41.3897 65.3235Z" fill="#F5F5F5"/>
<path d="M50.7985 33.105H20.7705V33.6503H50.7985V33.105Z" fill="#F0F0F0"/>
<path d="M13.0804 33.6504H20.7725V33.105H13.0804V33.6504Z" fill="#E6E6E6"/>
<path d="M55.5443 93.8405C78.9978 93.8405 98.0106 92.7305 98.0106 91.3612C98.0106 89.9919 78.9978 88.8818 55.5443 88.8818C32.0909 88.8818 13.0781 89.9919 13.0781 91.3612C13.0781 92.7305 32.0909 93.8405 55.5443 93.8405Z" fill="#F5F5F5"/>
<path d="M97.6102 69.6491H13.4794L11.9287 68.1816H99.1609L97.6102 69.6491Z" fill="#407BFF"/>
<path opacity="0.5" d="M97.6102 69.6491H13.4794L11.9287 68.1816H99.1609L97.6102 69.6491Z" fill="white"/>
<path d="M90.3955 70.4401H20.6939L19.4082 69.6494H91.6812L90.3955 70.4401Z" fill="#407BFF"/>
<path opacity="0.5" d="M90.3955 70.4401H20.6939L19.4082 69.6494H91.6812L90.3955 70.4401Z" fill="black"/>
<path d="M20.1416 91.3605H19.1406L22.2442 70.4395H24.476L20.1416 91.3605Z" fill="#407BFF"/>
<path opacity="0.5" d="M20.1416 91.3605H19.1406L22.2442 70.4395H24.476L20.1416 91.3605Z" fill="black"/>
<path d="M25.5603 91.3605H24.5615L27.6651 70.4395H29.8969L25.5603 91.3605Z" fill="#407BFF"/>
<path opacity="0.5" d="M25.5603 91.3605H24.5615L27.6651 70.4395H29.8969L25.5603 91.3605Z" fill="black"/>
<path d="M90.9477 91.3605H91.9487L88.8451 70.4395H86.6133L90.9477 91.3605Z" fill="#407BFF"/>
<path opacity="0.5" d="M90.9477 91.3605H91.9487L88.8451 70.4395H86.6133L90.9477 91.3605Z" fill="black"/>
<path d="M85.529 91.3605H86.5278L83.4242 70.4395H81.1924L85.529 91.3605Z" fill="#407BFF"/>
<path opacity="0.5" d="M85.529 91.3605H86.5278L83.4242 70.4395H81.1924L85.529 91.3605Z" fill="black"/>
<path d="M49.911 21.0328L52.7385 21.2234C52.8482 21.2302 52.9539 21.2668 53.0443 21.3293C53.1346 21.3919 53.2061 21.4779 53.251 21.5782L53.5489 22.2353C53.6135 22.3771 53.7305 22.4886 53.8753 22.5463C54.2299 22.6921 54.5739 22.8626 54.9047 23.0566C55.0367 23.1342 55.1931 23.1592 55.3427 23.1267L56.0523 22.9602C56.1593 22.9356 56.2709 22.9402 56.3754 22.9738C56.4798 23.0073 56.5733 23.0685 56.6459 23.1508L58.512 25.2841C58.5844 25.3671 58.6328 25.4682 58.6521 25.5766C58.6714 25.685 58.6608 25.7967 58.6215 25.8995L58.363 26.5785C58.3085 26.7247 58.3124 26.8863 58.374 27.0297C58.5221 27.3857 58.645 27.7516 58.7419 28.1248C58.7794 28.276 58.8745 28.4065 59.007 28.4884L59.6246 28.8716C59.7181 28.9293 59.794 29.0114 59.8442 29.109C59.8944 29.2067 59.9169 29.3162 59.9093 29.4258L59.721 32.2555C59.7139 32.3651 59.6768 32.4707 59.6138 32.5606C59.5509 32.6506 59.4645 32.7216 59.364 32.7659L58.7069 33.0637C58.5659 33.1296 58.4549 33.2461 58.3959 33.3901C58.2517 33.7451 58.0819 34.0891 57.8878 34.4195C57.8095 34.5513 57.7844 34.7079 57.8177 34.8575L57.9819 35.565C58.0073 35.6719 58.003 35.7837 57.9694 35.8883C57.9358 35.9929 57.8743 36.0864 57.7914 36.1585L55.6581 38.0246C55.5756 38.097 55.4748 38.1455 55.3667 38.1648C55.2586 38.1841 55.1473 38.1735 55.0448 38.1341L54.3637 37.8757C54.2194 37.8187 54.0589 37.8187 53.9147 37.8757C53.5584 38.0231 53.1926 38.146 52.8196 38.2436C52.6688 38.2819 52.5386 38.3768 52.456 38.5086L52.0727 39.1263C52.0145 39.2197 51.932 39.2956 51.834 39.3458C51.736 39.3959 51.6262 39.4185 51.5164 39.411L48.6888 39.2226C48.5793 39.2154 48.4738 39.1786 48.3835 39.1161C48.2933 39.0536 48.2216 38.9678 48.1763 38.8678L47.8784 38.2108C47.8138 38.0689 47.6969 37.9575 47.5521 37.8997C47.1974 37.754 46.8534 37.5834 46.5227 37.3894C46.3908 37.3116 46.2343 37.2866 46.0846 37.3193L45.3772 37.4858C45.2703 37.5109 45.1585 37.5065 45.054 37.4729C44.9494 37.4394 44.8559 37.3779 44.7836 37.2952L42.9154 35.162C42.8434 35.0787 42.7953 34.9776 42.776 34.8693C42.7567 34.761 42.767 34.6495 42.8059 34.5465L43.0643 33.8675C43.1189 33.7221 43.115 33.5612 43.0534 33.4185C42.9057 33.0624 42.7828 32.6965 42.6854 32.3234C42.648 32.1723 42.5529 32.0418 42.4204 31.9599L41.8028 31.5766C41.7093 31.5189 41.6334 31.4368 41.5832 31.3392C41.533 31.2415 41.5105 31.132 41.518 31.0224L41.7064 28.1927C41.7141 28.083 41.7513 27.9774 41.8142 27.8872C41.877 27.7969 41.9631 27.7254 42.0634 27.6802L42.7205 27.3845C42.8623 27.3199 42.9738 27.203 43.0315 27.0581C43.1772 26.7028 43.3478 26.3581 43.5418 26.0265C43.62 25.8948 43.6457 25.7384 43.6141 25.5885L43.4476 24.8811C43.4225 24.7742 43.4269 24.6624 43.4605 24.5578C43.4941 24.4533 43.5555 24.3598 43.6382 24.2875L45.7714 22.4214C45.8539 22.3489 45.9545 22.3001 46.0626 22.2804C46.1706 22.2608 46.282 22.2709 46.3847 22.3097L47.0659 22.5682C47.2099 22.6263 47.3708 22.6263 47.5149 22.5682C47.8707 22.4198 48.2367 22.2968 48.61 22.2002C48.7599 22.1615 48.8897 22.0676 48.9735 21.9374L49.3568 21.3198C49.4147 21.2264 49.4968 21.1504 49.5943 21.0999C49.6919 21.0494 49.8013 21.0262 49.911 21.0328ZM45.3662 29.8748C45.2954 30.9334 45.54 31.9892 46.0693 32.9088C46.5985 33.8283 47.3886 34.5702 48.3396 35.0407C49.2905 35.5112 50.3596 35.6891 51.4117 35.5519C52.4638 35.4147 53.4515 34.9686 54.25 34.27C55.0485 33.5714 55.6219 32.6517 55.8977 31.6271C56.1734 30.6026 56.1391 29.5193 55.7991 28.5143C55.4592 27.5093 54.8288 26.6277 53.9877 25.9809C53.1466 25.3342 52.1326 24.9514 51.074 24.8811C49.6551 24.7873 48.257 25.2606 47.1868 26.1969C46.1166 27.1332 45.4618 28.456 45.3662 29.8748Z" fill="#407BFF"/>
<path d="M61.1179 32.9872L62.0882 32.6587C62.1395 32.6418 62.1944 32.639 62.2472 32.6506C62.3 32.6621 62.3487 32.6876 62.3883 32.7244L62.5482 32.8777C62.6042 32.9279 62.6766 32.9559 62.7519 32.9565C62.8852 32.9564 63.0183 32.9652 63.1505 32.9828C63.1886 32.989 63.2277 32.9876 63.2653 32.9785C63.3029 32.9695 63.3383 32.9531 63.3695 32.9302L63.5491 32.801C63.5934 32.7699 63.6452 32.7513 63.6991 32.7471C63.753 32.7428 63.8071 32.7531 63.8557 32.7769L64.7734 33.2325C64.8217 33.2562 64.8627 33.2925 64.892 33.3376C64.9213 33.3828 64.9379 33.435 64.9399 33.4887V33.7078C64.9428 33.7835 64.974 33.8555 65.0275 33.9093C65.122 34.0031 65.2098 34.1033 65.2903 34.2093C65.3362 34.269 65.4025 34.3096 65.4765 34.3232L65.6955 34.3583C65.7487 34.3672 65.7985 34.3904 65.8394 34.4256C65.8803 34.4607 65.9108 34.5063 65.9277 34.5576L66.2562 35.5278C66.2741 35.5789 66.2776 35.6339 66.2664 35.6868C66.2552 35.7397 66.2297 35.7885 66.1927 35.8279L66.0394 35.9878C65.9888 36.0436 65.9607 36.1162 65.9605 36.1915C65.9606 36.3248 65.9518 36.458 65.9342 36.5901C65.9278 36.6281 65.929 36.667 65.9376 36.7046C65.9463 36.7422 65.9622 36.7777 65.9846 36.8091L66.1138 36.9887C66.1458 37.0322 66.1651 37.0836 66.1697 37.1373C66.1744 37.191 66.1641 37.2449 66.1401 37.2932L65.6846 38.2131C65.6609 38.2614 65.6245 38.3023 65.5794 38.3317C65.5343 38.361 65.4821 38.3775 65.4283 38.3795H65.2093C65.134 38.3819 65.0626 38.4133 65.01 38.4671C64.9146 38.5599 64.8144 38.6476 64.7099 38.73C64.6502 38.7758 64.6097 38.8421 64.596 38.9161L64.561 39.1351C64.5521 39.1883 64.5288 39.2381 64.4937 39.279C64.4586 39.3199 64.4129 39.3505 64.3617 39.3673L63.3914 39.6958C63.3402 39.7134 63.2851 39.7166 63.2322 39.705C63.1793 39.6934 63.1305 39.6675 63.0913 39.6301L62.9293 39.479C62.8743 39.4271 62.8012 39.3988 62.7256 39.4002C62.593 39.4002 62.4606 39.3914 62.3291 39.3739C62.2911 39.3674 62.2522 39.3684 62.2146 39.3771C62.177 39.3857 62.1415 39.4018 62.1101 39.4243L61.9305 39.5535C61.8866 39.5854 61.8349 39.6047 61.7809 39.6093C61.7268 39.6139 61.6726 39.6037 61.6239 39.5798L60.7062 39.1242C60.6576 39.1003 60.6164 39.0636 60.587 39.0181C60.5577 38.9726 60.5414 38.9199 60.5397 38.8657V38.6467C60.5363 38.5717 60.5051 38.5007 60.4521 38.4474C60.3582 38.3531 60.2704 38.2529 60.1893 38.1474C60.1673 38.1171 60.1395 38.0914 60.1076 38.0719C60.0756 38.0523 60.0401 38.0393 60.0031 38.0335L59.7841 37.9984C59.7309 37.9888 59.6813 37.9653 59.6401 37.9303C59.599 37.8953 59.5678 37.85 59.5497 37.7991L59.2212 36.8266C59.2043 36.7757 59.2015 36.7211 59.213 36.6687C59.2246 36.6162 59.2501 36.5679 59.2869 36.5288L59.4402 36.3689C59.491 36.3123 59.519 36.239 59.5191 36.163C59.519 36.0297 59.5278 35.8965 59.5454 35.7644C59.5574 35.6873 59.5385 35.6086 59.4928 35.5454L59.3658 35.3658C59.3339 35.3223 59.3145 35.2709 59.3099 35.2172C59.3052 35.1635 59.3155 35.1096 59.3395 35.0613L59.7951 34.1414C59.8185 34.0931 59.8548 34.0522 59.9 34.0232C59.9452 33.9942 59.9976 33.9783 60.0513 33.9772H60.2703C60.3461 33.9743 60.418 33.943 60.4718 33.8896C60.5661 33.7956 60.6663 33.7078 60.7719 33.6267C60.8316 33.5809 60.8721 33.5146 60.8858 33.4406L60.9208 33.2215C60.9292 33.1682 60.9519 33.1182 60.9867 33.0769C61.0214 33.0355 61.0668 33.0045 61.1179 32.9872ZM61.6984 36.531C61.7681 36.7359 61.8969 36.9155 62.0687 37.0472C62.2404 37.1789 62.4473 37.2568 62.6633 37.2709C62.8792 37.2851 63.0946 37.235 63.2821 37.1269C63.4695 37.0188 63.6208 36.8576 63.7167 36.6636C63.8127 36.4696 63.849 36.2515 63.8211 36.0369C63.7931 35.8223 63.7022 35.6208 63.5599 35.4578C63.4175 35.2948 63.23 35.1776 63.0211 35.1211C62.8122 35.0646 62.5912 35.0712 62.3861 35.1402C62.2495 35.1861 62.1232 35.2586 62.0147 35.3534C61.9061 35.4482 61.8173 35.5636 61.7534 35.6928C61.6895 35.822 61.6518 35.9625 61.6423 36.1064C61.6329 36.2502 61.6519 36.3945 61.6984 36.531Z" fill="#407BFF"/>
<path opacity="0.5" d="M61.1179 32.9872L62.0882 32.6587C62.1395 32.6418 62.1944 32.639 62.2472 32.6506C62.3 32.6621 62.3487 32.6876 62.3883 32.7244L62.5482 32.8777C62.6042 32.9279 62.6766 32.9559 62.7519 32.9565C62.8852 32.9564 63.0183 32.9652 63.1505 32.9828C63.1886 32.989 63.2277 32.9876 63.2653 32.9785C63.3029 32.9695 63.3383 32.9531 63.3695 32.9302L63.5491 32.801C63.5934 32.7699 63.6452 32.7513 63.6991 32.7471C63.753 32.7428 63.8071 32.7531 63.8557 32.7769L64.7734 33.2325C64.8217 33.2562 64.8627 33.2925 64.892 33.3376C64.9213 33.3828 64.9379 33.435 64.9399 33.4887V33.7078C64.9428 33.7835 64.974 33.8555 65.0275 33.9093C65.122 34.0031 65.2098 34.1033 65.2903 34.2093C65.3362 34.269 65.4025 34.3096 65.4765 34.3232L65.6955 34.3583C65.7487 34.3672 65.7985 34.3904 65.8394 34.4256C65.8803 34.4607 65.9108 34.5063 65.9277 34.5576L66.2562 35.5278C66.2741 35.5789 66.2776 35.6339 66.2664 35.6868C66.2552 35.7397 66.2297 35.7885 66.1927 35.8279L66.0394 35.9878C65.9888 36.0436 65.9607 36.1162 65.9605 36.1915C65.9606 36.3248 65.9518 36.458 65.9342 36.5901C65.9278 36.6281 65.929 36.667 65.9376 36.7046C65.9463 36.7422 65.9622 36.7777 65.9846 36.8091L66.1138 36.9887C66.1458 37.0322 66.1651 37.0836 66.1697 37.1373C66.1744 37.191 66.1641 37.2449 66.1401 37.2932L65.6846 38.2131C65.6609 38.2614 65.6245 38.3023 65.5794 38.3317C65.5343 38.361 65.4821 38.3775 65.4283 38.3795H65.2093C65.134 38.3819 65.0626 38.4133 65.01 38.4671C64.9146 38.5599 64.8144 38.6476 64.7099 38.73C64.6502 38.7758 64.6097 38.8421 64.596 38.9161L64.561 39.1351C64.5521 39.1883 64.5288 39.2381 64.4937 39.279C64.4586 39.3199 64.4129 39.3505 64.3617 39.3673L63.3914 39.6958C63.3402 39.7134 63.2851 39.7166 63.2322 39.705C63.1793 39.6934 63.1305 39.6675 63.0913 39.6301L62.9293 39.479C62.8743 39.4271 62.8012 39.3988 62.7256 39.4002C62.593 39.4002 62.4606 39.3914 62.3291 39.3739C62.2911 39.3674 62.2522 39.3684 62.2146 39.3771C62.177 39.3857 62.1415 39.4018 62.1101 39.4243L61.9305 39.5535C61.8866 39.5854 61.8349 39.6047 61.7809 39.6093C61.7268 39.6139 61.6726 39.6037 61.6239 39.5798L60.7062 39.1242C60.6576 39.1003 60.6164 39.0636 60.587 39.0181C60.5577 38.9726 60.5414 38.9199 60.5397 38.8657V38.6467C60.5363 38.5717 60.5051 38.5007 60.4521 38.4474C60.3582 38.3531 60.2704 38.2529 60.1893 38.1474C60.1673 38.1171 60.1395 38.0914 60.1076 38.0719C60.0756 38.0523 60.0401 38.0393 60.0031 38.0335L59.7841 37.9984C59.7309 37.9888 59.6813 37.9653 59.6401 37.9303C59.599 37.8953 59.5678 37.85 59.5497 37.7991L59.2212 36.8266C59.2043 36.7757 59.2015 36.7211 59.213 36.6687C59.2246 36.6162 59.2501 36.5679 59.2869 36.5288L59.4402 36.3689C59.491 36.3123 59.519 36.239 59.5191 36.163C59.519 36.0297 59.5278 35.8965 59.5454 35.7644C59.5574 35.6873 59.5385 35.6086 59.4928 35.5454L59.3658 35.3658C59.3339 35.3223 59.3145 35.2709 59.3099 35.2172C59.3052 35.1635 59.3155 35.1096 59.3395 35.0613L59.7951 34.1414C59.8185 34.0931 59.8548 34.0522 59.9 34.0232C59.9452 33.9942 59.9976 33.9783 60.0513 33.9772H60.2703C60.3461 33.9743 60.418 33.943 60.4718 33.8896C60.5661 33.7956 60.6663 33.7078 60.7719 33.6267C60.8316 33.5809 60.8721 33.5146 60.8858 33.4406L60.9208 33.2215C60.9292 33.1682 60.9519 33.1182 60.9867 33.0769C61.0214 33.0355 61.0668 33.0045 61.1179 32.9872ZM61.6984 36.531C61.7681 36.7359 61.8969 36.9155 62.0687 37.0472C62.2404 37.1789 62.4473 37.2568 62.6633 37.2709C62.8792 37.2851 63.0946 37.235 63.2821 37.1269C63.4695 37.0188 63.6208 36.8576 63.7167 36.6636C63.8127 36.4696 63.849 36.2515 63.8211 36.0369C63.7931 35.8223 63.7022 35.6208 63.5599 35.4578C63.4175 35.2948 63.23 35.1776 63.0211 35.1211C62.8122 35.0646 62.5912 35.0712 62.3861 35.1402C62.2495 35.1861 62.1232 35.2586 62.0147 35.3534C61.9061 35.4482 61.8173 35.5636 61.7534 35.6928C61.6895 35.822 61.6518 35.9625 61.6423 36.1064C61.6329 36.2502 61.6519 36.3945 61.6984 36.531Z" fill="white"/>
<path d="M55.5227 43.5042L56.7273 41.417C56.7719 41.3393 56.7955 41.2514 56.7957 41.1618C56.7959 41.0723 56.7728 40.9842 56.7285 40.9064C56.6843 40.8285 56.6205 40.7635 56.5435 40.7179C56.4664 40.6722 56.3788 40.6474 56.2893 40.646H53.8801C53.7903 40.6468 53.7023 40.6712 53.6248 40.7167C53.5474 40.7622 53.4833 40.8272 53.439 40.9053C53.3946 40.9834 53.3715 41.0717 53.3721 41.1615C53.3726 41.2513 53.3967 41.3394 53.442 41.417L54.6466 43.5042C54.6927 43.579 54.7572 43.6407 54.8339 43.6834C54.9105 43.7262 54.9969 43.7487 55.0847 43.7487C55.1725 43.7487 55.2588 43.7262 55.3355 43.6834C55.4122 43.6407 55.4766 43.579 55.5227 43.5042Z" fill="#407BFF"/>
<path d="M16.0532 67.3082H45.5795C45.6809 67.3086 45.7813 67.2885 45.8748 67.2491C45.9682 67.2097 46.0527 67.1519 46.1232 67.0791C46.1938 67.0063 46.2489 66.92 46.2854 66.8254C46.3218 66.7308 46.3387 66.6298 46.3352 66.5285L45.6365 45.4191C45.627 45.2103 45.538 45.013 45.3878 44.8676C45.2375 44.7222 45.0374 44.6398 44.8283 44.6372H15.3041C15.2024 44.6365 15.1017 44.6565 15.008 44.6959C14.9143 44.7353 14.8295 44.7933 14.7589 44.8664C14.6882 44.9395 14.6332 45.0262 14.597 45.1212C14.5608 45.2162 14.5443 45.3176 14.5485 45.4191L15.245 66.5285C15.2534 66.7375 15.3422 66.9352 15.4927 67.0804C15.6432 67.2257 15.844 67.3073 16.0532 67.3082Z" fill="#407BFF"/>
<path d="M16.2943 67.3082H45.8207C45.922 67.3086 46.0225 67.2885 46.1159 67.2491C46.2093 67.2097 46.2938 67.1519 46.3644 67.0791C46.4349 67.0063 46.4901 66.92 46.5265 66.8254C46.5629 66.7308 46.5798 66.6298 46.5763 66.5285L45.8776 45.4191C45.8681 45.2103 45.7791 45.0129 45.6289 44.8676C45.4786 44.7222 45.2785 44.6398 45.0694 44.6372H15.5452C15.4437 44.6368 15.3431 44.657 15.2495 44.6965C15.1559 44.736 15.0713 44.794 15.0007 44.8671C14.9301 44.9401 14.875 45.0267 14.8388 45.1215C14.8025 45.2164 14.7858 45.3176 14.7896 45.4191L15.4883 66.5285C15.4967 66.7371 15.5851 66.9345 15.7352 67.0797C15.8853 67.2248 16.0855 67.3067 16.2943 67.3082Z" fill="#407BFF"/>
<g opacity="0.6">
<path d="M16.2943 67.3082H45.8207C45.922 67.3086 46.0225 67.2885 46.1159 67.2491C46.2093 67.2097 46.2938 67.1519 46.3644 67.0791C46.4349 67.0063 46.4901 66.92 46.5265 66.8254C46.5629 66.7308 46.5798 66.6298 46.5763 66.5285L45.8776 45.4191C45.8681 45.2103 45.7791 45.0129 45.6289 44.8676C45.4786 44.7222 45.2785 44.6398 45.0694 44.6372H15.5452C15.4437 44.6368 15.3431 44.657 15.2495 44.6965C15.1559 44.736 15.0713 44.794 15.0007 44.8671C14.9301 44.9401 14.875 45.0267 14.8388 45.1215C14.8025 45.2164 14.7858 45.3176 14.7896 45.4191L15.4883 66.5285C15.4967 66.7371 15.5851 66.9345 15.7352 67.0797C15.8853 67.2248 16.0855 67.3067 16.2943 67.3082Z" fill="#263238"/>
</g>
<path d="M16.6752 67.271H52.3342C52.5096 67.2709 52.6814 67.3202 52.8302 67.4132C52.9789 67.5061 53.0985 67.639 53.1753 67.7966C53.195 67.8379 53.2038 67.8834 53.2011 67.9291C53.1983 67.9747 53.184 68.0188 53.1594 68.0574C53.1349 68.0959 53.101 68.1276 53.0608 68.1494C53.0207 68.1712 52.9756 68.1825 52.93 68.1821H16.0795C16.0336 68.1829 15.9883 68.1719 15.9478 68.1502C15.9074 68.1286 15.8732 68.0969 15.8484 68.0583C15.8236 68.0197 15.8091 67.9754 15.8062 67.9296C15.8033 67.8838 15.8122 67.8381 15.832 67.7966C15.9091 67.6388 16.0291 67.5058 16.1782 67.4129C16.3273 67.32 16.4995 67.2708 16.6752 67.271Z" fill="#407BFF"/>
<path opacity="0.6" d="M52.3337 67.271H23.8783C23.7026 67.2708 23.5304 67.32 23.3813 67.4129C23.2322 67.5058 23.1123 67.6388 23.0351 67.7966C23.0153 67.8381 23.0064 67.8838 23.0093 67.9296C23.0122 67.9754 23.0267 68.0197 23.0515 68.0583C23.0763 68.0969 23.1105 68.1286 23.151 68.1502C23.1914 68.1719 23.2367 68.1829 23.2826 68.1821H52.9294C52.9751 68.1825 53.0202 68.1712 53.0603 68.1494C53.1005 68.1276 53.1344 68.0959 53.1589 68.0574C53.1835 68.0188 53.1978 67.9747 53.2006 67.9291C53.2033 67.8834 53.1944 67.8379 53.1747 67.7966C53.0979 67.639 52.9784 67.5061 52.8296 67.4132C52.6809 67.3202 52.5091 67.2709 52.3337 67.271Z" fill="#263238"/>
<path opacity="0.3" d="M35.3251 67.8486H42.7281C42.816 67.8492 42.9001 67.8845 42.962 67.9469C43.024 68.0093 43.0588 68.0936 43.0588 68.1815H34.9922C34.9922 68.0932 35.0273 68.0086 35.0897 67.9461C35.1521 67.8837 35.2368 67.8486 35.3251 67.8486Z" fill="white"/>
<path opacity="0.9" d="M45.871 65.7639L45.2139 46.1834C45.21 46.102 45.1752 46.0252 45.1166 45.9686C45.058 45.912 44.98 45.8799 44.8985 45.8789H15.7883C15.7481 45.8785 15.7083 45.8864 15.6714 45.9022C15.6344 45.9179 15.6011 45.9411 15.5736 45.9703C15.546 45.9995 15.5248 46.0341 15.5112 46.0719C15.4977 46.1097 15.4921 46.1499 15.4948 46.1899L16.1519 65.7705C16.1547 65.8519 16.1889 65.929 16.2472 65.9857C16.3056 66.0425 16.3837 66.0744 16.4651 66.075H45.595C45.6336 66.0727 45.6713 66.0629 45.7061 66.046C45.7409 66.0292 45.772 66.0056 45.7976 65.9768C45.8232 65.9479 45.8429 65.9142 45.8555 65.8777C45.8681 65.8412 45.8734 65.8025 45.871 65.7639Z" fill="white"/>
<path d="M21.8721 66.0684H17.8574L22.4854 45.8789H26.5L21.8721 66.0684Z" fill="white"/>
<path d="M24.4309 66.0684H22.9854L27.6133 45.8789H29.0588L24.4309 66.0684Z" fill="white"/>
<path d="M39.1995 66.0684H37.7539L42.3818 45.8789H43.8252L39.1995 66.0684Z" fill="white"/>
<path opacity="0.4" d="M30.0986 45.2918C30.104 45.3511 30.1312 45.4062 30.1749 45.4467C30.2186 45.4871 30.2757 45.51 30.3352 45.5108C30.3933 45.5108 30.449 45.4877 30.49 45.4466C30.5311 45.4056 30.5542 45.3499 30.5542 45.2918C30.5498 45.2321 30.5229 45.1764 30.479 45.1357C30.4351 45.0951 30.3775 45.0726 30.3177 45.0728C30.2596 45.0728 30.2039 45.0958 30.1628 45.1369C30.1217 45.178 30.0986 45.2337 30.0986 45.2918Z" fill="white"/>
<path d="M39.499 43.1362C39.8867 43.7583 40.305 44.4175 40.7233 45.0527C41.1417 45.6878 41.571 46.323 42.009 46.945C42.859 48.1809 43.7781 49.3677 44.7621 50.4998C45.2244 51.0282 45.7259 51.5209 46.2624 51.9738L46.4508 52.1227C46.4919 52.158 46.5351 52.1909 46.58 52.2213C46.6935 52.2959 46.8113 52.3639 46.9326 52.425C47.2283 52.5688 47.5343 52.6904 47.8481 52.7885C48.1789 52.9002 48.5271 53.0076 48.8819 53.0886C49.2367 53.1696 49.6025 53.2638 49.977 53.3405C50.7108 53.496 51.4773 53.6383 52.2154 53.7654V55.2985C51.7949 55.3599 51.4007 55.3905 50.9911 55.419C50.5815 55.4475 50.1763 55.4584 49.7646 55.4606C48.9239 55.4635 48.0843 55.3968 47.2546 55.2613C46.8053 55.1832 46.3624 55.0719 45.9295 54.9284C45.6873 54.8452 45.4515 54.7442 45.2243 54.6261C45.1038 54.5692 44.9768 54.4882 44.8541 54.4071L44.5716 54.21C43.8744 53.6978 43.2223 53.127 42.6223 52.5038C41.4922 51.3244 40.4463 50.067 39.4924 48.741C39.0179 48.0912 38.5609 47.4342 38.1214 46.7698C37.6833 46.0952 37.2453 45.4338 36.8379 44.7154L39.499 43.1362Z" fill="#FFC3BD"/>
<path d="M35.8133 43.5612C35.5942 45.4843 40.1784 50.0793 40.1784 50.0793L43.2797 47.4905C42.3709 45.9526 41.365 44.4741 40.2682 43.0641C38.5051 40.8804 36.052 41.3863 35.8133 43.5612Z" fill="#407BFF"/>
<path opacity="0.3" d="M38.3191 44.9263C37.0947 43.6122 36.5099 43.2727 35.8047 43.7962C35.8989 45.8265 40.1851 50.0755 40.1851 50.0755C40.4655 47.8963 39.355 46.4945 38.3191 44.9263Z" fill="black"/>
<path d="M43.0277 46.6035L43.3541 47.5497L39.8848 50.397L39.1992 49.6852L43.0277 46.6035Z" fill="#407BFF"/>
<path opacity="0.3" d="M43.0277 46.6035L43.3541 47.5497L39.8848 50.397L39.1992 49.6852L43.0277 46.6035Z" fill="#263238"/>
<path d="M52.0516 53.7349L54.4608 54.1488L53.1357 56.2646C52.8203 56.3149 51.5632 55.6338 51.0068 54.7884L52.0516 53.7349Z" fill="#FFC3BD"/>
<path d="M55.9395 55.577L54.978 56.6677L53.1338 56.2537L54.4567 54.1489L55.9395 55.577Z" fill="#FFC3BD"/>
<path d="M38.3083 41.7191C38.3083 41.7191 40.9366 47.8999 39.0442 59.4118H28.0931C27.9595 57.7318 28.7305 49.5338 26.8359 41.614C28.0415 41.3801 29.2612 41.2257 30.487 41.1519C32.0371 41.062 33.5912 41.062 35.1413 41.1519C36.21 41.259 37.2688 41.4487 38.3083 41.7191Z" fill="#407BFF"/>
<path opacity="0.3" d="M29.2815 43.5615C29.5006 44.8756 29.2071 47.9813 28.09 51.5864C28.0045 48.4944 27.6446 45.416 27.0146 42.3875V42.3722C27.7287 42.313 29.0647 42.3481 29.2815 43.5615Z" fill="black"/>
<path d="M30.7645 35.9111C31.1105 37.4092 31.4982 40.1536 30.4863 41.1523C30.4863 41.1523 30.9244 42.392 33.706 42.392C36.7723 42.392 35.1405 41.1523 35.1405 41.1523C33.4563 40.7537 33.4563 39.514 33.706 38.351L30.7645 35.9111Z" fill="#FFC3BD"/>
<path d="M33.8942 42.5082L34.5512 43.2025C34.5712 43.2229 34.5844 43.249 34.5891 43.2772C34.5938 43.3054 34.5897 43.3343 34.5775 43.3602L34.249 44.0457C34.2384 44.0691 34.2216 44.089 34.2003 44.1033C34.179 44.1177 34.1542 44.1258 34.1285 44.1267L33.6313 44.1508C33.6077 44.1518 33.5842 44.1467 33.5631 44.1359C33.542 44.1252 33.524 44.1092 33.5109 44.0895L33.0509 43.4324C33.0325 43.4078 33.0225 43.3778 33.0225 43.347C33.0225 43.3162 33.0325 43.2862 33.0509 43.2616L33.6817 42.5147C33.6942 42.4987 33.71 42.4856 33.7281 42.4764C33.7462 42.4672 33.7661 42.4621 33.7864 42.4615C33.8067 42.4609 33.8269 42.4647 33.8455 42.4728C33.8641 42.4809 33.8807 42.4929 33.8942 42.5082Z" fill="white"/>
<path d="M33.7877 42.3916C33.4716 42.9001 33.2885 43.4801 33.2555 44.078C33.2555 44.078 29.7007 42.8625 29.8628 41.084C30.1785 40.9309 30.4823 40.7545 30.7717 40.5562C30.7717 40.5562 30.8878 41.6797 33.7877 42.3916Z" fill="#263238"/>
<path d="M33.7871 42.3921C34.1033 42.8743 34.331 43.4091 34.4595 43.9712C34.4595 43.9712 36.1066 42.8433 35.6378 41.0845L34.6698 40.8765C34.6698 40.8765 34.8735 42.011 33.7871 42.3921Z" fill="#263238"/>
<path d="M34.1905 44.0522C34.4095 44.7794 36.0609 50.1717 36.1025 51.4618C36.1036 51.4727 36.1036 51.4837 36.1025 51.4946C35.9492 52.1889 35.2615 53.4067 34.9812 53.8841C34.9704 53.903 34.9545 53.9185 34.9354 53.9288C34.9163 53.9391 34.8947 53.9438 34.873 53.9424C34.8513 53.9411 34.8305 53.9337 34.8128 53.921C34.7952 53.9084 34.7814 53.8911 34.7731 53.871C34.5803 53.4001 34.116 52.2721 33.8094 51.6129C33.8037 51.6004 33.8 51.5871 33.7984 51.5735C33.6539 49.219 33.6145 45.5569 33.5422 44.0938C33.5413 44.0781 33.5436 44.0623 33.5491 44.0474C33.5545 44.0326 33.5629 44.019 33.5738 44.0075C33.5846 43.996 33.5977 43.9869 33.6123 43.9806C33.6268 43.9744 33.6424 43.9712 33.6583 43.9712H34.081C34.1054 43.9714 34.1292 43.9794 34.1489 43.994C34.1685 44.0085 34.1831 44.0289 34.1905 44.0522Z" fill="white"/>
<path opacity="0.2" d="M31.965 36.9058L33.7062 38.3491C33.6432 38.6204 33.6044 38.8967 33.5901 39.1748C32.9484 39.0828 32.057 38.3842 31.9584 37.7161C31.9102 37.448 31.9124 37.1731 31.965 36.9058Z" fill="black"/>
<path d="M35.0534 31.4587C35.4673 31.7675 36.1747 33.0729 35.2724 33.4145C34.37 33.7562 34.0393 30.7009 35.0534 31.4587Z" fill="#263238"/>
<path d="M30.2256 34.1152C30.6396 36.1105 30.7819 37.2954 31.9493 38.2131C32.3255 38.5161 32.7774 38.7103 33.256 38.7749C33.7347 38.8395 34.2219 38.7719 34.6649 38.5795C35.1079 38.3871 35.4899 38.0771 35.7694 37.6833C36.049 37.2894 36.2155 36.8266 36.2509 36.3449C36.4217 34.4941 35.7121 31.5439 33.6226 30.9613C33.1737 30.8237 32.6966 30.8066 32.239 30.9116C31.7813 31.0165 31.3594 31.2399 31.0153 31.5594C30.6712 31.8788 30.4171 32.2831 30.2786 32.7317C30.14 33.1802 30.1217 33.6574 30.2256 34.1152Z" fill="#FFC3BD"/>
<path d="M30.4869 35.6175L31.3236 35.059L31.3783 34.5727C31.4552 33.8677 31.3235 33.1557 30.9994 32.5249C30.9994 32.5249 35.0667 32.676 35.5704 31.4035C36.0742 30.131 34.6418 29.1738 34.6418 29.1738C34.6418 29.1738 33.2028 29.9995 32.2325 30.0653C31.2623 30.131 28.2901 28.9176 28.2901 31.4298C26.976 31.8349 27.0198 33.9967 30.4803 35.6175" fill="#263238"/>
<path d="M28.4362 31.5284C28.4362 31.5284 27.8974 31.1013 28.2982 29.7959C27.8054 30.0412 27.5688 31.375 28.4362 31.5284Z" fill="#263238"/>
<path d="M29.6364 36.4303C29.9678 36.8264 30.4378 37.081 30.9506 37.1421C31.6295 37.2144 31.8267 36.588 31.5332 36.012C31.2616 35.4951 30.5826 34.8336 29.9562 35.0286C29.3298 35.2235 29.2313 35.9375 29.6364 36.4303Z" fill="#FFC3BD"/>
<path d="M39.9682 66.0677H32.9705C32.3419 62.2699 31.8359 59.4116 31.8359 59.4116H39.044C39.044 59.4116 39.4492 62.2217 39.9682 66.0677Z" fill="#263238"/>
<path d="M28.36 66.0677C28.2023 62.2699 28.084 59.4116 28.084 59.4116H35.1496C35.1496 59.4116 35.1847 62.3049 35.2 66.0677H28.36Z" fill="#263238"/>
<path d="M33.3642 34.3407C33.3883 34.505 33.4935 34.6276 33.6008 34.6167C33.7081 34.6057 33.776 34.4612 33.7519 34.2991C33.7278 34.137 33.6227 34.0122 33.5154 34.0231C33.408 34.0341 33.3401 34.1764 33.3642 34.3407Z" fill="#263238"/>
<path d="M35.2197 34.1434C35.2438 34.3077 35.3489 34.4304 35.4562 34.4172C35.5636 34.4041 35.6315 34.2639 35.6074 34.1018C35.5833 33.9398 35.4781 33.8149 35.3708 33.8259C35.2635 33.8368 35.1956 33.9726 35.2197 34.1434Z" fill="#263238"/>
<path d="M34.6416 34.2837C34.9104 34.7635 35.2419 35.2054 35.6272 35.5978C35.3775 35.9001 34.865 35.83 34.865 35.83L34.6416 34.2837Z" fill="#ED847E"/>
<path d="M34.1119 36.334C34.2247 36.346 34.3385 36.346 34.4514 36.334C34.4577 36.3334 34.4639 36.3316 34.4695 36.3287C34.4752 36.3257 34.4802 36.3217 34.4842 36.3168C34.4883 36.3119 34.4914 36.3063 34.4933 36.3002C34.4951 36.2941 34.4958 36.2877 34.4952 36.2814C34.4935 36.2684 34.4869 36.2566 34.4767 36.2484C34.4665 36.2402 34.4535 36.2364 34.4404 36.2376C34.2341 36.2639 34.0245 36.2424 33.8278 36.1748C33.6311 36.1072 33.4525 35.9953 33.3059 35.8477C33.3017 35.8429 33.2966 35.8388 33.2909 35.8359C33.2852 35.833 33.2789 35.8312 33.2725 35.8307C33.2661 35.8302 33.2597 35.831 33.2536 35.833C33.2475 35.8349 33.2418 35.8381 33.2369 35.8423C33.232 35.8464 33.228 35.8515 33.2251 35.8573C33.2222 35.863 33.2204 35.8692 33.2199 35.8756C33.2194 35.882 33.2201 35.8885 33.2221 35.8946C33.2241 35.9007 33.2273 35.9064 33.2314 35.9113C33.4652 36.1525 33.7774 36.3024 34.1119 36.334Z" fill="#263238"/>
<path d="M32.6942 33.8064C32.7129 33.8088 32.7319 33.8054 32.7487 33.7968C32.7655 33.7882 32.7793 33.7748 32.7884 33.7582C32.8446 33.6524 32.9259 33.5619 33.0252 33.4947C33.1244 33.4275 33.2387 33.3856 33.3578 33.3728C33.3836 33.3711 33.4077 33.3593 33.4249 33.3401C33.4421 33.3208 33.451 33.2956 33.4498 33.2698C33.4493 33.2572 33.4462 33.2447 33.4408 33.2333C33.4355 33.2218 33.4279 33.2115 33.4185 33.2029C33.4092 33.1944 33.3982 33.1878 33.3863 33.1835C33.3744 33.1792 33.3617 33.1772 33.3491 33.1778C33.1972 33.1929 33.0514 33.2449 32.9243 33.3293C32.7972 33.4136 32.6926 33.5278 32.6197 33.6619C32.6132 33.673 32.6089 33.6854 32.6073 33.6982C32.6056 33.7111 32.6065 33.7241 32.61 33.7366C32.6135 33.7491 32.6194 33.7607 32.6275 33.7708C32.6356 33.7809 32.6456 33.7893 32.657 33.7955C32.6682 33.8024 32.681 33.8061 32.6942 33.8064Z" fill="#263238"/>
<path d="M35.914 33.414C35.9373 33.4158 35.9604 33.4096 35.9797 33.3965C36.0004 33.3819 36.0147 33.3599 36.0196 33.335C36.0245 33.3101 36.0196 33.2843 36.006 33.2629C35.9228 33.1313 35.8099 33.0209 35.6764 32.9407C35.5429 32.8604 35.3925 32.8125 35.2372 32.8008C35.2118 32.8008 35.1874 32.8105 35.169 32.8281C35.1507 32.8456 35.1398 32.8696 35.1387 32.895C35.1387 32.9207 35.1487 32.9455 35.1668 32.9639C35.1848 32.9823 35.2093 32.9929 35.235 32.9935C35.3587 33.0052 35.478 33.0452 35.5836 33.1106C35.6892 33.1759 35.7783 33.2648 35.8439 33.3702C35.8519 33.382 35.8623 33.3919 35.8744 33.3995C35.8864 33.407 35.8999 33.412 35.914 33.414Z" fill="#263238"/>
<path d="M28.9275 44.6914L28.4413 45.5324C28.2777 45.8245 28.1179 46.1165 27.9616 46.4085C27.6462 46.9926 27.344 47.581 27.0549 48.1738C26.7701 48.7674 26.4986 49.3631 26.2554 49.9632C26.1394 50.2611 26.0211 50.5612 25.9203 50.8612L25.7648 51.3102L25.6356 51.7483L25.6028 51.86L25.5852 51.9169C25.5852 51.9366 25.5852 51.9169 25.5852 51.9301C25.5852 51.9432 25.5852 51.9542 25.5699 51.9783C25.5609 52.0642 25.5609 52.1508 25.5699 52.2367C25.5974 52.4971 25.6517 52.754 25.732 53.0033C25.9242 53.603 26.1584 54.1885 26.4328 54.7555C26.987 55.9447 27.6616 57.145 28.3252 58.3168L27.114 59.2629C26.5971 58.7438 26.1328 58.216 25.6772 57.6597C25.2217 57.1034 24.8011 56.5252 24.3872 55.9075C23.9655 55.2766 23.5991 54.6105 23.2921 53.9166C23.117 53.5208 22.982 53.1084 22.8891 52.6857C22.8346 52.4301 22.8067 52.1695 22.8058 51.9082C22.8041 51.7512 22.8158 51.5944 22.8409 51.4395L22.8584 51.3256L22.8737 51.2555L22.9022 51.1131C23.0441 50.3708 23.2366 49.639 23.4782 48.9229C23.7104 48.2176 23.982 47.5387 24.2711 46.8685C24.5602 46.1983 24.8778 45.5543 25.2173 44.9104C25.3881 44.5928 25.5611 44.2774 25.7429 43.962C25.9247 43.6466 26.1043 43.3488 26.3211 43.0137L28.9275 44.6914Z" fill="#FFC3BD"/>
<path d="M26.8378 41.6147C24.9104 41.8973 22.9238 48.6081 22.9238 48.6081L27.0721 50.9056C27.0721 50.9056 28.752 47.7123 29.5536 45.3425C30.3925 42.8588 28.9031 41.3125 26.8378 41.6147Z" fill="#407BFF"/>
<path d="M23.0092 47.6616L22.834 48.6472L27.0962 50.9929L27.6634 50.1804L23.0092 47.6616Z" fill="#407BFF"/>
<path opacity="0.3" d="M23.0092 47.6616L22.834 48.6472L27.0962 50.9929L27.6634 50.1804L23.0092 47.6616Z" fill="#263238"/>
<path d="M27.7733 57.8612L29.8102 57.5063L28.7655 59.8652C28.7655 59.8652 26.9038 59.8543 26.9892 58.8949L27.7733 57.8612Z" fill="#FFC3BD"/>
<path d="M31.3316 58.6913L30.3723 60.5967L28.7646 59.8652L29.8094 57.5063L31.3316 58.6913Z" fill="#FFC3BD"/>
<path d="M95.0364 67.3077H65.51C65.4086 67.3081 65.3082 67.288 65.2148 67.2486C65.1214 67.2092 65.0368 67.1514 64.9663 67.0786C64.8957 67.0058 64.8406 66.9195 64.8042 66.8249C64.7678 66.7303 64.7508 66.6293 64.7544 66.528L65.453 45.4186C65.4625 45.2098 65.5515 45.0125 65.7018 44.8671C65.852 44.7217 66.0522 44.6393 66.2612 44.6367H95.7854C95.8871 44.6361 95.9878 44.656 96.0815 44.6954C96.1753 44.7348 96.26 44.7928 96.3307 44.8659C96.4013 44.939 96.4564 45.0257 96.4925 45.1207C96.5287 45.2157 96.5452 45.3171 96.5411 45.4186L95.8446 66.528C95.8361 66.737 95.7474 66.9347 95.5968 67.0799C95.4463 67.2252 95.2456 67.3068 95.0364 67.3077Z" fill="#407BFF"/>
<path opacity="0.6" d="M95.0364 67.3077H65.51C65.4086 67.3081 65.3082 67.288 65.2148 67.2486C65.1214 67.2092 65.0368 67.1514 64.9663 67.0786C64.8957 67.0058 64.8406 66.9195 64.8042 66.8249C64.7678 66.7303 64.7508 66.6293 64.7544 66.528L65.453 45.4186C65.4625 45.2098 65.5515 45.0125 65.7018 44.8671C65.852 44.7217 66.0522 44.6393 66.2612 44.6367H95.7854C95.8871 44.6361 95.9878 44.656 96.0815 44.6954C96.1753 44.7348 96.26 44.7928 96.3307 44.8659C96.4013 44.939 96.4564 45.0257 96.4925 45.1207C96.5287 45.2157 96.5452 45.3171 96.5411 45.4186L95.8446 66.528C95.8361 66.737 95.7474 66.9347 95.5968 67.0799C95.4463 67.2252 95.2456 67.3068 95.0364 67.3077Z" fill="#263238"/>
<path d="M94.7952 67.3077H65.2688C65.1674 67.3081 65.067 67.288 64.9736 67.2486C64.8801 67.2092 64.7956 67.1514 64.7251 67.0786C64.6545 67.0058 64.5994 66.9195 64.563 66.8249C64.5266 66.7303 64.5096 66.6293 64.5132 66.528L65.2118 45.4186C65.2213 45.2098 65.3103 45.0125 65.4606 44.8671C65.6108 44.7217 65.811 44.6393 66.02 44.6367H95.5442C95.6458 44.6364 95.7464 44.6565 95.84 44.696C95.9335 44.7355 96.0182 44.7935 96.0887 44.8666C96.1593 44.9396 96.2144 45.0262 96.2507 45.121C96.287 45.2159 96.3037 45.3171 96.2998 45.4186L95.6012 66.528C95.5927 66.7366 95.5043 66.934 95.3542 67.0792C95.2042 67.2244 95.004 67.3062 94.7952 67.3077Z" fill="#407BFF"/>
<path d="M94.4141 67.2705H58.755C58.5797 67.2705 58.4078 67.3197 58.2591 67.4127C58.1104 67.5056 57.9908 67.6385 57.914 67.7962C57.8943 67.8374 57.8854 67.883 57.8882 67.9286C57.891 67.9742 57.9053 68.0183 57.9298 68.0569C57.9543 68.0954 57.9883 68.1271 58.0284 68.1489C58.0686 68.1708 58.1136 68.182 58.1593 68.1816H95.0098C95.0557 68.1824 95.101 68.1714 95.1414 68.1497C95.1819 68.1281 95.2161 68.0964 95.2409 68.0578C95.2657 68.0192 95.2802 67.9749 95.2831 67.9291C95.2859 67.8833 95.2771 67.8376 95.2573 67.7962C95.1801 67.6383 95.0601 67.5054 94.911 67.4124C94.762 67.3195 94.5897 67.2703 94.4141 67.2705Z" fill="#407BFF"/>
<path opacity="0.6" d="M94.4144 67.2705H88.9389C88.7632 67.2703 88.591 67.3195 88.4419 67.4124C88.2928 67.5054 88.1728 67.6383 88.0956 67.7962C88.0759 67.8376 88.067 67.8833 88.0699 67.9291C88.0727 67.9749 88.0873 68.0192 88.112 68.0578C88.1368 68.0964 88.1711 68.1281 88.2115 68.1497C88.252 68.1714 88.2973 68.1824 88.3431 68.1816H94.9992C95.0451 68.1824 95.0904 68.1714 95.1309 68.1497C95.1713 68.1281 95.2055 68.0964 95.2303 68.0578C95.2551 68.0192 95.2696 67.9749 95.2725 67.9291C95.2754 67.8833 95.2665 67.8376 95.2467 67.7962C95.1704 67.64 95.0521 67.5081 94.9051 67.4153C94.7582 67.3225 94.5883 67.2723 94.4144 67.2705Z" fill="#263238"/>
<path opacity="0.2" d="M75.7649 67.8486H68.362C68.2741 67.8492 68.1899 67.8845 68.128 67.9469C68.066 68.0093 68.0312 68.0936 68.0313 68.1815H76.0978C76.0978 68.0932 76.0628 68.0086 76.0003 67.9461C75.9379 67.8837 75.8532 67.8486 75.7649 67.8486Z" fill="black"/>
<path opacity="0.9" d="M65.219 65.7639L65.876 46.1834C65.8799 46.102 65.9147 46.0252 65.9733 45.9686C66.032 45.912 66.1099 45.8799 66.1914 45.8789H95.3214C95.3609 45.8786 95.4002 45.8863 95.4366 45.9016C95.4731 45.917 95.5061 45.9395 95.5336 45.968C95.561 45.9965 95.5824 46.0303 95.5964 46.0673C95.6104 46.1043 95.6166 46.1438 95.6149 46.1834L94.9578 65.7639C94.955 65.8453 94.9208 65.9224 94.8624 65.9792C94.804 66.0359 94.726 66.0679 94.6446 66.0684H65.5146C65.475 66.0687 65.4356 66.061 65.399 66.0457C65.3625 66.0304 65.3293 66.0078 65.3017 65.9794C65.2741 65.9509 65.2525 65.9172 65.2383 65.8801C65.224 65.8431 65.2175 65.8036 65.219 65.7639Z" fill="white"/>
<path d="M85.9278 66.0684H81.9131L86.541 45.8789H90.5557L85.9278 66.0684Z" fill="white"/>
<path d="M68.4954 66.0684H67.0498L71.6777 45.8789H73.1211L68.4954 66.0684Z" fill="white"/>
<path d="M89.219 66.0684H87.7734L92.4014 45.8789H93.8469L89.219 66.0684Z" fill="white"/>
<path opacity="0.4" d="M80.9907 45.2913C80.9853 45.3506 80.9582 45.4057 80.9145 45.4462C80.8708 45.4866 80.8137 45.5095 80.7542 45.5103C80.6961 45.5103 80.6404 45.4872 80.5993 45.4462C80.5582 45.4051 80.5352 45.3494 80.5352 45.2913C80.5396 45.2316 80.5664 45.1759 80.6103 45.1352C80.6542 45.0946 80.7119 45.0721 80.7717 45.0723C80.8298 45.0723 80.8855 45.0953 80.9266 45.1364C80.9676 45.1775 80.9907 45.2332 80.9907 45.2913Z" fill="black"/>
<path d="M78.8613 35.9111C78.5175 37.4092 78.1276 40.1536 79.1417 41.1523C79.1417 41.1523 78.7036 42.392 75.922 42.392C72.8557 42.392 74.4874 41.1523 74.4874 41.1523C76.1717 40.7537 76.1717 39.514 75.9198 38.351L78.8613 35.9111Z" fill="#B55B52"/>
<path d="M83.3185 43.0269C83.5375 43.362 83.7171 43.6554 83.8967 43.9752C84.0763 44.295 84.2537 44.606 84.4246 44.9236C84.7619 45.5631 85.0816 46.2136 85.3708 46.8816C85.6599 47.5497 85.9315 48.2308 86.1614 48.9361C86.4038 49.6521 86.597 50.3839 86.7396 51.1263L86.7681 51.2687L86.7813 51.3387L86.801 51.4526C86.8239 51.6078 86.8356 51.7645 86.836 51.9213C86.8329 52.1826 86.8051 52.4429 86.7528 52.6989C86.6591 53.1217 86.5234 53.534 86.3476 53.9298C86.0414 54.6241 85.675 55.2903 85.2525 55.9207C84.8451 56.5318 84.4158 57.11 83.9603 57.6729C83.5085 58.231 83.029 58.7661 82.5235 59.2761L81.3145 58.3299C81.9715 57.1582 82.6527 55.9579 83.2068 54.7686C83.4805 54.2017 83.714 53.6162 83.9055 53.0165C83.9858 52.7672 84.0401 52.5103 84.0676 52.2499C84.0774 52.164 84.0774 52.0773 84.0676 51.9914C84.0676 51.9673 84.0676 51.9454 84.0501 51.9433V51.9301L84.0347 51.8732L84.0019 51.7615L83.8705 51.3234L83.7171 50.8744C83.6142 50.5744 83.4981 50.2743 83.3798 49.9764C83.1367 49.3763 82.8651 48.7806 82.5826 48.187C82.3001 47.5935 81.9891 47.0065 81.6758 46.4217C81.5211 46.1297 81.3612 45.8376 81.1962 45.5456L80.71 44.7068L83.3185 43.0269Z" fill="#B65B52"/>
<path d="M82.7912 41.6142C84.7185 41.8968 86.7029 48.6076 86.7029 48.6076L82.5568 50.9052C82.5568 50.9052 80.8747 47.7228 80.0753 45.342C79.2342 42.8583 80.7323 41.312 82.7912 41.6142Z" fill="#263238"/>
<path opacity="0.3" d="M81.5359 45.2915L81.2227 48.1607C81.5359 48.8506 81.8425 49.4748 82.0812 49.9676C82.171 48.8178 82.1688 46.9473 81.5359 45.2915Z" fill="black"/>
<path d="M86.6169 47.6611L86.7943 48.6467L82.5321 50.9925L81.9648 50.1799L86.6169 47.6611Z" fill="#407BFF"/>
<path opacity="0.3" d="M86.6169 47.6611L86.7943 48.6467L82.5321 50.9925L81.9648 50.1799L86.6169 47.6611Z" fill="#263238"/>
<path d="M81.8555 57.8612L79.8164 57.5063L80.8633 59.8652C80.8633 59.8652 82.7228 59.8543 82.6374 58.8949L81.8555 57.8612Z" fill="#B55B52"/>
<path d="M78.2969 58.6913L79.254 60.5967L80.8638 59.8652L79.8169 57.5063L78.2969 58.6913Z" fill="#B55B52"/>
<path d="M71.3137 41.7191C71.3137 41.7191 68.6854 47.8999 70.58 59.4118H81.5311C81.6647 57.7318 80.8915 49.5338 82.7883 41.614C81.5841 41.3805 80.3659 41.2261 79.1415 41.1519C77.5914 41.062 76.0374 41.062 74.4873 41.1519C73.4164 41.2587 72.3553 41.4483 71.3137 41.7191Z" fill="#263238"/>
<path opacity="0.3" d="M70.1425 47.0063C69.9834 48.3914 69.9022 49.7844 69.8994 51.1786C71.3888 50.2084 71.9188 47.9831 72.1291 46.3711L70.1425 47.0063Z" fill="black"/>
<path d="M72.7987 44.7178C72.3804 45.4362 71.9576 46.0977 71.5152 46.7722C71.0728 47.4468 70.6194 48.1017 70.1441 48.7434C69.1895 50.0695 68.1429 51.3268 67.0121 52.5062C66.4123 53.1289 65.761 53.6996 65.065 54.2124L64.7803 54.4096C64.6576 54.484 64.5306 54.5651 64.4123 54.6286C64.1841 54.7463 63.9477 54.8473 63.7049 54.9308C63.272 55.0744 62.8291 55.1856 62.3798 55.2637C61.5501 55.3993 60.7105 55.466 59.8698 55.463C59.4602 55.463 59.0507 55.463 58.6455 55.4214C58.2403 55.3798 57.8395 55.3623 57.4189 55.301V53.7678C58.1571 53.6408 58.9236 53.4984 59.6552 53.3429C60.0231 53.2663 60.3889 53.183 60.7503 53.091C61.1117 52.999 61.4555 52.9027 61.7841 52.791C62.098 52.6932 62.4041 52.5716 62.6996 52.4274C62.8209 52.3663 62.9387 52.2983 63.0522 52.2237C63.107 52.1909 63.1398 52.1558 63.1836 52.1252L63.372 51.9762C63.9075 51.5222 64.4089 51.0296 64.8723 50.5022C65.8549 49.369 66.774 48.1823 67.6254 46.9475C68.0634 46.3254 68.4861 45.6903 68.911 45.0551C69.3359 44.42 69.7455 43.7607 70.1354 43.1387L72.7987 44.7178Z" fill="#B65B52"/>
<path d="M73.8137 43.5615C74.0327 45.4845 69.7442 50.1496 69.7442 50.1496L66.3516 47.4951C67.2593 45.957 68.2645 44.4785 69.3609 43.0687C71.1219 40.8806 73.5705 41.3866 73.8137 43.5615Z" fill="#263238"/>
<path d="M66.6008 46.6035L66.2744 47.5497L69.7415 50.397L70.4293 49.6852L66.6008 46.6035Z" fill="#407BFF"/>
<path opacity="0.3" d="M66.6008 46.6035L66.2744 47.5497L69.7415 50.397L70.4293 49.6852L66.6008 46.6035Z" fill="#263238"/>
<path d="M57.4196 53.7744L54.9775 53.8095L55.9609 56.096C56.2632 56.1946 57.6124 55.715 58.2913 54.9659L57.4196 53.7744Z" fill="#B55B52"/>
<path d="M53.293 54.9945L54.6268 56.6678L55.9607 56.094L54.9772 53.8096L53.293 54.9945Z" fill="#B55B52"/>
<path d="M73.8002 34.1434C73.7761 34.3077 73.671 34.4304 73.5637 34.4172C73.4563 34.4041 73.3885 34.2639 73.4104 34.1018C73.4323 33.9398 73.5418 33.8149 73.6491 33.8259C73.7564 33.8368 73.8243 33.9726 73.8002 34.1434Z" fill="#263238"/>
<path d="M73.8462 34.2832C73.5771 34.7634 73.2449 35.2054 72.8584 35.5973C73.1103 35.8996 73.6228 35.8295 73.6228 35.8295L73.8462 34.2832Z" fill="#A02724"/>
<path d="M73.5676 35.4922C73.2018 35.4922 72.8711 34.9644 72.812 34.2898C72.7561 33.9148 72.8471 33.5327 73.066 33.2232C73.1035 33.1779 73.1503 33.1412 73.2032 33.1155C73.2561 33.0898 73.3139 33.0757 73.3727 33.0742C73.7384 33.0742 74.0692 33.5999 74.1283 34.2745C74.1865 34.6496 74.097 35.0327 73.8786 35.3433C73.8407 35.3881 73.7939 35.4246 73.7411 35.4502C73.6882 35.4759 73.6306 35.4902 73.572 35.4922H73.5676ZM73.3705 33.1837C73.3282 33.1861 73.2869 33.1973 73.2492 33.2165C73.2115 33.2357 73.1782 33.2626 73.1515 33.2954C72.9557 33.5841 72.8774 33.9366 72.9324 34.281C72.985 34.879 73.2807 35.3761 73.5895 35.3761C73.6319 35.3734 73.6733 35.3618 73.711 35.3422C73.7487 35.3226 73.7819 35.2954 73.8085 35.2623C74.0053 34.9748 74.0838 34.6226 74.0275 34.2788C73.964 33.6875 73.6683 33.1837 73.3705 33.1837Z" fill="#263238"/>
<path d="M74.3808 33.414C74.4034 33.4158 74.4259 33.4096 74.4443 33.3965C74.455 33.3896 74.4642 33.3807 74.4714 33.3703C74.4786 33.3598 74.4837 33.3481 74.4863 33.3356C74.489 33.3232 74.4891 33.3104 74.4868 33.2979C74.4845 33.2855 74.4797 33.2736 74.4728 33.2629C74.3896 33.1313 74.2767 33.0209 74.1432 32.9407C74.0097 32.8604 73.8593 32.8125 73.704 32.8008C73.6786 32.8008 73.6542 32.8105 73.6358 32.8281C73.6175 32.8456 73.6066 32.8696 73.6055 32.895C73.6055 32.9207 73.6155 32.9455 73.6336 32.9639C73.6516 32.9823 73.6761 32.9929 73.7018 32.9935C73.8255 33.0052 73.9448 33.0452 74.0504 33.1106C74.156 33.1759 74.2451 33.2648 74.3107 33.3702C74.3187 33.382 74.3291 33.3919 74.3412 33.3995C74.3532 33.407 74.3667 33.412 74.3808 33.414Z" fill="#263238"/>
<path d="M79.4023 34.1152C78.9862 36.1105 78.846 37.2954 77.6764 38.2131C77.3002 38.5154 76.8485 38.7092 76.3702 38.7734C75.8919 38.8376 75.4051 38.7699 74.9624 38.5776C74.5198 38.3852 74.1381 38.0756 73.8587 37.6821C73.5793 37.2885 73.4127 36.8261 73.377 36.3448C73.2062 34.4941 73.9136 31.5439 76.0053 30.9613C76.4541 30.8244 76.931 30.8078 77.3883 30.913C77.8456 31.0182 78.2673 31.2417 78.6112 31.5609C78.955 31.8802 79.2091 32.2841 79.3479 32.7324C79.4868 33.1806 79.5055 33.6574 79.4023 34.1152Z" fill="#B55B52"/>
<path d="M82.1226 66.0682C82.2253 63.8336 82.0301 61.5952 81.5422 59.4121H74.4766C75.0252 61.5879 75.2968 63.8243 75.2848 66.0682H82.1226Z" fill="#407BFF"/>
<path opacity="0.3" d="M82.1226 66.0682C82.2253 63.8336 82.0301 61.5952 81.5422 59.4121H74.4766C75.0252 61.5879 75.2968 63.8243 75.2848 66.0682H82.1226Z" fill="white"/>
<path d="M75.0746 34.7153C74.6848 34.5203 74.1986 32.5732 74.3322 31.8811C74.4658 31.189 76.0362 30.4443 77.5803 30.7247C79.1244 31.005 79.788 31.546 80.0881 32.9521C80.3969 34.4108 79.2711 36.8398 78.7148 37.0281C78.385 37.1449 78.0342 37.1901 77.6856 37.1606C77.337 37.1312 76.9987 37.0278 76.6932 36.8573C76.196 36.5529 75.9376 34.3144 75.0746 34.7153Z" fill="#263238"/>
<path d="M74.6651 32.5794C73.9116 32.6232 73.1932 31.423 73.8854 30.352C74.0841 30.0467 74.3667 29.8052 74.6992 29.6564C75.0318 29.5076 75.4001 29.4579 75.7602 29.5131C75.7602 29.5131 75.4448 30.1286 76.4961 29.9993C77.5474 29.8701 79.5055 30.1636 80.1888 30.8995C81.0342 31.8063 80.5239 33.5891 79.2514 33.1511C77.9789 32.713 74.6651 32.5794 74.6651 32.5794Z" fill="#263238"/>
<path d="M74.4641 32.6101C74.3065 32.6026 74.1523 32.5616 74.0118 32.4899C73.8714 32.4181 73.7478 32.3172 73.6493 32.194C73.4525 31.9587 73.325 31.6733 73.2809 31.3697C73.2368 31.0661 73.2779 30.7562 73.3996 30.4747C73.4024 30.4679 73.4064 30.4617 73.4115 30.4565C73.4166 30.4513 73.4227 30.4472 73.4294 30.4443C73.4361 30.4415 73.4433 30.44 73.4506 30.4399C73.4579 30.4399 73.4651 30.4413 73.4719 30.444C73.4787 30.4467 73.4848 30.4508 73.49 30.4559C73.4952 30.461 73.4994 30.4671 73.5022 30.4738C73.5051 30.4805 73.5065 30.4877 73.5066 30.495C73.5067 30.5023 73.5053 30.5095 73.5026 30.5163C73.387 30.7786 73.3472 31.0681 73.3879 31.3519C73.4285 31.6357 73.5479 31.9024 73.7325 32.1217C73.8339 32.2576 73.9707 32.3629 74.1279 32.4263C74.2851 32.4896 74.4567 32.5085 74.624 32.4809C74.6379 32.4781 74.6523 32.4806 74.6644 32.4879C74.6766 32.4952 74.6856 32.5067 74.6897 32.5203C74.6931 32.5345 74.6909 32.5495 74.6835 32.5621C74.6762 32.5748 74.6643 32.5841 74.6502 32.5882C74.5893 32.603 74.5268 32.6104 74.4641 32.6101Z" fill="#263238"/>
<path d="M76.3125 34.463C76.3445 34.9803 76.1777 35.4904 75.846 35.8888C75.408 36.4079 74.8232 36.0947 74.6458 35.4705C74.4859 34.9076 74.5231 33.9614 75.1123 33.6701C75.7015 33.3788 76.2665 33.83 76.3125 34.463Z" fill="#B55B52"/>
<path d="M69.6602 66.0682H77.5121C77.892 63.8708 77.9855 61.6335 77.7903 59.4121H70.5844C70.5844 59.4121 70.1792 62.2222 69.6602 66.0682Z" fill="#407BFF"/>
<path opacity="0.3" d="M69.6602 66.0682H77.5121C77.892 63.8708 77.9855 61.6335 77.7903 59.4121H70.5844C70.5844 59.4121 70.1792 62.2222 69.6602 66.0682Z" fill="white"/>
</g>
<defs>
<clipPath id="clip0_85_4830">
<rect width="109.511" height="109.511" fill="white" transform="translate(0.789062 0.194824)"/>
</clipPath>
</defs>
</svg>
