<svg width="181" height="181" viewBox="0 0 181 181" fill="none" xmlns="http://www.w3.org/2000/svg">
<g clip-path="url(#clip0_85_6078)">
<path d="M180.777 138.132H0.46875V138.222H180.777V138.132Z" fill="#EBEBEB"/>
<path d="M25.1782 141.565H19.3867V141.656H25.1782V141.565Z" fill="#EBEBEB"/>
<path d="M81.4884 140.588H62.1846V140.678H81.4884V140.588Z" fill="#EBEBEB"/>
<path d="M38.6114 144.915H25.5391V145.005H38.6114V144.915Z" fill="#EBEBEB"/>
<path d="M152.767 140.541H137.192V140.631H152.767V140.541Z" fill="#EBEBEB"/>
<path d="M158.263 140.541H155.98V140.631H158.263V140.541Z" fill="#EBEBEB"/>
<path d="M134.218 142.788H114.784V142.878H134.218V142.788Z" fill="#EBEBEB"/>
<path d="M85.935 122.049H16.3036C15.7581 122.048 15.2353 121.831 14.8499 121.445C14.4645 121.059 14.248 120.536 14.248 119.99V22.108C14.2528 21.5656 14.4713 21.047 14.8562 20.6649C15.2411 20.2827 15.7612 20.0678 16.3036 20.0669H85.935C86.4811 20.0669 87.0049 20.2838 87.391 20.67C87.7772 21.0562 87.9941 21.5799 87.9941 22.126V119.99C87.9941 120.536 87.7772 121.06 87.391 121.446C87.0049 121.832 86.4811 122.049 85.935 122.049ZM16.3036 20.139C15.782 20.14 15.2821 20.3478 14.9136 20.717C14.5451 21.0861 14.3382 21.5864 14.3382 22.108V119.99C14.3382 120.512 14.5451 121.012 14.9136 121.381C15.2821 121.75 15.782 121.958 16.3036 121.959H85.935C86.4569 121.958 86.9572 121.75 87.3262 121.381C87.6953 121.012 87.903 120.512 87.904 119.99V22.108C87.903 21.5861 87.6953 21.0858 87.3262 20.7168C86.9572 20.3477 86.4569 20.14 85.935 20.139H16.3036Z" fill="#EBEBEB"/>
<path d="M163.939 122.049H94.3042C93.7584 122.048 93.2352 121.831 92.8493 121.445C92.4633 121.059 92.2461 120.536 92.2451 119.99V22.108C92.2508 21.5653 92.4702 21.0467 92.8556 20.6646C93.241 20.2826 93.7615 20.0678 94.3042 20.0669H163.939C164.481 20.0688 165 20.2841 165.384 20.6661C165.768 21.0482 165.986 21.5662 165.991 22.108V119.99C165.991 120.535 165.775 121.058 165.391 121.444C165.006 121.83 164.484 122.047 163.939 122.049ZM94.3042 20.139C93.7823 20.14 93.2821 20.3477 92.913 20.7168C92.544 21.0858 92.3362 21.5861 92.3353 22.108V119.99C92.3362 120.512 92.544 121.012 92.913 121.381C93.2821 121.75 93.7823 121.958 94.3042 121.959H163.939C164.461 121.958 164.961 121.75 165.331 121.381C165.7 121.012 165.907 120.512 165.908 119.99V22.108C165.907 21.5861 165.7 21.0858 165.331 20.7168C164.961 20.3477 164.461 20.14 163.939 20.139H94.3042Z" fill="#EBEBEB"/>
<path d="M143.399 107.989H141.005V138.133H143.399V107.989Z" fill="#F5F5F5"/>
<path d="M144.441 107.989H142.356V138.133H144.441V107.989Z" fill="#F0F0F0"/>
<path d="M87.5468 107.989H85.1523V138.133H87.5468V107.989Z" fill="#F5F5F5"/>
<path d="M88.5892 107.989H86.5049V138.133H88.5892V107.989Z" fill="#F0F0F0"/>
<path d="M152.476 107.989H150.081V138.133H152.476V107.989Z" fill="#F5F5F5"/>
<path d="M153.518 107.989H151.434V138.133H153.518V107.989Z" fill="#F0F0F0"/>
<path d="M96.624 107.989H94.2295V138.133H96.624V107.989Z" fill="#F5F5F5"/>
<path d="M85.1555 108.558L153.518 108.558V107.415L85.1555 107.415V108.558Z" fill="#F0F0F0"/>
<path d="M85.152 108.558H95.5811V107.415H85.152V108.558Z" fill="#E6E6E6"/>
<path d="M97.6654 107.989H95.5811V138.133H97.6654V107.989Z" fill="#F0F0F0"/>
<path d="M119.342 85.4609H112.876V107.415H119.342V85.4609Z" fill="#EBEBEB"/>
<path d="M136.876 107.415H115.412L112.17 81.7212H133.634L136.876 107.415Z" fill="#E0E0E0"/>
<path d="M138.137 107.415H115.967L112.725 81.7212H134.895L138.137 107.415Z" fill="#F0F0F0"/>
<path d="M125.7 107.415H121.397L122.609 81.7212H126.911L125.7 107.415Z" fill="#FAFAFA"/>
<path d="M130.63 107.415H126.396L127.608 81.7212H131.842L130.63 107.415Z" fill="#FAFAFA"/>
<path d="M155.876 26.3804H100.114V70.0114H155.876V26.3804Z" fill="#E6E6E6"/>
<path d="M157.549 26.3804H100.896V70.0114H157.549V26.3804Z" fill="#F0F0F0"/>
<path d="M155.876 70.0117H100.114V71.4722H155.876V70.0117Z" fill="#E6E6E6"/>
<path d="M158.44 70.0117H101.787V71.4722H158.44V70.0117Z" fill="#F0F0F0"/>
<path d="M155.209 67.6673V28.7207L103.241 28.7207V67.6673H155.209Z" fill="#FAFAFA"/>
<path d="M131.679 67.6681L135.429 28.7251H141.92L138.17 67.6681H131.679Z" fill="white"/>
<path d="M115.3 67.6681L119.05 28.7251H125.541L121.791 67.6681H115.3Z" fill="white"/>
<path d="M104.326 54.4693C104.279 54.4684 104.234 54.449 104.201 54.4153C104.168 54.3815 104.149 54.3362 104.149 54.289V30.2467C104.149 30.1989 104.168 30.153 104.202 30.1192C104.236 30.0854 104.282 30.0664 104.33 30.0664C104.378 30.0664 104.423 30.0854 104.457 30.1192C104.491 30.153 104.51 30.1989 104.51 30.2467V54.289C104.51 54.313 104.505 54.3367 104.496 54.3589C104.487 54.381 104.473 54.401 104.456 54.4178C104.439 54.4346 104.419 54.4478 104.396 54.4566C104.374 54.4655 104.35 54.4698 104.326 54.4693Z" fill="#F0F0F0"/>
<path d="M139.562 67.6681L143.312 28.7251H145.843L142.093 67.6681H139.562Z" fill="white"/>
<path d="M155.209 67.6717V28.7251H154.913V67.6717H155.209Z" fill="#E6E6E6"/>
<path opacity="0.5" d="M158.105 32.9695H102.343L102.127 29.6338H157.889L158.105 32.9695Z" fill="#E0E0E0"/>
<path opacity="0.5" d="M158.105 38.4548H102.343L102.127 35.1191H157.889L158.105 38.4548Z" fill="#E0E0E0"/>
<path opacity="0.5" d="M158.105 43.9392H102.343L102.127 40.6035H157.889L158.105 43.9392Z" fill="#E0E0E0"/>
<path opacity="0.5" d="M158.105 49.4241H102.343L102.127 46.0884H157.889L158.105 49.4241Z" fill="#E0E0E0"/>
<path opacity="0.5" d="M158.105 54.9055H102.343L102.127 51.5698H157.889L158.105 54.9055Z" fill="#E0E0E0"/>
<path opacity="0.5" d="M158.105 60.3909H102.343L102.127 57.0552H157.889L158.105 60.3909Z" fill="#E0E0E0"/>
<path opacity="0.5" d="M158.105 35.7136H102.343L102.127 32.3779H157.889L158.105 35.7136Z" fill="#E0E0E0"/>
<path opacity="0.5" d="M158.105 41.1951H102.343L102.127 37.8594H157.889L158.105 41.1951Z" fill="#E0E0E0"/>
<path opacity="0.5" d="M158.105 46.6804H102.343L102.127 43.3447H157.889L158.105 46.6804Z" fill="#E0E0E0"/>
<path opacity="0.5" d="M158.105 52.1653H102.343L102.127 48.8296H157.889L158.105 52.1653Z" fill="#E0E0E0"/>
<path opacity="0.5" d="M158.105 57.6502H102.343L102.127 54.3145H157.889L158.105 57.6502Z" fill="#E0E0E0"/>
<path opacity="0.5" d="M158.105 63.1342H102.343L102.127 59.7949H157.889L158.105 63.1342Z" fill="#E0E0E0"/>
<path d="M36.2413 48.0361H43.8107C44.7706 48.0361 45.5488 47.2579 45.5488 46.298V43.3914C45.5488 42.4314 44.7706 41.6532 43.8107 41.6532H36.2413C35.2814 41.6532 34.5031 42.4314 34.5031 43.3914V46.298C34.5031 47.2579 35.2814 48.0361 36.2413 48.0361Z" fill="#F5F5F5"/>
<path d="M36.2413 41.6489H43.8107C44.7706 41.6489 45.5488 40.8707 45.5488 39.9108V37.0042C45.5488 36.0442 44.7706 35.266 43.8107 35.266H36.2413C35.2814 35.266 34.5031 36.0442 34.5031 37.0042V39.9108C34.5031 40.8707 35.2814 41.6489 36.2413 41.6489Z" fill="#F5F5F5"/>
<path d="M38.7155 35.2671H41.3372C41.6698 35.2671 41.9395 34.9975 41.9395 34.6649V33.6587C41.9395 33.3261 41.6698 33.0565 41.3372 33.0565H38.7155C38.3829 33.0565 38.1133 33.3261 38.1133 33.6587V34.6649C38.1133 34.9975 38.3829 35.2671 38.7155 35.2671Z" fill="#E0E0E0"/>
<path d="M36.2413 54.4155H43.8107C44.7706 54.4155 45.5488 53.6373 45.5488 52.6774V49.7708C45.5488 48.8108 44.7706 48.0326 43.8107 48.0326H36.2413C35.2814 48.0326 34.5031 48.8108 34.5031 49.7708V52.6774C34.5031 53.6373 35.2814 54.4155 36.2413 54.4155Z" fill="#F5F5F5"/>
<path d="M76.3859 49.9985C76.3859 49.9985 76.0253 54.4341 62.0009 54.4341C47.9765 54.4341 47.6123 49.9985 47.6123 49.9985H76.3859Z" fill="#F0F0F0"/>
<path d="M33.371 55.3169H22.2568V134.014H33.371V55.3169Z" fill="#F0F0F0"/>
<path d="M79.1952 134.014H24.3887V138.132H79.1952V134.014Z" fill="#F0F0F0"/>
<path d="M33.3717 134.011H81.3301L81.3301 55.3134H33.3717L33.3717 134.011Z" fill="#F5F5F5"/>
<path d="M37.7383 101.851H76.959V83.2788H37.7383V101.851Z" fill="#F0F0F0"/>
<path d="M37.7383 124.566H76.959V105.994H37.7383V124.566Z" fill="#F0F0F0"/>
<path d="M37.7383 131.262H76.959V128.431H37.7383V131.262Z" fill="#F0F0F0"/>
<path d="M67.316 84.7498H47.3811C46.9682 84.7489 46.5725 84.5844 46.2806 84.2925C45.9886 84.0005 45.8242 83.6048 45.8232 83.192C45.8251 82.7797 45.99 82.3849 46.2819 82.0938C46.5737 81.8026 46.9688 81.6386 47.3811 81.6377H67.316C67.7282 81.6386 68.1234 81.8026 68.4152 82.0938C68.7071 82.3849 68.872 82.7797 68.8739 83.192C68.8729 83.6048 68.7085 84.0005 68.4165 84.2925C68.1246 84.5844 67.7289 84.7489 67.316 84.7498Z" fill="#F5F5F5"/>
<path d="M37.7383 79.1387H76.959V60.5669H37.7383V79.1387Z" fill="#F0F0F0"/>
<path d="M67.316 62.0381H47.3811C46.9682 62.0371 46.5725 61.8727 46.2806 61.5807C45.9886 61.2888 45.8242 60.8931 45.8232 60.4802C45.8242 60.0674 45.9886 59.6717 46.2806 59.3797C46.5725 59.0878 46.9682 58.9233 47.3811 58.9224H67.316C67.7289 58.9233 68.1246 59.0878 68.4165 59.3797C68.7085 59.6717 68.8729 60.0674 68.8739 60.4802C68.8729 60.8931 68.7085 61.2888 68.4165 61.5807C68.1246 61.8727 67.7289 62.0371 67.316 62.0381Z" fill="#F5F5F5"/>
<path d="M67.316 107.466H47.3811C46.9682 107.465 46.5725 107.3 46.2806 107.008C45.9886 106.717 45.8242 106.321 45.8232 105.908C45.8242 105.495 45.9886 105.099 46.2806 104.807C46.5725 104.515 46.9682 104.351 47.3811 104.35H67.316C67.7289 104.351 68.1246 104.515 68.4165 104.807C68.7085 105.099 68.8729 105.495 68.8739 105.908C68.8729 106.321 68.7085 106.717 68.4165 107.008C68.1246 107.3 67.7289 107.465 67.316 107.466Z" fill="#F5F5F5"/>
<path d="M82.8077 54.4189H33.3672V55.3169H82.8077V54.4189Z" fill="#F0F0F0"/>
<path d="M20.7062 55.3169H33.3711V54.419H20.7062V55.3169Z" fill="#E6E6E6"/>
<path d="M90.6231 154.418C129.239 154.418 160.543 152.59 160.543 150.336C160.543 148.081 129.239 146.253 90.6231 146.253C52.0073 146.253 20.7031 148.081 20.7031 150.336C20.7031 152.59 52.0073 154.418 90.6231 154.418Z" fill="#F5F5F5"/>
<path d="M159.883 114.588H21.3627L18.8096 112.171H162.436L159.883 114.588Z" fill="#407BFF"/>
<path opacity="0.5" d="M159.883 114.588H21.3627L18.8096 112.171H162.436L159.883 114.588Z" fill="white"/>
<path d="M148.003 115.89H33.2408L31.124 114.588H150.12L148.003 115.89Z" fill="#407BFF"/>
<path opacity="0.5" d="M148.003 115.89H33.2408L31.124 114.588H150.12L148.003 115.89Z" fill="black"/>
<path d="M32.3326 150.335H30.6846L35.7945 115.889H39.4692L32.3326 150.335Z" fill="#407BFF"/>
<path opacity="0.5" d="M32.3326 150.335H30.6846L35.7945 115.889H39.4692L32.3326 150.335Z" fill="black"/>
<path d="M41.2548 150.335H39.6104L44.7203 115.889H48.395L41.2548 150.335Z" fill="#407BFF"/>
<path opacity="0.5" d="M41.2548 150.335H39.6104L44.7203 115.889H48.395L41.2548 150.335Z" fill="black"/>
<path d="M148.913 150.335H150.561L145.451 115.889H141.776L148.913 150.335Z" fill="#407BFF"/>
<path opacity="0.5" d="M148.913 150.335H150.561L145.451 115.889H141.776L148.913 150.335Z" fill="black"/>
<path d="M139.991 150.335H141.635L136.525 115.889H132.851L139.991 150.335Z" fill="#407BFF"/>
<path opacity="0.5" d="M139.991 150.335H141.635L136.525 115.889H132.851L139.991 150.335Z" fill="black"/>
<path d="M81.3475 34.5414L86.0031 34.8551C86.1837 34.8663 86.3577 34.9266 86.5065 35.0296C86.6552 35.1325 86.773 35.2742 86.8469 35.4393L87.3374 36.5212C87.4438 36.7547 87.6363 36.9382 87.8747 37.0332C88.4587 37.2732 89.025 37.554 89.5696 37.8735C89.7869 38.0013 90.0445 38.0425 90.2908 37.9889L91.4592 37.7148C91.6353 37.6742 91.819 37.6819 91.9911 37.7371C92.1631 37.7923 92.317 37.893 92.4365 38.0285L95.5089 41.5409C95.6281 41.6776 95.7079 41.8441 95.7397 42.0226C95.7714 42.2011 95.754 42.3849 95.6893 42.5543L95.2637 43.6722C95.174 43.9129 95.1805 44.179 95.2818 44.415C95.5256 45.0012 95.728 45.6037 95.8876 46.2181C95.9492 46.467 96.1058 46.6819 96.3239 46.8168L97.3409 47.4478C97.4948 47.5427 97.6198 47.6779 97.7024 47.8387C97.785 47.9995 97.8221 48.1798 97.8097 48.3602L97.4996 53.0194C97.4878 53.1998 97.4268 53.3735 97.3232 53.5217C97.2195 53.6699 97.0772 53.7867 96.9118 53.8596L95.8299 54.35C95.5978 54.4585 95.415 54.6503 95.3178 54.8874C95.0805 55.4719 94.8009 56.0384 94.4812 56.5822C94.3524 56.7992 94.3111 57.0571 94.3658 57.3035L94.6363 58.4683C94.6781 58.6443 94.671 58.8284 94.6157 59.0007C94.5604 59.1729 94.459 59.3268 94.3225 59.4455L90.8101 62.518C90.6742 62.6372 90.5083 62.7171 90.3304 62.7488C90.1524 62.7806 89.9691 62.7631 89.8004 62.6983L88.6789 62.2728C88.4414 62.179 88.1771 62.179 87.9396 62.2728C87.3531 62.5155 86.7506 62.7179 86.1365 62.8786C85.8883 62.9416 85.6739 63.0979 85.5379 63.315L84.9068 64.3319C84.8111 64.4858 84.6752 64.6107 84.5138 64.6933C84.3525 64.7759 84.1717 64.813 83.9909 64.8007L79.3353 64.4906C79.155 64.4786 78.9812 64.418 78.8326 64.3151C78.684 64.2123 78.5661 64.071 78.4915 63.9064L78.001 62.8245C77.8946 62.5909 77.7021 62.4075 77.4637 62.3124C76.8797 62.0724 76.3134 61.7917 75.7688 61.4722C75.5516 61.3441 75.2939 61.3029 75.0476 61.3568L73.8828 61.6309C73.7068 61.6723 73.5228 61.665 73.3506 61.6097C73.1784 61.5544 73.0245 61.4533 72.9055 61.3171L69.8294 57.8047C69.711 57.6677 69.6316 57.5012 69.5999 57.3229C69.5682 57.1445 69.5852 56.9609 69.6491 56.7914L70.0747 55.6735C70.1646 55.434 70.1581 55.169 70.0566 54.9342C69.8135 54.3478 69.6111 53.7454 69.4508 53.1312C69.3892 52.8822 69.2326 52.6674 69.0145 52.5325L67.9975 51.9014C67.8436 51.8066 67.7186 51.6714 67.636 51.5106C67.5534 51.3498 67.5163 51.1695 67.5287 50.9891L67.8389 46.3299C67.8515 46.1493 67.9128 45.9755 68.0163 45.8269C68.1198 45.6783 68.2616 45.5605 68.4267 45.4861L69.5085 44.9992C69.7421 44.8929 69.9256 44.7004 70.0206 44.4619C70.2606 43.8768 70.5413 43.3092 70.8608 42.7634C70.9895 42.5464 71.032 42.289 70.9798 42.0422L70.7058 40.8774C70.6643 40.7014 70.6717 40.5174 70.7269 40.3452C70.7822 40.173 70.8833 40.0192 71.0195 39.9001L74.5319 36.8277C74.6676 36.7082 74.8333 36.6279 75.0112 36.5955C75.1891 36.5631 75.3725 36.5798 75.5416 36.6438L76.6631 37.0693C76.9003 37.1649 77.1653 37.1649 77.4024 37.0693C77.9883 36.825 78.5909 36.6225 79.2055 36.4635C79.4524 36.3997 79.6661 36.2451 79.8041 36.0307L80.4352 35.0138C80.5305 34.8601 80.6656 34.735 80.8262 34.6518C80.9869 34.5686 81.167 34.5305 81.3475 34.5414ZM73.8647 49.0995C73.7481 50.8424 74.1509 52.5809 75.0223 54.0949C75.8937 55.6089 77.1945 56.8305 78.7602 57.6051C80.326 58.3798 82.0863 58.6727 83.8185 58.4468C85.5507 58.2209 87.177 57.4864 88.4917 56.3361C89.8065 55.1859 90.7505 53.6716 91.2045 51.9847C91.6585 50.2979 91.6021 48.5143 91.0423 46.8595C90.4826 45.2047 89.4446 43.7531 88.0598 42.6883C86.675 41.6235 85.0054 40.9933 83.2624 40.8774C80.9263 40.723 78.6243 41.5022 76.8623 43.0439C75.1002 44.5855 74.0221 46.7635 73.8647 49.0995Z" fill="#407BFF"/>
<path d="M99.8002 54.224L101.398 53.6831C101.482 53.6553 101.573 53.6507 101.66 53.6697C101.746 53.6887 101.827 53.7307 101.892 53.7913L102.155 54.0437C102.247 54.1264 102.367 54.1725 102.49 54.1735C102.71 54.1733 102.929 54.1878 103.147 54.2168C103.21 54.227 103.274 54.2246 103.336 54.2098C103.398 54.1949 103.456 54.1679 103.507 54.1302L103.803 53.9175C103.876 53.8663 103.961 53.8356 104.05 53.8286C104.139 53.8216 104.228 53.8386 104.308 53.8778L105.819 54.6279C105.898 54.6669 105.966 54.7267 106.014 54.801C106.062 54.8753 106.09 54.9613 106.093 55.0498V55.4104C106.098 55.5352 106.149 55.6536 106.237 55.7422C106.393 55.8966 106.537 56.0617 106.67 56.2362C106.745 56.3345 106.855 56.4013 106.977 56.4238L107.337 56.4814C107.425 56.4961 107.507 56.5344 107.574 56.5922C107.641 56.6501 107.692 56.7253 107.719 56.8096L108.26 58.4071C108.29 58.4912 108.296 58.5817 108.277 58.6688C108.259 58.7559 108.217 58.8363 108.156 58.9012L107.903 59.1644C107.82 59.2563 107.774 59.3758 107.773 59.4998C107.774 59.7193 107.759 59.9386 107.73 60.1561C107.72 60.2187 107.722 60.2828 107.736 60.3447C107.75 60.4066 107.776 60.465 107.813 60.5167L108.026 60.8125C108.078 60.884 108.11 60.9686 108.118 61.057C108.126 61.1454 108.109 61.2342 108.069 61.3137L107.319 62.8283C107.28 62.9078 107.22 62.9753 107.146 63.0236C107.072 63.0718 106.986 63.099 106.897 63.1024H106.537C106.413 63.1062 106.295 63.1579 106.208 63.2466C106.051 63.3993 105.886 63.5438 105.714 63.6794C105.616 63.7548 105.549 63.864 105.527 63.9859L105.469 64.3465C105.455 64.4341 105.416 64.516 105.358 64.5834C105.3 64.6508 105.225 64.701 105.141 64.7288L103.543 65.2697C103.459 65.2986 103.368 65.3038 103.281 65.2848C103.194 65.2657 103.114 65.223 103.049 65.1615L102.783 64.9127C102.692 64.8272 102.572 64.7806 102.447 64.7828C102.229 64.7829 102.011 64.7685 101.794 64.7396C101.732 64.7288 101.668 64.7306 101.606 64.7449C101.544 64.7591 101.485 64.7855 101.434 64.8225L101.138 65.0353C101.066 65.0878 100.981 65.1195 100.892 65.1272C100.803 65.1348 100.713 65.118 100.633 65.0786L99.1223 64.3285C99.0422 64.2892 98.9744 64.2288 98.9261 64.1538C98.8778 64.0788 98.8509 63.9921 98.8482 63.9029V63.5423C98.8426 63.4188 98.7911 63.3018 98.704 63.2142C98.5493 63.0589 98.4047 62.8939 98.2712 62.7201C98.235 62.6702 98.1892 62.628 98.1366 62.5958C98.084 62.5636 98.0256 62.5422 97.9647 62.5326L97.6041 62.4749C97.5166 62.459 97.4348 62.4203 97.367 62.3627C97.2993 62.3051 97.2479 62.2306 97.2182 62.1467L96.6773 60.5456C96.6495 60.4617 96.6448 60.3718 96.6639 60.2855C96.6829 60.1991 96.7249 60.1196 96.7855 60.0552L97.0379 59.7919C97.1214 59.6987 97.1676 59.578 97.1677 59.4529C97.1677 59.2334 97.1821 59.0142 97.211 58.7966C97.2309 58.6697 97.1998 58.5401 97.1245 58.436L96.9153 58.1403C96.8628 58.0688 96.8309 57.9842 96.8233 57.8957C96.8157 57.8073 96.8325 57.7185 96.872 57.639L97.6221 56.1244C97.6607 56.0448 97.7205 55.9774 97.7949 55.9297C97.8694 55.882 97.9556 55.8558 98.044 55.854H98.4047C98.5294 55.8492 98.6478 55.7977 98.7364 55.7097C98.8917 55.555 99.0567 55.4105 99.2305 55.277C99.3287 55.2015 99.3955 55.0923 99.418 54.9705L99.4757 54.6098C99.4894 54.522 99.5269 54.4397 99.5841 54.3716C99.6413 54.3036 99.7161 54.2526 99.8002 54.224ZM100.756 60.0588C100.871 60.3961 101.083 60.6919 101.366 60.9087C101.648 61.1256 101.989 61.2538 102.345 61.2771C102.7 61.3005 103.055 61.218 103.363 61.04C103.672 60.862 103.921 60.5966 104.079 60.2771C104.237 59.9577 104.297 59.5987 104.251 59.2453C104.205 58.892 104.055 58.5601 103.821 58.2918C103.586 58.0234 103.278 57.8305 102.934 57.7374C102.59 57.6444 102.226 57.6553 101.888 57.7689C101.663 57.8445 101.455 57.9638 101.277 58.1199C101.098 58.2761 100.952 58.4659 100.847 58.6787C100.741 58.8914 100.679 59.1229 100.664 59.3597C100.648 59.5965 100.679 59.8341 100.756 60.0588Z" fill="#407BFF"/>
<path opacity="0.5" d="M99.8002 54.224L101.398 53.6831C101.482 53.6553 101.573 53.6507 101.66 53.6697C101.746 53.6887 101.827 53.7307 101.892 53.7913L102.155 54.0437C102.247 54.1264 102.367 54.1725 102.49 54.1735C102.71 54.1733 102.929 54.1878 103.147 54.2168C103.21 54.227 103.274 54.2246 103.336 54.2098C103.398 54.1949 103.456 54.1679 103.507 54.1302L103.803 53.9175C103.876 53.8663 103.961 53.8356 104.05 53.8286C104.139 53.8216 104.228 53.8386 104.308 53.8778L105.819 54.6279C105.898 54.6669 105.966 54.7267 106.014 54.801C106.062 54.8753 106.09 54.9613 106.093 55.0498V55.4104C106.098 55.5352 106.149 55.6536 106.237 55.7422C106.393 55.8966 106.537 56.0617 106.67 56.2362C106.745 56.3345 106.855 56.4013 106.977 56.4238L107.337 56.4814C107.425 56.4961 107.507 56.5344 107.574 56.5922C107.641 56.6501 107.692 56.7253 107.719 56.8096L108.26 58.4071C108.29 58.4912 108.296 58.5817 108.277 58.6688C108.259 58.7559 108.217 58.8363 108.156 58.9012L107.903 59.1644C107.82 59.2563 107.774 59.3758 107.773 59.4998C107.774 59.7193 107.759 59.9386 107.73 60.1561C107.72 60.2187 107.722 60.2828 107.736 60.3447C107.75 60.4066 107.776 60.465 107.813 60.5167L108.026 60.8125C108.078 60.884 108.11 60.9686 108.118 61.057C108.126 61.1454 108.109 61.2342 108.069 61.3137L107.319 62.8283C107.28 62.9078 107.22 62.9753 107.146 63.0236C107.072 63.0718 106.986 63.099 106.897 63.1024H106.537C106.413 63.1062 106.295 63.1579 106.208 63.2466C106.051 63.3993 105.886 63.5438 105.714 63.6794C105.616 63.7548 105.549 63.864 105.527 63.9859L105.469 64.3465C105.455 64.4341 105.416 64.516 105.358 64.5834C105.3 64.6508 105.225 64.701 105.141 64.7288L103.543 65.2697C103.459 65.2986 103.368 65.3038 103.281 65.2848C103.194 65.2657 103.114 65.223 103.049 65.1615L102.783 64.9127C102.692 64.8272 102.572 64.7806 102.447 64.7828C102.229 64.7829 102.011 64.7685 101.794 64.7396C101.732 64.7288 101.668 64.7306 101.606 64.7449C101.544 64.7591 101.485 64.7855 101.434 64.8225L101.138 65.0353C101.066 65.0878 100.981 65.1195 100.892 65.1272C100.803 65.1348 100.713 65.118 100.633 65.0786L99.1223 64.3285C99.0422 64.2892 98.9744 64.2288 98.9261 64.1538C98.8778 64.0788 98.8509 63.9921 98.8482 63.9029V63.5423C98.8426 63.4188 98.7911 63.3018 98.704 63.2142C98.5493 63.0589 98.4047 62.8939 98.2712 62.7201C98.235 62.6702 98.1892 62.628 98.1366 62.5958C98.084 62.5636 98.0256 62.5422 97.9647 62.5326L97.6041 62.4749C97.5166 62.459 97.4348 62.4203 97.367 62.3627C97.2993 62.3051 97.2479 62.2306 97.2182 62.1467L96.6773 60.5456C96.6495 60.4617 96.6448 60.3718 96.6639 60.2855C96.6829 60.1991 96.7249 60.1196 96.7855 60.0552L97.0379 59.7919C97.1214 59.6987 97.1676 59.578 97.1677 59.4529C97.1677 59.2334 97.1821 59.0142 97.211 58.7966C97.2309 58.6697 97.1998 58.5401 97.1245 58.436L96.9153 58.1403C96.8628 58.0688 96.8309 57.9842 96.8233 57.8957C96.8157 57.8073 96.8325 57.7185 96.872 57.639L97.6221 56.1244C97.6607 56.0448 97.7205 55.9774 97.7949 55.9297C97.8694 55.882 97.9556 55.8558 98.044 55.854H98.4047C98.5294 55.8492 98.6478 55.7977 98.7364 55.7097C98.8917 55.555 99.0567 55.4105 99.2305 55.277C99.3287 55.2015 99.3955 55.0923 99.418 54.9705L99.4757 54.6098C99.4894 54.522 99.5269 54.4397 99.5841 54.3716C99.6413 54.3036 99.7161 54.2526 99.8002 54.224ZM100.756 60.0588C100.871 60.3961 101.083 60.6919 101.366 60.9087C101.648 61.1256 101.989 61.2538 102.345 61.2771C102.7 61.3005 103.055 61.218 103.363 61.04C103.672 60.862 103.921 60.5966 104.079 60.2771C104.237 59.9577 104.297 59.5987 104.251 59.2453C104.205 58.892 104.055 58.5601 103.821 58.2918C103.586 58.0234 103.278 57.8305 102.934 57.7374C102.59 57.6444 102.226 57.6553 101.888 57.7689C101.663 57.8445 101.455 57.9638 101.277 58.1199C101.098 58.2761 100.952 58.4659 100.847 58.6787C100.741 58.8914 100.679 59.1229 100.664 59.3597C100.648 59.5965 100.679 59.8341 100.756 60.0588Z" fill="white"/>
<path d="M90.5869 71.5405L92.5703 68.1038C92.6437 67.976 92.6825 67.8312 92.6829 67.6838C92.6832 67.5363 92.6451 67.3914 92.5722 67.2632C92.4994 67.135 92.3944 67.028 92.2676 66.9528C92.1407 66.8776 91.9965 66.8368 91.8491 66.8345H87.8823C87.7344 66.8358 87.5895 66.8759 87.4621 66.9508C87.3346 67.0258 87.2291 67.1329 87.1561 67.2614C87.083 67.39 87.045 67.5355 87.0459 67.6833C87.0468 67.8311 87.0865 67.9762 87.1611 68.1038L89.1445 71.5405C89.2204 71.6636 89.3265 71.7651 89.4527 71.8356C89.579 71.906 89.7211 71.943 89.8657 71.943C90.0103 71.943 90.1524 71.906 90.2787 71.8356C90.4049 71.7651 90.511 71.6636 90.5869 71.5405Z" fill="#407BFF"/>
<path d="M25.5996 110.732H74.2143C74.3812 110.733 74.5465 110.7 74.7003 110.635C74.8542 110.57 74.9933 110.475 75.1095 110.355C75.2256 110.235 75.3164 110.093 75.3764 109.937C75.4363 109.782 75.4642 109.615 75.4584 109.448L74.308 74.6922C74.2924 74.3483 74.1459 74.0235 73.8985 73.7841C73.6511 73.5448 73.3216 73.4091 72.9774 73.4048H24.3663C24.1989 73.4037 24.033 73.4366 23.8787 73.5014C23.7244 73.5663 23.5849 73.6618 23.4686 73.7821C23.3522 73.9025 23.2616 74.0452 23.202 74.2017C23.1425 74.3581 23.1153 74.525 23.1221 74.6922L24.2689 109.448C24.2828 109.793 24.4289 110.118 24.6768 110.357C24.9246 110.596 25.2552 110.731 25.5996 110.732Z" fill="#407BFF"/>
<path d="M25.9959 110.732H74.6106C74.7775 110.733 74.9429 110.7 75.0967 110.635C75.2505 110.57 75.3897 110.475 75.5058 110.355C75.622 110.235 75.7127 110.093 75.7727 109.937C75.8327 109.782 75.8606 109.615 75.8547 109.448L74.7044 74.6922C74.6888 74.3483 74.5422 74.0234 74.2948 73.7841C74.0475 73.5447 73.7179 73.409 73.3737 73.4048H24.7626C24.5954 73.4042 24.4297 73.4374 24.2757 73.5024C24.1216 73.5675 23.9823 73.663 23.8661 73.7832C23.7498 73.9035 23.6591 74.046 23.5994 74.2022C23.5397 74.3584 23.5121 74.5251 23.5185 74.6922L24.6688 109.448C24.6827 109.792 24.8283 110.117 25.0754 110.356C25.3225 110.595 25.6521 110.73 25.9959 110.732Z" fill="#407BFF"/>
<g opacity="0.6">
<path d="M25.9959 110.732H74.6106C74.7775 110.733 74.9429 110.7 75.0967 110.635C75.2505 110.57 75.3897 110.475 75.5058 110.355C75.622 110.235 75.7127 110.093 75.7727 109.937C75.8327 109.782 75.8606 109.615 75.8547 109.448L74.7044 74.6922C74.6888 74.3483 74.5422 74.0234 74.2948 73.7841C74.0475 73.5447 73.7179 73.409 73.3737 73.4048H24.7626C24.5954 73.4042 24.4297 73.4374 24.2757 73.5024C24.1216 73.5675 23.9823 73.663 23.8661 73.7832C23.7498 73.9035 23.6591 74.046 23.5994 74.2022C23.5397 74.3584 23.5121 74.5251 23.5185 74.6922L24.6688 109.448C24.6827 109.792 24.8283 110.117 25.0754 110.356C25.3225 110.595 25.6521 110.73 25.9959 110.732Z" fill="#263238"/>
</g>
<path d="M26.6231 110.671H85.3351C85.6238 110.671 85.9068 110.752 86.1516 110.905C86.3965 111.058 86.5934 111.277 86.7198 111.536C86.7523 111.604 86.7669 111.679 86.7623 111.754C86.7578 111.829 86.7342 111.902 86.6938 111.966C86.6534 112.029 86.5975 112.081 86.5314 112.117C86.4653 112.153 86.3912 112.172 86.3159 112.171H25.6422C25.5667 112.172 25.4921 112.154 25.4255 112.119C25.3589 112.083 25.3025 112.031 25.2617 111.967C25.2209 111.904 25.197 111.831 25.1923 111.755C25.1876 111.68 25.2022 111.605 25.2347 111.536C25.3618 111.277 25.5593 111.058 25.8048 110.905C26.0503 110.752 26.3338 110.671 26.6231 110.671Z" fill="#407BFF"/>
<path opacity="0.6" d="M85.3357 110.671H38.4844C38.1952 110.671 37.9116 110.752 37.6661 110.905C37.4206 111.058 37.2231 111.277 37.0961 111.536C37.0635 111.605 37.0489 111.68 37.0536 111.755C37.0583 111.831 37.0822 111.904 37.123 111.967C37.1639 112.031 37.2202 112.083 37.2868 112.119C37.3534 112.154 37.428 112.172 37.5035 112.171H86.3166C86.3918 112.172 86.466 112.153 86.5321 112.117C86.5982 112.081 86.6541 112.029 86.6945 111.966C86.7348 111.902 86.7584 111.829 86.763 111.754C86.7675 111.679 86.7529 111.604 86.7205 111.536C86.594 111.277 86.3971 111.058 86.1523 110.905C85.9074 110.752 85.6245 110.671 85.3357 110.671Z" fill="#263238"/>
<path opacity="0.3" d="M57.3304 111.623H69.5192C69.6639 111.624 69.8024 111.682 69.9045 111.785C70.0065 111.888 70.0637 112.026 70.0637 112.171H56.7822C56.7822 112.026 56.84 111.886 56.9428 111.784C57.0456 111.681 57.185 111.623 57.3304 111.623Z" fill="white"/>
<path opacity="0.9" d="M74.6937 108.19L73.6119 75.951C73.6054 75.817 73.5481 75.6905 73.4516 75.5974C73.3551 75.5042 73.2267 75.4514 73.0926 75.4497H25.163C25.0969 75.4491 25.0314 75.4621 24.9706 75.488C24.9097 75.5139 24.8549 75.5521 24.8095 75.6002C24.7641 75.6482 24.7292 75.7052 24.7069 75.7674C24.6845 75.8297 24.6753 75.8958 24.6798 75.9618L25.7617 108.201C25.7663 108.335 25.8226 108.462 25.9187 108.555C26.0148 108.649 26.1433 108.701 26.2773 108.702H74.2393C74.3028 108.699 74.365 108.682 74.4222 108.655C74.4794 108.627 74.5306 108.588 74.5728 108.54C74.6151 108.493 74.6475 108.437 74.6682 108.377C74.689 108.317 74.6976 108.254 74.6937 108.19Z" fill="white"/>
<path d="M35.1814 108.691H28.5713L36.1911 75.4497H42.8012L35.1814 108.691Z" fill="white"/>
<path d="M39.3928 108.691H37.0127L44.6325 75.4497H47.0126L39.3928 108.691Z" fill="white"/>
<path d="M63.7092 108.691H61.3291L68.9489 75.4497H71.3254L63.7092 108.691Z" fill="white"/>
<path opacity="0.4" d="M48.7256 74.4832C48.7345 74.5808 48.7792 74.6716 48.8511 74.7382C48.923 74.8048 49.017 74.8424 49.115 74.8438C49.2107 74.8438 49.3024 74.8058 49.37 74.7382C49.4377 74.6705 49.4757 74.5788 49.4757 74.4832C49.4684 74.385 49.4241 74.2932 49.3519 74.2263C49.2796 74.1593 49.1847 74.1223 49.0862 74.1226C48.9906 74.1226 48.8988 74.1606 48.8312 74.2282C48.7636 74.2958 48.7256 74.3875 48.7256 74.4832Z" fill="white"/>
<path d="M64.2038 70.9346C64.8421 71.9587 65.5308 73.0442 66.2196 74.09C66.9084 75.1358 67.6152 76.1815 68.3364 77.2057C69.7359 79.2405 71.2493 81.1946 72.8694 83.0585C73.6305 83.9286 74.4562 84.7399 75.3396 85.4854L75.6497 85.7307C75.7175 85.7888 75.7885 85.843 75.8625 85.8929C76.0494 86.0158 76.2433 86.1278 76.4431 86.2283C76.9299 86.4652 77.4338 86.6653 77.9505 86.8269C78.495 87.0109 79.0684 87.1876 79.6526 87.321C80.2368 87.4544 80.839 87.6095 81.4557 87.7357C82.6637 87.9917 83.9259 88.2261 85.1412 88.4353V90.9596C84.4488 91.0606 83.7997 91.1111 83.1253 91.1579C82.451 91.2048 81.7838 91.2229 81.1059 91.2265C79.7216 91.2312 78.3393 91.1214 76.9732 90.8983C76.2334 90.7697 75.5042 90.5865 74.7915 90.3502C74.3926 90.2133 74.0045 90.0469 73.6303 89.8525C73.4319 89.7588 73.2228 89.6253 73.0208 89.4919L72.5556 89.1673C71.4078 88.3239 70.3341 87.3841 69.3462 86.3581C67.4855 84.4162 65.7635 82.346 64.1929 80.1627C63.4116 79.0929 62.6591 78.0111 61.9355 76.9172C61.2142 75.8065 60.493 74.7174 59.8223 73.5346L64.2038 70.9346Z" fill="#FFC3BD"/>
<path d="M58.1346 71.6343C57.774 74.8005 65.3217 82.3662 65.3217 82.3662L70.428 78.1037C68.9316 75.5716 67.2754 73.1373 65.4695 70.8157C62.5666 67.2203 58.5277 68.0533 58.1346 71.6343Z" fill="#407BFF"/>
<path opacity="0.3" d="M62.26 73.8812C60.2442 71.7175 59.2813 71.1586 58.1201 72.0204C58.2752 75.3633 65.3324 82.3593 65.3324 82.3593C65.794 78.7712 63.9657 76.4632 62.26 73.8812Z" fill="black"/>
<path d="M70.0126 76.6426L70.5499 78.2004L64.8377 82.8885L63.709 81.7165L70.0126 76.6426Z" fill="#407BFF"/>
<path opacity="0.3" d="M70.0126 76.6426L70.5499 78.2004L64.8377 82.8885L63.709 81.7165L70.0126 76.6426Z" fill="#263238"/>
<path d="M84.8705 88.3848L88.8373 89.0663L86.6556 92.5499C86.1363 92.6328 84.0664 91.5113 83.1504 90.1193L84.8705 88.3848Z" fill="#FFC3BD"/>
<path d="M91.2709 91.4171L89.6878 93.213L86.6514 92.5314L88.8295 89.0659L91.2709 91.4171Z" fill="#FFC3BD"/>
<path d="M62.2416 68.6011C62.2416 68.6011 66.569 78.7777 63.4533 97.7317H45.4225C45.2025 94.9658 46.4719 81.4679 43.3525 68.428C45.3375 68.0429 47.3457 67.7887 49.364 67.6671C51.9162 67.5192 54.4749 67.5192 57.0271 67.6671C58.7868 67.8436 60.5301 68.1558 62.2416 68.6011Z" fill="#407BFF"/>
<path opacity="0.3" d="M47.3808 71.6341C47.7414 73.7978 47.2582 78.9113 45.4191 84.8471C45.2782 79.756 44.6856 74.6875 43.6484 69.7012V69.676C44.824 69.5786 47.0238 69.6363 47.3808 71.6341Z" fill="black"/>
<path d="M49.8222 59.0386C50.392 61.5052 51.0303 66.0237 49.3643 67.6681C49.3643 67.6681 50.0855 69.7092 54.6653 69.7092C59.714 69.7092 57.0274 67.6681 57.0274 67.6681C54.2542 67.0118 54.2542 64.9707 54.6653 63.0558L49.8222 59.0386Z" fill="#FFC3BD"/>
<path d="M54.9753 69.8992L56.0571 71.0424C56.09 71.0761 56.1117 71.119 56.1194 71.1654C56.1272 71.2118 56.1205 71.2595 56.1004 71.302L55.5595 72.4307C55.5421 72.4692 55.5143 72.5021 55.4793 72.5257C55.4443 72.5492 55.4033 72.5626 55.3612 72.5642L54.5426 72.6038C54.5036 72.6054 54.4649 72.597 54.4302 72.5793C54.3954 72.5616 54.3658 72.5353 54.3442 72.5029L53.5869 71.421C53.5565 71.3804 53.54 71.3311 53.54 71.2804C53.54 71.2297 53.5565 71.1803 53.5869 71.1397L54.6255 69.91C54.646 69.8836 54.6721 69.8621 54.7019 69.847C54.7317 69.8318 54.7644 69.8234 54.7978 69.8224C54.8313 69.8213 54.8645 69.8277 54.8952 69.841C54.9258 69.8543 54.9532 69.8741 54.9753 69.8992Z" fill="white"/>
<path d="M54.7983 69.7085C54.2778 70.5459 53.9764 71.5008 53.922 72.4852C53.922 72.4852 48.0691 70.4838 48.336 67.5556C48.8558 67.3036 49.3561 67.0131 49.8326 66.6865C49.8326 66.6865 50.0237 68.5365 54.7983 69.7085Z" fill="#263238"/>
<path d="M54.7988 69.7084C55.3195 70.5024 55.6943 71.3828 55.9059 72.3084C55.9059 72.3084 58.6178 70.4512 57.846 67.5555L56.2521 67.2129C56.2521 67.2129 56.5875 69.0809 54.7988 69.7084Z" fill="#263238"/>
<path d="M55.4623 72.4425C55.8229 73.6398 58.5419 82.5181 58.6104 84.6422C58.6122 84.6602 58.6122 84.6783 58.6104 84.6963C58.358 85.8394 57.2257 87.8444 56.7641 88.6306C56.7464 88.6616 56.7203 88.6871 56.6888 88.7041C56.6573 88.721 56.6217 88.7288 56.586 88.7266C56.5504 88.7243 56.516 88.7121 56.4869 88.6913C56.4578 88.6705 56.4352 88.642 56.4215 88.609C56.1042 87.8336 55.3397 85.9764 54.8348 84.891C54.8255 84.8704 54.8194 84.8485 54.8168 84.8261C54.5788 80.9495 54.5138 74.9199 54.3948 72.511C54.3934 72.485 54.3972 72.459 54.4062 72.4346C54.4151 72.4101 54.429 72.3877 54.4468 72.3688C54.4647 72.3499 54.4863 72.3349 54.5102 72.3246C54.5342 72.3143 54.5599 72.309 54.586 72.3091H55.282C55.3222 72.3095 55.3614 72.3226 55.3937 72.3466C55.4261 72.3705 55.4501 72.4041 55.4623 72.4425Z" fill="white"/>
<path opacity="0.2" d="M51.7982 60.6753L54.6651 63.0518C54.5614 63.4984 54.4974 63.9533 54.474 64.4113C53.4174 64.2598 51.9497 63.1095 51.7874 62.0096C51.708 61.568 51.7117 61.1155 51.7982 60.6753Z" fill="black"/>
<path d="M56.8833 51.7075C57.5649 52.2159 58.7297 54.3652 57.2439 54.9278C55.7582 55.4903 55.2136 50.4597 56.8833 51.7075Z" fill="#263238"/>
<path d="M48.9346 56.0808C49.6161 59.366 49.8505 61.3169 51.7726 62.8279C52.392 63.3267 53.136 63.6465 53.9241 63.7528C54.7122 63.8591 55.5144 63.7479 56.2438 63.4311C56.9733 63.1143 57.6021 62.604 58.0624 61.9555C58.5227 61.307 58.7968 60.5449 58.8551 59.7518C59.1364 56.7046 57.968 51.8471 54.5277 50.8879C53.7886 50.6614 53.003 50.6331 52.2495 50.806C51.4961 50.9788 50.8013 51.3466 50.2348 51.8726C49.6682 52.3985 49.2499 53.0642 49.0217 53.8027C48.7935 54.5413 48.7635 55.3269 48.9346 56.0808Z" fill="#FFC3BD"/>
<path d="M49.3637 58.5547L50.7413 57.6351L50.8315 56.8345C50.958 55.6738 50.7411 54.5014 50.2076 53.4627C50.2076 53.4627 56.9042 53.7116 57.7337 51.6164C58.5631 49.5212 56.2046 47.9453 56.2046 47.9453C56.2046 47.9453 53.8354 49.3048 52.2379 49.413C50.6403 49.5212 45.7468 47.5234 45.7468 51.6597C43.5831 52.3268 43.6552 55.8861 49.3529 58.5547" fill="#263238"/>
<path d="M45.9887 51.8217C45.9887 51.8217 45.1015 51.1185 45.7615 48.9692C44.9501 49.3731 44.5606 51.5693 45.9887 51.8217Z" fill="#263238"/>
<path d="M47.9644 59.8928C48.5099 60.5449 49.2838 60.9642 50.1281 61.0648C51.246 61.1838 51.5705 60.1524 51.0873 59.204C50.6401 58.353 49.5222 57.2639 48.4909 57.5848C47.4595 57.9058 47.2972 59.0814 47.9644 59.8928Z" fill="#FFC3BD"/>
<path d="M64.9747 108.691H53.453C52.418 102.437 51.585 97.7314 51.585 97.7314H63.4529C63.4529 97.7314 64.12 102.358 64.9747 108.691Z" fill="#263238"/>
<path d="M45.8626 108.691C45.6029 102.437 45.4082 97.7314 45.4082 97.7314H57.0417C57.0417 97.7314 57.0994 102.495 57.1246 108.691H45.8626Z" fill="#263238"/>
<path d="M54.1027 56.4527C54.1424 56.7232 54.3155 56.9251 54.4922 56.9071C54.6689 56.8891 54.7807 56.651 54.741 56.3842C54.7013 56.1173 54.5283 55.9118 54.3516 55.9298C54.1748 55.9478 54.0631 56.1822 54.1027 56.4527Z" fill="#263238"/>
<path d="M57.1574 56.1275C57.1971 56.398 57.3702 56.5999 57.5469 56.5783C57.7236 56.5566 57.8354 56.3258 57.7957 56.059C57.756 55.7921 57.5829 55.5866 57.4062 55.6046C57.2295 55.6226 57.1177 55.8462 57.1574 56.1275Z" fill="#263238"/>
<path d="M56.2051 56.3584C56.6477 57.1484 57.1934 57.876 57.8279 58.5221C57.4167 59.0197 56.5729 58.9044 56.5729 58.9044L56.2051 56.3584Z" fill="#ED847E"/>
<path d="M55.3322 59.7341C55.518 59.7539 55.7054 59.7539 55.8912 59.7341C55.9016 59.7332 55.9118 59.7303 55.9211 59.7254C55.9303 59.7206 55.9386 59.7139 55.9453 59.7059C55.952 59.6978 55.957 59.6885 55.9601 59.6785C55.9632 59.6685 55.9643 59.658 55.9633 59.6476C55.9606 59.6262 55.9497 59.6067 55.9328 59.5933C55.916 59.5798 55.8946 59.5734 55.8732 59.5755C55.5334 59.6187 55.1883 59.5833 54.8644 59.472C54.5406 59.3607 54.2466 59.1765 54.0052 58.9336C53.9983 58.9255 53.9899 58.9189 53.9805 58.9141C53.9711 58.9093 53.9608 58.9064 53.9502 58.9055C53.9397 58.9047 53.9291 58.9059 53.919 58.9092C53.9089 58.9125 53.8996 58.9177 53.8916 58.9245C53.8835 58.9314 53.8769 58.9398 53.8721 58.9492C53.8673 58.9586 53.8644 58.9689 53.8635 58.9795C53.8627 58.99 53.8639 59.0006 53.8672 59.0107C53.8705 59.0208 53.8757 59.0301 53.8826 59.0381C54.2675 59.4354 54.7815 59.6822 55.3322 59.7341Z" fill="#263238"/>
<path d="M52.999 55.5723C53.0298 55.5761 53.0611 55.5706 53.0887 55.5564C53.1164 55.5423 53.1391 55.5201 53.1541 55.4929C53.2466 55.3186 53.3804 55.1696 53.5439 55.0589C53.7073 54.9483 53.8954 54.8794 54.0917 54.8582C54.1341 54.8554 54.1737 54.8361 54.202 54.8044C54.2303 54.7727 54.2451 54.7312 54.2431 54.6887C54.2422 54.6679 54.2372 54.6474 54.2283 54.6285C54.2195 54.6096 54.207 54.5927 54.1916 54.5786C54.1762 54.5645 54.1581 54.5536 54.1385 54.5466C54.1189 54.5395 54.0981 54.5363 54.0772 54.5373C53.8272 54.5621 53.5871 54.6477 53.3778 54.7866C53.1685 54.9255 52.9963 55.1135 52.8764 55.3342C52.8656 55.3526 52.8586 55.373 52.8558 55.3941C52.8531 55.4152 52.8546 55.4367 52.8603 55.4573C52.866 55.4778 52.8758 55.4969 52.8891 55.5136C52.9024 55.5303 52.9189 55.5441 52.9377 55.5542C52.9562 55.5655 52.9773 55.5718 52.999 55.5723Z" fill="#263238"/>
<path d="M58.3 54.9272C58.3383 54.9301 58.3765 54.92 58.4082 54.8984C58.4423 54.8743 58.4659 54.838 58.4739 54.797C58.482 54.7561 58.4739 54.7136 58.4515 54.6784C58.3144 54.4616 58.1286 54.28 57.9088 54.1478C57.689 54.0157 57.4414 53.9368 57.1857 53.9175C57.1439 53.9174 57.1037 53.9335 57.0734 53.9624C57.0432 53.9913 57.0253 54.0308 57.0234 54.0725C57.0234 54.115 57.04 54.1557 57.0697 54.186C57.0993 54.2164 57.1397 54.2339 57.1821 54.2348C57.3857 54.254 57.5821 54.3199 57.756 54.4275C57.9299 54.5351 58.0766 54.6814 58.1846 54.8551C58.1978 54.8744 58.2149 54.8908 58.2348 54.9032C58.2546 54.9157 58.2768 54.9238 58.3 54.9272Z" fill="#263238"/>
<path d="M46.7963 73.4952L45.9958 74.88C45.7265 75.3608 45.4632 75.8416 45.206 76.3225C44.6867 77.2841 44.1891 78.253 43.713 79.229C43.2442 80.2063 42.7971 81.1872 42.3968 82.1753C42.2057 82.6657 42.0109 83.1598 41.8451 83.6538L41.589 84.3931L41.3763 85.1143L41.3222 85.2982L41.2933 85.392C41.2933 85.4244 41.2933 85.392 41.2933 85.4136C41.2933 85.4353 41.2933 85.4533 41.2681 85.4929C41.2533 85.6344 41.2533 85.777 41.2681 85.9185C41.3133 86.3473 41.4027 86.7702 41.5349 87.1806C41.8515 88.1681 42.2371 89.1322 42.6889 90.0656C43.6013 92.0237 44.712 93.9999 45.8046 95.9292L43.8104 97.4871C42.9594 96.6324 42.1949 95.7633 41.4448 94.8473C40.6947 93.9314 40.0023 92.9793 39.3207 91.9624C38.6265 90.9237 38.0232 89.8269 37.5177 88.6844C37.2295 88.0327 37.0072 87.3537 36.8541 86.6577C36.7645 86.2369 36.7185 85.8079 36.7171 85.3775C36.7142 85.1191 36.7335 84.8609 36.7748 84.6058L36.8036 84.4183L36.8289 84.3029L36.8758 84.0685C37.1094 82.8463 37.4263 81.6414 37.8242 80.4623C38.2064 79.3012 38.6536 78.1833 39.1296 77.0798C39.6056 75.9763 40.1285 74.9161 40.6875 73.8559C40.9688 73.333 41.2536 72.8137 41.553 72.2944C41.8523 71.7751 42.148 71.2847 42.505 70.7329L46.7963 73.4952Z" fill="#FFC3BD"/>
<path d="M43.3563 68.4286C40.1829 68.8938 36.9121 79.9431 36.9121 79.9431L43.7422 83.7259C43.7422 83.7259 46.5081 78.4681 47.828 74.5663C49.2091 70.4769 46.7569 67.9309 43.3563 68.4286Z" fill="#407BFF"/>
<path d="M37.0522 78.3853L36.7637 80.008L43.7813 83.8702L44.7153 82.5323L37.0522 78.3853Z" fill="#407BFF"/>
<path opacity="0.3" d="M37.0522 78.3853L36.7637 80.008L43.7813 83.8702L44.7153 82.5323L37.0522 78.3853Z" fill="#263238"/>
<path d="M44.8963 95.1789L48.25 94.5947L46.5299 98.4786C46.5299 98.4786 43.4646 98.4605 43.6053 96.881L44.8963 95.1789Z" fill="#FFC3BD"/>
<path d="M50.7557 96.5457L49.1762 99.683L46.5293 98.4786L48.2494 94.5947L50.7557 96.5457Z" fill="#FFC3BD"/>
<path d="M155.646 110.733H107.031C106.864 110.733 106.699 110.7 106.545 110.635C106.391 110.571 106.252 110.475 106.136 110.356C106.02 110.236 105.929 110.094 105.869 109.938C105.809 109.782 105.781 109.616 105.787 109.449L106.937 74.6927C106.953 74.3488 107.099 74.0239 107.347 73.7846C107.594 73.5452 107.924 73.4095 108.268 73.4053H156.879C157.046 73.4042 157.212 73.4371 157.367 73.5019C157.521 73.5668 157.66 73.6623 157.777 73.7826C157.893 73.903 157.984 74.0457 158.043 74.2021C158.103 74.3586 158.13 74.5255 158.123 74.6927L156.976 109.449C156.962 109.793 156.816 110.119 156.569 110.358C156.321 110.597 155.99 110.731 155.646 110.733Z" fill="#407BFF"/>
<path opacity="0.6" d="M155.646 110.733H107.031C106.864 110.733 106.699 110.7 106.545 110.635C106.391 110.571 106.252 110.475 106.136 110.356C106.02 110.236 105.929 110.094 105.869 109.938C105.809 109.782 105.781 109.616 105.787 109.449L106.937 74.6927C106.953 74.3488 107.099 74.0239 107.347 73.7846C107.594 73.5452 107.924 73.4095 108.268 73.4053H156.879C157.046 73.4042 157.212 73.4371 157.367 73.5019C157.521 73.5668 157.66 73.6623 157.777 73.7826C157.893 73.903 157.984 74.0457 158.043 74.2021C158.103 74.3586 158.13 74.5255 158.123 74.6927L156.976 109.449C156.962 109.793 156.816 110.119 156.569 110.358C156.321 110.597 155.99 110.731 155.646 110.733Z" fill="#263238"/>
<path d="M155.249 110.733H106.635C106.468 110.733 106.302 110.7 106.148 110.635C105.995 110.571 105.855 110.475 105.739 110.355C105.623 110.236 105.532 110.094 105.472 109.938C105.412 109.782 105.385 109.616 105.39 109.449L106.541 74.6927C106.556 74.3488 106.703 74.0239 106.95 73.7846C107.198 73.5452 107.527 73.4095 107.871 73.4053H156.483C156.65 73.4047 156.815 73.4379 156.969 73.5029C157.124 73.568 157.263 73.6635 157.379 73.7837C157.495 73.904 157.586 74.0465 157.646 74.2027C157.705 74.3589 157.733 74.5256 157.727 74.6927L156.576 109.449C156.562 109.792 156.417 110.117 156.17 110.356C155.923 110.595 155.593 110.73 155.249 110.733Z" fill="#407BFF"/>
<path d="M154.621 110.671H95.9095C95.6208 110.671 95.3378 110.752 95.093 110.905C94.8481 111.058 94.6512 111.277 94.5248 111.537C94.4923 111.605 94.4777 111.68 94.4823 111.755C94.4868 111.83 94.5104 111.903 94.5508 111.966C94.5912 112.03 94.6471 112.082 94.7132 112.118C94.7793 112.154 94.8534 112.172 94.9286 112.172H155.602C155.678 112.173 155.753 112.155 155.819 112.119C155.886 112.083 155.942 112.031 155.983 111.968C156.024 111.904 156.048 111.831 156.052 111.756C156.057 111.68 156.042 111.605 156.01 111.537C155.883 111.277 155.685 111.058 155.44 110.905C155.194 110.752 154.911 110.671 154.621 110.671Z" fill="#407BFF"/>
<path opacity="0.6" d="M154.622 110.671H145.606C145.317 110.671 145.034 110.752 144.788 110.905C144.543 111.058 144.345 111.277 144.218 111.537C144.186 111.605 144.171 111.68 144.176 111.756C144.18 111.831 144.204 111.904 144.245 111.968C144.286 112.031 144.342 112.083 144.409 112.119C144.475 112.155 144.55 112.173 144.626 112.172H155.585C155.66 112.173 155.735 112.155 155.801 112.119C155.868 112.083 155.924 112.031 155.965 111.968C156.006 111.904 156.03 111.831 156.035 111.756C156.039 111.68 156.025 111.605 155.992 111.537C155.867 111.28 155.672 111.063 155.43 110.91C155.188 110.757 154.908 110.674 154.622 110.671Z" fill="#263238"/>
<path opacity="0.2" d="M123.915 111.624H111.726C111.581 111.624 111.443 111.683 111.341 111.785C111.239 111.888 111.182 112.027 111.182 112.172H124.463C124.463 112.026 124.405 111.887 124.303 111.784C124.2 111.681 124.06 111.624 123.915 111.624Z" fill="black"/>
<path opacity="0.9" d="M106.552 108.191L107.634 75.9515C107.64 75.8175 107.698 75.691 107.794 75.5979C107.891 75.5047 108.019 75.4519 108.153 75.4502H156.115C156.18 75.4497 156.245 75.4624 156.305 75.4876C156.365 75.5128 156.419 75.55 156.465 75.5969C156.51 75.6438 156.545 75.6995 156.568 75.7604C156.591 75.8214 156.601 75.8864 156.598 75.9515L155.517 108.191C155.512 108.325 155.456 108.452 155.36 108.545C155.263 108.638 155.135 108.691 155.001 108.692H107.039C106.974 108.692 106.909 108.68 106.849 108.654C106.788 108.629 106.734 108.592 106.688 108.545C106.643 108.498 106.607 108.443 106.584 108.382C106.56 108.321 106.55 108.256 106.552 108.191Z" fill="white"/>
<path d="M140.648 108.692H134.038L141.658 75.4502H148.268L140.648 108.692Z" fill="white"/>
<path d="M111.946 108.692H109.566L117.186 75.4502H119.563L111.946 108.692Z" fill="white"/>
<path d="M146.068 108.692H143.688L151.307 75.4502H153.687L146.068 108.692Z" fill="white"/>
<path opacity="0.4" d="M132.52 74.4832C132.511 74.5808 132.466 74.6716 132.394 74.7382C132.322 74.8048 132.228 74.8424 132.13 74.8438C132.035 74.8438 131.943 74.8058 131.875 74.7382C131.808 74.6705 131.77 74.5788 131.77 74.4832C131.777 74.385 131.821 74.2932 131.893 74.2263C131.966 74.1593 132.061 74.1223 132.159 74.1226C132.255 74.1226 132.346 74.1606 132.414 74.2282C132.482 74.2958 132.52 74.3875 132.52 74.4832Z" fill="black"/>
<path d="M129.014 59.0386C128.448 61.5052 127.806 66.0237 129.476 67.6681C129.476 67.6681 128.755 69.7092 124.175 69.7092C119.126 69.7092 121.813 67.6681 121.813 67.6681C124.586 67.0118 124.586 64.9707 124.171 63.0558L129.014 59.0386Z" fill="#B55B52"/>
<path d="M136.353 70.7549C136.713 71.3066 137.009 71.7899 137.305 72.3164C137.6 72.8429 137.892 73.3549 138.174 73.8778C138.729 74.9308 139.256 76.0019 139.732 77.1017C140.208 78.2016 140.655 79.3231 141.033 80.4843C141.432 81.6633 141.751 82.8682 141.985 84.0905L142.032 84.3249L142.054 84.4403L142.086 84.6278C142.124 84.8833 142.143 85.1412 142.144 85.3995C142.139 85.8296 142.093 86.2583 142.007 86.6797C141.853 87.3758 141.629 88.0548 141.34 88.7064C140.836 89.8496 140.232 90.9465 139.537 91.9844C138.866 92.9905 138.159 93.9425 137.409 94.8693C136.665 95.7883 135.876 96.6693 135.044 97.509L133.053 95.9512C134.135 94.0219 135.256 92.0457 136.169 90.0875C136.619 89.1541 137.004 88.1901 137.319 87.2026C137.451 86.7922 137.541 86.3692 137.586 85.9404C137.602 85.7991 137.602 85.6563 137.586 85.5149C137.586 85.4753 137.586 85.4392 137.557 85.4356V85.4139L137.532 85.3202L137.478 85.1363L137.261 84.415L137.009 83.6758C136.839 83.1817 136.648 82.6877 136.454 82.1972C136.053 81.2092 135.606 80.2283 135.141 79.251C134.676 78.2737 134.164 77.3073 133.648 76.3444C133.393 75.8636 133.13 75.3828 132.858 74.902L132.058 73.5208L136.353 70.7549Z" fill="#B65B52"/>
<path d="M135.483 68.4291C138.657 68.8943 141.924 79.9435 141.924 79.9435L135.097 83.7264C135.097 83.7264 132.328 78.4867 131.012 74.5668C129.627 70.4774 132.093 67.9314 135.483 68.4291Z" fill="#263238"/>
<path opacity="0.3" d="M133.418 74.4834L132.902 79.2075C133.418 80.3434 133.923 81.3712 134.316 82.1826C134.464 80.2893 134.46 77.2097 133.418 74.4834Z" fill="black"/>
<path d="M141.784 78.3853L142.076 80.008L135.058 83.8702L134.124 82.5323L141.784 78.3853Z" fill="#407BFF"/>
<path opacity="0.3" d="M141.784 78.3853L142.076 80.008L135.058 83.8702L134.124 82.5323L141.784 78.3853Z" fill="#263238"/>
<path d="M133.944 95.1789L130.587 94.5947L132.311 98.4786C132.311 98.4786 135.372 98.4605 135.232 96.881L133.944 95.1789Z" fill="#B55B52"/>
<path d="M128.084 96.5457L129.66 99.683L132.31 98.4786L130.587 94.5947L128.084 96.5457Z" fill="#B55B52"/>
<path d="M116.587 68.6016C116.587 68.6016 112.26 78.7782 115.379 97.7322H133.41C133.63 94.9663 132.357 81.4684 135.48 68.4285C133.497 68.044 131.492 67.7899 129.476 67.6676C126.923 67.5197 124.365 67.5197 121.813 67.6676C120.049 67.8435 118.302 68.1558 116.587 68.6016Z" fill="#263238"/>
<path opacity="0.3" d="M114.658 77.307C114.396 79.5876 114.262 81.8812 114.258 84.1768C116.71 82.5792 117.583 78.9154 117.929 76.2612L114.658 77.307Z" fill="black"/>
<path d="M119.032 73.5385C118.344 74.7213 117.648 75.8104 116.919 76.9211C116.191 78.0318 115.444 79.11 114.662 80.1667C113.09 82.3499 111.367 84.4201 109.505 86.362C108.517 87.3872 107.445 88.3269 106.299 89.1712L105.83 89.4958C105.628 89.6184 105.419 89.7518 105.224 89.8564C104.849 90.0502 104.459 90.2165 104.06 90.3541C103.347 90.5904 102.618 90.7736 101.878 90.9022C100.512 91.1255 99.1295 91.2352 97.7453 91.2304C97.0709 91.2304 96.3966 91.2304 95.7294 91.1618C95.0623 91.0933 94.4023 91.0645 93.71 90.9635V88.4392C94.9252 88.23 96.1874 87.9956 97.3919 87.7396C97.9977 87.6134 98.5999 87.4763 99.1949 87.3249C99.79 87.1734 100.356 87.0148 100.897 86.8308C101.414 86.6698 101.918 86.4697 102.404 86.2322C102.604 86.1317 102.798 86.0197 102.985 85.8968C103.075 85.8428 103.129 85.7851 103.201 85.7346L103.512 85.4893C104.393 84.7419 105.219 83.9307 105.982 83.0624C107.6 81.1967 109.113 79.2427 110.515 77.2096C111.236 76.1854 111.932 75.1397 112.632 74.0939C113.331 73.0481 114.005 71.9626 114.647 70.9385L119.032 73.5385Z" fill="#B65B52"/>
<path d="M120.702 71.6345C121.063 74.8007 114.002 82.4818 114.002 82.4818L108.416 78.1112C109.911 75.5786 111.566 73.1443 113.371 70.8231C116.27 67.2205 120.302 68.0536 120.702 71.6345Z" fill="#263238"/>
<path d="M108.827 76.6431L108.29 78.2009L113.999 82.8889L115.131 81.7169L108.827 76.6431Z" fill="#407BFF"/>
<path opacity="0.3" d="M108.827 76.6431L108.29 78.2009L113.999 82.8889L115.131 81.7169L108.827 76.6431Z" fill="#263238"/>
<path d="M93.7103 88.4502L89.6895 88.5079L91.3086 92.2727C91.8063 92.435 94.0277 91.6453 95.1456 90.412L93.7103 88.4502Z" fill="#B55B52"/>
<path d="M86.916 90.4592L89.1122 93.2143L91.3083 92.2695L89.6892 88.5083L86.916 90.4592Z" fill="#B55B52"/>
<path d="M120.681 56.128C120.641 56.3985 120.468 56.6004 120.291 56.5788C120.115 56.5571 120.003 56.3263 120.039 56.0595C120.075 55.7926 120.255 55.5871 120.432 55.6051C120.609 55.6231 120.721 55.8467 120.681 56.128Z" fill="#263238"/>
<path d="M120.756 56.3589C120.313 57.1495 119.766 57.8772 119.13 58.5226C119.545 59.0202 120.388 58.9048 120.388 58.9048L120.756 56.3589Z" fill="#A02724"/>
<path d="M120.298 58.3494C119.696 58.3494 119.151 57.4803 119.054 56.3696C118.962 55.7522 119.112 55.1231 119.472 54.6134C119.534 54.5388 119.611 54.4784 119.698 54.4361C119.785 54.3938 119.88 54.3706 119.977 54.3682C120.579 54.3682 121.124 55.2336 121.221 56.3443C121.317 56.962 121.17 57.5928 120.81 58.1042C120.748 58.178 120.67 58.238 120.584 58.2802C120.497 58.3224 120.402 58.346 120.305 58.3494H120.298ZM119.973 54.5485C119.904 54.5524 119.836 54.5707 119.774 54.6024C119.712 54.6341 119.657 54.6783 119.613 54.7324C119.291 55.2078 119.162 55.7881 119.252 56.3552C119.339 57.3396 119.826 58.1582 120.334 58.1582C120.404 58.1537 120.472 58.1347 120.534 58.1024C120.596 58.0701 120.651 58.0253 120.695 57.9707C121.019 57.4975 121.148 56.9176 121.055 56.3516C120.951 55.3779 120.464 54.5485 119.973 54.5485Z" fill="#263238"/>
<path d="M121.636 54.9272C121.673 54.9302 121.71 54.92 121.741 54.8984C121.758 54.887 121.773 54.8723 121.785 54.8551C121.797 54.8379 121.805 54.8186 121.81 54.7981C121.814 54.7777 121.814 54.7566 121.811 54.736C121.807 54.7155 121.799 54.6959 121.787 54.6784C121.65 54.4616 121.465 54.28 121.245 54.1478C121.025 54.0157 120.777 53.9368 120.522 53.9175C120.48 53.9174 120.44 53.9335 120.409 53.9624C120.379 53.9913 120.361 54.0308 120.359 54.0725C120.359 54.115 120.376 54.1557 120.406 54.186C120.435 54.2164 120.476 54.2339 120.518 54.2348C120.722 54.254 120.918 54.3199 121.092 54.4275C121.266 54.5351 121.413 54.6814 121.521 54.8551C121.534 54.8744 121.551 54.8908 121.571 54.9032C121.591 54.9157 121.613 54.9238 121.636 54.9272Z" fill="#263238"/>
<path d="M129.905 56.0815C129.22 59.3668 128.989 61.3177 127.064 62.8287C126.444 63.3264 125.7 63.6454 124.913 63.7512C124.125 63.857 123.324 63.7455 122.595 63.4288C121.866 63.1121 121.238 62.6022 120.778 61.9543C120.318 61.3064 120.043 60.5451 119.985 59.7526C119.703 56.7054 120.868 51.8479 124.312 50.8887C125.051 50.6633 125.836 50.6359 126.589 50.8092C127.342 50.9825 128.036 51.3503 128.603 51.876C129.169 52.4017 129.587 53.0668 129.816 53.8048C130.044 54.5428 130.075 55.3279 129.905 56.0815Z" fill="#B55B52"/>
<path d="M134.384 108.692C134.553 105.012 134.232 101.327 133.428 97.7324H121.795C122.698 101.315 123.145 104.997 123.126 108.692H134.384Z" fill="#407BFF"/>
<path opacity="0.3" d="M134.384 108.692C134.553 105.012 134.232 101.327 133.428 97.7324H121.795C122.698 101.315 123.145 104.997 123.126 108.692H134.384Z" fill="white"/>
<path d="M122.779 57.0701C122.137 56.7492 121.337 53.5433 121.557 52.4038C121.777 51.2642 124.362 50.0381 126.905 50.4997C129.447 50.9613 130.54 51.852 131.034 54.1672C131.542 56.5689 129.689 60.5681 128.773 60.8782C128.23 61.0705 127.652 61.1449 127.078 61.0964C126.504 61.0479 125.947 60.8776 125.444 60.597C124.626 60.0957 124.2 56.4102 122.779 57.0701Z" fill="#263238"/>
<path d="M122.105 53.5529C120.864 53.6251 119.682 51.6489 120.821 49.8855C121.148 49.3829 121.614 48.9852 122.161 48.7403C122.709 48.4953 123.315 48.4134 123.908 48.5043C123.908 48.5043 123.389 49.5176 125.12 49.3049C126.851 49.0921 130.075 49.5753 131.2 50.787C132.592 52.28 131.751 55.2154 129.656 54.4942C127.561 53.7729 122.105 53.5529 122.105 53.5529Z" fill="#263238"/>
<path d="M121.773 53.6029C121.514 53.5906 121.26 53.5231 121.029 53.4049C120.797 53.2868 120.594 53.1207 120.432 52.9178C120.108 52.5303 119.898 52.0605 119.825 51.5606C119.753 51.0608 119.82 50.5506 120.021 50.0869C120.025 50.0758 120.032 50.0657 120.04 50.0571C120.049 50.0485 120.059 50.0417 120.07 50.037C120.081 50.0324 120.093 50.0299 120.105 50.0298C120.117 50.0297 120.129 50.0319 120.14 50.0364C120.151 50.0409 120.161 50.0476 120.17 50.056C120.178 50.0644 120.185 50.0744 120.19 50.0855C120.194 50.0965 120.197 50.1084 120.197 50.1204C120.197 50.1324 120.195 50.1443 120.19 50.1555C120 50.5874 119.934 51.064 120.001 51.5313C120.068 51.9985 120.265 52.4376 120.569 52.7988C120.736 53.0225 120.961 53.1959 121.22 53.3002C121.479 53.4045 121.761 53.4357 122.037 53.3902C122.059 53.3856 122.083 53.3897 122.103 53.4017C122.123 53.4137 122.138 53.4328 122.145 53.4551C122.15 53.4785 122.147 53.5032 122.135 53.524C122.123 53.5448 122.103 53.5601 122.08 53.5669C121.98 53.5913 121.877 53.6034 121.773 53.6029Z" fill="#263238"/>
<path d="M124.817 56.6546C124.869 57.5065 124.595 58.3463 124.049 59.0023C123.327 59.8569 122.364 59.3412 122.072 58.3135C121.809 57.3867 121.87 55.8288 122.84 55.3492C123.811 54.8696 124.741 55.6125 124.817 56.6546Z" fill="#B55B52"/>
<path d="M113.865 108.692H126.793C127.419 105.074 127.573 101.39 127.251 97.7324H115.387C115.387 97.7324 114.72 102.359 113.865 108.692Z" fill="#407BFF"/>
<path opacity="0.3" d="M113.865 108.692H126.793C127.419 105.074 127.573 101.39 127.251 97.7324H115.387C115.387 97.7324 114.72 102.359 113.865 108.692Z" fill="white"/>
</g>
<defs>
<clipPath id="clip0_85_6078">
<rect width="180.308" height="180.308" fill="white" transform="translate(0.46875 0.232422)"/>
</clipPath>
</defs>
</svg>
