<svg width="181" height="181" viewBox="0 0 181 181" fill="none" xmlns="http://www.w3.org/2000/svg">
<g clip-path="url(#clip0_85_2329)">
<path d="M180.777 138.132H0.46875V138.222H180.777V138.132Z" fill="#EBEBEB"/>
<path d="M25.1782 141.565H19.3867V141.655H25.1782V141.565Z" fill="#EBEBEB"/>
<path d="M81.4884 140.587H62.1846V140.678H81.4884V140.587Z" fill="#EBEBEB"/>
<path d="M38.6114 144.915H25.5391V145.005H38.6114V144.915Z" fill="#EBEBEB"/>
<path d="M152.767 140.541H137.192V140.631H152.767V140.541Z" fill="#EBEBEB"/>
<path d="M158.263 140.541H155.98V140.631H158.263V140.541Z" fill="#EBEBEB"/>
<path d="M134.218 142.788H114.784V142.878H134.218V142.788Z" fill="#EBEBEB"/>
<path d="M85.935 122.049H16.3036C15.7581 122.048 15.2353 121.831 14.8499 121.445C14.4645 121.059 14.248 120.535 14.248 119.99V22.1077C14.2528 21.5654 14.4713 21.0468 14.8562 20.6646C15.2411 20.2825 15.7612 20.0676 16.3036 20.0667H85.935C86.4811 20.0667 87.0049 20.2836 87.391 20.6698C87.7772 21.0559 87.9941 21.5797 87.9941 22.1258V119.99C87.9941 120.536 87.7772 121.06 87.391 121.446C87.0049 121.832 86.4811 122.049 85.935 122.049ZM16.3036 20.1388C15.782 20.1397 15.2821 20.3476 14.9136 20.7167C14.5451 21.0859 14.3382 21.5862 14.3382 22.1077V119.99C14.3382 120.511 14.5451 121.012 14.9136 121.381C15.2821 121.75 15.782 121.958 16.3036 121.959H85.935C86.4569 121.958 86.9572 121.75 87.3262 121.381C87.6953 121.012 87.903 120.512 87.904 119.99V22.1077C87.903 21.5858 87.6953 21.0856 87.3262 20.7165C86.9572 20.3475 86.4569 20.1397 85.935 20.1388H16.3036Z" fill="#EBEBEB"/>
<path d="M163.939 122.049H94.3042C93.7584 122.048 93.2352 121.831 92.8493 121.445C92.4633 121.059 92.2461 120.536 92.2451 119.99V22.1077C92.2508 21.5651 92.4702 21.0465 92.8556 20.6644C93.241 20.2823 93.7615 20.0676 94.3042 20.0667H163.939C164.481 20.0685 165 20.2838 165.384 20.6659C165.768 21.048 165.986 21.566 165.991 22.1077V119.99C165.991 120.535 165.775 121.057 165.391 121.443C165.006 121.829 164.484 122.047 163.939 122.049ZM94.3042 20.1388C93.7823 20.1397 93.2821 20.3475 92.913 20.7165C92.544 21.0856 92.3362 21.5858 92.3353 22.1077V119.99C92.3362 120.512 92.544 121.012 92.913 121.381C93.2821 121.75 93.7823 121.958 94.3042 121.959H163.939C164.461 121.958 164.961 121.75 165.331 121.381C165.7 121.012 165.907 120.512 165.908 119.99V22.1077C165.907 21.5858 165.7 21.0856 165.331 20.7165C164.961 20.3475 164.461 20.1397 163.939 20.1388H94.3042Z" fill="#EBEBEB"/>
<path d="M143.399 107.988H141.005V138.132H143.399V107.988Z" fill="#F5F5F5"/>
<path d="M144.441 107.988H142.356V138.132H144.441V107.988Z" fill="#F0F0F0"/>
<path d="M87.5468 107.988H85.1523V138.132H87.5468V107.988Z" fill="#F5F5F5"/>
<path d="M88.5892 107.988H86.5049V138.132H88.5892V107.988Z" fill="#F0F0F0"/>
<path d="M152.476 107.988H150.081V138.132H152.476V107.988Z" fill="#F5F5F5"/>
<path d="M153.518 107.988H151.434V138.132H153.518V107.988Z" fill="#F0F0F0"/>
<path d="M96.624 107.988H94.2295V138.132H96.624V107.988Z" fill="#F5F5F5"/>
<path d="M85.1555 108.558L153.518 108.558V107.415L85.1555 107.415V108.558Z" fill="#F0F0F0"/>
<path d="M85.152 108.558H95.5811V107.415H85.152V108.558Z" fill="#E6E6E6"/>
<path d="M97.6654 107.988H95.5811V138.132H97.6654V107.988Z" fill="#F0F0F0"/>
<path d="M119.342 85.4609H112.876V107.415H119.342V85.4609Z" fill="#EBEBEB"/>
<path d="M136.876 107.415H115.412L112.17 81.7207H133.634L136.876 107.415Z" fill="#E0E0E0"/>
<path d="M138.137 107.415H115.967L112.725 81.7207H134.895L138.137 107.415Z" fill="#F0F0F0"/>
<path d="M125.7 107.415H121.397L122.609 81.7207H126.911L125.7 107.415Z" fill="#FAFAFA"/>
<path d="M130.63 107.415H126.396L127.608 81.7207H131.842L130.63 107.415Z" fill="#FAFAFA"/>
<path d="M155.876 26.3804H100.114V70.0114H155.876V26.3804Z" fill="#E6E6E6"/>
<path d="M157.549 26.3804H100.896V70.0114H157.549V26.3804Z" fill="#F0F0F0"/>
<path d="M155.876 70.0115H100.114V71.472H155.876V70.0115Z" fill="#E6E6E6"/>
<path d="M158.44 70.0115H101.787V71.472H158.44V70.0115Z" fill="#F0F0F0"/>
<path d="M155.209 67.6673V28.7207L103.241 28.7207V67.6673H155.209Z" fill="#FAFAFA"/>
<path d="M131.679 67.6678L135.429 28.7249H141.92L138.17 67.6678H131.679Z" fill="white"/>
<path d="M115.3 67.6678L119.05 28.7249H125.541L121.791 67.6678H115.3Z" fill="white"/>
<path d="M104.326 54.4691C104.279 54.4681 104.234 54.4487 104.201 54.415C104.168 54.3813 104.149 54.336 104.149 54.2888V30.2465C104.149 30.1986 104.168 30.1528 104.202 30.119C104.236 30.0852 104.282 30.0662 104.33 30.0662C104.378 30.0662 104.423 30.0852 104.457 30.119C104.491 30.1528 104.51 30.1986 104.51 30.2465V54.2888C104.51 54.3128 104.505 54.3365 104.496 54.3586C104.487 54.3807 104.473 54.4008 104.456 54.4176C104.439 54.4344 104.419 54.4476 104.396 54.4564C104.374 54.4653 104.35 54.4696 104.326 54.4691Z" fill="#F0F0F0"/>
<path d="M139.562 67.6678L143.312 28.7249H145.843L142.093 67.6678H139.562Z" fill="white"/>
<path d="M155.209 67.6714V28.7249H154.913V67.6714H155.209Z" fill="#E6E6E6"/>
<path opacity="0.5" d="M158.105 32.969H102.343L102.127 29.6333H157.889L158.105 32.969Z" fill="#E0E0E0"/>
<path opacity="0.5" d="M158.105 38.4548H102.343L102.127 35.1191H157.889L158.105 38.4548Z" fill="#E0E0E0"/>
<path opacity="0.5" d="M158.105 43.9387H102.343L102.127 40.603H157.889L158.105 43.9387Z" fill="#E0E0E0"/>
<path opacity="0.5" d="M158.105 49.4236H102.343L102.127 46.0879H157.889L158.105 49.4236Z" fill="#E0E0E0"/>
<path opacity="0.5" d="M158.105 54.9053H102.343L102.127 51.5696H157.889L158.105 54.9053Z" fill="#E0E0E0"/>
<path opacity="0.5" d="M158.105 60.3904H102.343L102.127 57.0547H157.889L158.105 60.3904Z" fill="#E0E0E0"/>
<path opacity="0.5" d="M158.105 35.7131H102.343L102.127 32.3774H157.889L158.105 35.7131Z" fill="#E0E0E0"/>
<path opacity="0.5" d="M158.105 41.1948H102.343L102.127 37.8591H157.889L158.105 41.1948Z" fill="#E0E0E0"/>
<path opacity="0.5" d="M158.105 46.6804H102.343L102.127 43.3447H157.889L158.105 46.6804Z" fill="#E0E0E0"/>
<path opacity="0.5" d="M158.105 52.1653H102.343L102.127 48.8296H157.889L158.105 52.1653Z" fill="#E0E0E0"/>
<path opacity="0.5" d="M158.105 57.6502H102.343L102.127 54.3145H157.889L158.105 57.6502Z" fill="#E0E0E0"/>
<path opacity="0.5" d="M158.105 63.1342H102.343L102.127 59.7949H157.889L158.105 63.1342Z" fill="#E0E0E0"/>
<path d="M36.2413 48.0361H43.8107C44.7706 48.0361 45.5488 47.2579 45.5488 46.298V43.3914C45.5488 42.4314 44.7706 41.6532 43.8107 41.6532H36.2413C35.2814 41.6532 34.5031 42.4314 34.5031 43.3914V46.298C34.5031 47.2579 35.2814 48.0361 36.2413 48.0361Z" fill="#F5F5F5"/>
<path d="M36.2413 41.6489H43.8107C44.7706 41.6489 45.5488 40.8707 45.5488 39.9108V37.0042C45.5488 36.0442 44.7706 35.266 43.8107 35.266H36.2413C35.2814 35.266 34.5031 36.0442 34.5031 37.0042V39.9108C34.5031 40.8707 35.2814 41.6489 36.2413 41.6489Z" fill="#F5F5F5"/>
<path d="M38.7155 35.2668H41.3372C41.6698 35.2668 41.9395 34.9972 41.9395 34.6646V33.6585C41.9395 33.3259 41.6698 33.0563 41.3372 33.0563H38.7155C38.3829 33.0563 38.1133 33.3259 38.1133 33.6585V34.6646C38.1133 34.9972 38.3829 35.2668 38.7155 35.2668Z" fill="#E0E0E0"/>
<path d="M36.2413 54.415H43.8107C44.7706 54.415 45.5488 53.6368 45.5488 52.6769V49.7703C45.5488 48.8103 44.7706 48.0321 43.8107 48.0321H36.2413C35.2814 48.0321 34.5031 48.8103 34.5031 49.7703V52.6769C34.5031 53.6368 35.2814 54.415 36.2413 54.415Z" fill="#F5F5F5"/>
<path d="M76.3859 49.998C76.3859 49.998 76.0253 54.4336 62.0009 54.4336C47.9765 54.4336 47.6123 49.998 47.6123 49.998H76.3859Z" fill="#F0F0F0"/>
<path d="M33.371 55.3167H22.2568V134.014H33.371V55.3167Z" fill="#F0F0F0"/>
<path d="M79.1952 134.014H24.3887V138.132H79.1952V134.014Z" fill="#F0F0F0"/>
<path d="M33.3717 134.01H81.3301L81.3301 55.3131H33.3717L33.3717 134.01Z" fill="#F5F5F5"/>
<path d="M37.7383 101.851H76.959V83.2788H37.7383V101.851Z" fill="#F0F0F0"/>
<path d="M37.7383 124.566H76.959V105.994H37.7383V124.566Z" fill="#F0F0F0"/>
<path d="M37.7383 131.262H76.959V128.431H37.7383V131.262Z" fill="#F0F0F0"/>
<path d="M67.316 84.7496H47.3811C46.9682 84.7486 46.5725 84.5842 46.2806 84.2922C45.9886 84.0003 45.8242 83.6046 45.8232 83.1917C45.8251 82.7795 45.99 82.3847 46.2819 82.0935C46.5737 81.8023 46.9688 81.6384 47.3811 81.6375H67.316C67.7282 81.6384 68.1234 81.8023 68.4152 82.0935C68.7071 82.3847 68.872 82.7795 68.8739 83.1917C68.8729 83.6046 68.7085 84.0003 68.4165 84.2922C68.1246 84.5842 67.7289 84.7486 67.316 84.7496Z" fill="#F5F5F5"/>
<path d="M37.7383 79.1382H76.959V60.5664H37.7383V79.1382Z" fill="#F0F0F0"/>
<path d="M67.316 62.0378H47.3811C46.9682 62.0369 46.5725 61.8725 46.2806 61.5805C45.9886 61.2886 45.8242 60.8929 45.8232 60.48C45.8242 60.0671 45.9886 59.6714 46.2806 59.3795C46.5725 59.0875 46.9682 58.9231 47.3811 58.9221H67.316C67.7289 58.9231 68.1246 59.0875 68.4165 59.3795C68.7085 59.6714 68.8729 60.0671 68.8739 60.48C68.8729 60.8929 68.7085 61.2886 68.4165 61.5805C68.1246 61.8725 67.7289 62.0369 67.316 62.0378Z" fill="#F5F5F5"/>
<path d="M67.316 107.465H47.3811C46.9682 107.464 46.5725 107.3 46.2806 107.008C45.9886 106.716 45.8242 106.32 45.8232 105.907C45.8242 105.495 45.9886 105.099 46.2806 104.807C46.5725 104.515 46.9682 104.351 47.3811 104.35H67.316C67.7289 104.351 68.1246 104.515 68.4165 104.807C68.7085 105.099 68.8729 105.495 68.8739 105.907C68.8729 106.32 68.7085 106.716 68.4165 107.008C68.1246 107.3 67.7289 107.464 67.316 107.465Z" fill="#F5F5F5"/>
<path d="M82.8077 54.4189H33.3672V55.3169H82.8077V54.4189Z" fill="#F0F0F0"/>
<path d="M20.7062 55.3167H33.3711V54.4187H20.7062V55.3167Z" fill="#E6E6E6"/>
<path d="M90.6231 154.418C129.239 154.418 160.543 152.59 160.543 150.336C160.543 148.081 129.239 146.253 90.6231 146.253C52.0073 146.253 20.7031 148.081 20.7031 150.336C20.7031 152.59 52.0073 154.418 90.6231 154.418Z" fill="#F5F5F5"/>
<path d="M159.883 114.588H21.3627L18.8096 112.171H162.436L159.883 114.588Z" fill="#407BFF"/>
<path opacity="0.5" d="M159.883 114.588H21.3627L18.8096 112.171H162.436L159.883 114.588Z" fill="white"/>
<path d="M148.003 115.89H33.2408L31.124 114.588H150.12L148.003 115.89Z" fill="#407BFF"/>
<path opacity="0.5" d="M148.003 115.89H33.2408L31.124 114.588H150.12L148.003 115.89Z" fill="black"/>
<path d="M32.3326 150.335H30.6846L35.7945 115.889H39.4692L32.3326 150.335Z" fill="#407BFF"/>
<path opacity="0.5" d="M32.3326 150.335H30.6846L35.7945 115.889H39.4692L32.3326 150.335Z" fill="black"/>
<path d="M41.2548 150.335H39.6104L44.7203 115.889H48.395L41.2548 150.335Z" fill="#407BFF"/>
<path opacity="0.5" d="M41.2548 150.335H39.6104L44.7203 115.889H48.395L41.2548 150.335Z" fill="black"/>
<path d="M148.913 150.335H150.561L145.451 115.889H141.776L148.913 150.335Z" fill="#407BFF"/>
<path opacity="0.5" d="M148.913 150.335H150.561L145.451 115.889H141.776L148.913 150.335Z" fill="black"/>
<path d="M139.991 150.335H141.635L136.525 115.889H132.851L139.991 150.335Z" fill="#407BFF"/>
<path opacity="0.5" d="M139.991 150.335H141.635L136.525 115.889H132.851L139.991 150.335Z" fill="black"/>
<path d="M81.3475 34.5411L86.0031 34.8549C86.1837 34.866 86.3577 34.9263 86.5065 35.0293C86.6552 35.1323 86.773 35.274 86.8469 35.4391L87.3374 36.5209C87.4438 36.7545 87.6363 36.938 87.8747 37.033C88.4587 37.273 89.025 37.5538 89.5696 37.8732C89.7869 38.001 90.0445 38.0422 90.2908 37.9886L91.4592 37.7146C91.6353 37.6739 91.819 37.6816 91.9911 37.7369C92.1631 37.7921 92.317 37.8928 92.4365 38.0283L95.5089 41.5407C95.6281 41.6773 95.7079 41.8438 95.7397 42.0223C95.7714 42.2009 95.754 42.3847 95.6893 42.554L95.2637 43.6719C95.174 43.9127 95.1805 44.1787 95.2818 44.4148C95.5256 45.0009 95.728 45.6035 95.8876 46.2179C95.9492 46.4668 96.1058 46.6817 96.3239 46.8165L97.3409 47.4476C97.4948 47.5425 97.6198 47.6776 97.7024 47.8385C97.785 47.9993 97.8221 48.1796 97.8097 48.36L97.4996 53.0191C97.4878 53.1995 97.4268 53.3733 97.3232 53.5215C97.2195 53.6696 97.0772 53.7865 96.9118 53.8594L95.8299 54.3498C95.5978 54.4583 95.415 54.6501 95.3178 54.8871C95.0805 55.4717 94.8009 56.0381 94.4812 56.582C94.3524 56.799 94.3111 57.0569 94.3658 57.3032L94.6363 58.468C94.6781 58.6441 94.671 58.8282 94.6157 59.0004C94.5604 59.1727 94.459 59.3265 94.3225 59.4453L90.8101 62.5178C90.6742 62.637 90.5083 62.7168 90.3304 62.7486C90.1524 62.7804 89.9691 62.7629 89.8004 62.6981L88.6789 62.2725C88.4414 62.1787 88.1771 62.1787 87.9396 62.2725C87.3531 62.5152 86.7506 62.7176 86.1365 62.8784C85.8883 62.9414 85.6739 63.0977 85.5379 63.3147L84.9068 64.3317C84.8111 64.4856 84.6752 64.6105 84.5138 64.6931C84.3525 64.7757 84.1717 64.8128 83.9909 64.8005L79.3353 64.4903C79.155 64.4784 78.9812 64.4178 78.8326 64.3149C78.684 64.212 78.5661 64.0707 78.4915 63.9061L78.001 62.8243C77.8946 62.5907 77.7021 62.4072 77.4637 62.3122C76.8797 62.0722 76.3134 61.7914 75.7688 61.472C75.5516 61.3438 75.2939 61.3026 75.0476 61.3566L73.8828 61.6306C73.7068 61.6721 73.5228 61.6647 73.3506 61.6095C73.1784 61.5542 73.0245 61.453 72.9055 61.3169L69.8294 57.8045C69.711 57.6675 69.6316 57.501 69.5999 57.3226C69.5682 57.1443 69.5852 56.9607 69.6491 56.7912L70.0747 55.6733C70.1646 55.4338 70.1581 55.1688 70.0566 54.934C69.8135 54.3476 69.6111 53.7451 69.4508 53.1309C69.3892 52.882 69.2326 52.6671 69.0145 52.5323L67.9975 51.9012C67.8436 51.8063 67.7186 51.6712 67.636 51.5103C67.5534 51.3495 67.5163 51.1692 67.5287 50.9888L67.8389 46.3297C67.8515 46.1491 67.9128 45.9752 68.0163 45.8266C68.1198 45.6781 68.2616 45.5603 68.4267 45.4858L69.5085 44.999C69.7421 44.8926 69.9256 44.7001 70.0206 44.4617C70.2606 43.8766 70.5413 43.309 70.8608 42.7632C70.9895 42.5462 71.032 42.2888 70.9798 42.0419L70.7058 40.8772C70.6643 40.7011 70.6717 40.5171 70.7269 40.345C70.7822 40.1728 70.8833 40.0189 71.0195 39.8999L74.5319 36.8274C74.6676 36.7079 74.8333 36.6277 75.0112 36.5953C75.1891 36.5629 75.3725 36.5796 75.5416 36.6435L76.6631 37.069C76.9003 37.1647 77.1653 37.1647 77.4024 37.069C77.9883 36.8247 78.5909 36.6223 79.2055 36.4632C79.4524 36.3994 79.6661 36.2449 79.8041 36.0305L80.4352 35.0135C80.5305 34.8598 80.6656 34.7347 80.8262 34.6516C80.9869 34.5684 81.167 34.5302 81.3475 34.5411ZM73.8647 49.0992C73.7481 50.8422 74.1509 52.5806 75.0223 54.0946C75.8937 55.6087 77.1945 56.8302 78.7602 57.6049C80.326 58.3795 82.0863 58.6724 83.8185 58.4466C85.5507 58.2207 87.177 57.4862 88.4917 56.3359C89.8065 55.1856 90.7505 53.6713 91.2045 51.9845C91.6585 50.2976 91.6021 48.514 91.0423 46.8592C90.4826 45.2045 89.4446 43.7529 88.0598 42.6881C86.675 41.6233 85.0054 40.993 83.2624 40.8772C80.9263 40.7228 78.6243 41.502 76.8623 43.0436C75.1002 44.5853 74.0221 46.7632 73.8647 49.0992Z" fill="#407BFF"/>
<path d="M99.8002 54.2237L101.398 53.6828C101.482 53.6551 101.573 53.6505 101.66 53.6695C101.746 53.6885 101.827 53.7305 101.892 53.791L102.155 54.0434C102.247 54.1261 102.367 54.1723 102.49 54.1733C102.71 54.1731 102.929 54.1875 103.147 54.2165C103.21 54.2268 103.274 54.2244 103.336 54.2095C103.398 54.1947 103.456 54.1676 103.507 54.13L103.803 53.9172C103.876 53.866 103.961 53.8353 104.05 53.8284C104.139 53.8214 104.228 53.8384 104.308 53.8776L105.819 54.6276C105.898 54.6667 105.966 54.7265 106.014 54.8008C106.062 54.8751 106.09 54.961 106.093 55.0496V55.4102C106.098 55.5349 106.149 55.6534 106.237 55.7419C106.393 55.8964 106.537 56.0614 106.67 56.236C106.745 56.3342 106.855 56.401 106.977 56.4235L107.337 56.4812C107.425 56.4958 107.507 56.5342 107.574 56.592C107.641 56.6498 107.692 56.725 107.719 56.8094L108.26 58.4069C108.29 58.4909 108.296 58.5814 108.277 58.6685C108.259 58.7557 108.217 58.836 108.156 58.9009L107.903 59.1642C107.82 59.2561 107.774 59.3756 107.773 59.4996C107.774 59.7191 107.759 59.9383 107.73 60.1559C107.72 60.2185 107.722 60.2826 107.736 60.3444C107.75 60.4063 107.776 60.4648 107.813 60.5165L108.026 60.8122C108.078 60.8837 108.11 60.9683 108.118 61.0568C108.126 61.1452 108.109 61.234 108.069 61.3135L107.319 62.8281C107.28 62.9076 107.22 62.9751 107.146 63.0233C107.072 63.0716 106.986 63.0988 106.897 63.1021H106.537C106.413 63.106 106.295 63.1577 106.208 63.2464C106.051 63.3991 105.886 63.5435 105.714 63.6791C105.616 63.7546 105.549 63.8638 105.527 63.9856L105.469 64.3462C105.455 64.4338 105.416 64.5158 105.358 64.5831C105.3 64.6505 105.225 64.7008 105.141 64.7285L103.543 65.2694C103.459 65.2984 103.368 65.3036 103.281 65.2845C103.194 65.2654 103.114 65.2228 103.049 65.1612L102.783 64.9124C102.692 64.827 102.572 64.7804 102.447 64.7826C102.229 64.7827 102.011 64.7682 101.794 64.7393C101.732 64.7286 101.668 64.7304 101.606 64.7446C101.544 64.7589 101.485 64.7852 101.434 64.8223L101.138 65.035C101.066 65.0875 100.981 65.1193 100.892 65.1269C100.803 65.1345 100.713 65.1177 100.633 65.0783L99.1223 64.3282C99.0422 64.2889 98.9744 64.2285 98.9261 64.1535C98.8778 64.0786 98.8509 63.9918 98.8482 63.9027V63.5421C98.8426 63.4186 98.7911 63.3016 98.704 63.2139C98.5493 63.0587 98.4047 62.8937 98.2712 62.7199C98.235 62.67 98.1892 62.6278 98.1366 62.5956C98.084 62.5634 98.0256 62.5419 97.9647 62.5323L97.6041 62.4747C97.5166 62.4588 97.4348 62.4201 97.367 62.3625C97.2993 62.3048 97.2479 62.2303 97.2182 62.1465L96.6773 60.5454C96.6495 60.4614 96.6448 60.3716 96.6639 60.2852C96.6829 60.1989 96.7249 60.1193 96.7855 60.0549L97.0379 59.7917C97.1214 59.6985 97.1676 59.5778 97.1677 59.4527C97.1677 59.2332 97.1821 59.0139 97.211 58.7964C97.2309 58.6694 97.1998 58.5398 97.1245 58.4357L96.9153 58.14C96.8628 58.0685 96.8309 57.9839 96.8233 57.8955C96.8157 57.8071 96.8325 57.7183 96.872 57.6388L97.6221 56.1242C97.6607 56.0446 97.7205 55.9772 97.7949 55.9295C97.8694 55.8817 97.9556 55.8555 98.044 55.8537H98.4047C98.5294 55.849 98.6478 55.7975 98.7364 55.7095C98.8917 55.5548 99.0567 55.4103 99.2305 55.2767C99.3287 55.2013 99.3955 55.0921 99.418 54.9702L99.4757 54.6096C99.4894 54.5218 99.5269 54.4394 99.5841 54.3714C99.6413 54.3034 99.7161 54.2523 99.8002 54.2237ZM100.756 60.0585C100.871 60.3959 101.083 60.6916 101.366 60.9085C101.648 61.1253 101.989 61.2535 102.345 61.2769C102.7 61.3002 103.055 61.2177 103.363 61.0397C103.672 60.8618 103.921 60.5963 104.079 60.2769C104.237 59.9575 104.297 59.5984 104.251 59.2451C104.205 58.8917 104.055 58.5599 103.821 58.2915C103.586 58.0231 103.278 57.8302 102.934 57.7372C102.59 57.6441 102.226 57.655 101.888 57.7686C101.663 57.8442 101.455 57.9636 101.277 58.1197C101.098 58.2758 100.952 58.4657 100.847 58.6784C100.741 58.8912 100.679 59.1226 100.664 59.3594C100.648 59.5963 100.679 59.8338 100.756 60.0585Z" fill="#407BFF"/>
<path opacity="0.5" d="M99.8002 54.2237L101.398 53.6828C101.482 53.6551 101.573 53.6505 101.66 53.6695C101.746 53.6885 101.827 53.7305 101.892 53.791L102.155 54.0434C102.247 54.1261 102.367 54.1723 102.49 54.1733C102.71 54.1731 102.929 54.1875 103.147 54.2165C103.21 54.2268 103.274 54.2244 103.336 54.2095C103.398 54.1947 103.456 54.1676 103.507 54.13L103.803 53.9172C103.876 53.866 103.961 53.8353 104.05 53.8284C104.139 53.8214 104.228 53.8384 104.308 53.8776L105.819 54.6276C105.898 54.6667 105.966 54.7265 106.014 54.8008C106.062 54.8751 106.09 54.961 106.093 55.0496V55.4102C106.098 55.5349 106.149 55.6534 106.237 55.7419C106.393 55.8964 106.537 56.0614 106.67 56.236C106.745 56.3342 106.855 56.401 106.977 56.4235L107.337 56.4812C107.425 56.4958 107.507 56.5342 107.574 56.592C107.641 56.6498 107.692 56.725 107.719 56.8094L108.26 58.4069C108.29 58.4909 108.296 58.5814 108.277 58.6685C108.259 58.7557 108.217 58.836 108.156 58.9009L107.903 59.1642C107.82 59.2561 107.774 59.3756 107.773 59.4996C107.774 59.7191 107.759 59.9383 107.73 60.1559C107.72 60.2185 107.722 60.2826 107.736 60.3444C107.75 60.4063 107.776 60.4648 107.813 60.5165L108.026 60.8122C108.078 60.8837 108.11 60.9683 108.118 61.0568C108.126 61.1452 108.109 61.234 108.069 61.3135L107.319 62.8281C107.28 62.9076 107.22 62.9751 107.146 63.0233C107.072 63.0716 106.986 63.0988 106.897 63.1021H106.537C106.413 63.106 106.295 63.1577 106.208 63.2464C106.051 63.3991 105.886 63.5435 105.714 63.6791C105.616 63.7546 105.549 63.8638 105.527 63.9856L105.469 64.3462C105.455 64.4338 105.416 64.5158 105.358 64.5831C105.3 64.6505 105.225 64.7008 105.141 64.7285L103.543 65.2694C103.459 65.2984 103.368 65.3036 103.281 65.2845C103.194 65.2654 103.114 65.2228 103.049 65.1612L102.783 64.9124C102.692 64.827 102.572 64.7804 102.447 64.7826C102.229 64.7827 102.011 64.7682 101.794 64.7393C101.732 64.7286 101.668 64.7304 101.606 64.7446C101.544 64.7589 101.485 64.7852 101.434 64.8223L101.138 65.035C101.066 65.0875 100.981 65.1193 100.892 65.1269C100.803 65.1345 100.713 65.1177 100.633 65.0783L99.1223 64.3282C99.0422 64.2889 98.9744 64.2285 98.9261 64.1535C98.8778 64.0786 98.8509 63.9918 98.8482 63.9027V63.5421C98.8426 63.4186 98.7911 63.3016 98.704 63.2139C98.5493 63.0587 98.4047 62.8937 98.2712 62.7199C98.235 62.67 98.1892 62.6278 98.1366 62.5956C98.084 62.5634 98.0256 62.5419 97.9647 62.5323L97.6041 62.4747C97.5166 62.4588 97.4348 62.4201 97.367 62.3625C97.2993 62.3048 97.2479 62.2303 97.2182 62.1465L96.6773 60.5454C96.6495 60.4614 96.6448 60.3716 96.6639 60.2852C96.6829 60.1989 96.7249 60.1193 96.7855 60.0549L97.0379 59.7917C97.1214 59.6985 97.1676 59.5778 97.1677 59.4527C97.1677 59.2332 97.1821 59.0139 97.211 58.7964C97.2309 58.6694 97.1998 58.5398 97.1245 58.4357L96.9153 58.14C96.8628 58.0685 96.8309 57.9839 96.8233 57.8955C96.8157 57.8071 96.8325 57.7183 96.872 57.6388L97.6221 56.1242C97.6607 56.0446 97.7205 55.9772 97.7949 55.9295C97.8694 55.8817 97.9556 55.8555 98.044 55.8537H98.4047C98.5294 55.849 98.6478 55.7975 98.7364 55.7095C98.8917 55.5548 99.0567 55.4103 99.2305 55.2767C99.3287 55.2013 99.3955 55.0921 99.418 54.9702L99.4757 54.6096C99.4894 54.5218 99.5269 54.4394 99.5841 54.3714C99.6413 54.3034 99.7161 54.2523 99.8002 54.2237ZM100.756 60.0585C100.871 60.3959 101.083 60.6916 101.366 60.9085C101.648 61.1253 101.989 61.2535 102.345 61.2769C102.7 61.3002 103.055 61.2177 103.363 61.0397C103.672 60.8618 103.921 60.5963 104.079 60.2769C104.237 59.9575 104.297 59.5984 104.251 59.2451C104.205 58.8917 104.055 58.5599 103.821 58.2915C103.586 58.0231 103.278 57.8302 102.934 57.7372C102.59 57.6441 102.226 57.655 101.888 57.7686C101.663 57.8442 101.455 57.9636 101.277 58.1197C101.098 58.2758 100.952 58.4657 100.847 58.6784C100.741 58.8912 100.679 59.1226 100.664 59.3594C100.648 59.5963 100.679 59.8338 100.756 60.0585Z" fill="white"/>
<path d="M90.5869 71.54L92.5703 68.1034C92.6437 67.9755 92.6825 67.8307 92.6829 67.6833C92.6832 67.5358 92.6451 67.3909 92.5722 67.2627C92.4994 67.1345 92.3944 67.0275 92.2676 66.9523C92.1407 66.8772 91.9965 66.8364 91.8491 66.834H87.8823C87.7344 66.8353 87.5895 66.8754 87.4621 66.9503C87.3346 67.0253 87.2291 67.1324 87.1561 67.2609C87.083 67.3895 87.045 67.535 87.0459 67.6828C87.0468 67.8307 87.0865 67.9757 87.1611 68.1034L89.1445 71.54C89.2204 71.6631 89.3265 71.7646 89.4527 71.8351C89.579 71.9055 89.7211 71.9425 89.8657 71.9425C90.0103 71.9425 90.1524 71.9055 90.2787 71.8351C90.4049 71.7646 90.511 71.6631 90.5869 71.54Z" fill="#407BFF"/>
<path d="M25.5996 110.732H74.2143C74.3812 110.733 74.5465 110.7 74.7003 110.635C74.8542 110.57 74.9933 110.475 75.1095 110.355C75.2256 110.235 75.3164 110.093 75.3764 109.938C75.4363 109.782 75.4642 109.615 75.4584 109.449L74.308 74.6925C74.2924 74.3486 74.1459 74.0237 73.8985 73.7843C73.6511 73.545 73.3216 73.4093 72.9774 73.4051H24.3663C24.1989 73.4039 24.033 73.4368 23.8787 73.5017C23.7244 73.5665 23.5849 73.662 23.4686 73.7824C23.3522 73.9028 23.2616 74.0455 23.202 74.2019C23.1425 74.3583 23.1153 74.5252 23.1221 74.6925L24.2689 109.449C24.2828 109.793 24.4289 110.118 24.6768 110.357C24.9246 110.597 25.2552 110.731 25.5996 110.732Z" fill="#407BFF"/>
<path d="M25.9959 110.732H74.6106C74.7775 110.733 74.9429 110.7 75.0967 110.635C75.2505 110.57 75.3897 110.475 75.5058 110.355C75.622 110.235 75.7127 110.093 75.7727 109.938C75.8327 109.782 75.8606 109.615 75.8547 109.449L74.7044 74.6924C74.6888 74.3486 74.5422 74.0237 74.2948 73.7843C74.0475 73.545 73.7179 73.4093 73.3737 73.405H24.7626C24.5954 73.4044 24.4297 73.4376 24.2757 73.5027C24.1216 73.5677 23.9823 73.6632 23.8661 73.7835C23.7498 73.9037 23.6591 74.0463 23.5994 74.2025C23.5397 74.3587 23.5121 74.5253 23.5185 74.6924L24.6688 109.449C24.6827 109.792 24.8283 110.117 25.0754 110.356C25.3225 110.595 25.6521 110.73 25.9959 110.732Z" fill="#407BFF"/>
<g opacity="0.6">
<path d="M25.9959 110.732H74.6106C74.7775 110.733 74.9429 110.7 75.0967 110.635C75.2505 110.57 75.3897 110.475 75.5058 110.355C75.622 110.235 75.7127 110.093 75.7727 109.938C75.8327 109.782 75.8606 109.615 75.8547 109.449L74.7044 74.6924C74.6888 74.3486 74.5422 74.0237 74.2948 73.7843C74.0475 73.545 73.7179 73.4093 73.3737 73.405H24.7626C24.5954 73.4044 24.4297 73.4376 24.2757 73.5027C24.1216 73.5677 23.9823 73.6632 23.8661 73.7835C23.7498 73.9037 23.6591 74.0463 23.5994 74.2025C23.5397 74.3587 23.5121 74.5253 23.5185 74.6924L24.6688 109.449C24.6827 109.792 24.8283 110.117 25.0754 110.356C25.3225 110.595 25.6521 110.73 25.9959 110.732Z" fill="#263238"/>
</g>
<path d="M26.6231 110.671H85.3351C85.6238 110.671 85.9068 110.752 86.1516 110.905C86.3965 111.058 86.5934 111.277 86.7198 111.537C86.7523 111.605 86.7669 111.68 86.7623 111.755C86.7578 111.83 86.7342 111.902 86.6938 111.966C86.6534 112.029 86.5975 112.082 86.5314 112.117C86.4653 112.153 86.3912 112.172 86.3159 112.171H25.6422C25.5667 112.173 25.4921 112.154 25.4255 112.119C25.3589 112.083 25.3025 112.031 25.2617 111.967C25.2209 111.904 25.197 111.831 25.1923 111.756C25.1876 111.68 25.2022 111.605 25.2347 111.537C25.3618 111.277 25.5593 111.058 25.8048 110.905C26.0503 110.752 26.3338 110.671 26.6231 110.671Z" fill="#407BFF"/>
<path opacity="0.6" d="M85.3357 110.671H38.4844C38.1952 110.671 37.9116 110.752 37.6661 110.905C37.4206 111.058 37.2231 111.277 37.0961 111.537C37.0635 111.605 37.0489 111.68 37.0536 111.756C37.0583 111.831 37.0822 111.904 37.123 111.967C37.1639 112.031 37.2202 112.083 37.2868 112.119C37.3534 112.154 37.428 112.173 37.5035 112.171H86.3166C86.3918 112.172 86.466 112.153 86.5321 112.117C86.5982 112.082 86.6541 112.029 86.6945 111.966C86.7348 111.902 86.7584 111.83 86.763 111.755C86.7675 111.68 86.7529 111.605 86.7205 111.537C86.594 111.277 86.3971 111.058 86.1523 110.905C85.9074 110.752 85.6245 110.671 85.3357 110.671Z" fill="#263238"/>
<path opacity="0.3" d="M57.3304 111.623H69.5192C69.6639 111.624 69.8024 111.682 69.9045 111.785C70.0065 111.888 70.0637 112.026 70.0637 112.171H56.7822C56.7822 112.026 56.84 111.886 56.9428 111.784C57.0456 111.681 57.185 111.623 57.3304 111.623Z" fill="white"/>
<path opacity="0.9" d="M74.6937 108.19L73.6119 75.951C73.6054 75.817 73.5481 75.6905 73.4516 75.5974C73.3551 75.5042 73.2267 75.4514 73.0926 75.4497H25.163C25.0969 75.4491 25.0314 75.4621 24.9706 75.488C24.9097 75.5139 24.8549 75.5521 24.8095 75.6002C24.7641 75.6482 24.7292 75.7052 24.7069 75.7674C24.6845 75.8297 24.6753 75.8958 24.6798 75.9618L25.7617 108.201C25.7663 108.335 25.8226 108.462 25.9187 108.555C26.0148 108.649 26.1433 108.701 26.2773 108.702H74.2393C74.3028 108.699 74.365 108.682 74.4222 108.655C74.4794 108.627 74.5306 108.588 74.5728 108.54C74.6151 108.493 74.6475 108.437 74.6682 108.377C74.689 108.317 74.6976 108.254 74.6937 108.19Z" fill="white"/>
<path d="M35.1814 108.691H28.5713L36.1911 75.4497H42.8012L35.1814 108.691Z" fill="white"/>
<path d="M39.3928 108.691H37.0127L44.6325 75.4497H47.0126L39.3928 108.691Z" fill="white"/>
<path d="M63.7092 108.691H61.3291L68.9489 75.4497H71.3254L63.7092 108.691Z" fill="white"/>
<path opacity="0.4" d="M48.7256 74.4829C48.7345 74.5805 48.7792 74.6714 48.8511 74.738C48.923 74.8046 49.017 74.8422 49.115 74.8435C49.2107 74.8435 49.3024 74.8056 49.37 74.7379C49.4377 74.6703 49.4757 74.5786 49.4757 74.4829C49.4684 74.3847 49.4241 74.2929 49.3519 74.226C49.2796 74.1591 49.1847 74.122 49.0862 74.1223C48.9906 74.1223 48.8988 74.1603 48.8312 74.2279C48.7636 74.2956 48.7256 74.3873 48.7256 74.4829Z" fill="white"/>
<path d="M64.2038 70.9346C64.8421 71.9587 65.5308 73.0442 66.2196 74.09C66.9084 75.1358 67.6152 76.1815 68.3364 77.2057C69.7359 79.2405 71.2493 81.1946 72.8694 83.0585C73.6305 83.9286 74.4562 84.7399 75.3396 85.4854L75.6497 85.7307C75.7175 85.7888 75.7885 85.843 75.8625 85.8929C76.0494 86.0158 76.2433 86.1278 76.4431 86.2283C76.9299 86.4652 77.4338 86.6653 77.9505 86.8269C78.495 87.0109 79.0684 87.1876 79.6526 87.321C80.2368 87.4544 80.839 87.6095 81.4557 87.7357C82.6637 87.9917 83.9259 88.2261 85.1412 88.4353V90.9596C84.4488 91.0606 83.7997 91.1111 83.1253 91.1579C82.451 91.2048 81.7838 91.2229 81.1059 91.2265C79.7216 91.2312 78.3393 91.1214 76.9732 90.8983C76.2334 90.7697 75.5042 90.5865 74.7915 90.3502C74.3926 90.2133 74.0045 90.0469 73.6303 89.8525C73.4319 89.7588 73.2228 89.6253 73.0208 89.4919L72.5556 89.1673C71.4078 88.3239 70.3341 87.3841 69.3462 86.3581C67.4855 84.4162 65.7635 82.346 64.1929 80.1627C63.4116 79.0929 62.6591 78.0111 61.9355 76.9172C61.2142 75.8065 60.493 74.7174 59.8223 73.5346L64.2038 70.9346Z" fill="#FFC3BD"/>
<path d="M58.1346 71.634C57.774 74.8002 65.3217 82.366 65.3217 82.366L70.428 78.1035C68.9316 75.5713 67.2754 73.1371 65.4695 70.8154C62.5666 67.2201 58.5277 68.0531 58.1346 71.634Z" fill="#407BFF"/>
<path opacity="0.3" d="M62.26 73.881C60.2442 71.7173 59.2813 71.1583 58.1201 72.0202C58.2752 75.3631 65.3324 82.3591 65.3324 82.3591C65.794 78.7709 63.9657 76.463 62.26 73.881Z" fill="black"/>
<path d="M70.0126 76.6428L70.5499 78.2007L64.8377 82.8887L63.709 81.7167L70.0126 76.6428Z" fill="#407BFF"/>
<path opacity="0.3" d="M70.0126 76.6428L70.5499 78.2007L64.8377 82.8887L63.709 81.7167L70.0126 76.6428Z" fill="#263238"/>
<path d="M84.8705 88.3848L88.8373 89.0663L86.6556 92.5499C86.1363 92.6328 84.0664 91.5113 83.1504 90.1193L84.8705 88.3848Z" fill="#FFC3BD"/>
<path d="M91.2709 91.4174L89.6878 93.2133L86.6514 92.5317L88.8295 89.0662L91.2709 91.4174Z" fill="#FFC3BD"/>
<path d="M62.2416 68.6011C62.2416 68.6011 66.569 78.7777 63.4533 97.7317H45.4225C45.2025 94.9658 46.4719 81.4679 43.3525 68.428C45.3375 68.0429 47.3457 67.7887 49.364 67.6671C51.9162 67.5192 54.4749 67.5192 57.0271 67.6671C58.7868 67.8436 60.5301 68.1558 62.2416 68.6011Z" fill="#407BFF"/>
<path opacity="0.3" d="M47.3808 71.6341C47.7414 73.7978 47.2582 78.9113 45.4191 84.8471C45.2782 79.756 44.6856 74.6875 43.6484 69.7012V69.676C44.824 69.5786 47.0238 69.6363 47.3808 71.6341Z" fill="black"/>
<path d="M49.8222 59.0383C50.392 61.5049 51.0303 66.0235 49.3643 67.6679C49.3643 67.6679 50.0855 69.709 54.6653 69.709C59.714 69.709 57.0274 67.6679 57.0274 67.6679C54.2542 67.0116 54.2542 64.9705 54.6653 63.0556L49.8222 59.0383Z" fill="#FFC3BD"/>
<path d="M54.9753 69.8995L56.0571 71.0426C56.09 71.0763 56.1117 71.1193 56.1194 71.1657C56.1272 71.2121 56.1205 71.2597 56.1004 71.3023L55.5595 72.431C55.5421 72.4695 55.5143 72.5023 55.4793 72.5259C55.4443 72.5495 55.4033 72.5628 55.3612 72.5644L54.5426 72.6041C54.5036 72.6057 54.4649 72.5972 54.4302 72.5796C54.3954 72.5619 54.3658 72.5355 54.3442 72.5031L53.5869 71.4213C53.5565 71.3807 53.54 71.3313 53.54 71.2806C53.54 71.2299 53.5565 71.1806 53.5869 71.14L54.6255 69.9103C54.646 69.8839 54.6721 69.8624 54.7019 69.8472C54.7317 69.832 54.7644 69.8237 54.7978 69.8226C54.8313 69.8216 54.8645 69.8279 54.8952 69.8412C54.9258 69.8545 54.9532 69.8744 54.9753 69.8995Z" fill="white"/>
<path d="M54.7983 69.7085C54.2778 70.5459 53.9764 71.5008 53.922 72.4852C53.922 72.4852 48.0691 70.4838 48.336 67.5556C48.8558 67.3036 49.3561 67.0131 49.8326 66.6865C49.8326 66.6865 50.0237 68.5365 54.7983 69.7085Z" fill="#263238"/>
<path d="M54.7988 69.7084C55.3195 70.5024 55.6943 71.3828 55.9059 72.3084C55.9059 72.3084 58.6178 70.4512 57.846 67.5555L56.2521 67.2129C56.2521 67.2129 56.5875 69.0809 54.7988 69.7084Z" fill="#263238"/>
<path d="M55.4623 72.4425C55.8229 73.6398 58.5419 82.5181 58.6104 84.6422C58.6122 84.6602 58.6122 84.6783 58.6104 84.6963C58.358 85.8394 57.2257 87.8444 56.7641 88.6306C56.7464 88.6616 56.7203 88.6871 56.6888 88.7041C56.6573 88.721 56.6217 88.7288 56.586 88.7266C56.5504 88.7243 56.516 88.7121 56.4869 88.6913C56.4578 88.6705 56.4352 88.642 56.4215 88.609C56.1042 87.8336 55.3397 85.9764 54.8348 84.891C54.8255 84.8704 54.8194 84.8485 54.8168 84.8261C54.5788 80.9495 54.5138 74.9199 54.3948 72.511C54.3934 72.485 54.3972 72.459 54.4062 72.4346C54.4151 72.4101 54.429 72.3877 54.4468 72.3688C54.4647 72.3499 54.4863 72.3349 54.5102 72.3246C54.5342 72.3143 54.5599 72.309 54.586 72.3091H55.282C55.3222 72.3095 55.3614 72.3226 55.3937 72.3466C55.4261 72.3705 55.4501 72.4041 55.4623 72.4425Z" fill="white"/>
<path opacity="0.2" d="M51.7982 60.6753L54.6651 63.0518C54.5614 63.4984 54.4974 63.9533 54.474 64.4113C53.4174 64.2598 51.9497 63.1095 51.7874 62.0096C51.708 61.568 51.7117 61.1155 51.7982 60.6753Z" fill="black"/>
<path d="M56.8833 51.7075C57.5649 52.2159 58.7297 54.3652 57.2439 54.9278C55.7582 55.4903 55.2136 50.4597 56.8833 51.7075Z" fill="#263238"/>
<path d="M48.9346 56.081C49.6161 59.3662 49.8505 61.3172 51.7726 62.8281C52.392 63.3269 53.136 63.6467 53.9241 63.7531C54.7122 63.8594 55.5144 63.7481 56.2438 63.4313C56.9733 63.1145 57.6021 62.6043 58.0624 61.9557C58.5227 61.3072 58.7968 60.5452 58.8551 59.7521C59.1364 56.7049 57.968 51.8474 54.5277 50.8881C53.7886 50.6616 53.003 50.6334 52.2495 50.8062C51.4961 50.979 50.8013 51.3469 50.2348 51.8728C49.6682 52.3988 49.2499 53.0644 49.0217 53.803C48.7935 54.5416 48.7635 55.3271 48.9346 56.081Z" fill="#FFC3BD"/>
<path d="M49.3637 58.5547L50.7413 57.6351L50.8315 56.8345C50.958 55.6738 50.7411 54.5014 50.2076 53.4627C50.2076 53.4627 56.9042 53.7116 57.7337 51.6164C58.5631 49.5212 56.2046 47.9453 56.2046 47.9453C56.2046 47.9453 53.8354 49.3048 52.2379 49.413C50.6403 49.5212 45.7468 47.5234 45.7468 51.6597C43.5831 52.3268 43.6552 55.8861 49.3529 58.5547" fill="#263238"/>
<path d="M45.9887 51.8217C45.9887 51.8217 45.1015 51.1185 45.7615 48.9692C44.9501 49.3731 44.5606 51.5693 45.9887 51.8217Z" fill="#263238"/>
<path d="M47.9644 59.8925C48.5099 60.5447 49.2838 60.9639 50.1281 61.0646C51.246 61.1836 51.5705 60.1522 51.0873 59.2038C50.6401 58.3527 49.5222 57.2637 48.4909 57.5846C47.4595 57.9055 47.2972 59.0812 47.9644 59.8925Z" fill="#FFC3BD"/>
<path d="M64.9747 108.691H53.453C52.418 102.437 51.585 97.7314 51.585 97.7314H63.4529C63.4529 97.7314 64.12 102.358 64.9747 108.691Z" fill="#263238"/>
<path d="M45.8626 108.691C45.6029 102.437 45.4082 97.7314 45.4082 97.7314H57.0417C57.0417 97.7314 57.0994 102.495 57.1246 108.691H45.8626Z" fill="#263238"/>
<path d="M54.1027 56.4527C54.1424 56.7232 54.3155 56.9251 54.4922 56.9071C54.6689 56.8891 54.7807 56.651 54.741 56.3842C54.7013 56.1173 54.5283 55.9118 54.3516 55.9298C54.1748 55.9478 54.0631 56.1822 54.1027 56.4527Z" fill="#263238"/>
<path d="M57.1574 56.1275C57.1971 56.398 57.3702 56.5999 57.5469 56.5783C57.7236 56.5566 57.8354 56.3258 57.7957 56.059C57.756 55.7921 57.5829 55.5866 57.4062 55.6046C57.2295 55.6226 57.1177 55.8462 57.1574 56.1275Z" fill="#263238"/>
<path d="M56.2051 56.3586C56.6477 57.1486 57.1934 57.8762 57.8279 58.5223C57.4167 59.02 56.5729 58.9046 56.5729 58.9046L56.2051 56.3586Z" fill="#ED847E"/>
<path d="M55.3322 59.7344C55.518 59.7541 55.7054 59.7541 55.8912 59.7344C55.9016 59.7335 55.9118 59.7305 55.9211 59.7257C55.9303 59.7208 55.9386 59.7142 55.9453 59.7061C55.952 59.6981 55.957 59.6888 55.9601 59.6788C55.9632 59.6688 55.9643 59.6583 55.9633 59.6478C55.9606 59.6264 55.9497 59.607 55.9328 59.5935C55.916 59.58 55.8946 59.5737 55.8732 59.5757C55.5334 59.6189 55.1883 59.5835 54.8644 59.4722C54.5406 59.3609 54.2466 59.1767 54.0052 58.9338C53.9983 58.9258 53.9899 58.9191 53.9805 58.9143C53.9711 58.9095 53.9608 58.9066 53.9502 58.9058C53.9397 58.9049 53.9291 58.9062 53.919 58.9094C53.9089 58.9127 53.8996 58.9179 53.8916 58.9248C53.8835 58.9317 53.8769 58.94 53.8721 58.9495C53.8673 58.9589 53.8644 58.9692 53.8635 58.9797C53.8627 58.9903 53.8639 59.0009 53.8672 59.0109C53.8705 59.021 53.8757 59.0303 53.8826 59.0384C54.2675 59.4356 54.7815 59.6824 55.3322 59.7344Z" fill="#263238"/>
<path d="M52.999 55.5723C53.0298 55.5761 53.0611 55.5706 53.0887 55.5564C53.1164 55.5423 53.1391 55.5201 53.1541 55.4929C53.2466 55.3186 53.3804 55.1696 53.5439 55.0589C53.7073 54.9483 53.8954 54.8794 54.0917 54.8582C54.1341 54.8554 54.1737 54.8361 54.202 54.8044C54.2303 54.7727 54.2451 54.7312 54.2431 54.6887C54.2422 54.6679 54.2372 54.6474 54.2283 54.6285C54.2195 54.6096 54.207 54.5927 54.1916 54.5786C54.1762 54.5645 54.1581 54.5536 54.1385 54.5466C54.1189 54.5395 54.0981 54.5363 54.0772 54.5373C53.8272 54.5621 53.5871 54.6477 53.3778 54.7866C53.1685 54.9255 52.9963 55.1135 52.8764 55.3342C52.8656 55.3526 52.8586 55.373 52.8558 55.3941C52.8531 55.4152 52.8546 55.4367 52.8603 55.4573C52.866 55.4778 52.8758 55.4969 52.8891 55.5136C52.9024 55.5303 52.9189 55.5441 52.9377 55.5542C52.9562 55.5655 52.9773 55.5718 52.999 55.5723Z" fill="#263238"/>
<path d="M58.3 54.9272C58.3383 54.9301 58.3765 54.92 58.4082 54.8984C58.4423 54.8743 58.4659 54.838 58.4739 54.797C58.482 54.7561 58.4739 54.7136 58.4515 54.6784C58.3144 54.4616 58.1286 54.28 57.9088 54.1478C57.689 54.0157 57.4414 53.9368 57.1857 53.9175C57.1439 53.9174 57.1037 53.9335 57.0734 53.9624C57.0432 53.9913 57.0253 54.0308 57.0234 54.0725C57.0234 54.115 57.04 54.1557 57.0697 54.186C57.0993 54.2164 57.1397 54.2339 57.1821 54.2348C57.3857 54.254 57.5821 54.3199 57.756 54.4275C57.9299 54.5351 58.0766 54.6814 58.1846 54.8551C58.1978 54.8744 58.2149 54.8908 58.2348 54.9032C58.2546 54.9157 58.2768 54.9238 58.3 54.9272Z" fill="#263238"/>
<path d="M46.7963 73.495L45.9958 74.8798C45.7265 75.3606 45.4632 75.8414 45.206 76.3222C44.6867 77.2839 44.1891 78.2527 43.713 79.2288C43.2442 80.2061 42.7971 81.1869 42.3968 82.175C42.2057 82.6655 42.0109 83.1595 41.8451 83.6536L41.589 84.3928L41.3763 85.1141L41.3222 85.298L41.2933 85.3917C41.2933 85.4242 41.2933 85.3917 41.2933 85.4134C41.2933 85.435 41.2933 85.453 41.2681 85.4927C41.2533 85.6342 41.2533 85.7768 41.2681 85.9182C41.3133 86.347 41.4027 86.77 41.5349 87.1804C41.8515 88.1679 42.2371 89.1319 42.6889 90.0653C43.6013 92.0235 44.712 93.9996 45.8046 95.9289L43.8104 97.4868C42.9594 96.6321 42.1949 95.7631 41.4448 94.8471C40.6947 93.9311 40.0023 92.9791 39.3207 91.9622C38.6265 90.9234 38.0232 89.8267 37.5177 88.6842C37.2295 88.0324 37.0072 87.3535 36.8541 86.6575C36.7645 86.2366 36.7185 85.8076 36.7171 85.3773C36.7142 85.1189 36.7335 84.8607 36.7748 84.6056L36.8036 84.4181L36.8289 84.3027L36.8758 84.0683C37.1094 82.846 37.4263 81.6412 37.8242 80.4621C38.2064 79.3009 38.6536 78.183 39.1296 77.0795C39.6056 75.976 40.1285 74.9158 40.6875 73.8556C40.9688 73.3327 41.2536 72.8134 41.553 72.2941C41.8523 71.7748 42.148 71.2844 42.505 70.7327L46.7963 73.495Z" fill="#FFC3BD"/>
<path d="M43.3563 68.4286C40.1829 68.8938 36.9121 79.9431 36.9121 79.9431L43.7422 83.7259C43.7422 83.7259 46.5081 78.4681 47.828 74.5663C49.2091 70.4769 46.7569 67.9309 43.3563 68.4286Z" fill="#407BFF"/>
<path d="M37.0522 78.385L36.7637 80.0078L43.7813 83.87L44.7153 82.5321L37.0522 78.385Z" fill="#407BFF"/>
<path opacity="0.3" d="M37.0522 78.385L36.7637 80.0078L43.7813 83.87L44.7153 82.5321L37.0522 78.385Z" fill="#263238"/>
<path d="M44.8963 95.1789L48.25 94.5947L46.5299 98.4786C46.5299 98.4786 43.4646 98.4605 43.6053 96.881L44.8963 95.1789Z" fill="#FFC3BD"/>
<path d="M50.7557 96.5457L49.1762 99.683L46.5293 98.4786L48.2494 94.5947L50.7557 96.5457Z" fill="#FFC3BD"/>
<path d="M155.646 110.732H107.031C106.864 110.733 106.699 110.7 106.545 110.635C106.391 110.57 106.252 110.475 106.136 110.355C106.02 110.235 105.929 110.093 105.869 109.938C105.809 109.782 105.781 109.615 105.787 109.449L106.937 74.6925C106.953 74.3486 107.099 74.0237 107.347 73.7843C107.594 73.545 107.924 73.4093 108.268 73.4051H156.879C157.046 73.4039 157.212 73.4368 157.367 73.5017C157.521 73.5665 157.66 73.662 157.777 73.7824C157.893 73.9028 157.984 74.0455 158.043 74.2019C158.103 74.3583 158.13 74.5252 158.123 74.6925L156.976 109.449C156.962 109.793 156.816 110.118 156.569 110.357C156.321 110.597 155.99 110.731 155.646 110.732Z" fill="#407BFF"/>
<path opacity="0.6" d="M155.646 110.732H107.031C106.864 110.733 106.699 110.7 106.545 110.635C106.391 110.57 106.252 110.475 106.136 110.355C106.02 110.235 105.929 110.093 105.869 109.938C105.809 109.782 105.781 109.615 105.787 109.449L106.937 74.6925C106.953 74.3486 107.099 74.0237 107.347 73.7843C107.594 73.545 107.924 73.4093 108.268 73.4051H156.879C157.046 73.4039 157.212 73.4368 157.367 73.5017C157.521 73.5665 157.66 73.662 157.777 73.7824C157.893 73.9028 157.984 74.0455 158.043 74.2019C158.103 74.3583 158.13 74.5252 158.123 74.6925L156.976 109.449C156.962 109.793 156.816 110.118 156.569 110.357C156.321 110.597 155.99 110.731 155.646 110.732Z" fill="#263238"/>
<path d="M155.249 110.732H106.635C106.468 110.733 106.302 110.7 106.148 110.635C105.995 110.57 105.855 110.475 105.739 110.355C105.623 110.235 105.532 110.093 105.472 109.938C105.412 109.782 105.385 109.615 105.39 109.449L106.541 74.6924C106.556 74.3486 106.703 74.0237 106.95 73.7843C107.198 73.545 107.527 73.4093 107.871 73.405H156.483C156.65 73.4044 156.815 73.4376 156.969 73.5027C157.124 73.5677 157.263 73.6632 157.379 73.7835C157.495 73.9037 157.586 74.0463 157.646 74.2025C157.705 74.3587 157.733 74.5253 157.727 74.6924L156.576 109.449C156.562 109.792 156.417 110.117 156.17 110.356C155.923 110.595 155.593 110.73 155.249 110.732Z" fill="#407BFF"/>
<path d="M154.621 110.671H95.9095C95.6208 110.671 95.3378 110.752 95.093 110.905C94.8481 111.058 94.6512 111.277 94.5248 111.537C94.4923 111.605 94.4777 111.68 94.4823 111.755C94.4868 111.83 94.5104 111.902 94.5508 111.966C94.5912 112.029 94.6471 112.082 94.7132 112.117C94.7793 112.153 94.8534 112.172 94.9286 112.171H155.602C155.678 112.173 155.753 112.154 155.819 112.119C155.886 112.083 155.942 112.031 155.983 111.967C156.024 111.904 156.048 111.831 156.052 111.756C156.057 111.68 156.042 111.605 156.01 111.537C155.883 111.277 155.685 111.058 155.44 110.905C155.194 110.752 154.911 110.671 154.621 110.671Z" fill="#407BFF"/>
<path opacity="0.6" d="M154.622 110.671H145.606C145.317 110.671 145.034 110.752 144.788 110.905C144.543 111.058 144.345 111.277 144.218 111.537C144.186 111.605 144.171 111.68 144.176 111.756C144.18 111.831 144.204 111.904 144.245 111.967C144.286 112.031 144.342 112.083 144.409 112.119C144.475 112.154 144.55 112.173 144.626 112.171H155.585C155.66 112.173 155.735 112.154 155.801 112.119C155.868 112.083 155.924 112.031 155.965 111.967C156.006 111.904 156.03 111.831 156.035 111.756C156.039 111.68 156.025 111.605 155.992 111.537C155.867 111.279 155.672 111.062 155.43 110.91C155.188 110.757 154.908 110.674 154.622 110.671Z" fill="#263238"/>
<path opacity="0.2" d="M123.915 111.623H111.726C111.581 111.624 111.443 111.682 111.341 111.785C111.239 111.888 111.182 112.026 111.182 112.171H124.463C124.463 112.026 124.405 111.886 124.303 111.784C124.2 111.681 124.06 111.623 123.915 111.623Z" fill="black"/>
<path opacity="0.9" d="M106.552 108.19L107.634 75.951C107.64 75.817 107.698 75.6905 107.794 75.5974C107.891 75.5042 108.019 75.4514 108.153 75.4497H156.115C156.18 75.4492 156.245 75.4619 156.305 75.4871C156.365 75.5123 156.419 75.5495 156.465 75.5965C156.51 75.6434 156.545 75.699 156.568 75.7599C156.591 75.8209 156.601 75.8859 156.598 75.951L155.517 108.19C155.512 108.324 155.456 108.451 155.36 108.544C155.263 108.638 155.135 108.691 155.001 108.691H107.039C106.974 108.692 106.909 108.679 106.849 108.654C106.788 108.629 106.734 108.592 106.688 108.545C106.643 108.498 106.607 108.442 106.584 108.381C106.56 108.32 106.55 108.255 106.552 108.19Z" fill="white"/>
<path d="M140.648 108.691H134.038L141.658 75.4497H148.268L140.648 108.691Z" fill="white"/>
<path d="M111.946 108.691H109.566L117.186 75.4497H119.563L111.946 108.691Z" fill="white"/>
<path d="M146.068 108.691H143.688L151.307 75.4497H153.687L146.068 108.691Z" fill="white"/>
<path opacity="0.4" d="M132.52 74.4829C132.511 74.5805 132.466 74.6714 132.394 74.738C132.322 74.8046 132.228 74.8422 132.13 74.8435C132.035 74.8435 131.943 74.8056 131.875 74.7379C131.808 74.6703 131.77 74.5786 131.77 74.4829C131.777 74.3847 131.821 74.2929 131.893 74.226C131.966 74.1591 132.061 74.122 132.159 74.1223C132.255 74.1223 132.346 74.1603 132.414 74.2279C132.482 74.2956 132.52 74.3873 132.52 74.4829Z" fill="black"/>
<path d="M129.014 59.0383C128.448 61.5049 127.806 66.0235 129.476 67.6679C129.476 67.6679 128.755 69.709 124.175 69.709C119.126 69.709 121.813 67.6679 121.813 67.6679C124.586 67.0116 124.586 64.9705 124.171 63.0556L129.014 59.0383Z" fill="#B55B52"/>
<path d="M136.353 70.7549C136.713 71.3066 137.009 71.7899 137.305 72.3164C137.6 72.8429 137.892 73.3549 138.174 73.8778C138.729 74.9308 139.256 76.0019 139.732 77.1017C140.208 78.2016 140.655 79.3231 141.033 80.4843C141.432 81.6633 141.751 82.8682 141.985 84.0905L142.032 84.3249L142.054 84.4403L142.086 84.6278C142.124 84.8833 142.143 85.1412 142.144 85.3995C142.139 85.8296 142.093 86.2583 142.007 86.6797C141.853 87.3758 141.629 88.0548 141.34 88.7064C140.836 89.8496 140.232 90.9465 139.537 91.9844C138.866 92.9905 138.159 93.9425 137.409 94.8693C136.665 95.7883 135.876 96.6693 135.044 97.509L133.053 95.9512C134.135 94.0219 135.256 92.0457 136.169 90.0875C136.619 89.1541 137.004 88.1901 137.319 87.2026C137.451 86.7922 137.541 86.3692 137.586 85.9404C137.602 85.7991 137.602 85.6563 137.586 85.5149C137.586 85.4753 137.586 85.4392 137.557 85.4356V85.4139L137.532 85.3202L137.478 85.1363L137.261 84.415L137.009 83.6758C136.839 83.1817 136.648 82.6877 136.454 82.1972C136.053 81.2092 135.606 80.2283 135.141 79.251C134.676 78.2737 134.164 77.3073 133.648 76.3444C133.393 75.8636 133.13 75.3828 132.858 74.902L132.058 73.5208L136.353 70.7549Z" fill="#B65B52"/>
<path d="M135.483 68.4286C138.657 68.8938 141.924 79.9431 141.924 79.9431L135.097 83.7259C135.097 83.7259 132.328 78.4862 131.012 74.5663C129.627 70.4769 132.093 67.9309 135.483 68.4286Z" fill="#263238"/>
<path opacity="0.3" d="M133.418 74.4834L132.902 79.2075C133.418 80.3434 133.923 81.3712 134.316 82.1826C134.464 80.2893 134.46 77.2097 133.418 74.4834Z" fill="black"/>
<path d="M141.784 78.385L142.076 80.0078L135.058 83.87L134.124 82.5321L141.784 78.385Z" fill="#407BFF"/>
<path opacity="0.3" d="M141.784 78.385L142.076 80.0078L135.058 83.87L134.124 82.5321L141.784 78.385Z" fill="#263238"/>
<path d="M133.944 95.1789L130.587 94.5947L132.311 98.4786C132.311 98.4786 135.372 98.4605 135.232 96.881L133.944 95.1789Z" fill="#B55B52"/>
<path d="M128.084 96.5457L129.66 99.683L132.31 98.4786L130.587 94.5947L128.084 96.5457Z" fill="#B55B52"/>
<path d="M116.587 68.6011C116.587 68.6011 112.26 78.7777 115.379 97.7317H133.41C133.63 94.9658 132.357 81.4679 135.48 68.428C133.497 68.0435 131.492 67.7894 129.476 67.6671C126.923 67.5192 124.365 67.5192 121.813 67.6671C120.049 67.843 118.302 68.1553 116.587 68.6011Z" fill="#263238"/>
<path opacity="0.3" d="M114.658 77.3068C114.396 79.5874 114.262 81.8809 114.258 84.1765C116.71 82.579 117.583 78.9151 117.929 76.261L114.658 77.3068Z" fill="black"/>
<path d="M119.032 73.5385C118.344 74.7213 117.648 75.8104 116.919 76.9211C116.191 78.0318 115.444 79.11 114.662 80.1667C113.09 82.3499 111.367 84.4201 109.505 86.362C108.517 87.3872 107.445 88.3269 106.299 89.1712L105.83 89.4958C105.628 89.6184 105.419 89.7518 105.224 89.8564C104.849 90.0502 104.459 90.2165 104.06 90.3541C103.347 90.5904 102.618 90.7736 101.878 90.9022C100.512 91.1255 99.1295 91.2352 97.7453 91.2304C97.0709 91.2304 96.3966 91.2304 95.7294 91.1618C95.0623 91.0933 94.4023 91.0645 93.71 90.9635V88.4392C94.9252 88.23 96.1874 87.9956 97.3919 87.7396C97.9977 87.6134 98.5999 87.4763 99.1949 87.3249C99.79 87.1734 100.356 87.0148 100.897 86.8308C101.414 86.6698 101.918 86.4697 102.404 86.2322C102.604 86.1317 102.798 86.0197 102.985 85.8968C103.075 85.8428 103.129 85.7851 103.201 85.7346L103.512 85.4893C104.393 84.7419 105.219 83.9307 105.982 83.0624C107.6 81.1967 109.113 79.2427 110.515 77.2096C111.236 76.1854 111.932 75.1397 112.632 74.0939C113.331 73.0481 114.005 71.9626 114.647 70.9385L119.032 73.5385Z" fill="#B65B52"/>
<path d="M120.702 71.634C121.063 74.8002 114.002 82.4813 114.002 82.4813L108.416 78.1107C109.911 75.5782 111.566 73.1438 113.371 70.8226C116.27 67.22 120.302 68.0531 120.702 71.634Z" fill="#263238"/>
<path d="M108.827 76.6428L108.29 78.2007L113.999 82.8887L115.131 81.7167L108.827 76.6428Z" fill="#407BFF"/>
<path opacity="0.3" d="M108.827 76.6428L108.29 78.2007L113.999 82.8887L115.131 81.7167L108.827 76.6428Z" fill="#263238"/>
<path d="M93.7103 88.45L89.6895 88.5076L91.3086 92.2725C91.8063 92.4348 94.0277 91.645 95.1456 90.4117L93.7103 88.45Z" fill="#B55B52"/>
<path d="M86.916 90.4587L89.1122 93.2139L91.3083 92.269L89.6892 88.5078L86.916 90.4587Z" fill="#B55B52"/>
<path d="M120.681 56.1275C120.641 56.398 120.468 56.5999 120.291 56.5783C120.115 56.5566 120.003 56.3258 120.039 56.059C120.075 55.7921 120.255 55.5866 120.432 55.6046C120.609 55.6226 120.721 55.8462 120.681 56.1275Z" fill="#263238"/>
<path d="M120.756 56.3586C120.313 57.1493 119.766 57.877 119.13 58.5223C119.545 59.02 120.388 58.9046 120.388 58.9046L120.756 56.3586Z" fill="#A02724"/>
<path d="M120.298 58.3491C119.696 58.3491 119.151 57.48 119.054 56.3693C118.962 55.7519 119.112 55.1228 119.472 54.6131C119.534 54.5386 119.611 54.4781 119.698 54.4358C119.785 54.3935 119.88 54.3704 119.977 54.3679C120.579 54.3679 121.124 55.2334 121.221 56.3441C121.317 56.9618 121.17 57.5926 120.81 58.1039C120.748 58.1778 120.67 58.2377 120.584 58.28C120.497 58.3222 120.402 58.3458 120.305 58.3491H120.298ZM119.973 54.5482C119.904 54.5521 119.836 54.5705 119.774 54.6022C119.712 54.6338 119.657 54.6781 119.613 54.7321C119.291 55.2075 119.162 55.7878 119.252 56.3549C119.339 57.3394 119.826 58.158 120.334 58.158C120.404 58.1534 120.472 58.1344 120.534 58.1021C120.596 58.0699 120.651 58.025 120.695 57.9705C121.019 57.4973 121.148 56.9173 121.055 56.3513C120.951 55.3776 120.464 54.5482 119.973 54.5482Z" fill="#263238"/>
<path d="M121.636 54.9272C121.673 54.9302 121.71 54.92 121.741 54.8984C121.758 54.887 121.773 54.8723 121.785 54.8551C121.797 54.8379 121.805 54.8186 121.81 54.7981C121.814 54.7777 121.814 54.7566 121.811 54.736C121.807 54.7155 121.799 54.6959 121.787 54.6784C121.65 54.4616 121.465 54.28 121.245 54.1478C121.025 54.0157 120.777 53.9368 120.522 53.9175C120.48 53.9174 120.44 53.9335 120.409 53.9624C120.379 53.9913 120.361 54.0308 120.359 54.0725C120.359 54.115 120.376 54.1557 120.406 54.186C120.435 54.2164 120.476 54.2339 120.518 54.2348C120.722 54.254 120.918 54.3199 121.092 54.4275C121.266 54.5351 121.413 54.6814 121.521 54.8551C121.534 54.8744 121.551 54.8908 121.571 54.9032C121.591 54.9157 121.613 54.9238 121.636 54.9272Z" fill="#263238"/>
<path d="M129.905 56.0815C129.22 59.3668 128.989 61.3177 127.064 62.8287C126.444 63.3264 125.7 63.6454 124.913 63.7512C124.125 63.857 123.324 63.7455 122.595 63.4288C121.866 63.1121 121.238 62.6022 120.778 61.9543C120.318 61.3064 120.043 60.5451 119.985 59.7526C119.703 56.7054 120.868 51.8479 124.312 50.8887C125.051 50.6633 125.836 50.6359 126.589 50.8092C127.342 50.9825 128.036 51.3503 128.603 51.876C129.169 52.4017 129.587 53.0668 129.816 53.8048C130.044 54.5428 130.075 55.3279 129.905 56.0815Z" fill="#B55B52"/>
<path d="M134.384 108.692C134.553 105.012 134.232 101.327 133.428 97.7324H121.795C122.698 101.315 123.145 104.997 123.126 108.692H134.384Z" fill="#407BFF"/>
<path opacity="0.3" d="M134.384 108.692C134.553 105.012 134.232 101.327 133.428 97.7324H121.795C122.698 101.315 123.145 104.997 123.126 108.692H134.384Z" fill="white"/>
<path d="M122.779 57.0699C122.137 56.7489 121.337 53.5431 121.557 52.4035C121.777 51.264 124.362 50.0379 126.905 50.4995C129.447 50.961 130.54 51.8518 131.034 54.1669C131.542 56.5686 129.689 60.5679 128.773 60.878C128.23 61.0703 127.652 61.1447 127.078 61.0962C126.504 61.0477 125.947 60.8774 125.444 60.5967C124.626 60.0955 124.2 56.41 122.779 57.0699Z" fill="#263238"/>
<path d="M122.105 53.5527C120.864 53.6248 119.682 51.6486 120.821 49.8852C121.148 49.3826 121.614 48.985 122.161 48.74C122.709 48.4951 123.315 48.4131 123.908 48.5041C123.908 48.5041 123.389 49.5174 125.12 49.3046C126.851 49.0919 130.075 49.5751 131.2 50.7868C132.592 52.2797 131.751 55.2151 129.656 54.4939C127.561 53.7727 122.105 53.5527 122.105 53.5527Z" fill="#263238"/>
<path d="M121.773 53.6029C121.514 53.5906 121.26 53.5231 121.029 53.4049C120.797 53.2868 120.594 53.1207 120.432 52.9178C120.108 52.5303 119.898 52.0605 119.825 51.5606C119.753 51.0608 119.82 50.5506 120.021 50.0869C120.025 50.0758 120.032 50.0657 120.04 50.0571C120.049 50.0485 120.059 50.0417 120.07 50.037C120.081 50.0324 120.093 50.0299 120.105 50.0298C120.117 50.0297 120.129 50.0319 120.14 50.0364C120.151 50.0409 120.161 50.0476 120.17 50.056C120.178 50.0644 120.185 50.0744 120.19 50.0855C120.194 50.0965 120.197 50.1084 120.197 50.1204C120.197 50.1324 120.195 50.1443 120.19 50.1555C120 50.5874 119.934 51.064 120.001 51.5313C120.068 51.9985 120.265 52.4376 120.569 52.7988C120.736 53.0225 120.961 53.1959 121.22 53.3002C121.479 53.4045 121.761 53.4357 122.037 53.3902C122.059 53.3856 122.083 53.3897 122.103 53.4017C122.123 53.4137 122.138 53.4328 122.145 53.4551C122.15 53.4785 122.147 53.5032 122.135 53.524C122.123 53.5448 122.103 53.5601 122.08 53.5669C121.98 53.5913 121.877 53.6034 121.773 53.6029Z" fill="#263238"/>
<path d="M124.817 56.6544C124.869 57.5063 124.595 58.346 124.049 59.002C123.327 59.8567 122.364 59.341 122.072 58.3132C121.809 57.3864 121.87 55.8286 122.84 55.349C123.811 54.8693 124.741 55.6122 124.817 56.6544Z" fill="#B55B52"/>
<path d="M113.865 108.692H126.793C127.419 105.074 127.573 101.39 127.251 97.7324H115.387C115.387 97.7324 114.72 102.359 113.865 108.692Z" fill="#407BFF"/>
<path opacity="0.3" d="M113.865 108.692H126.793C127.419 105.074 127.573 101.39 127.251 97.7324H115.387C115.387 97.7324 114.72 102.359 113.865 108.692Z" fill="white"/>
</g>
<defs>
<clipPath id="clip0_85_2329">
<rect width="180.308" height="180.308" fill="white" transform="translate(0.46875 0.232178)"/>
</clipPath>
</defs>
</svg>
