<svg width="111" height="110" viewBox="0 0 111 110" fill="none" xmlns="http://www.w3.org/2000/svg">
<g clip-path="url(#clip0_85_1081)">
<path d="M110.3 83.9487H0.789062V84.0035H110.3V83.9487Z" fill="#EBEBEB"/>
<path d="M15.7968 86.0339H12.2793V86.0887H15.7968V86.0339Z" fill="#EBEBEB"/>
<path d="M49.9967 85.4402H38.2725V85.4949H49.9967V85.4402Z" fill="#EBEBEB"/>
<path d="M23.9552 88.0684H16.0156V88.1231H23.9552V88.0684Z" fill="#EBEBEB"/>
<path d="M93.2887 85.4116H83.8291V85.4664H93.2887V85.4116Z" fill="#EBEBEB"/>
<path d="M96.6266 85.4116H95.2402V85.4664H96.6266V85.4116Z" fill="#EBEBEB"/>
<path d="M82.0219 86.7764H70.2188V86.8311H82.0219V86.7764Z" fill="#EBEBEB"/>
<path d="M52.6976 74.1807H10.4066C10.0753 74.1801 9.75779 74.0481 9.52373 73.8136C9.28966 73.5792 9.1582 73.2614 9.1582 72.9301V13.4809C9.16109 13.1515 9.29382 12.8365 9.52757 12.6044C9.76132 12.3723 10.0772 12.2418 10.4066 12.2412H52.6976C53.0293 12.2412 53.3474 12.373 53.582 12.6075C53.8165 12.842 53.9483 13.1601 53.9483 13.4918V72.9301C53.9483 73.2618 53.8165 73.5799 53.582 73.8144C53.3474 74.0489 53.0293 74.1807 52.6976 74.1807ZM10.4066 12.285C10.0898 12.2856 9.78624 12.4118 9.56244 12.636C9.33865 12.8603 9.21296 13.1641 9.21296 13.4809V72.9301C9.21296 73.2469 9.33865 73.5507 9.56244 73.7749C9.78624 73.9991 10.0898 74.1254 10.4066 74.1259H52.6976C53.0146 74.1254 53.3185 73.9992 53.5426 73.775C53.7667 73.5509 53.8929 73.2471 53.8935 72.9301V13.4809C53.8929 13.1639 53.7667 12.8601 53.5426 12.6359C53.3185 12.4118 53.0146 12.2856 52.6976 12.285H10.4066Z" fill="#EBEBEB"/>
<path d="M100.074 74.1807H57.7809C57.4494 74.1801 57.1316 74.0482 56.8972 73.8138C56.6628 73.5793 56.5309 73.2616 56.5303 72.9301V13.4809C56.5337 13.1513 56.6669 12.8363 56.901 12.6043C57.1352 12.3722 57.4513 12.2418 57.7809 12.2412H100.074C100.403 12.2424 100.718 12.3731 100.952 12.6052C101.185 12.8372 101.317 13.1519 101.32 13.4809V72.9301C101.32 73.261 101.189 73.5784 100.956 73.8128C100.722 74.0473 100.405 74.1795 100.074 74.1807ZM57.7809 12.285C57.4639 12.2856 57.1601 12.4118 56.9359 12.6359C56.7118 12.8601 56.5856 13.1639 56.585 13.4809V72.9301C56.5856 73.2471 56.7118 73.5509 56.9359 73.775C57.1601 73.9992 57.4639 74.1254 57.7809 74.1259H100.074C100.391 74.1254 100.695 73.9992 100.919 73.775C101.143 73.5509 101.269 73.2471 101.27 72.9301V13.4809C101.269 13.1639 101.143 12.8601 100.919 12.6359C100.695 12.4118 100.391 12.2856 100.074 12.285H57.7809Z" fill="#EBEBEB"/>
<path d="M87.5988 65.6409H86.1445V83.9489H87.5988V65.6409Z" fill="#F5F5F5"/>
<path d="M88.2318 65.6409H86.9658V83.9489H88.2318V65.6409Z" fill="#F0F0F0"/>
<path d="M53.676 65.6409H52.2217V83.9489H53.676V65.6409Z" fill="#F5F5F5"/>
<path d="M54.3089 65.6409H53.043V83.9489H54.3089V65.6409Z" fill="#F0F0F0"/>
<path d="M93.1115 65.6409H91.6572V83.9489H93.1115V65.6409Z" fill="#F5F5F5"/>
<path d="M93.7445 65.6409H92.4785V83.9489H93.7445V65.6409Z" fill="#F0F0F0"/>
<path d="M59.1887 65.6409H57.7344V83.9489H59.1887V65.6409Z" fill="#F5F5F5"/>
<path d="M52.2241 65.9868H93.7441V65.2925H52.2241V65.9868Z" fill="#F0F0F0"/>
<path d="M52.2215 65.9868H58.5557V65.2925H52.2215V65.9868Z" fill="#E6E6E6"/>
<path d="M59.8216 65.6409H58.5557V83.9489H59.8216V65.6409Z" fill="#F0F0F0"/>
<path d="M72.9876 51.9587H69.0605V65.2928H72.9876V51.9587Z" fill="#EBEBEB"/>
<path d="M83.6361 65.2923H70.5999L68.6309 49.687H81.6671L83.6361 65.2923Z" fill="#E0E0E0"/>
<path d="M84.4032 65.2923H70.9378L68.9688 49.687H82.4342L84.4032 65.2923Z" fill="#F0F0F0"/>
<path d="M76.8493 65.2923H74.2363L74.9722 49.687H77.5852L76.8493 65.2923Z" fill="#FAFAFA"/>
<path d="M79.8428 65.2923H77.2715L78.0074 49.687H80.5787L79.8428 65.2923Z" fill="#FAFAFA"/>
<path d="M95.177 16.0759H61.3096V42.5754H95.177V16.0759Z" fill="#E6E6E6"/>
<path d="M96.1926 16.0759H61.7842V42.5754H96.1926V16.0759Z" fill="#F0F0F0"/>
<path d="M95.177 42.5754H61.3096V43.4625H95.177V42.5754Z" fill="#E6E6E6"/>
<path d="M96.7336 42.5754H62.3252V43.4625H96.7336V42.5754Z" fill="#F0F0F0"/>
<path d="M94.7715 41.1517V17.4973L63.2082 17.4973V41.1517H94.7715Z" fill="#FAFAFA"/>
<path d="M80.4805 41.152L82.7583 17.4998H86.7007L84.4229 41.152H80.4805Z" fill="white"/>
<path d="M70.5322 41.152L72.8101 17.4998H76.7525L74.4746 41.152H70.5322Z" fill="white"/>
<path d="M63.8671 33.1357C63.8384 33.1351 63.8111 33.1233 63.7911 33.1028C63.771 33.0824 63.7598 33.0548 63.7598 33.0262V18.424C63.7598 18.3949 63.7713 18.3671 63.7918 18.3465C63.8124 18.326 63.8402 18.3145 63.8693 18.3145C63.8983 18.3145 63.9262 18.326 63.9467 18.3465C63.9672 18.3671 63.9788 18.3949 63.9788 18.424V33.0262C63.9788 33.0407 63.9759 33.0552 63.9702 33.0686C63.9646 33.082 63.9563 33.0942 63.9459 33.1044C63.9355 33.1146 63.9232 33.1226 63.9097 33.128C63.8961 33.1334 63.8816 33.136 63.8671 33.1357Z" fill="#F0F0F0"/>
<path d="M85.2676 41.152L87.5454 17.4998H89.0829L86.8051 41.152H85.2676Z" fill="white"/>
<path d="M94.7715 41.1542V17.4998H94.5919V41.1542H94.7715Z" fill="#E6E6E6"/>
<path opacity="0.5" d="M96.5301 20.0775H62.6627L62.5312 18.0515H96.3987L96.5301 20.0775Z" fill="#E0E0E0"/>
<path opacity="0.5" d="M96.5301 23.4093H62.6627L62.5312 21.3833H96.3987L96.5301 23.4093Z" fill="#E0E0E0"/>
<path opacity="0.5" d="M96.5301 26.7401H62.6627L62.5312 24.7141H96.3987L96.5301 26.7401Z" fill="#E0E0E0"/>
<path opacity="0.5" d="M96.5301 30.0714H62.6627L62.5312 28.0454H96.3987L96.5301 30.0714Z" fill="#E0E0E0"/>
<path opacity="0.5" d="M96.5301 33.4007H62.6627L62.5312 31.3748H96.3987L96.5301 33.4007Z" fill="#E0E0E0"/>
<path opacity="0.5" d="M96.5301 36.732H62.6627L62.5312 34.7061H96.3987L96.5301 36.732Z" fill="#E0E0E0"/>
<path opacity="0.5" d="M96.5301 21.7442H62.6627L62.5312 19.7183H96.3987L96.5301 21.7442Z" fill="#E0E0E0"/>
<path opacity="0.5" d="M96.5301 25.0736H62.6627L62.5312 23.0476H96.3987L96.5301 25.0736Z" fill="#E0E0E0"/>
<path opacity="0.5" d="M96.5301 28.4051H62.6627L62.5312 26.3792H96.3987L96.5301 28.4051Z" fill="#E0E0E0"/>
<path opacity="0.5" d="M96.5301 31.7364H62.6627L62.5312 29.7104H96.3987L96.5301 31.7364Z" fill="#E0E0E0"/>
<path opacity="0.5" d="M96.5301 35.0677H62.6627L62.5312 33.0417H96.3987L96.5301 35.0677Z" fill="#E0E0E0"/>
<path opacity="0.5" d="M96.5301 38.3985H62.6627L62.5312 36.3704H96.3987L96.5301 38.3985Z" fill="#E0E0E0"/>
<path d="M22.516 29.2285H27.1133C27.6963 29.2285 28.1689 28.7559 28.1689 28.1728V26.4075C28.1689 25.8245 27.6963 25.3518 27.1133 25.3518H22.516C21.9329 25.3518 21.4603 25.8245 21.4603 26.4075V28.1728C21.4603 28.7559 21.9329 29.2285 22.516 29.2285Z" fill="#F5F5F5"/>
<path d="M22.516 25.3494H27.1133C27.6963 25.3494 28.1689 24.8767 28.1689 24.2937V22.5284C28.1689 21.9453 27.6963 21.4727 27.1133 21.4727H22.516C21.9329 21.4727 21.4603 21.9453 21.4603 22.5284V24.2937C21.4603 24.8767 21.9329 25.3494 22.516 25.3494Z" fill="#F5F5F5"/>
<path d="M24.0185 21.4731H25.6108C25.8128 21.4731 25.9766 21.3094 25.9766 21.1074V20.4963C25.9766 20.2943 25.8128 20.1305 25.6108 20.1305H24.0185C23.8165 20.1305 23.6527 20.2943 23.6527 20.4963V21.1074C23.6527 21.3094 23.8165 21.4731 24.0185 21.4731Z" fill="#E0E0E0"/>
<path d="M22.516 33.1028H27.1133C27.6963 33.1028 28.1689 32.6301 28.1689 32.0471V30.2818C28.1689 29.6987 27.6963 29.2261 27.1133 29.2261H22.516C21.9329 29.2261 21.4603 29.6987 21.4603 30.2818V32.0471C21.4603 32.6301 21.9329 33.1028 22.516 33.1028Z" fill="#F5F5F5"/>
<path d="M46.8977 30.4202C46.8977 30.4202 46.6786 33.1141 38.1609 33.1141C29.6431 33.1141 29.4219 30.4202 29.4219 30.4202H46.8977Z" fill="#F0F0F0"/>
<path d="M20.7727 33.6504H14.0225V81.4476H20.7727V33.6504Z" fill="#F0F0F0"/>
<path d="M48.6034 81.4475H15.3164V83.9487H48.6034V81.4475Z" fill="#F0F0F0"/>
<path d="M20.7726 81.4456H49.9004L49.9004 33.6483L20.7726 33.6483L20.7726 81.4456Z" fill="#F5F5F5"/>
<path d="M23.4252 61.9131H47.2461V50.6334H23.4252V61.9131Z" fill="#F0F0F0"/>
<path d="M23.4252 75.7092H47.2461V64.4296H23.4252V75.7092Z" fill="#F0F0F0"/>
<path d="M23.4252 79.7764H47.2461V78.057H23.4252V79.7764Z" fill="#F0F0F0"/>
<path d="M41.3897 51.5266H29.2821C29.0313 51.5261 28.791 51.4262 28.6137 51.2489C28.4364 51.0716 28.3365 50.8312 28.3359 50.5805C28.3371 50.3301 28.4372 50.0903 28.6145 49.9135C28.7917 49.7366 29.0317 49.6371 29.2821 49.6365H41.3897C41.64 49.6371 41.88 49.7366 42.0573 49.9135C42.2346 50.0903 42.3347 50.3301 42.3358 50.5805C42.3353 50.8312 42.2354 51.0716 42.0581 51.2489C41.8808 51.4262 41.6404 51.5261 41.3897 51.5266Z" fill="#F5F5F5"/>
<path d="M23.4252 48.1187H47.2461V36.839H23.4252V48.1187Z" fill="#F0F0F0"/>
<path d="M41.3897 37.7327H29.2821C29.0313 37.7321 28.791 37.6322 28.6137 37.4549C28.4364 37.2776 28.3365 37.0373 28.3359 36.7865C28.3365 36.5357 28.4364 36.2954 28.6137 36.1181C28.791 35.9408 29.0313 35.8409 29.2821 35.8403H41.3897C41.6404 35.8409 41.8808 35.9408 42.0581 36.1181C42.2354 36.2954 42.3353 36.5357 42.3358 36.7865C42.3353 37.0373 42.2354 37.2776 42.0581 37.4549C41.8808 37.6322 41.6404 37.7321 41.3897 37.7327Z" fill="#F5F5F5"/>
<path d="M41.3897 65.3233H29.2821C29.0313 65.3227 28.791 65.2228 28.6137 65.0455C28.4364 64.8682 28.3365 64.6278 28.3359 64.3771C28.3365 64.1263 28.4364 63.886 28.6137 63.7087C28.791 63.5314 29.0313 63.4315 29.2821 63.4309H41.3897C41.6404 63.4315 41.8808 63.5314 42.0581 63.7087C42.2354 63.886 42.3353 64.1263 42.3358 64.3771C42.3353 64.6278 42.2354 64.8682 42.0581 65.0455C41.8808 65.2228 41.6404 65.3227 41.3897 65.3233Z" fill="#F5F5F5"/>
<path d="M50.7985 33.1052H20.7705V33.6506H50.7985V33.1052Z" fill="#F0F0F0"/>
<path d="M13.0804 33.6504H20.7725V33.105H13.0804V33.6504Z" fill="#E6E6E6"/>
<path d="M55.5443 93.84C78.9978 93.84 98.0106 92.73 98.0106 91.3607C98.0106 89.9914 78.9978 88.8813 55.5443 88.8813C32.0909 88.8813 13.0781 89.9914 13.0781 91.3607C13.0781 92.73 32.0909 93.84 55.5443 93.84Z" fill="#F5F5F5"/>
<path d="M97.6102 69.6488H13.4794L11.9287 68.1814H99.1609L97.6102 69.6488Z" fill="#407BFF"/>
<path opacity="0.5" d="M97.6102 69.6488H13.4794L11.9287 68.1814H99.1609L97.6102 69.6488Z" fill="white"/>
<path d="M90.3955 70.4398H20.6939L19.4082 69.6492H91.6812L90.3955 70.4398Z" fill="#407BFF"/>
<path opacity="0.5" d="M90.3955 70.4398H20.6939L19.4082 69.6492H91.6812L90.3955 70.4398Z" fill="black"/>
<path d="M20.1416 91.3602H19.1406L22.2442 70.4392H24.476L20.1416 91.3602Z" fill="#407BFF"/>
<path opacity="0.5" d="M20.1416 91.3602H19.1406L22.2442 70.4392H24.476L20.1416 91.3602Z" fill="black"/>
<path d="M25.5603 91.3602H24.5615L27.6651 70.4392H29.8969L25.5603 91.3602Z" fill="#407BFF"/>
<path opacity="0.5" d="M25.5603 91.3602H24.5615L27.6651 70.4392H29.8969L25.5603 91.3602Z" fill="black"/>
<path d="M90.9477 91.3602H91.9487L88.8451 70.4392H86.6133L90.9477 91.3602Z" fill="#407BFF"/>
<path opacity="0.5" d="M90.9477 91.3602H91.9487L88.8451 70.4392H86.6133L90.9477 91.3602Z" fill="black"/>
<path d="M85.529 91.3602H86.5278L83.4242 70.4392H81.1924L85.529 91.3602Z" fill="#407BFF"/>
<path opacity="0.5" d="M85.529 91.3602H86.5278L83.4242 70.4392H81.1924L85.529 91.3602Z" fill="black"/>
<path d="M49.911 21.0324L52.7385 21.2229C52.8482 21.2297 52.9539 21.2663 53.0443 21.3289C53.1346 21.3914 53.2061 21.4775 53.251 21.5777L53.5489 22.2348C53.6135 22.3767 53.7305 22.4881 53.8753 22.5458C54.2299 22.6916 54.5739 22.8621 54.9047 23.0561C55.0367 23.1337 55.1931 23.1588 55.3427 23.1262L56.0523 22.9598C56.1593 22.9351 56.2709 22.9398 56.3754 22.9733C56.4798 23.0068 56.5733 23.068 56.6459 23.1503L58.512 25.2836C58.5844 25.3666 58.6328 25.4677 58.6521 25.5761C58.6714 25.6845 58.6608 25.7962 58.6215 25.899L58.363 26.578C58.3085 26.7242 58.3124 26.8858 58.374 27.0292C58.5221 27.3852 58.645 27.7511 58.7419 28.1243C58.7794 28.2755 58.8745 28.406 59.007 28.4879L59.6246 28.8712C59.7181 28.9288 59.794 29.0109 59.8442 29.1086C59.8944 29.2062 59.9169 29.3157 59.9093 29.4253L59.721 32.2551C59.7139 32.3646 59.6768 32.4702 59.6138 32.5602C59.5509 32.6501 59.4645 32.7211 59.364 32.7654L58.7069 33.0632C58.5659 33.1291 58.4549 33.2456 58.3959 33.3896C58.2517 33.7446 58.0819 34.0887 57.8878 34.419C57.8095 34.5508 57.7844 34.7074 57.8177 34.857L57.9819 35.5645C58.0073 35.6714 58.003 35.7832 57.9694 35.8878C57.9358 35.9924 57.8743 36.0859 57.7914 36.158L55.6581 38.0241C55.5756 38.0965 55.4748 38.145 55.3667 38.1643C55.2586 38.1836 55.1473 38.173 55.0448 38.1336L54.3637 37.8752C54.2194 37.8182 54.0589 37.8182 53.9147 37.8752C53.5584 38.0226 53.1926 38.1455 52.8196 38.2431C52.6688 38.2814 52.5386 38.3763 52.456 38.5081L52.0727 39.1258C52.0145 39.2192 51.932 39.2951 51.834 39.3453C51.736 39.3954 51.6262 39.418 51.5164 39.4105L48.6888 39.2222C48.5793 39.2149 48.4738 39.1781 48.3835 39.1156C48.2933 39.0531 48.2216 38.9673 48.1763 38.8673L47.8784 38.2103C47.8138 38.0684 47.6969 37.957 47.5521 37.8993C47.1974 37.7535 46.8534 37.583 46.5227 37.3889C46.3908 37.3111 46.2343 37.2861 46.0846 37.3188L45.3772 37.4853C45.2703 37.5105 45.1585 37.506 45.054 37.4724C44.9494 37.4389 44.8559 37.3774 44.7836 37.2948L42.9154 35.1615C42.8434 35.0783 42.7953 34.9771 42.776 34.8688C42.7567 34.7605 42.767 34.649 42.8059 34.546L43.0643 33.8671C43.1189 33.7216 43.115 33.5607 43.0534 33.4181C42.9057 33.0619 42.7828 32.696 42.6854 32.323C42.648 32.1718 42.5529 32.0413 42.4204 31.9594L41.8028 31.5761C41.7093 31.5184 41.6334 31.4364 41.5832 31.3387C41.533 31.241 41.5105 31.1315 41.518 31.022L41.7064 28.1922C41.7141 28.0825 41.7513 27.9769 41.8142 27.8867C41.877 27.7964 41.9631 27.7249 42.0634 27.6797L42.7205 27.384C42.8623 27.3194 42.9738 27.2025 43.0315 27.0577C43.1772 26.7023 43.3478 26.3576 43.5418 26.0261C43.62 25.8943 43.6457 25.7379 43.6141 25.588L43.4476 24.8806C43.4225 24.7737 43.4269 24.6619 43.4605 24.5573C43.4941 24.4528 43.5555 24.3593 43.6382 24.287L45.7714 22.421C45.8539 22.3484 45.9545 22.2996 46.0626 22.28C46.1706 22.2603 46.282 22.2704 46.3847 22.3093L47.0659 22.5677C47.2099 22.6258 47.3708 22.6258 47.5149 22.5677C47.8707 22.4193 48.2367 22.2963 48.61 22.1997C48.7599 22.161 48.8897 22.0671 48.9735 21.9369L49.3568 21.3193C49.4147 21.2259 49.4968 21.1499 49.5943 21.0994C49.6919 21.0489 49.8013 21.0257 49.911 21.0324ZM45.3662 29.8743C45.2954 30.9329 45.54 31.9887 46.0693 32.9083C46.5985 33.8278 47.3886 34.5698 48.3396 35.0402C49.2905 35.5107 50.3596 35.6886 51.4117 35.5514C52.4638 35.4142 53.4515 34.9681 54.25 34.2695C55.0485 33.5709 55.6219 32.6512 55.8977 31.6267C56.1734 30.6021 56.1391 29.5189 55.7991 28.5138C55.4592 27.5088 54.8288 26.6272 53.9877 25.9804C53.1466 25.3337 52.1326 24.951 51.074 24.8806C49.6551 24.7868 48.257 25.2601 47.1868 26.1964C46.1166 27.1327 45.4618 28.4555 45.3662 29.8743Z" fill="#407BFF"/>
<path d="M61.1179 32.9867L62.0882 32.6582C62.1395 32.6413 62.1944 32.6385 62.2472 32.6501C62.3 32.6616 62.3487 32.6871 62.3883 32.7239L62.5482 32.8772C62.6042 32.9274 62.6766 32.9554 62.7519 32.956C62.8852 32.9559 63.0183 32.9647 63.1505 32.9823C63.1886 32.9885 63.2277 32.9871 63.2653 32.9781C63.3029 32.969 63.3383 32.9526 63.3695 32.9298L63.5491 32.8005C63.5934 32.7694 63.6452 32.7508 63.6991 32.7466C63.753 32.7423 63.8071 32.7526 63.8557 32.7764L64.7734 33.232C64.8217 33.2557 64.8627 33.292 64.892 33.3372C64.9213 33.3823 64.9379 33.4345 64.9399 33.4883V33.7073C64.9428 33.7831 64.974 33.855 65.0275 33.9088C65.122 34.0026 65.2098 34.1028 65.2903 34.2088C65.3362 34.2685 65.4025 34.3091 65.4765 34.3227L65.6955 34.3578C65.7487 34.3667 65.7985 34.3899 65.8394 34.4251C65.8803 34.4602 65.9108 34.5059 65.9277 34.5571L66.2562 35.5274C66.2741 35.5784 66.2776 35.6334 66.2664 35.6863C66.2552 35.7392 66.2297 35.788 66.1927 35.8274L66.0394 35.9873C65.9888 36.0431 65.9607 36.1157 65.9605 36.191C65.9606 36.3243 65.9518 36.4575 65.9342 36.5896C65.9278 36.6276 65.929 36.6666 65.9376 36.7041C65.9463 36.7417 65.9622 36.7772 65.9846 36.8086L66.1138 36.9882C66.1458 37.0317 66.1651 37.0831 66.1697 37.1368C66.1744 37.1905 66.1641 37.2444 66.1401 37.2927L65.6846 38.2126C65.6609 38.2609 65.6245 38.3019 65.5794 38.3312C65.5343 38.3605 65.4821 38.377 65.4283 38.379H65.2093C65.134 38.3814 65.0626 38.4128 65.01 38.4666C64.9146 38.5594 64.8144 38.6471 64.7099 38.7295C64.6502 38.7753 64.6097 38.8416 64.596 38.9156L64.561 39.1347C64.5521 39.1878 64.5288 39.2376 64.4937 39.2785C64.4586 39.3194 64.4129 39.35 64.3617 39.3668L63.3914 39.6954C63.3402 39.7129 63.2851 39.7161 63.2322 39.7045C63.1793 39.6929 63.1305 39.667 63.0913 39.6296L62.9293 39.4785C62.8743 39.4266 62.8012 39.3983 62.7256 39.3997C62.593 39.3997 62.4606 39.3909 62.3291 39.3734C62.2911 39.3669 62.2522 39.368 62.2146 39.3766C62.177 39.3853 62.1415 39.4013 62.1101 39.4238L61.9305 39.553C61.8866 39.5849 61.8349 39.6042 61.7809 39.6088C61.7268 39.6134 61.6726 39.6032 61.6239 39.5793L60.7062 39.1237C60.6576 39.0998 60.6164 39.0632 60.587 39.0176C60.5577 38.9721 60.5414 38.9194 60.5397 38.8653V38.6462C60.5363 38.5712 60.5051 38.5002 60.4521 38.4469C60.3582 38.3526 60.2704 38.2524 60.1893 38.1469C60.1673 38.1166 60.1395 38.0909 60.1076 38.0714C60.0756 38.0518 60.0401 38.0388 60.0031 38.033L59.7841 37.9979C59.7309 37.9883 59.6813 37.9648 59.6401 37.9298C59.599 37.8948 59.5678 37.8495 59.5497 37.7986L59.2212 36.8262C59.2043 36.7752 59.2015 36.7206 59.213 36.6682C59.2246 36.6157 59.2501 36.5674 59.2869 36.5283L59.4402 36.3684C59.491 36.3118 59.519 36.2385 59.5191 36.1625C59.519 36.0292 59.5278 35.896 59.5454 35.7639C59.5574 35.6868 59.5385 35.6081 59.4928 35.5449L59.3658 35.3653C59.3339 35.3218 59.3145 35.2705 59.3099 35.2168C59.3052 35.163 59.3155 35.1091 59.3395 35.0608L59.7951 34.1409C59.8185 34.0926 59.8548 34.0517 59.9 34.0227C59.9452 33.9937 59.9976 33.9778 60.0513 33.9767H60.2703C60.3461 33.9738 60.418 33.9425 60.4718 33.8891C60.5661 33.7951 60.6663 33.7073 60.7719 33.6262C60.8316 33.5804 60.8721 33.5141 60.8858 33.4401L60.9208 33.2211C60.9292 33.1677 60.9519 33.1177 60.9867 33.0764C61.0214 33.0351 61.0668 33.004 61.1179 32.9867ZM61.6984 36.5305C61.7681 36.7354 61.8969 36.915 62.0687 37.0467C62.2404 37.1784 62.4473 37.2563 62.6633 37.2705C62.8792 37.2846 63.0946 37.2345 63.2821 37.1264C63.4695 37.0183 63.6208 36.8571 63.7167 36.6631C63.8127 36.4691 63.849 36.251 63.8211 36.0364C63.7931 35.8218 63.7022 35.6203 63.5599 35.4573C63.4175 35.2943 63.23 35.1771 63.0211 35.1206C62.8122 35.0641 62.5912 35.0707 62.3861 35.1397C62.2495 35.1856 62.1232 35.2581 62.0147 35.3529C61.9061 35.4477 61.8173 35.5631 61.7534 35.6923C61.6895 35.8215 61.6518 35.9621 61.6423 36.1059C61.6329 36.2497 61.6519 36.394 61.6984 36.5305Z" fill="#407BFF"/>
<path opacity="0.5" d="M61.1179 32.9867L62.0882 32.6582C62.1395 32.6413 62.1944 32.6385 62.2472 32.6501C62.3 32.6616 62.3487 32.6871 62.3883 32.7239L62.5482 32.8772C62.6042 32.9274 62.6766 32.9554 62.7519 32.956C62.8852 32.9559 63.0183 32.9647 63.1505 32.9823C63.1886 32.9885 63.2277 32.9871 63.2653 32.9781C63.3029 32.969 63.3383 32.9526 63.3695 32.9298L63.5491 32.8005C63.5934 32.7694 63.6452 32.7508 63.6991 32.7466C63.753 32.7423 63.8071 32.7526 63.8557 32.7764L64.7734 33.232C64.8217 33.2557 64.8627 33.292 64.892 33.3372C64.9213 33.3823 64.9379 33.4345 64.9399 33.4883V33.7073C64.9428 33.7831 64.974 33.855 65.0275 33.9088C65.122 34.0026 65.2098 34.1028 65.2903 34.2088C65.3362 34.2685 65.4025 34.3091 65.4765 34.3227L65.6955 34.3578C65.7487 34.3667 65.7985 34.3899 65.8394 34.4251C65.8803 34.4602 65.9108 34.5059 65.9277 34.5571L66.2562 35.5274C66.2741 35.5784 66.2776 35.6334 66.2664 35.6863C66.2552 35.7392 66.2297 35.788 66.1927 35.8274L66.0394 35.9873C65.9888 36.0431 65.9607 36.1157 65.9605 36.191C65.9606 36.3243 65.9518 36.4575 65.9342 36.5896C65.9278 36.6276 65.929 36.6666 65.9376 36.7041C65.9463 36.7417 65.9622 36.7772 65.9846 36.8086L66.1138 36.9882C66.1458 37.0317 66.1651 37.0831 66.1697 37.1368C66.1744 37.1905 66.1641 37.2444 66.1401 37.2927L65.6846 38.2126C65.6609 38.2609 65.6245 38.3019 65.5794 38.3312C65.5343 38.3605 65.4821 38.377 65.4283 38.379H65.2093C65.134 38.3814 65.0626 38.4128 65.01 38.4666C64.9146 38.5594 64.8144 38.6471 64.7099 38.7295C64.6502 38.7753 64.6097 38.8416 64.596 38.9156L64.561 39.1347C64.5521 39.1878 64.5288 39.2376 64.4937 39.2785C64.4586 39.3194 64.4129 39.35 64.3617 39.3668L63.3914 39.6954C63.3402 39.7129 63.2851 39.7161 63.2322 39.7045C63.1793 39.6929 63.1305 39.667 63.0913 39.6296L62.9293 39.4785C62.8743 39.4266 62.8012 39.3983 62.7256 39.3997C62.593 39.3997 62.4606 39.3909 62.3291 39.3734C62.2911 39.3669 62.2522 39.368 62.2146 39.3766C62.177 39.3853 62.1415 39.4013 62.1101 39.4238L61.9305 39.553C61.8866 39.5849 61.8349 39.6042 61.7809 39.6088C61.7268 39.6134 61.6726 39.6032 61.6239 39.5793L60.7062 39.1237C60.6576 39.0998 60.6164 39.0632 60.587 39.0176C60.5577 38.9721 60.5414 38.9194 60.5397 38.8653V38.6462C60.5363 38.5712 60.5051 38.5002 60.4521 38.4469C60.3582 38.3526 60.2704 38.2524 60.1893 38.1469C60.1673 38.1166 60.1395 38.0909 60.1076 38.0714C60.0756 38.0518 60.0401 38.0388 60.0031 38.033L59.7841 37.9979C59.7309 37.9883 59.6813 37.9648 59.6401 37.9298C59.599 37.8948 59.5678 37.8495 59.5497 37.7986L59.2212 36.8262C59.2043 36.7752 59.2015 36.7206 59.213 36.6682C59.2246 36.6157 59.2501 36.5674 59.2869 36.5283L59.4402 36.3684C59.491 36.3118 59.519 36.2385 59.5191 36.1625C59.519 36.0292 59.5278 35.896 59.5454 35.7639C59.5574 35.6868 59.5385 35.6081 59.4928 35.5449L59.3658 35.3653C59.3339 35.3218 59.3145 35.2705 59.3099 35.2168C59.3052 35.163 59.3155 35.1091 59.3395 35.0608L59.7951 34.1409C59.8185 34.0926 59.8548 34.0517 59.9 34.0227C59.9452 33.9937 59.9976 33.9778 60.0513 33.9767H60.2703C60.3461 33.9738 60.418 33.9425 60.4718 33.8891C60.5661 33.7951 60.6663 33.7073 60.7719 33.6262C60.8316 33.5804 60.8721 33.5141 60.8858 33.4401L60.9208 33.2211C60.9292 33.1677 60.9519 33.1177 60.9867 33.0764C61.0214 33.0351 61.0668 33.004 61.1179 32.9867ZM61.6984 36.5305C61.7681 36.7354 61.8969 36.915 62.0687 37.0467C62.2404 37.1784 62.4473 37.2563 62.6633 37.2705C62.8792 37.2846 63.0946 37.2345 63.2821 37.1264C63.4695 37.0183 63.6208 36.8571 63.7167 36.6631C63.8127 36.4691 63.849 36.251 63.8211 36.0364C63.7931 35.8218 63.7022 35.6203 63.5599 35.4573C63.4175 35.2943 63.23 35.1771 63.0211 35.1206C62.8122 35.0641 62.5912 35.0707 62.3861 35.1397C62.2495 35.1856 62.1232 35.2581 62.0147 35.3529C61.9061 35.4477 61.8173 35.5631 61.7534 35.6923C61.6895 35.8215 61.6518 35.9621 61.6423 36.1059C61.6329 36.2497 61.6519 36.394 61.6984 36.5305Z" fill="white"/>
<path d="M55.5227 43.5037L56.7273 41.4165C56.7719 41.3388 56.7955 41.2509 56.7957 41.1613C56.7959 41.0718 56.7728 40.9837 56.7285 40.9059C56.6843 40.828 56.6205 40.7631 56.5435 40.7174C56.4664 40.6717 56.3788 40.647 56.2893 40.6455H53.8801C53.7903 40.6463 53.7023 40.6707 53.6248 40.7162C53.5474 40.7617 53.4833 40.8267 53.439 40.9048C53.3946 40.9829 53.3715 41.0713 53.3721 41.161C53.3726 41.2508 53.3967 41.3389 53.442 41.4165L54.6466 43.5037C54.6927 43.5785 54.7572 43.6402 54.8339 43.683C54.9105 43.7257 54.9969 43.7482 55.0847 43.7482C55.1725 43.7482 55.2588 43.7257 55.3355 43.683C55.4122 43.6402 55.4766 43.5785 55.5227 43.5037Z" fill="#407BFF"/>
<path d="M16.0532 67.3075H45.5795C45.6809 67.3078 45.7813 67.2877 45.8748 67.2484C45.9682 67.209 46.0527 67.1512 46.1232 67.0784C46.1938 67.0056 46.2489 66.9193 46.2854 66.8247C46.3218 66.7301 46.3387 66.6291 46.3352 66.5278L45.6365 45.4184C45.627 45.2095 45.538 45.0122 45.3878 44.8669C45.2375 44.7215 45.0374 44.6391 44.8283 44.6365H15.3041C15.2024 44.6358 15.1017 44.6558 15.008 44.6952C14.9143 44.7346 14.8295 44.7926 14.7589 44.8657C14.6882 44.9388 14.6332 45.0254 14.597 45.1205C14.5608 45.2155 14.5443 45.3168 14.5485 45.4184L15.245 66.5278C15.2534 66.7368 15.3422 66.9345 15.4927 67.0797C15.6432 67.2249 15.844 67.3065 16.0532 67.3075Z" fill="#407BFF"/>
<path d="M16.2943 67.3075H45.8207C45.922 67.3078 46.0225 67.2877 46.1159 67.2484C46.2093 67.209 46.2938 67.1512 46.3644 67.0784C46.4349 67.0056 46.4901 66.9193 46.5265 66.8247C46.5629 66.7301 46.5798 66.6291 46.5763 66.5277L45.8776 45.4184C45.8681 45.2095 45.7791 45.0122 45.6289 44.8668C45.4786 44.7215 45.2785 44.6391 45.0694 44.6365H15.5452C15.4437 44.6361 15.3431 44.6563 15.2495 44.6958C15.1559 44.7353 15.0713 44.7933 15.0007 44.8663C14.9301 44.9394 14.875 45.0259 14.8388 45.1208C14.8025 45.2157 14.7858 45.3169 14.7896 45.4184L15.4883 66.5277C15.4967 66.7364 15.5851 66.9338 15.7352 67.0789C15.8853 67.2241 16.0855 67.306 16.2943 67.3075Z" fill="#407BFF"/>
<g opacity="0.6">
<path d="M16.2943 67.3075H45.8207C45.922 67.3078 46.0225 67.2877 46.1159 67.2484C46.2093 67.209 46.2938 67.1512 46.3644 67.0784C46.4349 67.0056 46.4901 66.9193 46.5265 66.8247C46.5629 66.7301 46.5798 66.6291 46.5763 66.5277L45.8776 45.4184C45.8681 45.2095 45.7791 45.0122 45.6289 44.8668C45.4786 44.7215 45.2785 44.6391 45.0694 44.6365H15.5452C15.4437 44.6361 15.3431 44.6563 15.2495 44.6958C15.1559 44.7353 15.0713 44.7933 15.0007 44.8663C14.9301 44.9394 14.875 45.0259 14.8388 45.1208C14.8025 45.2157 14.7858 45.3169 14.7896 45.4184L15.4883 66.5277C15.4967 66.7364 15.5851 66.9338 15.7352 67.0789C15.8853 67.2241 16.0855 67.306 16.2943 67.3075Z" fill="#263238"/>
</g>
<path d="M16.6752 67.2703H52.3342C52.5096 67.2702 52.6814 67.3195 52.8302 67.4124C52.9789 67.5054 53.0985 67.6383 53.1753 67.7959C53.195 67.8371 53.2038 67.8827 53.2011 67.9283C53.1983 67.9739 53.184 68.0181 53.1594 68.0566C53.1349 68.0952 53.101 68.1269 53.0608 68.1487C53.0207 68.1705 52.9756 68.1818 52.93 68.1814H16.0795C16.0336 68.1821 15.9883 68.1712 15.9478 68.1495C15.9074 68.1278 15.8732 68.0962 15.8484 68.0576C15.8236 68.019 15.8091 67.9747 15.8062 67.9289C15.8033 67.8831 15.8122 67.8373 15.832 67.7959C15.9091 67.6381 16.0291 67.5051 16.1782 67.4122C16.3273 67.3192 16.4995 67.2701 16.6752 67.2703Z" fill="#407BFF"/>
<path opacity="0.6" d="M52.3337 67.2703H23.8783C23.7026 67.2701 23.5304 67.3192 23.3813 67.4122C23.2322 67.5051 23.1123 67.6381 23.0351 67.7959C23.0153 67.8373 23.0064 67.8831 23.0093 67.9289C23.0122 67.9747 23.0267 68.019 23.0515 68.0576C23.0763 68.0962 23.1105 68.1278 23.151 68.1495C23.1914 68.1712 23.2367 68.1821 23.2826 68.1814H52.9294C52.9751 68.1818 53.0202 68.1705 53.0603 68.1487C53.1005 68.1269 53.1344 68.0952 53.1589 68.0566C53.1835 68.0181 53.1978 67.9739 53.2006 67.9283C53.2033 67.8827 53.1944 67.8371 53.1747 67.7959C53.0979 67.6383 52.9784 67.5054 52.8296 67.4124C52.6809 67.3195 52.5091 67.2702 52.3337 67.2703Z" fill="#263238"/>
<path opacity="0.3" d="M35.3251 67.8484H42.7281C42.816 67.849 42.9001 67.8843 42.962 67.9467C43.024 68.009 43.0588 68.0934 43.0588 68.1813H34.9922C34.9922 68.093 35.0273 68.0083 35.0897 67.9459C35.1521 67.8835 35.2368 67.8484 35.3251 67.8484Z" fill="white"/>
<path opacity="0.9" d="M45.871 65.7635L45.2139 46.1829C45.21 46.1015 45.1752 46.0247 45.1166 45.9681C45.058 45.9115 44.98 45.8795 44.8985 45.8784H15.7883C15.7481 45.878 15.7083 45.886 15.6714 45.9017C15.6344 45.9174 15.6011 45.9406 15.5736 45.9698C15.546 45.999 15.5248 46.0336 15.5112 46.0714C15.4977 46.1092 15.4921 46.1494 15.4948 46.1894L16.1519 65.77C16.1547 65.8514 16.1889 65.9285 16.2472 65.9852C16.3056 66.042 16.3837 66.074 16.4651 66.0745H45.595C45.6336 66.0722 45.6713 66.0624 45.7061 66.0456C45.7409 66.0287 45.772 66.0052 45.7976 65.9763C45.8232 65.9474 45.8429 65.9137 45.8555 65.8772C45.8681 65.8407 45.8734 65.802 45.871 65.7635Z" fill="white"/>
<path d="M21.8721 66.0679H17.8574L22.4854 45.8784H26.5L21.8721 66.0679Z" fill="white"/>
<path d="M24.4309 66.0679H22.9854L27.6133 45.8784H29.0588L24.4309 66.0679Z" fill="white"/>
<path d="M39.1995 66.0679H37.7539L42.3818 45.8784H43.8252L39.1995 66.0679Z" fill="white"/>
<path opacity="0.4" d="M30.0986 45.2913C30.104 45.3506 30.1312 45.4057 30.1749 45.4462C30.2186 45.4866 30.2757 45.5095 30.3352 45.5103C30.3933 45.5103 30.449 45.4872 30.49 45.4462C30.5311 45.4051 30.5542 45.3494 30.5542 45.2913C30.5498 45.2316 30.5229 45.1759 30.479 45.1352C30.4351 45.0946 30.3775 45.0721 30.3177 45.0723C30.2596 45.0723 30.2039 45.0953 30.1628 45.1364C30.1217 45.1775 30.0986 45.2332 30.0986 45.2913Z" fill="white"/>
<path d="M39.499 43.136C39.8867 43.758 40.305 44.4173 40.7233 45.0524C41.1417 45.6876 41.571 46.3228 42.009 46.9448C42.859 48.1806 43.7781 49.3675 44.7621 50.4995C45.2244 51.0279 45.7259 51.5207 46.2624 51.9735L46.4508 52.1225C46.4919 52.1578 46.5351 52.1907 46.58 52.221C46.6935 52.2957 46.8113 52.3637 46.9326 52.4247C47.2283 52.5686 47.5343 52.6901 47.8481 52.7883C48.1789 52.9 48.5271 53.0073 48.8819 53.0884C49.2367 53.1694 49.6025 53.2636 49.977 53.3402C50.7108 53.4957 51.4773 53.6381 52.2154 53.7651V55.2983C51.7949 55.3596 51.4007 55.3903 50.9911 55.4188C50.5815 55.4472 50.1763 55.4582 49.7646 55.4604C48.9239 55.4632 48.0843 55.3966 47.2546 55.2611C46.8053 55.1829 46.3624 55.0717 45.9295 54.9281C45.6873 54.845 45.4515 54.744 45.2243 54.6259C45.1038 54.5689 44.9768 54.4879 44.8541 54.4069L44.5716 54.2098C43.8744 53.6975 43.2223 53.1267 42.6223 52.5036C41.4922 51.3241 40.4463 50.0668 39.4924 48.7408C39.0179 48.091 38.5609 47.4339 38.1214 46.7696C37.6833 46.095 37.2453 45.4335 36.8379 44.7151L39.499 43.136Z" fill="#FFC3BD"/>
<path d="M35.8133 43.561C35.5942 45.484 40.1784 50.0791 40.1784 50.0791L43.2797 47.4903C42.3709 45.9523 41.365 44.4739 40.2682 43.0638C38.5051 40.8802 36.052 41.3861 35.8133 43.561Z" fill="#407BFF"/>
<path opacity="0.3" d="M38.3191 44.9256C37.0947 43.6114 36.5099 43.272 35.8047 43.7954C35.8989 45.8258 40.1851 50.0748 40.1851 50.0748C40.4655 47.8955 39.355 46.4938 38.3191 44.9256Z" fill="black"/>
<path d="M43.0277 46.603L43.3541 47.5492L39.8848 50.3965L39.1992 49.6847L43.0277 46.603Z" fill="#407BFF"/>
<path opacity="0.3" d="M43.0277 46.603L43.3541 47.5492L39.8848 50.3965L39.1992 49.6847L43.0277 46.603Z" fill="#263238"/>
<path d="M52.0516 53.7346L54.4608 54.1486L53.1357 56.2643C52.8203 56.3147 51.5632 55.6335 51.0068 54.7881L52.0516 53.7346Z" fill="#FFC3BD"/>
<path d="M55.9395 55.5765L54.978 56.6672L53.1338 56.2532L54.4567 54.1484L55.9395 55.5765Z" fill="#FFC3BD"/>
<path d="M38.3083 41.7189C38.3083 41.7189 40.9366 47.8997 39.0442 59.4115H28.0931C27.9595 57.7316 28.7305 49.5336 26.8359 41.6138C28.0415 41.3799 29.2612 41.2255 30.487 41.1516C32.0371 41.0618 33.5912 41.0618 35.1413 41.1516C36.21 41.2588 37.2688 41.4485 38.3083 41.7189Z" fill="#407BFF"/>
<path opacity="0.3" d="M29.2815 43.561C29.5006 44.8751 29.2071 47.9809 28.09 51.586C28.0045 48.4939 27.6446 45.4155 27.0146 42.387V42.3717C27.7287 42.3126 29.0647 42.3476 29.2815 43.561Z" fill="black"/>
<path d="M30.7645 35.9109C31.1105 37.409 31.4982 40.1533 30.4863 41.1521C30.4863 41.1521 30.9244 42.3918 33.706 42.3918C36.7723 42.3918 35.1405 41.1521 35.1405 41.1521C33.4563 40.7535 33.4563 39.5138 33.706 38.3508L30.7645 35.9109Z" fill="#FFC3BD"/>
<path d="M33.8942 42.5074L34.5512 43.2017C34.5712 43.2222 34.5844 43.2483 34.5891 43.2765C34.5938 43.3046 34.5897 43.3336 34.5775 43.3594L34.249 44.045C34.2384 44.0683 34.2216 44.0883 34.2003 44.1026C34.179 44.1169 34.1542 44.125 34.1285 44.126L33.6313 44.1501C33.6077 44.1511 33.5842 44.1459 33.5631 44.1352C33.542 44.1245 33.524 44.1085 33.5109 44.0888L33.0509 43.4317C33.0325 43.4071 33.0225 43.3771 33.0225 43.3463C33.0225 43.3155 33.0325 43.2855 33.0509 43.2609L33.6817 42.514C33.6942 42.498 33.71 42.4849 33.7281 42.4757C33.7462 42.4665 33.7661 42.4614 33.7864 42.4608C33.8067 42.4601 33.8269 42.464 33.8455 42.4721C33.8641 42.4801 33.8807 42.4922 33.8942 42.5074Z" fill="white"/>
<path d="M33.7877 42.3913C33.4716 42.8999 33.2885 43.4799 33.2555 44.0778C33.2555 44.0778 29.7007 42.8622 29.8628 41.0838C30.1785 40.9307 30.4823 40.7543 30.7717 40.5559C30.7717 40.5559 30.8878 41.6795 33.7877 42.3913Z" fill="#263238"/>
<path d="M33.7871 42.3914C34.1033 42.8736 34.331 43.4084 34.4595 43.9705C34.4595 43.9705 36.1066 42.8426 35.6378 41.0838L34.6698 40.8757C34.6698 40.8757 34.8735 42.0103 33.7871 42.3914Z" fill="#263238"/>
<path d="M34.1905 44.052C34.4095 44.7791 36.0609 50.1715 36.1025 51.4615C36.1036 51.4724 36.1036 51.4834 36.1025 51.4944C35.9492 52.1887 35.2615 53.4064 34.9812 53.8839C34.9704 53.9028 34.9545 53.9182 34.9354 53.9285C34.9163 53.9388 34.8947 53.9436 34.873 53.9422C34.8513 53.9408 34.8305 53.9334 34.8128 53.9208C34.7952 53.9082 34.7814 53.8908 34.7731 53.8708C34.5803 53.3999 34.116 52.2719 33.8094 51.6126C33.8037 51.6001 33.8 51.5868 33.7984 51.5732C33.6539 49.2187 33.6145 45.5567 33.5422 44.0936C33.5413 44.0778 33.5436 44.062 33.5491 44.0472C33.5545 44.0323 33.5629 44.0187 33.5738 44.0072C33.5846 43.9958 33.5977 43.9866 33.6123 43.9804C33.6268 43.9741 33.6424 43.9709 33.6583 43.9709H34.081C34.1054 43.9712 34.1292 43.9792 34.1489 43.9937C34.1685 44.0083 34.1831 44.0287 34.1905 44.052Z" fill="white"/>
<path opacity="0.2" d="M31.965 36.905L33.7062 38.3484C33.6432 38.6197 33.6044 38.896 33.5901 39.1741C32.9484 39.0821 32.057 38.3834 31.9584 37.7154C31.9102 37.4472 31.9124 37.1724 31.965 36.905Z" fill="black"/>
<path d="M35.0534 31.4584C35.4673 31.7672 36.1747 33.0726 35.2724 33.4143C34.37 33.756 34.0393 30.7006 35.0534 31.4584Z" fill="#263238"/>
<path d="M30.2256 34.1147C30.6396 36.11 30.7819 37.2949 31.9493 38.2126C32.3255 38.5156 32.7774 38.7098 33.256 38.7744C33.7347 38.839 34.2219 38.7714 34.6649 38.579C35.1079 38.3866 35.4899 38.0767 35.7694 37.6828C36.049 37.2889 36.2155 36.8261 36.2509 36.3444C36.4217 34.4936 35.7121 31.5434 33.6226 30.9608C33.1737 30.8233 32.6966 30.8061 32.239 30.9111C31.7813 31.016 31.3594 31.2394 31.0153 31.5589C30.6712 31.8783 30.4171 32.2826 30.2786 32.7312C30.14 33.1797 30.1217 33.6569 30.2256 34.1147Z" fill="#FFC3BD"/>
<path d="M30.4869 35.617L31.3236 35.0585L31.3783 34.5722C31.4552 33.8672 31.3235 33.1552 30.9994 32.5244C30.9994 32.5244 35.0667 32.6755 35.5704 31.403C36.0742 30.1305 34.6418 29.1733 34.6418 29.1733C34.6418 29.1733 33.2028 29.9991 32.2325 30.0648C31.2623 30.1305 28.2901 28.9171 28.2901 31.4293C26.976 31.8345 27.0198 33.9962 30.4803 35.617" fill="#263238"/>
<path d="M28.4362 31.5279C28.4362 31.5279 27.8974 31.1008 28.2982 29.7954C27.8054 30.0407 27.5688 31.3746 28.4362 31.5279Z" fill="#263238"/>
<path d="M29.6364 36.4296C29.9678 36.8257 30.4378 37.0803 30.9506 37.1414C31.6295 37.2137 31.8267 36.5873 31.5332 36.0113C31.2616 35.4944 30.5826 34.8329 29.9562 35.0278C29.3298 35.2228 29.2313 35.9368 29.6364 36.4296Z" fill="#FFC3BD"/>
<path d="M39.9682 66.0675H32.9705C32.3419 62.2696 31.8359 59.4114 31.8359 59.4114H39.044C39.044 59.4114 39.4492 62.2214 39.9682 66.0675Z" fill="#263238"/>
<path d="M28.36 66.0675C28.2023 62.2696 28.084 59.4114 28.084 59.4114H35.1496C35.1496 59.4114 35.1847 62.3047 35.2 66.0675H28.36Z" fill="#263238"/>
<path d="M33.3642 34.3405C33.3883 34.5047 33.4935 34.6274 33.6008 34.6164C33.7081 34.6055 33.776 34.4609 33.7519 34.2989C33.7278 34.1368 33.6227 34.0119 33.5154 34.0229C33.408 34.0338 33.3401 34.1762 33.3642 34.3405Z" fill="#263238"/>
<path d="M35.2197 34.143C35.2438 34.3072 35.3489 34.4299 35.4562 34.4167C35.5636 34.4036 35.6315 34.2634 35.6074 34.1013C35.5833 33.9393 35.4781 33.8144 35.3708 33.8254C35.2635 33.8363 35.1956 33.9721 35.2197 34.143Z" fill="#263238"/>
<path d="M34.6416 34.2832C34.9104 34.763 35.2419 35.2049 35.6272 35.5973C35.3775 35.8996 34.865 35.8295 34.865 35.8295L34.6416 34.2832Z" fill="#ED847E"/>
<path d="M34.1119 36.3335C34.2247 36.3455 34.3385 36.3455 34.4514 36.3335C34.4577 36.3329 34.4639 36.3311 34.4695 36.3282C34.4752 36.3253 34.4802 36.3212 34.4842 36.3163C34.4883 36.3114 34.4914 36.3058 34.4933 36.2997C34.4951 36.2936 34.4958 36.2873 34.4952 36.2809C34.4935 36.2679 34.4869 36.2561 34.4767 36.2479C34.4665 36.2398 34.4535 36.2359 34.4404 36.2371C34.2341 36.2634 34.0245 36.2419 33.8278 36.1743C33.6311 36.1067 33.4525 35.9948 33.3059 35.8473C33.3017 35.8424 33.2966 35.8383 33.2909 35.8354C33.2852 35.8325 33.2789 35.8307 33.2725 35.8302C33.2661 35.8297 33.2597 35.8305 33.2536 35.8325C33.2475 35.8344 33.2418 35.8376 33.2369 35.8418C33.232 35.846 33.228 35.851 33.2251 35.8568C33.2222 35.8625 33.2204 35.8687 33.2199 35.8751C33.2194 35.8816 33.2201 35.888 33.2221 35.8941C33.2241 35.9002 33.2273 35.9059 33.2314 35.9108C33.4652 36.152 33.7774 36.3019 34.1119 36.3335Z" fill="#263238"/>
<path d="M32.6942 33.8057C32.7129 33.808 32.7319 33.8047 32.7487 33.7961C32.7655 33.7875 32.7793 33.7741 32.7884 33.7575C32.8446 33.6516 32.9259 33.5611 33.0252 33.4939C33.1244 33.4267 33.2387 33.3849 33.3578 33.372C33.3836 33.3703 33.4077 33.3586 33.4249 33.3394C33.4421 33.3201 33.451 33.2949 33.4498 33.2691C33.4493 33.2564 33.4462 33.244 33.4408 33.2325C33.4355 33.2211 33.4279 33.2107 33.4185 33.2022C33.4092 33.1937 33.3982 33.187 33.3863 33.1827C33.3744 33.1784 33.3617 33.1765 33.3491 33.1771C33.1972 33.1922 33.0514 33.2442 32.9243 33.3285C32.7972 33.4129 32.6926 33.5271 32.6197 33.6611C32.6132 33.6723 32.6089 33.6847 32.6073 33.6975C32.6056 33.7103 32.6065 33.7234 32.61 33.7359C32.6135 33.7483 32.6194 33.76 32.6275 33.7701C32.6356 33.7802 32.6456 33.7886 32.657 33.7948C32.6682 33.8016 32.681 33.8054 32.6942 33.8057Z" fill="#263238"/>
<path d="M35.914 33.4138C35.9373 33.4156 35.9604 33.4094 35.9797 33.3963C36.0004 33.3817 36.0147 33.3596 36.0196 33.3347C36.0245 33.3099 36.0196 33.284 36.006 33.2627C35.9228 33.131 35.8099 33.0207 35.6764 32.9404C35.5429 32.8602 35.3925 32.8123 35.2372 32.8005C35.2118 32.8005 35.1874 32.8103 35.169 32.8278C35.1507 32.8454 35.1398 32.8693 35.1387 32.8947C35.1387 32.9205 35.1487 32.9452 35.1668 32.9636C35.1848 32.9821 35.2093 32.9927 35.235 32.9933C35.3587 33.0049 35.478 33.045 35.5836 33.1103C35.6892 33.1757 35.7783 33.2645 35.8439 33.37C35.8519 33.3817 35.8623 33.3917 35.8744 33.3992C35.8864 33.4068 35.8999 33.4117 35.914 33.4138Z" fill="#263238"/>
<path d="M28.9275 44.6911L28.4413 45.5322C28.2777 45.8242 28.1179 46.1162 27.9616 46.4083C27.6462 46.9923 27.344 47.5808 27.0549 48.1736C26.7701 48.7671 26.4986 49.3629 26.2554 49.963C26.1394 50.2609 26.0211 50.5609 25.9203 50.861L25.7648 51.31L25.6356 51.748L25.6028 51.8597L25.5852 51.9167C25.5852 51.9364 25.5852 51.9167 25.5852 51.9298C25.5852 51.943 25.5852 51.9539 25.5699 51.978C25.5609 52.0639 25.5609 52.1505 25.5699 52.2365C25.5974 52.4969 25.6517 52.7538 25.732 53.003C25.9242 53.6028 26.1584 54.1883 26.4328 54.7552C26.987 55.9445 27.6616 57.1447 28.3252 58.3165L27.114 59.2627C26.5971 58.7436 26.1328 58.2158 25.6772 57.6594C25.2217 57.1031 24.8011 56.5249 24.3872 55.9073C23.9655 55.2764 23.5991 54.6103 23.2921 53.9164C23.117 53.5205 22.982 53.1082 22.8891 52.6855C22.8346 52.4298 22.8067 52.1693 22.8058 51.9079C22.8041 51.751 22.8158 51.5942 22.8409 51.4392L22.8584 51.3253L22.8737 51.2552L22.9022 51.1129C23.0441 50.3705 23.2366 49.6388 23.4782 48.9226C23.7104 48.2174 23.982 47.5384 24.2711 46.8682C24.5602 46.198 24.8778 45.5541 25.2173 44.9102C25.3881 44.5926 25.5611 44.2772 25.7429 43.9618C25.9247 43.6464 26.1043 43.3485 26.3211 43.0134L28.9275 44.6911Z" fill="#FFC3BD"/>
<path d="M26.8378 41.614C24.9104 41.8965 22.9238 48.6074 22.9238 48.6074L27.0721 50.9049C27.0721 50.9049 28.752 47.7116 29.5536 45.3418C30.3925 42.858 28.9031 41.3117 26.8378 41.614Z" fill="#407BFF"/>
<path d="M23.0092 47.6611L22.834 48.6467L27.0962 50.9925L27.6634 50.1799L23.0092 47.6611Z" fill="#407BFF"/>
<path opacity="0.3" d="M23.0092 47.6611L22.834 48.6467L27.0962 50.9925L27.6634 50.1799L23.0092 47.6611Z" fill="#263238"/>
<path d="M27.7733 57.8609L29.8102 57.5061L28.7655 59.865C28.7655 59.865 26.9038 59.854 26.9892 58.8947L27.7733 57.8609Z" fill="#FFC3BD"/>
<path d="M31.3316 58.691L30.3723 60.5965L28.7646 59.865L29.8094 57.5061L31.3316 58.691Z" fill="#FFC3BD"/>
<path d="M95.0364 67.3075H65.51C65.4086 67.3078 65.3082 67.2877 65.2148 67.2484C65.1214 67.209 65.0368 67.1512 64.9663 67.0784C64.8957 67.0056 64.8406 66.9193 64.8042 66.8247C64.7678 66.7301 64.7508 66.6291 64.7544 66.5278L65.453 45.4184C65.4625 45.2095 65.5515 45.0122 65.7018 44.8669C65.852 44.7215 66.0522 44.6391 66.2612 44.6365H95.7854C95.8871 44.6358 95.9878 44.6558 96.0815 44.6952C96.1753 44.7346 96.26 44.7926 96.3307 44.8657C96.4013 44.9388 96.4564 45.0254 96.4925 45.1205C96.5287 45.2155 96.5452 45.3168 96.5411 45.4184L95.8446 66.5278C95.8361 66.7368 95.7474 66.9345 95.5968 67.0797C95.4463 67.2249 95.2456 67.3065 95.0364 67.3075Z" fill="#407BFF"/>
<path opacity="0.6" d="M95.0364 67.3075H65.51C65.4086 67.3078 65.3082 67.2877 65.2148 67.2484C65.1214 67.209 65.0368 67.1512 64.9663 67.0784C64.8957 67.0056 64.8406 66.9193 64.8042 66.8247C64.7678 66.7301 64.7508 66.6291 64.7544 66.5278L65.453 45.4184C65.4625 45.2095 65.5515 45.0122 65.7018 44.8669C65.852 44.7215 66.0522 44.6391 66.2612 44.6365H95.7854C95.8871 44.6358 95.9878 44.6558 96.0815 44.6952C96.1753 44.7346 96.26 44.7926 96.3307 44.8657C96.4013 44.9388 96.4564 45.0254 96.4925 45.1205C96.5287 45.2155 96.5452 45.3168 96.5411 45.4184L95.8446 66.5278C95.8361 66.7368 95.7474 66.9345 95.5968 67.0797C95.4463 67.2249 95.2456 67.3065 95.0364 67.3075Z" fill="#263238"/>
<path d="M94.7952 67.3075H65.2688C65.1674 67.3078 65.067 67.2877 64.9736 67.2484C64.8801 67.209 64.7956 67.1512 64.7251 67.0784C64.6545 67.0056 64.5994 66.9193 64.563 66.8247C64.5266 66.7301 64.5096 66.6291 64.5132 66.5277L65.2118 45.4184C65.2213 45.2095 65.3103 45.0122 65.4606 44.8668C65.6108 44.7215 65.811 44.6391 66.02 44.6365H95.5442C95.6458 44.6361 95.7464 44.6563 95.84 44.6958C95.9335 44.7353 96.0182 44.7933 96.0887 44.8663C96.1593 44.9394 96.2144 45.0259 96.2507 45.1208C96.287 45.2157 96.3037 45.3169 96.2998 45.4184L95.6012 66.5277C95.5927 66.7364 95.5043 66.9338 95.3542 67.0789C95.2042 67.2241 95.004 67.306 94.7952 67.3075Z" fill="#407BFF"/>
<path d="M94.4141 67.2703H58.755C58.5797 67.2702 58.4078 67.3195 58.2591 67.4124C58.1104 67.5054 57.9908 67.6383 57.914 67.7959C57.8943 67.8371 57.8854 67.8827 57.8882 67.9283C57.891 67.9739 57.9053 68.0181 57.9298 68.0566C57.9543 68.0952 57.9883 68.1269 58.0284 68.1487C58.0686 68.1705 58.1136 68.1818 58.1593 68.1814H95.0098C95.0557 68.1821 95.101 68.1712 95.1414 68.1495C95.1819 68.1278 95.2161 68.0962 95.2409 68.0576C95.2657 68.019 95.2802 67.9747 95.2831 67.9289C95.2859 67.8831 95.2771 67.8373 95.2573 67.7959C95.1801 67.6381 95.0601 67.5051 94.911 67.4122C94.762 67.3192 94.5897 67.2701 94.4141 67.2703Z" fill="#407BFF"/>
<path opacity="0.6" d="M94.4144 67.2703H88.9389C88.7632 67.2701 88.591 67.3192 88.4419 67.4122C88.2928 67.5051 88.1728 67.6381 88.0956 67.7959C88.0759 67.8373 88.067 67.8831 88.0699 67.9289C88.0727 67.9747 88.0873 68.019 88.112 68.0576C88.1368 68.0962 88.1711 68.1278 88.2115 68.1495C88.252 68.1712 88.2973 68.1821 88.3431 68.1814H94.9992C95.0451 68.1821 95.0904 68.1712 95.1309 68.1495C95.1713 68.1278 95.2055 68.0962 95.2303 68.0576C95.2551 68.019 95.2696 67.9747 95.2725 67.9289C95.2754 67.8831 95.2665 67.8373 95.2467 67.7959C95.1704 67.6397 95.0521 67.5079 94.9051 67.4151C94.7582 67.3222 94.5883 67.2721 94.4144 67.2703Z" fill="#263238"/>
<path opacity="0.2" d="M75.7649 67.8484H68.362C68.2741 67.849 68.1899 67.8843 68.128 67.9467C68.066 68.009 68.0312 68.0934 68.0313 68.1813H76.0978C76.0978 68.093 76.0628 68.0083 76.0003 67.9459C75.9379 67.8835 75.8532 67.8484 75.7649 67.8484Z" fill="black"/>
<path opacity="0.9" d="M65.219 65.7635L65.876 46.1829C65.8799 46.1015 65.9147 46.0247 65.9733 45.9681C66.032 45.9115 66.1099 45.8795 66.1914 45.8784H95.3214C95.3609 45.8781 95.4002 45.8858 95.4366 45.9011C95.4731 45.9165 95.5061 45.9391 95.5336 45.9675C95.561 45.996 95.5824 46.0298 95.5964 46.0668C95.6104 46.1039 95.6166 46.1433 95.6149 46.1829L94.9578 65.7635C94.955 65.8448 94.9208 65.9219 94.8624 65.9787C94.804 66.0354 94.726 66.0674 94.6446 66.0679H65.5146C65.475 66.0682 65.4356 66.0605 65.399 66.0452C65.3625 66.0299 65.3293 66.0073 65.3017 65.9789C65.2741 65.9504 65.2525 65.9167 65.2383 65.8796C65.224 65.8426 65.2175 65.8031 65.219 65.7635Z" fill="white"/>
<path d="M85.9278 66.0679H81.9131L86.541 45.8784H90.5557L85.9278 66.0679Z" fill="white"/>
<path d="M68.4954 66.0679H67.0498L71.6777 45.8784H73.1211L68.4954 66.0679Z" fill="white"/>
<path d="M89.219 66.0679H87.7734L92.4014 45.8784H93.8469L89.219 66.0679Z" fill="white"/>
<path opacity="0.4" d="M80.9907 45.2913C80.9853 45.3506 80.9582 45.4057 80.9145 45.4462C80.8708 45.4866 80.8137 45.5095 80.7542 45.5103C80.6961 45.5103 80.6404 45.4872 80.5993 45.4462C80.5582 45.4051 80.5352 45.3494 80.5352 45.2913C80.5396 45.2316 80.5664 45.1759 80.6103 45.1352C80.6542 45.0946 80.7119 45.0721 80.7717 45.0723C80.8298 45.0723 80.8855 45.0953 80.9266 45.1364C80.9676 45.1775 80.9907 45.2332 80.9907 45.2913Z" fill="black"/>
<path d="M78.8613 35.9109C78.5175 37.409 78.1276 40.1533 79.1417 41.1521C79.1417 41.1521 78.7036 42.3918 75.922 42.3918C72.8557 42.3918 74.4874 41.1521 74.4874 41.1521C76.1717 40.7535 76.1717 39.5138 75.9198 38.3508L78.8613 35.9109Z" fill="#B55B52"/>
<path d="M83.3185 43.0269C83.5375 43.362 83.7171 43.6554 83.8967 43.9752C84.0763 44.295 84.2537 44.606 84.4246 44.9236C84.7619 45.5631 85.0816 46.2136 85.3708 46.8816C85.6599 47.5497 85.9315 48.2308 86.1614 48.9361C86.4038 49.6521 86.597 50.3839 86.7396 51.1263L86.7681 51.2687L86.7813 51.3387L86.801 51.4526C86.8239 51.6078 86.8356 51.7645 86.836 51.9213C86.8329 52.1826 86.8051 52.4429 86.7528 52.6989C86.6591 53.1217 86.5234 53.534 86.3476 53.9298C86.0414 54.6241 85.675 55.2903 85.2525 55.9207C84.8451 56.5318 84.4158 57.11 83.9603 57.6729C83.5085 58.231 83.029 58.7661 82.5235 59.2761L81.3145 58.3299C81.9715 57.1582 82.6527 55.9579 83.2068 54.7686C83.4805 54.2017 83.714 53.6162 83.9055 53.0165C83.9858 52.7672 84.0401 52.5103 84.0676 52.2499C84.0774 52.164 84.0774 52.0773 84.0676 51.9914C84.0676 51.9673 84.0676 51.9454 84.0501 51.9433V51.9301L84.0347 51.8732L84.0019 51.7615L83.8705 51.3234L83.7171 50.8744C83.6142 50.5744 83.4981 50.2743 83.3798 49.9764C83.1367 49.3763 82.8651 48.7806 82.5826 48.187C82.3001 47.5935 81.9891 47.0065 81.6758 46.4217C81.5211 46.1297 81.3612 45.8376 81.1962 45.5456L80.71 44.7068L83.3185 43.0269Z" fill="#B65B52"/>
<path d="M82.7912 41.614C84.7185 41.8965 86.7029 48.6074 86.7029 48.6074L82.5568 50.9049C82.5568 50.9049 80.8747 47.7225 80.0753 45.3418C79.2342 42.858 80.7323 41.3117 82.7912 41.614Z" fill="#263238"/>
<path opacity="0.3" d="M81.5359 45.2915L81.2227 48.1607C81.5359 48.8506 81.8425 49.4748 82.0812 49.9676C82.171 48.8178 82.1688 46.9473 81.5359 45.2915Z" fill="black"/>
<path d="M86.6169 47.6611L86.7943 48.6467L82.5321 50.9925L81.9648 50.1799L86.6169 47.6611Z" fill="#407BFF"/>
<path opacity="0.3" d="M86.6169 47.6611L86.7943 48.6467L82.5321 50.9925L81.9648 50.1799L86.6169 47.6611Z" fill="#263238"/>
<path d="M81.8555 57.8609L79.8164 57.5061L80.8633 59.865C80.8633 59.865 82.7228 59.854 82.6374 58.8947L81.8555 57.8609Z" fill="#B55B52"/>
<path d="M78.2969 58.691L79.254 60.5965L80.8638 59.865L79.8169 57.5061L78.2969 58.691Z" fill="#B55B52"/>
<path d="M71.3137 41.7189C71.3137 41.7189 68.6854 47.8997 70.58 59.4115H81.5311C81.6647 57.7316 80.8915 49.5336 82.7883 41.6138C81.5841 41.3802 80.3659 41.2259 79.1415 41.1516C77.5914 41.0618 76.0374 41.0618 74.4873 41.1516C73.4164 41.2584 72.3553 41.4481 71.3137 41.7189Z" fill="#263238"/>
<path opacity="0.3" d="M70.1425 47.0063C69.9834 48.3914 69.9022 49.7844 69.8994 51.1786C71.3888 50.2084 71.9188 47.9831 72.1291 46.3711L70.1425 47.0063Z" fill="black"/>
<path d="M72.7987 44.7176C72.3804 45.436 71.9576 46.0974 71.5152 46.772C71.0728 47.4466 70.6194 48.1015 70.1441 48.7432C69.1895 50.0692 68.1429 51.3266 67.0121 52.506C66.4123 53.1286 65.761 53.6994 65.065 54.2122L64.7803 54.4093C64.6576 54.4838 64.5306 54.5648 64.4123 54.6283C64.1841 54.746 63.9477 54.8471 63.7049 54.9306C63.272 55.0741 62.8291 55.1854 62.3798 55.2635C61.5501 55.3991 60.7105 55.4658 59.8698 55.4628C59.4602 55.4628 59.0507 55.4628 58.6455 55.4212C58.2403 55.3796 57.8395 55.3621 57.4189 55.3007V53.7676C58.1571 53.6405 58.9236 53.4982 59.6552 53.3427C60.0231 53.266 60.3889 53.1828 60.7503 53.0908C61.1117 52.9988 61.4555 52.9024 61.7841 52.7907C62.098 52.6929 62.4041 52.5714 62.6996 52.4272C62.8209 52.3661 62.9387 52.2981 63.0522 52.2235C63.107 52.1906 63.1398 52.1556 63.1836 52.1249L63.372 51.976C63.9075 51.522 64.4089 51.0293 64.8723 50.502C65.8549 49.3688 66.774 48.1821 67.6254 46.9472C68.0634 46.3252 68.4861 45.69 68.911 45.0549C69.3359 44.4197 69.7455 43.7605 70.1354 43.1384L72.7987 44.7176Z" fill="#B65B52"/>
<path d="M73.8137 43.561C74.0327 45.484 69.7442 50.1492 69.7442 50.1492L66.3516 47.4946C67.2593 45.9565 68.2645 44.478 69.3609 43.0682C71.1219 40.8801 73.5705 41.3861 73.8137 43.561Z" fill="#263238"/>
<path d="M66.6008 46.603L66.2744 47.5492L69.7415 50.3965L70.4293 49.6847L66.6008 46.603Z" fill="#407BFF"/>
<path opacity="0.3" d="M66.6008 46.603L66.2744 47.5492L69.7415 50.3965L70.4293 49.6847L66.6008 46.603Z" fill="#263238"/>
<path d="M57.4196 53.7742L54.9775 53.8092L55.9609 56.0958C56.2632 56.1944 57.6124 55.7147 58.2913 54.9657L57.4196 53.7742Z" fill="#B55B52"/>
<path d="M53.293 54.9942L54.6268 56.6676L55.9607 56.0937L54.9772 53.8093L53.293 54.9942Z" fill="#B55B52"/>
<path d="M73.8002 34.143C73.7761 34.3072 73.671 34.4299 73.5637 34.4167C73.4563 34.4036 73.3885 34.2634 73.4104 34.1013C73.4323 33.9393 73.5418 33.8144 73.6491 33.8254C73.7564 33.8363 73.8243 33.9721 73.8002 34.143Z" fill="#263238"/>
<path d="M73.8462 34.2832C73.5771 34.7634 73.2449 35.2054 72.8584 35.5973C73.1103 35.8996 73.6228 35.8295 73.6228 35.8295L73.8462 34.2832Z" fill="#A02724"/>
<path d="M73.5676 35.4922C73.2018 35.4922 72.8711 34.9644 72.812 34.2898C72.7561 33.9148 72.8471 33.5327 73.066 33.2232C73.1035 33.1779 73.1503 33.1412 73.2032 33.1155C73.2561 33.0898 73.3139 33.0757 73.3727 33.0742C73.7384 33.0742 74.0692 33.5999 74.1283 34.2745C74.1865 34.6496 74.097 35.0327 73.8786 35.3433C73.8407 35.3881 73.7939 35.4246 73.7411 35.4502C73.6882 35.4759 73.6306 35.4902 73.572 35.4922H73.5676ZM73.3705 33.1837C73.3282 33.1861 73.2869 33.1973 73.2492 33.2165C73.2115 33.2357 73.1782 33.2626 73.1515 33.2954C72.9557 33.5841 72.8774 33.9366 72.9324 34.281C72.985 34.879 73.2807 35.3761 73.5895 35.3761C73.6319 35.3734 73.6733 35.3618 73.711 35.3422C73.7487 35.3226 73.7819 35.2954 73.8085 35.2623C74.0053 34.9748 74.0838 34.6226 74.0275 34.2788C73.964 33.6875 73.6683 33.1837 73.3705 33.1837Z" fill="#263238"/>
<path d="M74.3808 33.4138C74.4034 33.4156 74.4259 33.4094 74.4443 33.3963C74.455 33.3894 74.4642 33.3805 74.4714 33.37C74.4786 33.3596 74.4837 33.3478 74.4863 33.3354C74.489 33.323 74.4891 33.3102 74.4868 33.2977C74.4845 33.2852 74.4797 33.2733 74.4728 33.2627C74.3896 33.131 74.2767 33.0207 74.1432 32.9404C74.0097 32.8602 73.8593 32.8123 73.704 32.8005C73.6786 32.8005 73.6542 32.8103 73.6358 32.8278C73.6175 32.8454 73.6066 32.8693 73.6055 32.8947C73.6055 32.9205 73.6155 32.9452 73.6336 32.9636C73.6516 32.9821 73.6761 32.9927 73.7018 32.9933C73.8255 33.0049 73.9448 33.045 74.0504 33.1103C74.156 33.1757 74.2451 33.2645 74.3107 33.37C74.3187 33.3817 74.3291 33.3917 74.3412 33.3992C74.3532 33.4068 74.3667 33.4117 74.3808 33.4138Z" fill="#263238"/>
<path d="M79.4023 34.1149C78.9862 36.1102 78.846 37.2952 77.6764 38.2129C77.3002 38.5152 76.8485 38.7089 76.3702 38.7732C75.8919 38.8374 75.4051 38.7697 74.9624 38.5773C74.5198 38.385 74.1381 38.0753 73.8587 37.6818C73.5793 37.2883 73.4127 36.8259 73.377 36.3446C73.2062 34.4939 73.9136 31.5436 76.0053 30.961C76.4541 30.8242 76.931 30.8075 77.3883 30.9128C77.8456 31.018 78.2673 31.2414 78.6112 31.5607C78.955 31.88 79.2091 32.2839 79.3479 32.7321C79.4868 33.1804 79.5055 33.6572 79.4023 34.1149Z" fill="#B55B52"/>
<path d="M82.1226 66.068C82.2253 63.8333 82.0301 61.595 81.5422 59.4119H74.4766C75.0252 61.5877 75.2968 63.8241 75.2848 66.068H82.1226Z" fill="#407BFF"/>
<path opacity="0.3" d="M82.1226 66.068C82.2253 63.8333 82.0301 61.595 81.5422 59.4119H74.4766C75.0252 61.5877 75.2968 63.8241 75.2848 66.068H82.1226Z" fill="white"/>
<path d="M75.0746 34.7153C74.6848 34.5203 74.1986 32.5732 74.3322 31.8811C74.4658 31.189 76.0362 30.4443 77.5803 30.7247C79.1244 31.005 79.788 31.546 80.0881 32.9521C80.3969 34.4108 79.2711 36.8398 78.7148 37.0281C78.385 37.1449 78.0342 37.1901 77.6856 37.1606C77.337 37.1312 76.9987 37.0278 76.6932 36.8573C76.196 36.5529 75.9376 34.3144 75.0746 34.7153Z" fill="#263238"/>
<path d="M74.6651 32.5792C73.9116 32.623 73.1932 31.4227 73.8854 30.3517C74.0841 30.0464 74.3667 29.805 74.6992 29.6562C75.0318 29.5074 75.4001 29.4576 75.7602 29.5129C75.7602 29.5129 75.4448 30.1283 76.4961 29.9991C77.5474 29.8699 79.5055 30.1634 80.1888 30.8993C81.0342 31.806 80.5239 33.5889 79.2514 33.1508C77.9789 32.7128 74.6651 32.5792 74.6651 32.5792Z" fill="#263238"/>
<path d="M74.4641 32.6096C74.3065 32.6021 74.1523 32.5611 74.0118 32.4894C73.8714 32.4176 73.7478 32.3167 73.6493 32.1935C73.4525 31.9582 73.325 31.6728 73.2809 31.3692C73.2368 31.0656 73.2779 30.7557 73.3996 30.4742C73.4024 30.4674 73.4064 30.4612 73.4115 30.456C73.4166 30.4508 73.4227 30.4467 73.4294 30.4439C73.4361 30.441 73.4433 30.4395 73.4506 30.4395C73.4579 30.4394 73.4651 30.4408 73.4719 30.4435C73.4787 30.4462 73.4848 30.4503 73.49 30.4554C73.4952 30.4605 73.4994 30.4666 73.5022 30.4733C73.5051 30.48 73.5065 30.4872 73.5066 30.4945C73.5067 30.5018 73.5053 30.509 73.5026 30.5158C73.387 30.7781 73.3472 31.0676 73.3879 31.3514C73.4285 31.6352 73.5479 31.9019 73.7325 32.1212C73.8339 32.2571 73.9707 32.3624 74.1279 32.4258C74.2851 32.4891 74.4567 32.508 74.624 32.4804C74.6379 32.4776 74.6523 32.4801 74.6644 32.4874C74.6766 32.4947 74.6856 32.5063 74.6897 32.5198C74.6931 32.534 74.6909 32.549 74.6835 32.5617C74.6762 32.5743 74.6643 32.5836 74.6502 32.5877C74.5893 32.6025 74.5268 32.6099 74.4641 32.6096Z" fill="#263238"/>
<path d="M76.3125 34.463C76.3445 34.9803 76.1777 35.4904 75.846 35.8888C75.408 36.4079 74.8232 36.0947 74.6458 35.4705C74.4859 34.9076 74.5231 33.9614 75.1123 33.6701C75.7015 33.3788 76.2665 33.83 76.3125 34.463Z" fill="#B55B52"/>
<path d="M69.6602 66.068H77.5121C77.892 63.8706 77.9855 61.6333 77.7903 59.4119H70.5844C70.5844 59.4119 70.1792 62.2219 69.6602 66.068Z" fill="#407BFF"/>
<path opacity="0.3" d="M69.6602 66.068H77.5121C77.892 63.8706 77.9855 61.6333 77.7903 59.4119H70.5844C70.5844 59.4119 70.1792 62.2219 69.6602 66.068Z" fill="white"/>
</g>
<defs>
<clipPath id="clip0_85_1081">
<rect width="109.511" height="109.511" fill="white" transform="translate(0.789062 0.19458)"/>
</clipPath>
</defs>
</svg>
