<svg width="256" height="256" viewBox="0 0 256 256" fill="none" xmlns="http://www.w3.org/2000/svg">
<path d="M256 195.789H0V195.917H256V195.789Z" fill="#EBEBEB"/>
<path d="M35.0821 200.663H26.8594V200.791H35.0821V200.663Z" fill="#EBEBEB"/>
<path d="M115.031 199.276H87.624V199.404H115.031V199.276Z" fill="#EBEBEB"/>
<path d="M54.1537 205.42H35.5938V205.548H54.1537V205.42Z" fill="#EBEBEB"/>
<path d="M216.233 199.209H194.12V199.337H216.233V199.209Z" fill="#EBEBEB"/>
<path d="M224.036 199.209H220.795V199.337H224.036V199.209Z" fill="#EBEBEB"/>
<path d="M189.895 202.399H162.304V202.527H189.895V202.399Z" fill="#EBEBEB"/>
<path d="M121.344 172.954H22.4819C21.7074 172.952 20.9651 172.644 20.4179 172.096C19.8708 171.547 19.5635 170.805 19.5635 170.03V31.058C19.5702 30.2879 19.8805 29.5516 20.4269 29.009C20.9734 28.4664 21.7118 28.1614 22.4819 28.16H121.344C122.119 28.16 122.863 28.468 123.411 29.0163C123.959 29.5646 124.267 30.3082 124.267 31.0836V170.03C124.267 170.805 123.959 171.549 123.411 172.097C122.863 172.646 122.119 172.954 121.344 172.954ZM22.4819 28.2624C21.7413 28.2638 21.0316 28.5589 20.5085 29.083C19.9853 29.6071 19.6915 30.3174 19.6915 31.058V170.03C19.6915 170.771 19.9853 171.481 20.5085 172.005C21.0316 172.529 21.7413 172.824 22.4819 172.826H121.344C122.085 172.824 122.795 172.529 123.319 172.005C123.843 171.481 124.138 170.771 124.139 170.03V31.058C124.138 30.317 123.843 29.6067 123.319 29.0827C122.795 28.5587 122.085 28.2638 121.344 28.2624H22.4819Z" fill="#EBEBEB"/>
<path d="M232.094 172.954H133.227C132.452 172.952 131.709 172.644 131.161 172.096C130.614 171.548 130.305 170.805 130.304 170.03V31.058C130.312 30.2875 130.623 29.5512 131.17 29.0087C131.718 28.4663 132.457 28.1613 133.227 28.16H232.094C232.864 28.1627 233.601 28.4684 234.146 29.0108C234.691 29.5533 235.001 30.2888 235.008 31.058V170.03C235.008 170.804 234.701 171.546 234.155 172.094C233.609 172.642 232.868 172.951 232.094 172.954ZM133.227 28.2624C132.486 28.2638 131.776 28.5587 131.252 29.0827C130.728 29.6067 130.433 30.317 130.432 31.058V170.03C130.433 170.771 130.728 171.481 131.252 172.005C131.776 172.529 132.486 172.824 133.227 172.826H232.094C232.835 172.824 233.546 172.529 234.07 172.005C234.594 171.481 234.889 170.771 234.89 170.03V31.058C234.889 30.317 234.594 29.6067 234.07 29.0827C233.546 28.5587 232.835 28.2638 232.094 28.2624H133.227Z" fill="#EBEBEB"/>
<path d="M202.931 152.991H199.531V195.789H202.931V152.991Z" fill="#F5F5F5"/>
<path d="M204.411 152.991H201.451V195.789H204.411V152.991Z" fill="#F0F0F0"/>
<path d="M123.633 152.991H120.233V195.789H123.633V152.991Z" fill="#F5F5F5"/>
<path d="M125.113 152.991H122.153V195.789H125.113V152.991Z" fill="#F0F0F0"/>
<path d="M215.819 152.991H212.419V195.789H215.819V152.991Z" fill="#F5F5F5"/>
<path d="M217.298 152.991H214.339V195.789H217.298V152.991Z" fill="#F0F0F0"/>
<path d="M136.52 152.991H133.12V195.789H136.52V152.991Z" fill="#F5F5F5"/>
<path d="M120.238 153.8H217.298V152.177H120.238V153.8Z" fill="#F0F0F0"/>
<path d="M120.233 153.8H135.04V152.177H120.233V153.8Z" fill="#E6E6E6"/>
<path d="M137.999 152.991H135.04V195.789H137.999V152.991Z" fill="#F0F0F0"/>
<path d="M168.776 121.006H159.596V152.177H168.776V121.006Z" fill="#EBEBEB"/>
<path d="M193.669 152.177H163.195L158.592 115.697H189.066L193.669 152.177Z" fill="#E0E0E0"/>
<path d="M195.461 152.177H163.984L159.381 115.697H190.859L195.461 152.177Z" fill="#F0F0F0"/>
<path d="M177.802 152.177H171.694L173.415 115.697H179.523L177.802 152.177Z" fill="#FAFAFA"/>
<path d="M184.801 152.177H178.79L180.51 115.697H186.521L184.801 152.177Z" fill="#FAFAFA"/>
<path d="M220.646 37.1251H141.476V99.072H220.646V37.1251Z" fill="#E6E6E6"/>
<path d="M223.022 37.1251H142.587V99.072H223.022V37.1251Z" fill="#F0F0F0"/>
<path d="M220.646 99.072H141.476V101.146H220.646V99.072Z" fill="#E6E6E6"/>
<path d="M224.287 99.072H143.852V101.146H224.287V99.072Z" fill="#F0F0F0"/>
<path d="M219.699 95.744V40.448L145.915 40.448V95.744H219.699Z" fill="#FAFAFA"/>
<path d="M186.291 95.744L191.616 40.4531H200.832L195.507 95.744H186.291Z" fill="white"/>
<path d="M163.036 95.744L168.361 40.4531H177.577L172.252 95.744H163.036Z" fill="white"/>
<path d="M147.456 77.0048C147.389 77.0035 147.325 76.9759 147.278 76.9281C147.231 76.8802 147.205 76.8158 147.205 76.7488V42.6138C147.205 42.5459 147.232 42.4808 147.28 42.4328C147.328 42.3848 147.393 42.3578 147.461 42.3578C147.529 42.3578 147.594 42.3848 147.642 42.4328C147.69 42.4808 147.717 42.5459 147.717 42.6138V76.7488C147.717 76.7829 147.71 76.8166 147.697 76.848C147.684 76.8794 147.665 76.9078 147.64 76.9317C147.616 76.9555 147.587 76.9743 147.556 76.9868C147.524 76.9994 147.49 77.0055 147.456 77.0048Z" fill="#F0F0F0"/>
<path d="M197.483 95.744L202.808 40.4531H206.402L201.078 95.744H197.483Z" fill="white"/>
<path d="M219.699 95.7491V40.4531H219.279V95.7491H219.699Z" fill="#E6E6E6"/>
<path opacity="0.5" d="M223.811 46.4794H144.64L144.333 41.7434H223.504L223.811 46.4794Z" fill="#E0E0E0"/>
<path opacity="0.5" d="M223.811 54.2669H144.64L144.333 49.5309H223.504L223.811 54.2669Z" fill="#E0E0E0"/>
<path opacity="0.5" d="M223.811 62.0545H144.64L144.333 57.3185H223.504L223.811 62.0545Z" fill="#E0E0E0"/>
<path opacity="0.5" d="M223.811 69.842H144.64L144.333 65.106H223.504L223.811 69.842Z" fill="#E0E0E0"/>
<path opacity="0.5" d="M223.811 77.6243H144.64L144.333 72.8883H223.504L223.811 77.6243Z" fill="#E0E0E0"/>
<path opacity="0.5" d="M223.811 85.4119H144.64L144.333 80.6759H223.504L223.811 85.4119Z" fill="#E0E0E0"/>
<path opacity="0.5" d="M223.811 50.3758H144.64L144.333 45.6398H223.504L223.811 50.3758Z" fill="#E0E0E0"/>
<path opacity="0.5" d="M223.811 58.1581H144.64L144.333 53.4221H223.504L223.811 58.1581Z" fill="#E0E0E0"/>
<path opacity="0.5" d="M223.811 65.9456H144.64L144.333 61.2096H223.504L223.811 65.9456Z" fill="#E0E0E0"/>
<path opacity="0.5" d="M223.811 73.7332H144.64L144.333 68.9972H223.504L223.811 73.7332Z" fill="#E0E0E0"/>
<path opacity="0.5" d="M223.811 81.5207H144.64L144.333 76.7847H223.504L223.811 81.5207Z" fill="#E0E0E0"/>
<path opacity="0.5" d="M223.811 89.3081H144.64L144.333 84.567H223.504L223.811 89.3081Z" fill="#E0E0E0"/>
<path d="M50.7902 67.8707H61.537C62.9 67.8707 64.0049 66.7658 64.0049 65.4029V61.2762C64.0049 59.9132 62.9 58.8083 61.537 58.8083H50.7902C49.4272 58.8083 48.3223 59.9132 48.3223 61.2762V65.4029C48.3223 66.7658 49.4272 67.8707 50.7902 67.8707Z" fill="#F5F5F5"/>
<path d="M50.7902 58.8032H61.537C62.9 58.8032 64.0049 57.6983 64.0049 56.3354V52.2087C64.0049 50.8457 62.9 49.7408 61.537 49.7408H50.7902C49.4272 49.7408 48.3223 50.8457 48.3223 52.2087V56.3354C48.3223 57.6983 49.4272 58.8032 50.7902 58.8032Z" fill="#F5F5F5"/>
<path d="M54.3026 49.7408H58.0248C58.4971 49.7408 58.8799 49.358 58.8799 48.8858V47.4573C58.8799 46.9851 58.4971 46.6023 58.0248 46.6023H54.3026C53.8304 46.6023 53.4476 46.9851 53.4476 47.4573V48.8858C53.4476 49.358 53.8304 49.7408 54.3026 49.7408Z" fill="#E0E0E0"/>
<path d="M50.7902 76.928H61.537C62.9 76.928 64.0049 75.8231 64.0049 74.4601V70.3334C64.0049 68.9705 62.9 67.8656 61.537 67.8656H50.7902C49.4272 67.8656 48.3223 68.9705 48.3223 70.3334V74.4601C48.3223 75.8231 49.4272 76.928 50.7902 76.928Z" fill="#F5F5F5"/>
<path d="M107.786 70.656C107.786 70.656 107.274 76.9536 87.3624 76.9536C67.4507 76.9536 66.9336 70.656 66.9336 70.656H107.786Z" fill="#F0F0F0"/>
<path d="M46.7144 78.208H30.9346V189.942H46.7144V78.208Z" fill="#F0F0F0"/>
<path d="M111.775 189.942H33.9609V195.789H111.775V189.942Z" fill="#F0F0F0"/>
<path d="M46.7148 189.937H114.806L114.806 78.2029L46.7148 78.2029L46.7148 189.937Z" fill="#F5F5F5"/>
<path d="M52.9155 144.276H108.601V117.908H52.9155V144.276Z" fill="#F0F0F0"/>
<path d="M52.9155 176.527H108.601V150.159H52.9155V176.527Z" fill="#F0F0F0"/>
<path d="M52.9155 186.035H108.601V182.016H52.9155V186.035Z" fill="#F0F0F0"/>
<path d="M94.9097 119.997H66.6064C66.0202 119.996 65.4584 119.763 65.0439 119.348C64.6294 118.934 64.3959 118.372 64.3945 117.786C64.3972 117.2 64.6313 116.64 65.0457 116.226C65.46 115.813 66.0211 115.58 66.6064 115.579H94.9097C95.495 115.58 96.0561 115.813 96.4705 116.226C96.8848 116.64 97.1189 117.2 97.1216 117.786C97.1202 118.372 96.8868 118.934 96.4722 119.348C96.0577 119.763 95.4959 119.996 94.9097 119.997Z" fill="#F5F5F5"/>
<path d="M52.9155 112.031H108.601V85.6628H52.9155V112.031Z" fill="#F0F0F0"/>
<path d="M94.9097 87.7517H66.6064C66.0202 87.7503 65.4584 87.5169 65.0439 87.1024C64.6294 86.6878 64.3959 86.126 64.3945 85.5398C64.3959 84.9536 64.6294 84.3918 65.0439 83.9773C65.4584 83.5628 66.0202 83.3294 66.6064 83.328H94.9097C95.4959 83.3294 96.0577 83.5628 96.4722 83.9773C96.8868 84.3918 97.1202 84.9536 97.1216 85.5398C97.1202 86.126 96.8868 86.6878 96.4722 87.1024C96.0577 87.5169 95.4959 87.7503 94.9097 87.7517Z" fill="#F5F5F5"/>
<path d="M94.9097 152.248H66.6064C66.0202 152.247 65.4584 152.014 65.0439 151.599C64.6294 151.185 64.3959 150.623 64.3945 150.037C64.3959 149.45 64.6294 148.889 65.0439 148.474C65.4584 148.06 66.0202 147.826 66.6064 147.825H94.9097C95.4959 147.826 96.0577 148.06 96.4722 148.474C96.8868 148.889 97.1202 149.45 97.1216 150.037C97.1202 150.623 96.8868 151.185 96.4722 151.599C96.0577 152.014 95.4959 152.247 94.9097 152.248Z" fill="#F5F5F5"/>
<path d="M116.905 76.9331H46.71V78.208H116.905V76.9331Z" fill="#F0F0F0"/>
<path d="M28.7334 78.208H46.7148V76.9331H28.7334V78.208Z" fill="#E6E6E6"/>
<path d="M128 218.911C182.826 218.911 227.272 216.316 227.272 213.115C227.272 209.914 182.826 207.319 128 207.319C73.174 207.319 28.7285 209.914 28.7285 213.115C28.7285 216.316 73.174 218.911 128 218.911Z" fill="#F5F5F5"/>
<path d="M226.334 162.36H29.665L26.04 158.93H229.959L226.334 162.36Z" fill="#407BFF"/>
<path opacity="0.5" d="M226.334 162.36H29.665L26.04 158.93H229.959L226.334 162.36Z" fill="white"/>
<path d="M209.469 164.209H46.5299L43.5244 162.36H212.474L209.469 164.209Z" fill="#407BFF"/>
<path opacity="0.5" d="M209.469 164.209H46.5299L43.5244 162.36H212.474L209.469 164.209Z" fill="black"/>
<path d="M45.2402 213.115H42.9004L50.1554 164.209H55.3727L45.2402 213.115Z" fill="#407BFF"/>
<path opacity="0.5" d="M45.2402 213.115H42.9004L50.1554 164.209H55.3727L45.2402 213.115Z" fill="black"/>
<path d="M57.907 213.115H55.5723L62.8273 164.209H68.0446L57.907 213.115Z" fill="#407BFF"/>
<path opacity="0.5" d="M57.907 213.115H55.5723L62.8273 164.209H68.0446L57.907 213.115Z" fill="black"/>
<path d="M210.759 213.115H213.099L205.844 164.209H200.627L210.759 213.115Z" fill="#407BFF"/>
<path opacity="0.5" d="M210.759 213.115H213.099L205.844 164.209H200.627L210.759 213.115Z" fill="black"/>
<path d="M198.093 213.115H200.427L193.172 164.209H187.955L198.093 213.115Z" fill="#407BFF"/>
<path opacity="0.5" d="M198.093 213.115H200.427L193.172 164.209H187.955L198.093 213.115Z" fill="black"/>
<path d="M114.831 48.7117L121.441 49.1571C121.697 49.173 121.945 49.2586 122.156 49.4048C122.367 49.551 122.534 49.7522 122.639 49.9866L123.336 51.5226C123.487 51.8542 123.76 52.1147 124.098 52.2496C124.927 52.5904 125.732 52.989 126.505 53.4426C126.813 53.624 127.179 53.6825 127.529 53.6064L129.188 53.2173C129.438 53.1596 129.699 53.1706 129.943 53.249C130.187 53.3274 130.406 53.4703 130.575 53.6627L134.937 58.6496C135.107 58.8436 135.22 59.08 135.265 59.3335C135.31 59.5869 135.285 59.8479 135.193 60.0883L134.589 61.6755C134.462 62.0173 134.471 62.395 134.615 62.7302C134.961 63.5625 135.248 64.4179 135.475 65.2902C135.563 65.6436 135.785 65.9487 136.095 66.1402L137.538 67.0362C137.757 67.1709 137.934 67.3628 138.052 67.5911C138.169 67.8194 138.222 68.0755 138.204 68.3315L137.764 74.9466C137.747 75.2027 137.66 75.4494 137.513 75.6598C137.366 75.8701 137.164 76.0361 136.929 76.1395L135.393 76.8359C135.064 76.9899 134.804 77.2622 134.666 77.5987C134.329 78.4287 133.932 79.2329 133.478 80.0051C133.295 80.3132 133.237 80.6794 133.314 81.0291L133.698 82.6829C133.758 82.9328 133.748 83.1942 133.669 83.4388C133.591 83.6833 133.447 83.9018 133.253 84.0704L128.266 88.4327C128.073 88.6019 127.838 88.7153 127.585 88.7604C127.332 88.8055 127.072 88.7807 126.832 88.6887L125.24 88.0845C124.903 87.9513 124.528 87.9513 124.191 88.0845C123.358 88.4291 122.502 88.7165 121.631 88.9447C121.278 89.0341 120.974 89.256 120.781 89.5642L119.885 91.008C119.749 91.2265 119.556 91.4039 119.327 91.5211C119.098 91.6384 118.841 91.6911 118.584 91.6736L111.974 91.2333C111.718 91.2164 111.472 91.1303 111.261 90.9842C111.05 90.8381 110.882 90.6376 110.776 90.4039L110.08 88.8679C109.929 88.5362 109.655 88.2757 109.317 88.1408C108.488 87.8 107.684 87.4014 106.911 86.9479C106.602 86.7659 106.236 86.7074 105.887 86.784L104.233 87.1731C103.983 87.2319 103.722 87.2215 103.477 87.1431C103.233 87.0646 103.014 86.921 102.845 86.7277L98.4779 81.7408C98.3097 81.5463 98.1971 81.3099 98.152 81.0567C98.1069 80.8034 98.1311 80.5427 98.2219 80.3021L98.8261 78.7149C98.9537 78.3749 98.9445 77.9987 98.8005 77.6653C98.4553 76.8327 98.1679 75.9774 97.9403 75.1053C97.8528 74.7519 97.6304 74.4468 97.3208 74.2554L95.8769 73.3594C95.6585 73.2246 95.481 73.0327 95.3637 72.8044C95.2463 72.5761 95.1937 72.3201 95.2113 72.064L95.6517 65.449C95.6696 65.1925 95.7567 64.9457 95.9036 64.7348C96.0506 64.5238 96.2519 64.3566 96.4862 64.2509L98.0222 63.5597C98.3539 63.4087 98.6143 63.1353 98.7493 62.7968C99.09 61.966 99.4886 61.1602 99.9422 60.3853C100.125 60.0772 100.185 59.7117 100.111 59.3613L99.7221 57.7075C99.6633 57.4576 99.6737 57.1964 99.7521 56.9519C99.8306 56.7075 99.9742 56.489 100.168 56.32L105.154 51.9578C105.347 51.7881 105.582 51.6742 105.835 51.6282C106.088 51.5822 106.348 51.6058 106.588 51.6966L108.18 52.3008C108.517 52.4366 108.893 52.4366 109.23 52.3008C110.062 51.9539 110.917 51.6665 111.79 51.4406C112.14 51.3501 112.444 51.1307 112.64 50.8262L113.536 49.3824C113.671 49.1642 113.863 48.9866 114.091 48.8685C114.319 48.7504 114.575 48.6962 114.831 48.7117ZM104.207 69.3811C104.041 71.8558 104.613 74.324 105.851 76.4736C107.088 78.6232 108.935 80.3576 111.158 81.4574C113.381 82.5572 115.88 82.9731 118.339 82.6524C120.799 82.3317 123.108 81.2888 124.974 79.6557C126.841 78.0226 128.181 75.8726 128.826 73.4776C129.471 71.0826 129.391 68.5503 128.596 66.2008C127.801 63.8514 126.327 61.7905 124.361 60.2786C122.395 58.7668 120.025 57.8721 117.55 57.7075C114.233 57.4884 110.965 58.5947 108.463 60.7835C105.961 62.9723 104.431 66.0645 104.207 69.3811Z" fill="#407BFF"/>
<path d="M141.03 76.6567L143.298 75.8887C143.418 75.8493 143.546 75.8427 143.67 75.8697C143.793 75.8968 143.907 75.9563 144 76.0423L144.373 76.4007C144.504 76.5181 144.674 76.5836 144.849 76.585C145.161 76.5847 145.472 76.6053 145.781 76.6465C145.87 76.661 145.962 76.6576 146.05 76.6365C146.138 76.6154 146.22 76.577 146.293 76.5236L146.713 76.2215C146.817 76.1488 146.938 76.1052 147.064 76.0953C147.19 76.0854 147.316 76.1095 147.43 76.1652L149.575 77.2301C149.688 77.2855 149.784 77.3705 149.852 77.476C149.921 77.5814 149.96 77.7035 149.964 77.8292V78.3412C149.971 78.5183 150.044 78.6864 150.169 78.8122C150.39 79.0315 150.595 79.2658 150.784 79.5137C150.891 79.6531 151.046 79.748 151.219 79.7799L151.731 79.8618C151.855 79.8826 151.971 79.937 152.067 80.0191C152.163 80.1012 152.234 80.208 152.273 80.3277L153.041 82.5959C153.083 82.7152 153.091 82.8437 153.065 82.9674C153.039 83.091 152.979 83.2052 152.893 83.2973L152.535 83.6711C152.416 83.8015 152.351 83.9712 152.35 84.1473C152.35 84.4589 152.33 84.7702 152.289 85.0791C152.274 85.168 152.277 85.259 152.297 85.3468C152.317 85.4347 152.354 85.5177 152.407 85.5911L152.709 86.0109C152.783 86.1125 152.828 86.2326 152.839 86.3581C152.85 86.4837 152.826 86.6098 152.77 86.7226L151.705 88.873C151.65 88.9859 151.565 89.0817 151.459 89.1502C151.354 89.2188 151.232 89.2574 151.106 89.2621H150.594C150.418 89.2676 150.251 89.341 150.128 89.4669C149.905 89.6837 149.671 89.8888 149.427 90.0813C149.287 90.1885 149.192 90.3435 149.16 90.5165L149.079 91.0285C149.058 91.1529 149.003 91.2692 148.921 91.3648C148.839 91.4605 148.732 91.5319 148.613 91.5713L146.344 92.3393C146.225 92.3804 146.096 92.3878 145.972 92.3607C145.849 92.3336 145.735 92.2731 145.643 92.1857L145.264 91.8324C145.136 91.711 144.965 91.6449 144.788 91.6481C144.478 91.6482 144.168 91.6276 143.861 91.5866C143.772 91.5714 143.681 91.5739 143.593 91.5941C143.506 91.6143 143.423 91.6518 143.349 91.7044L142.929 92.0065C142.827 92.081 142.706 92.1261 142.58 92.1369C142.453 92.1477 142.326 92.1239 142.213 92.0679L140.067 91.0029C139.954 90.9471 139.857 90.8614 139.789 90.7549C139.72 90.6485 139.682 90.5253 139.678 90.3988V89.8868C139.67 89.7114 139.597 89.5453 139.473 89.4208C139.254 89.2004 139.049 88.9661 138.859 88.7194C138.808 88.6486 138.743 88.5886 138.668 88.5429C138.593 88.4973 138.51 88.4667 138.424 88.4532L137.912 88.3713C137.788 88.3487 137.671 88.2938 137.575 88.212C137.479 88.1301 137.406 88.0244 137.364 87.9053L136.596 85.6321C136.556 85.5129 136.55 85.3853 136.577 85.2627C136.604 85.1402 136.664 85.0272 136.75 84.9357L137.108 84.562C137.227 84.4297 137.292 84.2583 137.292 84.0807C137.292 83.7691 137.313 83.4578 137.354 83.1488C137.382 82.9687 137.338 82.7846 137.231 82.6368L136.934 82.217C136.859 82.1155 136.814 81.9953 136.803 81.8698C136.792 81.7443 136.816 81.6182 136.872 81.5053L137.937 79.3549C137.992 79.2419 138.077 79.1462 138.183 79.0785C138.289 79.0107 138.411 78.9735 138.536 78.9709H139.048C139.226 78.9642 139.394 78.8911 139.52 78.7661C139.74 78.5465 139.974 78.3413 140.221 78.1517C140.36 78.0446 140.455 77.8895 140.487 77.7165L140.569 77.2045C140.589 77.0798 140.642 76.9629 140.723 76.8663C140.804 76.7697 140.91 76.6972 141.03 76.6567ZM142.387 84.9409C142.55 85.4198 142.851 85.8397 143.252 86.1476C143.654 86.4555 144.138 86.6375 144.642 86.6707C145.147 86.7038 145.651 86.5867 146.089 86.334C146.527 86.0813 146.881 85.7044 147.105 85.2509C147.329 84.7974 147.414 84.2876 147.349 83.7859C147.284 83.2842 147.071 82.8131 146.738 82.4321C146.405 82.051 145.967 81.7772 145.479 81.645C144.991 81.5129 144.474 81.5284 143.994 81.6897C143.675 81.797 143.38 81.9664 143.126 82.1881C142.872 82.4098 142.665 82.6794 142.515 82.9814C142.366 83.2835 142.278 83.6121 142.256 83.9483C142.234 84.2846 142.278 84.6218 142.387 84.9409Z" fill="#407BFF"/>
<path opacity="0.5" d="M141.03 76.6567L143.298 75.8887C143.418 75.8493 143.546 75.8427 143.67 75.8697C143.793 75.8968 143.907 75.9563 144 76.0423L144.373 76.4007C144.504 76.5181 144.674 76.5836 144.849 76.585C145.161 76.5847 145.472 76.6053 145.781 76.6465C145.87 76.661 145.962 76.6576 146.05 76.6365C146.138 76.6154 146.22 76.577 146.293 76.5236L146.713 76.2215C146.817 76.1488 146.938 76.1052 147.064 76.0953C147.19 76.0854 147.316 76.1095 147.43 76.1652L149.575 77.2301C149.688 77.2855 149.784 77.3705 149.852 77.476C149.921 77.5814 149.96 77.7035 149.964 77.8292V78.3412C149.971 78.5183 150.044 78.6864 150.169 78.8122C150.39 79.0315 150.595 79.2658 150.784 79.5137C150.891 79.6531 151.046 79.748 151.219 79.7799L151.731 79.8618C151.855 79.8826 151.971 79.937 152.067 80.0191C152.163 80.1012 152.234 80.208 152.273 80.3277L153.041 82.5959C153.083 82.7152 153.091 82.8437 153.065 82.9674C153.039 83.091 152.979 83.2052 152.893 83.2973L152.535 83.6711C152.416 83.8015 152.351 83.9712 152.35 84.1473C152.35 84.4589 152.33 84.7702 152.289 85.0791C152.274 85.168 152.277 85.259 152.297 85.3468C152.317 85.4347 152.354 85.5177 152.407 85.5911L152.709 86.0109C152.783 86.1125 152.828 86.2326 152.839 86.3581C152.85 86.4837 152.826 86.6098 152.77 86.7226L151.705 88.873C151.65 88.9859 151.565 89.0817 151.459 89.1502C151.354 89.2188 151.232 89.2574 151.106 89.2621H150.594C150.418 89.2676 150.251 89.341 150.128 89.4669C149.905 89.6837 149.671 89.8888 149.427 90.0813C149.287 90.1885 149.192 90.3435 149.16 90.5165L149.079 91.0285C149.058 91.1529 149.003 91.2692 148.921 91.3648C148.839 91.4605 148.732 91.5319 148.613 91.5713L146.344 92.3393C146.225 92.3804 146.096 92.3878 145.972 92.3607C145.849 92.3336 145.735 92.2731 145.643 92.1857L145.264 91.8324C145.136 91.711 144.965 91.6449 144.788 91.6481C144.478 91.6482 144.168 91.6276 143.861 91.5866C143.772 91.5714 143.681 91.5739 143.593 91.5941C143.506 91.6143 143.423 91.6518 143.349 91.7044L142.929 92.0065C142.827 92.081 142.706 92.1261 142.58 92.1369C142.453 92.1477 142.326 92.1239 142.213 92.0679L140.067 91.0029C139.954 90.9471 139.857 90.8614 139.789 90.7549C139.72 90.6485 139.682 90.5253 139.678 90.3988V89.8868C139.67 89.7114 139.597 89.5453 139.473 89.4208C139.254 89.2004 139.049 88.9661 138.859 88.7194C138.808 88.6486 138.743 88.5886 138.668 88.5429C138.593 88.4973 138.51 88.4667 138.424 88.4532L137.912 88.3713C137.788 88.3487 137.671 88.2938 137.575 88.212C137.479 88.1301 137.406 88.0244 137.364 87.9053L136.596 85.6321C136.556 85.5129 136.55 85.3853 136.577 85.2627C136.604 85.1402 136.664 85.0272 136.75 84.9357L137.108 84.562C137.227 84.4297 137.292 84.2583 137.292 84.0807C137.292 83.7691 137.313 83.4578 137.354 83.1488C137.382 82.9687 137.338 82.7846 137.231 82.6368L136.934 82.217C136.859 82.1155 136.814 81.9953 136.803 81.8698C136.792 81.7443 136.816 81.6182 136.872 81.5053L137.937 79.3549C137.992 79.2419 138.077 79.1462 138.183 79.0785C138.289 79.0107 138.411 78.9735 138.536 78.9709H139.048C139.226 78.9642 139.394 78.8911 139.52 78.7661C139.74 78.5465 139.974 78.3413 140.221 78.1517C140.36 78.0446 140.455 77.8895 140.487 77.7165L140.569 77.2045C140.589 77.0798 140.642 76.9629 140.723 76.8663C140.804 76.7697 140.91 76.6972 141.03 76.6567ZM142.387 84.9409C142.55 85.4198 142.851 85.8397 143.252 86.1476C143.654 86.4555 144.138 86.6375 144.642 86.6707C145.147 86.7038 145.651 86.5867 146.089 86.334C146.527 86.0813 146.881 85.7044 147.105 85.2509C147.329 84.7974 147.414 84.2876 147.349 83.7859C147.284 83.2842 147.071 82.8131 146.738 82.4321C146.405 82.051 145.967 81.7772 145.479 81.645C144.991 81.5129 144.474 81.5284 143.994 81.6897C143.675 81.797 143.38 81.9664 143.126 82.1881C142.872 82.4098 142.665 82.6794 142.515 82.9814C142.366 83.2835 142.278 83.6121 142.256 83.9483C142.234 84.2846 142.278 84.6218 142.387 84.9409Z" fill="white"/>
<path d="M127.948 101.243L130.764 96.3635C130.869 96.182 130.924 95.9764 130.924 95.7671C130.925 95.5578 130.871 95.3519 130.767 95.1699C130.664 94.9879 130.515 94.8361 130.335 94.7293C130.155 94.6226 129.95 94.5647 129.74 94.5613H124.108C123.898 94.5631 123.693 94.6201 123.512 94.7265C123.331 94.8329 123.181 94.9849 123.077 95.1675C122.974 95.35 122.92 95.5565 122.921 95.7664C122.922 95.9763 122.979 96.1823 123.084 96.3635L125.9 101.243C126.008 101.418 126.159 101.562 126.338 101.662C126.517 101.762 126.719 101.814 126.924 101.814C127.13 101.814 127.331 101.762 127.511 101.662C127.69 101.562 127.841 101.418 127.948 101.243Z" fill="#407BFF"/>
<path d="M35.681 156.887H104.704C104.941 156.888 105.175 156.841 105.394 156.749C105.612 156.657 105.81 156.522 105.975 156.351C106.14 156.181 106.269 155.98 106.354 155.758C106.439 155.537 106.478 155.301 106.47 155.064L104.837 105.718C104.815 105.23 104.607 104.768 104.255 104.428C103.904 104.089 103.436 103.896 102.948 103.89H33.93C33.6923 103.888 33.4568 103.935 33.2378 104.027C33.0187 104.119 32.8206 104.255 32.6554 104.426C32.4903 104.597 32.3615 104.799 32.277 105.021C32.1925 105.243 32.1539 105.48 32.1636 105.718L33.7917 155.064C33.8115 155.553 34.0189 156.015 34.3708 156.355C34.7227 156.694 35.192 156.885 35.681 156.887Z" fill="#407BFF"/>
<path d="M36.2443 156.887H105.267C105.504 156.888 105.739 156.841 105.957 156.749C106.175 156.657 106.373 156.522 106.538 156.351C106.703 156.181 106.832 155.98 106.917 155.758C107.002 155.537 107.042 155.301 107.033 155.064L105.4 105.718C105.378 105.23 105.17 104.768 104.819 104.428C104.467 104.089 104 103.896 103.511 103.89H34.4932C34.2558 103.889 34.0207 103.936 33.8019 104.029C33.5832 104.121 33.3853 104.256 33.2203 104.427C33.0554 104.598 32.9266 104.8 32.8418 105.022C32.757 105.244 32.7179 105.48 32.7268 105.718L34.3601 155.064C34.3798 155.552 34.5866 156.013 34.9374 156.353C35.2882 156.692 35.7562 156.883 36.2443 156.887Z" fill="#407BFF"/>
<g opacity="0.6">
<path d="M36.2443 156.887H105.267C105.504 156.888 105.739 156.841 105.957 156.749C106.175 156.657 106.373 156.522 106.538 156.351C106.703 156.181 106.832 155.98 106.917 155.758C107.002 155.537 107.042 155.301 107.033 155.064L105.4 105.718C105.378 105.23 105.17 104.768 104.819 104.428C104.467 104.089 104 103.896 103.511 103.89H34.4932C34.2558 103.889 34.0207 103.936 33.8019 104.029C33.5832 104.121 33.3853 104.256 33.2203 104.427C33.0554 104.598 32.9266 104.8 32.8418 105.022C32.757 105.244 32.7179 105.48 32.7268 105.718L34.3601 155.064C34.3798 155.552 34.5866 156.013 34.9374 156.353C35.2882 156.692 35.7562 156.883 36.2443 156.887Z" fill="#263238"/>
</g>
<path d="M37.1352 156.8H120.494C120.904 156.8 121.306 156.915 121.653 157.132C122.001 157.35 122.281 157.66 122.46 158.029C122.506 158.125 122.527 158.232 122.52 158.338C122.514 158.445 122.48 158.548 122.423 158.638C122.366 158.728 122.286 158.802 122.193 158.853C122.099 158.904 121.993 158.931 121.887 158.93H35.7426C35.6354 158.932 35.5294 158.906 35.4349 158.855C35.3404 158.805 35.2603 158.731 35.2024 158.64C35.1444 158.55 35.1105 158.447 35.1038 158.34C35.0971 158.233 35.1178 158.126 35.164 158.029C35.3444 157.66 35.6249 157.349 35.9734 157.132C36.322 156.914 36.7245 156.799 37.1352 156.8Z" fill="#407BFF"/>
<path opacity="0.6" d="M120.494 156.8H53.9751C53.5644 156.799 53.1618 156.914 52.8133 157.132C52.4647 157.349 52.1843 157.66 52.0039 158.029C51.9577 158.126 51.9369 158.233 51.9436 158.34C51.9503 158.447 51.9843 158.55 52.0422 158.64C52.1002 158.731 52.1802 158.805 52.2747 158.855C52.3693 158.906 52.4752 158.932 52.5824 158.93H121.887C121.994 158.931 122.099 158.904 122.193 158.853C122.287 158.802 122.366 158.728 122.423 158.638C122.481 158.548 122.514 158.445 122.521 158.338C122.527 158.232 122.506 158.125 122.46 158.029C122.281 157.66 122.001 157.35 121.653 157.132C121.306 156.915 120.904 156.8 120.494 156.8Z" fill="#263238"/>
<path opacity="0.3" d="M80.7323 158.152H98.0379C98.2435 158.153 98.4401 158.236 98.5849 158.381C98.7298 158.527 98.8111 158.724 98.8111 158.93H79.9541C79.9541 158.723 80.0361 158.525 80.182 158.38C80.328 158.234 80.5259 158.152 80.7323 158.152Z" fill="white"/>
<path opacity="0.9" d="M105.385 153.277L103.849 107.505C103.84 107.314 103.758 107.135 103.621 107.003C103.484 106.87 103.302 106.795 103.112 106.793H35.0617C34.9678 106.792 34.8748 106.81 34.7884 106.847C34.702 106.884 34.6242 106.938 34.5597 107.006C34.4953 107.075 34.4457 107.156 34.414 107.244C34.3823 107.332 34.3692 107.426 34.3756 107.52L35.9116 153.293C35.9182 153.483 35.9981 153.663 36.1345 153.796C36.271 153.928 36.4535 154.003 36.6437 154.004H104.74C104.83 153.999 104.918 153.976 104.999 153.937C105.081 153.897 105.153 153.842 105.213 153.775C105.273 153.707 105.319 153.629 105.349 153.543C105.378 153.458 105.39 153.367 105.385 153.277Z" fill="white"/>
<path d="M49.2844 153.989H39.8994L50.718 106.793H60.1029L49.2844 153.989Z" fill="white"/>
<path d="M55.2649 153.989H51.8857L62.7043 106.793H66.0835L55.2649 153.989Z" fill="white"/>
<path d="M89.7894 153.989H86.4102L97.2287 106.793H100.603L89.7894 153.989Z" fill="white"/>
<path opacity="0.4" d="M68.5156 105.421C68.5283 105.559 68.5917 105.688 68.6939 105.783C68.796 105.877 68.9294 105.931 69.0686 105.933C69.2044 105.933 69.3346 105.879 69.4306 105.783C69.5266 105.687 69.5806 105.556 69.5806 105.421C69.5702 105.281 69.5074 105.151 69.4048 105.056C69.3022 104.961 69.1675 104.908 69.0276 104.909C68.8918 104.909 68.7616 104.963 68.6656 105.059C68.5696 105.155 68.5156 105.285 68.5156 105.421Z" fill="white"/>
<path d="M90.4903 100.383C91.3966 101.837 92.3745 103.378 93.3524 104.863C94.3303 106.347 95.3339 107.832 96.3579 109.286C98.3448 112.175 100.493 114.95 102.794 117.596C103.874 118.831 105.047 119.983 106.301 121.042L106.741 121.39C106.837 121.473 106.938 121.55 107.043 121.62C107.309 121.795 107.584 121.954 107.868 122.097C108.559 122.433 109.274 122.717 110.008 122.947C110.781 123.208 111.595 123.459 112.424 123.648C113.254 123.837 114.109 124.058 114.984 124.237C116.7 124.6 118.492 124.933 120.217 125.23V128.814C119.234 128.957 118.312 129.029 117.355 129.096C116.398 129.162 115.45 129.188 114.488 129.193C112.522 129.2 110.56 129.044 108.62 128.727C107.57 128.544 106.535 128.284 105.523 127.949C104.956 127.754 104.405 127.518 103.874 127.242C103.592 127.109 103.295 126.92 103.009 126.73L102.348 126.269C100.719 125.072 99.1942 123.738 97.7915 122.281C95.1497 119.524 92.7049 116.585 90.475 113.485C89.3656 111.966 88.2973 110.43 87.2699 108.877C86.2459 107.3 85.2219 105.754 84.2695 104.074L90.4903 100.383Z" fill="#FFC3BD"/>
<path d="M81.8732 101.376C81.3612 105.871 92.0774 116.613 92.0774 116.613L99.3273 110.561C97.2027 106.966 94.8513 103.51 92.2873 100.214C88.1657 95.109 82.4313 96.2917 81.8732 101.376Z" fill="#407BFF"/>
<path opacity="0.3" d="M87.7313 104.566C84.8692 101.494 83.5022 100.7 81.8535 101.924C82.0737 106.67 92.0935 116.603 92.0935 116.603C92.7489 111.508 90.153 108.232 87.7313 104.566Z" fill="black"/>
<path d="M98.7388 108.488L99.5017 110.7L91.3916 117.356L89.7891 115.692L98.7388 108.488Z" fill="#407BFF"/>
<path opacity="0.3" d="M98.7388 108.488L99.5017 110.7L91.3916 117.356L89.7891 115.692L98.7388 108.488Z" fill="#263238"/>
<path d="M119.833 125.158L125.465 126.126L122.367 131.072C121.63 131.19 118.691 129.597 117.391 127.621L119.833 125.158Z" fill="#FFC3BD"/>
<path d="M128.921 129.464L126.673 132.014L122.362 131.046L125.455 126.126L128.921 129.464Z" fill="#FFC3BD"/>
<path d="M87.7053 97.0701C87.7053 97.0701 93.8493 111.519 89.4256 138.429H63.8256C63.5133 134.502 65.3155 115.338 60.8867 96.8243C63.705 96.2775 66.5561 95.9166 69.4218 95.744C73.0454 95.5339 76.6781 95.5339 80.3018 95.744C82.8001 95.9945 85.2753 96.4379 87.7053 97.0701Z" fill="#407BFF"/>
<path opacity="0.3" d="M66.6058 101.376C67.1178 104.448 66.4318 111.708 63.8206 120.136C63.6205 112.907 62.7792 105.711 61.3066 98.6317V98.5958C62.9758 98.4576 66.099 98.5395 66.6058 101.376Z" fill="black"/>
<path d="M70.0721 83.4918C70.8811 86.9939 71.7873 93.4093 69.4219 95.744C69.4219 95.744 70.4459 98.6419 76.9483 98.6419C84.1163 98.6419 80.3019 95.744 80.3019 95.744C76.3646 94.8121 76.3646 91.9142 76.9483 89.1955L70.0721 83.4918Z" fill="#FFC3BD"/>
<path d="M77.3883 98.9132L78.9243 100.536C78.9709 100.584 79.0018 100.645 79.0128 100.711C79.0238 100.777 79.0143 100.845 78.9858 100.905L78.2178 102.507C78.1931 102.562 78.1537 102.609 78.1039 102.642C78.0542 102.676 77.9961 102.695 77.9362 102.697L76.7739 102.753C76.7187 102.755 76.6637 102.743 76.6144 102.718C76.5651 102.693 76.523 102.656 76.4923 102.61L75.4171 101.074C75.3739 101.016 75.3506 100.946 75.3506 100.874C75.3506 100.802 75.3739 100.732 75.4171 100.674L76.8917 98.9286C76.9208 98.8911 76.9579 98.8605 77.0002 98.839C77.0425 98.8175 77.089 98.8056 77.1364 98.8041C77.1838 98.8026 77.231 98.8117 77.2746 98.8305C77.3181 98.8494 77.357 98.8776 77.3883 98.9132Z" fill="white"/>
<path d="M77.1378 98.6419C76.3988 99.8308 75.9709 101.187 75.8936 102.584C75.8936 102.584 67.5839 99.7427 67.9628 95.5852C68.7008 95.2274 69.411 94.815 70.0876 94.3513C70.0876 94.3513 70.3589 96.9779 77.1378 98.6419Z" fill="#263238"/>
<path d="M77.1377 98.6419C77.8769 99.7692 78.4091 101.019 78.7095 102.333C78.7095 102.333 82.5598 99.6966 81.4641 95.5853L79.2011 95.0989C79.2011 95.0989 79.6772 97.751 77.1377 98.6419Z" fill="#263238"/>
<path d="M78.0794 102.523C78.5914 104.223 82.4519 116.828 82.5492 119.844C82.5517 119.869 82.5517 119.895 82.5492 119.921C82.1908 121.544 80.5831 124.39 79.9278 125.507C79.9026 125.551 79.8656 125.587 79.8209 125.611C79.7762 125.635 79.7256 125.646 79.675 125.643C79.6243 125.64 79.5756 125.622 79.5343 125.593C79.493 125.563 79.4608 125.523 79.4414 125.476C78.9908 124.375 77.9054 121.738 77.1886 120.197C77.1753 120.168 77.1667 120.137 77.163 120.105C76.825 114.601 76.7329 106.04 76.5639 102.62C76.5618 102.583 76.5673 102.546 76.58 102.512C76.5927 102.477 76.6123 102.445 76.6378 102.418C76.6632 102.391 76.6938 102.37 76.7278 102.355C76.7617 102.341 76.7983 102.333 76.8353 102.333H77.8234C77.8806 102.334 77.9362 102.353 77.9821 102.387C78.0281 102.421 78.0622 102.468 78.0794 102.523Z" fill="white"/>
<path opacity="0.2" d="M72.8775 85.8163L76.9479 89.1904C76.8006 89.8245 76.7097 90.4704 76.6765 91.1206C75.1764 90.9056 73.0925 89.2723 72.8621 87.7107C72.7494 87.0838 72.7546 86.4413 72.8775 85.8163Z" fill="black"/>
<path d="M80.0966 73.0828C81.0643 73.8047 82.718 76.8562 80.6086 77.655C78.4992 78.4537 77.726 71.3113 80.0966 73.0828Z" fill="#263238"/>
<path d="M68.8125 79.2933C69.7802 83.9577 70.113 86.7276 72.842 88.8729C73.7214 89.581 74.7777 90.0351 75.8967 90.1861C77.0156 90.337 78.1545 90.179 79.1901 89.7292C80.2258 89.2795 81.1186 88.555 81.7721 87.6342C82.4256 86.7135 82.8148 85.6315 82.8976 84.5055C83.297 80.1791 81.6381 73.2825 76.7536 71.9205C75.7043 71.599 74.5888 71.5589 73.5191 71.8043C72.4493 72.0496 71.4628 72.5719 70.6585 73.3186C69.8542 74.0654 69.2603 75.0104 68.9363 76.059C68.6123 77.1077 68.5696 78.223 68.8125 79.2933Z" fill="#FFC3BD"/>
<path d="M69.4222 82.8057L71.3781 81.5001L71.5061 80.3635C71.6857 78.7154 71.3778 77.0509 70.6203 75.5763C70.6203 75.5763 80.1281 75.9296 81.3057 72.9548C82.4833 69.9801 79.1349 67.7427 79.1349 67.7427C79.1349 67.7427 75.771 69.6729 73.5029 69.8265C71.2347 69.9801 64.2869 67.1436 64.2869 73.0163C61.2149 73.9635 61.3173 79.0169 69.4069 82.8057" fill="#263238"/>
<path d="M64.6296 73.2467C64.6296 73.2467 63.37 72.2483 64.307 69.1968C63.155 69.7702 62.602 72.8883 64.6296 73.2467Z" fill="#263238"/>
<path d="M67.435 84.7052C68.2095 85.6311 69.3083 86.2264 70.507 86.3692C72.0942 86.5382 72.555 85.0739 71.8689 83.7273C71.234 82.519 69.6468 80.9728 68.1825 81.4284C66.7182 81.8841 66.4878 83.5532 67.435 84.7052Z" fill="#FFC3BD"/>
<path d="M91.5867 153.989H75.2283C73.7589 145.111 72.5762 138.429 72.5762 138.429H89.4261C89.4261 138.429 90.3733 144.998 91.5867 153.989Z" fill="#263238"/>
<path d="M64.4498 153.989C64.0812 145.111 63.8047 138.429 63.8047 138.429H80.3218C80.3218 138.429 80.4037 145.193 80.4396 153.989H64.4498Z" fill="#263238"/>
<path d="M76.1491 79.8207C76.2054 80.2047 76.4511 80.4915 76.702 80.4659C76.9529 80.4403 77.1116 80.1024 77.0553 79.7235C76.999 79.3446 76.7532 79.0527 76.5023 79.0783C76.2515 79.1039 76.0927 79.4367 76.1491 79.8207Z" fill="#263238"/>
<path d="M80.486 79.3599C80.5423 79.7439 80.788 80.0306 81.0389 79.9999C81.2898 79.9692 81.4485 79.6415 81.3922 79.2626C81.3359 78.8838 81.0901 78.5919 80.8392 78.6175C80.5884 78.6431 80.4296 78.9606 80.486 79.3599Z" fill="#263238"/>
<path d="M79.1348 79.6876C79.7632 80.8092 80.538 81.8423 81.4388 82.7596C80.8551 83.4662 79.657 83.3023 79.657 83.3023L79.1348 79.6876Z" fill="#ED847E"/>
<path d="M77.8952 84.4799C78.159 84.508 78.425 84.508 78.6888 84.4799C78.7036 84.4786 78.718 84.4744 78.7312 84.4675C78.7444 84.4606 78.756 84.4512 78.7656 84.4398C78.7751 84.4284 78.7823 84.4152 78.7866 84.401C78.791 84.3868 78.7926 84.3718 78.7912 84.357C78.7873 84.3267 78.7718 84.299 78.7479 84.2799C78.724 84.2608 78.6936 84.2517 78.6632 84.2546C78.1808 84.316 77.6908 84.2657 77.231 84.1077C76.7712 83.9497 76.3538 83.6881 76.011 83.3433C76.0013 83.3318 75.9894 83.3224 75.976 83.3156C75.9626 83.3088 75.948 83.3046 75.933 83.3035C75.918 83.3023 75.903 83.304 75.8887 83.3087C75.8744 83.3133 75.8612 83.3207 75.8497 83.3305C75.8383 83.3402 75.8289 83.3521 75.8221 83.3655C75.8152 83.3789 75.8111 83.3935 75.8099 83.4085C75.8087 83.4234 75.8105 83.4385 75.8151 83.4528C75.8198 83.4671 75.8272 83.4803 75.8369 83.4917C76.3834 84.0557 77.1133 84.4061 77.8952 84.4799Z" fill="#263238"/>
<path d="M74.5831 78.5715C74.6268 78.5769 74.6712 78.5691 74.7105 78.549C74.7497 78.5289 74.782 78.4975 74.8032 78.4589C74.9346 78.2113 75.1247 77.9998 75.3567 77.8427C75.5888 77.6856 75.8558 77.5878 76.1344 77.5577C76.1947 77.5538 76.2509 77.5263 76.2911 77.4813C76.3313 77.4363 76.3523 77.3774 76.3495 77.3171C76.3482 77.2875 76.341 77.2585 76.3285 77.2316C76.3159 77.2048 76.2982 77.1807 76.2763 77.1607C76.2544 77.1407 76.2288 77.1253 76.201 77.1152C76.1731 77.1051 76.1436 77.1007 76.114 77.102C75.759 77.1373 75.4181 77.2588 75.1209 77.456C74.8237 77.6533 74.5793 77.9202 74.409 78.2336C74.3937 78.2597 74.3837 78.2886 74.3798 78.3186C74.3759 78.3486 74.3781 78.3791 74.3862 78.4082C74.3943 78.4374 74.4082 78.4646 74.4271 78.4882C74.446 78.5119 74.4694 78.5315 74.496 78.5459C74.5223 78.562 74.5523 78.5708 74.5831 78.5715Z" fill="#263238"/>
<path d="M82.1094 77.655C82.1637 77.6592 82.2179 77.6447 82.263 77.6141C82.3114 77.5799 82.3448 77.5284 82.3563 77.4702C82.3677 77.4121 82.3563 77.3517 82.3244 77.3018C82.1298 76.994 81.866 76.7361 81.5539 76.5485C81.2419 76.3609 80.8903 76.2489 80.5273 76.2214C80.4679 76.2214 80.4108 76.2442 80.3679 76.2853C80.3249 76.3263 80.2995 76.3823 80.2969 76.4416C80.2969 76.5018 80.3204 76.5597 80.3625 76.6027C80.4046 76.6458 80.4619 76.6707 80.5222 76.672C80.8112 76.6992 81.0901 76.7928 81.337 76.9456C81.5839 77.0984 81.7922 77.3061 81.9455 77.5526C81.9643 77.5801 81.9885 77.6034 82.0167 77.621C82.0449 77.6386 82.0764 77.6502 82.1094 77.655Z" fill="#263238"/>
<path d="M65.7766 104.018L64.64 105.984C64.2577 106.667 63.8839 107.349 63.5187 108.032C62.7814 109.397 62.0749 110.773 61.399 112.159C60.7334 113.546 60.0986 114.939 59.5302 116.342C59.2589 117.038 58.9824 117.739 58.7469 118.441L58.3834 119.491L58.0813 120.515L58.0045 120.776L57.9635 120.909C57.9635 120.955 57.9635 120.909 57.9635 120.939C57.9635 120.97 57.9635 120.996 57.9277 121.052C57.9067 121.253 57.9067 121.455 57.9277 121.656C57.9918 122.265 58.1188 122.866 58.3066 123.448C58.756 124.85 59.3035 126.219 59.945 127.544C61.2403 130.324 62.8173 133.13 64.3686 135.869L61.5373 138.081C60.329 136.868 59.2435 135.634 58.1786 134.333C57.1136 133.033 56.1306 131.681 55.1629 130.237C54.1772 128.763 53.3207 127.205 52.6029 125.583C52.1937 124.658 51.8781 123.694 51.6608 122.706C51.5335 122.108 51.4683 121.499 51.4662 120.888C51.4621 120.521 51.4895 120.155 51.5482 119.793L51.5891 119.526L51.625 119.363L51.6915 119.03C52.0233 117.294 52.4732 115.584 53.0381 113.91C53.5808 112.261 54.2157 110.674 54.8915 109.107C55.5674 107.54 56.3098 106.035 57.1034 104.53C57.5027 103.787 57.9072 103.05 58.3322 102.313C58.7571 101.576 59.177 100.879 59.6838 100.096L65.7766 104.018Z" fill="#FFC3BD"/>
<path d="M60.8916 96.8243C56.386 97.4848 51.7422 113.172 51.7422 113.172L61.4395 118.543C61.4395 118.543 65.3665 111.078 67.2404 105.539C69.2014 99.7325 65.7198 96.1177 60.8916 96.8243Z" fill="#407BFF"/>
<path d="M51.9418 110.961L51.5322 113.265L61.4957 118.748L62.8218 116.849L51.9418 110.961Z" fill="#407BFF"/>
<path opacity="0.3" d="M51.9418 110.961L51.5322 113.265L61.4957 118.748L62.8218 116.849L51.9418 110.961Z" fill="#263238"/>
<path d="M63.0779 134.804L67.8395 133.975L65.3973 139.489C65.3973 139.489 61.0453 139.464 61.2449 137.221L63.0779 134.804Z" fill="#FFC3BD"/>
<path d="M71.3981 136.745L69.1555 141.199L65.3975 139.489L67.8397 133.975L71.3981 136.745Z" fill="#FFC3BD"/>
<path d="M220.319 156.887H151.296C151.059 156.888 150.824 156.841 150.606 156.749C150.387 156.657 150.19 156.522 150.025 156.351C149.86 156.181 149.731 155.98 149.646 155.758C149.561 155.537 149.521 155.301 149.529 155.064L151.163 105.718C151.185 105.23 151.393 104.768 151.744 104.428C152.095 104.089 152.563 103.896 153.052 103.89H222.07C222.307 103.888 222.543 103.935 222.762 104.027C222.981 104.119 223.179 104.255 223.344 104.426C223.509 104.597 223.638 104.799 223.723 105.021C223.807 105.243 223.846 105.48 223.836 105.718L222.208 155.064C222.188 155.553 221.981 156.015 221.629 156.355C221.277 156.694 220.808 156.885 220.319 156.887Z" fill="#407BFF"/>
<path opacity="0.6" d="M220.319 156.887H151.296C151.059 156.888 150.824 156.841 150.606 156.749C150.387 156.657 150.19 156.522 150.025 156.351C149.86 156.181 149.731 155.98 149.646 155.758C149.561 155.537 149.521 155.301 149.529 155.064L151.163 105.718C151.185 105.23 151.393 104.768 151.744 104.428C152.095 104.089 152.563 103.896 153.052 103.89H222.07C222.307 103.888 222.543 103.935 222.762 104.027C222.981 104.119 223.179 104.255 223.344 104.426C223.509 104.597 223.638 104.799 223.723 105.021C223.807 105.243 223.846 105.48 223.836 105.718L222.208 155.064C222.188 155.553 221.981 156.015 221.629 156.355C221.277 156.694 220.808 156.885 220.319 156.887Z" fill="#263238"/>
<path d="M219.755 156.887H150.732C150.495 156.888 150.261 156.841 150.042 156.749C149.824 156.657 149.626 156.522 149.461 156.351C149.296 156.181 149.168 155.98 149.082 155.758C148.997 155.537 148.958 155.301 148.966 155.064L150.599 105.718C150.621 105.23 150.829 104.768 151.181 104.428C151.532 104.089 152 103.896 152.488 103.89H221.506C221.744 103.889 221.979 103.936 222.197 104.029C222.416 104.121 222.614 104.256 222.779 104.427C222.944 104.598 223.073 104.8 223.158 105.022C223.242 105.244 223.281 105.48 223.272 105.718L221.639 155.064C221.619 155.552 221.413 156.013 221.062 156.353C220.711 156.692 220.243 156.883 219.755 156.887Z" fill="#407BFF"/>
<path d="M218.865 156.8H135.506C135.096 156.8 134.694 156.915 134.347 157.132C133.999 157.35 133.72 157.66 133.54 158.029C133.494 158.125 133.473 158.232 133.48 158.338C133.486 158.445 133.52 158.548 133.577 158.638C133.634 158.728 133.714 158.802 133.807 158.853C133.901 158.904 134.007 158.931 134.113 158.93H220.257C220.365 158.932 220.471 158.906 220.565 158.855C220.66 158.805 220.74 158.731 220.798 158.64C220.856 158.55 220.89 158.447 220.896 158.34C220.903 158.233 220.882 158.126 220.836 158.029C220.656 157.66 220.375 157.349 220.027 157.132C219.678 156.914 219.276 156.799 218.865 156.8Z" fill="#407BFF"/>
<path opacity="0.6" d="M218.864 156.8H206.064C205.653 156.799 205.251 156.914 204.902 157.132C204.554 157.349 204.273 157.66 204.093 158.029C204.047 158.126 204.026 158.233 204.032 158.34C204.039 158.447 204.073 158.55 204.131 158.64C204.189 158.731 204.269 158.805 204.364 158.855C204.458 158.906 204.564 158.932 204.671 158.93H220.231C220.338 158.932 220.444 158.906 220.539 158.855C220.633 158.805 220.713 158.731 220.771 158.64C220.829 158.55 220.863 158.447 220.87 158.34C220.877 158.233 220.856 158.126 220.81 158.029C220.631 157.664 220.355 157.355 220.011 157.138C219.667 156.921 219.27 156.804 218.864 156.8Z" fill="#263238"/>
<path opacity="0.2" d="M175.267 158.152H157.962C157.756 158.153 157.559 158.236 157.415 158.381C157.27 158.527 157.188 158.724 157.188 158.93H176.045C176.045 158.723 175.963 158.525 175.817 158.38C175.672 158.234 175.474 158.152 175.267 158.152Z" fill="black"/>
<path opacity="0.9" d="M150.615 153.277L152.151 107.505C152.16 107.314 152.241 107.135 152.378 107.003C152.515 106.87 152.698 106.795 152.888 106.793H220.984C221.076 106.792 221.168 106.81 221.253 106.846C221.339 106.882 221.416 106.935 221.48 107.001C221.544 107.068 221.594 107.147 221.627 107.233C221.66 107.32 221.674 107.412 221.67 107.505L220.134 153.277C220.127 153.468 220.048 153.648 219.911 153.781C219.775 153.913 219.592 153.988 219.402 153.989H151.306C151.213 153.99 151.121 153.972 151.036 153.936C150.95 153.9 150.873 153.848 150.808 153.781C150.744 153.715 150.693 153.636 150.66 153.549C150.627 153.463 150.611 153.37 150.615 153.277Z" fill="white"/>
<path d="M199.025 153.989H189.64L200.458 106.793H209.843L199.025 153.989Z" fill="white"/>
<path d="M158.275 153.989H154.896L165.714 106.793H169.088L158.275 153.989Z" fill="white"/>
<path d="M206.72 153.989H203.341L214.159 106.793H217.539L206.72 153.989Z" fill="white"/>
<path opacity="0.4" d="M187.484 105.421C187.471 105.559 187.408 105.688 187.306 105.783C187.204 105.877 187.07 105.931 186.931 105.933C186.795 105.933 186.665 105.879 186.569 105.783C186.473 105.687 186.419 105.557 186.419 105.421C186.429 105.281 186.492 105.151 186.595 105.056C186.697 104.961 186.832 104.908 186.972 104.909C187.108 104.909 187.238 104.963 187.334 105.059C187.43 105.155 187.484 105.285 187.484 105.421Z" fill="black"/>
<path d="M182.507 83.4918C181.703 86.9939 180.792 93.4093 183.162 95.744C183.162 95.744 182.138 98.6419 175.636 98.6419C168.468 98.6419 172.282 95.744 172.282 95.744C176.22 94.8121 176.22 91.9142 175.631 89.1955L182.507 83.4918Z" fill="#B55B52"/>
<path d="M192.926 100.127C193.438 100.91 193.858 101.596 194.278 102.344C194.698 103.091 195.112 103.818 195.512 104.561C196.3 106.056 197.048 107.576 197.723 109.138C198.399 110.7 199.034 112.292 199.572 113.94C200.138 115.614 200.59 117.325 200.923 119.06L200.99 119.393L201.021 119.557L201.067 119.823C201.12 120.186 201.148 120.552 201.149 120.919C201.142 121.53 201.076 122.138 200.954 122.737C200.735 123.725 200.418 124.689 200.007 125.614C199.291 127.237 198.435 128.795 197.447 130.268C196.495 131.697 195.491 133.048 194.426 134.364C193.37 135.669 192.249 136.92 191.067 138.112L188.241 135.9C189.777 133.161 191.37 130.355 192.665 127.575C193.305 126.25 193.851 124.881 194.298 123.479C194.486 122.896 194.613 122.296 194.677 121.687C194.7 121.486 194.7 121.284 194.677 121.083C194.677 121.027 194.677 120.975 194.636 120.97V120.94L194.6 120.806L194.523 120.545L194.216 119.521L193.858 118.472C193.617 117.77 193.346 117.069 193.069 116.372C192.501 114.97 191.866 113.577 191.206 112.189C190.545 110.802 189.818 109.43 189.086 108.063C188.724 107.38 188.35 106.697 187.965 106.015L186.828 104.054L192.926 100.127Z" fill="#B65B52"/>
<path d="M191.692 96.8243C196.198 97.4848 200.836 113.172 200.836 113.172L191.144 118.543C191.144 118.543 187.212 111.104 185.343 105.539C183.377 99.7325 186.879 96.1177 191.692 96.8243Z" fill="#263238"/>
<path opacity="0.3" d="M188.759 105.421L188.026 112.128C188.759 113.741 189.475 115.2 190.033 116.352C190.243 113.664 190.238 109.291 188.759 105.421Z" fill="black"/>
<path d="M200.638 110.961L201.052 113.265L191.089 118.748L189.763 116.849L200.638 110.961Z" fill="#407BFF"/>
<path opacity="0.3" d="M200.638 110.961L201.052 113.265L191.089 118.748L189.763 116.849L200.638 110.961Z" fill="#263238"/>
<path d="M189.506 134.804L184.739 133.975L187.187 139.489C187.187 139.489 191.534 139.464 191.334 137.221L189.506 134.804Z" fill="#B55B52"/>
<path d="M181.187 136.745L183.424 141.199L187.187 139.489L184.74 133.975L181.187 136.745Z" fill="#B55B52"/>
<path d="M164.864 97.0701C164.864 97.0701 158.72 111.519 163.149 138.429H188.749C189.061 134.502 187.253 115.338 191.687 96.8243C188.872 96.2784 186.025 95.9175 183.163 95.744C179.539 95.5339 175.906 95.5339 172.283 95.744C169.779 95.9937 167.299 96.437 164.864 97.0701Z" fill="#263238"/>
<path opacity="0.3" d="M162.125 109.43C161.753 112.668 161.563 115.924 161.557 119.183C165.038 116.915 166.277 111.713 166.769 107.945L162.125 109.43Z" fill="black"/>
<path d="M168.335 104.079C167.358 105.759 166.369 107.305 165.335 108.882C164.301 110.459 163.241 111.99 162.13 113.49C159.898 116.59 157.452 119.529 154.808 122.286C153.406 123.741 151.884 125.076 150.257 126.275L149.591 126.735C149.304 126.909 149.007 127.099 148.731 127.247C148.198 127.522 147.645 127.759 147.077 127.954C146.065 128.289 145.03 128.55 143.98 128.732C142.04 129.049 140.077 129.205 138.112 129.198C137.155 129.198 136.197 129.198 135.25 129.101C134.303 129.003 133.366 128.963 132.383 128.819V125.235C134.108 124.938 135.9 124.605 137.61 124.242C138.47 124.063 139.326 123.868 140.17 123.653C141.015 123.438 141.819 123.213 142.587 122.952C143.321 122.723 144.036 122.439 144.727 122.102C145.011 121.959 145.286 121.8 145.551 121.626C145.679 121.549 145.756 121.467 145.859 121.395L146.299 121.047C147.551 119.986 148.723 118.834 149.806 117.601C152.103 114.952 154.252 112.178 156.242 109.291C157.266 107.837 158.254 106.353 159.247 104.868C160.241 103.383 161.198 101.842 162.11 100.388L168.335 104.079Z" fill="#B65B52"/>
<path d="M170.706 101.376C171.218 105.871 161.193 116.777 161.193 116.777L153.262 110.571C155.384 106.976 157.733 103.52 160.297 100.224C164.413 95.1091 170.137 96.2918 170.706 101.376Z" fill="#263238"/>
<path d="M153.846 108.488L153.083 110.7L161.188 117.356L162.796 115.692L153.846 108.488Z" fill="#407BFF"/>
<path opacity="0.3" d="M153.846 108.488L153.083 110.7L161.188 117.356L162.796 115.692L153.846 108.488Z" fill="#263238"/>
<path d="M132.383 125.25L126.674 125.332L128.973 130.678C129.679 130.908 132.833 129.787 134.42 128.036L132.383 125.25Z" fill="#B55B52"/>
<path d="M122.736 128.102L125.854 132.014L128.972 130.673L126.674 125.332L122.736 128.102Z" fill="#B55B52"/>
<path d="M170.675 79.3599C170.619 79.7439 170.373 80.0306 170.122 79.9999C169.871 79.9692 169.712 79.6415 169.763 79.2626C169.815 78.8838 170.071 78.5919 170.322 78.6175C170.572 78.6431 170.731 78.9606 170.675 79.3599Z" fill="#263238"/>
<path d="M170.783 79.6876C170.154 80.8102 169.377 81.8434 168.474 82.7596C169.062 83.4662 170.261 83.3023 170.261 83.3023L170.783 79.6876Z" fill="#A02724"/>
<path d="M170.132 82.5139C169.277 82.5139 168.504 81.28 168.366 79.7031C168.235 78.8264 168.448 77.9332 168.96 77.2096C169.047 77.1038 169.157 77.0179 169.28 76.9579C169.404 76.8978 169.539 76.8649 169.676 76.8615C170.531 76.8615 171.305 78.0903 171.443 79.6672C171.579 80.5442 171.37 81.4398 170.859 82.1658C170.771 82.2706 170.661 82.3558 170.538 82.4157C170.414 82.4757 170.279 82.5092 170.142 82.5139H170.132ZM169.671 77.1175C169.572 77.123 169.476 77.1491 169.388 77.194C169.3 77.239 169.222 77.3018 169.159 77.3786C168.702 78.0535 168.519 78.8774 168.647 79.6826C168.77 81.0803 169.461 82.2426 170.183 82.2426C170.282 82.2361 170.379 82.2091 170.467 82.1633C170.555 82.1174 170.633 82.0538 170.695 81.9763C171.155 81.3045 171.339 80.4811 171.207 79.6775C171.059 78.2951 170.368 77.1175 169.671 77.1175Z" fill="#263238"/>
<path d="M172.031 77.655C172.084 77.6593 172.137 77.6448 172.18 77.6141C172.205 77.598 172.226 77.5771 172.243 77.5527C172.26 77.5283 172.272 77.5008 172.278 77.4717C172.284 77.4427 172.284 77.4128 172.279 77.3836C172.274 77.3544 172.262 77.3266 172.246 77.3018C172.052 76.994 171.788 76.7361 171.476 76.5485C171.164 76.3609 170.812 76.2489 170.449 76.2214C170.39 76.2214 170.333 76.2442 170.29 76.2853C170.247 76.3263 170.221 76.3823 170.219 76.4416C170.219 76.5018 170.242 76.5597 170.284 76.6027C170.327 76.6458 170.384 76.6707 170.444 76.672C170.733 76.6992 171.012 76.7928 171.259 76.9456C171.506 77.0984 171.714 77.3061 171.867 77.5526C171.886 77.5801 171.91 77.6034 171.939 77.621C171.967 77.6386 171.998 77.6502 172.031 77.655Z" fill="#263238"/>
<path d="M183.772 79.2934C182.799 83.9578 182.472 86.7277 179.738 88.873C178.858 89.5797 177.802 90.0326 176.684 90.1828C175.566 90.3329 174.428 90.1746 173.393 89.725C172.358 89.2754 171.466 88.5515 170.813 87.6316C170.16 86.7117 169.771 85.6307 169.687 84.5056C169.288 80.1792 170.941 73.2826 175.831 71.9206C176.88 71.6007 177.995 71.5618 179.064 71.8078C180.133 72.0538 181.119 72.5761 181.923 73.3224C182.727 74.0688 183.321 75.0131 183.645 76.0609C183.97 77.1087 184.013 78.2234 183.772 79.2934Z" fill="#B55B52"/>
<path d="M190.131 153.989C190.371 148.765 189.914 143.533 188.774 138.429H172.257C173.539 143.516 174.174 148.744 174.146 153.989H190.131Z" fill="#407BFF"/>
<path opacity="0.3" d="M190.131 153.989C190.371 148.765 189.914 143.533 188.774 138.429H172.257C173.539 143.516 174.174 148.744 174.146 153.989H190.131Z" fill="white"/>
<path d="M173.655 80.6963C172.743 80.2406 171.607 75.6889 171.919 74.071C172.231 72.4531 175.902 70.7123 179.512 71.3676C183.122 72.023 184.673 73.2876 185.374 76.5747C186.096 79.9846 183.465 85.6627 182.164 86.103C181.393 86.376 180.573 86.4816 179.758 86.4128C178.943 86.3439 178.152 86.1022 177.438 85.7036C176.276 84.992 175.672 79.7593 173.655 80.6963Z" fill="#263238"/>
<path d="M172.698 75.7043C170.936 75.8067 169.257 73.0009 170.875 70.4973C171.34 69.7836 172 69.2191 172.778 68.8713C173.555 68.5235 174.416 68.4072 175.258 68.5363C175.258 68.5363 174.52 69.975 176.978 69.6729C179.436 69.3709 184.013 70.0569 185.61 71.7773C187.587 73.8969 186.394 78.0646 183.419 77.0406C180.444 76.0166 172.698 75.7043 172.698 75.7043Z" fill="#263238"/>
<path d="M172.226 75.776C171.858 75.7585 171.497 75.6626 171.169 75.4949C170.84 75.3271 170.552 75.0914 170.321 74.8032C169.861 74.2531 169.563 73.586 169.46 72.8763C169.357 72.1666 169.453 71.4423 169.738 70.784C169.744 70.7682 169.754 70.7538 169.766 70.7417C169.777 70.7295 169.792 70.7198 169.807 70.7132C169.823 70.7065 169.84 70.703 169.857 70.7029C169.874 70.7027 169.891 70.706 169.907 70.7123C169.923 70.7187 169.937 70.7282 169.949 70.7401C169.961 70.7521 169.971 70.7663 169.978 70.782C169.984 70.7977 169.988 70.8145 169.988 70.8315C169.988 70.8486 169.985 70.8655 169.978 70.8813C169.708 71.4946 169.615 72.1713 169.71 72.8347C169.805 73.4981 170.084 74.1215 170.516 74.6343C170.753 74.9518 171.073 75.1982 171.44 75.3462C171.808 75.4943 172.209 75.5385 172.6 75.4739C172.632 75.4674 172.666 75.4733 172.694 75.4903C172.723 75.5074 172.744 75.5344 172.753 75.5661C172.761 75.5993 172.756 75.6343 172.739 75.6639C172.722 75.6934 172.694 75.7152 172.661 75.7248C172.519 75.7595 172.373 75.7767 172.226 75.776Z" fill="#263238"/>
<path d="M176.547 80.1075C176.622 81.3169 176.232 82.5093 175.457 83.4406C174.433 84.654 173.066 83.9219 172.651 82.4627C172.277 81.1468 172.364 78.935 173.742 78.254C175.119 77.5731 176.44 78.6278 176.547 80.1075Z" fill="#B55B52"/>
<path d="M160.998 153.989H179.353C180.241 148.852 180.46 143.622 180.003 138.429H163.159C163.159 138.429 162.211 144.998 160.998 153.989Z" fill="#407BFF"/>
<path opacity="0.3" d="M160.998 153.989H179.353C180.241 148.852 180.46 143.622 180.003 138.429H163.159C163.159 138.429 162.211 144.998 160.998 153.989Z" fill="white"/>
</svg>
