<svg width="110" height="110" viewBox="0 0 110 110" fill="none" xmlns="http://www.w3.org/2000/svg">
<g clip-path="url(#clip0_85_4726)">
<path d="M109.756 83.9487H0.245117V84.0035H109.756V83.9487Z" fill="#EBEBEB"/>
<path d="M98.7831 87.4727H86.6865V87.5274H98.7831V87.4727Z" fill="#EBEBEB"/>
<path d="M72.6318 86.3252H70.7285V86.38H72.6318V86.3252Z" fill="#EBEBEB"/>
<path d="M86.0273 85.4399H81.8242V85.4947H86.0273V85.4399Z" fill="#EBEBEB"/>
<path d="M21.1949 85.8086H11.7354V85.8633H21.1949V85.8086Z" fill="#EBEBEB"/>
<path d="M57.4209 87.2231H47.4072V87.2779H57.4209V87.2231Z" fill="#EBEBEB"/>
<path d="M51.5268 86.2969H31.0088V86.3516H51.5268V86.2969Z" fill="#EBEBEB"/>
<path d="M53.4065 72.9301C53.4065 73.0945 53.3741 73.2573 53.3111 73.4092C53.2481 73.561 53.1558 73.699 53.0394 73.8152C52.9231 73.9313 52.7849 74.0234 52.6329 74.0861C52.481 74.1488 52.3181 74.181 52.1537 74.1807H9.86268C9.53138 74.1801 9.21384 74.0481 8.97978 73.8136C8.74572 73.5792 8.61426 73.2614 8.61426 72.9301V13.4809C8.61714 13.1515 8.74987 12.8365 8.98363 12.6044C9.21738 12.3723 9.53327 12.2418 9.86268 12.2412H52.1537C52.4854 12.2412 52.8035 12.373 53.038 12.6075C53.2725 12.842 53.4043 13.1601 53.4043 13.4918M53.3495 13.4918C53.3507 13.3339 53.3206 13.1774 53.2611 13.0312C53.2015 12.8849 53.1137 12.7519 53.0025 12.6398C52.8914 12.5276 52.7592 12.4386 52.6135 12.3777C52.4678 12.3168 52.3116 12.2853 52.1537 12.285H9.86268C9.5459 12.2856 9.24229 12.4118 9.0185 12.636C8.7947 12.8603 8.66901 13.1641 8.66901 13.4809V72.9301C8.66901 73.2469 8.7947 73.5507 9.0185 73.7749C9.24229 73.9991 9.5459 74.1254 9.86268 74.1259H52.1537C52.4707 74.1254 52.7745 73.9992 52.9986 73.775C53.2228 73.5509 53.349 73.2471 53.3495 72.9301" fill="#EBEBEB"/>
<path d="M99.5301 74.1807H57.2369C56.9054 74.1801 56.5877 74.0482 56.3533 73.8138C56.1189 73.5793 55.9869 73.2616 55.9863 72.9301V13.4809C55.9898 13.1513 56.123 12.8363 56.3571 12.6043C56.5912 12.3722 56.9073 12.2418 57.2369 12.2412H99.5301C99.8592 12.2424 100.175 12.3731 100.408 12.6052C100.641 12.8372 100.774 13.1519 100.776 13.4809V72.9301C100.776 73.261 100.645 73.5784 100.412 73.8128C100.178 74.0473 99.8611 74.1795 99.5301 74.1807ZM57.2369 12.285C56.92 12.2856 56.6161 12.4118 56.392 12.6359C56.1678 12.8601 56.0417 13.1639 56.0411 13.4809V72.9301C56.0417 73.2471 56.1678 73.5509 56.392 73.775C56.6161 73.9992 56.92 74.1254 57.2369 74.1259H99.5301C99.8471 74.1254 100.151 73.9992 100.375 73.775C100.599 73.5509 100.725 73.2471 100.726 72.9301V13.4809C100.725 13.1639 100.599 12.8601 100.375 12.6359C100.151 12.4118 99.8471 12.2856 99.5301 12.285H57.2369Z" fill="#EBEBEB"/>
<path d="M60.6671 24.0308H21.1993C20.5461 24.0308 20.0166 24.5603 20.0166 25.2135V43.6333C20.0166 44.2865 20.5461 44.816 21.1993 44.816H60.6671C61.3203 44.816 61.8498 44.2865 61.8498 43.6333V25.2135C61.8498 24.5603 61.3203 24.0308 60.6671 24.0308Z" fill="#F5F5F5"/>
<path d="M58.9259 22.2896H19.4581C18.8049 22.2896 18.2754 22.8191 18.2754 23.4723V41.892C18.2754 42.5452 18.8049 43.0748 19.4581 43.0748H58.9259C59.5791 43.0748 60.1086 42.5452 60.1086 41.892V23.4723C60.1086 22.8191 59.5791 22.2896 58.9259 22.2896Z" fill="#E0E0E0"/>
<path d="M57.1388 20.5029H17.671C17.0178 20.5029 16.4883 21.0325 16.4883 21.6857V40.1054C16.4883 40.7586 17.0178 41.2881 17.671 41.2881H57.1388C57.792 41.2881 58.3215 40.7586 58.3215 40.1054V21.6857C58.3215 21.0325 57.792 20.5029 57.1388 20.5029Z" fill="#EBEBEB"/>
<path d="M54.6698 22.8394H20.1388C19.4904 22.8394 18.9648 23.365 18.9648 24.0133V28.1835C18.9648 28.8319 19.4904 29.3575 20.1388 29.3575H54.6698C55.3182 29.3575 55.8438 28.8319 55.8438 28.1835V24.0133C55.8438 23.365 55.3182 22.8394 54.6698 22.8394Z" fill="white"/>
<path d="M47.8274 32.0781H26.9809C26.5104 32.0781 26.1289 32.4596 26.1289 32.9301V36.8528C26.1289 37.3234 26.5104 37.7048 26.9809 37.7048H47.8274C48.298 37.7048 48.6794 37.3234 48.6794 36.8528V32.9301C48.6794 32.4596 48.298 32.0781 47.8274 32.0781Z" fill="#E0E0E0"/>
<path d="M37.4051 28.0874C37.3073 28.0868 37.2137 28.0476 37.1447 27.9782C37.0758 27.9089 37.0371 27.8151 37.0371 27.7173V24.4779C37.0443 24.385 37.0863 24.2981 37.1547 24.2348C37.2231 24.1714 37.3129 24.1362 37.4062 24.1362C37.4994 24.1362 37.5892 24.1714 37.6576 24.2348C37.7261 24.2981 37.768 24.385 37.7752 24.4779V27.7173C37.7752 27.8154 37.7362 27.9096 37.6668 27.979C37.5974 28.0484 37.5032 28.0874 37.4051 28.0874Z" fill="#E0E0E0"/>
<path d="M39.0234 26.4775H35.7863C35.7354 26.4814 35.6843 26.4748 35.6362 26.458C35.588 26.4412 35.5438 26.4147 35.5064 26.38C35.4689 26.3454 35.4391 26.3034 35.4187 26.2566C35.3982 26.2099 35.3877 26.1594 35.3877 26.1084C35.3877 26.0574 35.3982 26.007 35.4187 25.9602C35.4391 25.9135 35.4689 25.8715 35.5064 25.8368C35.5438 25.8022 35.588 25.7756 35.6362 25.7589C35.6843 25.7421 35.7354 25.7355 35.7863 25.7394H39.0234C39.0743 25.7355 39.1254 25.7421 39.1736 25.7589C39.2218 25.7756 39.2659 25.8022 39.3034 25.8368C39.3408 25.8715 39.3707 25.9135 39.3911 25.9602C39.4115 26.007 39.422 26.0574 39.422 26.1084C39.422 26.1594 39.4115 26.2099 39.3911 26.2566C39.3707 26.3034 39.3408 26.3454 39.3034 26.38C39.2659 26.4147 39.2218 26.4412 39.1736 26.458C39.1254 26.4748 39.0743 26.4814 39.0234 26.4775Z" fill="#E0E0E0"/>
<path d="M38.5502 27.612C38.5018 27.6122 38.4539 27.6029 38.4091 27.5845C38.3644 27.566 38.3237 27.5389 38.2896 27.5047L35.9986 25.2137C35.9644 25.1795 35.9372 25.1388 35.9187 25.0941C35.9002 25.0494 35.8906 25.0015 35.8906 24.9531C35.8906 24.9047 35.9002 24.8567 35.9187 24.812C35.9372 24.7673 35.9644 24.7267 35.9986 24.6924C36.0328 24.6582 36.0734 24.6311 36.1182 24.6125C36.1629 24.594 36.2108 24.5845 36.2592 24.5845C36.3076 24.5845 36.3556 24.594 36.4003 24.6125C36.445 24.6311 36.4856 24.6582 36.5199 24.6924L38.8108 26.9812C38.8802 27.0506 38.9192 27.1448 38.9192 27.2429C38.9192 27.3411 38.8802 27.4353 38.8108 27.5047C38.7766 27.5389 38.736 27.566 38.6913 27.5845C38.6465 27.6029 38.5986 27.6122 38.5502 27.612Z" fill="#E0E0E0"/>
<path d="M36.2587 27.612C36.2103 27.6122 36.1624 27.6029 36.1176 27.5845C36.0729 27.566 36.0322 27.5389 35.9981 27.5047C35.9286 27.4353 35.8896 27.3411 35.8896 27.2429C35.8896 27.1448 35.9286 27.0506 35.9981 26.9812L38.289 24.6924C38.3582 24.6233 38.4519 24.5845 38.5497 24.5845C38.6474 24.5845 38.7412 24.6233 38.8103 24.6924C38.8794 24.7616 38.9183 24.8553 38.9183 24.9531C38.9183 25.0508 38.8794 25.1446 38.8103 25.2137L36.5193 27.5047C36.4851 27.5389 36.4445 27.566 36.3998 27.5845C36.355 27.6029 36.3071 27.6122 36.2587 27.612Z" fill="#E0E0E0"/>
<path d="M46.6299 28.0874C46.5317 28.0874 46.4376 28.0484 46.3682 27.979C46.2988 27.9096 46.2598 27.8154 46.2598 27.7173V24.4779C46.2669 24.385 46.3089 24.2981 46.3773 24.2348C46.4458 24.1714 46.5356 24.1362 46.6288 24.1362C46.7221 24.1362 46.8119 24.1714 46.8803 24.2348C46.9487 24.2981 46.9907 24.385 46.9979 24.4779V27.7173C46.9979 27.8151 46.9592 27.9089 46.8902 27.9782C46.8213 28.0476 46.7277 28.0868 46.6299 28.0874Z" fill="#E0E0E0"/>
<path d="M48.248 26.4774H45.0087C44.9157 26.4702 44.8289 26.4282 44.7655 26.3598C44.7022 26.2914 44.667 26.2016 44.667 26.1083C44.667 26.0151 44.7022 25.9253 44.7655 25.8568C44.8289 25.7884 44.9157 25.7464 45.0087 25.7393H48.248C48.341 25.7464 48.4278 25.7884 48.4912 25.8568C48.5545 25.9253 48.5897 26.0151 48.5897 26.1083C48.5897 26.2016 48.5545 26.2914 48.4912 26.3598C48.4278 26.4282 48.341 26.4702 48.248 26.4774Z" fill="#E0E0E0"/>
<path d="M47.7726 27.612C47.7242 27.6122 47.6763 27.6029 47.6315 27.5845C47.5868 27.566 47.5462 27.5389 47.512 27.5047L45.2232 25.2137C45.189 25.1795 45.1618 25.1388 45.1433 25.0941C45.1248 25.0494 45.1152 25.0015 45.1152 24.9531C45.1152 24.9047 45.1248 24.8567 45.1433 24.812C45.1618 24.7673 45.189 24.7267 45.2232 24.6924C45.2574 24.6582 45.2981 24.6311 45.3428 24.6125C45.3875 24.594 45.4354 24.5845 45.4838 24.5845C45.5322 24.5845 45.5802 24.594 45.6249 24.6125C45.6696 24.6311 45.7102 24.6582 45.7445 24.6924L48.0354 26.9812C48.1038 27.0512 48.1421 27.1451 48.1421 27.2429C48.1421 27.3408 48.1038 27.4347 48.0354 27.5047C48.0009 27.5391 47.9599 27.5663 47.9148 27.5847C47.8697 27.6031 47.8213 27.6124 47.7726 27.612Z" fill="#E0E0E0"/>
<path d="M45.4843 27.612C45.4359 27.6122 45.3879 27.6029 45.3432 27.5844C45.2985 27.566 45.2578 27.5389 45.2236 27.5047C45.1542 27.4352 45.1152 27.3411 45.1152 27.2429C45.1152 27.1448 45.1542 27.0506 45.2236 26.9812L47.5124 24.6924C47.5458 24.6543 47.5865 24.6234 47.6323 24.6017C47.678 24.58 47.7277 24.5679 47.7783 24.5661C47.8289 24.5644 47.8793 24.573 47.9264 24.5916C47.9736 24.6101 48.0164 24.6381 48.0523 24.6738C48.0881 24.7095 48.1163 24.7522 48.135 24.7993C48.1537 24.8463 48.1626 24.8967 48.161 24.9473C48.1595 24.9979 48.1476 25.0476 48.1261 25.0935C48.1046 25.1393 48.0739 25.1802 48.0359 25.2137L45.7449 27.5047C45.7107 27.5389 45.6701 27.566 45.6254 27.5844C45.5806 27.6029 45.5327 27.6122 45.4843 27.612Z" fill="#E0E0E0"/>
<path d="M28.1817 28.0874C28.0835 28.0874 27.9894 28.0484 27.9199 27.979C27.8505 27.9096 27.8115 27.8154 27.8115 27.7173V24.4779C27.8187 24.385 27.8607 24.2981 27.9291 24.2348C27.9975 24.1714 28.0873 24.1362 28.1806 24.1362C28.2738 24.1362 28.3636 24.1714 28.432 24.2348C28.5005 24.2981 28.5425 24.385 28.5496 24.4779V27.7173C28.5496 27.8151 28.5109 27.9089 28.442 27.9782C28.373 28.0476 28.2795 28.0868 28.1817 28.0874Z" fill="#E0E0E0"/>
<path d="M29.7998 26.4774H26.5604C26.4675 26.4702 26.3806 26.4282 26.3173 26.3598C26.2539 26.2914 26.2188 26.2016 26.2188 26.1083C26.2188 26.0151 26.2539 25.9253 26.3173 25.8568C26.3806 25.7884 26.4675 25.7464 26.5604 25.7393H29.7998C29.8928 25.7464 29.9796 25.7884 30.0429 25.8568C30.1063 25.9253 30.1415 26.0151 30.1415 26.1083C30.1415 26.2016 30.1063 26.2914 30.0429 26.3598C29.9796 26.4282 29.8928 26.4702 29.7998 26.4774Z" fill="#E0E0E0"/>
<path d="M29.3244 27.612C29.276 27.6122 29.228 27.6029 29.1833 27.5845C29.1386 27.566 29.0979 27.5389 29.0637 27.5047L26.775 25.2137C26.7407 25.1795 26.7136 25.1388 26.6951 25.0941C26.6765 25.0494 26.667 25.0015 26.667 24.9531C26.667 24.9047 26.6765 24.8567 26.6951 24.812C26.7136 24.7673 26.7407 24.7267 26.775 24.6924C26.8092 24.6582 26.8498 24.6311 26.8945 24.6125C26.9393 24.594 26.9872 24.5845 27.0356 24.5845C27.084 24.5845 27.1319 24.594 27.1766 24.6125C27.2214 24.6311 27.262 24.6582 27.2962 24.6924L29.5938 26.9812C29.6621 27.0512 29.7004 27.1451 29.7004 27.2429C29.7004 27.3408 29.6621 27.4347 29.5938 27.5047C29.5585 27.5399 29.5164 27.5675 29.4701 27.586C29.4238 27.6044 29.3742 27.6133 29.3244 27.612Z" fill="#E0E0E0"/>
<path d="M27.036 27.612C26.9876 27.6123 26.9397 27.603 26.8949 27.5846C26.8501 27.5662 26.8095 27.539 26.7754 27.5047C26.706 27.4352 26.667 27.3411 26.667 27.2429C26.667 27.1448 26.706 27.0506 26.7754 26.9812L29.0642 24.6924C29.0975 24.6543 29.1383 24.6234 29.184 24.6017C29.2298 24.58 29.2795 24.5679 29.3301 24.5661C29.3807 24.5644 29.4311 24.573 29.4782 24.5916C29.5253 24.6101 29.5681 24.6381 29.604 24.6738C29.6399 24.7095 29.6681 24.7522 29.6868 24.7993C29.7055 24.8463 29.7143 24.8967 29.7128 24.9473C29.7113 24.9979 29.6994 25.0476 29.6778 25.0935C29.6563 25.1393 29.6256 25.1802 29.5877 25.2137L27.2967 27.5047C27.2625 27.5389 27.2219 27.566 27.1771 27.5844C27.1324 27.6029 27.0844 27.6122 27.036 27.612Z" fill="#E0E0E0"/>
<path d="M15.3006 66.9966L12.4007 57.7977C12.375 57.712 12.3671 57.6219 12.3775 57.533C12.3878 57.4441 12.4162 57.3583 12.4609 57.2808C12.5056 57.2033 12.5657 57.1357 12.6374 57.0822C12.7092 57.0287 12.7911 56.9905 12.8782 56.9698L13.2483 56.8887C14.3837 56.6197 15.4705 56.1764 16.4701 55.5746C17.4739 54.9491 18.3363 54.121 19.002 53.1435C19.0961 53.0059 19.239 52.9093 19.4016 52.8731C19.5643 52.8369 19.7346 52.8639 19.8781 52.9485C20.9002 53.5451 22.0342 53.9246 23.2095 54.0634C24.3706 54.182 25.5432 54.12 26.6853 53.8794L27.0577 53.7961C27.145 53.7762 27.2356 53.7746 27.3236 53.7917C27.4116 53.8087 27.495 53.8439 27.5686 53.895C27.6422 53.9461 27.7043 54.0121 27.751 54.0886C27.7976 54.1651 27.8278 54.2505 27.8396 54.3393L29.1537 63.9018C29.1676 64.0003 29.1583 64.1006 29.1268 64.1948C29.0952 64.2891 29.0422 64.3747 28.9719 64.445L23.5774 69.8746C23.49 69.9611 23.3799 70.0214 23.2599 70.0485C23.1399 70.0756 23.0146 70.0685 22.8984 70.0279L15.697 67.4193C15.603 67.3839 15.5184 67.3273 15.4497 67.254C15.3809 67.1808 15.3299 67.0927 15.3006 66.9966Z" fill="#F0F0F0"/>
<path d="M21.37 58.8444L21.2715 61.385L22.6075 66.1071L20.7151 61.3544L20.4742 59.1116L19.2148 57.7471L19.5631 53.2462C19.5667 53.1968 19.5828 53.1491 19.61 53.1077C19.6371 53.0663 19.6744 53.0325 19.7182 53.0095C19.7621 52.9864 19.811 52.975 19.8605 52.9762C19.91 52.9773 19.9584 52.9911 20.0011 53.0162C20.3086 53.1904 20.6268 53.3447 20.9539 53.4783C21.0009 53.4985 21.0393 53.5346 21.0625 53.5802C21.0857 53.6258 21.0922 53.6781 21.0809 53.728L20.218 57.1623L21.37 58.8444Z" fill="#E0E0E0"/>
<path d="M79.0214 22.3315L66.87 26.2739C66.6298 26.3521 66.4304 26.5224 66.3155 26.7473C66.2006 26.9723 66.1794 27.2336 66.2568 27.4741L68.9661 35.832C69.0443 36.0722 69.2146 36.2716 69.4395 36.3865C69.6645 36.5015 69.9258 36.5226 70.1663 36.4453L82.3177 32.5029C82.5579 32.4246 82.7572 32.2544 82.8722 32.0294C82.9871 31.8045 83.0082 31.5431 82.9309 31.3026L80.2216 22.9447C80.1434 22.7046 79.9731 22.5052 79.7482 22.3902C79.5232 22.2753 79.2619 22.2542 79.0214 22.3315Z" fill="#F5F5F5"/>
<path d="M75.2517 29.0463L76.6009 32.0557L74.5355 32.7259L73.8609 29.4975C73.5038 29.4407 73.1762 29.2654 72.931 28.9997C72.6857 28.7341 72.537 28.3936 72.5088 28.0331C72.4806 27.6726 72.5746 27.3132 72.7757 27.0126C72.9767 26.7121 73.273 26.488 73.617 26.3764C73.9609 26.2648 74.3324 26.2723 74.6715 26.3976C75.0107 26.5229 75.2978 26.7587 75.4866 27.0671C75.6754 27.3754 75.7549 27.7384 75.7123 28.0974C75.6697 28.4565 75.5074 28.7907 75.2517 29.0463Z" fill="#E0E0E0"/>
<path d="M64.4927 16.052C62.6157 18.6934 63.2684 22.3774 65.7806 24.4252L66.3785 24.9136C66.5528 25.0554 66.7762 25.1221 66.9996 25.0991C67.2231 25.0761 67.4282 24.9653 67.57 24.791C67.7117 24.6167 67.7784 24.3933 67.7554 24.1698C67.7324 23.9464 67.6216 23.7412 67.4473 23.5995L66.6829 22.9731C66.1977 22.5763 65.8027 22.0805 65.5243 21.5189C65.2459 20.9573 65.0905 20.3427 65.0685 19.7162C65.0466 19.0898 65.1585 18.4658 65.3968 17.8861C65.6352 17.3063 65.9945 16.7841 66.4508 16.3543C68.0737 14.8211 70.6341 14.8364 72.3644 16.2491L73.3149 14.843C72.6671 14.3165 71.918 13.9287 71.1141 13.7035C70.3102 13.4784 69.4687 13.4207 68.6416 13.534C67.8145 13.6473 67.0195 13.9293 66.3058 14.3624C65.5922 14.7956 64.9751 15.3706 64.4927 16.052Z" fill="#EBEBEB"/>
<path d="M82.7622 72.5774C82.0598 72.5785 81.3641 72.441 80.715 72.1726C80.0659 71.9042 79.4762 71.5104 78.9797 71.0135C78.1018 70.1381 77.5547 68.9853 77.4317 67.7517C77.3087 66.518 77.6174 65.2799 78.3051 64.2483C78.9928 63.2168 80.017 62.4557 81.2031 62.0948C82.3892 61.7339 83.6637 61.7956 84.8094 62.2692C85.9551 62.7429 86.9011 63.5993 87.486 64.6924C88.071 65.7855 88.2587 67.0476 88.0172 68.2637C87.7757 69.4797 87.1199 70.5743 86.1617 71.3609C85.2034 72.1475 84.002 72.5774 82.7622 72.5774ZM80.4406 69.5527C80.8999 70.0125 81.4853 70.3258 82.1227 70.4529C82.7601 70.58 83.4208 70.5152 84.0214 70.2667C84.622 70.0181 85.1353 69.597 85.4965 69.0567C85.8576 68.5163 86.0504 67.881 86.0504 67.231C86.0504 66.5811 85.8576 65.9457 85.4965 65.4054C85.1353 64.865 84.622 64.4439 84.0214 64.1954C83.4208 63.9468 82.7601 63.882 82.1227 64.0091C81.4853 64.1362 80.8999 64.4495 80.4406 64.9094C79.8253 65.5254 79.4798 66.3604 79.4798 67.231C79.4798 68.1016 79.8253 68.9367 80.4406 69.5527Z" fill="#EBEBEB"/>
<path d="M93.4106 78.9134C93.2732 78.9138 93.1371 78.8867 93.0103 78.8336C92.8836 78.7806 92.7687 78.7027 92.6725 78.6046L85.0746 71.0067C84.8932 70.8105 84.7948 70.5517 84.8 70.2846C84.8052 70.0175 84.9137 69.7627 85.1026 69.5738C85.2915 69.3848 85.5463 69.2764 85.8134 69.2712C86.0805 69.266 86.3393 69.3644 86.5355 69.5458L94.1334 77.1437C94.2774 77.2884 94.3754 77.4725 94.4149 77.6728C94.4545 77.8731 94.4338 78.0806 94.3556 78.2692C94.2773 78.4578 94.145 78.619 93.9753 78.7324C93.8055 78.8459 93.606 78.9066 93.4018 78.9068L93.4106 78.9134Z" fill="#EBEBEB"/>
<path d="M89.4507 80.3434C89.2466 80.3426 89.0472 80.2815 88.8777 80.1677C88.7082 80.054 88.576 79.8927 88.4979 79.704C88.4197 79.5154 88.399 79.308 88.4384 79.1076C88.4778 78.9073 88.5755 78.7231 88.7192 78.5781L91.4154 75.8841C91.5098 75.782 91.624 75.6999 91.7509 75.6429C91.8779 75.5859 92.015 75.5552 92.1542 75.5524C92.2933 75.5497 92.4315 75.5751 92.5606 75.6271C92.6897 75.6791 92.8069 75.7566 92.9053 75.855C93.0037 75.9534 93.0813 76.0707 93.1332 76.1998C93.1852 76.3288 93.2106 76.4671 93.2079 76.6062C93.2052 76.7453 93.1744 76.8825 93.1174 77.0094C93.0604 77.1364 92.9784 77.2505 92.8762 77.345L90.1801 80.039C90.0848 80.1356 89.9712 80.2122 89.846 80.2645C89.7208 80.3168 89.5864 80.3436 89.4507 80.3434Z" fill="#EBEBEB"/>
<path d="M88.1916 77.3801C87.9876 77.3794 87.7884 77.3185 87.619 77.2048C87.4496 77.0912 87.3176 76.93 87.2396 76.7415C87.1617 76.553 87.1412 76.3456 87.1808 76.1455C87.2204 75.9454 87.3184 75.7615 87.4623 75.617L89.3043 73.7728C89.3987 73.6706 89.5129 73.5886 89.6398 73.5316C89.7668 73.4746 89.9039 73.4438 90.043 73.4411C90.1822 73.4384 90.3204 73.4638 90.4495 73.5158C90.5786 73.5678 90.6958 73.6453 90.7942 73.7437C90.8926 73.8421 90.9701 73.9594 91.0221 74.0884C91.0741 74.2175 91.0995 74.3558 91.0968 74.4949C91.0941 74.634 91.0633 74.7712 91.0063 74.8981C90.9493 75.0251 90.8673 75.1392 90.7651 75.2337L88.9232 77.0713C88.8277 77.1685 88.7139 77.2459 88.5883 77.2989C88.4627 77.3519 88.3279 77.3795 88.1916 77.3801Z" fill="#EBEBEB"/>
<path d="M55.0004 93.8405C78.4538 93.8405 97.4666 92.7305 97.4666 91.3612C97.4666 89.9919 78.4538 88.8818 55.0004 88.8818C31.547 88.8818 12.5342 89.9919 12.5342 91.3612C12.5342 92.7305 31.547 93.8405 55.0004 93.8405Z" fill="#F5F5F5"/>
<path d="M71.0947 57.0156C70.3018 58.148 68.0547 60.8507 66.0791 61.58C62.9646 67.7587 67.2662 76.5962 71.4276 79.4807C71.4276 79.4807 83.0577 73.4445 84.9106 58.6736L71.0947 57.0156Z" fill="#263238"/>
<path d="M85.9293 21.3108C83.5682 20.8727 78.0949 20.6384 77.6853 27.0053C77.2757 33.3723 75.2104 37.5644 80.4559 38.6836L80.8239 36.9533L85.9293 21.3108Z" fill="#263238"/>
<path opacity="0.2" d="M85.9293 21.3108C83.5682 20.8727 78.0949 20.6384 77.6853 27.0053C77.2757 33.3723 75.2104 37.5644 80.4559 38.6836L80.8239 36.9533L85.9293 21.3108Z" fill="white"/>
<path d="M77.0393 36.8178C76.4537 36.5623 75.7907 36.5498 75.1959 36.7831C74.6012 37.0164 74.1235 37.4763 73.8678 38.0618L73.8569 38.0881L72.8209 40.4601C72.4748 41.2551 72.1178 42.0436 71.763 42.8233C71.5856 43.2132 71.4038 43.5987 71.2155 43.9754C71.0271 44.3521 70.8497 44.7332 70.6591 45.0946C70.4686 45.456 70.2715 45.8064 70.0809 46.1372C70.0021 46.2686 69.9232 46.3956 69.8466 46.5161L69.4742 46.5708C69.0342 46.6197 68.5919 46.6446 68.1491 46.6453C67.687 46.6453 67.2139 46.6278 66.7321 46.6015C66.2502 46.5752 65.764 46.5226 65.2734 46.4723C64.2922 46.3693 63.3022 46.2248 62.2991 46.0605C61.8019 45.9795 61.3003 45.8962 60.801 45.802L59.3138 45.5327H59.2722C58.9878 45.4819 58.6946 45.5352 58.4463 45.6829C58.1979 45.8305 58.0111 46.0627 57.9199 46.3368C57.8287 46.6109 57.8392 46.9087 57.9496 47.1757C58.06 47.4427 58.2628 47.661 58.5209 47.7908C59.4925 48.2642 60.4874 48.6882 61.5018 49.0611C62.0078 49.2451 62.5159 49.4269 63.035 49.5889C63.5541 49.751 64.0753 49.9043 64.6054 50.0467C65.6899 50.3369 66.7936 50.5499 67.9082 50.6841C68.5031 50.7508 69.1012 50.7838 69.6998 50.7826C70.3628 50.7798 71.0236 50.7064 71.671 50.5636C72.0343 50.4829 72.3662 50.2979 72.626 50.0314L72.7267 49.9284C73.1127 49.5251 73.4713 49.0963 73.7999 48.645C74.1066 48.2332 74.3716 47.8171 74.63 47.4075C75.1491 46.5883 75.6069 45.7692 76.0383 44.9435C76.2573 44.5317 76.4654 44.1178 76.6647 43.7016C76.864 43.2855 77.0677 42.8693 77.2539 42.4488C77.4401 42.0283 77.6306 41.6122 77.8058 41.1851C77.9811 40.758 78.1519 40.344 78.3227 39.8884C78.5449 39.3098 78.5355 38.6678 78.2964 38.0959C78.0574 37.524 77.6071 37.0662 77.0393 36.8178Z" fill="#263238"/>
<path opacity="0.2" d="M77.0393 36.8178C76.4537 36.5623 75.7907 36.5498 75.1959 36.7831C74.6012 37.0164 74.1235 37.4763 73.8678 38.0618L73.8569 38.0881L72.8209 40.4601C72.4748 41.2551 72.1178 42.0436 71.763 42.8233C71.5856 43.2132 71.4038 43.5987 71.2155 43.9754C71.0271 44.3521 70.8497 44.7332 70.6591 45.0946C70.4686 45.456 70.2715 45.8064 70.0809 46.1372C70.0021 46.2686 69.9232 46.3956 69.8466 46.5161L69.4742 46.5708C69.0342 46.6197 68.5919 46.6446 68.1491 46.6453C67.687 46.6453 67.2139 46.6278 66.7321 46.6015C66.2502 46.5752 65.764 46.5226 65.2734 46.4723C64.2922 46.3693 63.3022 46.2248 62.2991 46.0605C61.8019 45.9795 61.3003 45.8962 60.801 45.802L59.3138 45.5327H59.2722C58.9878 45.4819 58.6946 45.5352 58.4463 45.6829C58.1979 45.8305 58.0111 46.0627 57.9199 46.3368C57.8287 46.6109 57.8392 46.9087 57.9496 47.1757C58.06 47.4427 58.2628 47.661 58.5209 47.7908C59.4925 48.2642 60.4874 48.6882 61.5018 49.0611C62.0078 49.2451 62.5159 49.4269 63.035 49.5889C63.5541 49.751 64.0753 49.9043 64.6054 50.0467C65.6899 50.3369 66.7936 50.5499 67.9082 50.6841C68.5031 50.7508 69.1012 50.7838 69.6998 50.7826C70.3628 50.7798 71.0236 50.7064 71.671 50.5636C72.0343 50.4829 72.3662 50.2979 72.626 50.0314L72.7267 49.9284C73.1127 49.5251 73.4713 49.0963 73.7999 48.645C74.1066 48.2332 74.3716 47.8171 74.63 47.4075C75.1491 46.5883 75.6069 45.7692 76.0383 44.9435C76.2573 44.5317 76.4654 44.1178 76.6647 43.7016C76.864 43.2855 77.0677 42.8693 77.2539 42.4488C77.4401 42.0283 77.6306 41.6122 77.8058 41.1851C77.9811 40.758 78.1519 40.344 78.3227 39.8884C78.5449 39.3098 78.5355 38.6678 78.2964 38.0959C78.0574 37.524 77.6071 37.0662 77.0393 36.8178Z" fill="white"/>
<path d="M58.8841 45.3948L57.0837 44.8604L57.0684 47.9858C57.0684 47.9858 58.2182 48.1807 59.0396 47.8829C59.2804 47.7879 59.481 47.6126 59.6075 47.3867C59.734 47.1608 59.7787 46.8982 59.7339 46.6432L59.6857 46.3234C59.6531 46.1088 59.5606 45.9078 59.4188 45.7435C59.2769 45.5792 59.0916 45.4583 58.8841 45.3948Z" fill="#CE7A63"/>
<path d="M54.6947 46.1304L54.8743 47.2255C54.9082 47.437 55.0163 47.6294 55.1793 47.7683C55.3422 47.9072 55.5494 47.9834 55.7635 47.9834H57.0777L57.093 44.8579L55.4678 45.0769C55.3467 45.0925 55.2299 45.1326 55.1246 45.1947C55.0194 45.2567 54.9278 45.3395 54.8556 45.438C54.7833 45.5365 54.7317 45.6487 54.7041 45.7677C54.6764 45.8867 54.6732 46.0101 54.6947 46.1304Z" fill="#CE7A63"/>
<path d="M86.5403 36.0706C83.2494 35.5889 79.9152 35.4736 76.5988 35.7267C75.8447 35.7914 75.1396 36.1269 74.6137 36.6713C74.0879 37.2157 73.7769 37.932 73.7384 38.6879C73.471 45.2771 72.466 51.8156 70.7422 58.1809C72.1417 59.7776 76.9427 62.7212 84.7465 60.8508C87.274 56.582 89.0371 50.1778 90.7236 42.039C90.8712 41.3697 90.8781 40.6772 90.7439 40.0051C90.6097 39.3331 90.3373 38.6963 89.9439 38.1352C89.5506 37.574 89.0449 37.1007 88.459 36.7453C87.8731 36.3899 87.2197 36.1601 86.5403 36.0706Z" fill="#263238"/>
<path opacity="0.4" d="M86.5403 36.0706C83.2494 35.5889 79.9152 35.4736 76.5988 35.7267C75.8447 35.7914 75.1396 36.1269 74.6137 36.6713C74.0879 37.2157 73.7769 37.932 73.7384 38.6879C73.471 45.2771 72.466 51.8156 70.7422 58.1809C72.1417 59.7776 76.9427 62.7212 84.7465 60.8508C87.274 56.582 89.0371 50.1778 90.7236 42.039C90.8712 41.3697 90.8781 40.6772 90.7439 40.0051C90.6097 39.3331 90.3373 38.6963 89.9439 38.1352C89.5506 37.574 89.0449 37.1007 88.459 36.7453C87.8731 36.3899 87.2197 36.1601 86.5403 36.0706Z" fill="white"/>
<path opacity="0.4" d="M79.7131 37.5117C78.1909 41.7827 78.3113 44.573 77.9609 47.6021C77.6105 50.6311 76.0423 57.5961 74.3076 59.5892" stroke="#263238" stroke-width="0.403568" stroke-miterlimit="10"/>
<path d="M33.4625 28.3242C35.7053 29.3025 37.9291 30.318 40.1339 31.3708C42.3387 32.4235 44.5348 33.4938 46.7221 34.5816C51.0894 36.7718 55.4056 39.0672 59.6707 41.4677C63.9358 43.8682 68.1213 46.4052 72.2272 49.0787C76.3164 51.7771 80.307 54.6353 84.1442 57.7104C84.2226 57.7732 84.2879 57.8509 84.3362 57.9389C84.3846 58.027 84.4151 58.1237 84.4261 58.2236C84.4371 58.3234 84.4283 58.4245 84.4002 58.5209C84.3722 58.6174 84.3254 58.7074 84.2625 58.7858C84.1997 58.8642 84.122 58.9294 84.0339 58.9777C83.9459 59.0261 83.8492 59.0567 83.7493 59.0676C83.6495 59.0786 83.5484 59.0698 83.4519 59.0418C83.3555 59.0137 83.2655 58.9669 83.1871 58.904H83.174C79.4506 55.8049 75.5454 52.8985 71.5351 50.1432C67.4978 47.4244 63.3809 44.8238 59.1845 42.3416C54.988 39.8593 50.7244 37.4866 46.3936 35.2234C44.234 34.0888 42.062 32.9798 39.8777 31.8964C37.6933 30.813 35.495 29.7595 33.2829 28.7359C33.2286 28.7115 33.1862 28.6666 33.165 28.6109C33.1439 28.5552 33.1457 28.4935 33.1701 28.4391C33.1945 28.3848 33.2395 28.3424 33.2951 28.3213C33.3508 28.3001 33.4126 28.302 33.4669 28.3264L33.4625 28.3242Z" fill="#263238"/>
<path d="M77.8449 55.1497C74.3872 52.5813 70.8391 50.1384 67.2004 47.8212C65.3869 46.6531 63.558 45.5149 61.7139 44.4066C59.8697 43.2984 58.0131 42.2033 56.1441 41.1213C52.4061 38.9778 48.6244 36.9131 44.7988 34.9273C40.9746 32.943 37.1199 31.0156 33.2103 29.2065H33.2432C31.9389 29.0813 30.6261 29.0732 29.3205 29.1824C28.0142 29.2831 26.718 29.4867 25.4438 29.7913C24.8087 29.9442 24.1834 30.1351 23.5711 30.3629C22.9609 30.5818 22.3803 30.8761 21.8431 31.239C21.5812 31.4196 21.3504 31.6415 21.1597 31.8961C20.9715 32.137 20.8731 32.4359 20.8815 32.7415C20.9095 33.0491 21.0276 33.3417 21.221 33.5825C21.4163 33.8344 21.6422 34.061 21.8934 34.2571C22.4098 34.6519 22.9654 34.9924 23.5514 35.2734C24.1318 35.5647 24.7517 35.8012 25.3343 36.1276C25.9348 36.4342 26.4755 36.8459 26.9309 37.3432C27.1582 37.6056 27.3289 37.912 27.4325 38.2433C27.5232 38.5817 27.5323 38.9368 27.4588 39.2793C27.2832 39.9331 26.9762 40.5442 26.5564 41.0753C26.1644 41.6141 25.7329 42.1135 25.3167 42.6194C24.8925 43.1155 24.499 43.637 24.1384 44.181C23.7751 44.7159 23.5432 45.329 23.4616 45.9704C23.4135 46.6009 23.6043 47.2263 23.996 47.7226C24.3913 48.2298 24.8679 48.668 25.4065 49.0192C26.4688 49.753 27.7939 50.0026 29.0839 49.972C30.3869 49.9215 31.6777 49.7006 32.9234 49.3149C34.1749 48.933 35.4034 48.4796 36.603 47.957C39.0122 46.9341 41.3557 45.7273 43.7256 44.5775C44.906 43.9826 46.12 43.4568 47.3613 43.0027C47.6776 42.8923 48.0001 42.8008 48.3272 42.7289C48.6621 42.6495 49.0062 42.6163 49.3501 42.6304C49.5324 42.6395 49.7117 42.6803 49.8801 42.7508C50.0588 42.8256 50.2145 42.9466 50.3313 43.1012C50.5318 43.4067 50.63 43.7679 50.6116 44.1328C50.6119 44.1541 50.608 44.1753 50.6001 44.195C50.5923 44.2148 50.5806 44.2328 50.5657 44.2481C50.5509 44.2633 50.5332 44.2755 50.5136 44.2839C50.494 44.2924 50.473 44.2968 50.4517 44.2971C50.4093 44.2966 50.3687 44.2796 50.3385 44.2498C50.3083 44.22 50.2908 44.1797 50.2897 44.1372C50.3065 43.8415 50.2299 43.5481 50.0706 43.2984C49.9787 43.1899 49.8643 43.1028 49.7353 43.043C49.6064 42.9833 49.4659 42.9523 49.3238 42.9523C49.0094 42.9401 48.6948 42.9703 48.3885 43.0421C48.0737 43.1126 47.7629 43.2003 47.4577 43.3049C46.2281 43.7534 45.0251 44.2718 43.8548 44.8578C41.4893 46.0011 39.1458 47.2079 36.7125 48.2308C35.4984 48.7526 34.2552 49.2038 32.9891 49.5821C31.7183 49.9742 30.4019 50.1988 29.073 50.2501C28.4027 50.2683 27.7329 50.2006 27.0799 50.0486C26.4217 49.8951 25.7973 49.6219 25.2379 49.2426C24.6743 48.8728 24.1755 48.4125 23.7617 47.8803C23.5574 47.6035 23.3984 47.2959 23.2908 46.9692C23.1879 46.6379 23.1507 46.2897 23.1813 45.9442C23.2736 45.2685 23.5234 44.6241 23.9106 44.0628C24.2764 43.5103 24.6765 42.9814 25.1087 42.4792C25.5292 41.9711 25.9585 41.4739 26.3418 40.9461C26.7458 40.4454 27.0438 39.868 27.2179 39.2486C27.2836 38.9455 27.2768 38.631 27.1981 38.3309C27.1045 38.0325 26.9501 37.7565 26.7448 37.5206C26.3079 37.0437 25.7885 36.6497 25.2116 36.3576C24.6465 36.04 24.0333 35.8034 23.4397 35.5034C22.8391 35.2152 22.2702 34.8651 21.7423 34.4586C21.475 34.2493 21.2351 34.0073 21.0283 33.738C20.809 33.4614 20.6764 33.1261 20.6472 32.7744C20.6364 32.4163 20.7502 32.0656 20.9692 31.7822C21.1766 31.509 21.4266 31.2709 21.7095 31.0769C22.263 30.7031 22.8612 30.3999 23.4901 30.1746C24.1106 29.9436 24.7448 29.7512 25.389 29.5985C26.6747 29.2927 27.9828 29.0898 29.3008 28.9918C30.6182 28.8827 31.9429 28.8929 33.2585 29.0225C33.2694 29.0205 33.2805 29.0205 33.2913 29.0225C37.2009 30.8426 41.0535 32.7787 44.8754 34.7718C48.6974 36.7649 52.4777 38.8391 56.212 40.9921C58.0825 42.0682 59.9383 43.1633 61.7796 44.2774C63.6208 45.3915 65.4496 46.5399 67.2661 47.7226C70.8916 50.0589 74.4369 52.5112 77.9018 55.0796C77.9067 55.0833 77.9108 55.088 77.9139 55.0933C77.917 55.0986 77.919 55.1045 77.9198 55.1106C77.9206 55.1167 77.9202 55.1229 77.9186 55.1289C77.917 55.1348 77.9143 55.1404 77.9106 55.1453C77.9068 55.1502 77.9022 55.1543 77.8968 55.1574C77.8915 55.1604 77.8856 55.1625 77.8795 55.1633C77.8734 55.1641 77.8672 55.1637 77.8613 55.1621C77.8553 55.1605 77.8497 55.1578 77.8449 55.154V55.1497Z" fill="#263238"/>
<path d="M36.6798 30.271L36.4389 30.7091C36.4025 30.7732 36.3424 30.8204 36.2714 30.8405C36.2005 30.8605 36.1246 30.8519 36.06 30.8164C35.9959 30.78 35.9487 30.7199 35.9286 30.6489C35.9085 30.578 35.9171 30.5021 35.9527 30.4375L36.1958 29.9994C36.2321 29.9353 36.2923 29.8881 36.3632 29.868C36.4341 29.8479 36.5101 29.8566 36.5747 29.8921C36.6067 29.9099 36.6348 29.9338 36.6574 29.9626C36.6801 29.9913 36.6968 30.0243 36.7066 30.0596C36.7163 30.0948 36.719 30.1317 36.7144 30.168C36.7098 30.2043 36.6981 30.2393 36.6798 30.271Z" fill="#263238"/>
<path d="M49.4309 36.8132L49.1878 37.2512C49.1701 37.2832 49.1461 37.3113 49.1173 37.334C49.0886 37.3566 49.0556 37.3733 49.0204 37.3831C48.9851 37.3929 48.9483 37.3956 48.912 37.391C48.8757 37.3864 48.8406 37.3746 48.8089 37.3563C48.7769 37.3386 48.7488 37.3146 48.7262 37.2859C48.7035 37.2571 48.6868 37.2242 48.677 37.1889C48.6673 37.1536 48.6646 37.1168 48.6692 37.0805C48.6738 37.0442 48.6855 37.0091 48.7038 36.9774L48.9447 36.5394C48.9625 36.5074 48.9864 36.4793 49.0152 36.4566C49.0439 36.434 49.0769 36.4173 49.1122 36.4075C49.1474 36.3977 49.1843 36.3951 49.2206 36.3996C49.2569 36.4042 49.2919 36.416 49.3236 36.4343C49.3877 36.4706 49.4349 36.5308 49.455 36.6017C49.4751 36.6726 49.4665 36.7486 49.4309 36.8132Z" fill="#263238"/>
<path d="M62.7172 44.2554L62.474 44.6934C62.4377 44.7575 62.3775 44.8047 62.3066 44.8248C62.2357 44.8449 62.1597 44.8363 62.0951 44.8008C62.031 44.7644 61.9838 44.7042 61.9637 44.6333C61.9437 44.5624 61.9523 44.4864 61.9878 44.4218L62.2309 43.9838C62.2673 43.9197 62.3274 43.8725 62.3984 43.8524C62.4693 43.8323 62.5452 43.841 62.6098 43.8765C62.6739 43.9129 62.7211 43.973 62.7412 44.0439C62.7613 44.1148 62.7527 44.1908 62.7172 44.2554Z" fill="#263238"/>
<path d="M75.4466 52.6904L75.2035 53.1285C75.1672 53.1926 75.107 53.2398 75.0361 53.2599C74.9652 53.28 74.8892 53.2713 74.8246 53.2358C74.7605 53.1994 74.7133 53.1393 74.6932 53.0684C74.6731 52.9975 74.6818 52.9215 74.7173 52.8569L74.9604 52.4189C74.9968 52.3548 75.0569 52.3076 75.1279 52.2875C75.1988 52.2674 75.2747 52.276 75.3393 52.3115C75.4034 52.3479 75.4506 52.4081 75.4707 52.479C75.4908 52.5499 75.4822 52.6259 75.4466 52.6904Z" fill="#263238"/>
<path d="M82.1332 55.1193L80.2912 58.4046C80.2679 58.4467 80.236 58.4835 80.1977 58.5125C80.1593 58.5416 80.1152 58.5622 80.0684 58.5732C80.0215 58.5841 79.9729 58.5851 79.9256 58.5761C79.8784 58.567 79.8335 58.5482 79.794 58.5207L75.0719 55.2354C75.0012 55.1868 74.9515 55.1134 74.9324 55.0299C74.9133 54.9463 74.9264 54.8586 74.9689 54.7842L76.8109 51.4988C76.8342 51.4567 76.866 51.42 76.9044 51.3909C76.9428 51.3619 76.9868 51.3412 77.0337 51.3303C77.0806 51.3194 77.1292 51.3184 77.1765 51.3274C77.2237 51.3364 77.2686 51.3553 77.3081 51.3828L82.0302 54.6681C82.1008 54.7167 82.1506 54.79 82.1697 54.8736C82.1888 54.9572 82.1757 55.0449 82.1332 55.1193Z" fill="#263238"/>
<path d="M77.7791 58.6431C77.3878 58.6434 77.0057 58.5242 76.684 58.3014L76.3577 58.0824C75.9664 57.8125 75.6902 57.4058 75.5836 56.9425C75.477 56.4792 75.5477 55.9928 75.7816 55.579L76.1781 54.8737C76.2167 54.8044 76.2694 54.7438 76.3327 54.6959C76.3961 54.648 76.4687 54.6138 76.546 54.5956C76.6232 54.5786 76.7031 54.5776 76.7807 54.5926C76.8583 54.6077 76.932 54.6385 76.9972 54.6832L79.5401 56.4507C79.6562 56.5312 79.738 56.6522 79.7696 56.79C79.8012 56.9277 79.7803 57.0723 79.7109 57.1954L79.4415 57.675C79.3111 57.9073 79.1337 58.1099 78.9206 58.2698C78.7076 58.4297 78.4635 58.5434 78.204 58.6037C78.0643 58.6328 77.9218 58.646 77.7791 58.6431ZM76.741 55.4279L76.465 55.9448C76.3239 56.1926 76.2812 56.4845 76.3453 56.7624C76.4094 57.0403 76.5757 57.284 76.811 57.4451L77.1352 57.6641C77.2665 57.756 77.4157 57.8192 77.5731 57.8494C77.7305 57.8796 77.8925 57.8761 78.0485 57.8393C78.2045 57.8048 78.3512 57.7373 78.4789 57.6413C78.6066 57.5453 78.7123 57.4232 78.7888 57.283L78.9706 56.9588L76.741 55.4279Z" fill="#263238"/>
<path d="M81.8776 53.9759L81.4067 54.817C81.3964 54.8355 81.3824 54.8517 81.3654 54.8644C81.3485 54.8772 81.3291 54.8862 81.3084 54.891C81.2878 54.8957 81.2664 54.8961 81.2456 54.892C81.2248 54.8879 81.205 54.8795 81.1877 54.8673L78.0447 52.6771C78.0076 52.6502 77.9815 52.6107 77.9714 52.5659C77.9613 52.5212 77.9679 52.4743 77.99 52.434L78.4609 51.593C78.4712 51.5744 78.4852 51.5583 78.5022 51.5455C78.5191 51.5328 78.5385 51.5237 78.5592 51.519C78.5798 51.5142 78.6012 51.5139 78.622 51.5179C78.6428 51.522 78.6625 51.5304 78.6799 51.5426L81.8229 53.7328C81.86 53.7597 81.8861 53.7993 81.8962 53.844C81.9063 53.8888 81.8997 53.9357 81.8776 53.9759Z" fill="#263238"/>
<path d="M84.8145 29.6338L80.8283 32.4241C81.1459 33.8368 81.1568 35.3152 79.2031 35.7511C79.3652 36.4081 79.8843 36.8265 80.8239 36.9469C82.057 37.1879 82.9966 37.2974 84.0238 36.5746C84.4268 36.2921 84.913 36.0292 84.6962 35.5583C83.9581 33.9573 84.4093 31.2217 84.8145 29.6338Z" fill="#CE7A63"/>
<path opacity="0.2" d="M83.189 30.7725L80.8301 32.4217C80.9141 32.7665 80.9647 33.1185 80.9812 33.473C81.8354 33.6438 83.1145 32.8357 83.2393 32.0056C83.2927 31.5946 83.2757 31.1776 83.189 30.7725Z" fill="black"/>
<path d="M86.0607 27.2094C85.4671 29.6932 85.2437 31.1781 83.75 32.2316C81.5028 33.8195 78.6051 32.098 78.4453 29.4807C78.3007 27.124 79.2972 23.4598 81.9299 22.91C82.5133 22.7888 83.1178 22.8177 83.687 22.9939C84.2561 23.1701 84.7713 23.4879 85.184 23.9176C85.5968 24.3472 85.8938 24.8747 86.0471 25.4504C86.2005 26.0262 86.2051 26.6314 86.0607 27.2094Z" fill="#CE7A63"/>
<path d="M78.9461 29.0925C78.9461 29.0925 79.9514 28.9917 82.7067 29.2765C82.2928 29.9795 81.6116 30.5183 80.2099 30.3606C78.8081 30.2029 78.9461 29.0925 78.9461 29.0925Z" fill="white"/>
<path d="M85.6883 22.4738C83.1871 20.9407 79.8426 21.7467 79.2578 23.4112C79.6126 23.1927 80.0313 23.1015 80.4449 23.1528C79.9412 23.4025 79.2578 24.0136 79.5097 24.8086C80.1164 24.0968 80.7515 24.0771 80.7515 24.0771C80.7515 24.0771 81.2159 24.9532 82.7096 25.1481C82.6388 24.8876 82.581 24.6237 82.5366 24.3574C82.7612 24.7955 83.0844 25.1754 83.4808 25.4673C83.8772 25.7592 84.336 25.9551 84.821 26.0395C84.3829 26.517 84.2493 28.2494 85.3269 28.9284C86.8601 28.8299 88.1282 28.3173 88.0428 27.3755C88.1525 27.6069 88.2483 27.8446 88.3297 28.0874C88.3297 28.0874 89.3022 26.7908 88.1501 25.3124C88.7021 24.6115 87.5281 23.604 85.6883 22.4738Z" fill="#263238"/>
<path d="M78.8741 25.6456C78.8741 25.6456 78.3463 26.7078 78.4361 27.5029C79.0252 27.5029 80.4314 27.2839 80.4314 27.2839C80.9365 27.7267 81.529 28.0588 82.1704 28.2585C83.1078 28.5016 86.1588 28.2979 86.1588 28.2979L86.2858 27.4219C86.2858 27.4219 82.1901 26.0793 80.6088 25.8011C79.0274 25.5229 78.8741 25.6456 78.8741 25.6456Z" fill="#263238"/>
<path d="M86.8184 29.8877C86.6214 30.1364 86.3772 30.3438 86.0998 30.4979C85.8224 30.652 85.5173 30.7498 85.202 30.7857C84.3566 30.8755 84.0675 30.0826 84.4135 29.3577C84.7268 28.7006 85.5437 27.8705 86.3409 28.118C87.1382 28.3655 87.2981 29.2679 86.8184 29.8877Z" fill="#CE7A63"/>
<path d="M82.1968 27.0145C82.1596 27.2182 82.0238 27.365 81.8902 27.3409C81.7566 27.3168 81.6711 27.1219 81.7127 26.9248C81.7544 26.7276 81.8858 26.5743 82.0194 26.6006C82.153 26.6269 82.2318 26.8109 82.1968 27.0145Z" fill="white"/>
<path d="M79.7505 26.539C79.7155 26.7427 79.5775 26.8894 79.4439 26.8653C79.3103 26.8412 79.2248 26.6463 79.2665 26.4492C79.3081 26.252 79.4395 26.0987 79.5731 26.125C79.7067 26.1513 79.7834 26.3353 79.7505 26.539Z" fill="white"/>
<path d="M80.6487 26.5391C80.6487 26.5391 79.9763 27.6342 79.3652 28.1073C79.6675 28.5125 80.3092 28.4708 80.3092 28.4708L80.6487 26.5391Z" fill="#BA4D3C"/>
<path d="M81.9583 25.3933C81.9423 25.4072 81.9296 25.4244 81.921 25.4437C81.9096 25.4739 81.9105 25.5074 81.9237 25.537C81.9368 25.5665 81.961 25.5897 81.9911 25.6014C82.1706 25.676 82.3653 25.707 82.5591 25.6918C82.7529 25.6766 82.9403 25.6156 83.1059 25.5138C83.1189 25.5046 83.13 25.493 83.1385 25.4795C83.1469 25.4661 83.1527 25.4511 83.1553 25.4354C83.158 25.4197 83.1575 25.4037 83.1539 25.3882C83.1503 25.3727 83.1437 25.3581 83.1344 25.3452C83.1155 25.3188 83.0869 25.301 83.0549 25.2956C83.0229 25.2903 82.99 25.2979 82.9636 25.3167C82.832 25.3934 82.6845 25.4387 82.5325 25.449C82.3805 25.4592 82.2282 25.4342 82.0875 25.3758C82.0665 25.3663 82.0432 25.3629 82.0204 25.366C81.9975 25.3691 81.976 25.3786 81.9583 25.3933Z" fill="#263238"/>
<path d="M79.7108 25.2296C79.7065 25.2097 79.6974 25.1912 79.6845 25.1756C79.6715 25.16 79.655 25.1477 79.6363 25.1398C79.4931 25.0874 79.3643 25.0017 79.2607 24.8897C79.1572 24.7777 79.0817 24.6427 79.0406 24.4958C79.0342 24.4643 79.0157 24.4366 78.9891 24.4185C78.9625 24.4005 78.9298 24.3937 78.8982 24.3995C78.8665 24.4063 78.8388 24.4253 78.8208 24.4522C78.8028 24.4792 78.796 24.5121 78.8019 24.544C78.8498 24.7311 78.9423 24.9038 79.0717 25.0472C79.201 25.1907 79.3632 25.3006 79.5443 25.3676C79.5593 25.3736 79.5753 25.3767 79.5914 25.3765C79.6076 25.3764 79.6235 25.3731 79.6384 25.3668C79.6532 25.3605 79.6667 25.3513 79.678 25.3398C79.6893 25.3283 79.6982 25.3146 79.7042 25.2997C79.7128 25.2773 79.715 25.2531 79.7108 25.2296Z" fill="#263238"/>
<path d="M90.1545 38.4033C90.3735 38.8414 90.5553 39.2487 90.7371 39.6758C90.9189 40.1029 91.0963 40.5213 91.2671 40.9483C91.611 41.8003 91.9242 42.6699 92.2111 43.5569C92.498 44.4439 92.7587 45.3529 92.9645 46.31C93.0675 46.7897 93.1595 47.2803 93.2296 47.7972C93.3096 48.3526 93.3433 48.9138 93.3303 49.4749C93.3235 49.8174 93.2883 50.1588 93.2252 50.4955C93.1864 50.7009 93.1345 50.9035 93.0697 51.1022L93.0127 51.2665L92.9426 51.4395C92.8989 51.5427 92.8499 51.6436 92.7959 51.7418L92.6886 51.9345C92.6404 52.0133 92.5922 52.0944 92.5418 52.171C92.4433 52.3222 92.3381 52.4667 92.233 52.6091C92.0331 52.86 91.8134 53.0944 91.5759 53.31C90.7678 54.024 89.8529 54.6071 88.8644 55.038C88.4133 55.2571 87.9599 55.4213 87.5065 55.5812C87.0531 55.7411 86.5998 55.8813 86.1442 56.0039C85.6886 56.1266 85.2331 56.2339 84.7753 56.3281C84.3175 56.4223 83.8685 56.4924 83.3714 56.5471C83.0915 56.5796 82.8092 56.5132 82.5732 56.3593C82.3372 56.2055 82.1624 55.974 82.0792 55.7048C81.996 55.4357 82.0096 55.1459 82.1176 54.8857C82.2256 54.6256 82.4212 54.4113 82.6705 54.2802L82.7318 54.2496C84.2146 53.4808 85.7565 52.6682 87.029 51.7637C87.6084 51.3749 88.1329 50.9101 88.5885 50.3816C88.6625 50.2849 88.7298 50.1831 88.79 50.0772C88.8128 50.0379 88.8326 49.9969 88.8491 49.9545L88.8666 49.9042L88.9082 49.8012C88.9074 49.8078 88.9074 49.8144 88.9082 49.8209C88.9082 49.8209 88.9082 49.81 88.9082 49.7815C88.9082 49.753 88.9082 49.6129 88.8951 49.4836C88.8661 49.1634 88.8178 48.8453 88.7505 48.5309C88.6783 48.1761 88.5819 47.8037 88.4724 47.4358C88.2534 46.678 87.9949 45.9026 87.7036 45.1141C87.4123 44.3257 87.1057 43.546 86.7925 42.7597L86.2734 41.5901L85.7894 40.4402L85.7675 40.3898C85.563 39.8192 85.5812 39.1925 85.8183 38.6347C86.0554 38.0769 86.4941 37.6289 87.0469 37.3802C87.5996 37.1314 88.2258 37.1002 88.8006 37.2927C89.3753 37.4851 89.8564 37.8872 90.1479 38.4186L90.1545 38.4033Z" fill="#263238"/>
<path opacity="0.2" d="M90.1545 38.4033C90.3735 38.8414 90.5553 39.2487 90.7371 39.6758C90.9189 40.1029 91.0963 40.5213 91.2671 40.9483C91.611 41.8003 91.9242 42.6699 92.2111 43.5569C92.498 44.4439 92.7587 45.3529 92.9645 46.31C93.0675 46.7897 93.1595 47.2803 93.2296 47.7972C93.3096 48.3526 93.3433 48.9138 93.3303 49.4749C93.3235 49.8174 93.2883 50.1588 93.2252 50.4955C93.1864 50.7009 93.1345 50.9035 93.0697 51.1022L93.0127 51.2665L92.9426 51.4395C92.8989 51.5427 92.8499 51.6436 92.7959 51.7418L92.6886 51.9345C92.6404 52.0133 92.5922 52.0944 92.5418 52.171C92.4433 52.3222 92.3381 52.4667 92.233 52.6091C92.0331 52.86 91.8134 53.0944 91.5759 53.31C90.7678 54.024 89.8529 54.6071 88.8644 55.038C88.4133 55.2571 87.9599 55.4213 87.5065 55.5812C87.0531 55.7411 86.5998 55.8813 86.1442 56.0039C85.6886 56.1266 85.2331 56.2339 84.7753 56.3281C84.3175 56.4223 83.8685 56.4924 83.3714 56.5471C83.0915 56.5796 82.8092 56.5132 82.5732 56.3593C82.3372 56.2055 82.1624 55.974 82.0792 55.7048C81.996 55.4357 82.0096 55.1459 82.1176 54.8857C82.2256 54.6256 82.4212 54.4113 82.6705 54.2802L82.7318 54.2496C84.2146 53.4808 85.7565 52.6682 87.029 51.7637C87.6084 51.3749 88.1329 50.9101 88.5885 50.3816C88.6625 50.2849 88.7298 50.1831 88.79 50.0772C88.8128 50.0379 88.8326 49.9969 88.8491 49.9545L88.8666 49.9042L88.9082 49.8012C88.9074 49.8078 88.9074 49.8144 88.9082 49.8209C88.9082 49.8209 88.9082 49.81 88.9082 49.7815C88.9082 49.753 88.9082 49.6129 88.8951 49.4836C88.8661 49.1634 88.8178 48.8453 88.7505 48.5309C88.6783 48.1761 88.5819 47.8037 88.4724 47.4358C88.2534 46.678 87.9949 45.9026 87.7036 45.1141C87.4123 44.3257 87.1057 43.546 86.7925 42.7597L86.2734 41.5901L85.7894 40.4402L85.7675 40.3898C85.563 39.8192 85.5812 39.1925 85.8183 38.6347C86.0554 38.0769 86.4941 37.6289 87.0469 37.3802C87.5996 37.1314 88.2258 37.1002 88.8006 37.2927C89.3753 37.4851 89.8564 37.8872 90.1479 38.4186L90.1545 38.4033Z" fill="white"/>
<path d="M82.6527 54.1139L80.8721 54.1446L81.8007 57.1408C82.3492 57.0562 82.8803 56.8831 83.3733 56.6283C83.6596 56.4629 83.8718 56.1942 83.9663 55.8774C84.0607 55.5605 84.0304 55.2195 83.8814 54.9243L83.8442 54.8498C83.7365 54.6263 83.567 54.4383 83.3559 54.3079C83.1448 54.1775 82.9008 54.1102 82.6527 54.1139Z" fill="#CE7A63"/>
<path d="M78.9754 56.0785L79.4791 57.0707C79.5757 57.2617 79.7373 57.4121 79.9348 57.4948C80.1323 57.5775 80.3528 57.5871 80.5567 57.5219L81.8007 57.1298L80.8721 54.1445L79.3915 54.8564C79.2829 54.9082 79.1859 54.9812 79.1059 55.0711C79.026 55.161 78.9649 55.2659 78.9261 55.3798C78.8873 55.4937 78.8717 55.6141 78.8802 55.7341C78.8886 55.8541 78.921 55.9712 78.9754 56.0785Z" fill="#CE7A63"/>
<path opacity="0.2" d="M86.4287 22.277C84.4706 21.5586 82.9025 21.5761 81.8818 21.7425C81.8014 21.7573 81.728 21.7979 81.6729 21.8583C81.6177 21.9187 81.5839 21.9954 81.5764 22.0768C81.569 22.1582 81.5884 22.2398 81.6316 22.3092C81.6749 22.3785 81.7397 22.4318 81.8161 22.4609C83.3361 23.0173 84.5802 24.6774 84.2757 27.2269C83.6668 32.3016 80.8086 37.0215 80.8086 37.0215L84.4509 37.0522C84.4509 37.0522 87.123 35.7183 88.7481 32.2666C90.3733 28.8148 90.0207 23.5955 86.4287 22.277Z" fill="black"/>
<path d="M80.8235 36.947C80.8235 36.947 85.2412 31.202 85.3857 26.6332C85.5303 22.0644 80.6549 21.7972 80.6549 21.7972C80.6549 21.7972 82.1749 20.6036 85.9289 21.311C89.683 22.0184 90.892 27.1085 89.856 30.7815C89.2014 33.042 88.0874 35.1432 86.5838 36.9536L80.4512 38.6773L80.8235 36.947Z" fill="#263238"/>
<path opacity="0.4" d="M80.8235 36.947C80.8235 36.947 85.2412 31.202 85.3857 26.6332C85.5303 22.0644 80.6549 21.7972 80.6549 21.7972C80.6549 21.7972 82.1749 20.6036 85.9289 21.311C89.683 22.0184 90.892 27.1085 89.856 30.7815C89.2014 33.042 88.0874 35.1432 86.5838 36.9536L80.4512 38.6773L80.8235 36.947Z" fill="white"/>
<path d="M73.1943 75.0525V48.4304C73.1943 47.1663 72.1696 46.1416 70.9056 46.1416H28.0319C26.7679 46.1416 25.7432 47.1663 25.7432 48.4304V75.0525C25.7432 76.3166 26.7679 77.3413 28.0319 77.3413H70.9056C72.1696 77.3413 73.1943 76.3166 73.1943 75.0525Z" fill="#407BFF"/>
<path d="M27.9033 78.1997C26.7118 78.1997 25.4809 78.5195 25.1523 78.9159L16.3717 88.7456C15.9074 89.3107 16.7025 90.6336 18.1502 90.6336H70.5688C72.0165 90.6336 73.197 90.1671 73.197 89.602V78.9159C73.197 78.5195 72.2268 78.1997 71.0353 78.1997H27.9033Z" fill="#407BFF"/>
<path opacity="0.2" d="M27.9033 78.1997C26.7118 78.1997 25.4809 78.5195 25.1523 78.9159L16.3717 88.7456C15.9074 89.3107 16.7025 90.6336 18.1502 90.6336H70.5688C72.0165 90.6336 73.197 90.1671 73.197 89.602V78.9159C73.197 78.5195 72.2268 78.1997 71.0353 78.1997H27.9033Z" fill="black"/>
<path d="M27.9033 77.3433C26.7118 77.3433 25.4809 77.6608 25.1523 78.0595L16.3717 88.7456C15.9074 89.3106 16.7025 89.7772 18.1502 89.7772H70.5688C72.0165 89.7772 73.197 89.3106 73.197 88.7456V78.0595C73.197 77.6608 72.2268 77.3433 71.0353 77.3433H27.9033Z" fill="#407BFF"/>
<path opacity="0.2" d="M26.8781 78.9615L23.1985 83.6793C22.9466 84.0034 23.4635 84.2663 24.3549 84.2663H68.8887C69.7824 84.2663 70.5161 84.0034 70.5314 83.6793L70.7263 78.9615C70.7373 78.6856 70.089 78.4644 69.2764 78.4644H28.7376C27.925 78.4644 27.0927 78.6856 26.8781 78.9615Z" fill="black"/>
<path opacity="0.2" d="M37.4786 85.5504L35.8995 88.4612C35.8162 88.6167 36.0725 88.7459 36.4733 88.7459H53.0861C53.487 88.7459 53.8483 88.6167 53.8922 88.4612L54.7113 85.5417C54.7507 85.3993 54.4748 85.2832 54.0937 85.2832H38.3109C37.9298 85.292 37.5575 85.408 37.4786 85.5504Z" fill="black"/>
<path opacity="0.7" d="M70.9413 46.7593H27.9955C27.0919 46.7593 26.3594 47.4918 26.3594 48.3954V75.0898C26.3594 75.9934 27.0919 76.7259 27.9955 76.7259H70.9413C71.8449 76.7259 72.5774 75.9934 72.5774 75.0898V48.3954C72.5774 47.4918 71.8449 46.7593 70.9413 46.7593Z" fill="white"/>
<path d="M61.5318 57.916H37.4043V72.2795H61.5318V57.916Z" fill="#407BFF"/>
<path opacity="0.1" d="M61.5318 57.916H37.4043V72.2795H61.5318V57.916Z" fill="black"/>
<path opacity="0.1" d="M49.468 65.7504L61.5318 57.916H37.4043L49.468 65.7504Z" fill="#263238"/>
<path d="M50.9749 51.0606L61.5318 57.916H37.4043L47.9612 51.0606C48.4096 50.769 48.9331 50.6138 49.468 50.6138C50.003 50.6138 50.5264 50.769 50.9749 51.0606Z" fill="#407BFF"/>
<path opacity="0.2" d="M38.2998 57.9163L48.331 51.4026C48.6694 51.1829 49.0643 51.0659 49.4677 51.0659C49.8712 51.0659 50.2661 51.1829 50.6045 51.4026L60.6357 57.9163H38.2998Z" fill="#263238"/>
<path d="M50.4541 52.5871C50.4111 52.5871 50.3699 52.57 50.3395 52.5396C50.3091 52.5092 50.292 52.468 50.292 52.425V45.1381C50.292 45.0952 50.3091 45.0539 50.3395 45.0235C50.3699 44.9931 50.4111 44.9761 50.4541 44.9761C50.4971 44.9761 50.5383 44.9931 50.5687 45.0235C50.5991 45.0539 50.6161 45.0952 50.6161 45.1381V52.425C50.6161 52.468 50.5991 52.5092 50.5687 52.5396C50.5383 52.57 50.4971 52.5871 50.4541 52.5871Z" fill="#263238"/>
<path d="M50.4539 45.3005C50.3244 45.3004 50.1978 45.2622 50.09 45.1904C49.9822 45.1187 49.898 45.0167 49.8479 44.8973C49.7979 44.7779 49.7842 44.6463 49.8087 44.5192C49.8332 44.392 49.8947 44.2749 49.9855 44.1826C50.0763 44.0903 50.1924 44.0269 50.3191 44.0003C50.4458 43.9737 50.5776 43.9852 50.6978 44.0333C50.818 44.0813 50.9214 44.1638 50.9949 44.2704C51.0684 44.377 51.1088 44.503 51.1109 44.6324C51.1124 44.7196 51.0964 44.8063 51.0641 44.8873C51.0317 44.9682 50.9835 45.042 50.9224 45.1042C50.8612 45.1663 50.7883 45.2157 50.7079 45.2494C50.6274 45.2831 50.5411 45.3005 50.4539 45.3005ZM50.4539 44.2886C50.3858 44.2886 50.3194 44.3087 50.2628 44.3465C50.2063 44.3843 50.1622 44.438 50.1362 44.5009C50.1101 44.5637 50.1033 44.6328 50.1166 44.6995C50.1299 44.7662 50.1626 44.8275 50.2107 44.8756C50.2588 44.9237 50.3201 44.9564 50.3868 44.9697C50.4535 44.983 50.5226 44.9762 50.5854 44.9501C50.6483 44.9241 50.702 44.88 50.7398 44.8235C50.7775 44.7669 50.7977 44.7005 50.7977 44.6324C50.7977 44.5412 50.7615 44.4538 50.697 44.3893C50.6325 44.3248 50.5451 44.2886 50.4539 44.2886Z" fill="#263238"/>
<path d="M43.2671 50.7056L40.0453 51.6736L39.5459 59.3066L49.4676 65.7502L59.3893 59.3066L59.8974 52.1533L43.2671 50.7056Z" fill="white"/>
<path opacity="0.6" d="M53.4848 59.171C53.4334 59.8681 53.1764 60.5343 52.7462 61.0853C52.316 61.6363 51.7321 62.0473 51.0683 62.2662C50.4045 62.4852 49.6906 62.5024 49.017 62.3155C48.3435 62.1286 47.7405 61.7461 47.2844 61.2164C46.8283 60.6867 46.5396 60.0336 46.4548 59.3397C46.37 58.6459 46.493 57.9424 46.8081 57.3185C47.1233 56.6946 47.6164 56.1781 48.2252 55.8346C48.8339 55.491 49.5309 55.3358 50.2279 55.3885C50.6907 55.4214 51.1424 55.5456 51.557 55.7539C51.9715 55.9622 52.3408 56.2504 52.6435 56.602C52.9463 56.9535 53.1764 57.3615 53.3208 57.8024C53.4652 58.2433 53.5209 58.7085 53.4848 59.171Z" fill="#407BFF"/>
<path d="M52.5912 60.6447C52.2851 61.1202 51.8562 61.5042 51.35 61.7562C50.8437 62.0082 50.2788 62.1189 49.7149 62.0765C49.1509 62.0341 48.6089 61.8402 48.146 61.5154C47.6831 61.1905 47.3165 60.7466 47.085 60.2307C47.9412 59.7486 48.9209 59.5307 49.9007 59.6043C50.8806 59.678 51.8167 60.04 52.5912 60.6447Z" fill="white"/>
<path d="M51.4152 58.1397C51.5592 57.3803 51.0604 56.6479 50.3009 56.5039C49.5415 56.3599 48.8091 56.8587 48.6651 57.6181C48.5211 58.3775 49.0199 59.1099 49.7793 59.254C50.5387 59.398 51.2711 58.8992 51.4152 58.1397Z" fill="white"/>
<path d="M48.8677 54.1709C48.4672 54.169 48.0794 54.03 47.769 53.7769C47.4585 53.5239 47.2442 53.1721 47.1616 52.7802L46.9907 52.951C46.9601 52.9672 46.9251 52.9731 46.8908 52.968C46.8566 52.9628 46.8249 52.9468 46.8004 52.9223C46.7759 52.8978 46.7599 52.8661 46.7547 52.8319C46.7496 52.7976 46.7555 52.7626 46.7717 52.732L47.1813 52.3202C47.2039 52.2978 47.2327 52.2826 47.2639 52.2765C47.2952 52.2703 47.3276 52.2735 47.357 52.2857C47.3864 52.2978 47.4117 52.3184 47.4295 52.3448C47.4473 52.3712 47.457 52.4022 47.4572 52.4341C47.4572 52.8092 47.6055 53.1691 47.8697 53.4354C48.1339 53.7016 48.4927 53.8527 48.8677 53.8556C48.9107 53.8556 48.952 53.8726 48.9824 53.903C49.0127 53.9334 49.0298 53.9746 49.0298 54.0176C49.0298 54.0606 49.0127 54.1018 48.9824 54.1322C48.952 54.1626 48.9107 54.1797 48.8677 54.1797V54.1709Z" fill="#263238"/>
<path d="M43.2677 50.7056L42.707 52.4249L40.0459 51.6736" fill="#E0E0E0"/>
<path d="M43.2677 50.7056L42.9961 52.1183L40.0459 51.6736" fill="#F0F0F0"/>
<path d="M47.4114 64.4119L37.4043 72.2792H61.5318L51.5247 64.4119C50.9381 63.9511 50.2139 63.7007 49.468 63.7007C48.7222 63.7007 47.9979 63.9511 47.4114 64.4119Z" fill="#407BFF"/>
</g>
<defs>
<clipPath id="clip0_85_4726">
<rect width="109.511" height="109.511" fill="white" transform="translate(0.245117 0.194824)"/>
</clipPath>
</defs>
</svg>
