<svg width="110" height="110" viewBox="0 0 110 110" fill="none" xmlns="http://www.w3.org/2000/svg">
<g clip-path="url(#clip0_85_977)">
<path d="M109.756 83.9487H0.245117V84.0035H109.756V83.9487Z" fill="#EBEBEB"/>
<path d="M98.7831 87.4727H86.6865V87.5274H98.7831V87.4727Z" fill="#EBEBEB"/>
<path d="M72.6318 86.3252H70.7285V86.38H72.6318V86.3252Z" fill="#EBEBEB"/>
<path d="M86.0273 85.4402H81.8242V85.4949H86.0273V85.4402Z" fill="#EBEBEB"/>
<path d="M21.1949 85.8083H11.7354V85.8631H21.1949V85.8083Z" fill="#EBEBEB"/>
<path d="M57.4209 87.2231H47.4072V87.2779H57.4209V87.2231Z" fill="#EBEBEB"/>
<path d="M51.5268 86.2969H31.0088V86.3516H51.5268V86.2969Z" fill="#EBEBEB"/>
<path d="M53.4065 72.9301C53.4065 73.0945 53.3741 73.2573 53.3111 73.4092C53.2481 73.561 53.1558 73.699 53.0394 73.8152C52.9231 73.9313 52.7849 74.0234 52.6329 74.0861C52.481 74.1488 52.3181 74.181 52.1537 74.1807H9.86268C9.53138 74.1801 9.21384 74.0481 8.97978 73.8136C8.74572 73.5792 8.61426 73.2614 8.61426 72.9301V13.4809C8.61714 13.1515 8.74987 12.8365 8.98363 12.6044C9.21738 12.3723 9.53327 12.2418 9.86268 12.2412H52.1537C52.4854 12.2412 52.8035 12.373 53.038 12.6075C53.2725 12.842 53.4043 13.1601 53.4043 13.4918M53.3495 13.4918C53.3507 13.3339 53.3206 13.1774 53.2611 13.0312C53.2015 12.8849 53.1137 12.7519 53.0025 12.6398C52.8914 12.5276 52.7592 12.4386 52.6135 12.3777C52.4678 12.3168 52.3116 12.2853 52.1537 12.285H9.86268C9.5459 12.2856 9.24229 12.4118 9.0185 12.636C8.7947 12.8603 8.66901 13.1641 8.66901 13.4809V72.9301C8.66901 73.2469 8.7947 73.5507 9.0185 73.7749C9.24229 73.9991 9.5459 74.1254 9.86268 74.1259H52.1537C52.4707 74.1254 52.7745 73.9992 52.9986 73.775C53.2228 73.5509 53.349 73.2471 53.3495 72.9301" fill="#EBEBEB"/>
<path d="M99.5301 74.1807H57.2369C56.9054 74.1801 56.5877 74.0482 56.3533 73.8138C56.1189 73.5793 55.9869 73.2616 55.9863 72.9301V13.4809C55.9898 13.1513 56.123 12.8363 56.3571 12.6043C56.5912 12.3722 56.9073 12.2418 57.2369 12.2412H99.5301C99.8592 12.2424 100.175 12.3731 100.408 12.6052C100.641 12.8372 100.774 13.1519 100.776 13.4809V72.9301C100.776 73.261 100.645 73.5784 100.412 73.8128C100.178 74.0473 99.8611 74.1795 99.5301 74.1807ZM57.2369 12.285C56.92 12.2856 56.6161 12.4118 56.392 12.6359C56.1678 12.8601 56.0417 13.1639 56.0411 13.4809V72.9301C56.0417 73.2471 56.1678 73.5509 56.392 73.775C56.6161 73.9992 56.92 74.1254 57.2369 74.1259H99.5301C99.8471 74.1254 100.151 73.9992 100.375 73.775C100.599 73.5509 100.725 73.2471 100.726 72.9301V13.4809C100.725 13.1639 100.599 12.8601 100.375 12.6359C100.151 12.4118 99.8471 12.2856 99.5301 12.285H57.2369Z" fill="#EBEBEB"/>
<path d="M60.6671 24.0308H21.1993C20.5461 24.0308 20.0166 24.5603 20.0166 25.2135V43.6333C20.0166 44.2865 20.5461 44.816 21.1993 44.816H60.6671C61.3203 44.816 61.8498 44.2865 61.8498 43.6333V25.2135C61.8498 24.5603 61.3203 24.0308 60.6671 24.0308Z" fill="#F5F5F5"/>
<path d="M58.9259 22.2898H19.4581C18.8049 22.2898 18.2754 22.8193 18.2754 23.4725V41.8923C18.2754 42.5455 18.8049 43.075 19.4581 43.075H58.9259C59.5791 43.075 60.1086 42.5455 60.1086 41.8923V23.4725C60.1086 22.8193 59.5791 22.2898 58.9259 22.2898Z" fill="#E0E0E0"/>
<path d="M57.1388 20.5027H17.671C17.0178 20.5027 16.4883 21.0322 16.4883 21.6854V40.1052C16.4883 40.7584 17.0178 41.2879 17.671 41.2879H57.1388C57.792 41.2879 58.3215 40.7584 58.3215 40.1052V21.6854C58.3215 21.0322 57.792 20.5027 57.1388 20.5027Z" fill="#EBEBEB"/>
<path d="M54.6698 22.8394H20.1388C19.4904 22.8394 18.9648 23.365 18.9648 24.0133V28.1835C18.9648 28.8319 19.4904 29.3575 20.1388 29.3575H54.6698C55.3182 29.3575 55.8438 28.8319 55.8438 28.1835V24.0133C55.8438 23.365 55.3182 22.8394 54.6698 22.8394Z" fill="white"/>
<path d="M47.8274 32.0779H26.9809C26.5104 32.0779 26.1289 32.4593 26.1289 32.9299V36.8526C26.1289 37.3231 26.5104 37.7046 26.9809 37.7046H47.8274C48.298 37.7046 48.6794 37.3231 48.6794 36.8526V32.9299C48.6794 32.4593 48.298 32.0779 47.8274 32.0779Z" fill="#E0E0E0"/>
<path d="M37.4051 28.0874C37.3073 28.0868 37.2137 28.0476 37.1447 27.9782C37.0758 27.9089 37.0371 27.8151 37.0371 27.7173V24.4779C37.0443 24.385 37.0863 24.2981 37.1547 24.2348C37.2231 24.1714 37.3129 24.1362 37.4062 24.1362C37.4994 24.1362 37.5892 24.1714 37.6576 24.2348C37.7261 24.2981 37.768 24.385 37.7752 24.4779V27.7173C37.7752 27.8154 37.7362 27.9096 37.6668 27.979C37.5974 28.0484 37.5032 28.0874 37.4051 28.0874Z" fill="#E0E0E0"/>
<path d="M39.0234 26.4775H35.7863C35.7354 26.4814 35.6843 26.4748 35.6362 26.458C35.588 26.4412 35.5438 26.4147 35.5064 26.38C35.4689 26.3454 35.4391 26.3034 35.4187 26.2566C35.3982 26.2099 35.3877 26.1594 35.3877 26.1084C35.3877 26.0574 35.3982 26.007 35.4187 25.9602C35.4391 25.9135 35.4689 25.8715 35.5064 25.8368C35.5438 25.8022 35.588 25.7756 35.6362 25.7589C35.6843 25.7421 35.7354 25.7355 35.7863 25.7394H39.0234C39.0743 25.7355 39.1254 25.7421 39.1736 25.7589C39.2218 25.7756 39.2659 25.8022 39.3034 25.8368C39.3408 25.8715 39.3707 25.9135 39.3911 25.9602C39.4115 26.007 39.422 26.0574 39.422 26.1084C39.422 26.1594 39.4115 26.2099 39.3911 26.2566C39.3707 26.3034 39.3408 26.3454 39.3034 26.38C39.2659 26.4147 39.2218 26.4412 39.1736 26.458C39.1254 26.4748 39.0743 26.4814 39.0234 26.4775Z" fill="#E0E0E0"/>
<path d="M38.5502 27.612C38.5018 27.6122 38.4539 27.6029 38.4091 27.5845C38.3644 27.566 38.3237 27.5389 38.2896 27.5047L35.9986 25.2137C35.9644 25.1795 35.9372 25.1388 35.9187 25.0941C35.9002 25.0494 35.8906 25.0015 35.8906 24.9531C35.8906 24.9047 35.9002 24.8567 35.9187 24.812C35.9372 24.7673 35.9644 24.7267 35.9986 24.6924C36.0328 24.6582 36.0734 24.6311 36.1182 24.6125C36.1629 24.594 36.2108 24.5845 36.2592 24.5845C36.3076 24.5845 36.3556 24.594 36.4003 24.6125C36.445 24.6311 36.4856 24.6582 36.5199 24.6924L38.8108 26.9812C38.8802 27.0506 38.9192 27.1448 38.9192 27.2429C38.9192 27.3411 38.8802 27.4353 38.8108 27.5047C38.7766 27.5389 38.736 27.566 38.6913 27.5845C38.6465 27.6029 38.5986 27.6122 38.5502 27.612Z" fill="#E0E0E0"/>
<path d="M36.2587 27.612C36.2103 27.6122 36.1624 27.6029 36.1176 27.5845C36.0729 27.566 36.0322 27.5389 35.9981 27.5047C35.9286 27.4353 35.8896 27.3411 35.8896 27.2429C35.8896 27.1448 35.9286 27.0506 35.9981 26.9812L38.289 24.6924C38.3582 24.6233 38.4519 24.5845 38.5497 24.5845C38.6474 24.5845 38.7412 24.6233 38.8103 24.6924C38.8794 24.7616 38.9183 24.8553 38.9183 24.9531C38.9183 25.0508 38.8794 25.1446 38.8103 25.2137L36.5193 27.5047C36.4851 27.5389 36.4445 27.566 36.3998 27.5845C36.355 27.6029 36.3071 27.6122 36.2587 27.612Z" fill="#E0E0E0"/>
<path d="M46.6299 28.0874C46.5317 28.0874 46.4376 28.0484 46.3682 27.979C46.2988 27.9096 46.2598 27.8154 46.2598 27.7173V24.4779C46.2669 24.385 46.3089 24.2981 46.3773 24.2348C46.4458 24.1714 46.5356 24.1362 46.6288 24.1362C46.7221 24.1362 46.8119 24.1714 46.8803 24.2348C46.9487 24.2981 46.9907 24.385 46.9979 24.4779V27.7173C46.9979 27.8151 46.9592 27.9089 46.8902 27.9782C46.8213 28.0476 46.7277 28.0868 46.6299 28.0874Z" fill="#E0E0E0"/>
<path d="M48.248 26.4774H45.0087C44.9157 26.4702 44.8289 26.4282 44.7655 26.3598C44.7022 26.2914 44.667 26.2016 44.667 26.1083C44.667 26.0151 44.7022 25.9253 44.7655 25.8568C44.8289 25.7884 44.9157 25.7464 45.0087 25.7393H48.248C48.341 25.7464 48.4278 25.7884 48.4912 25.8568C48.5545 25.9253 48.5897 26.0151 48.5897 26.1083C48.5897 26.2016 48.5545 26.2914 48.4912 26.3598C48.4278 26.4282 48.341 26.4702 48.248 26.4774Z" fill="#E0E0E0"/>
<path d="M47.7726 27.612C47.7242 27.6122 47.6763 27.6029 47.6315 27.5845C47.5868 27.566 47.5462 27.5389 47.512 27.5047L45.2232 25.2137C45.189 25.1795 45.1618 25.1388 45.1433 25.0941C45.1248 25.0494 45.1152 25.0015 45.1152 24.9531C45.1152 24.9047 45.1248 24.8567 45.1433 24.812C45.1618 24.7673 45.189 24.7267 45.2232 24.6924C45.2574 24.6582 45.2981 24.6311 45.3428 24.6125C45.3875 24.594 45.4354 24.5845 45.4838 24.5845C45.5322 24.5845 45.5802 24.594 45.6249 24.6125C45.6696 24.6311 45.7102 24.6582 45.7445 24.6924L48.0354 26.9812C48.1038 27.0512 48.1421 27.1451 48.1421 27.2429C48.1421 27.3408 48.1038 27.4347 48.0354 27.5047C48.0009 27.5391 47.9599 27.5663 47.9148 27.5847C47.8697 27.6031 47.8213 27.6124 47.7726 27.612Z" fill="#E0E0E0"/>
<path d="M45.4843 27.6117C45.4359 27.612 45.3879 27.6026 45.3432 27.5842C45.2985 27.5658 45.2578 27.5387 45.2236 27.5044C45.1542 27.435 45.1152 27.3408 45.1152 27.2427C45.1152 27.1445 45.1542 27.0504 45.2236 26.981L47.5124 24.6922C47.5458 24.6541 47.5865 24.6232 47.6323 24.6015C47.678 24.5797 47.7277 24.5676 47.7783 24.5659C47.8289 24.5641 47.8793 24.5728 47.9264 24.5913C47.9736 24.6098 48.0164 24.6378 48.0523 24.6735C48.0881 24.7093 48.1163 24.752 48.135 24.799C48.1537 24.8461 48.1626 24.8964 48.161 24.947C48.1595 24.9976 48.1476 25.0474 48.1261 25.0932C48.1046 25.139 48.0739 25.18 48.0359 25.2134L45.7449 27.5044C45.7107 27.5387 45.6701 27.5658 45.6254 27.5842C45.5806 27.6026 45.5327 27.612 45.4843 27.6117Z" fill="#E0E0E0"/>
<path d="M28.1817 28.0874C28.0835 28.0874 27.9894 28.0484 27.9199 27.979C27.8505 27.9096 27.8115 27.8154 27.8115 27.7173V24.4779C27.8187 24.385 27.8607 24.2981 27.9291 24.2348C27.9975 24.1714 28.0873 24.1362 28.1806 24.1362C28.2738 24.1362 28.3636 24.1714 28.432 24.2348C28.5005 24.2981 28.5425 24.385 28.5496 24.4779V27.7173C28.5496 27.8151 28.5109 27.9089 28.442 27.9782C28.373 28.0476 28.2795 28.0868 28.1817 28.0874Z" fill="#E0E0E0"/>
<path d="M29.7998 26.4774H26.5604C26.4675 26.4702 26.3806 26.4282 26.3173 26.3598C26.2539 26.2914 26.2188 26.2016 26.2188 26.1083C26.2188 26.0151 26.2539 25.9253 26.3173 25.8568C26.3806 25.7884 26.4675 25.7464 26.5604 25.7393H29.7998C29.8928 25.7464 29.9796 25.7884 30.0429 25.8568C30.1063 25.9253 30.1415 26.0151 30.1415 26.1083C30.1415 26.2016 30.1063 26.2914 30.0429 26.3598C29.9796 26.4282 29.8928 26.4702 29.7998 26.4774Z" fill="#E0E0E0"/>
<path d="M29.3244 27.612C29.276 27.6122 29.228 27.6029 29.1833 27.5845C29.1386 27.566 29.0979 27.5389 29.0637 27.5047L26.775 25.2137C26.7407 25.1795 26.7136 25.1388 26.6951 25.0941C26.6765 25.0494 26.667 25.0015 26.667 24.9531C26.667 24.9047 26.6765 24.8567 26.6951 24.812C26.7136 24.7673 26.7407 24.7267 26.775 24.6924C26.8092 24.6582 26.8498 24.6311 26.8945 24.6125C26.9393 24.594 26.9872 24.5845 27.0356 24.5845C27.084 24.5845 27.1319 24.594 27.1766 24.6125C27.2214 24.6311 27.262 24.6582 27.2962 24.6924L29.5938 26.9812C29.6621 27.0512 29.7004 27.1451 29.7004 27.2429C29.7004 27.3408 29.6621 27.4347 29.5938 27.5047C29.5585 27.5399 29.5164 27.5675 29.4701 27.586C29.4238 27.6044 29.3742 27.6133 29.3244 27.612Z" fill="#E0E0E0"/>
<path d="M27.036 27.6117C26.9876 27.6121 26.9397 27.6028 26.8949 27.5844C26.8501 27.5659 26.8095 27.5388 26.7754 27.5044C26.706 27.435 26.667 27.3408 26.667 27.2427C26.667 27.1445 26.706 27.0504 26.7754 26.981L29.0642 24.6922C29.0975 24.6541 29.1383 24.6232 29.184 24.6015C29.2298 24.5797 29.2795 24.5676 29.3301 24.5659C29.3807 24.5641 29.4311 24.5728 29.4782 24.5913C29.5253 24.6098 29.5681 24.6378 29.604 24.6735C29.6399 24.7093 29.6681 24.752 29.6868 24.799C29.7055 24.8461 29.7143 24.8964 29.7128 24.947C29.7113 24.9976 29.6994 25.0474 29.6778 25.0932C29.6563 25.139 29.6256 25.18 29.5877 25.2134L27.2967 27.5044C27.2625 27.5387 27.2219 27.5658 27.1771 27.5842C27.1324 27.6026 27.0844 27.612 27.036 27.6117Z" fill="#E0E0E0"/>
<path d="M15.3006 66.9969L12.4007 57.7979C12.375 57.7122 12.3671 57.6221 12.3775 57.5333C12.3878 57.4444 12.4162 57.3585 12.4609 57.281C12.5056 57.2035 12.5657 57.1359 12.6374 57.0824C12.7092 57.029 12.7911 56.9907 12.8782 56.97L13.2483 56.889C14.3837 56.6199 15.4705 56.1766 16.4701 55.5749C17.4739 54.9493 18.3363 54.1213 19.002 53.1437C19.0961 53.0062 19.239 52.9095 19.4016 52.8734C19.5643 52.8372 19.7346 52.8641 19.8781 52.9488C20.9002 53.5453 22.0342 53.9248 23.2095 54.0636C24.3706 54.1823 25.5432 54.1202 26.6853 53.8796L27.0577 53.7964C27.145 53.7764 27.2356 53.7749 27.3236 53.7919C27.4116 53.8089 27.495 53.8441 27.5686 53.8953C27.6422 53.9464 27.7043 54.0123 27.751 54.0888C27.7976 54.1653 27.8278 54.2507 27.8396 54.3396L29.1537 63.9021C29.1676 64.0005 29.1583 64.1008 29.1268 64.1951C29.0952 64.2893 29.0422 64.375 28.9719 64.4453L23.5774 69.8748C23.49 69.9614 23.3799 70.0217 23.2599 70.0488C23.1399 70.0759 23.0146 70.0687 22.8984 70.0281L15.697 67.4196C15.603 67.3841 15.5184 67.3276 15.4497 67.2543C15.3809 67.181 15.3299 67.0929 15.3006 66.9969Z" fill="#F0F0F0"/>
<path d="M21.37 58.8446L21.2715 61.3853L22.6075 66.1074L20.7151 61.3546L20.4742 59.1118L19.2148 57.7473L19.5631 53.2464C19.5667 53.197 19.5828 53.1494 19.61 53.1079C19.6371 53.0665 19.6744 53.0327 19.7182 53.0097C19.7621 52.9867 19.811 52.9752 19.8605 52.9764C19.91 52.9776 19.9584 52.9914 20.0011 53.0164C20.3086 53.1906 20.6268 53.345 20.9539 53.4786C21.0009 53.4988 21.0393 53.5348 21.0625 53.5804C21.0857 53.6261 21.0922 53.6784 21.0809 53.7283L20.218 57.1625L21.37 58.8446Z" fill="#E0E0E0"/>
<path d="M79.0214 22.3315L66.87 26.2739C66.6298 26.3521 66.4304 26.5224 66.3155 26.7473C66.2006 26.9723 66.1794 27.2336 66.2568 27.4741L68.9661 35.832C69.0443 36.0722 69.2146 36.2716 69.4395 36.3865C69.6645 36.5015 69.9258 36.5226 70.1663 36.4453L82.3177 32.5029C82.5579 32.4246 82.7572 32.2544 82.8722 32.0294C82.9871 31.8045 83.0082 31.5431 82.9309 31.3026L80.2216 22.9447C80.1434 22.7046 79.9731 22.5052 79.7482 22.3902C79.5232 22.2753 79.2619 22.2542 79.0214 22.3315Z" fill="#F5F5F5"/>
<path d="M75.2517 29.0466L76.6009 32.0559L74.5355 32.7261L73.8609 29.4977C73.5038 29.441 73.1762 29.2656 72.931 29C72.6857 28.7343 72.537 28.3938 72.5088 28.0333C72.4806 27.6729 72.5746 27.3134 72.7757 27.0129C72.9767 26.7123 73.273 26.4882 73.617 26.3767C73.9609 26.2651 74.3324 26.2725 74.6715 26.3978C75.0107 26.5231 75.2978 26.7589 75.4866 27.0673C75.6754 27.3757 75.7549 27.7386 75.7123 28.0977C75.6697 28.4567 75.5074 28.791 75.2517 29.0466Z" fill="#E0E0E0"/>
<path d="M64.4927 16.052C62.6157 18.6934 63.2684 22.3774 65.7806 24.4252L66.3785 24.9136C66.5528 25.0554 66.7762 25.1221 66.9996 25.0991C67.2231 25.0761 67.4282 24.9653 67.57 24.791C67.7117 24.6167 67.7784 24.3933 67.7554 24.1698C67.7324 23.9464 67.6216 23.7412 67.4473 23.5995L66.6829 22.9731C66.1977 22.5763 65.8027 22.0805 65.5243 21.5189C65.2459 20.9573 65.0905 20.3427 65.0685 19.7162C65.0466 19.0898 65.1585 18.4658 65.3968 17.8861C65.6352 17.3063 65.9945 16.7841 66.4508 16.3543C68.0737 14.8211 70.6341 14.8364 72.3644 16.2491L73.3149 14.843C72.6671 14.3165 71.918 13.9287 71.1141 13.7035C70.3102 13.4784 69.4687 13.4207 68.6416 13.534C67.8145 13.6473 67.0195 13.9293 66.3058 14.3624C65.5922 14.7956 64.9751 15.3706 64.4927 16.052Z" fill="#EBEBEB"/>
<path d="M82.7622 72.5774C82.0598 72.5785 81.3641 72.441 80.715 72.1726C80.0659 71.9042 79.4762 71.5104 78.9797 71.0135C78.1018 70.1381 77.5547 68.9853 77.4317 67.7517C77.3087 66.518 77.6174 65.2799 78.3051 64.2483C78.9928 63.2168 80.017 62.4557 81.2031 62.0948C82.3892 61.7339 83.6637 61.7956 84.8094 62.2692C85.9551 62.7429 86.9011 63.5993 87.486 64.6924C88.071 65.7855 88.2587 67.0476 88.0172 68.2637C87.7757 69.4797 87.1199 70.5743 86.1617 71.3609C85.2034 72.1475 84.002 72.5774 82.7622 72.5774ZM80.4406 69.5527C80.8999 70.0125 81.4853 70.3258 82.1227 70.4529C82.7601 70.58 83.4208 70.5152 84.0214 70.2667C84.622 70.0181 85.1353 69.597 85.4965 69.0567C85.8576 68.5163 86.0504 67.881 86.0504 67.231C86.0504 66.5811 85.8576 65.9457 85.4965 65.4054C85.1353 64.865 84.622 64.4439 84.0214 64.1954C83.4208 63.9468 82.7601 63.882 82.1227 64.0091C81.4853 64.1362 80.8999 64.4495 80.4406 64.9094C79.8253 65.5254 79.4798 66.3604 79.4798 67.231C79.4798 68.1016 79.8253 68.9367 80.4406 69.5527Z" fill="#EBEBEB"/>
<path d="M93.4106 78.9134C93.2732 78.9138 93.1371 78.8867 93.0103 78.8336C92.8836 78.7806 92.7687 78.7027 92.6725 78.6046L85.0746 71.0067C84.8932 70.8105 84.7948 70.5517 84.8 70.2846C84.8052 70.0175 84.9137 69.7627 85.1026 69.5738C85.2915 69.3848 85.5463 69.2764 85.8134 69.2712C86.0805 69.266 86.3393 69.3644 86.5355 69.5458L94.1334 77.1437C94.2774 77.2884 94.3754 77.4725 94.4149 77.6728C94.4545 77.8731 94.4338 78.0806 94.3556 78.2692C94.2773 78.4578 94.145 78.619 93.9753 78.7324C93.8055 78.8459 93.606 78.9066 93.4018 78.9068L93.4106 78.9134Z" fill="#EBEBEB"/>
<path d="M89.4507 80.3434C89.2466 80.3426 89.0472 80.2815 88.8777 80.1677C88.7082 80.054 88.576 79.8927 88.4979 79.704C88.4197 79.5154 88.399 79.308 88.4384 79.1076C88.4778 78.9073 88.5755 78.7231 88.7192 78.5781L91.4154 75.8841C91.5098 75.782 91.624 75.6999 91.7509 75.6429C91.8779 75.5859 92.015 75.5552 92.1542 75.5524C92.2933 75.5497 92.4315 75.5751 92.5606 75.6271C92.6897 75.6791 92.8069 75.7566 92.9053 75.855C93.0037 75.9534 93.0813 76.0707 93.1332 76.1998C93.1852 76.3288 93.2106 76.4671 93.2079 76.6062C93.2052 76.7453 93.1744 76.8825 93.1174 77.0094C93.0604 77.1364 92.9784 77.2505 92.8762 77.345L90.1801 80.039C90.0848 80.1356 89.9712 80.2122 89.846 80.2645C89.7208 80.3168 89.5864 80.3436 89.4507 80.3434Z" fill="#EBEBEB"/>
<path d="M88.1916 77.3801C87.9876 77.3794 87.7884 77.3185 87.619 77.2048C87.4496 77.0912 87.3176 76.93 87.2396 76.7415C87.1617 76.553 87.1412 76.3456 87.1808 76.1455C87.2204 75.9454 87.3184 75.7615 87.4623 75.617L89.3043 73.7728C89.3987 73.6706 89.5129 73.5886 89.6398 73.5316C89.7668 73.4746 89.9039 73.4438 90.043 73.4411C90.1822 73.4384 90.3204 73.4638 90.4495 73.5158C90.5786 73.5678 90.6958 73.6453 90.7942 73.7437C90.8926 73.8421 90.9701 73.9594 91.0221 74.0884C91.0741 74.2175 91.0995 74.3558 91.0968 74.4949C91.0941 74.634 91.0633 74.7712 91.0063 74.8981C90.9493 75.0251 90.8673 75.1392 90.7651 75.2337L88.9232 77.0713C88.8277 77.1685 88.7139 77.2459 88.5883 77.2989C88.4627 77.3519 88.3279 77.3795 88.1916 77.3801Z" fill="#EBEBEB"/>
<path d="M55.0004 93.84C78.4538 93.84 97.4666 92.73 97.4666 91.3607C97.4666 89.9914 78.4538 88.8813 55.0004 88.8813C31.547 88.8813 12.5342 89.9914 12.5342 91.3607C12.5342 92.73 31.547 93.84 55.0004 93.84Z" fill="#F5F5F5"/>
<path d="M71.0947 57.0154C70.3018 58.1477 68.0547 60.8505 66.0791 61.5798C62.9646 67.7584 67.2662 76.596 71.4276 79.4805C71.4276 79.4805 83.0577 73.4442 84.9106 58.6734L71.0947 57.0154Z" fill="#263238"/>
<path d="M85.9293 21.3103C83.5682 20.8722 78.0949 20.6379 77.6853 27.0048C77.2757 33.3718 75.2104 37.5639 80.4559 38.6831L80.8239 36.9528L85.9293 21.3103Z" fill="#263238"/>
<path opacity="0.2" d="M85.9293 21.3103C83.5682 20.8722 78.0949 20.6379 77.6853 27.0048C77.2757 33.3718 75.2104 37.5639 80.4559 38.6831L80.8239 36.9528L85.9293 21.3103Z" fill="white"/>
<path d="M77.0393 36.8173C76.4537 36.5618 75.7907 36.5493 75.1959 36.7826C74.6012 37.0159 74.1235 37.4758 73.8678 38.0613L73.8569 38.0876L72.8209 40.4596C72.4748 41.2547 72.1178 42.0431 71.763 42.8229C71.5856 43.2127 71.4038 43.5982 71.2155 43.9749C71.0271 44.3516 70.8497 44.7327 70.6591 45.0941C70.4686 45.4555 70.2715 45.8059 70.0809 46.1367C70.0021 46.2681 69.9232 46.3951 69.8466 46.5156L69.4742 46.5703C69.0342 46.6192 68.5919 46.6441 68.1491 46.6448C67.687 46.6448 67.2139 46.6273 66.7321 46.601C66.2502 46.5747 65.764 46.5221 65.2734 46.4718C64.2922 46.3688 63.3022 46.2243 62.2991 46.06C61.8019 45.979 61.3003 45.8957 60.801 45.8016L59.3138 45.5322H59.2722C58.9878 45.4814 58.6946 45.5347 58.4463 45.6824C58.1979 45.83 58.0111 46.0622 57.9199 46.3363C57.8287 46.6104 57.8392 46.9082 57.9496 47.1752C58.06 47.4422 58.2628 47.6606 58.5209 47.7903C59.4925 48.2637 60.4874 48.6877 61.5018 49.0606C62.0078 49.2446 62.5159 49.4264 63.035 49.5885C63.5541 49.7505 64.0753 49.9038 64.6054 50.0462C65.6899 50.3364 66.7936 50.5494 67.9082 50.6836C68.5031 50.7504 69.1012 50.7833 69.6998 50.7821C70.3628 50.7793 71.0236 50.7059 71.671 50.5631C72.0343 50.4824 72.3662 50.2974 72.626 50.0309L72.7267 49.9279C73.1127 49.5246 73.4713 49.0958 73.7999 48.6445C74.1066 48.2327 74.3716 47.8166 74.63 47.407C75.1491 46.5879 75.6069 45.7687 76.0383 44.943C76.2573 44.5312 76.4654 44.1173 76.6647 43.7011C76.864 43.285 77.0677 42.8689 77.2539 42.4483C77.4401 42.0278 77.6306 41.6117 77.8058 41.1846C77.9811 40.7575 78.1519 40.3435 78.3227 39.888C78.5449 39.3093 78.5355 38.6673 78.2964 38.0954C78.0574 37.5235 77.6071 37.0657 77.0393 36.8173Z" fill="#263238"/>
<path opacity="0.2" d="M77.0393 36.8173C76.4537 36.5618 75.7907 36.5493 75.1959 36.7826C74.6012 37.0159 74.1235 37.4758 73.8678 38.0613L73.8569 38.0876L72.8209 40.4596C72.4748 41.2547 72.1178 42.0431 71.763 42.8229C71.5856 43.2127 71.4038 43.5982 71.2155 43.9749C71.0271 44.3516 70.8497 44.7327 70.6591 45.0941C70.4686 45.4555 70.2715 45.8059 70.0809 46.1367C70.0021 46.2681 69.9232 46.3951 69.8466 46.5156L69.4742 46.5703C69.0342 46.6192 68.5919 46.6441 68.1491 46.6448C67.687 46.6448 67.2139 46.6273 66.7321 46.601C66.2502 46.5747 65.764 46.5221 65.2734 46.4718C64.2922 46.3688 63.3022 46.2243 62.2991 46.06C61.8019 45.979 61.3003 45.8957 60.801 45.8016L59.3138 45.5322H59.2722C58.9878 45.4814 58.6946 45.5347 58.4463 45.6824C58.1979 45.83 58.0111 46.0622 57.9199 46.3363C57.8287 46.6104 57.8392 46.9082 57.9496 47.1752C58.06 47.4422 58.2628 47.6606 58.5209 47.7903C59.4925 48.2637 60.4874 48.6877 61.5018 49.0606C62.0078 49.2446 62.5159 49.4264 63.035 49.5885C63.5541 49.7505 64.0753 49.9038 64.6054 50.0462C65.6899 50.3364 66.7936 50.5494 67.9082 50.6836C68.5031 50.7504 69.1012 50.7833 69.6998 50.7821C70.3628 50.7793 71.0236 50.7059 71.671 50.5631C72.0343 50.4824 72.3662 50.2974 72.626 50.0309L72.7267 49.9279C73.1127 49.5246 73.4713 49.0958 73.7999 48.6445C74.1066 48.2327 74.3716 47.8166 74.63 47.407C75.1491 46.5879 75.6069 45.7687 76.0383 44.943C76.2573 44.5312 76.4654 44.1173 76.6647 43.7011C76.864 43.285 77.0677 42.8689 77.2539 42.4483C77.4401 42.0278 77.6306 41.6117 77.8058 41.1846C77.9811 40.7575 78.1519 40.3435 78.3227 39.888C78.5449 39.3093 78.5355 38.6673 78.2964 38.0954C78.0574 37.5235 77.6071 37.0657 77.0393 36.8173Z" fill="white"/>
<path d="M58.8841 45.394L57.0837 44.8596L57.0684 47.9851C57.0684 47.9851 58.2182 48.18 59.0396 47.8821C59.2804 47.7871 59.481 47.6119 59.6075 47.386C59.734 47.1601 59.7787 46.8975 59.7339 46.6425L59.6857 46.3227C59.6531 46.1081 59.5606 45.9071 59.4188 45.7428C59.2769 45.5785 59.0916 45.4576 58.8841 45.394Z" fill="#CE7A63"/>
<path d="M54.6947 46.1297L54.8743 47.2248C54.9082 47.4362 55.0163 47.6287 55.1793 47.7676C55.3422 47.9065 55.5494 47.9827 55.7635 47.9826H57.0777L57.093 44.8572L55.4678 45.0762C55.3467 45.0918 55.2299 45.1318 55.1246 45.1939C55.0194 45.256 54.9278 45.3388 54.8556 45.4373C54.7833 45.5358 54.7317 45.648 54.7041 45.767C54.6764 45.886 54.6732 46.0094 54.6947 46.1297Z" fill="#CE7A63"/>
<path d="M86.5403 36.0704C83.2494 35.5886 79.9152 35.4733 76.5988 35.7265C75.8447 35.7911 75.1396 36.1267 74.6137 36.671C74.0879 37.2154 73.7769 37.9318 73.7384 38.6877C73.471 45.2769 72.466 51.8153 70.7422 58.1806C72.1417 59.7773 76.9427 62.721 84.7465 60.8505C87.274 56.5818 89.0371 50.1776 90.7236 42.0387C90.8712 41.3695 90.8781 40.6769 90.7439 40.0049C90.6097 39.3329 90.3373 38.6961 89.9439 38.1349C89.5506 37.5738 89.0449 37.1005 88.459 36.745C87.8731 36.3896 87.2197 36.1599 86.5403 36.0704Z" fill="#263238"/>
<path opacity="0.4" d="M86.5403 36.0704C83.2494 35.5886 79.9152 35.4733 76.5988 35.7265C75.8447 35.7911 75.1396 36.1267 74.6137 36.671C74.0879 37.2154 73.7769 37.9318 73.7384 38.6877C73.471 45.2769 72.466 51.8153 70.7422 58.1806C72.1417 59.7773 76.9427 62.721 84.7465 60.8505C87.274 56.5818 89.0371 50.1776 90.7236 42.0387C90.8712 41.3695 90.8781 40.6769 90.7439 40.0049C90.6097 39.3329 90.3373 38.6961 89.9439 38.1349C89.5506 37.5738 89.0449 37.1005 88.459 36.745C87.8731 36.3896 87.2197 36.1599 86.5403 36.0704Z" fill="white"/>
<path opacity="0.4" d="M79.7131 37.511C78.1909 41.7819 78.3113 44.5723 77.9609 47.6013C77.6105 50.6304 76.0423 57.5953 74.3076 59.5884" stroke="#263238" stroke-width="0.403568" stroke-miterlimit="10"/>
<path d="M33.4625 28.3234C35.7053 29.3017 37.9291 30.3173 40.1339 31.37C42.3387 32.4228 44.5348 33.4931 46.7221 34.5809C51.0894 36.7711 55.4056 39.0665 59.6707 41.467C63.9358 43.8674 68.1213 46.4044 72.2272 49.078C76.3164 51.7763 80.307 54.6346 84.1442 57.7096C84.2226 57.7725 84.2879 57.8502 84.3362 57.9382C84.3846 58.0263 84.4151 58.123 84.4261 58.2228C84.4371 58.3227 84.4283 58.4238 84.4002 58.5202C84.3722 58.6167 84.3254 58.7067 84.2625 58.785C84.1997 58.8634 84.122 58.9286 84.0339 58.977C83.9459 59.0254 83.8492 59.0559 83.7493 59.0669C83.6495 59.0779 83.5484 59.0691 83.4519 59.041C83.3555 59.013 83.2655 58.9662 83.1871 58.9033H83.174C79.4506 55.8041 75.5454 52.8977 71.5351 50.1424C67.4978 47.4236 63.3809 44.8231 59.1845 42.3409C54.988 39.8586 50.7244 37.4859 46.3936 35.2226C44.234 34.0881 42.062 32.9791 39.8777 31.8957C37.6933 30.8123 35.495 29.7588 33.2829 28.7352C33.2286 28.7108 33.1862 28.6658 33.165 28.6102C33.1439 28.5545 33.1457 28.4927 33.1701 28.4384C33.1945 28.3841 33.2395 28.3417 33.2951 28.3206C33.3508 28.2994 33.4126 28.3012 33.4669 28.3256L33.4625 28.3234Z" fill="#263238"/>
<path d="M77.8449 55.1494C74.3872 52.581 70.8391 50.1382 67.2004 47.8209C65.3869 46.6528 63.558 45.5146 61.7139 44.4064C59.8697 43.2981 58.0131 42.203 56.1441 41.121C52.4061 38.9775 48.6244 36.9129 44.7988 34.9271C40.9746 32.9428 37.1199 31.0154 33.2103 29.2062H33.2432C31.9389 29.081 30.6261 29.073 29.3205 29.1821C28.0142 29.2829 26.718 29.4865 25.4438 29.791C24.8087 29.944 24.1834 30.1349 23.5711 30.3627C22.9609 30.5816 22.3803 30.8759 21.8431 31.2388C21.5812 31.4193 21.3504 31.6412 21.1597 31.8958C20.9715 32.1367 20.8731 32.4357 20.8815 32.7413C20.9095 33.0489 21.0276 33.3414 21.221 33.5823C21.4163 33.8342 21.6422 34.0608 21.8934 34.2569C22.4098 34.6516 22.9654 34.9922 23.5514 35.2732C24.1318 35.5645 24.7517 35.801 25.3343 36.1273C25.9348 36.434 26.4755 36.8457 26.9309 37.3429C27.1582 37.6053 27.3289 37.9118 27.4325 38.2431C27.5232 38.5815 27.5323 38.9365 27.4588 39.2791C27.2832 39.9329 26.9762 40.544 26.5564 41.075C26.1644 41.6138 25.7329 42.1132 25.3167 42.6192C24.8925 43.1152 24.499 43.6367 24.1384 44.1808C23.7751 44.7157 23.5432 45.3288 23.4616 45.9702C23.4135 46.6006 23.6043 47.2261 23.996 47.7224C24.3913 48.2296 24.8679 48.6677 25.4065 49.019C26.4688 49.7527 27.7939 50.0024 29.0839 49.9717C30.3869 49.9212 31.6777 49.7003 32.9234 49.3147C34.1749 48.9327 35.4034 48.4794 36.603 47.9567C39.0122 46.9339 41.3557 45.7271 43.7256 44.5772C44.906 43.9824 46.12 43.4566 47.3613 43.0024C47.6776 42.892 48.0001 42.8006 48.3272 42.7287C48.6621 42.6493 49.0062 42.6161 49.3501 42.6301C49.5324 42.6393 49.7117 42.68 49.8801 42.7506C50.0588 42.8254 50.2145 42.9463 50.3313 43.101C50.5318 43.4064 50.63 43.7677 50.6116 44.1326C50.6119 44.1539 50.608 44.175 50.6001 44.1948C50.5923 44.2146 50.5806 44.2326 50.5657 44.2478C50.5509 44.2631 50.5332 44.2753 50.5136 44.2837C50.494 44.2921 50.473 44.2966 50.4517 44.2969C50.4093 44.2963 50.3687 44.2794 50.3385 44.2496C50.3083 44.2197 50.2908 44.1794 50.2897 44.137C50.3065 43.8413 50.2299 43.5478 50.0706 43.2981C49.9787 43.1897 49.8643 43.1026 49.7353 43.0428C49.6064 42.983 49.4659 42.9521 49.3238 42.9521C49.0094 42.9399 48.6948 42.9701 48.3885 43.0419C48.0737 43.1123 47.7629 43.2001 47.4577 43.3047C46.2281 43.7531 45.0251 44.2716 43.8548 44.8576C41.4893 46.0009 39.1458 47.2077 36.7125 48.2305C35.4984 48.7523 34.2552 49.2035 32.9891 49.5819C31.7183 49.974 30.4019 50.1985 29.073 50.2499C28.4027 50.2681 27.7329 50.2004 27.0799 50.0484C26.4217 49.8949 25.7973 49.6217 25.2379 49.2424C24.6743 48.8725 24.1755 48.4122 23.7617 47.8801C23.5574 47.6033 23.3984 47.2957 23.2908 46.9689C23.1879 46.6377 23.1507 46.2895 23.1813 45.9439C23.2736 45.2683 23.5234 44.6238 23.9106 44.0625C24.2764 43.5101 24.6765 42.9812 25.1087 42.479C25.5292 41.9708 25.9585 41.4737 26.3418 40.9458C26.7458 40.4452 27.0438 39.8677 27.2179 39.2484C27.2836 38.9452 27.2768 38.6308 27.1981 38.3307C27.1045 38.0322 26.9501 37.7563 26.7448 37.5203C26.3079 37.0435 25.7885 36.6495 25.2116 36.3573C24.6465 36.0397 24.0333 35.8032 23.4397 35.5031C22.8391 35.215 22.2702 34.8648 21.7423 34.4584C21.475 34.2491 21.2351 34.007 21.0283 33.7378C20.809 33.4612 20.6764 33.1259 20.6472 32.7741C20.6364 32.4161 20.7502 32.0654 20.9692 31.7819C21.1766 31.5088 21.4266 31.2707 21.7095 31.0767C22.263 30.7028 22.8612 30.3997 23.4901 30.1743C24.1106 29.9433 24.7448 29.751 25.389 29.5983C26.6747 29.2925 27.9828 29.0896 29.3008 28.9916C30.6182 28.8824 31.9429 28.8927 33.2585 29.0223C33.2694 29.0203 33.2805 29.0203 33.2913 29.0223C37.2009 30.8423 41.0535 32.7785 44.8754 34.7716C48.6974 36.7647 52.4777 38.8388 56.212 40.9918C58.0825 42.068 59.9383 43.1631 61.7796 44.2772C63.6208 45.3912 65.4496 46.5397 67.2661 47.7224C70.8916 50.0586 74.4369 52.5109 77.9018 55.0793C77.9067 55.0831 77.9108 55.0877 77.9139 55.0931C77.917 55.0984 77.919 55.1043 77.9198 55.1104C77.9206 55.1165 77.9202 55.1227 77.9186 55.1286C77.917 55.1346 77.9143 55.1401 77.9106 55.145C77.9068 55.1499 77.9022 55.154 77.8968 55.1571C77.8915 55.1602 77.8856 55.1622 77.8795 55.163C77.8734 55.1638 77.8672 55.1634 77.8613 55.1619C77.8553 55.1603 77.8497 55.1575 77.8449 55.1538V55.1494Z" fill="#263238"/>
<path d="M36.6798 30.2705L36.4389 30.7086C36.4025 30.7727 36.3424 30.8199 36.2714 30.84C36.2005 30.86 36.1246 30.8514 36.06 30.8159C35.9959 30.7795 35.9487 30.7194 35.9286 30.6485C35.9085 30.5775 35.9171 30.5016 35.9527 30.437L36.1958 29.9989C36.2321 29.9348 36.2923 29.8876 36.3632 29.8675C36.4341 29.8475 36.5101 29.8561 36.5747 29.8916C36.6067 29.9094 36.6348 29.9334 36.6574 29.9621C36.6801 29.9908 36.6968 30.0238 36.7066 30.0591C36.7163 30.0943 36.719 30.1312 36.7144 30.1675C36.7098 30.2038 36.6981 30.2388 36.6798 30.2705Z" fill="#263238"/>
<path d="M49.4309 36.8127L49.1878 37.2507C49.1701 37.2827 49.1461 37.3108 49.1173 37.3335C49.0886 37.3561 49.0556 37.3728 49.0204 37.3826C48.9851 37.3924 48.9483 37.3951 48.912 37.3905C48.8757 37.3859 48.8406 37.3741 48.8089 37.3559C48.7769 37.3381 48.7488 37.3141 48.7262 37.2854C48.7035 37.2566 48.6868 37.2237 48.677 37.1884C48.6673 37.1531 48.6646 37.1163 48.6692 37.08C48.6738 37.0437 48.6855 37.0087 48.7038 36.9769L48.9447 36.5389C48.9625 36.5069 48.9864 36.4788 49.0152 36.4561C49.0439 36.4335 49.0769 36.4168 49.1122 36.407C49.1474 36.3972 49.1843 36.3946 49.2206 36.3992C49.2569 36.4037 49.2919 36.4155 49.3236 36.4338C49.3877 36.4701 49.4349 36.5303 49.455 36.6012C49.4751 36.6721 49.4665 36.7481 49.4309 36.8127Z" fill="#263238"/>
<path d="M62.7172 44.2547L62.474 44.6927C62.4377 44.7568 62.3775 44.804 62.3066 44.8241C62.2357 44.8442 62.1597 44.8355 62.0951 44.8C62.031 44.7637 61.9838 44.7035 61.9637 44.6326C61.9437 44.5617 61.9523 44.4857 61.9878 44.4211L62.2309 43.9831C62.2673 43.919 62.3274 43.8718 62.3984 43.8517C62.4693 43.8316 62.5452 43.8402 62.6098 43.8757C62.6739 43.9121 62.7211 43.9723 62.7412 44.0432C62.7613 44.1141 62.7527 44.1901 62.7172 44.2547Z" fill="#263238"/>
<path d="M75.4466 52.69L75.2035 53.128C75.1672 53.1921 75.107 53.2393 75.0361 53.2594C74.9652 53.2795 74.8892 53.2708 74.8246 53.2353C74.7605 53.199 74.7133 53.1388 74.6932 53.0679C74.6731 52.997 74.6818 52.921 74.7173 52.8564L74.9604 52.4184C74.9968 52.3543 75.0569 52.3071 75.1279 52.287C75.1988 52.2669 75.2747 52.2755 75.3393 52.3111C75.4034 52.3474 75.4506 52.4076 75.4707 52.4785C75.4908 52.5494 75.4822 52.6254 75.4466 52.69Z" fill="#263238"/>
<path d="M82.1332 55.1188L80.2912 58.4041C80.2679 58.4462 80.236 58.483 80.1977 58.512C80.1593 58.5411 80.1152 58.5617 80.0684 58.5727C80.0215 58.5836 79.9729 58.5846 79.9256 58.5756C79.8784 58.5665 79.8335 58.5477 79.794 58.5202L75.0719 55.2349C75.0012 55.1863 74.9515 55.1129 74.9324 55.0294C74.9133 54.9458 74.9264 54.8581 74.9689 54.7837L76.8109 51.4984C76.8342 51.4562 76.866 51.4195 76.9044 51.3904C76.9428 51.3614 76.9868 51.3407 77.0337 51.3298C77.0806 51.3189 77.1292 51.3179 77.1765 51.3269C77.2237 51.336 77.2686 51.3548 77.3081 51.3823L82.0302 54.6676C82.1008 54.7162 82.1506 54.7895 82.1697 54.8731C82.1888 54.9567 82.1757 55.0444 82.1332 55.1188Z" fill="#263238"/>
<path d="M77.7791 58.6426C77.3878 58.6429 77.0057 58.5237 76.684 58.3009L76.3577 58.0819C75.9664 57.812 75.6902 57.4053 75.5836 56.9421C75.477 56.4788 75.5477 55.9923 75.7816 55.5785L76.1781 54.8733C76.2167 54.8039 76.2694 54.7433 76.3327 54.6954C76.3961 54.6475 76.4687 54.6134 76.546 54.5951C76.6232 54.5781 76.7031 54.5771 76.7807 54.5921C76.8583 54.6072 76.932 54.638 76.9972 54.6827L79.5401 56.4502C79.6562 56.5308 79.738 56.6517 79.7696 56.7895C79.8012 56.9272 79.7803 57.0718 79.7109 57.1949L79.4415 57.6745C79.3111 57.9068 79.1337 58.1094 78.9206 58.2693C78.7076 58.4292 78.4635 58.5429 78.204 58.6032C78.0643 58.6323 77.9218 58.6455 77.7791 58.6426ZM76.741 55.4274L76.465 55.9443C76.3239 56.1922 76.2812 56.484 76.3453 56.7619C76.4094 57.0399 76.5757 57.2835 76.811 57.4446L77.1352 57.6636C77.2665 57.7555 77.4157 57.8187 77.5731 57.8489C77.7305 57.8791 77.8925 57.8756 78.0485 57.8388C78.2045 57.8043 78.3512 57.7368 78.4789 57.6408C78.6066 57.5449 78.7123 57.4227 78.7888 57.2825L78.9706 56.9583L76.741 55.4274Z" fill="#263238"/>
<path d="M81.8776 53.9754L81.4067 54.8165C81.3964 54.835 81.3824 54.8512 81.3654 54.8639C81.3485 54.8767 81.3291 54.8857 81.3084 54.8905C81.2878 54.8952 81.2664 54.8956 81.2456 54.8915C81.2248 54.8874 81.205 54.879 81.1877 54.8669L78.0447 52.6766C78.0076 52.6497 77.9815 52.6102 77.9714 52.5654C77.9613 52.5207 77.9679 52.4738 77.99 52.4335L78.4609 51.5925C78.4712 51.5739 78.4852 51.5578 78.5022 51.545C78.5191 51.5323 78.5385 51.5232 78.5592 51.5185C78.5798 51.5137 78.6012 51.5134 78.622 51.5175C78.6428 51.5215 78.6625 51.5299 78.6799 51.5421L81.8229 53.7323C81.86 53.7592 81.8861 53.7988 81.8962 53.8435C81.9063 53.8883 81.8997 53.9352 81.8776 53.9754Z" fill="#263238"/>
<path d="M84.8145 29.6331L80.8283 32.4234C81.1459 33.8361 81.1568 35.3145 79.2031 35.7503C79.3652 36.4074 79.8843 36.8257 80.8239 36.9462C82.057 37.1871 82.9966 37.2966 84.0238 36.5739C84.4268 36.2913 84.913 36.0285 84.6962 35.5576C83.9581 33.9566 84.4093 31.221 84.8145 29.6331Z" fill="#CE7A63"/>
<path opacity="0.2" d="M83.189 30.772L80.8301 32.4212C80.9141 32.766 80.9647 33.118 80.9812 33.4725C81.8354 33.6434 83.1145 32.8352 83.2393 32.0051C83.2927 31.5942 83.2757 31.1772 83.189 30.772Z" fill="black"/>
<path d="M86.0607 27.2087C85.4671 29.6924 85.2437 31.1774 83.75 32.2309C81.5028 33.8188 78.6051 32.0973 78.4453 29.48C78.3007 27.1233 79.2972 23.4591 81.9299 22.9093C82.5133 22.7881 83.1178 22.8169 83.687 22.9932C84.2561 23.1694 84.7713 23.4872 85.184 23.9169C85.5968 24.3465 85.8938 24.8739 86.0471 25.4497C86.2005 26.0254 86.2051 26.6307 86.0607 27.2087Z" fill="#CE7A63"/>
<path d="M78.9461 29.092C78.9461 29.092 79.9514 28.9913 82.7067 29.276C82.2928 29.979 81.6116 30.5178 80.2099 30.3601C78.8081 30.2025 78.9461 29.092 78.9461 29.092Z" fill="white"/>
<path d="M85.6883 22.4731C83.1871 20.9399 79.8426 21.7459 79.2578 23.4105C79.6126 23.1919 80.0313 23.1008 80.4449 23.1521C79.9412 23.4018 79.2578 24.0128 79.5097 24.8079C80.1164 24.0961 80.7515 24.0763 80.7515 24.0763C80.7515 24.0763 81.2159 24.9524 82.7096 25.1474C82.6388 24.8869 82.581 24.623 82.5366 24.3567C82.7612 24.7947 83.0844 25.1747 83.4808 25.4666C83.8772 25.7585 84.336 25.9543 84.821 26.0388C84.3829 26.5162 84.2493 28.2487 85.3269 28.9277C86.8601 28.8291 88.1282 28.3166 88.0428 27.3748C88.1525 27.6062 88.2483 27.8439 88.3297 28.0866C88.3297 28.0866 89.3022 26.79 88.1501 25.3116C88.7021 24.6108 87.5281 23.6033 85.6883 22.4731Z" fill="#263238"/>
<path d="M78.8741 25.6449C78.8741 25.6449 78.3463 26.7071 78.4361 27.5022C79.0252 27.5022 80.4314 27.2831 80.4314 27.2831C80.9365 27.726 81.529 28.058 82.1704 28.2578C83.1078 28.5009 86.1588 28.2972 86.1588 28.2972L86.2858 27.4211C86.2858 27.4211 82.1901 26.0785 80.6088 25.8004C79.0274 25.5222 78.8741 25.6449 78.8741 25.6449Z" fill="#263238"/>
<path d="M86.8184 29.8872C86.6214 30.136 86.3772 30.3433 86.0998 30.4974C85.8224 30.6515 85.5173 30.7493 85.202 30.7852C84.3566 30.875 84.0675 30.0821 84.4135 29.3572C84.7268 28.7001 85.5437 27.87 86.3409 28.1175C87.1382 28.365 87.2981 29.2674 86.8184 29.8872Z" fill="#CE7A63"/>
<path d="M82.1968 27.0138C82.1596 27.2175 82.0238 27.3643 81.8902 27.3402C81.7566 27.3161 81.6711 27.1211 81.7127 26.924C81.7544 26.7269 81.8858 26.5736 82.0194 26.5999C82.153 26.6261 82.2318 26.8101 82.1968 27.0138Z" fill="white"/>
<path d="M79.7505 26.5385C79.7155 26.7422 79.5775 26.8889 79.4439 26.8648C79.3103 26.8407 79.2248 26.6458 79.2665 26.4487C79.3081 26.2516 79.4395 26.0982 79.5731 26.1245C79.7067 26.1508 79.7834 26.3348 79.7505 26.5385Z" fill="white"/>
<path d="M80.6487 26.5383C80.6487 26.5383 79.9763 27.6334 79.3652 28.1065C79.6675 28.5117 80.3092 28.4701 80.3092 28.4701L80.6487 26.5383Z" fill="#BA4D3C"/>
<path d="M81.9583 25.3929C81.9423 25.4067 81.9296 25.4239 81.921 25.4432C81.9096 25.4734 81.9105 25.507 81.9237 25.5365C81.9368 25.566 81.961 25.5892 81.9911 25.6009C82.1706 25.6756 82.3653 25.7065 82.5591 25.6913C82.7529 25.6761 82.9403 25.6151 83.1059 25.5133C83.1189 25.5042 83.13 25.4925 83.1385 25.4791C83.1469 25.4656 83.1527 25.4506 83.1553 25.4349C83.158 25.4192 83.1575 25.4032 83.1539 25.3877C83.1503 25.3722 83.1437 25.3576 83.1344 25.3447C83.1155 25.3183 83.0869 25.3005 83.0549 25.2951C83.0229 25.2898 82.99 25.2974 82.9636 25.3162C82.832 25.3929 82.6845 25.4382 82.5325 25.4485C82.3805 25.4587 82.2282 25.4337 82.0875 25.3753C82.0665 25.3658 82.0432 25.3624 82.0204 25.3655C81.9975 25.3686 81.976 25.3781 81.9583 25.3929Z" fill="#263238"/>
<path d="M79.7108 25.2288C79.7065 25.209 79.6974 25.1905 79.6845 25.1749C79.6715 25.1593 79.655 25.147 79.6363 25.139C79.4931 25.0867 79.3643 25.0009 79.2607 24.889C79.1572 24.777 79.0817 24.642 79.0406 24.4951C79.0342 24.4636 79.0157 24.4358 78.9891 24.4178C78.9625 24.3998 78.9298 24.3929 78.8982 24.3987C78.8665 24.4056 78.8388 24.4245 78.8208 24.4515C78.8028 24.4785 78.796 24.5114 78.8019 24.5433C78.8498 24.7304 78.9423 24.9031 79.0717 25.0465C79.201 25.1899 79.3632 25.2999 79.5443 25.3668C79.5593 25.3729 79.5753 25.3759 79.5914 25.3758C79.6076 25.3757 79.6235 25.3724 79.6384 25.3661C79.6532 25.3597 79.6667 25.3506 79.678 25.3391C79.6893 25.3275 79.6982 25.3139 79.7042 25.2989C79.7128 25.2766 79.715 25.2524 79.7108 25.2288Z" fill="#263238"/>
<path d="M90.1545 38.4028C90.3735 38.8409 90.5553 39.2482 90.7371 39.6753C90.9189 40.1024 91.0963 40.5208 91.2671 40.9479C91.611 41.7999 91.9242 42.6694 92.2111 43.5564C92.498 44.4435 92.7587 45.3524 92.9645 46.3095C93.0675 46.7892 93.1595 47.2798 93.2296 47.7967C93.3096 48.3522 93.3433 48.9133 93.3303 49.4744C93.3235 49.8169 93.2883 50.1583 93.2252 50.495C93.1864 50.7004 93.1345 50.9031 93.0697 51.1017L93.0127 51.266L92.9426 51.439C92.8989 51.5422 92.8499 51.6431 92.7959 51.7413L92.6886 51.934C92.6404 52.0129 92.5922 52.0939 92.5418 52.1706C92.4433 52.3217 92.3381 52.4662 92.233 52.6086C92.0331 52.8595 91.8134 53.0939 91.5759 53.3095C90.7678 54.0235 89.8529 54.6066 88.8644 55.0376C88.4133 55.2566 87.9599 55.4208 87.5065 55.5807C87.0531 55.7406 86.5998 55.8808 86.1442 56.0034C85.6886 56.1261 85.2331 56.2334 84.7753 56.3276C84.3175 56.4218 83.8685 56.4919 83.3714 56.5466C83.0915 56.5791 82.8092 56.5127 82.5732 56.3588C82.3372 56.205 82.1624 55.9735 82.0792 55.7043C81.996 55.4352 82.0096 55.1454 82.1176 54.8853C82.2256 54.6251 82.4212 54.4109 82.6705 54.2797L82.7318 54.2491C84.2146 53.4803 85.7565 52.6677 87.029 51.7632C87.6084 51.3744 88.1329 50.9096 88.5885 50.3811C88.6625 50.2844 88.7298 50.1827 88.79 50.0767C88.8128 50.0374 88.8326 49.9964 88.8491 49.9541L88.8666 49.9037L88.9082 49.8007C88.9074 49.8073 88.9074 49.8139 88.9082 49.8204C88.9082 49.8204 88.9082 49.8095 88.9082 49.781C88.9082 49.7526 88.9082 49.6124 88.8951 49.4832C88.8661 49.163 88.8178 48.8448 88.7505 48.5304C88.6783 48.1756 88.5819 47.8033 88.4724 47.4353C88.2534 46.6775 87.9949 45.9021 87.7036 45.1137C87.4123 44.3252 87.1057 43.5455 86.7925 42.7592L86.2734 41.5896L85.7894 40.4397L85.7675 40.3894C85.563 39.8187 85.5812 39.192 85.8183 38.6342C86.0554 38.0764 86.4941 37.6284 87.0469 37.3797C87.5996 37.1309 88.2258 37.0997 88.8006 37.2922C89.3753 37.4847 89.8564 37.8867 90.1479 38.4182L90.1545 38.4028Z" fill="#263238"/>
<path opacity="0.2" d="M90.1545 38.4028C90.3735 38.8409 90.5553 39.2482 90.7371 39.6753C90.9189 40.1024 91.0963 40.5208 91.2671 40.9479C91.611 41.7999 91.9242 42.6694 92.2111 43.5564C92.498 44.4435 92.7587 45.3524 92.9645 46.3095C93.0675 46.7892 93.1595 47.2798 93.2296 47.7967C93.3096 48.3522 93.3433 48.9133 93.3303 49.4744C93.3235 49.8169 93.2883 50.1583 93.2252 50.495C93.1864 50.7004 93.1345 50.9031 93.0697 51.1017L93.0127 51.266L92.9426 51.439C92.8989 51.5422 92.8499 51.6431 92.7959 51.7413L92.6886 51.934C92.6404 52.0129 92.5922 52.0939 92.5418 52.1706C92.4433 52.3217 92.3381 52.4662 92.233 52.6086C92.0331 52.8595 91.8134 53.0939 91.5759 53.3095C90.7678 54.0235 89.8529 54.6066 88.8644 55.0376C88.4133 55.2566 87.9599 55.4208 87.5065 55.5807C87.0531 55.7406 86.5998 55.8808 86.1442 56.0034C85.6886 56.1261 85.2331 56.2334 84.7753 56.3276C84.3175 56.4218 83.8685 56.4919 83.3714 56.5466C83.0915 56.5791 82.8092 56.5127 82.5732 56.3588C82.3372 56.205 82.1624 55.9735 82.0792 55.7043C81.996 55.4352 82.0096 55.1454 82.1176 54.8853C82.2256 54.6251 82.4212 54.4109 82.6705 54.2797L82.7318 54.2491C84.2146 53.4803 85.7565 52.6677 87.029 51.7632C87.6084 51.3744 88.1329 50.9096 88.5885 50.3811C88.6625 50.2844 88.7298 50.1827 88.79 50.0767C88.8128 50.0374 88.8326 49.9964 88.8491 49.9541L88.8666 49.9037L88.9082 49.8007C88.9074 49.8073 88.9074 49.8139 88.9082 49.8204C88.9082 49.8204 88.9082 49.8095 88.9082 49.781C88.9082 49.7526 88.9082 49.6124 88.8951 49.4832C88.8661 49.163 88.8178 48.8448 88.7505 48.5304C88.6783 48.1756 88.5819 47.8033 88.4724 47.4353C88.2534 46.6775 87.9949 45.9021 87.7036 45.1137C87.4123 44.3252 87.1057 43.5455 86.7925 42.7592L86.2734 41.5896L85.7894 40.4397L85.7675 40.3894C85.563 39.8187 85.5812 39.192 85.8183 38.6342C86.0554 38.0764 86.4941 37.6284 87.0469 37.3797C87.5996 37.1309 88.2258 37.0997 88.8006 37.2922C89.3753 37.4847 89.8564 37.8867 90.1479 38.4182L90.1545 38.4028Z" fill="white"/>
<path d="M82.6527 54.1134L80.8721 54.1441L81.8007 57.1403C82.3492 57.0557 82.8803 56.8826 83.3733 56.6278C83.6596 56.4624 83.8718 56.1937 83.9663 55.8769C84.0607 55.56 84.0304 55.219 83.8814 54.9238L83.8442 54.8493C83.7365 54.6258 83.567 54.4378 83.3559 54.3074C83.1448 54.177 82.9008 54.1097 82.6527 54.1134Z" fill="#CE7A63"/>
<path d="M78.9754 56.0783L79.4791 57.0704C79.5757 57.2615 79.7373 57.4119 79.9348 57.4946C80.1323 57.5773 80.3528 57.5868 80.5567 57.5216L81.8007 57.1296L80.8721 54.1443L79.3915 54.8561C79.2829 54.9079 79.1859 54.9809 79.1059 55.0708C79.026 55.1607 78.9649 55.2657 78.9261 55.3796C78.8873 55.4934 78.8717 55.6139 78.8802 55.7339C78.8886 55.8539 78.921 55.971 78.9754 56.0783Z" fill="#CE7A63"/>
<path opacity="0.2" d="M86.4287 22.2762C84.4706 21.5578 82.9025 21.5754 81.8818 21.7418C81.8014 21.7566 81.728 21.7972 81.6729 21.8576C81.6177 21.9179 81.5839 21.9947 81.5764 22.0761C81.569 22.1575 81.5884 22.2391 81.6316 22.3085C81.6749 22.3778 81.7397 22.4311 81.8161 22.4602C83.3361 23.0165 84.5802 24.6767 84.2757 27.2261C83.6668 32.3009 80.8086 37.0208 80.8086 37.0208L84.4509 37.0515C84.4509 37.0515 87.123 35.7176 88.7481 32.2658C90.3733 28.814 90.0207 23.5947 86.4287 22.2762Z" fill="black"/>
<path d="M80.8235 36.9465C80.8235 36.9465 85.2412 31.2016 85.3857 26.6328C85.5303 22.064 80.6549 21.7967 80.6549 21.7967C80.6549 21.7967 82.1749 20.6031 85.9289 21.3105C89.683 22.018 90.892 27.108 89.856 30.781C89.2014 33.0415 88.0874 35.1427 86.5838 36.9531L80.4512 38.6768L80.8235 36.9465Z" fill="#263238"/>
<path opacity="0.4" d="M80.8235 36.9465C80.8235 36.9465 85.2412 31.2016 85.3857 26.6328C85.5303 22.064 80.6549 21.7967 80.6549 21.7967C80.6549 21.7967 82.1749 20.6031 85.9289 21.3105C89.683 22.018 90.892 27.108 89.856 30.781C89.2014 33.0415 88.0874 35.1427 86.5838 36.9531L80.4512 38.6768L80.8235 36.9465Z" fill="white"/>
<path d="M73.1943 75.0523V48.4301C73.1943 47.1661 72.1696 46.1414 70.9056 46.1414H28.0319C26.7679 46.1414 25.7432 47.1661 25.7432 48.4301V75.0523C25.7432 76.3164 26.7679 77.3411 28.0319 77.3411H70.9056C72.1696 77.3411 73.1943 76.3164 73.1943 75.0523Z" fill="#407BFF"/>
<path d="M27.9033 78.1995C26.7118 78.1995 25.4809 78.5192 25.1523 78.9157L16.3717 88.7454C15.9074 89.3105 16.7025 90.6334 18.1502 90.6334H70.5688C72.0165 90.6334 73.197 90.1668 73.197 89.6018V78.9157C73.197 78.5192 72.2268 78.1995 71.0353 78.1995H27.9033Z" fill="#407BFF"/>
<path opacity="0.2" d="M27.9033 78.1995C26.7118 78.1995 25.4809 78.5192 25.1523 78.9157L16.3717 88.7454C15.9074 89.3105 16.7025 90.6334 18.1502 90.6334H70.5688C72.0165 90.6334 73.197 90.1668 73.197 89.6018V78.9157C73.197 78.5192 72.2268 78.1995 71.0353 78.1995H27.9033Z" fill="black"/>
<path d="M27.9033 77.3433C26.7118 77.3433 25.4809 77.6608 25.1523 78.0595L16.3717 88.7456C15.9074 89.3106 16.7025 89.7772 18.1502 89.7772H70.5688C72.0165 89.7772 73.197 89.3106 73.197 88.7456V78.0595C73.197 77.6608 72.2268 77.3433 71.0353 77.3433H27.9033Z" fill="#407BFF"/>
<path opacity="0.2" d="M26.8781 78.9615L23.1985 83.6793C22.9466 84.0034 23.4635 84.2663 24.3549 84.2663H68.8887C69.7824 84.2663 70.5161 84.0034 70.5314 83.6793L70.7263 78.9615C70.7373 78.6856 70.089 78.4644 69.2764 78.4644H28.7376C27.925 78.4644 27.0927 78.6856 26.8781 78.9615Z" fill="black"/>
<path opacity="0.2" d="M37.4786 85.5499L35.8995 88.4607C35.8162 88.6162 36.0725 88.7455 36.4733 88.7455H53.0861C53.487 88.7455 53.8483 88.6162 53.8922 88.4607L54.7113 85.5412C54.7507 85.3988 54.4748 85.2827 54.0937 85.2827H38.3109C37.9298 85.2915 37.5575 85.4076 37.4786 85.5499Z" fill="black"/>
<path opacity="0.7" d="M70.9413 46.7588H27.9955C27.0919 46.7588 26.3594 47.4913 26.3594 48.3949V75.0893C26.3594 75.9929 27.0919 76.7254 27.9955 76.7254H70.9413C71.8449 76.7254 72.5774 75.9929 72.5774 75.0893V48.3949C72.5774 47.4913 71.8449 46.7588 70.9413 46.7588Z" fill="white"/>
<path d="M61.5318 57.916H37.4043V72.2795H61.5318V57.916Z" fill="#407BFF"/>
<path opacity="0.1" d="M61.5318 57.916H37.4043V72.2795H61.5318V57.916Z" fill="black"/>
<path opacity="0.1" d="M49.468 65.7504L61.5318 57.916H37.4043L49.468 65.7504Z" fill="#263238"/>
<path d="M50.9749 51.0606L61.5318 57.916H37.4043L47.9612 51.0606C48.4096 50.769 48.9331 50.6138 49.468 50.6138C50.003 50.6138 50.5264 50.769 50.9749 51.0606Z" fill="#407BFF"/>
<path opacity="0.2" d="M38.2998 57.9158L48.331 51.4021C48.6694 51.1824 49.0643 51.0654 49.4677 51.0654C49.8712 51.0654 50.2661 51.1824 50.6045 51.4021L60.6357 57.9158H38.2998Z" fill="#263238"/>
<path d="M50.4541 52.5869C50.4111 52.5869 50.3699 52.5698 50.3395 52.5394C50.3091 52.509 50.292 52.4678 50.292 52.4248V45.1379C50.292 45.0949 50.3091 45.0537 50.3395 45.0233C50.3699 44.9929 50.4111 44.9758 50.4541 44.9758C50.4971 44.9758 50.5383 44.9929 50.5687 45.0233C50.5991 45.0537 50.6161 45.0949 50.6161 45.1379V52.4248C50.6161 52.4678 50.5991 52.509 50.5687 52.5394C50.5383 52.5698 50.4971 52.5869 50.4541 52.5869Z" fill="#263238"/>
<path d="M50.4539 45.3002C50.3244 45.3002 50.1978 45.2619 50.09 45.1902C49.9822 45.1185 49.898 45.0165 49.8479 44.8971C49.7979 44.7776 49.7842 44.6461 49.8087 44.5189C49.8332 44.3918 49.8947 44.2747 49.9855 44.1824C50.0763 44.0901 50.1924 44.0266 50.3191 44.0001C50.4458 43.9735 50.5776 43.985 50.6978 44.033C50.818 44.0811 50.9214 44.1636 50.9949 44.2702C51.0684 44.3768 51.1088 44.5027 51.1109 44.6322C51.1124 44.7194 51.0964 44.806 51.0641 44.887C51.0317 44.968 50.9835 45.0417 50.9224 45.1039C50.8612 45.1661 50.7883 45.2155 50.7079 45.2492C50.6274 45.2829 50.5411 45.3002 50.4539 45.3002ZM50.4539 44.2883C50.3858 44.2883 50.3194 44.3085 50.2628 44.3463C50.2063 44.3841 50.1622 44.4378 50.1362 44.5006C50.1101 44.5634 50.1033 44.6326 50.1166 44.6993C50.1299 44.766 50.1626 44.8273 50.2107 44.8753C50.2588 44.9234 50.3201 44.9562 50.3868 44.9695C50.4535 44.9827 50.5226 44.9759 50.5854 44.9499C50.6483 44.9239 50.702 44.8798 50.7398 44.8232C50.7775 44.7667 50.7977 44.7002 50.7977 44.6322C50.7977 44.541 50.7615 44.4535 50.697 44.3891C50.6325 44.3246 50.5451 44.2883 50.4539 44.2883Z" fill="#263238"/>
<path d="M43.2671 50.7056L40.0453 51.6736L39.5459 59.3066L49.4676 65.7502L59.3893 59.3066L59.8974 52.1533L43.2671 50.7056Z" fill="white"/>
<path opacity="0.6" d="M53.4848 59.1705C53.4334 59.8676 53.1764 60.5338 52.7462 61.0848C52.316 61.6358 51.7321 62.0468 51.0683 62.2658C50.4045 62.4847 49.6906 62.5019 49.017 62.315C48.3435 62.1281 47.7405 61.7456 47.2844 61.2159C46.8283 60.6862 46.5396 60.0331 46.4548 59.3392C46.37 58.6454 46.493 57.942 46.8081 57.318C47.1233 56.6941 47.6164 56.1776 48.2252 55.8341C48.8339 55.4905 49.5309 55.3353 50.2279 55.388C50.6907 55.421 51.1424 55.5452 51.557 55.7534C51.9715 55.9617 52.3408 56.2499 52.6435 56.6015C52.9463 56.953 53.1764 57.361 53.3208 57.8019C53.4652 58.2429 53.5209 58.708 53.4848 59.1705Z" fill="#407BFF"/>
<path d="M52.5912 60.6447C52.2851 61.1202 51.8562 61.5042 51.35 61.7562C50.8437 62.0082 50.2788 62.1189 49.7149 62.0765C49.1509 62.0341 48.6089 61.8402 48.146 61.5154C47.6831 61.1905 47.3165 60.7466 47.085 60.2307C47.9412 59.7486 48.9209 59.5307 49.9007 59.6043C50.8806 59.678 51.8167 60.04 52.5912 60.6447Z" fill="white"/>
<path d="M51.4152 58.1395C51.5592 57.3801 51.0604 56.6477 50.3009 56.5037C49.5415 56.3596 48.8091 56.8585 48.6651 57.6179C48.5211 58.3773 49.0199 59.1097 49.7793 59.2537C50.5387 59.3978 51.2711 58.8989 51.4152 58.1395Z" fill="white"/>
<path d="M48.8677 54.1707C48.4672 54.1688 48.0794 54.0297 47.769 53.7767C47.4585 53.5236 47.2442 53.1718 47.1616 52.7799L46.9907 52.9507C46.9601 52.9669 46.9251 52.9729 46.8908 52.9677C46.8566 52.9625 46.8249 52.9465 46.8004 52.922C46.7759 52.8976 46.7599 52.8659 46.7547 52.8316C46.7496 52.7974 46.7555 52.7623 46.7717 52.7317L47.1813 52.32C47.2039 52.2976 47.2327 52.2824 47.2639 52.2762C47.2952 52.2701 47.3276 52.2733 47.357 52.2854C47.3864 52.2976 47.4117 52.3182 47.4295 52.3445C47.4473 52.3709 47.457 52.402 47.4572 52.4339C47.4572 52.809 47.6055 53.1689 47.8697 53.4351C48.1339 53.7014 48.4927 53.8524 48.8677 53.8553C48.9107 53.8553 48.952 53.8724 48.9824 53.9028C49.0127 53.9332 49.0298 53.9744 49.0298 54.0174C49.0298 54.0604 49.0127 54.1016 48.9824 54.132C48.952 54.1624 48.9107 54.1795 48.8677 54.1795V54.1707Z" fill="#263238"/>
<path d="M43.2677 50.7056L42.707 52.4249L40.0459 51.6736" fill="#E0E0E0"/>
<path d="M43.2677 50.7056L42.9961 52.1183L40.0459 51.6736" fill="#F0F0F0"/>
<path d="M47.4114 64.4119L37.4043 72.2792H61.5318L51.5247 64.4119C50.9381 63.9511 50.2139 63.7007 49.468 63.7007C48.7222 63.7007 47.9979 63.9511 47.4114 64.4119Z" fill="#407BFF"/>
</g>
<defs>
<clipPath id="clip0_85_977">
<rect width="109.511" height="109.511" fill="white" transform="translate(0.245117 0.19458)"/>
</clipPath>
</defs>
</svg>
