<svg width="182" height="181" viewBox="0 0 182 181" fill="none" xmlns="http://www.w3.org/2000/svg">
<g clip-path="url(#clip0_85_5974)">
<path d="M181.271 138.132H0.962891V138.222H181.271V138.132Z" fill="#EBEBEB"/>
<path d="M163.204 143.934H143.287V144.024H163.204V143.934Z" fill="#EBEBEB"/>
<path d="M120.146 142.045H117.013V142.135H120.146V142.045Z" fill="#EBEBEB"/>
<path d="M142.202 140.588H135.282V140.678H142.202V140.588Z" fill="#EBEBEB"/>
<path d="M35.4559 141.194H19.8809V141.284H35.4559V141.194Z" fill="#EBEBEB"/>
<path d="M95.1016 143.523H78.6143V143.614H95.1016V143.523Z" fill="#EBEBEB"/>
<path d="M85.3978 141.999H51.6152V142.089H85.3978V141.999Z" fill="#EBEBEB"/>
<path d="M88.4919 119.99C88.4919 120.261 88.4385 120.529 88.3348 120.779C88.2311 121.029 88.0791 121.256 87.8875 121.447C87.6959 121.639 87.4685 121.79 87.2182 121.894C86.968 121.997 86.6999 122.05 86.4291 122.049H16.7977C16.2522 122.048 15.7294 121.831 15.344 121.445C14.9586 121.059 14.7422 120.536 14.7422 119.99V22.108C14.7469 21.5656 14.9655 21.047 15.3503 20.6649C15.7352 20.2827 16.2553 20.0678 16.7977 20.0669H86.4291C86.9753 20.0669 87.499 20.2838 87.8852 20.67C88.2713 21.0562 88.4883 21.5799 88.4883 22.126M88.3981 22.126C88.4 21.8661 88.3505 21.6083 88.2525 21.3675C88.1544 21.1268 88.0097 20.9078 87.8268 20.7231C87.6438 20.5385 87.4261 20.3918 87.1863 20.2916C86.9464 20.1913 86.6891 20.1395 86.4291 20.139H16.7977C16.2761 20.14 15.7762 20.3478 15.4078 20.717C15.0393 21.0861 14.8323 21.5864 14.8323 22.108V119.99C14.8323 120.512 15.0393 121.012 15.4078 121.381C15.7762 121.75 16.2761 121.958 16.7977 121.959H86.4291C86.9511 121.958 87.4513 121.75 87.8204 121.381C88.1894 121.012 88.3972 120.512 88.3981 119.99" fill="#EBEBEB"/>
<path d="M164.434 122.049H94.7994C94.2535 122.048 93.7303 121.831 93.3444 121.445C92.9584 121.059 92.7412 120.536 92.7402 119.99V22.108C92.7459 21.5653 92.9653 21.0467 93.3507 20.6646C93.7362 20.2826 94.2566 20.0678 94.7994 20.0669H164.434C164.976 20.0688 165.495 20.2841 165.879 20.6661C166.264 21.0482 166.482 21.5662 166.486 22.108V119.99C166.486 120.535 166.27 121.058 165.886 121.444C165.501 121.83 164.979 122.047 164.434 122.049ZM94.7994 20.139C94.2774 20.14 93.7772 20.3477 93.4081 20.7168C93.0391 21.0858 92.8313 21.5861 92.8304 22.108V119.99C92.8313 120.512 93.0391 121.012 93.4081 121.381C93.7772 121.75 94.2774 121.958 94.7994 121.959H164.434C164.956 121.958 165.457 121.75 165.826 121.381C166.195 121.012 166.402 120.512 166.403 119.99V22.108C166.402 21.5861 166.195 21.0858 165.826 20.7168C165.457 20.3477 164.956 20.14 164.434 20.139H94.7994Z" fill="#EBEBEB"/>
<path d="M100.446 39.478H35.463C34.3875 39.478 33.5156 40.3499 33.5156 41.4254V71.7532C33.5156 72.8287 34.3875 73.7005 35.463 73.7005H100.446C101.522 73.7005 102.393 72.8287 102.393 71.7532V41.4254C102.393 40.3499 101.522 39.478 100.446 39.478Z" fill="#F5F5F5"/>
<path d="M97.5798 36.6118H32.5967C31.5213 36.6118 30.6494 37.4837 30.6494 38.5591V68.887C30.6494 69.9625 31.5213 70.8343 32.5967 70.8343H97.5798C98.6553 70.8343 99.5272 69.9625 99.5272 68.887V38.5591C99.5272 37.4837 98.6553 36.6118 97.5798 36.6118Z" fill="#E0E0E0"/>
<path d="M94.6365 33.6694H29.6534C28.5779 33.6694 27.7061 34.5413 27.7061 35.6168V65.9446C27.7061 67.0201 28.5779 67.8919 29.6534 67.8919H94.6365C95.712 67.8919 96.5838 67.0201 96.5838 65.9446V35.6168C96.5838 34.5413 95.712 33.6694 94.6365 33.6694Z" fill="#EBEBEB"/>
<path d="M90.5729 37.5166H33.7181C32.6505 37.5166 31.7852 38.382 31.7852 39.4495V46.3156C31.7852 47.3832 32.6505 48.2485 33.7181 48.2485H90.5729C91.6404 48.2485 92.5058 47.3832 92.5058 46.3156V39.4495C92.5058 38.382 91.6404 37.5166 90.5729 37.5166Z" fill="white"/>
<path d="M79.3073 52.7275H44.9839C44.2091 52.7275 43.5811 53.3556 43.5811 54.1303V60.589C43.5811 61.3637 44.2091 61.9918 44.9839 61.9918H79.3073C80.0821 61.9918 80.7101 61.3637 80.7101 60.589V54.1303C80.7101 53.3556 80.0821 52.7275 79.3073 52.7275Z" fill="#E0E0E0"/>
<path d="M62.1459 46.1574C61.9849 46.1565 61.8308 46.0918 61.7173 45.9776C61.6038 45.8635 61.54 45.709 61.54 45.548V40.2145C61.5518 40.0614 61.621 39.9184 61.7336 39.8141C61.8463 39.7098 61.9942 39.6519 62.1477 39.6519C62.3012 39.6519 62.4491 39.7098 62.5617 39.8141C62.6744 39.9184 62.7435 40.0614 62.7553 40.2145V45.548C62.7553 45.7096 62.6911 45.8646 62.5768 45.9789C62.4625 46.0932 62.3075 46.1574 62.1459 46.1574Z" fill="#E0E0E0"/>
<path d="M64.8104 43.5066H59.4805C59.3968 43.5131 59.3126 43.5022 59.2333 43.4746C59.154 43.4469 59.0812 43.4032 59.0196 43.3462C58.958 43.2891 58.9088 43.22 58.8752 43.143C58.8416 43.066 58.8242 42.983 58.8242 42.899C58.8242 42.815 58.8416 42.7319 58.8752 42.655C58.9088 42.578 58.958 42.5089 59.0196 42.4518C59.0812 42.3947 59.154 42.351 59.2333 42.3234C59.3126 42.2958 59.3968 42.2849 59.4805 42.2914H64.8104C64.8941 42.2849 64.9783 42.2958 65.0576 42.3234C65.1369 42.351 65.2097 42.3947 65.2713 42.4518C65.3329 42.5089 65.3821 42.578 65.4157 42.655C65.4493 42.7319 65.4667 42.815 65.4667 42.899C65.4667 42.983 65.4493 43.066 65.4157 43.143C65.3821 43.22 65.3329 43.2891 65.2713 43.3462C65.2097 43.4032 65.1369 43.4469 65.0576 43.4746C64.9783 43.5022 64.8941 43.5131 64.8104 43.5066Z" fill="#E0E0E0"/>
<path d="M64.0313 45.3744C63.9516 45.3748 63.8727 45.3594 63.799 45.3291C63.7253 45.2987 63.6584 45.2541 63.6021 45.1977L59.8301 41.4257C59.7737 41.3693 59.729 41.3024 59.6985 41.2288C59.668 41.1551 59.6523 41.0762 59.6523 40.9965C59.6523 40.9168 59.668 40.8379 59.6985 40.7643C59.729 40.6907 59.7737 40.6238 59.8301 40.5674C59.8865 40.511 59.9534 40.4663 60.027 40.4358C60.1006 40.4053 60.1795 40.3896 60.2592 40.3896C60.3389 40.3896 60.4178 40.4053 60.4915 40.4358C60.5651 40.4663 60.632 40.511 60.6884 40.5674L64.4604 44.3358C64.5747 44.4501 64.6389 44.6051 64.6389 44.7668C64.6389 44.9284 64.5747 45.0834 64.4604 45.1977C64.4041 45.2541 64.3372 45.2987 64.2636 45.3291C64.1899 45.3594 64.1109 45.3748 64.0313 45.3744Z" fill="#E0E0E0"/>
<path d="M60.259 45.3744C60.1793 45.3748 60.1004 45.3594 60.0267 45.3291C59.9531 45.2987 59.8862 45.2541 59.8299 45.1977C59.7156 45.0834 59.6514 44.9284 59.6514 44.7668C59.6514 44.6051 59.7156 44.4501 59.8299 44.3358L63.6019 40.5674C63.7157 40.4536 63.8701 40.3896 64.031 40.3896C64.192 40.3896 64.3464 40.4536 64.4602 40.5674C64.574 40.6812 64.6379 40.8356 64.6379 40.9965C64.6379 41.1575 64.574 41.3119 64.4602 41.4257L60.6881 45.1977C60.6318 45.2541 60.5649 45.2987 60.4913 45.3291C60.4176 45.3594 60.3387 45.3748 60.259 45.3744Z" fill="#E0E0E0"/>
<path d="M77.335 46.1574C77.1734 46.1574 77.0184 46.0932 76.9041 45.9789C76.7898 45.8646 76.7256 45.7096 76.7256 45.548V40.2145C76.7374 40.0614 76.8065 39.9184 76.9192 39.8141C77.0318 39.7098 77.1797 39.6519 77.3332 39.6519C77.4867 39.6519 77.6346 39.7098 77.7473 39.8141C77.8599 39.9184 77.9291 40.0614 77.9409 40.2145V45.548C77.9409 45.709 77.8772 45.8635 77.7636 45.9776C77.6501 46.0918 77.496 46.1565 77.335 46.1574Z" fill="#E0E0E0"/>
<path d="M79.9996 43.5068H74.6661C74.513 43.495 74.3701 43.4258 74.2658 43.3132C74.1615 43.2005 74.1035 43.0527 74.1035 42.8991C74.1035 42.7456 74.1615 42.5977 74.2658 42.4851C74.3701 42.3724 74.513 42.3033 74.6661 42.2915H79.9996C80.1527 42.3033 80.2957 42.3724 80.4 42.4851C80.5043 42.5977 80.5622 42.7456 80.5622 42.8991C80.5622 43.0527 80.5043 43.2005 80.4 43.3132C80.2957 43.4258 80.1527 43.495 79.9996 43.5068Z" fill="#E0E0E0"/>
<path d="M79.2171 45.3744C79.1375 45.3748 79.0585 45.3594 78.9849 45.3291C78.9112 45.2987 78.8443 45.2541 78.788 45.1977L75.0196 41.4257C74.9632 41.3693 74.9185 41.3024 74.888 41.2288C74.8575 41.1551 74.8418 41.0762 74.8418 40.9965C74.8418 40.9168 74.8575 40.8379 74.888 40.7643C74.9185 40.6907 74.9632 40.6238 75.0196 40.5674C75.0759 40.511 75.1428 40.4663 75.2164 40.4358C75.2901 40.4053 75.369 40.3896 75.4487 40.3896C75.5284 40.3896 75.6073 40.4053 75.6809 40.4358C75.7546 40.4663 75.8215 40.511 75.8778 40.5674L79.6499 44.3358C79.7624 44.4511 79.8254 44.6057 79.8254 44.7668C79.8254 44.9278 79.7624 45.0825 79.6499 45.1977C79.593 45.2544 79.5255 45.2991 79.4512 45.3295C79.3769 45.3598 79.2974 45.3751 79.2171 45.3744Z" fill="#E0E0E0"/>
<path d="M75.4485 45.3742C75.3688 45.3746 75.2898 45.3592 75.2162 45.3288C75.1425 45.2985 75.0756 45.2538 75.0193 45.1975C74.905 45.0832 74.8408 44.9282 74.8408 44.7665C74.8408 44.6049 74.905 44.4499 75.0193 44.3356L78.7878 40.5672C78.8426 40.5044 78.9098 40.4536 78.9851 40.4178C79.0604 40.3821 79.1422 40.3621 79.2255 40.3592C79.3088 40.3564 79.3918 40.3706 79.4694 40.4011C79.547 40.4316 79.6175 40.4777 79.6766 40.5365C79.7356 40.5953 79.782 40.6656 79.8128 40.7431C79.8436 40.8205 79.8582 40.9035 79.8557 40.9868C79.8532 41.0701 79.8336 41.152 79.7981 41.2275C79.7627 41.3029 79.7122 41.3703 79.6496 41.4254L75.8776 45.1975C75.8213 45.2538 75.7544 45.2985 75.6807 45.3288C75.6071 45.3592 75.5281 45.3746 75.4485 45.3742Z" fill="#E0E0E0"/>
<path d="M46.96 46.1574C46.7984 46.1574 46.6434 46.0932 46.5291 45.9789C46.4148 45.8646 46.3506 45.7096 46.3506 45.548V40.2145C46.3624 40.0614 46.4315 39.9184 46.5442 39.8141C46.6568 39.7098 46.8047 39.6519 46.9582 39.6519C47.1117 39.6519 47.2596 39.7098 47.3723 39.8141C47.4849 39.9184 47.5541 40.0614 47.5659 40.2145V45.548C47.5659 45.709 47.5022 45.8635 47.3886 45.9776C47.2751 46.0918 47.121 46.1565 46.96 46.1574Z" fill="#E0E0E0"/>
<path d="M49.6246 43.5068H44.2911C44.138 43.495 43.9951 43.4258 43.8908 43.3132C43.7865 43.2005 43.7285 43.0527 43.7285 42.8991C43.7285 42.7456 43.7865 42.5977 43.8908 42.4851C43.9951 42.3724 44.138 42.3033 44.2911 42.2915H49.6246C49.7777 42.3033 49.9207 42.3724 50.025 42.4851C50.1293 42.5977 50.1872 42.7456 50.1872 42.8991C50.1872 43.0527 50.1293 43.2005 50.025 43.3132C49.9207 43.4258 49.7777 43.495 49.6246 43.5068Z" fill="#E0E0E0"/>
<path d="M48.8421 45.3744C48.7625 45.3748 48.6835 45.3594 48.6099 45.3291C48.5362 45.2987 48.4693 45.2541 48.413 45.1977L44.6445 41.4257C44.5882 41.3693 44.5435 41.3024 44.513 41.2288C44.4825 41.1551 44.4668 41.0762 44.4668 40.9965C44.4668 40.9168 44.4825 40.8379 44.513 40.7643C44.5435 40.6907 44.5882 40.6238 44.6445 40.5674C44.7009 40.511 44.7678 40.4663 44.8414 40.4358C44.9151 40.4053 44.994 40.3896 45.0737 40.3896C45.1534 40.3896 45.2323 40.4053 45.3059 40.4358C45.3796 40.4663 45.4465 40.511 45.5028 40.5674L49.2857 44.3358C49.3982 44.4511 49.4613 44.6057 49.4613 44.7668C49.4613 44.9278 49.3982 45.0825 49.2857 45.1977C49.2276 45.2557 49.1583 45.3012 49.082 45.3316C49.0058 45.362 48.9242 45.3765 48.8421 45.3744Z" fill="#E0E0E0"/>
<path d="M45.0735 45.3742C44.9938 45.3748 44.9148 45.3594 44.8411 45.3291C44.7674 45.2988 44.7005 45.254 44.6443 45.1975C44.53 45.0832 44.4658 44.9282 44.4658 44.7665C44.4658 44.6049 44.53 44.4499 44.6443 44.3356L48.4128 40.5672C48.4676 40.5044 48.5348 40.4536 48.6101 40.4178C48.6854 40.3821 48.7672 40.3621 48.8505 40.3592C48.9338 40.3564 49.0168 40.3706 49.0944 40.4011C49.172 40.4316 49.2425 40.4777 49.3016 40.5365C49.3606 40.5953 49.407 40.6656 49.4378 40.7431C49.4686 40.8205 49.4832 40.9035 49.4807 40.9868C49.4782 41.0701 49.4586 41.152 49.4231 41.2275C49.3877 41.3029 49.3372 41.3703 49.2746 41.4254L45.5026 45.1975C45.4463 45.2538 45.3794 45.2985 45.3057 45.3288C45.2321 45.3592 45.1531 45.3746 45.0735 45.3742Z" fill="#E0E0E0"/>
<path d="M25.7517 110.221L20.9772 95.0755C20.9349 94.9343 20.9219 94.786 20.9389 94.6397C20.956 94.4933 21.0027 94.352 21.0763 94.2244C21.1499 94.0967 21.2488 93.9855 21.367 93.8974C21.4851 93.8094 21.62 93.7464 21.7633 93.7123L22.3728 93.5789C24.2421 93.1359 26.0315 92.406 27.6774 91.4152C29.3302 90.3852 30.75 89.0219 31.8462 87.4124C32.0011 87.1859 32.2363 87.0268 32.5041 86.9672C32.7719 86.9076 33.0523 86.952 33.2886 87.0914C34.9714 88.0736 36.8386 88.6985 38.7736 88.927C40.6855 89.1223 42.6161 89.0202 44.4966 88.624L45.1096 88.487C45.2535 88.4541 45.4026 88.4516 45.5474 88.4796C45.6923 88.5077 45.8297 88.5656 45.9509 88.6498C46.0721 88.734 46.1743 88.8425 46.2512 88.9685C46.328 89.0945 46.3777 89.2351 46.397 89.3813L48.5607 105.126C48.5835 105.288 48.5683 105.453 48.5164 105.608C48.4645 105.763 48.3772 105.904 48.2614 106.02L39.3794 114.96C39.2354 115.102 39.0543 115.202 38.8567 115.246C38.659 115.291 38.4528 115.279 38.2615 115.212L26.4045 110.917C26.2497 110.859 26.1104 110.766 25.9972 110.645C25.8841 110.525 25.8001 110.38 25.7517 110.221Z" fill="#F0F0F0"/>
<path d="M35.7448 96.7988L35.5825 100.982L37.7822 108.757L34.6665 100.931L34.2698 97.2387L32.1963 94.9921L32.7697 87.5814C32.7756 87.5001 32.8022 87.4216 32.8469 87.3534C32.8915 87.2853 32.9529 87.2296 33.0251 87.1917C33.0973 87.1538 33.1779 87.1349 33.2594 87.1369C33.3409 87.1388 33.4206 87.1615 33.4909 87.2028C33.9971 87.4895 34.521 87.7437 35.0596 87.9637C35.137 87.997 35.2003 88.0563 35.2385 88.1314C35.2767 88.2065 35.2874 88.2926 35.2687 88.3748L33.8479 94.0292L35.7448 96.7988Z" fill="#E0E0E0"/>
<path d="M130.666 36.6804L110.659 43.1715C110.264 43.3004 109.936 43.5807 109.746 43.9511C109.557 44.3215 109.522 44.7518 109.65 45.1477L114.111 58.9088C114.239 59.3043 114.52 59.6326 114.89 59.8219C115.26 60.0111 115.691 60.0459 116.087 59.9186L136.094 53.4275C136.489 53.2986 136.817 53.0183 137.007 52.6479C137.196 52.2775 137.231 51.8473 137.103 51.4513L132.643 37.6902C132.514 37.2947 132.233 36.9664 131.863 36.7772C131.493 36.5879 131.062 36.5531 130.666 36.6804Z" fill="#F5F5F5"/>
<path d="M124.46 47.7367L126.681 52.6916L123.281 53.7951L122.17 48.4796C121.582 48.3861 121.043 48.0974 120.639 47.66C120.235 47.2226 119.99 46.662 119.944 46.0685C119.897 45.475 120.052 44.8831 120.383 44.3883C120.714 43.8935 121.202 43.5245 121.768 43.3408C122.334 43.1571 122.946 43.1694 123.505 43.3756C124.063 43.5819 124.536 43.9702 124.847 44.4779C125.157 44.9856 125.288 45.5832 125.218 46.1744C125.148 46.7656 124.881 47.3159 124.46 47.7367Z" fill="#E0E0E0"/>
<path d="M106.747 26.3414C103.656 30.6904 104.731 36.756 108.867 40.1277L109.852 40.9319C110.138 41.1653 110.506 41.2751 110.874 41.2372C111.242 41.1993 111.58 41.0169 111.813 40.73C112.047 40.443 112.156 40.0752 112.119 39.7073C112.081 39.3394 111.898 39.0016 111.611 38.7682L110.353 37.7368C109.554 37.0835 108.903 36.2672 108.445 35.3425C107.987 34.4178 107.731 33.4059 107.695 32.3745C107.659 31.343 107.843 30.3157 108.235 29.3611C108.628 28.4066 109.219 27.5467 109.971 26.839C112.643 24.3147 116.858 24.3399 119.707 26.6659L121.272 24.3507C120.206 23.4839 118.972 22.8453 117.649 22.4746C116.325 22.1039 114.939 22.0089 113.578 22.1955C112.216 22.3821 110.907 22.8464 109.732 23.5595C108.557 24.2727 107.541 25.2195 106.747 26.3414Z" fill="#EBEBEB"/>
<path d="M136.825 119.409C135.669 119.411 134.523 119.185 133.454 118.743C132.386 118.301 131.415 117.653 130.597 116.835C129.152 115.393 128.251 113.495 128.048 111.464C127.846 109.433 128.354 107.394 129.486 105.696C130.619 103.997 132.305 102.744 134.258 102.15C136.211 101.556 138.309 101.657 140.196 102.437C142.082 103.217 143.64 104.627 144.603 106.427C145.566 108.227 145.875 110.305 145.477 112.307C145.08 114.309 144 116.111 142.422 117.407C140.844 118.702 138.866 119.41 136.825 119.409ZM133.002 114.429C133.759 115.186 134.723 115.702 135.772 115.912C136.821 116.121 137.909 116.014 138.898 115.605C139.887 115.196 140.732 114.502 141.327 113.613C141.922 112.723 142.239 111.677 142.239 110.607C142.239 109.537 141.922 108.491 141.327 107.601C140.732 106.711 139.887 106.018 138.898 105.609C137.909 105.199 136.821 105.093 135.772 105.302C134.723 105.511 133.759 106.027 133.002 106.784C131.989 107.798 131.421 109.173 131.421 110.607C131.421 112.04 131.989 113.415 133.002 114.429Z" fill="#EBEBEB"/>
<path d="M154.358 129.841C154.132 129.842 153.908 129.797 153.699 129.71C153.49 129.623 153.301 129.494 153.143 129.333L140.633 116.823C140.334 116.5 140.172 116.074 140.181 115.634C140.19 115.194 140.368 114.775 140.679 114.464C140.99 114.153 141.41 113.974 141.85 113.966C142.289 113.957 142.715 114.119 143.038 114.418L155.548 126.928C155.785 127.166 155.947 127.469 156.012 127.799C156.077 128.129 156.043 128.47 155.914 128.781C155.785 129.091 155.567 129.357 155.288 129.543C155.008 129.73 154.68 129.83 154.344 129.831L154.358 129.841Z" fill="#EBEBEB"/>
<path d="M147.838 132.196C147.502 132.195 147.174 132.094 146.895 131.907C146.616 131.72 146.398 131.454 146.27 131.143C146.141 130.833 146.107 130.491 146.172 130.162C146.237 129.832 146.397 129.528 146.634 129.29L151.073 124.854C151.229 124.686 151.417 124.551 151.626 124.457C151.835 124.363 152.061 124.312 152.29 124.308C152.519 124.303 152.746 124.345 152.959 124.431C153.171 124.517 153.364 124.644 153.526 124.806C153.688 124.968 153.816 125.161 153.902 125.374C153.987 125.586 154.029 125.814 154.025 126.043C154.02 126.272 153.969 126.498 153.876 126.707C153.782 126.916 153.647 127.104 153.479 127.259L149.039 131.695C148.882 131.854 148.695 131.98 148.489 132.066C148.283 132.152 148.062 132.196 147.838 132.196Z" fill="#EBEBEB"/>
<path d="M145.765 127.317C145.429 127.316 145.101 127.215 144.822 127.028C144.543 126.841 144.326 126.576 144.198 126.265C144.069 125.955 144.036 125.614 144.101 125.284C144.166 124.955 144.327 124.652 144.564 124.414L147.597 121.377C147.753 121.209 147.94 121.074 148.149 120.98C148.358 120.887 148.584 120.836 148.813 120.831C149.042 120.827 149.27 120.869 149.483 120.954C149.695 121.04 149.888 121.168 150.05 121.33C150.212 121.492 150.34 121.685 150.425 121.897C150.511 122.11 150.553 122.337 150.548 122.566C150.544 122.795 150.493 123.021 150.399 123.23C150.306 123.439 150.171 123.627 150.002 123.783L146.97 126.808C146.812 126.968 146.625 127.096 146.418 127.183C146.211 127.27 145.989 127.316 145.765 127.317Z" fill="#EBEBEB"/>
<path d="M91.1172 154.418C129.733 154.418 161.037 152.59 161.037 150.336C161.037 148.081 129.733 146.253 91.1172 146.253C52.5015 146.253 21.1973 148.081 21.1973 150.336C21.1973 152.59 52.5015 154.418 91.1172 154.418Z" fill="#F5F5F5"/>
<path d="M117.616 93.7866C116.31 95.651 112.61 100.101 109.358 101.302C104.23 111.475 111.312 126.026 118.164 130.775C118.164 130.775 137.313 120.836 140.364 96.5165L117.616 93.7866Z" fill="#263238"/>
<path d="M142.041 34.9989C138.153 34.2777 129.141 33.8918 128.467 44.3749C127.793 54.8581 124.392 61.7603 133.029 63.603L133.635 60.7541L142.041 34.9989Z" fill="#263238"/>
<path opacity="0.2" d="M142.041 34.9989C138.153 34.2777 129.141 33.8918 128.467 44.3749C127.793 54.8581 124.392 61.7603 133.029 63.603L133.635 60.7541L142.041 34.9989Z" fill="white"/>
<path d="M127.403 60.5308C126.439 60.1101 125.347 60.0895 124.368 60.4737C123.389 60.8578 122.602 61.6151 122.182 62.579L122.163 62.6223L120.458 66.5278C119.888 67.8368 119.3 69.1351 118.716 70.4189C118.424 71.0608 118.125 71.6954 117.814 72.3157C117.504 72.936 117.212 73.5634 116.898 74.1584C116.585 74.7535 116.26 75.3304 115.946 75.875C115.817 76.0913 115.687 76.3005 115.561 76.4988L114.948 76.589C114.223 76.6695 113.495 76.7105 112.766 76.7116C112.005 76.7116 111.226 76.6828 110.433 76.6395C109.639 76.5962 108.839 76.5097 108.031 76.4267C106.415 76.2572 104.785 76.0192 103.134 75.7488C102.315 75.6153 101.489 75.4783 100.667 75.3232L98.2185 74.8797H98.15C97.6817 74.7961 97.199 74.8839 96.7902 75.127C96.3813 75.3701 96.0737 75.7523 95.9235 76.2037C95.7733 76.655 95.7907 77.1454 95.9724 77.585C96.1541 78.0246 96.4881 78.3841 96.9131 78.5976C98.5128 79.3772 100.151 80.0753 101.821 80.6892C102.654 80.9921 103.491 81.2914 104.345 81.5583C105.2 81.8252 106.058 82.0776 106.931 82.312C108.717 82.7898 110.534 83.1405 112.369 83.3614C113.349 83.4714 114.333 83.5255 115.319 83.5237C116.411 83.5191 117.499 83.3982 118.565 83.163C119.163 83.0302 119.709 82.7256 120.137 82.2867L120.303 82.1173C120.938 81.4532 121.529 80.7472 122.07 80.004C122.575 79.3261 123.011 78.6409 123.436 77.9666C124.291 76.6179 125.045 75.2691 125.755 73.9096C126.116 73.2317 126.458 72.5501 126.787 71.8649C127.115 71.1798 127.45 70.4946 127.757 69.8022C128.063 69.1098 128.377 68.4246 128.665 67.7214C128.954 67.0182 129.235 66.3367 129.516 65.5866C129.882 64.6338 129.867 63.5768 129.473 62.6351C129.08 61.6935 128.338 60.9398 127.403 60.5308Z" fill="#263238"/>
<path opacity="0.2" d="M127.403 60.5308C126.439 60.1101 125.347 60.0895 124.368 60.4737C123.389 60.8578 122.602 61.6151 122.182 62.579L122.163 62.6223L120.458 66.5278C119.888 67.8368 119.3 69.1351 118.716 70.4189C118.424 71.0608 118.125 71.6954 117.814 72.3157C117.504 72.936 117.212 73.5634 116.898 74.1584C116.585 74.7535 116.26 75.3304 115.946 75.875C115.817 76.0913 115.687 76.3005 115.561 76.4988L114.948 76.589C114.223 76.6695 113.495 76.7105 112.766 76.7116C112.005 76.7116 111.226 76.6828 110.433 76.6395C109.639 76.5962 108.839 76.5097 108.031 76.4267C106.415 76.2572 104.785 76.0192 103.134 75.7488C102.315 75.6153 101.489 75.4783 100.667 75.3232L98.2185 74.8797H98.15C97.6817 74.7961 97.199 74.8839 96.7902 75.127C96.3813 75.3701 96.0737 75.7523 95.9235 76.2037C95.7733 76.655 95.7907 77.1454 95.9724 77.585C96.1541 78.0246 96.4881 78.3841 96.9131 78.5976C98.5128 79.3772 100.151 80.0753 101.821 80.6892C102.654 80.9921 103.491 81.2914 104.345 81.5583C105.2 81.8252 106.058 82.0776 106.931 82.312C108.717 82.7898 110.534 83.1405 112.369 83.3614C113.349 83.4714 114.333 83.5255 115.319 83.5237C116.411 83.5191 117.499 83.3982 118.565 83.163C119.163 83.0302 119.709 82.7256 120.137 82.2867L120.303 82.1173C120.938 81.4532 121.529 80.7472 122.07 80.004C122.575 79.3261 123.011 78.6409 123.436 77.9666C124.291 76.6179 125.045 75.2691 125.755 73.9096C126.116 73.2317 126.458 72.5501 126.787 71.8649C127.115 71.1798 127.45 70.4946 127.757 69.8022C128.063 69.1098 128.377 68.4246 128.665 67.7214C128.954 67.0182 129.235 66.3367 129.516 65.5866C129.882 64.6338 129.867 63.5768 129.473 62.6351C129.08 61.6935 128.338 60.9398 127.403 60.5308Z" fill="white"/>
<path d="M97.512 74.6524L94.5477 73.7725L94.5225 78.9185C94.5225 78.9185 96.4157 79.2394 97.768 78.749C98.1645 78.5925 98.4949 78.304 98.7032 77.9321C98.9115 77.5602 98.9849 77.1277 98.9112 76.7079L98.8318 76.1814C98.7782 75.8281 98.6259 75.4971 98.3923 75.2266C98.1588 74.9561 97.8537 74.757 97.512 74.6524Z" fill="#CE7A63"/>
<path d="M90.6129 75.8637L90.9086 77.6668C90.9644 78.0149 91.1424 78.3318 91.4108 78.5605C91.6791 78.7892 92.0202 78.9147 92.3728 78.9146H94.5365L94.5617 73.7686L91.8859 74.1292C91.6864 74.1549 91.4941 74.2208 91.3208 74.323C91.1476 74.4252 90.9968 74.5615 90.8778 74.7237C90.7588 74.8859 90.6739 75.0706 90.6284 75.2665C90.5829 75.4625 90.5776 75.6657 90.6129 75.8637Z" fill="#CE7A63"/>
<path d="M143.046 59.3011C137.628 58.508 132.138 58.3181 126.678 58.7349C125.436 58.8414 124.275 59.3938 123.41 60.2901C122.544 61.1864 122.032 62.3659 121.968 63.6105C121.528 74.4595 119.873 85.2249 117.035 95.7054C119.339 98.3343 127.244 103.181 140.093 100.101C144.254 93.0729 147.157 82.5284 149.934 69.1279C150.177 68.0261 150.189 66.8858 149.968 65.7793C149.747 64.6728 149.298 63.6244 148.651 62.7004C148.003 61.7764 147.17 60.9972 146.206 60.412C145.241 59.8268 144.165 59.4485 143.046 59.3011Z" fill="#263238"/>
<path opacity="0.4" d="M143.046 59.3011C137.628 58.508 132.138 58.3181 126.678 58.7349C125.436 58.8414 124.275 59.3938 123.41 60.2901C122.544 61.1864 122.032 62.3659 121.968 63.6105C121.528 74.4595 119.873 85.2249 117.035 95.7054C119.339 98.3343 127.244 103.181 140.093 100.101C144.254 93.0729 147.157 82.5284 149.934 69.1279C150.177 68.0261 150.189 66.8858 149.968 65.7793C149.747 64.6728 149.298 63.6244 148.651 62.7004C148.003 61.7764 147.17 60.9972 146.206 60.412C145.241 59.8268 144.165 59.4485 143.046 59.3011Z" fill="white"/>
<path opacity="0.4" d="M131.806 61.6733C129.3 68.7054 129.498 73.2996 128.921 78.2869C128.344 83.2743 125.762 94.7419 122.906 98.0235" stroke="#263238" stroke-width="0.664468" stroke-miterlimit="10"/>
<path d="M55.6545 46.5459C59.3472 48.1567 63.0087 49.8288 66.6389 51.5621C70.2691 53.2955 73.8849 55.0577 77.4862 56.8488C84.6769 60.4549 91.7835 64.2342 98.8059 68.1865C105.828 72.1389 112.72 76.316 119.48 80.718C126.213 85.1608 132.783 89.8668 139.101 94.9299C139.23 95.0333 139.338 95.1612 139.417 95.3062C139.497 95.4512 139.547 95.6104 139.565 95.7748C139.583 95.9393 139.569 96.1056 139.523 96.2645C139.476 96.4233 139.399 96.5714 139.296 96.7005C139.192 96.8295 139.065 96.9369 138.92 97.0166C138.775 97.0962 138.615 97.1465 138.451 97.1646C138.287 97.1826 138.12 97.1682 137.961 97.122C137.802 97.0757 137.654 96.9987 137.525 96.8952H137.504C131.373 91.7925 124.943 87.0071 118.34 82.4706C111.693 77.9941 104.915 73.7124 98.0053 69.6254C91.0959 65.5384 84.0759 61.6317 76.9453 57.9054C73.3896 56.0374 69.8135 54.2114 66.217 52.4276C62.6204 50.6437 59.001 48.9092 55.3588 47.2239C55.2694 47.1837 55.1996 47.1097 55.1647 47.018C55.1299 46.9264 55.1329 46.8247 55.1731 46.7353C55.2133 46.6458 55.2873 46.576 55.3789 46.5412C55.4706 46.5064 55.5723 46.5094 55.6617 46.5495L55.6545 46.5459Z" fill="#263238"/>
<path d="M128.73 90.7146C123.037 86.4858 117.195 82.4637 111.204 78.6484C108.218 76.7251 105.207 74.8511 102.17 73.0264C99.1341 71.2017 96.0773 69.3986 93 67.6171C86.8455 64.0879 80.6188 60.6885 74.3201 57.4189C68.0237 54.1517 61.6768 50.9783 55.2398 47.9996H55.2939C53.1466 47.7934 50.985 47.7802 48.8353 47.9599C46.6846 48.1258 44.5504 48.461 42.4524 48.9624C41.4067 49.2143 40.3771 49.5286 39.3691 49.9036C38.3643 50.2641 37.4085 50.7487 36.5238 51.3461C36.0927 51.6434 35.7127 52.0088 35.3987 52.428C35.0888 52.8246 34.9268 53.3168 34.9407 53.8199C34.9868 54.3265 35.1812 54.8081 35.4997 55.2047C35.8212 55.6194 36.1931 55.9925 36.6068 56.3154C37.4569 56.9653 38.3717 57.526 39.3367 57.9887C40.2923 58.4683 41.3128 58.8577 42.2721 59.3951C43.2608 59.9 44.1511 60.5778 44.901 61.3965C45.2751 61.8286 45.5562 62.3331 45.7268 62.8786C45.8762 63.4357 45.891 64.0204 45.7701 64.5843C45.481 65.6608 44.9755 66.667 44.2843 67.5414C43.6388 68.4285 42.9284 69.2507 42.2432 70.0837C41.5448 70.9005 40.8968 71.7592 40.3031 72.6549C39.7049 73.5356 39.3231 74.5451 39.1888 75.6012C39.1096 76.6392 39.4237 77.669 40.0687 78.4861C40.7195 79.3212 41.5043 80.0426 42.3911 80.621C44.1401 81.829 46.3218 82.2401 48.4458 82.1896C50.5912 82.1065 52.7165 81.7428 54.7674 81.1078C56.828 80.479 58.8507 79.7325 60.8258 78.872C64.7926 77.1879 68.6512 75.2009 72.553 73.3077C74.4966 72.3283 76.4954 71.4626 78.5393 70.7148C79.0599 70.533 79.591 70.3825 80.1296 70.264C80.6809 70.1333 81.2475 70.0787 81.8137 70.1018C82.1139 70.1169 82.4091 70.184 82.6864 70.3001C82.9807 70.4233 83.237 70.6224 83.4292 70.8771C83.7594 71.3799 83.9211 71.9748 83.8908 72.5756C83.8913 72.6106 83.8849 72.6454 83.8719 72.678C83.8589 72.7106 83.8397 72.7402 83.8152 72.7654C83.7908 72.7905 83.7616 72.8105 83.7294 72.8244C83.6972 72.8382 83.6626 72.8456 83.6276 72.8461C83.5577 72.8452 83.4909 72.8172 83.4411 72.7682C83.3914 72.7191 83.3626 72.6527 83.3607 72.5828C83.3885 72.096 83.2623 71.6128 83.0001 71.2017C82.8488 71.0231 82.6604 70.8796 82.448 70.7813C82.2357 70.6829 82.0044 70.6319 81.7704 70.6319C81.2528 70.6118 80.7349 70.6616 80.2306 70.7797C79.7121 70.8957 79.2005 71.0402 78.6979 71.2125C76.6734 71.9508 74.6928 72.8044 72.7658 73.7692C68.8712 75.6517 65.0126 77.6387 61.0061 79.3227C59.0072 80.1819 56.9603 80.9248 54.8756 81.5477C52.7834 82.1933 50.6158 82.5631 48.4278 82.6476C47.3242 82.6776 46.2214 82.5661 45.1462 82.3159C44.0625 82.0631 43.0345 81.6132 42.1134 80.9888C41.1854 80.3798 40.3642 79.6219 39.6828 78.7458C39.3465 78.29 39.0848 77.7836 38.9075 77.2456C38.7381 76.7001 38.6768 76.1268 38.7272 75.5579C38.8792 74.4455 39.2905 73.3844 39.9281 72.4602C40.5303 71.5506 41.1891 70.6798 41.9006 69.8529C42.593 69.0163 43.2998 68.1977 43.9309 67.3286C44.5961 66.5044 45.0868 65.5535 45.3734 64.5339C45.4816 64.0347 45.4705 63.517 45.3409 63.0229C45.1867 62.5314 44.9326 62.0771 44.5944 61.6886C43.8752 60.9035 43.02 60.2547 42.0701 59.7737C41.1397 59.2508 40.13 58.8614 39.1527 58.3673C38.1638 57.8929 37.2271 57.3164 36.358 56.6472C35.9179 56.3026 35.5229 55.904 35.1823 55.4607C34.8213 55.0053 34.6029 54.4532 34.5549 53.874C34.537 53.2845 34.7244 52.7071 35.085 52.2404C35.4266 51.7907 35.8381 51.3987 36.3039 51.0793C37.2154 50.4637 38.2003 49.9646 39.2357 49.5935C40.2573 49.2132 41.3015 48.8965 42.3622 48.6451C44.4792 48.1416 46.6328 47.8075 48.8028 47.6462C50.972 47.4665 53.153 47.4834 55.3192 47.6967C55.3371 47.6934 55.3554 47.6934 55.3733 47.6967C61.8103 50.6934 68.1535 53.8812 74.4463 57.1628C80.739 60.4445 86.9633 63.8595 93.1118 67.4044C96.1915 69.1762 99.2471 70.9793 102.279 72.8136C105.31 74.6479 108.321 76.5388 111.312 78.4861C117.282 82.3327 123.119 86.3704 128.824 90.5992C128.832 90.6054 128.838 90.6131 128.844 90.6218C128.849 90.6306 128.852 90.6403 128.853 90.6503C128.855 90.6604 128.854 90.6706 128.851 90.6804C128.849 90.6902 128.844 90.6994 128.838 90.7074C128.832 90.7155 128.824 90.7222 128.815 90.7273C128.807 90.7324 128.797 90.7357 128.787 90.737C128.777 90.7384 128.767 90.7377 128.757 90.7351C128.747 90.7325 128.738 90.728 128.73 90.7218V90.7146Z" fill="#263238"/>
<path d="M60.9526 49.7518L60.5559 50.473C60.496 50.5786 60.397 50.6563 60.2802 50.6893C60.1635 50.7224 60.0384 50.7082 59.9321 50.6497C59.8265 50.5898 59.7488 50.4908 59.7157 50.374C59.6826 50.2573 59.6969 50.1322 59.7553 50.0258L60.1556 49.3046C60.2155 49.1991 60.3146 49.1213 60.4313 49.0883C60.5481 49.0552 60.6732 49.0694 60.7795 49.1279C60.8322 49.1572 60.8785 49.1966 60.9158 49.244C60.953 49.2913 60.9805 49.3456 60.9966 49.4036C61.0127 49.4617 61.0172 49.5223 61.0096 49.5821C61.002 49.6419 60.9827 49.6996 60.9526 49.7518Z" fill="#263238"/>
<path d="M81.9473 60.5233L81.547 61.2446C81.5177 61.2972 81.4783 61.3435 81.431 61.3808C81.3836 61.4181 81.3294 61.4456 81.2713 61.4617C81.2132 61.4778 81.1526 61.4822 81.0928 61.4746C81.033 61.4671 80.9753 61.4477 80.9231 61.4176C80.8705 61.3884 80.8241 61.3489 80.7869 61.3016C80.7496 61.2543 80.7221 61.2 80.706 61.1419C80.6899 61.0839 80.6855 61.0232 80.693 60.9634C80.7006 60.9037 80.72 60.846 80.75 60.7938L81.1467 60.0726C81.176 60.0199 81.2154 59.9736 81.2628 59.9363C81.3101 59.899 81.3644 59.8715 81.4224 59.8554C81.4805 59.8393 81.5411 59.8349 81.6009 59.8425C81.6607 59.85 81.7184 59.8694 81.7706 59.8995C81.8761 59.9593 81.9539 60.0584 81.9869 60.1751C82.02 60.2919 82.0058 60.417 81.9473 60.5233Z" fill="#263238"/>
<path d="M103.822 72.7767L103.422 73.4979C103.362 73.6035 103.263 73.6812 103.146 73.7142C103.03 73.7473 102.905 73.7331 102.798 73.6746C102.693 73.6147 102.615 73.5157 102.582 73.3989C102.549 73.2822 102.563 73.1571 102.622 73.0507L103.022 72.3295C103.082 72.224 103.181 72.1462 103.298 72.1132C103.414 72.0801 103.539 72.0943 103.646 72.1528C103.751 72.2127 103.829 72.3117 103.862 72.4285C103.895 72.5453 103.881 72.6703 103.822 72.7767Z" fill="#263238"/>
<path d="M124.781 86.6653L124.381 87.3866C124.321 87.4921 124.222 87.5698 124.105 87.6029C123.989 87.636 123.864 87.6218 123.757 87.5633C123.652 87.5034 123.574 87.4044 123.541 87.2876C123.508 87.1708 123.522 87.0458 123.581 86.9394L123.981 86.2182C124.041 86.1126 124.14 86.0349 124.257 86.0018C124.373 85.9688 124.498 85.983 124.605 86.0415C124.71 86.1014 124.788 86.2004 124.821 86.3172C124.854 86.4339 124.84 86.559 124.781 86.6653Z" fill="#263238"/>
<path d="M135.791 90.664L132.758 96.0732C132.72 96.1426 132.667 96.2031 132.604 96.2509C132.541 96.2987 132.468 96.3327 132.391 96.3507C132.314 96.3688 132.234 96.3704 132.156 96.3555C132.078 96.3406 132.005 96.3096 131.94 96.2643L124.165 90.8551C124.048 90.7751 123.966 90.6543 123.935 90.5167C123.904 90.3791 123.925 90.2347 123.995 90.1122L127.028 84.703C127.066 84.6336 127.119 84.5731 127.182 84.5253C127.245 84.4775 127.318 84.4435 127.395 84.4255C127.472 84.4075 127.552 84.4058 127.63 84.4207C127.708 84.4356 127.781 84.4667 127.847 84.5119L135.621 89.9211C135.738 90.0011 135.82 90.1219 135.851 90.2595C135.883 90.3971 135.861 90.5415 135.791 90.664Z" fill="#263238"/>
<path d="M128.621 96.4663C127.977 96.4668 127.348 96.2705 126.818 95.9037L126.281 95.5431C125.637 95.0986 125.182 94.4291 125.007 93.6663C124.831 92.9035 124.947 92.1026 125.333 91.4213L125.985 90.2601C126.049 90.1458 126.136 90.0461 126.24 89.9673C126.344 89.8884 126.464 89.8322 126.591 89.8021C126.718 89.7741 126.85 89.7724 126.978 89.7972C127.105 89.8221 127.227 89.8728 127.334 89.9463L131.521 92.8565C131.712 92.9891 131.847 93.1883 131.899 93.4151C131.951 93.6419 131.916 93.8799 131.802 94.0826L131.358 94.8724C131.144 95.2548 130.852 95.5883 130.501 95.8516C130.15 96.1149 129.748 96.3021 129.321 96.4014C129.091 96.4493 128.856 96.4711 128.621 96.4663ZM126.912 91.1724L126.458 92.0235C126.225 92.4316 126.155 92.9122 126.261 93.3698C126.366 93.8274 126.64 94.2285 127.027 94.4937L127.561 94.8543C127.777 95.0057 128.023 95.1097 128.282 95.1594C128.541 95.2091 128.808 95.2035 129.065 95.1428C129.322 95.086 129.563 94.9748 129.774 94.8168C129.984 94.6588 130.158 94.4577 130.284 94.2269L130.583 93.6932L126.912 91.1724Z" fill="#263238"/>
<path d="M135.369 88.7816L134.593 90.1664C134.577 90.1969 134.553 90.2235 134.526 90.2445C134.498 90.2655 134.466 90.2804 134.432 90.2882C134.398 90.296 134.362 90.2966 134.328 90.2899C134.294 90.2832 134.261 90.2694 134.233 90.2493L129.058 86.6432C128.997 86.5989 128.954 86.5338 128.937 86.4601C128.921 86.3864 128.932 86.3091 128.968 86.2429L129.743 84.8581C129.76 84.8276 129.783 84.801 129.811 84.78C129.839 84.759 129.871 84.7441 129.905 84.7363C129.939 84.7285 129.974 84.7279 130.009 84.7346C130.043 84.7413 130.075 84.7551 130.104 84.7752L135.279 88.3814C135.34 88.4256 135.383 88.4908 135.399 88.5645C135.416 88.6382 135.405 88.7154 135.369 88.7816Z" fill="#263238"/>
<path d="M140.205 48.7021L133.642 53.2964C134.164 55.6224 134.183 58.0565 130.966 58.7742C131.233 59.856 132.087 60.5448 133.634 60.7431C135.665 61.1398 137.212 61.3201 138.903 60.1301C139.567 59.6649 140.367 59.2322 140.01 58.4568C138.795 55.8207 139.538 51.3166 140.205 48.7021Z" fill="#CE7A63"/>
<path opacity="0.2" d="M137.529 50.5776L133.646 53.2931C133.784 53.8607 133.867 54.4404 133.894 55.024C135.301 55.3053 137.407 53.9746 137.612 52.6079C137.7 51.9314 137.672 51.2448 137.529 50.5776Z" fill="black"/>
<path d="M142.256 44.7108C141.279 48.8002 140.911 51.2452 138.452 52.9798C134.752 55.5943 129.981 52.7598 129.718 48.4504C129.48 44.5702 131.121 38.5371 135.455 37.6319C136.416 37.4324 137.411 37.4799 138.348 37.77C139.285 38.0602 140.133 38.5835 140.813 39.2909C141.493 39.9983 141.982 40.8666 142.234 41.8146C142.487 42.7626 142.494 43.7591 142.256 44.7108Z" fill="#CE7A63"/>
<path d="M130.544 47.8117C130.544 47.8117 132.199 47.6458 136.736 48.1146C136.054 49.2722 134.933 50.1593 132.625 49.8997C130.317 49.64 130.544 47.8117 130.544 47.8117Z" fill="white"/>
<path d="M141.643 36.9135C137.525 34.3892 132.019 35.7163 131.056 38.457C131.64 38.0971 132.329 37.947 133.01 38.0315C132.181 38.4426 131.056 39.4487 131.47 40.7577C132.469 39.5857 133.515 39.5533 133.515 39.5533C133.515 39.5533 134.28 40.9957 136.739 41.3167C136.622 40.8878 136.527 40.4533 136.454 40.0148C136.824 40.7361 137.356 41.3617 138.009 41.8422C138.661 42.3228 139.417 42.6454 140.215 42.7844C139.494 43.5705 139.274 46.423 141.048 47.5409C143.573 47.3786 145.661 46.5348 145.52 44.9841C145.701 45.3651 145.858 45.7564 145.992 46.1561C145.992 46.1561 147.594 44.0213 145.697 41.5871C146.605 40.4332 144.673 38.7743 141.643 36.9135Z" fill="#263238"/>
<path d="M130.425 42.1361C130.425 42.1361 129.556 43.8851 129.703 45.1942C130.674 45.1942 132.989 44.8336 132.989 44.8336C133.82 45.5627 134.796 46.1094 135.852 46.4383C137.395 46.8386 142.419 46.5032 142.419 46.5032L142.628 45.0607C142.628 45.0607 135.884 42.8502 133.281 42.3922C130.677 41.9342 130.425 42.1361 130.425 42.1361Z" fill="#263238"/>
<path d="M143.505 49.1208C143.18 49.5303 142.778 49.8718 142.321 50.1255C141.865 50.3792 141.362 50.5402 140.843 50.5993C139.451 50.7471 138.975 49.4417 139.545 48.2481C140.061 47.1662 141.406 45.7995 142.719 46.207C144.031 46.6145 144.294 48.1002 143.505 49.1208Z" fill="#CE7A63"/>
<path d="M135.895 44.39C135.834 44.7254 135.611 44.967 135.391 44.9273C135.171 44.8877 135.03 44.5667 135.099 44.2422C135.167 43.9176 135.383 43.6652 135.603 43.7085C135.823 43.7517 135.953 44.0546 135.895 44.39Z" fill="white"/>
<path d="M131.867 43.6073C131.809 43.9427 131.582 44.1843 131.362 44.1446C131.142 44.105 131.002 43.784 131.07 43.4595C131.139 43.1349 131.355 42.8825 131.575 42.9257C131.795 42.969 131.921 43.2719 131.867 43.6073Z" fill="white"/>
<path d="M133.346 43.6069C133.346 43.6069 132.239 45.41 131.232 46.1889C131.73 46.8561 132.787 46.7876 132.787 46.7876L133.346 43.6069Z" fill="#BA4D3C"/>
<path d="M135.502 41.7208C135.476 41.7436 135.455 41.7719 135.441 41.8037C135.422 41.8535 135.424 41.9087 135.445 41.9573C135.467 42.0059 135.507 42.044 135.556 42.0634C135.852 42.1862 136.172 42.2372 136.491 42.2122C136.81 42.1871 137.119 42.0867 137.392 41.9191C137.413 41.904 137.431 41.8849 137.445 41.8627C137.459 41.8406 137.469 41.8159 137.473 41.79C137.477 41.7642 137.477 41.7378 137.471 41.7123C137.465 41.6868 137.454 41.6627 137.439 41.6414C137.408 41.598 137.36 41.5687 137.308 41.5599C137.255 41.5511 137.201 41.5636 137.157 41.5946C136.941 41.7209 136.698 41.7955 136.448 41.8123C136.197 41.8292 135.947 41.788 135.715 41.6919C135.68 41.6762 135.642 41.6706 135.604 41.6757C135.567 41.6808 135.531 41.6965 135.502 41.7208Z" fill="#263238"/>
<path d="M131.803 41.4511C131.796 41.4185 131.781 41.388 131.759 41.3623C131.738 41.3366 131.711 41.3163 131.68 41.3033C131.444 41.217 131.232 41.0759 131.062 40.8915C130.891 40.7072 130.767 40.4849 130.699 40.243C130.689 40.1911 130.658 40.1454 130.614 40.1158C130.571 40.0861 130.517 40.0748 130.465 40.0844C130.413 40.0957 130.367 40.1268 130.337 40.1712C130.308 40.2157 130.296 40.2699 130.306 40.3224C130.385 40.6304 130.537 40.9147 130.75 41.1509C130.963 41.3871 131.23 41.568 131.529 41.6783C131.553 41.6883 131.58 41.6933 131.606 41.6931C131.633 41.6929 131.659 41.6874 131.683 41.677C131.708 41.6666 131.73 41.6515 131.749 41.6326C131.767 41.6136 131.782 41.5912 131.792 41.5665C131.806 41.5297 131.81 41.4898 131.803 41.4511Z" fill="#263238"/>
<path d="M148.997 63.1414C149.357 63.8626 149.657 64.5334 149.956 65.2366C150.255 65.9398 150.547 66.6286 150.829 67.3318C151.395 68.7346 151.911 70.1662 152.383 71.6267C152.855 73.0872 153.284 74.5838 153.623 76.1596C153.793 76.9494 153.944 77.7572 154.06 78.6082C154.192 79.5228 154.247 80.4468 154.226 81.3706C154.214 81.9345 154.157 82.4966 154.053 83.051C153.989 83.3892 153.903 83.7228 153.797 84.0499L153.703 84.3204L153.587 84.6053C153.515 84.7752 153.435 84.9413 153.346 85.1029L153.169 85.4203C153.09 85.5501 153.01 85.6835 152.927 85.8097C152.765 86.0586 152.592 86.2966 152.419 86.531C152.09 86.9441 151.728 87.33 151.337 87.6849C150.007 88.8606 148.5 89.8206 146.873 90.5302C146.13 90.8908 145.383 91.1613 144.637 91.4245C143.89 91.6878 143.144 91.9186 142.394 92.1205C141.644 92.3225 140.894 92.4992 140.14 92.6543C139.386 92.8093 138.647 92.9247 137.828 93.0149C137.368 93.0684 136.903 92.959 136.514 92.7057C136.126 92.4524 135.838 92.0712 135.701 91.628C135.564 91.1849 135.586 90.7078 135.764 90.2795C135.942 89.8511 136.264 89.4984 136.674 89.2825L136.775 89.232C139.217 87.9662 141.756 86.6283 143.851 85.139C144.805 84.499 145.668 83.7336 146.418 82.8635C146.54 82.7042 146.651 82.5367 146.75 82.3623C146.788 82.2976 146.82 82.23 146.847 82.1603L146.876 82.0774L146.945 81.9079C146.943 81.9187 146.943 81.9296 146.945 81.9403C146.945 81.9403 146.945 81.9223 146.945 81.8754C146.945 81.8285 146.945 81.5977 146.923 81.385C146.875 80.8578 146.796 80.3339 146.685 79.8163C146.566 79.2321 146.407 78.6191 146.227 78.0132C145.867 76.7655 145.441 75.4889 144.961 74.1907C144.482 72.8925 143.977 71.6087 143.461 70.3141L142.607 68.3884L141.81 66.4951L141.774 66.4122C141.437 65.4727 141.467 64.4408 141.857 63.5223C142.248 62.6039 142.97 61.8664 143.88 61.4568C144.79 61.0473 145.821 60.9958 146.768 61.3127C147.714 61.6296 148.506 62.2916 148.986 63.1666L148.997 63.1414Z" fill="#263238"/>
<path opacity="0.2" d="M148.997 63.1414C149.357 63.8626 149.657 64.5334 149.956 65.2366C150.255 65.9398 150.547 66.6286 150.829 67.3318C151.395 68.7346 151.911 70.1662 152.383 71.6267C152.855 73.0872 153.284 74.5838 153.623 76.1596C153.793 76.9494 153.944 77.7572 154.06 78.6082C154.192 79.5228 154.247 80.4468 154.226 81.3706C154.214 81.9345 154.157 82.4966 154.053 83.051C153.989 83.3892 153.903 83.7228 153.797 84.0499L153.703 84.3204L153.587 84.6053C153.515 84.7752 153.435 84.9413 153.346 85.1029L153.169 85.4203C153.09 85.5501 153.01 85.6835 152.927 85.8097C152.765 86.0586 152.592 86.2966 152.419 86.531C152.09 86.9441 151.728 87.33 151.337 87.6849C150.007 88.8606 148.5 89.8206 146.873 90.5302C146.13 90.8908 145.383 91.1613 144.637 91.4245C143.89 91.6878 143.144 91.9186 142.394 92.1205C141.644 92.3225 140.894 92.4992 140.14 92.6543C139.386 92.8093 138.647 92.9247 137.828 93.0149C137.368 93.0684 136.903 92.959 136.514 92.7057C136.126 92.4524 135.838 92.0712 135.701 91.628C135.564 91.1849 135.586 90.7078 135.764 90.2795C135.942 89.8511 136.264 89.4984 136.674 89.2825L136.775 89.232C139.217 87.9662 141.756 86.6283 143.851 85.139C144.805 84.499 145.668 83.7336 146.418 82.8635C146.54 82.7042 146.651 82.5367 146.75 82.3623C146.788 82.2976 146.82 82.23 146.847 82.1603L146.876 82.0774L146.945 81.9079C146.943 81.9187 146.943 81.9296 146.945 81.9403C146.945 81.9403 146.945 81.9223 146.945 81.8754C146.945 81.8285 146.945 81.5977 146.923 81.385C146.875 80.8578 146.796 80.3339 146.685 79.8163C146.566 79.2321 146.407 78.6191 146.227 78.0132C145.867 76.7655 145.441 75.4889 144.961 74.1907C144.482 72.8925 143.977 71.6087 143.461 70.3141L142.607 68.3884L141.81 66.4951L141.774 66.4122C141.437 65.4727 141.467 64.4408 141.857 63.5223C142.248 62.6039 142.97 61.8664 143.88 61.4568C144.79 61.0473 145.821 60.9958 146.768 61.3127C147.714 61.6296 148.506 62.2916 148.986 63.1666L148.997 63.1414Z" fill="white"/>
<path d="M136.646 89.0085L133.714 89.059L135.243 93.9923C136.146 93.8529 137.02 93.5679 137.832 93.1484C138.304 92.8761 138.653 92.4337 138.808 91.912C138.964 91.3903 138.914 90.8289 138.669 90.3428L138.607 90.2202C138.43 89.8522 138.151 89.5426 137.803 89.3279C137.456 89.1132 137.054 89.0024 136.646 89.0085Z" fill="#CE7A63"/>
<path d="M130.591 92.2438L131.42 93.8774C131.58 94.192 131.846 94.4396 132.171 94.5757C132.496 94.7119 132.859 94.7277 133.195 94.6203L135.243 93.9748L133.714 89.0596L131.276 90.2316C131.098 90.3169 130.938 90.4371 130.806 90.5851C130.674 90.7331 130.574 90.9059 130.51 91.0934C130.446 91.2809 130.42 91.4793 130.434 91.6768C130.448 91.8744 130.502 92.0671 130.591 92.2438Z" fill="#CE7A63"/>
<path opacity="0.2" d="M142.863 36.5892C139.639 35.4064 137.057 35.4352 135.376 35.7093C135.244 35.7336 135.123 35.8005 135.032 35.8999C134.942 35.9993 134.886 36.1256 134.874 36.2597C134.861 36.3937 134.893 36.5281 134.965 36.6423C135.036 36.7565 135.142 36.8442 135.268 36.8921C137.771 37.8081 139.819 40.5415 139.318 44.7391C138.315 53.0946 133.609 60.8659 133.609 60.8659L139.606 60.9164C139.606 60.9164 144.006 58.7202 146.682 53.0369C149.358 47.3536 148.777 38.7601 142.863 36.5892Z" fill="black"/>
<path d="M133.635 60.7438C133.635 60.7438 140.908 51.2848 141.146 43.7623C141.384 36.2399 133.357 35.7999 133.357 35.7999C133.357 35.7999 135.86 33.8345 142.04 34.9993C148.221 36.1641 150.212 44.5448 148.506 50.5924C147.429 54.3143 145.594 57.7738 143.119 60.7546L133.021 63.5926L133.635 60.7438Z" fill="#263238"/>
<path opacity="0.4" d="M133.635 60.7438C133.635 60.7438 140.908 51.2848 141.146 43.7623C141.384 36.2399 133.357 35.7999 133.357 35.7999C133.357 35.7999 135.86 33.8345 142.04 34.9993C148.221 36.1641 150.212 44.5448 148.506 50.5924C147.429 54.3143 145.594 57.7738 143.119 60.7546L133.021 63.5926L133.635 60.7438Z" fill="white"/>
<path d="M121.073 123.484V79.6513C121.073 77.57 119.386 75.8828 117.305 75.8828H46.7141C44.6329 75.8828 42.9457 77.57 42.9457 79.6513V123.484C42.9457 125.565 44.6329 127.253 46.7141 127.253H117.305C119.386 127.253 121.073 125.565 121.073 123.484Z" fill="#407BFF"/>
<path d="M46.5015 128.666C44.5397 128.666 42.513 129.193 41.9721 129.845L27.515 146.03C26.7505 146.96 28.0595 149.138 30.4432 149.138H116.75C119.133 149.138 121.077 148.37 121.077 147.44V129.845C121.077 129.193 119.479 128.666 117.518 128.666H46.5015Z" fill="#407BFF"/>
<path opacity="0.2" d="M46.5015 128.666C44.5397 128.666 42.513 129.193 41.9721 129.845L27.515 146.03C26.7505 146.96 28.0595 149.138 30.4432 149.138H116.75C119.133 149.138 121.077 148.37 121.077 147.44V129.845C121.077 129.193 119.479 128.666 117.518 128.666H46.5015Z" fill="black"/>
<path d="M46.5015 127.256C44.5397 127.256 42.513 127.779 41.9721 128.436L27.515 146.03C26.7505 146.96 28.0595 147.729 30.4432 147.729H116.75C119.133 147.729 121.077 146.96 121.077 146.03V128.436C121.077 127.779 119.479 127.256 117.518 127.256H46.5015Z" fill="#407BFF"/>
<path opacity="0.2" d="M44.8137 129.921L38.7553 137.689C38.3406 138.223 39.1917 138.655 40.6594 138.655H113.984C115.455 138.655 116.663 138.223 116.688 137.689L117.009 129.921C117.027 129.467 115.96 129.103 114.622 129.103H47.8753C46.5374 129.103 45.1671 129.467 44.8137 129.921Z" fill="black"/>
<path opacity="0.2" d="M62.2675 140.769L59.6674 145.561C59.5304 145.817 59.9523 146.03 60.6122 146.03H87.965C88.6249 146.03 89.22 145.817 89.2921 145.561L90.6408 140.754C90.7057 140.52 90.2513 140.329 89.6238 140.329H63.6378C63.0103 140.343 62.3973 140.534 62.2675 140.769Z" fill="black"/>
<path opacity="0.7" d="M117.362 76.8994H46.6528C45.165 76.8994 43.959 78.1055 43.959 79.5932V123.545C43.959 125.033 45.165 126.239 46.6528 126.239H117.362C118.85 126.239 120.056 125.033 120.056 123.545V79.5932C120.056 78.1055 118.85 76.8994 117.362 76.8994Z" fill="white"/>
<path d="M101.87 95.2695H62.1445V118.919H101.87V95.2695Z" fill="#407BFF"/>
<path opacity="0.1" d="M101.87 95.2695H62.1445V118.919H101.87V95.2695Z" fill="black"/>
<path opacity="0.1" d="M82.0073 108.169L101.87 95.2695H62.1445L82.0073 108.169Z" fill="#263238"/>
<path d="M84.4883 83.9828L101.87 95.2701H62.1445L79.5262 83.9828C80.2646 83.5027 81.1265 83.2471 82.0073 83.2471C82.8881 83.2471 83.7499 83.5027 84.4883 83.9828Z" fill="#407BFF"/>
<path opacity="0.2" d="M63.6201 95.2698L80.1364 84.5451C80.6935 84.1833 81.3436 83.9907 82.008 83.9907C82.6723 83.9907 83.3224 84.1833 83.8796 84.5451L100.396 95.2698H63.6201Z" fill="#263238"/>
<path d="M83.6301 86.4953C83.5594 86.4953 83.4915 86.4672 83.4414 86.4171C83.3914 86.3671 83.3633 86.2992 83.3633 86.2284V74.2307C83.3633 74.1599 83.3914 74.0921 83.4414 74.042C83.4915 73.992 83.5594 73.9639 83.6301 73.9639C83.7009 73.9639 83.7688 73.992 83.8188 74.042C83.8689 74.0921 83.897 74.1599 83.897 74.2307V86.2284C83.897 86.2992 83.8689 86.3671 83.8188 86.4171C83.7688 86.4672 83.7009 86.4953 83.6301 86.4953Z" fill="#263238"/>
<path d="M83.6305 74.4982C83.4173 74.4981 83.2089 74.4351 83.0314 74.317C82.8539 74.1989 82.7153 74.031 82.6329 73.8344C82.5505 73.6378 82.528 73.4212 82.5683 73.2118C82.6086 73.0025 82.7099 72.8097 82.8594 72.6577C83.0089 72.5057 83.2 72.4013 83.4086 72.3575C83.6173 72.3137 83.8342 72.3326 84.0322 72.4117C84.2302 72.4909 84.4003 72.6267 84.5214 72.8022C84.6424 72.9778 84.7088 73.1851 84.7124 73.3983C84.7148 73.5419 84.6886 73.6845 84.6353 73.8178C84.582 73.9512 84.5027 74.0726 84.402 74.175C84.3013 74.2773 84.1812 74.3586 84.0487 74.4141C83.9163 74.4696 83.7741 74.4982 83.6305 74.4982ZM83.6305 72.8321C83.5186 72.8321 83.4091 72.8653 83.316 72.9275C83.2229 72.9898 83.1503 73.0782 83.1075 73.1816C83.0646 73.2851 83.0534 73.3989 83.0752 73.5087C83.0971 73.6186 83.151 73.7194 83.2302 73.7986C83.3094 73.8778 83.4103 73.9317 83.5201 73.9536C83.6299 73.9754 83.7437 73.9642 83.8472 73.9214C83.9506 73.8785 84.0391 73.8059 84.1013 73.7128C84.1635 73.6197 84.1967 73.5103 84.1967 73.3983C84.1967 73.2481 84.137 73.1041 84.0309 72.998C83.9247 72.8918 83.7807 72.8321 83.6305 72.8321Z" fill="#263238"/>
<path d="M71.7987 83.3979L66.4941 84.9919L65.6719 97.5594L82.0078 108.169L98.3437 97.5594L99.1804 85.7816L71.7987 83.3979Z" fill="white"/>
<path opacity="0.6" d="M88.6217 97.3352C88.537 98.483 88.1138 99.5799 87.4056 100.487C86.6973 101.394 85.7359 102.071 84.6429 102.432C83.5499 102.792 82.3745 102.82 81.2655 102.513C80.1565 102.205 79.1637 101.575 78.4127 100.703C77.6618 99.8308 77.1864 98.7554 77.0468 97.613C76.9073 96.4706 77.1097 95.3125 77.6286 94.2851C78.1475 93.2578 78.9595 92.4075 79.9618 91.8419C80.9641 91.2762 82.1117 91.0206 83.2593 91.1074C84.0212 91.1617 84.7649 91.3661 85.4475 91.709C86.1301 92.0519 86.7381 92.5265 87.2365 93.1054C87.735 93.6842 88.1139 94.356 88.3517 95.0819C88.5894 95.8079 88.6811 96.5737 88.6217 97.3352Z" fill="#407BFF"/>
<path d="M87.1499 99.7623C86.6459 100.545 85.9398 101.178 85.1063 101.592C84.2727 102.007 83.3426 102.19 82.4141 102.12C81.4856 102.05 80.5932 101.731 79.831 101.196C79.0689 100.661 78.4653 99.9302 78.084 99.0807C79.4937 98.287 81.1068 97.9282 82.7201 98.0494C84.3334 98.1707 85.8747 98.7667 87.1499 99.7623Z" fill="white"/>
<path d="M85.2142 95.6378C85.4514 94.3875 84.63 93.1816 83.3796 92.9444C82.1293 92.7073 80.9234 93.5286 80.6863 94.779C80.4491 96.0294 81.2704 97.2352 82.5208 97.4724C83.7712 97.7095 84.977 96.8882 85.2142 95.6378Z" fill="white"/>
<path d="M81.0191 89.1032C80.3597 89.1001 79.7212 88.8711 79.2101 88.4545C78.6989 88.0378 78.3459 87.4586 78.2099 86.8133L77.9286 87.0946C77.8782 87.1212 77.8206 87.131 77.7642 87.1225C77.7078 87.114 77.6556 87.0877 77.6153 87.0473C77.5749 87.007 77.5486 86.9548 77.5401 86.8984C77.5316 86.842 77.5414 86.7844 77.568 86.734L78.2424 86.056C78.2797 86.0192 78.327 85.9941 78.3785 85.984C78.4299 85.9739 78.4832 85.9792 78.5317 85.9992C78.5802 86.0192 78.6217 86.053 78.651 86.0965C78.6804 86.1399 78.6963 86.1911 78.6968 86.2435C78.6967 86.8611 78.9408 87.4537 79.3759 87.8921C79.8109 88.3305 80.4015 88.5792 81.0191 88.5839C81.0899 88.5839 81.1578 88.612 81.2078 88.6621C81.2579 88.7121 81.286 88.78 81.286 88.8508C81.286 88.9216 81.2579 88.9894 81.2078 89.0395C81.1578 89.0895 81.0899 89.1176 81.0191 89.1176V89.1032Z" fill="#263238"/>
<path d="M71.7988 83.3979L70.8756 86.2288L66.4941 84.9919" fill="#E0E0E0"/>
<path d="M71.7988 83.3979L71.3516 85.7239L66.4941 84.9919" fill="#F0F0F0"/>
<path d="M78.6211 105.965L62.1445 118.918H101.87L85.3935 105.965C84.4278 105.206 83.2353 104.794 82.0073 104.794C80.7793 104.794 79.5868 105.206 78.6211 105.965Z" fill="#407BFF"/>
</g>
<defs>
<clipPath id="clip0_85_5974">
<rect width="180.308" height="180.308" fill="white" transform="translate(0.962891 0.232422)"/>
</clipPath>
</defs>
</svg>
