<svg width="182" height="181" viewBox="0 0 182 181" fill="none" xmlns="http://www.w3.org/2000/svg">
<g clip-path="url(#clip0_85_2225)">
<path d="M181.271 138.132H0.962891V138.222H181.271V138.132Z" fill="#EBEBEB"/>
<path d="M163.204 143.934H143.287V144.024H163.204V143.934Z" fill="#EBEBEB"/>
<path d="M120.146 142.045H117.013V142.135H120.146V142.045Z" fill="#EBEBEB"/>
<path d="M142.202 140.587H135.282V140.678H142.202V140.587Z" fill="#EBEBEB"/>
<path d="M35.4559 141.194H19.8809V141.284H35.4559V141.194Z" fill="#EBEBEB"/>
<path d="M95.1016 143.523H78.6143V143.613H95.1016V143.523Z" fill="#EBEBEB"/>
<path d="M85.3978 141.998H51.6152V142.088H85.3978V141.998Z" fill="#EBEBEB"/>
<path d="M88.4919 119.99C88.4919 120.261 88.4385 120.529 88.3348 120.779C88.2311 121.029 88.0791 121.256 87.8875 121.447C87.6959 121.638 87.4685 121.79 87.2182 121.893C86.968 121.997 86.6999 122.049 86.4291 122.049H16.7977C16.2522 122.048 15.7294 121.831 15.344 121.445C14.9586 121.059 14.7422 120.535 14.7422 119.99V22.1077C14.7469 21.5654 14.9655 21.0468 15.3503 20.6646C15.7352 20.2825 16.2553 20.0676 16.7977 20.0667H86.4291C86.9753 20.0667 87.499 20.2836 87.8852 20.6698C88.2713 21.0559 88.4883 21.5797 88.4883 22.1258M88.3981 22.1258C88.4 21.8658 88.3505 21.6081 88.2525 21.3673C88.1544 21.1265 88.0097 20.9075 87.8268 20.7229C87.6438 20.5382 87.4261 20.3916 87.1863 20.2913C86.9464 20.1911 86.6891 20.1392 86.4291 20.1388H16.7977C16.2761 20.1397 15.7762 20.3476 15.4078 20.7167C15.0393 21.0859 14.8323 21.5862 14.8323 22.1077V119.99C14.8323 120.511 15.0393 121.012 15.4078 121.381C15.7762 121.75 16.2761 121.958 16.7977 121.959H86.4291C86.9511 121.958 87.4513 121.75 87.8204 121.381C88.1894 121.012 88.3972 120.512 88.3981 119.99" fill="#EBEBEB"/>
<path d="M164.434 122.049H94.7994C94.2535 122.048 93.7303 121.831 93.3444 121.445C92.9584 121.059 92.7412 120.536 92.7402 119.99V22.1077C92.7459 21.5651 92.9653 21.0465 93.3507 20.6644C93.7362 20.2823 94.2566 20.0676 94.7994 20.0667H164.434C164.976 20.0685 165.495 20.2838 165.879 20.6659C166.264 21.048 166.482 21.566 166.486 22.1077V119.99C166.486 120.535 166.27 121.057 165.886 121.443C165.501 121.829 164.979 122.047 164.434 122.049ZM94.7994 20.1388C94.2774 20.1397 93.7772 20.3475 93.4081 20.7165C93.0391 21.0856 92.8313 21.5858 92.8304 22.1077V119.99C92.8313 120.512 93.0391 121.012 93.4081 121.381C93.7772 121.75 94.2774 121.958 94.7994 121.959H164.434C164.956 121.958 165.457 121.75 165.826 121.381C166.195 121.012 166.402 120.512 166.403 119.99V22.1077C166.402 21.5858 166.195 21.0856 165.826 20.7165C165.457 20.3475 164.956 20.1397 164.434 20.1388H94.7994Z" fill="#EBEBEB"/>
<path d="M100.446 39.4778H35.463C34.3875 39.4778 33.5156 40.3496 33.5156 41.4251V71.753C33.5156 72.8284 34.3875 73.7003 35.463 73.7003H100.446C101.522 73.7003 102.393 72.8284 102.393 71.753V41.4251C102.393 40.3496 101.522 39.4778 100.446 39.4778Z" fill="#F5F5F5"/>
<path d="M97.5798 36.6116H32.5967C31.5213 36.6116 30.6494 37.4834 30.6494 38.5589V68.8868C30.6494 69.9622 31.5213 70.8341 32.5967 70.8341H97.5798C98.6553 70.8341 99.5272 69.9622 99.5272 68.8868V38.5589C99.5272 37.4834 98.6553 36.6116 97.5798 36.6116Z" fill="#E0E0E0"/>
<path d="M94.6365 33.6689H29.6534C28.5779 33.6689 27.7061 34.5408 27.7061 35.6163V65.9441C27.7061 67.0196 28.5779 67.8915 29.6534 67.8915H94.6365C95.712 67.8915 96.5838 67.0196 96.5838 65.9441V35.6163C96.5838 34.5408 95.712 33.6689 94.6365 33.6689Z" fill="#EBEBEB"/>
<path d="M90.5729 37.5164H33.7181C32.6505 37.5164 31.7852 38.3817 31.7852 39.4493V46.3154C31.7852 47.3829 32.6505 48.2483 33.7181 48.2483H90.5729C91.6404 48.2483 92.5058 47.3829 92.5058 46.3154V39.4493C92.5058 38.3817 91.6404 37.5164 90.5729 37.5164Z" fill="white"/>
<path d="M79.3073 52.7273H44.9839C44.2091 52.7273 43.5811 53.3553 43.5811 54.1301V60.5887C43.5811 61.3635 44.2091 61.9915 44.9839 61.9915H79.3073C80.0821 61.9915 80.7101 61.3635 80.7101 60.5887V54.1301C80.7101 53.3553 80.0821 52.7273 79.3073 52.7273Z" fill="#E0E0E0"/>
<path d="M62.1459 46.1572C61.9849 46.1562 61.8308 46.0916 61.7173 45.9774C61.6038 45.8632 61.54 45.7087 61.54 45.5477V40.2142C61.5518 40.0611 61.621 39.9182 61.7336 39.8139C61.8463 39.7096 61.9942 39.6516 62.1477 39.6516C62.3012 39.6516 62.4491 39.7096 62.5617 39.8139C62.6744 39.9182 62.7435 40.0611 62.7553 40.2142V45.5477C62.7553 45.7094 62.6911 45.8644 62.5768 45.9787C62.4625 46.093 62.3075 46.1572 62.1459 46.1572Z" fill="#E0E0E0"/>
<path d="M64.8104 43.5064H59.4805C59.3968 43.5128 59.3126 43.5019 59.2333 43.4743C59.154 43.4467 59.0812 43.403 59.0196 43.3459C58.958 43.2889 58.9088 43.2197 58.8752 43.1428C58.8416 43.0658 58.8242 42.9827 58.8242 42.8988C58.8242 42.8148 58.8416 42.7317 58.8752 42.6547C58.9088 42.5778 58.958 42.5086 59.0196 42.4516C59.0812 42.3945 59.154 42.3508 59.2333 42.3232C59.3126 42.2956 59.3968 42.2847 59.4805 42.2911H64.8104C64.8941 42.2847 64.9783 42.2956 65.0576 42.3232C65.1369 42.3508 65.2097 42.3945 65.2713 42.4516C65.3329 42.5086 65.3821 42.5778 65.4157 42.6547C65.4493 42.7317 65.4667 42.8148 65.4667 42.8988C65.4667 42.9827 65.4493 43.0658 65.4157 43.1428C65.3821 43.2197 65.3329 43.2889 65.2713 43.3459C65.2097 43.403 65.1369 43.4467 65.0576 43.4743C64.9783 43.5019 64.8941 43.5128 64.8104 43.5064Z" fill="#E0E0E0"/>
<path d="M64.0313 45.3744C63.9516 45.3748 63.8727 45.3594 63.799 45.3291C63.7253 45.2987 63.6584 45.2541 63.6021 45.1977L59.8301 41.4257C59.7737 41.3693 59.729 41.3024 59.6985 41.2288C59.668 41.1551 59.6523 41.0762 59.6523 40.9965C59.6523 40.9168 59.668 40.8379 59.6985 40.7643C59.729 40.6907 59.7737 40.6238 59.8301 40.5674C59.8865 40.511 59.9534 40.4663 60.027 40.4358C60.1006 40.4053 60.1795 40.3896 60.2592 40.3896C60.3389 40.3896 60.4178 40.4053 60.4915 40.4358C60.5651 40.4663 60.632 40.511 60.6884 40.5674L64.4604 44.3358C64.5747 44.4501 64.6389 44.6051 64.6389 44.7668C64.6389 44.9284 64.5747 45.0834 64.4604 45.1977C64.4041 45.2541 64.3372 45.2987 64.2636 45.3291C64.1899 45.3594 64.1109 45.3748 64.0313 45.3744Z" fill="#E0E0E0"/>
<path d="M60.259 45.3744C60.1793 45.3748 60.1004 45.3594 60.0267 45.3291C59.9531 45.2987 59.8862 45.2541 59.8299 45.1977C59.7156 45.0834 59.6514 44.9284 59.6514 44.7668C59.6514 44.6051 59.7156 44.4501 59.8299 44.3358L63.6019 40.5674C63.7157 40.4536 63.8701 40.3896 64.031 40.3896C64.192 40.3896 64.3464 40.4536 64.4602 40.5674C64.574 40.6812 64.6379 40.8356 64.6379 40.9965C64.6379 41.1575 64.574 41.3119 64.4602 41.4257L60.6881 45.1977C60.6318 45.2541 60.5649 45.2987 60.4913 45.3291C60.4176 45.3594 60.3387 45.3748 60.259 45.3744Z" fill="#E0E0E0"/>
<path d="M77.335 46.1572C77.1734 46.1572 77.0184 46.093 76.9041 45.9787C76.7898 45.8644 76.7256 45.7094 76.7256 45.5477V40.2142C76.7374 40.0611 76.8065 39.9182 76.9192 39.8139C77.0318 39.7096 77.1797 39.6516 77.3332 39.6516C77.4867 39.6516 77.6346 39.7096 77.7473 39.8139C77.8599 39.9182 77.9291 40.0611 77.9409 40.2142V45.5477C77.9409 45.7087 77.8772 45.8632 77.7636 45.9774C77.6501 46.0916 77.496 46.1562 77.335 46.1572Z" fill="#E0E0E0"/>
<path d="M79.9996 43.5063H74.6661C74.513 43.4945 74.3701 43.4254 74.2658 43.3127C74.1615 43.2 74.1035 43.0522 74.1035 42.8987C74.1035 42.7451 74.1615 42.5973 74.2658 42.4846C74.3701 42.372 74.513 42.3028 74.6661 42.291H79.9996C80.1527 42.3028 80.2957 42.372 80.4 42.4846C80.5043 42.5973 80.5622 42.7451 80.5622 42.8987C80.5622 43.0522 80.5043 43.2 80.4 43.3127C80.2957 43.4254 80.1527 43.4945 79.9996 43.5063Z" fill="#E0E0E0"/>
<path d="M79.2171 45.3744C79.1375 45.3748 79.0585 45.3594 78.9849 45.3291C78.9112 45.2987 78.8443 45.2541 78.788 45.1977L75.0196 41.4257C74.9632 41.3693 74.9185 41.3024 74.888 41.2288C74.8575 41.1551 74.8418 41.0762 74.8418 40.9965C74.8418 40.9168 74.8575 40.8379 74.888 40.7643C74.9185 40.6907 74.9632 40.6238 75.0196 40.5674C75.0759 40.511 75.1428 40.4663 75.2164 40.4358C75.2901 40.4053 75.369 40.3896 75.4487 40.3896C75.5284 40.3896 75.6073 40.4053 75.6809 40.4358C75.7546 40.4663 75.8215 40.511 75.8778 40.5674L79.6499 44.3358C79.7624 44.4511 79.8254 44.6057 79.8254 44.7668C79.8254 44.9278 79.7624 45.0825 79.6499 45.1977C79.593 45.2544 79.5255 45.2991 79.4512 45.3295C79.3769 45.3598 79.2974 45.3751 79.2171 45.3744Z" fill="#E0E0E0"/>
<path d="M75.4485 45.3739C75.3688 45.3743 75.2898 45.3589 75.2162 45.3286C75.1425 45.2982 75.0756 45.2536 75.0193 45.1972C74.905 45.0829 74.8408 44.9279 74.8408 44.7663C74.8408 44.6047 74.905 44.4496 75.0193 44.3354L78.7878 40.5669C78.8426 40.5042 78.9098 40.4533 78.9851 40.4176C79.0604 40.3818 79.1422 40.3619 79.2255 40.359C79.3088 40.3561 79.3918 40.3704 79.4694 40.4009C79.547 40.4313 79.6175 40.4774 79.6766 40.5362C79.7356 40.5951 79.782 40.6654 79.8128 40.7428C79.8436 40.8203 79.8582 40.9032 79.8557 40.9865C79.8532 41.0699 79.8336 41.1518 79.7981 41.2272C79.7627 41.3027 79.7122 41.37 79.6496 41.4252L75.8776 45.1972C75.8213 45.2536 75.7544 45.2982 75.6807 45.3286C75.6071 45.3589 75.5281 45.3743 75.4485 45.3739Z" fill="#E0E0E0"/>
<path d="M46.96 46.1572C46.7984 46.1572 46.6434 46.093 46.5291 45.9787C46.4148 45.8644 46.3506 45.7094 46.3506 45.5477V40.2142C46.3624 40.0611 46.4315 39.9182 46.5442 39.8139C46.6568 39.7096 46.8047 39.6516 46.9582 39.6516C47.1117 39.6516 47.2596 39.7096 47.3723 39.8139C47.4849 39.9182 47.5541 40.0611 47.5659 40.2142V45.5477C47.5659 45.7087 47.5022 45.8632 47.3886 45.9774C47.2751 46.0916 47.121 46.1562 46.96 46.1572Z" fill="#E0E0E0"/>
<path d="M49.6246 43.5063H44.2911C44.138 43.4945 43.9951 43.4254 43.8908 43.3127C43.7865 43.2 43.7285 43.0522 43.7285 42.8987C43.7285 42.7451 43.7865 42.5973 43.8908 42.4846C43.9951 42.372 44.138 42.3028 44.2911 42.291H49.6246C49.7777 42.3028 49.9207 42.372 50.025 42.4846C50.1293 42.5973 50.1872 42.7451 50.1872 42.8987C50.1872 43.0522 50.1293 43.2 50.025 43.3127C49.9207 43.4254 49.7777 43.4945 49.6246 43.5063Z" fill="#E0E0E0"/>
<path d="M48.8421 45.3744C48.7625 45.3748 48.6835 45.3594 48.6099 45.3291C48.5362 45.2987 48.4693 45.2541 48.413 45.1977L44.6445 41.4257C44.5882 41.3693 44.5435 41.3024 44.513 41.2288C44.4825 41.1551 44.4668 41.0762 44.4668 40.9965C44.4668 40.9168 44.4825 40.8379 44.513 40.7643C44.5435 40.6907 44.5882 40.6238 44.6445 40.5674C44.7009 40.511 44.7678 40.4663 44.8414 40.4358C44.9151 40.4053 44.994 40.3896 45.0737 40.3896C45.1534 40.3896 45.2323 40.4053 45.3059 40.4358C45.3796 40.4663 45.4465 40.511 45.5028 40.5674L49.2857 44.3358C49.3982 44.4511 49.4613 44.6057 49.4613 44.7668C49.4613 44.9278 49.3982 45.0825 49.2857 45.1977C49.2276 45.2557 49.1583 45.3012 49.082 45.3316C49.0058 45.362 48.9242 45.3765 48.8421 45.3744Z" fill="#E0E0E0"/>
<path d="M45.0735 45.3739C44.9938 45.3745 44.9148 45.3592 44.8411 45.3289C44.7674 45.2985 44.7005 45.2538 44.6443 45.1972C44.53 45.0829 44.4658 44.9279 44.4658 44.7663C44.4658 44.6047 44.53 44.4496 44.6443 44.3354L48.4128 40.5669C48.4676 40.5042 48.5348 40.4533 48.6101 40.4176C48.6854 40.3818 48.7672 40.3619 48.8505 40.359C48.9338 40.3561 49.0168 40.3704 49.0944 40.4009C49.172 40.4313 49.2425 40.4774 49.3016 40.5362C49.3606 40.5951 49.407 40.6654 49.4378 40.7428C49.4686 40.8203 49.4832 40.9032 49.4807 40.9865C49.4782 41.0699 49.4586 41.1518 49.4231 41.2272C49.3877 41.3027 49.3372 41.37 49.2746 41.4252L45.5026 45.1972C45.4463 45.2536 45.3794 45.2982 45.3057 45.3286C45.2321 45.3589 45.1531 45.3743 45.0735 45.3739Z" fill="#E0E0E0"/>
<path d="M25.7517 110.221L20.9772 95.0752C20.9349 94.9341 20.9219 94.7858 20.9389 94.6395C20.956 94.4931 21.0027 94.3518 21.0763 94.2241C21.1499 94.0965 21.2488 93.9852 21.367 93.8972C21.4851 93.8091 21.62 93.7462 21.7633 93.7121L22.3728 93.5787C24.2421 93.1356 26.0315 92.4058 27.6774 91.415C29.3302 90.385 30.75 89.0217 31.8462 87.4121C32.0011 87.1857 32.2363 87.0266 32.5041 86.967C32.7719 86.9074 33.0523 86.9518 33.2886 87.0912C34.9714 88.0734 36.8386 88.6982 38.7736 88.9267C40.6855 89.1221 42.6161 89.0199 44.4966 88.6238L45.1096 88.4868C45.2535 88.4539 45.4026 88.4514 45.5474 88.4794C45.6923 88.5074 45.8297 88.5654 45.9509 88.6496C46.0721 88.7337 46.1743 88.8423 46.2512 88.9682C46.328 89.0942 46.3777 89.2348 46.397 89.3811L48.5607 105.126C48.5835 105.288 48.5683 105.453 48.5164 105.608C48.4645 105.763 48.3772 105.904 48.2614 106.02L39.3794 114.96C39.2354 115.102 39.0543 115.201 38.8567 115.246C38.659 115.291 38.4528 115.279 38.2615 115.212L26.4045 110.917C26.2497 110.859 26.1104 110.766 25.9972 110.645C25.8841 110.524 25.8001 110.379 25.7517 110.221Z" fill="#F0F0F0"/>
<path d="M35.7448 96.7983L35.5825 100.981L37.7822 108.756L34.6665 100.931L34.2698 97.2382L32.1963 94.9916L32.7697 87.5809C32.7756 87.4996 32.8022 87.4212 32.8469 87.353C32.8915 87.2848 32.9529 87.2291 33.0251 87.1912C33.0973 87.1533 33.1779 87.1344 33.2594 87.1364C33.3409 87.1383 33.4206 87.161 33.4909 87.2023C33.9971 87.489 34.521 87.7432 35.0596 87.9632C35.137 87.9965 35.2003 88.0558 35.2385 88.1309C35.2767 88.206 35.2874 88.2921 35.2687 88.3743L33.8479 94.0287L35.7448 96.7983Z" fill="#E0E0E0"/>
<path d="M130.666 36.6802L110.659 43.1713C110.264 43.3002 109.936 43.5805 109.746 43.9508C109.557 44.3212 109.522 44.7515 109.65 45.1475L114.111 58.9086C114.239 59.3041 114.52 59.6324 114.89 59.8216C115.26 60.0109 115.691 60.0456 116.087 59.9183L136.094 53.4272C136.489 53.2984 136.817 53.0181 137.007 52.6477C137.196 52.2773 137.231 51.847 137.103 51.4511L132.643 37.6899C132.514 37.2945 132.233 36.9662 131.863 36.7769C131.493 36.5877 131.062 36.5529 130.666 36.6802Z" fill="#F5F5F5"/>
<path d="M124.46 47.7365L126.681 52.6914L123.281 53.7948L122.17 48.4794C121.582 48.3859 121.043 48.0972 120.639 47.6598C120.235 47.2224 119.99 46.6617 119.944 46.0682C119.897 45.4747 120.052 44.8829 120.383 44.3881C120.714 43.8932 121.202 43.5242 121.768 43.3405C122.334 43.1568 122.946 43.1691 123.505 43.3754C124.063 43.5817 124.536 43.97 124.847 44.4777C125.157 44.9854 125.288 45.583 125.218 46.1741C125.148 46.7653 124.881 47.3157 124.46 47.7365Z" fill="#E0E0E0"/>
<path d="M106.747 26.3411C103.656 30.6901 104.731 36.7557 108.867 40.1275L109.852 40.9317C110.138 41.165 110.506 41.2748 110.874 41.237C111.242 41.1991 111.58 41.0166 111.813 40.7297C112.047 40.4428 112.156 40.0749 112.119 39.707C112.081 39.3391 111.898 39.0013 111.611 38.768L110.353 37.7366C109.554 37.0832 108.903 36.267 108.445 35.3422C107.987 34.4175 107.731 33.4057 107.695 32.3742C107.659 31.3428 107.843 30.3155 108.235 29.3609C108.628 28.4063 109.219 27.5465 109.971 26.8388C112.643 24.3144 116.858 24.3397 119.707 26.6657L121.272 24.3505C120.206 23.4837 118.972 22.8451 117.649 22.4744C116.325 22.1036 114.939 22.0086 113.578 22.1953C112.216 22.3819 110.907 22.8461 109.732 23.5593C108.557 24.2724 107.541 25.2193 106.747 26.3411Z" fill="#EBEBEB"/>
<path d="M136.825 119.409C135.669 119.411 134.523 119.185 133.454 118.743C132.386 118.301 131.415 117.652 130.597 116.834C129.152 115.393 128.251 113.495 128.048 111.464C127.846 109.433 128.354 107.394 129.486 105.696C130.619 103.997 132.305 102.744 134.258 102.15C136.211 101.556 138.309 101.657 140.196 102.437C142.082 103.217 143.64 104.627 144.603 106.427C145.566 108.226 145.875 110.305 145.477 112.307C145.08 114.309 144 116.111 142.422 117.406C140.844 118.701 138.866 119.409 136.825 119.409ZM133.002 114.429C133.759 115.186 134.723 115.702 135.772 115.911C136.821 116.121 137.909 116.014 138.898 115.605C139.887 115.195 140.732 114.502 141.327 113.612C141.922 112.723 142.239 111.677 142.239 110.607C142.239 109.536 141.922 108.49 141.327 107.601C140.732 106.711 139.887 106.018 138.898 105.608C137.909 105.199 136.821 105.092 135.772 105.302C134.723 105.511 133.759 106.027 133.002 106.784C131.989 107.798 131.421 109.173 131.421 110.607C131.421 112.04 131.989 113.415 133.002 114.429Z" fill="#EBEBEB"/>
<path d="M154.358 129.841C154.132 129.842 153.908 129.797 153.699 129.71C153.49 129.623 153.301 129.494 153.143 129.333L140.633 116.823C140.334 116.5 140.172 116.074 140.181 115.634C140.19 115.194 140.368 114.775 140.679 114.464C140.99 114.153 141.41 113.974 141.85 113.966C142.289 113.957 142.715 114.119 143.038 114.418L155.548 126.928C155.785 127.166 155.947 127.469 156.012 127.799C156.077 128.129 156.043 128.47 155.914 128.781C155.785 129.091 155.567 129.357 155.288 129.543C155.008 129.73 154.68 129.83 154.344 129.831L154.358 129.841Z" fill="#EBEBEB"/>
<path d="M147.838 132.196C147.502 132.194 147.174 132.094 146.895 131.906C146.616 131.719 146.398 131.454 146.27 131.143C146.141 130.832 146.107 130.491 146.172 130.161C146.237 129.831 146.397 129.528 146.634 129.289L151.073 124.854C151.229 124.685 151.417 124.55 151.626 124.456C151.835 124.363 152.061 124.312 152.29 124.307C152.519 124.303 152.746 124.345 152.959 124.43C153.171 124.516 153.364 124.644 153.526 124.806C153.688 124.968 153.816 125.161 153.902 125.373C153.987 125.586 154.029 125.813 154.025 126.042C154.02 126.272 153.969 126.497 153.876 126.706C153.782 126.915 153.647 127.103 153.479 127.259L149.039 131.694C148.882 131.853 148.695 131.98 148.489 132.066C148.283 132.152 148.062 132.196 147.838 132.196Z" fill="#EBEBEB"/>
<path d="M145.765 127.317C145.429 127.316 145.101 127.215 144.822 127.028C144.543 126.841 144.326 126.575 144.198 126.265C144.069 125.955 144.036 125.613 144.101 125.284C144.166 124.954 144.327 124.652 144.564 124.414L147.597 121.377C147.753 121.209 147.94 121.074 148.149 120.98C148.358 120.886 148.584 120.836 148.813 120.831C149.042 120.827 149.27 120.868 149.483 120.954C149.695 121.04 149.888 121.167 150.05 121.329C150.212 121.491 150.34 121.684 150.425 121.897C150.511 122.109 150.553 122.337 150.548 122.566C150.544 122.795 150.493 123.021 150.399 123.23C150.306 123.439 150.171 123.627 150.002 123.783L146.97 126.808C146.812 126.968 146.625 127.096 146.418 127.183C146.211 127.27 145.989 127.316 145.765 127.317Z" fill="#EBEBEB"/>
<path d="M91.1172 154.418C129.733 154.418 161.037 152.59 161.037 150.336C161.037 148.081 129.733 146.253 91.1172 146.253C52.5015 146.253 21.1973 148.081 21.1973 150.336C21.1973 152.59 52.5015 154.418 91.1172 154.418Z" fill="#F5F5F5"/>
<path d="M117.616 93.7864C116.31 95.6508 112.61 100.101 109.358 101.302C104.23 111.475 111.312 126.025 118.164 130.775C118.164 130.775 137.313 120.836 140.364 96.5162L117.616 93.7864Z" fill="#263238"/>
<path d="M142.041 34.9987C138.153 34.2774 129.141 33.8916 128.467 44.3747C127.793 54.8578 124.392 61.76 133.029 63.6028L133.635 60.7539L142.041 34.9987Z" fill="#263238"/>
<path opacity="0.2" d="M142.041 34.9987C138.153 34.2774 129.141 33.8916 128.467 44.3747C127.793 54.8578 124.392 61.76 133.029 63.6028L133.635 60.7539L142.041 34.9987Z" fill="white"/>
<path d="M127.403 60.5308C126.439 60.1101 125.347 60.0895 124.368 60.4737C123.389 60.8578 122.602 61.6151 122.182 62.579L122.163 62.6223L120.458 66.5278C119.888 67.8368 119.3 69.1351 118.716 70.4189C118.424 71.0608 118.125 71.6954 117.814 72.3157C117.504 72.936 117.212 73.5634 116.898 74.1584C116.585 74.7535 116.26 75.3304 115.946 75.875C115.817 76.0913 115.687 76.3005 115.561 76.4988L114.948 76.589C114.223 76.6695 113.495 76.7105 112.766 76.7116C112.005 76.7116 111.226 76.6828 110.433 76.6395C109.639 76.5962 108.839 76.5097 108.031 76.4267C106.415 76.2572 104.785 76.0192 103.134 75.7488C102.315 75.6153 101.489 75.4783 100.667 75.3232L98.2185 74.8797H98.15C97.6817 74.7961 97.199 74.8839 96.7902 75.127C96.3813 75.3701 96.0737 75.7523 95.9235 76.2037C95.7733 76.655 95.7907 77.1454 95.9724 77.585C96.1541 78.0246 96.4881 78.3841 96.9131 78.5976C98.5128 79.3772 100.151 80.0753 101.821 80.6892C102.654 80.9921 103.491 81.2914 104.345 81.5583C105.2 81.8252 106.058 82.0776 106.931 82.312C108.717 82.7898 110.534 83.1405 112.369 83.3614C113.349 83.4714 114.333 83.5255 115.319 83.5237C116.411 83.5191 117.499 83.3982 118.565 83.163C119.163 83.0302 119.709 82.7256 120.137 82.2867L120.303 82.1173C120.938 81.4532 121.529 80.7472 122.07 80.004C122.575 79.3261 123.011 78.6409 123.436 77.9666C124.291 76.6179 125.045 75.2691 125.755 73.9096C126.116 73.2317 126.458 72.5501 126.787 71.8649C127.115 71.1798 127.45 70.4946 127.757 69.8022C128.063 69.1098 128.377 68.4246 128.665 67.7214C128.954 67.0182 129.235 66.3367 129.516 65.5866C129.882 64.6338 129.867 63.5768 129.473 62.6351C129.08 61.6935 128.338 60.9398 127.403 60.5308Z" fill="#263238"/>
<path opacity="0.2" d="M127.403 60.5308C126.439 60.1101 125.347 60.0895 124.368 60.4737C123.389 60.8578 122.602 61.6151 122.182 62.579L122.163 62.6223L120.458 66.5278C119.888 67.8368 119.3 69.1351 118.716 70.4189C118.424 71.0608 118.125 71.6954 117.814 72.3157C117.504 72.936 117.212 73.5634 116.898 74.1584C116.585 74.7535 116.26 75.3304 115.946 75.875C115.817 76.0913 115.687 76.3005 115.561 76.4988L114.948 76.589C114.223 76.6695 113.495 76.7105 112.766 76.7116C112.005 76.7116 111.226 76.6828 110.433 76.6395C109.639 76.5962 108.839 76.5097 108.031 76.4267C106.415 76.2572 104.785 76.0192 103.134 75.7488C102.315 75.6153 101.489 75.4783 100.667 75.3232L98.2185 74.8797H98.15C97.6817 74.7961 97.199 74.8839 96.7902 75.127C96.3813 75.3701 96.0737 75.7523 95.9235 76.2037C95.7733 76.655 95.7907 77.1454 95.9724 77.585C96.1541 78.0246 96.4881 78.3841 96.9131 78.5976C98.5128 79.3772 100.151 80.0753 101.821 80.6892C102.654 80.9921 103.491 81.2914 104.345 81.5583C105.2 81.8252 106.058 82.0776 106.931 82.312C108.717 82.7898 110.534 83.1405 112.369 83.3614C113.349 83.4714 114.333 83.5255 115.319 83.5237C116.411 83.5191 117.499 83.3982 118.565 83.163C119.163 83.0302 119.709 82.7256 120.137 82.2867L120.303 82.1173C120.938 81.4532 121.529 80.7472 122.07 80.004C122.575 79.3261 123.011 78.6409 123.436 77.9666C124.291 76.6179 125.045 75.2691 125.755 73.9096C126.116 73.2317 126.458 72.5501 126.787 71.8649C127.115 71.1798 127.45 70.4946 127.757 69.8022C128.063 69.1098 128.377 68.4246 128.665 67.7214C128.954 67.0182 129.235 66.3367 129.516 65.5866C129.882 64.6338 129.867 63.5768 129.473 62.6351C129.08 61.6935 128.338 60.9398 127.403 60.5308Z" fill="white"/>
<path d="M97.512 74.6521L94.5477 73.7722L94.5225 78.9182C94.5225 78.9182 96.4157 79.2392 97.768 78.7487C98.1645 78.5923 98.4949 78.3037 98.7032 77.9318C98.9115 77.5599 98.9849 77.1275 98.9112 76.7076L98.8318 76.1811C98.7782 75.8278 98.6259 75.4969 98.3923 75.2263C98.1588 74.9558 97.8537 74.7568 97.512 74.6521Z" fill="#CE7A63"/>
<path d="M90.6129 75.8635L90.9086 77.6666C90.9644 78.0147 91.1424 78.3316 91.4108 78.5602C91.6791 78.7889 92.0202 78.9145 92.3728 78.9143H94.5365L94.5617 73.7683L91.8859 74.1289C91.6864 74.1546 91.4941 74.2206 91.3208 74.3227C91.1476 74.4249 90.9968 74.5613 90.8778 74.7235C90.7588 74.8857 90.6739 75.0703 90.6284 75.2663C90.5829 75.4623 90.5776 75.6654 90.6129 75.8635Z" fill="#CE7A63"/>
<path d="M143.046 59.3009C137.628 58.5077 132.138 58.3179 126.678 58.7347C125.436 58.8411 124.275 59.3936 123.41 60.2899C122.544 61.1862 122.032 62.3657 121.968 63.6102C121.528 74.4592 119.873 85.2247 117.035 95.7051C119.339 98.334 127.244 103.181 140.093 100.101C144.254 93.0726 147.157 82.5282 149.934 69.1277C150.177 68.0258 150.189 66.8855 149.968 65.779C149.747 64.6726 149.298 63.6241 148.651 62.7002C148.003 61.7762 147.17 60.9969 146.206 60.4117C145.241 59.8266 144.165 59.4483 143.046 59.3009Z" fill="#263238"/>
<path opacity="0.4" d="M143.046 59.3009C137.628 58.5077 132.138 58.3179 126.678 58.7347C125.436 58.8411 124.275 59.3936 123.41 60.2899C122.544 61.1862 122.032 62.3657 121.968 63.6102C121.528 74.4592 119.873 85.2247 117.035 95.7051C119.339 98.334 127.244 103.181 140.093 100.101C144.254 93.0726 147.157 82.5282 149.934 69.1277C150.177 68.0258 150.189 66.8855 149.968 65.779C149.747 64.6726 149.298 63.6241 148.651 62.7002C148.003 61.7762 147.17 60.9969 146.206 60.4117C145.241 59.8266 144.165 59.4483 143.046 59.3009Z" fill="white"/>
<path opacity="0.4" d="M131.806 61.6731C129.3 68.7051 129.498 73.2994 128.921 78.2867C128.344 83.274 125.762 94.7416 122.906 98.0232" stroke="#263238" stroke-width="0.664468" stroke-miterlimit="10"/>
<path d="M55.6545 46.5459C59.3472 48.1567 63.0087 49.8288 66.6389 51.5621C70.2691 53.2955 73.8849 55.0577 77.4862 56.8488C84.6769 60.4549 91.7835 64.2342 98.8059 68.1865C105.828 72.1389 112.72 76.316 119.48 80.718C126.213 85.1608 132.783 89.8668 139.101 94.9299C139.23 95.0333 139.338 95.1612 139.417 95.3062C139.497 95.4512 139.547 95.6104 139.565 95.7748C139.583 95.9393 139.569 96.1056 139.523 96.2645C139.476 96.4233 139.399 96.5714 139.296 96.7005C139.192 96.8295 139.065 96.9369 138.92 97.0166C138.775 97.0962 138.615 97.1465 138.451 97.1646C138.287 97.1826 138.12 97.1682 137.961 97.122C137.802 97.0757 137.654 96.9987 137.525 96.8952H137.504C131.373 91.7925 124.943 87.0071 118.34 82.4706C111.693 77.9941 104.915 73.7124 98.0053 69.6254C91.0959 65.5384 84.0759 61.6317 76.9453 57.9054C73.3896 56.0374 69.8135 54.2114 66.217 52.4276C62.6204 50.6437 59.001 48.9092 55.3588 47.2239C55.2694 47.1837 55.1996 47.1097 55.1647 47.018C55.1299 46.9264 55.1329 46.8247 55.1731 46.7353C55.2133 46.6458 55.2873 46.576 55.3789 46.5412C55.4706 46.5064 55.5723 46.5094 55.6617 46.5495L55.6545 46.5459Z" fill="#263238"/>
<path d="M128.73 90.7144C123.037 86.4855 117.195 82.4635 111.204 78.6481C108.218 76.7249 105.207 74.8508 102.17 73.0261C99.1341 71.2014 96.0773 69.3983 93 67.6169C86.8455 64.0876 80.6188 60.6882 74.3201 57.4186C68.0237 54.1515 61.6768 50.978 55.2398 47.9993H55.2939C53.1466 47.7932 50.985 47.7799 48.8353 47.9597C46.6846 48.1255 44.5504 48.4607 42.4524 48.9622C41.4067 49.214 40.3771 49.5283 39.3691 49.9034C38.3643 50.2639 37.4085 50.7484 36.5238 51.3459C36.0927 51.6431 35.7127 52.0085 35.3987 52.4277C35.0888 52.8243 34.9268 53.3166 34.9407 53.8197C34.9868 54.3262 35.1812 54.8079 35.4997 55.2045C35.8212 55.6192 36.1931 55.9923 36.6068 56.3152C37.4569 56.9651 38.3717 57.5258 39.3367 57.9884C40.2923 58.468 41.3128 58.8575 42.2721 59.3948C43.2608 59.8997 44.1511 60.5775 44.901 61.3962C45.2751 61.8283 45.5562 62.3329 45.7268 62.8784C45.8762 63.4355 45.891 64.0201 45.7701 64.5841C45.481 65.6605 44.9755 66.6667 44.2843 67.5411C43.6388 68.4283 42.9284 69.2505 42.2432 70.0835C41.5448 70.9002 40.8968 71.7589 40.3031 72.6547C39.7049 73.5354 39.3231 74.5448 39.1888 75.6009C39.1096 76.6389 39.4237 77.6687 40.0687 78.4859C40.7195 79.3209 41.5043 80.0423 42.3911 80.6207C44.1401 81.8288 46.3218 82.2399 48.4458 82.1894C50.5912 82.1062 52.7165 81.7425 54.7674 81.1075C56.828 80.4787 58.8507 79.7322 60.8258 78.8717C64.7926 77.1876 68.6512 75.2006 72.553 73.3074C74.4966 72.3281 76.4954 71.4623 78.5393 70.7146C79.0599 70.5328 79.591 70.3822 80.1296 70.2638C80.6809 70.133 81.2475 70.0784 81.8137 70.1015C82.1139 70.1166 82.4091 70.1837 82.6864 70.2999C82.9807 70.4231 83.237 70.6222 83.4292 70.8769C83.7594 71.3797 83.9211 71.9746 83.8908 72.5754C83.8913 72.6104 83.8849 72.6452 83.8719 72.6778C83.8589 72.7103 83.8397 72.74 83.8152 72.7651C83.7908 72.7902 83.7616 72.8103 83.7294 72.8241C83.6972 72.838 83.6626 72.8454 83.6276 72.8458C83.5577 72.8449 83.4909 72.817 83.4411 72.7679C83.3914 72.7188 83.3626 72.6524 83.3607 72.5826C83.3885 72.0957 83.2623 71.6125 83.0001 71.2014C82.8488 71.0229 82.6604 70.8794 82.448 70.781C82.2357 70.6826 82.0044 70.6316 81.7704 70.6316C81.2528 70.6116 80.7349 70.6613 80.2306 70.7795C79.7121 70.8955 79.2005 71.04 78.6979 71.2122C76.6734 71.9505 74.6928 72.8042 72.7658 73.769C68.8712 75.6514 65.0126 77.6384 61.0061 79.3225C59.0072 80.1817 56.9603 80.9246 54.8756 81.5475C52.7834 82.1931 50.6158 82.5628 48.4278 82.6474C47.3242 82.6774 46.2214 82.5659 45.1462 82.3156C44.0625 82.0628 43.0345 81.613 42.1134 80.9885C41.1854 80.3795 40.3642 79.6217 39.6828 78.7455C39.3465 78.2897 39.0848 77.7833 38.9075 77.2453C38.7381 76.6999 38.6768 76.1266 38.7272 75.5577C38.8792 74.4452 39.2905 73.3841 39.9281 72.46C40.5303 71.5504 41.1891 70.6796 41.9006 69.8527C42.593 69.0161 43.2998 68.1975 43.9309 67.3284C44.5961 66.5041 45.0868 65.5533 45.3734 64.5336C45.4816 64.0344 45.4705 63.5167 45.3409 63.0226C45.1867 62.5312 44.9326 62.0769 44.5944 61.6883C43.8752 60.9032 43.02 60.2545 42.0701 59.7735C41.1397 59.2506 40.13 58.8611 39.1527 58.3671C38.1638 57.8926 37.2271 57.3161 36.358 56.6469C35.9179 56.3023 35.5229 55.9037 35.1823 55.4605C34.8213 55.0051 34.6029 54.453 34.5549 53.8738C34.537 53.2843 34.7244 52.7069 35.085 52.2402C35.4266 51.7905 35.8381 51.3984 36.3039 51.079C37.2154 50.4634 38.2003 49.9643 39.2357 49.5933C40.2573 49.213 41.3015 48.8962 42.3622 48.6448C44.4792 48.1413 46.6328 47.8073 48.8028 47.6459C50.972 47.4662 53.153 47.4831 55.3192 47.6964C55.3371 47.6932 55.3554 47.6932 55.3733 47.6964C61.8103 50.6931 68.1535 53.881 74.4463 57.1626C80.739 60.4442 86.9633 63.8593 93.1118 67.4041C96.1915 69.1759 99.2471 70.979 102.279 72.8134C105.31 74.6477 108.321 76.5385 111.312 78.4859C117.282 82.3324 123.119 86.3701 128.824 90.599C128.832 90.6051 128.838 90.6128 128.844 90.6216C128.849 90.6303 128.852 90.64 128.853 90.6501C128.855 90.6601 128.854 90.6703 128.851 90.6801C128.849 90.6899 128.844 90.6991 128.838 90.7072C128.832 90.7152 128.824 90.722 128.815 90.727C128.807 90.7321 128.797 90.7354 128.787 90.7368C128.777 90.7381 128.767 90.7375 128.757 90.7349C128.747 90.7323 128.738 90.7277 128.73 90.7216V90.7144Z" fill="#263238"/>
<path d="M60.9526 49.7518L60.5559 50.473C60.496 50.5786 60.397 50.6563 60.2802 50.6893C60.1635 50.7224 60.0384 50.7082 59.9321 50.6497C59.8265 50.5898 59.7488 50.4908 59.7157 50.374C59.6826 50.2573 59.6969 50.1322 59.7553 50.0258L60.1556 49.3046C60.2155 49.1991 60.3146 49.1213 60.4313 49.0883C60.5481 49.0552 60.6732 49.0694 60.7795 49.1279C60.8322 49.1572 60.8785 49.1966 60.9158 49.244C60.953 49.2913 60.9805 49.3456 60.9966 49.4036C61.0127 49.4617 61.0172 49.5223 61.0096 49.5821C61.002 49.6419 60.9827 49.6996 60.9526 49.7518Z" fill="#263238"/>
<path d="M81.9473 60.5233L81.547 61.2446C81.5177 61.2972 81.4783 61.3435 81.431 61.3808C81.3836 61.4181 81.3294 61.4456 81.2713 61.4617C81.2132 61.4778 81.1526 61.4822 81.0928 61.4746C81.033 61.4671 80.9753 61.4477 80.9231 61.4176C80.8705 61.3884 80.8241 61.3489 80.7869 61.3016C80.7496 61.2543 80.7221 61.2 80.706 61.1419C80.6899 61.0839 80.6855 61.0232 80.693 60.9634C80.7006 60.9037 80.72 60.846 80.75 60.7938L81.1467 60.0726C81.176 60.0199 81.2154 59.9736 81.2628 59.9363C81.3101 59.899 81.3644 59.8715 81.4224 59.8554C81.4805 59.8393 81.5411 59.8349 81.6009 59.8425C81.6607 59.85 81.7184 59.8694 81.7706 59.8995C81.8761 59.9593 81.9539 60.0584 81.9869 60.1751C82.02 60.2919 82.0058 60.417 81.9473 60.5233Z" fill="#263238"/>
<path d="M103.822 72.7762L103.422 73.4974C103.362 73.603 103.263 73.6807 103.146 73.7138C103.03 73.7468 102.905 73.7326 102.798 73.6741C102.693 73.6142 102.615 73.5152 102.582 73.3984C102.549 73.2817 102.563 73.1566 102.622 73.0503L103.022 72.329C103.082 72.2235 103.181 72.1458 103.298 72.1127C103.414 72.0796 103.539 72.0939 103.646 72.1523C103.751 72.2122 103.829 72.3112 103.862 72.428C103.895 72.5448 103.881 72.6698 103.822 72.7762Z" fill="#263238"/>
<path d="M124.781 86.6649L124.381 87.3861C124.321 87.4916 124.222 87.5694 124.105 87.6024C123.989 87.6355 123.864 87.6213 123.757 87.5628C123.652 87.5029 123.574 87.4039 123.541 87.2871C123.508 87.1704 123.522 87.0453 123.581 86.9389L123.981 86.2177C124.041 86.1121 124.14 86.0344 124.257 86.0014C124.373 85.9683 124.498 85.9825 124.605 86.041C124.71 86.1009 124.788 86.1999 124.821 86.3167C124.854 86.4334 124.84 86.5585 124.781 86.6649Z" fill="#263238"/>
<path d="M135.791 90.664L132.758 96.0732C132.72 96.1426 132.667 96.2031 132.604 96.2509C132.541 96.2987 132.468 96.3327 132.391 96.3507C132.314 96.3688 132.234 96.3704 132.156 96.3555C132.078 96.3406 132.005 96.3096 131.94 96.2643L124.165 90.8551C124.048 90.7751 123.966 90.6543 123.935 90.5167C123.904 90.3791 123.925 90.2347 123.995 90.1122L127.028 84.703C127.066 84.6336 127.119 84.5731 127.182 84.5253C127.245 84.4775 127.318 84.4435 127.395 84.4255C127.472 84.4075 127.552 84.4058 127.63 84.4207C127.708 84.4356 127.781 84.4667 127.847 84.5119L135.621 89.9211C135.738 90.0011 135.82 90.1219 135.851 90.2595C135.883 90.3971 135.861 90.5415 135.791 90.664Z" fill="#263238"/>
<path d="M128.621 96.4658C127.977 96.4663 127.348 96.27 126.818 95.9032L126.281 95.5426C125.637 95.0981 125.182 94.4286 125.007 93.6658C124.831 92.903 124.947 92.1021 125.333 91.4208L125.985 90.2596C126.049 90.1454 126.136 90.0456 126.24 89.9668C126.344 89.8879 126.464 89.8317 126.591 89.8016C126.718 89.7736 126.85 89.7719 126.978 89.7968C127.105 89.8216 127.227 89.8723 127.334 89.9459L131.521 92.856C131.712 92.9886 131.847 93.1878 131.899 93.4146C131.951 93.6414 131.916 93.8794 131.802 94.0821L131.358 94.8719C131.144 95.2544 130.852 95.5879 130.501 95.8511C130.15 96.1144 129.748 96.3016 129.321 96.4009C129.091 96.4488 128.856 96.4706 128.621 96.4658ZM126.912 91.1719L126.458 92.023C126.225 92.4312 126.155 92.9117 126.261 93.3693C126.366 93.8269 126.64 94.228 127.027 94.4932L127.561 94.8539C127.777 95.0052 128.023 95.1092 128.282 95.1589C128.541 95.2086 128.808 95.203 129.065 95.1423C129.322 95.0855 129.563 94.9743 129.774 94.8163C129.984 94.6583 130.158 94.4572 130.284 94.2264L130.583 93.6927L126.912 91.1719Z" fill="#263238"/>
<path d="M135.369 88.7814L134.593 90.1662C134.577 90.1967 134.553 90.2233 134.526 90.2443C134.498 90.2653 134.466 90.2802 134.432 90.288C134.398 90.2958 134.362 90.2964 134.328 90.2897C134.294 90.283 134.261 90.2692 134.233 90.2491L129.058 86.6429C128.997 86.5986 128.954 86.5335 128.937 86.4598C128.921 86.3861 128.932 86.3089 128.968 86.2426L129.743 84.8579C129.76 84.8274 129.783 84.8008 129.811 84.7798C129.839 84.7588 129.871 84.7439 129.905 84.7361C129.939 84.7282 129.974 84.7277 130.009 84.7344C130.043 84.7411 130.075 84.7549 130.104 84.7749L135.279 88.3811C135.34 88.4254 135.383 88.4905 135.399 88.5642C135.416 88.6379 135.405 88.7151 135.369 88.7814Z" fill="#263238"/>
<path d="M140.205 48.7021L133.642 53.2964C134.164 55.6224 134.183 58.0565 130.966 58.7742C131.233 59.856 132.087 60.5448 133.634 60.7431C135.665 61.1398 137.212 61.3201 138.903 60.1301C139.567 59.6649 140.367 59.2322 140.01 58.4568C138.795 55.8207 139.538 51.3166 140.205 48.7021Z" fill="#CE7A63"/>
<path opacity="0.2" d="M137.529 50.5771L133.646 53.2926C133.784 53.8603 133.867 54.4399 133.894 55.0236C135.301 55.3048 137.407 53.9742 137.612 52.6074C137.7 51.9309 137.672 51.2443 137.529 50.5771Z" fill="black"/>
<path d="M142.256 44.7106C141.279 48.8 140.911 51.245 138.452 52.9795C134.752 55.594 129.981 52.7596 129.718 48.4502C129.48 44.57 131.121 38.5368 135.455 37.6317C136.416 37.4321 137.411 37.4796 138.348 37.7698C139.285 38.0599 140.133 38.5832 140.813 39.2906C141.493 39.998 141.982 40.8664 142.234 41.8144C142.487 42.7623 142.494 43.7589 142.256 44.7106Z" fill="#CE7A63"/>
<path d="M130.544 47.8114C130.544 47.8114 132.199 47.6456 136.736 48.1144C136.054 49.2719 134.933 50.1591 132.625 49.8994C130.317 49.6398 130.544 47.8114 130.544 47.8114Z" fill="white"/>
<path d="M141.643 36.9133C137.525 34.389 132.019 35.7161 131.056 38.4567C131.64 38.0969 132.329 37.9468 133.01 38.0312C132.181 38.4423 131.056 39.4484 131.47 40.7575C132.469 39.5855 133.515 39.553 133.515 39.553C133.515 39.553 134.28 40.9955 136.739 41.3164C136.622 40.8875 136.527 40.453 136.454 40.0146C136.824 40.7359 137.356 41.3614 138.009 41.842C138.661 42.3226 139.417 42.6451 140.215 42.7841C139.494 43.5703 139.274 46.4228 141.048 47.5407C143.573 47.3784 145.661 46.5346 145.52 44.9839C145.701 45.3648 145.858 45.7562 145.992 46.1559C145.992 46.1559 147.594 44.0211 145.697 41.5869C146.605 40.4329 144.673 38.7741 141.643 36.9133Z" fill="#263238"/>
<path d="M130.425 42.1357C130.425 42.1357 129.556 43.8846 129.703 45.1937C130.674 45.1937 132.989 44.8331 132.989 44.8331C133.82 45.5623 134.796 46.1089 135.852 46.4378C137.395 46.8381 142.419 46.5027 142.419 46.5027L142.628 45.0603C142.628 45.0603 135.884 42.8497 133.281 42.3917C130.677 41.9337 130.425 42.1357 130.425 42.1357Z" fill="#263238"/>
<path d="M143.505 49.1205C143.18 49.5301 142.778 49.8715 142.321 50.1253C141.865 50.379 141.362 50.54 140.843 50.599C139.451 50.7469 138.975 49.4415 139.545 48.2478C140.061 47.166 141.406 45.7992 142.719 46.2067C144.031 46.6142 144.294 48.1 143.505 49.1205Z" fill="#CE7A63"/>
<path d="M135.895 44.3895C135.834 44.7249 135.611 44.9665 135.391 44.9269C135.171 44.8872 135.03 44.5662 135.099 44.2417C135.167 43.9171 135.383 43.6647 135.603 43.708C135.823 43.7512 135.953 44.0542 135.895 44.3895Z" fill="white"/>
<path d="M131.867 43.6068C131.809 43.9422 131.582 44.1838 131.362 44.1441C131.142 44.1045 131.002 43.7835 131.07 43.459C131.139 43.1344 131.355 42.882 131.575 42.9253C131.795 42.9685 131.921 43.2714 131.867 43.6068Z" fill="white"/>
<path d="M133.346 43.6067C133.346 43.6067 132.239 45.4098 131.232 46.1887C131.73 46.8558 132.787 46.7873 132.787 46.7873L133.346 43.6067Z" fill="#BA4D3C"/>
<path d="M135.502 41.7205C135.476 41.7434 135.455 41.7717 135.441 41.8035C135.422 41.8532 135.424 41.9084 135.445 41.957C135.467 42.0056 135.507 42.0438 135.556 42.0631C135.852 42.186 136.172 42.237 136.491 42.2119C136.81 42.1868 137.119 42.0864 137.392 41.9189C137.413 41.9038 137.431 41.8846 137.445 41.8625C137.459 41.8403 137.469 41.8156 137.473 41.7898C137.477 41.764 137.477 41.7376 137.471 41.7121C137.465 41.6866 137.454 41.6625 137.439 41.6412C137.408 41.5978 137.36 41.5684 137.308 41.5596C137.255 41.5508 137.201 41.5633 137.157 41.5943C136.941 41.7207 136.698 41.7952 136.448 41.8121C136.197 41.829 135.947 41.7878 135.715 41.6917C135.68 41.676 135.642 41.6704 135.604 41.6755C135.567 41.6806 135.531 41.6962 135.502 41.7205Z" fill="#263238"/>
<path d="M131.803 41.4506C131.796 41.418 131.781 41.3875 131.759 41.3618C131.738 41.3361 131.711 41.3158 131.68 41.3028C131.444 41.2165 131.232 41.0754 131.062 40.891C130.891 40.7067 130.767 40.4844 130.699 40.2426C130.689 40.1907 130.658 40.145 130.614 40.1153C130.571 40.0856 130.517 40.0743 130.465 40.0839C130.413 40.0952 130.367 40.1263 130.337 40.1708C130.308 40.2152 130.296 40.2694 130.306 40.3219C130.385 40.6299 130.537 40.9142 130.75 41.1504C130.963 41.3866 131.23 41.5676 131.529 41.6778C131.553 41.6878 131.58 41.6928 131.606 41.6926C131.633 41.6924 131.659 41.6869 131.683 41.6765C131.708 41.6662 131.73 41.6511 131.749 41.6321C131.767 41.6131 131.782 41.5907 131.792 41.566C131.806 41.5293 131.81 41.4894 131.803 41.4506Z" fill="#263238"/>
<path d="M148.997 63.1411C149.357 63.8624 149.657 64.5331 149.956 65.2363C150.255 65.9395 150.547 66.6283 150.829 67.3315C151.395 68.7343 151.911 70.166 152.383 71.6265C152.855 73.0869 153.284 74.5835 153.623 76.1594C153.793 76.9492 153.944 77.7569 154.06 78.608C154.192 79.5226 154.247 80.4465 154.226 81.3703C154.214 81.9343 154.157 82.4964 154.053 83.0508C153.989 83.3889 153.903 83.7226 153.797 84.0497L153.703 84.3202L153.587 84.605C153.515 84.775 153.435 84.9411 153.346 85.1027L153.169 85.42C153.09 85.5499 153.01 85.6833 152.927 85.8095C152.765 86.0583 152.592 86.2963 152.419 86.5307C152.09 86.9438 151.728 87.3297 151.337 87.6847C150.007 88.8603 148.5 89.8204 146.873 90.53C146.13 90.8906 145.383 91.1611 144.637 91.4243C143.89 91.6876 143.144 91.9183 142.394 92.1203C141.644 92.3222 140.894 92.4989 140.14 92.654C139.386 92.8091 138.647 92.9245 137.828 93.0146C137.368 93.0681 136.903 92.9587 136.514 92.7054C136.126 92.4522 135.838 92.0709 135.701 91.6278C135.564 91.1847 135.586 90.7076 135.764 90.2792C135.942 89.8508 136.264 89.4981 136.674 89.2822L136.775 89.2318C139.217 87.966 141.756 86.6281 143.851 85.1388C144.805 84.4987 145.668 83.7334 146.418 82.8633C146.54 82.7039 146.651 82.5364 146.75 82.362C146.788 82.2973 146.82 82.2298 146.847 82.1601L146.876 82.0771L146.945 81.9076C146.943 81.9184 146.943 81.9293 146.945 81.9401C146.945 81.9401 146.945 81.9221 146.945 81.8752C146.945 81.8283 146.945 81.5975 146.923 81.3847C146.875 80.8575 146.796 80.3337 146.685 79.8161C146.566 79.2319 146.407 78.6188 146.227 78.013C145.867 76.7652 145.441 75.4887 144.961 74.1904C144.482 72.8922 143.977 71.6084 143.461 70.3138L142.607 68.3881L141.81 66.4949L141.774 66.4119C141.437 65.4724 141.467 64.4406 141.857 63.5221C142.248 62.6036 142.97 61.8661 143.88 61.4566C144.79 61.047 145.821 60.9956 146.768 61.3125C147.714 61.6294 148.506 62.2914 148.986 63.1664L148.997 63.1411Z" fill="#263238"/>
<path opacity="0.2" d="M148.997 63.1411C149.357 63.8624 149.657 64.5331 149.956 65.2363C150.255 65.9395 150.547 66.6283 150.829 67.3315C151.395 68.7343 151.911 70.166 152.383 71.6265C152.855 73.0869 153.284 74.5835 153.623 76.1594C153.793 76.9492 153.944 77.7569 154.06 78.608C154.192 79.5226 154.247 80.4465 154.226 81.3703C154.214 81.9343 154.157 82.4964 154.053 83.0508C153.989 83.3889 153.903 83.7226 153.797 84.0497L153.703 84.3202L153.587 84.605C153.515 84.775 153.435 84.9411 153.346 85.1027L153.169 85.42C153.09 85.5499 153.01 85.6833 152.927 85.8095C152.765 86.0583 152.592 86.2963 152.419 86.5307C152.09 86.9438 151.728 87.3297 151.337 87.6847C150.007 88.8603 148.5 89.8204 146.873 90.53C146.13 90.8906 145.383 91.1611 144.637 91.4243C143.89 91.6876 143.144 91.9183 142.394 92.1203C141.644 92.3222 140.894 92.4989 140.14 92.654C139.386 92.8091 138.647 92.9245 137.828 93.0146C137.368 93.0681 136.903 92.9587 136.514 92.7054C136.126 92.4522 135.838 92.0709 135.701 91.6278C135.564 91.1847 135.586 90.7076 135.764 90.2792C135.942 89.8508 136.264 89.4981 136.674 89.2822L136.775 89.2318C139.217 87.966 141.756 86.6281 143.851 85.1388C144.805 84.4987 145.668 83.7334 146.418 82.8633C146.54 82.7039 146.651 82.5364 146.75 82.362C146.788 82.2973 146.82 82.2298 146.847 82.1601L146.876 82.0771L146.945 81.9076C146.943 81.9184 146.943 81.9293 146.945 81.9401C146.945 81.9401 146.945 81.9221 146.945 81.8752C146.945 81.8283 146.945 81.5975 146.923 81.3847C146.875 80.8575 146.796 80.3337 146.685 79.8161C146.566 79.2319 146.407 78.6188 146.227 78.013C145.867 76.7652 145.441 75.4887 144.961 74.1904C144.482 72.8922 143.977 71.6084 143.461 70.3138L142.607 68.3881L141.81 66.4949L141.774 66.4119C141.437 65.4724 141.467 64.4406 141.857 63.5221C142.248 62.6036 142.97 61.8661 143.88 61.4566C144.79 61.047 145.821 60.9956 146.768 61.3125C147.714 61.6294 148.506 62.2914 148.986 63.1664L148.997 63.1411Z" fill="white"/>
<path d="M136.646 89.0085L133.714 89.059L135.243 93.9923C136.146 93.8529 137.02 93.5679 137.832 93.1484C138.304 92.8761 138.653 92.4337 138.808 91.912C138.964 91.3903 138.914 90.8289 138.669 90.3428L138.607 90.2202C138.43 89.8522 138.151 89.5426 137.803 89.3279C137.456 89.1132 137.054 89.0024 136.646 89.0085Z" fill="#CE7A63"/>
<path d="M130.591 92.2436L131.42 93.8772C131.58 94.1918 131.846 94.4394 132.171 94.5755C132.496 94.7116 132.859 94.7274 133.195 94.62L135.243 93.9745L133.714 89.0593L131.276 90.2313C131.098 90.3167 130.938 90.4369 130.806 90.5849C130.674 90.7329 130.574 90.9057 130.51 91.0932C130.446 91.2807 130.42 91.479 130.434 91.6766C130.448 91.8741 130.502 92.0669 130.591 92.2436Z" fill="#CE7A63"/>
<path opacity="0.2" d="M142.863 36.5889C139.639 35.4061 137.057 35.435 135.376 35.709C135.244 35.7333 135.123 35.8003 135.032 35.8996C134.942 35.999 134.886 36.1254 134.874 36.2594C134.861 36.3935 134.893 36.5278 134.965 36.642C135.036 36.7562 135.142 36.844 135.268 36.8919C137.771 37.8078 139.819 40.5413 139.318 44.7389C138.315 53.0944 133.609 60.8656 133.609 60.8656L139.606 60.9161C139.606 60.9161 144.006 58.72 146.682 53.0367C149.358 47.3533 148.777 38.7599 142.863 36.5889Z" fill="black"/>
<path d="M133.635 60.7435C133.635 60.7435 140.908 51.2845 141.146 43.7621C141.384 36.2396 133.357 35.7997 133.357 35.7997C133.357 35.7997 135.86 33.8343 142.04 34.9991C148.221 36.1639 150.212 44.5446 148.506 50.5921C147.429 54.314 145.594 57.7736 143.119 60.7543L133.021 63.5924L133.635 60.7435Z" fill="#263238"/>
<path opacity="0.4" d="M133.635 60.7435C133.635 60.7435 140.908 51.2845 141.146 43.7621C141.384 36.2396 133.357 35.7997 133.357 35.7997C133.357 35.7997 135.86 33.8343 142.04 34.9991C148.221 36.1639 150.212 44.5446 148.506 50.5921C147.429 54.314 145.594 57.7736 143.119 60.7543L133.021 63.5924L133.635 60.7435Z" fill="white"/>
<path d="M121.073 123.484V79.651C121.073 77.5698 119.386 75.8826 117.305 75.8826H46.7141C44.6329 75.8826 42.9457 77.5698 42.9457 79.651V123.484C42.9457 125.565 44.6329 127.252 46.7141 127.252H117.305C119.386 127.252 121.073 125.565 121.073 123.484Z" fill="#407BFF"/>
<path d="M46.5015 128.666C44.5397 128.666 42.513 129.193 41.9721 129.845L27.515 146.03C26.7505 146.96 28.0595 149.138 30.4432 149.138H116.75C119.133 149.138 121.077 148.37 121.077 147.44V129.845C121.077 129.193 119.479 128.666 117.518 128.666H46.5015Z" fill="#407BFF"/>
<path opacity="0.2" d="M46.5015 128.666C44.5397 128.666 42.513 129.193 41.9721 129.845L27.515 146.03C26.7505 146.96 28.0595 149.138 30.4432 149.138H116.75C119.133 149.138 121.077 148.37 121.077 147.44V129.845C121.077 129.193 119.479 128.666 117.518 128.666H46.5015Z" fill="black"/>
<path d="M46.5015 127.256C44.5397 127.256 42.513 127.779 41.9721 128.436L27.515 146.03C26.7505 146.96 28.0595 147.729 30.4432 147.729H116.75C119.133 147.729 121.077 146.96 121.077 146.03V128.436C121.077 127.779 119.479 127.256 117.518 127.256H46.5015Z" fill="#407BFF"/>
<path opacity="0.2" d="M44.8137 129.921L38.7553 137.688C38.3406 138.222 39.1917 138.655 40.6594 138.655H113.984C115.455 138.655 116.663 138.222 116.688 137.688L117.009 129.921C117.027 129.466 115.96 129.102 114.622 129.102H47.8753C46.5374 129.102 45.1671 129.466 44.8137 129.921Z" fill="black"/>
<path opacity="0.2" d="M62.2675 140.768L59.6674 145.561C59.5304 145.817 59.9523 146.03 60.6122 146.03H87.965C88.6249 146.03 89.22 145.817 89.2921 145.561L90.6408 140.754C90.7057 140.52 90.2513 140.328 89.6238 140.328H63.6378C63.0103 140.343 62.3973 140.534 62.2675 140.768Z" fill="black"/>
<path opacity="0.7" d="M117.362 76.8992H46.6528C45.165 76.8992 43.959 78.1052 43.959 79.593V123.545C43.959 125.033 45.165 126.239 46.6528 126.239H117.362C118.85 126.239 120.056 125.033 120.056 123.545V79.593C120.056 78.1052 118.85 76.8992 117.362 76.8992Z" fill="white"/>
<path d="M101.87 95.2693H62.1445V118.919H101.87V95.2693Z" fill="#407BFF"/>
<path opacity="0.1" d="M101.87 95.2693H62.1445V118.919H101.87V95.2693Z" fill="black"/>
<path opacity="0.1" d="M82.0073 108.169L101.87 95.2693H62.1445L82.0073 108.169Z" fill="#263238"/>
<path d="M84.4883 83.9824L101.87 95.2697H62.1445L79.5262 83.9824C80.2646 83.5022 81.1265 83.2466 82.0073 83.2466C82.8881 83.2466 83.7499 83.5022 84.4883 83.9824Z" fill="#407BFF"/>
<path opacity="0.2" d="M63.6201 95.2693L80.1364 84.5446C80.6935 84.1828 81.3436 83.9902 82.008 83.9902C82.6723 83.9902 83.3224 84.1828 83.8796 84.5446L100.396 95.2693H63.6201Z" fill="#263238"/>
<path d="M83.6301 86.495C83.5594 86.495 83.4915 86.4669 83.4414 86.4169C83.3914 86.3668 83.3633 86.299 83.3633 86.2282V74.2305C83.3633 74.1597 83.3914 74.0918 83.4414 74.0418C83.4915 73.9917 83.5594 73.9636 83.6301 73.9636C83.7009 73.9636 83.7688 73.9917 83.8188 74.0418C83.8689 74.0918 83.897 74.1597 83.897 74.2305V86.2282C83.897 86.299 83.8689 86.3668 83.8188 86.4169C83.7688 86.4669 83.7009 86.495 83.6301 86.495Z" fill="#263238"/>
<path d="M83.6305 74.4979C83.4173 74.4979 83.2089 74.4349 83.0314 74.3168C82.8539 74.1987 82.7153 74.0308 82.6329 73.8341C82.5505 73.6375 82.528 73.4209 82.5683 73.2116C82.6086 73.0022 82.7099 72.8094 82.8594 72.6574C83.0089 72.5055 83.2 72.401 83.4086 72.3573C83.6173 72.3135 83.8342 72.3324 84.0322 72.4115C84.2302 72.4906 84.4003 72.6265 84.5214 72.802C84.6424 72.9775 84.7088 73.1849 84.7124 73.398C84.7148 73.5416 84.6886 73.6842 84.6353 73.8176C84.582 73.9509 84.5027 74.0723 84.402 74.1747C84.3013 74.2771 84.1812 74.3584 84.0487 74.4139C83.9163 74.4694 83.7741 74.4979 83.6305 74.4979ZM83.6305 72.8319C83.5186 72.8319 83.4091 72.8651 83.316 72.9273C83.2229 72.9895 83.1503 73.0779 83.1075 73.1814C83.0646 73.2848 83.0534 73.3987 83.0752 73.5085C83.0971 73.6183 83.151 73.7192 83.2302 73.7984C83.3094 73.8776 83.4103 73.9315 83.5201 73.9533C83.6299 73.9752 83.7437 73.964 83.8472 73.9211C83.9506 73.8783 84.0391 73.8057 84.1013 73.7126C84.1635 73.6195 84.1967 73.51 84.1967 73.398C84.1967 73.2479 84.137 73.1039 84.0309 72.9977C83.9247 72.8915 83.7807 72.8319 83.6305 72.8319Z" fill="#263238"/>
<path d="M71.7987 83.3977L66.4941 84.9916L65.6719 97.5591L82.0078 108.168L98.3437 97.5591L99.1804 85.7814L71.7987 83.3977Z" fill="white"/>
<path opacity="0.6" d="M88.6217 97.335C88.537 98.4828 88.1138 99.5797 87.4056 100.487C86.6973 101.394 85.7359 102.071 84.6429 102.431C83.5499 102.792 82.3745 102.82 81.2655 102.512C80.1565 102.205 79.1637 101.575 78.4127 100.703C77.6618 99.8305 77.1864 98.7552 77.0468 97.6128C76.9073 96.4704 77.1097 95.3122 77.6286 94.2849C78.1475 93.2576 78.9595 92.4073 79.9618 91.8416C80.9641 91.276 82.1117 91.0204 83.2593 91.1071C84.0212 91.1614 84.7649 91.3659 85.4475 91.7088C86.1301 92.0517 86.7381 92.5262 87.2365 93.1051C87.735 93.684 88.1139 94.3557 88.3517 95.0817C88.5894 95.8076 88.6811 96.5734 88.6217 97.335Z" fill="#407BFF"/>
<path d="M87.1499 99.7621C86.6459 100.545 85.9398 101.177 85.1063 101.592C84.2727 102.007 83.3426 102.189 82.4141 102.12C81.4856 102.05 80.5932 101.731 79.831 101.196C79.0689 100.661 78.4653 99.93 78.084 99.0805C79.4937 98.2867 81.1068 97.9279 82.7201 98.0492C84.3334 98.1705 85.8747 98.7665 87.1499 99.7621Z" fill="white"/>
<path d="M85.2142 95.6376C85.4514 94.3872 84.63 93.1814 83.3796 92.9442C82.1293 92.707 80.9234 93.5284 80.6863 94.7788C80.4491 96.0291 81.2704 97.235 82.5208 97.4721C83.7712 97.7093 84.977 96.8879 85.2142 95.6376Z" fill="white"/>
<path d="M81.0191 89.1027C80.3597 89.0996 79.7212 88.8706 79.2101 88.454C78.6989 88.0373 78.3459 87.4581 78.2099 86.8128L77.9286 87.0941C77.8782 87.1207 77.8206 87.1305 77.7642 87.122C77.7078 87.1135 77.6556 87.0872 77.6153 87.0468C77.5749 87.0065 77.5486 86.9543 77.5401 86.8979C77.5316 86.8415 77.5414 86.7839 77.568 86.7335L78.2424 86.0555C78.2797 86.0187 78.327 85.9936 78.3785 85.9835C78.4299 85.9734 78.4832 85.9787 78.5317 85.9987C78.5802 86.0187 78.6217 86.0525 78.651 86.096C78.6804 86.1395 78.6963 86.1906 78.6968 86.243C78.6967 86.8606 78.9408 87.4532 79.3759 87.8916C79.8109 88.33 80.4015 88.5787 81.0191 88.5834C81.0899 88.5834 81.1578 88.6116 81.2078 88.6616C81.2579 88.7116 81.286 88.7795 81.286 88.8503C81.286 88.9211 81.2579 88.9889 81.2078 89.039C81.1578 89.089 81.0899 89.1172 81.0191 89.1172V89.1027Z" fill="#263238"/>
<path d="M71.7988 83.3977L70.8756 86.2285L66.4941 84.9916" fill="#E0E0E0"/>
<path d="M71.7988 83.3977L71.3516 85.7237L66.4941 84.9916" fill="#F0F0F0"/>
<path d="M78.6211 105.965L62.1445 118.918H101.87L85.3935 105.965C84.4278 105.206 83.2353 104.794 82.0073 104.794C80.7793 104.794 79.5868 105.206 78.6211 105.965Z" fill="#407BFF"/>
</g>
<defs>
<clipPath id="clip0_85_2225">
<rect width="180.308" height="180.308" fill="white" transform="translate(0.962891 0.232178)"/>
</clipPath>
</defs>
</svg>
