<svg width="256" height="256" viewBox="0 0 256 256" fill="none" xmlns="http://www.w3.org/2000/svg">
<path d="M256 195.789H0V195.917H256V195.789Z" fill="#EBEBEB"/>
<path d="M230.349 204.027H202.071V204.155H230.349V204.027Z" fill="#EBEBEB"/>
<path d="M169.216 201.344H164.767V201.472H169.216V201.344Z" fill="#EBEBEB"/>
<path d="M200.53 199.276H190.705V199.404H200.53V199.276Z" fill="#EBEBEB"/>
<path d="M48.9727 200.136H26.8594V200.264H48.9727V200.136Z" fill="#EBEBEB"/>
<path d="M133.658 203.443H110.249V203.571H133.658V203.443Z" fill="#EBEBEB"/>
<path d="M119.879 201.277H71.915V201.405H119.879V201.277Z" fill="#EBEBEB"/>
<path d="M124.273 170.03C124.273 170.414 124.197 170.795 124.05 171.15C123.902 171.505 123.687 171.828 123.415 172.099C123.142 172.371 122.82 172.586 122.464 172.733C122.109 172.879 121.728 172.954 121.344 172.954H22.4819C21.7074 172.952 20.9651 172.644 20.4179 172.096C19.8708 171.547 19.5635 170.805 19.5635 170.03V31.058C19.5702 30.2879 19.8805 29.5516 20.4269 29.009C20.9734 28.4664 21.7118 28.1614 22.4819 28.16H121.344C122.119 28.16 122.863 28.468 123.411 29.0163C123.959 29.5646 124.267 30.3082 124.267 31.0836M124.139 31.0836C124.142 30.7145 124.072 30.3485 123.933 30.0067C123.793 29.6649 123.588 29.3539 123.328 29.0918C123.068 28.8296 122.759 28.6214 122.419 28.479C122.078 28.3367 121.713 28.2631 121.344 28.2624H22.4819C21.7413 28.2638 21.0316 28.5589 20.5085 29.083C19.9853 29.6071 19.6915 30.3174 19.6915 31.058V170.03C19.6915 170.771 19.9853 171.481 20.5085 172.005C21.0316 172.529 21.7413 172.824 22.4819 172.826H121.344C122.085 172.824 122.795 172.529 123.319 172.005C123.843 171.481 124.138 170.771 124.139 170.03" fill="#EBEBEB"/>
<path d="M232.094 172.954H133.227C132.452 172.952 131.709 172.644 131.161 172.096C130.614 171.548 130.305 170.805 130.304 170.03V31.058C130.312 30.2875 130.623 29.5512 131.17 29.0087C131.718 28.4663 132.457 28.1613 133.227 28.16H232.094C232.864 28.1627 233.601 28.4684 234.146 29.0108C234.691 29.5533 235.001 30.2888 235.008 31.058V170.03C235.008 170.804 234.701 171.546 234.155 172.094C233.609 172.642 232.868 172.951 232.094 172.954ZM133.227 28.2624C132.486 28.2638 131.776 28.5587 131.252 29.0827C130.728 29.6067 130.433 30.317 130.432 31.058V170.03C130.433 170.771 130.728 171.481 131.252 172.005C131.776 172.529 132.486 172.824 133.227 172.826H232.094C232.835 172.824 233.546 172.529 234.07 172.005C234.594 171.481 234.889 170.771 234.89 170.03V31.058C234.889 30.317 234.594 29.6067 234.07 29.0827C233.546 28.5587 232.835 28.2638 232.094 28.2624H133.227Z" fill="#EBEBEB"/>
<path d="M141.245 55.7209H48.9826C47.4556 55.7209 46.2178 56.9588 46.2178 58.4857V101.545C46.2178 103.072 47.4556 104.31 48.9826 104.31H141.245C142.772 104.31 144.01 103.072 144.01 101.545V58.4857C144.01 56.9588 142.772 55.7209 141.245 55.7209Z" fill="#F5F5F5"/>
<path d="M137.175 51.6506H44.9123C43.3853 51.6506 42.1475 52.8885 42.1475 54.4154V97.4746C42.1475 99.0016 43.3853 100.239 44.9123 100.239H137.175C138.702 100.239 139.939 99.0016 139.939 97.4746V54.4154C139.939 52.8885 138.702 51.6506 137.175 51.6506Z" fill="#E0E0E0"/>
<path d="M132.997 47.4727H40.7345C39.2076 47.4727 37.9697 48.7105 37.9697 50.2375V93.2967C37.9697 94.8236 39.2076 96.0615 40.7345 96.0615H132.997C134.524 96.0615 135.762 94.8236 135.762 93.2967V50.2375C135.762 48.7105 134.524 47.4727 132.997 47.4727Z" fill="#EBEBEB"/>
<path d="M127.227 52.9357H46.5051C44.9894 52.9357 43.7607 54.1643 43.7607 55.68V65.4285C43.7607 66.9441 44.9894 68.1728 46.5051 68.1728H127.227C128.743 68.1728 129.971 66.9441 129.971 65.4285V55.68C129.971 54.1643 128.743 52.9357 127.227 52.9357Z" fill="white"/>
<path d="M111.232 74.5319H62.4995C61.3995 74.5319 60.5078 75.4236 60.5078 76.5235V85.6935C60.5078 86.7934 61.3995 87.6851 62.4995 87.6851H111.232C112.332 87.6851 113.223 86.7934 113.223 85.6935V76.5235C113.223 75.4236 112.332 74.5319 111.232 74.5319Z" fill="#E0E0E0"/>
<path d="M86.866 65.2032C86.6374 65.2018 86.4187 65.1101 86.2575 64.948C86.0963 64.7858 86.0059 64.5665 86.0059 64.3379V56.7654C86.0226 56.5481 86.1208 56.3451 86.2807 56.197C86.4407 56.0489 86.6506 55.9667 86.8686 55.9667C87.0866 55.9667 87.2965 56.0489 87.4564 56.197C87.6164 56.3451 87.7145 56.5481 87.7313 56.7654V64.3379C87.7313 64.5674 87.6401 64.7875 87.4779 64.9498C87.3156 65.112 87.0955 65.2032 86.866 65.2032Z" fill="#E0E0E0"/>
<path d="M90.6495 61.44H83.0822C82.9633 61.4492 82.8438 61.4337 82.7312 61.3945C82.6186 61.3553 82.5153 61.2933 82.4278 61.2122C82.3403 61.1312 82.2705 61.033 82.2228 60.9238C82.175 60.8145 82.1504 60.6966 82.1504 60.5773C82.1504 60.4581 82.175 60.3401 82.2228 60.2309C82.2705 60.1216 82.3403 60.0234 82.4278 59.9424C82.5153 59.8614 82.6186 59.7993 82.7312 59.7601C82.8438 59.7209 82.9633 59.7054 83.0822 59.7146H90.6495C90.7684 59.7054 90.8879 59.7209 91.0005 59.7601C91.1131 59.7993 91.2164 59.8614 91.3039 59.9424C91.3914 60.0234 91.4612 60.1216 91.5089 60.2309C91.5567 60.3401 91.5813 60.4581 91.5813 60.5773C91.5813 60.6966 91.5567 60.8145 91.5089 60.9238C91.4612 61.033 91.3914 61.1312 91.3039 61.2122C91.2164 61.2933 91.1131 61.3553 91.0005 61.3945C90.8879 61.4337 90.7684 61.4492 90.6495 61.44Z" fill="#E0E0E0"/>
<path d="M89.5433 64.0922C89.4302 64.0928 89.3182 64.0709 89.2136 64.0278C89.109 63.9848 89.014 63.9214 88.9341 63.8413L83.5785 58.4858C83.4985 58.4058 83.4351 58.3108 83.3918 58.2063C83.3485 58.1017 83.3262 57.9897 83.3262 57.8765C83.3262 57.7634 83.3485 57.6513 83.3918 57.5468C83.4351 57.4423 83.4985 57.3473 83.5785 57.2673C83.6586 57.1873 83.7535 57.1238 83.8581 57.0805C83.9626 57.0372 84.0747 57.0149 84.1878 57.0149C84.301 57.0149 84.413 57.0372 84.5176 57.0805C84.6221 57.1238 84.7171 57.1873 84.7971 57.2673L90.1526 62.6177C90.3149 62.7799 90.4061 63 90.4061 63.2295C90.4061 63.459 90.3149 63.6791 90.1526 63.8413C90.0727 63.9214 89.9777 63.9848 89.8731 64.0278C89.7685 64.0709 89.6564 64.0928 89.5433 64.0922Z" fill="#E0E0E0"/>
<path d="M84.1879 64.0922C84.0748 64.0928 83.9627 64.0709 83.8581 64.0278C83.7535 63.9848 83.6585 63.9214 83.5786 63.8413C83.4164 63.6791 83.3252 63.459 83.3252 63.2295C83.3252 63 83.4164 62.7799 83.5786 62.6177L88.9341 57.2673C89.0957 57.1057 89.3149 57.0149 89.5434 57.0149C89.7719 57.0149 89.9911 57.1057 90.1527 57.2673C90.3143 57.4289 90.4051 57.648 90.4051 57.8765C90.4051 58.1051 90.3143 58.3242 90.1527 58.4858L84.7972 63.8413C84.7173 63.9214 84.6223 63.9848 84.5177 64.0278C84.4131 64.0709 84.301 64.0928 84.1879 64.0922Z" fill="#E0E0E0"/>
<path d="M108.432 65.2032C108.202 65.2032 107.982 65.112 107.82 64.9498C107.658 64.7875 107.566 64.5674 107.566 64.3379V56.7654C107.583 56.5481 107.681 56.3451 107.841 56.197C108.001 56.0489 108.211 55.9667 108.429 55.9667C108.647 55.9667 108.857 56.0489 109.017 56.197C109.177 56.3451 109.275 56.5481 109.292 56.7654V64.3379C109.292 64.5665 109.201 64.7858 109.04 64.948C108.879 65.1101 108.66 65.2018 108.432 65.2032Z" fill="#E0E0E0"/>
<path d="M112.215 61.44H104.643C104.425 61.4233 104.222 61.3251 104.074 61.1652C103.926 61.0052 103.844 60.7953 103.844 60.5773C103.844 60.3593 103.926 60.1494 104.074 59.9895C104.222 59.8295 104.425 59.7314 104.643 59.7146H112.215C112.432 59.7314 112.635 59.8295 112.783 59.9895C112.932 60.1494 113.014 60.3593 113.014 60.5773C113.014 60.7953 112.932 61.0052 112.783 61.1652C112.635 61.3251 112.432 61.4233 112.215 61.44Z" fill="#E0E0E0"/>
<path d="M111.104 64.0922C110.991 64.0928 110.878 64.0709 110.774 64.0278C110.669 63.9848 110.574 63.9214 110.494 63.8413L105.144 58.4858C105.064 58.4058 105 58.3108 104.957 58.2063C104.914 58.1017 104.892 57.9897 104.892 57.8765C104.892 57.7634 104.914 57.6513 104.957 57.5468C105 57.4423 105.064 57.3473 105.144 57.2673C105.224 57.1873 105.319 57.1238 105.424 57.0805C105.528 57.0372 105.64 57.0149 105.753 57.0149C105.866 57.0149 105.978 57.0372 106.083 57.0805C106.188 57.1238 106.283 57.1873 106.363 57.2673L111.718 62.6177C111.878 62.7812 111.967 63.0008 111.967 63.2295C111.967 63.4582 111.878 63.6778 111.718 63.8413C111.637 63.9218 111.541 63.9854 111.436 64.0284C111.331 64.0715 111.218 64.0932 111.104 64.0922Z" fill="#E0E0E0"/>
<path d="M105.753 64.0922C105.64 64.0928 105.528 64.0709 105.424 64.0278C105.319 63.9848 105.224 63.9214 105.144 63.8413C104.982 63.6791 104.891 63.459 104.891 63.2295C104.891 63 104.982 62.7799 105.144 62.6177L110.494 57.2673C110.572 57.1782 110.668 57.106 110.775 57.0552C110.882 57.0045 110.998 56.9762 111.116 56.9721C111.234 56.968 111.352 56.9882 111.462 57.0315C111.572 57.0748 111.673 57.1402 111.756 57.2237C111.84 57.3072 111.906 57.407 111.95 57.517C111.994 57.627 112.014 57.7448 112.011 57.8631C112.007 57.9813 111.979 58.0977 111.929 58.2048C111.879 58.3119 111.807 58.4075 111.718 58.4858L106.363 63.8413C106.283 63.9214 106.188 63.9848 106.083 64.0278C105.979 64.0709 105.866 64.0928 105.753 64.0922Z" fill="#E0E0E0"/>
<path d="M65.3057 65.2032C65.0762 65.2032 64.8561 65.112 64.6939 64.9498C64.5316 64.7875 64.4404 64.5674 64.4404 64.3379V56.7654C64.4572 56.5481 64.5553 56.3451 64.7153 56.197C64.8752 56.0489 65.0852 55.9667 65.3031 55.9667C65.5211 55.9667 65.7311 56.0489 65.891 56.197C66.051 56.3451 66.1491 56.5481 66.1659 56.7654V64.3379C66.1659 64.5665 66.0754 64.7858 65.9143 64.948C65.7531 65.1101 65.5343 65.2018 65.3057 65.2032Z" fill="#E0E0E0"/>
<path d="M69.089 61.44H61.5165C61.2992 61.4233 61.0962 61.3251 60.9481 61.1652C60.8 61.0052 60.7178 60.7953 60.7178 60.5773C60.7178 60.3593 60.8 60.1494 60.9481 59.9895C61.0962 59.8295 61.2992 59.7314 61.5165 59.7146H69.089C69.3064 59.7314 69.5093 59.8295 69.6574 59.9895C69.8055 60.1494 69.8878 60.3593 69.8878 60.5773C69.8878 60.7953 69.8055 61.0052 69.6574 61.1652C69.5093 61.3251 69.3064 61.4233 69.089 61.44Z" fill="#E0E0E0"/>
<path d="M67.9787 64.0922C67.8656 64.0928 67.7535 64.0709 67.6489 64.0278C67.5443 63.9848 67.4493 63.9214 67.3694 63.8413L62.019 58.4858C61.939 58.4058 61.8755 58.3108 61.8322 58.2063C61.7889 58.1017 61.7666 57.9897 61.7666 57.8765C61.7666 57.7634 61.7889 57.6513 61.8322 57.5468C61.8755 57.4423 61.939 57.3473 62.019 57.2673C62.099 57.1873 62.194 57.1238 62.2985 57.0805C62.4031 57.0372 62.5151 57.0149 62.6283 57.0149C62.7414 57.0149 62.8535 57.0372 62.958 57.0805C63.0625 57.1238 63.1575 57.1873 63.2375 57.2673L68.6084 62.6177C68.7682 62.7812 68.8577 63.0008 68.8577 63.2295C68.8577 63.4582 68.7682 63.6778 68.6084 63.8413C68.5259 63.9236 68.4275 63.9883 68.3193 64.0314C68.211 64.0746 68.0951 64.0952 67.9787 64.0922Z" fill="#E0E0E0"/>
<path d="M62.6274 64.0922C62.5142 64.0931 62.402 64.0713 62.2974 64.0282C62.1928 63.9851 62.0978 63.9216 62.0181 63.8413C61.8558 63.6791 61.7646 63.459 61.7646 63.2295C61.7646 63 61.8558 62.7799 62.0181 62.6177L67.3685 57.2673C67.4464 57.1782 67.5417 57.106 67.6486 57.0552C67.7555 57.0045 67.8717 56.9762 67.99 56.9721C68.1083 56.968 68.2261 56.9882 68.3363 57.0315C68.4465 57.0748 68.5466 57.1402 68.6304 57.2237C68.7143 57.3072 68.7801 57.407 68.8239 57.517C68.8676 57.627 68.8883 57.7448 68.8847 57.8631C68.8812 57.9813 68.8533 58.0977 68.803 58.2048C68.7527 58.3119 68.6809 58.4075 68.5922 58.4858L63.2366 63.8413C63.1567 63.9214 63.0617 63.9848 62.9571 64.0278C62.8526 64.0709 62.7405 64.0928 62.6274 64.0922Z" fill="#E0E0E0"/>
<path d="M35.1951 156.16L28.4162 134.656C28.3562 134.456 28.3377 134.245 28.3619 134.037C28.3861 133.83 28.4525 133.629 28.557 133.448C28.6615 133.267 28.8019 133.109 28.9696 132.984C29.1374 132.859 29.3289 132.769 29.5324 132.721L30.3977 132.531C33.0517 131.902 35.5924 130.866 37.9292 129.459C40.2757 127.997 42.2915 126.061 43.8479 123.776C44.0679 123.455 44.4018 123.229 44.782 123.144C45.1622 123.059 45.5604 123.123 45.8959 123.32C48.2851 124.715 50.9361 125.602 53.6834 125.926C56.3979 126.204 59.1389 126.059 61.8089 125.496L62.6793 125.302C62.8835 125.255 63.0952 125.252 63.3009 125.291C63.5065 125.331 63.7016 125.413 63.8737 125.533C64.0457 125.652 64.1909 125.807 64.3 125.985C64.4091 126.164 64.4796 126.364 64.5071 126.572L67.5791 148.926C67.6115 149.156 67.5899 149.39 67.5162 149.61C67.4424 149.831 67.3185 150.031 67.1542 150.195L54.5436 162.888C54.3391 163.09 54.082 163.231 53.8013 163.294C53.5207 163.358 53.228 163.341 52.9564 163.246L36.1218 157.148C35.9021 157.065 35.7043 156.933 35.5436 156.762C35.383 156.591 35.2638 156.385 35.1951 156.16Z" fill="#F0F0F0"/>
<path d="M49.3828 137.103L49.1524 143.043L52.2756 154.081L47.8519 142.971L47.2887 137.728L44.3447 134.538L45.1588 124.017C45.1672 123.901 45.205 123.79 45.2684 123.693C45.3319 123.596 45.4189 123.517 45.5214 123.463C45.6239 123.409 45.7384 123.383 45.8542 123.385C45.9699 123.388 46.083 123.42 46.1828 123.479C46.9014 123.886 47.6454 124.247 48.41 124.559C48.5199 124.607 48.6098 124.691 48.664 124.798C48.7183 124.904 48.7334 125.026 48.707 125.143L46.6897 133.171L49.3828 137.103Z" fill="#E0E0E0"/>
<path d="M184.151 51.7479L155.745 60.9639C155.183 61.1468 154.717 61.5448 154.449 62.0707C154.18 62.5965 154.13 63.2075 154.311 63.7696L160.645 83.3076C160.828 83.869 161.226 84.3352 161.751 84.6039C162.277 84.8725 162.888 84.9219 163.45 84.7412L191.856 75.5252C192.418 75.3422 192.884 74.9442 193.152 74.4184C193.421 73.8925 193.471 73.2816 193.29 72.7194L186.956 53.1815C186.773 52.62 186.375 52.1539 185.85 51.8852C185.324 51.6165 184.713 51.5671 184.151 51.7479Z" fill="#F5F5F5"/>
<path d="M175.339 67.4457L178.493 74.4806L173.665 76.0473L172.088 68.5004C171.253 68.3677 170.488 67.9578 169.914 67.3368C169.341 66.7158 168.993 65.9198 168.927 65.0772C168.862 64.2345 169.081 63.3942 169.551 62.6917C170.021 61.9891 170.714 61.4652 171.518 61.2044C172.322 60.9436 173.19 60.961 173.983 61.2539C174.776 61.5468 175.447 62.0981 175.889 62.8189C176.33 63.5398 176.516 64.3882 176.416 65.2275C176.317 66.0669 175.937 66.8482 175.339 67.4457Z" fill="#E0E0E0"/>
<path d="M150.19 37.0689C145.803 43.2436 147.328 51.8554 153.201 56.6426L154.599 57.7844C155.006 58.1157 155.528 58.2717 156.051 58.2179C156.573 58.1641 157.053 57.9051 157.384 57.4977C157.715 57.0903 157.871 56.568 157.818 56.0457C157.764 55.5233 157.505 55.0437 157.097 54.7124L155.31 53.2481C154.176 52.3205 153.253 51.1615 152.602 49.8486C151.951 48.5357 151.588 47.0991 151.537 45.6346C151.485 44.1702 151.747 42.7116 152.304 41.3563C152.861 40.0011 153.701 38.7803 154.768 37.7754C158.562 34.1914 164.547 34.2273 168.592 37.5297L170.814 34.2426C169.299 33.0119 167.548 32.1053 165.669 31.5789C163.79 31.0526 161.823 30.9177 159.889 31.1827C157.956 31.4476 156.097 32.1068 154.429 33.1193C152.761 34.1318 151.318 35.4761 150.19 37.0689Z" fill="#EBEBEB"/>
<path d="M192.896 169.206C191.254 169.208 189.628 168.887 188.11 168.26C186.593 167.632 185.214 166.711 184.054 165.55C182.001 163.504 180.722 160.809 180.435 157.925C180.147 155.041 180.869 152.147 182.476 149.735C184.084 147.324 186.478 145.545 189.251 144.701C192.024 143.857 195.003 144.002 197.681 145.109C200.36 146.216 202.571 148.218 203.938 150.773C205.306 153.329 205.745 156.279 205.18 159.122C204.616 161.964 203.083 164.523 200.843 166.362C198.602 168.201 195.794 169.206 192.896 169.206ZM187.469 162.135C188.542 163.21 189.911 163.942 191.401 164.24C192.891 164.537 194.435 164.385 195.839 163.804C197.243 163.223 198.443 162.239 199.288 160.976C200.132 159.712 200.583 158.227 200.583 156.708C200.583 155.188 200.132 153.703 199.288 152.44C198.443 151.177 197.243 150.193 195.839 149.612C194.435 149.031 192.891 148.879 191.401 149.176C189.911 149.473 188.542 150.206 187.469 151.281C186.03 152.721 185.223 154.673 185.223 156.708C185.223 158.743 186.03 160.695 187.469 162.135Z" fill="#EBEBEB"/>
<path d="M217.789 184.018C217.468 184.019 217.15 183.955 216.854 183.831C216.557 183.707 216.289 183.525 216.064 183.296L198.303 165.535C197.878 165.076 197.648 164.471 197.661 163.847C197.673 163.222 197.926 162.627 198.368 162.185C198.81 161.743 199.405 161.49 200.03 161.478C200.654 161.466 201.259 161.696 201.718 162.12L219.479 179.881C219.816 180.219 220.045 180.65 220.137 181.118C220.23 181.586 220.181 182.071 219.998 182.512C219.815 182.953 219.506 183.33 219.109 183.595C218.713 183.86 218.246 184.002 217.769 184.003L217.789 184.018Z" fill="#EBEBEB"/>
<path d="M208.532 187.361C208.055 187.359 207.589 187.216 207.193 186.951C206.796 186.685 206.487 186.308 206.305 185.867C206.122 185.426 206.074 184.941 206.166 184.472C206.258 184.004 206.486 183.573 206.822 183.235L213.125 176.937C213.346 176.698 213.612 176.506 213.909 176.373C214.206 176.24 214.527 176.168 214.852 176.162C215.177 176.155 215.5 176.215 215.802 176.336C216.104 176.458 216.378 176.639 216.608 176.869C216.838 177.099 217.019 177.373 217.141 177.675C217.262 177.977 217.321 178.3 217.315 178.625C217.309 178.95 217.237 179.271 217.104 179.568C216.97 179.864 216.779 180.131 216.54 180.352L210.237 186.65C210.014 186.875 209.749 187.055 209.456 187.177C209.163 187.299 208.849 187.362 208.532 187.361Z" fill="#EBEBEB"/>
<path d="M205.589 180.434C205.112 180.432 204.646 180.29 204.25 180.024C203.854 179.759 203.545 179.382 203.363 178.941C203.181 178.5 203.133 178.016 203.226 177.548C203.318 177.08 203.547 176.65 203.884 176.312L208.19 172.001C208.41 171.762 208.677 171.571 208.974 171.437C209.271 171.304 209.591 171.232 209.917 171.226C210.242 171.22 210.565 171.279 210.867 171.401C211.169 171.522 211.443 171.703 211.673 171.933C211.903 172.163 212.084 172.437 212.205 172.739C212.327 173.041 212.386 173.364 212.38 173.689C212.374 174.015 212.302 174.335 212.168 174.632C212.035 174.929 211.843 175.195 211.605 175.416L207.299 179.712C207.075 179.939 206.809 180.12 206.516 180.244C206.222 180.368 205.907 180.433 205.589 180.434Z" fill="#EBEBEB"/>
<path d="M128 218.911C182.826 218.911 227.272 216.316 227.272 213.115C227.272 209.914 182.826 207.319 128 207.319C73.174 207.319 28.7285 209.914 28.7285 213.115C28.7285 216.316 73.174 218.911 128 218.911Z" fill="#F5F5F5"/>
<path d="M165.622 132.828C163.768 135.475 158.515 141.793 153.897 143.498C146.616 157.942 156.672 178.601 166.4 185.344C166.4 185.344 193.587 171.233 197.919 136.704L165.622 132.828Z" fill="#263238"/>
<path d="M200.3 49.362C194.78 48.338 181.986 47.7902 181.028 62.674C180.071 77.5579 175.242 87.3575 187.505 89.9739L188.365 85.9291L200.3 49.362Z" fill="#263238"/>
<path opacity="0.2" d="M200.3 49.362C194.78 48.338 181.986 47.7902 181.028 62.674C180.071 77.5579 175.242 87.3575 187.505 89.9739L188.365 85.9291L200.3 49.362Z" fill="white"/>
<path d="M179.518 85.6116C178.149 85.0144 176.599 84.9852 175.209 85.5306C173.819 86.0759 172.702 87.1511 172.104 88.5198L172.079 88.5812L169.657 94.1262C168.848 95.9847 168.013 97.8279 167.184 99.6507C166.769 100.562 166.344 101.463 165.904 102.344C165.464 103.224 165.049 104.115 164.603 104.96C164.158 105.805 163.697 106.624 163.252 107.397C163.068 107.704 162.883 108.001 162.704 108.283L161.834 108.411C160.805 108.525 159.771 108.583 158.736 108.585C157.656 108.585 156.55 108.544 155.423 108.483C154.297 108.421 153.16 108.298 152.013 108.181C149.72 107.94 147.405 107.602 145.06 107.218C143.898 107.029 142.726 106.834 141.558 106.614L138.082 105.984H137.985C137.32 105.865 136.634 105.99 136.054 106.335C135.473 106.68 135.037 107.223 134.823 107.864C134.61 108.505 134.635 109.201 134.893 109.825C135.151 110.449 135.625 110.96 136.228 111.263C138.5 112.37 140.825 113.361 143.197 114.232C144.379 114.662 145.567 115.087 146.781 115.466C147.994 115.845 149.213 116.204 150.452 116.536C152.987 117.215 155.567 117.713 158.173 118.026C159.563 118.182 160.962 118.259 162.361 118.257C163.911 118.25 165.455 118.079 166.969 117.745C167.818 117.556 168.594 117.124 169.201 116.501L169.437 116.26C170.339 115.317 171.177 114.315 171.946 113.26C172.662 112.297 173.282 111.324 173.886 110.367C175.099 108.452 176.17 106.537 177.178 104.607C177.69 103.644 178.177 102.677 178.643 101.704C179.108 100.731 179.585 99.7582 180.02 98.7751C180.455 97.7921 180.9 96.8193 181.31 95.8209C181.72 94.8225 182.119 93.8548 182.518 92.7898C183.038 91.4371 183.016 89.9363 182.457 88.5994C181.898 87.2625 180.846 86.1924 179.518 85.6116Z" fill="#263238"/>
<path opacity="0.2" d="M179.518 85.6116C178.149 85.0144 176.599 84.9852 175.209 85.5306C173.819 86.0759 172.702 87.1511 172.104 88.5198L172.079 88.5812L169.657 94.1262C168.848 95.9847 168.013 97.8279 167.184 99.6507C166.769 100.562 166.344 101.463 165.904 102.344C165.464 103.224 165.049 104.115 164.603 104.96C164.158 105.805 163.697 106.624 163.252 107.397C163.068 107.704 162.883 108.001 162.704 108.283L161.834 108.411C160.805 108.525 159.771 108.583 158.736 108.585C157.656 108.585 156.55 108.544 155.423 108.483C154.297 108.421 153.16 108.298 152.013 108.181C149.72 107.94 147.405 107.602 145.06 107.218C143.898 107.029 142.726 106.834 141.558 106.614L138.082 105.984H137.985C137.32 105.865 136.634 105.99 136.054 106.335C135.473 106.68 135.037 107.223 134.823 107.864C134.61 108.505 134.635 109.201 134.893 109.825C135.151 110.449 135.625 110.96 136.228 111.263C138.5 112.37 140.825 113.361 143.197 114.232C144.379 114.662 145.567 115.087 146.781 115.466C147.994 115.845 149.213 116.204 150.452 116.536C152.987 117.215 155.567 117.713 158.173 118.026C159.563 118.182 160.962 118.259 162.361 118.257C163.911 118.25 165.455 118.079 166.969 117.745C167.818 117.556 168.594 117.124 169.201 116.501L169.437 116.26C170.339 115.317 171.177 114.315 171.946 113.26C172.662 112.297 173.282 111.324 173.886 110.367C175.099 108.452 176.17 106.537 177.178 104.607C177.69 103.644 178.177 102.677 178.643 101.704C179.108 100.731 179.585 99.7582 180.02 98.7751C180.455 97.7921 180.9 96.8193 181.31 95.8209C181.72 94.8225 182.119 93.8548 182.518 92.7898C183.038 91.4371 183.016 89.9363 182.457 88.5994C181.898 87.2625 180.846 86.1924 179.518 85.6116Z" fill="white"/>
<path d="M137.078 105.662L132.87 104.412L132.834 111.718C132.834 111.718 135.522 112.174 137.442 111.478C138.005 111.256 138.474 110.846 138.77 110.318C139.065 109.79 139.17 109.176 139.065 108.58L138.952 107.832C138.876 107.331 138.66 106.861 138.328 106.477C137.997 106.093 137.564 105.81 137.078 105.662Z" fill="#CE7A63"/>
<path d="M127.284 107.382L127.704 109.942C127.783 110.436 128.036 110.886 128.417 111.211C128.798 111.535 129.282 111.714 129.782 111.713H132.854L132.89 104.407L129.091 104.919C128.808 104.956 128.535 105.049 128.289 105.194C128.043 105.339 127.829 105.533 127.66 105.763C127.491 105.994 127.37 106.256 127.306 106.534C127.241 106.812 127.234 107.101 127.284 107.382Z" fill="#CE7A63"/>
<path d="M201.728 83.8657C194.035 82.7396 186.241 82.47 178.489 83.0619C176.726 83.213 175.077 83.9974 173.848 85.2699C172.619 86.5425 171.892 88.2171 171.802 89.9841C171.177 105.387 168.828 120.672 164.798 135.552C168.07 139.285 179.293 146.166 197.535 141.793C203.444 131.815 207.565 116.844 211.508 97.8177C211.853 96.2533 211.869 94.6343 211.555 93.0634C211.241 91.4924 210.605 90.0038 209.685 88.692C208.766 87.3802 207.583 86.2737 206.214 85.4429C204.844 84.6121 203.317 84.075 201.728 83.8657Z" fill="#263238"/>
<path opacity="0.4" d="M201.728 83.8657C194.035 82.7396 186.241 82.47 178.489 83.0619C176.726 83.213 175.077 83.9974 173.848 85.2699C172.619 86.5425 171.892 88.2171 171.802 89.9841C171.177 105.387 168.828 120.672 164.798 135.552C168.07 139.285 179.293 146.166 197.535 141.793C203.444 131.815 207.565 116.844 211.508 97.8177C211.853 96.2533 211.869 94.6343 211.555 93.0634C211.241 91.4924 210.605 90.0038 209.685 88.692C208.766 87.3802 207.583 86.2737 206.214 85.4429C204.844 84.6121 203.317 84.075 201.728 83.8657Z" fill="white"/>
<path opacity="0.4" d="M185.769 87.2346C182.211 97.2186 182.492 103.741 181.673 110.822C180.854 117.903 177.188 134.185 173.133 138.844" stroke="#263238" stroke-width="0.943405" stroke-miterlimit="10"/>
<path d="M77.6505 65.7562C82.8934 68.0431 88.0919 70.4171 93.246 72.8781C98.4002 75.3391 103.534 77.8411 108.647 80.384C118.856 85.504 128.946 90.8698 138.916 96.4813C148.887 102.093 158.671 108.023 168.269 114.273C177.828 120.581 187.157 127.263 196.127 134.451C196.311 134.598 196.463 134.78 196.576 134.986C196.689 135.191 196.761 135.417 196.786 135.651C196.812 135.884 196.791 136.121 196.726 136.346C196.66 136.572 196.551 136.782 196.404 136.965C196.257 137.148 196.075 137.301 195.869 137.414C195.664 137.527 195.438 137.598 195.204 137.624C194.971 137.65 194.734 137.629 194.509 137.564C194.283 137.498 194.073 137.389 193.89 137.242H193.859C185.155 129.997 176.026 123.203 166.651 116.762C157.214 110.406 147.59 104.327 137.78 98.5242C127.97 92.7215 118.003 87.1748 107.879 81.8842C102.831 79.232 97.7533 76.6396 92.647 74.1069C87.5406 71.5742 82.4019 69.1115 77.2307 66.7187C77.1037 66.6617 77.0046 66.5566 76.9551 66.4265C76.9057 66.2964 76.9099 66.1519 76.967 66.025C77.024 65.898 77.1291 65.7989 77.2593 65.7494C77.3894 65.7 77.5338 65.7043 77.6607 65.7613L77.6505 65.7562Z" fill="#263238"/>
<path d="M181.402 128.466C173.319 122.462 165.025 116.751 156.519 111.334C152.279 108.604 148.004 105.943 143.693 103.352C139.382 100.762 135.042 98.2016 130.673 95.6723C121.935 90.6616 113.094 85.8351 104.151 81.193C95.2118 76.5543 86.2006 72.0487 77.0614 67.8195H77.1382C74.0894 67.5269 71.0204 67.508 67.9683 67.7632C64.9147 67.9987 61.8845 68.4746 58.9059 69.1866C57.4213 69.5441 55.9594 69.9904 54.5283 70.5229C53.1017 71.0347 51.7446 71.7227 50.4886 72.5709C49.8764 72.993 49.3369 73.5117 48.8911 74.1069C48.4511 74.67 48.2212 75.3689 48.2409 76.0832C48.3063 76.8024 48.5824 77.4863 49.0345 78.0493C49.491 78.6381 50.019 79.1679 50.6063 79.6263C51.8134 80.549 53.1122 81.3451 54.4822 82.0019C55.839 82.6829 57.2879 83.2359 58.6499 83.9987C60.0537 84.7156 61.3178 85.678 62.3823 86.8403C62.9135 87.4538 63.3126 88.1702 63.5548 88.9447C63.767 89.7356 63.788 90.5657 63.6163 91.3664C63.2059 92.8948 62.4881 94.3233 61.5068 95.5648C60.5903 96.8243 59.5817 97.9917 58.6089 99.1744C57.6172 100.334 56.6973 101.553 55.8543 102.825C55.005 104.075 54.463 105.509 54.2723 107.008C54.1598 108.482 54.6058 109.944 55.5215 111.104C56.4456 112.29 57.5598 113.314 58.8188 114.135C61.302 115.85 64.3996 116.434 67.4153 116.362C70.4613 116.244 73.4787 115.728 76.3907 114.826C79.3162 113.933 82.1881 112.874 84.9923 111.652C90.6243 109.261 96.1027 106.44 101.643 103.752C104.402 102.361 107.24 101.132 110.142 100.07C110.881 99.8123 111.635 99.5986 112.4 99.4304C113.182 99.2448 113.987 99.1673 114.791 99.2C115.217 99.2215 115.636 99.3168 116.03 99.4816C116.448 99.6566 116.812 99.9392 117.084 100.301C117.553 101.015 117.783 101.859 117.74 102.712C117.74 102.762 117.731 102.812 117.713 102.858C117.694 102.904 117.667 102.946 117.632 102.982C117.598 103.017 117.556 103.046 117.511 103.066C117.465 103.085 117.416 103.096 117.366 103.096C117.267 103.095 117.172 103.055 117.101 102.986C117.031 102.916 116.99 102.822 116.987 102.723C117.027 102.031 116.847 101.345 116.475 100.762C116.26 100.508 115.993 100.304 115.691 100.165C115.39 100.025 115.062 99.9527 114.729 99.9527C113.994 99.9242 113.259 99.9948 112.543 100.163C111.807 100.327 111.08 100.532 110.367 100.777C107.493 101.825 104.68 103.037 101.945 104.407C96.415 107.08 90.9366 109.901 85.2483 112.292C82.4102 113.512 79.5041 114.567 76.5443 115.451C73.5737 116.368 70.4962 116.892 67.3897 117.013C65.8229 117.055 64.2571 116.897 62.7305 116.541C61.1919 116.183 59.7323 115.544 58.4246 114.657C57.1071 113.793 55.9411 112.717 54.9737 111.473C54.4961 110.826 54.1246 110.107 53.8729 109.343C53.6323 108.568 53.5454 107.754 53.6169 106.947C53.8326 105.367 54.4167 103.861 55.3219 102.549C56.1769 101.257 57.1123 100.021 58.1225 98.8467C59.1055 97.6589 60.1091 96.4967 61.0051 95.2627C61.9495 94.0925 62.6462 92.7425 63.0531 91.2947C63.2067 90.586 63.1909 89.851 63.007 89.1495C62.7881 88.4517 62.4272 87.8067 61.9471 87.2551C60.926 86.1403 59.7118 85.2193 58.3631 84.5363C57.0422 83.7939 55.6086 83.241 54.2211 82.5395C52.8169 81.8659 51.487 81.0474 50.2531 80.0973C49.6282 79.6081 49.0674 79.0421 48.5839 78.4128C48.0713 77.7662 47.7613 76.9824 47.6931 76.16C47.6677 75.3231 47.9338 74.5033 48.4457 73.8407C48.9307 73.2022 49.515 72.6455 50.1763 72.192C51.4704 71.318 52.8688 70.6094 54.3388 70.0826C55.7893 69.5427 57.2718 69.0929 58.7779 68.736C61.7835 68.0211 64.8412 67.5469 67.9222 67.3178C71.002 67.0626 74.0985 67.0866 77.174 67.3895C77.1994 67.3849 77.2254 67.3849 77.2508 67.3895C86.39 71.6442 95.3961 76.1703 104.331 80.8295C113.265 85.4887 122.102 90.3373 130.832 95.3703C135.204 97.8859 139.542 100.446 143.847 103.05C148.151 105.655 152.426 108.339 156.672 111.104C165.148 116.565 173.435 122.298 181.535 128.302C181.546 128.311 181.556 128.322 181.563 128.334C181.57 128.347 181.575 128.36 181.577 128.375C181.579 128.389 181.578 128.403 181.574 128.417C181.571 128.431 181.564 128.444 181.555 128.456C181.547 128.467 181.536 128.477 181.523 128.484C181.511 128.491 181.497 128.496 181.483 128.498C181.469 128.5 181.454 128.499 181.44 128.495C181.426 128.491 181.413 128.485 181.402 128.476V128.466Z" fill="#263238"/>
<path d="M85.1715 70.3079L84.6083 71.3319C84.5233 71.4818 84.3827 71.5921 84.2169 71.6391C84.0512 71.686 83.8736 71.6658 83.7226 71.5828C83.5727 71.4978 83.4624 71.3571 83.4154 71.1914C83.3685 71.0256 83.3887 70.848 83.4717 70.697L84.04 69.673C84.125 69.5232 84.2657 69.4128 84.4314 69.3659C84.5972 69.3189 84.7748 69.3391 84.9258 69.4221C85.0006 69.4637 85.0663 69.5197 85.1193 69.5869C85.1722 69.6541 85.2112 69.7312 85.2341 69.8136C85.2569 69.896 85.2632 69.9822 85.2525 70.067C85.2417 70.1519 85.2142 70.2338 85.1715 70.3079Z" fill="#263238"/>
<path d="M114.98 85.6013L114.412 86.6253C114.37 86.7001 114.314 86.7658 114.247 86.8188C114.18 86.8717 114.103 86.9107 114.02 86.9336C113.938 86.9565 113.852 86.9627 113.767 86.952C113.682 86.9412 113.6 86.9137 113.526 86.8711C113.451 86.8295 113.386 86.7735 113.333 86.7063C113.28 86.6391 113.241 86.562 113.218 86.4796C113.195 86.3972 113.189 86.311 113.199 86.2262C113.21 86.1413 113.238 86.0594 113.28 85.9853L113.844 84.9613C113.885 84.8865 113.941 84.8208 114.008 84.7678C114.076 84.7149 114.153 84.6759 114.235 84.653C114.317 84.6301 114.404 84.6239 114.488 84.6346C114.573 84.6454 114.655 84.6729 114.729 84.7155C114.879 84.8006 114.99 84.9412 115.036 85.1069C115.083 85.2727 115.063 85.4503 114.98 85.6013Z" fill="#263238"/>
<path d="M146.038 102.999L145.47 104.023C145.385 104.173 145.244 104.283 145.078 104.33C144.912 104.377 144.735 104.357 144.584 104.274C144.434 104.189 144.324 104.048 144.277 103.883C144.23 103.717 144.25 103.539 144.333 103.388L144.901 102.364C144.986 102.214 145.127 102.104 145.293 102.057C145.459 102.01 145.636 102.03 145.787 102.113C145.937 102.198 146.047 102.339 146.094 102.505C146.141 102.67 146.121 102.848 146.038 102.999Z" fill="#263238"/>
<path d="M175.796 122.716L175.227 123.74C175.142 123.89 175.002 124 174.836 124.047C174.67 124.094 174.493 124.074 174.342 123.991C174.192 123.906 174.082 123.765 174.035 123.6C173.988 123.434 174.008 123.256 174.091 123.105L174.659 122.081C174.744 121.931 174.885 121.821 175.051 121.774C175.216 121.727 175.394 121.747 175.545 121.83C175.695 121.915 175.805 122.056 175.852 122.222C175.899 122.388 175.879 122.565 175.796 122.716Z" fill="#263238"/>
<path d="M191.427 128.394L187.121 136.074C187.067 136.173 186.992 136.259 186.903 136.327C186.813 136.394 186.71 136.443 186.6 136.468C186.491 136.494 186.377 136.496 186.267 136.475C186.156 136.454 186.051 136.41 185.959 136.346L174.92 128.666C174.755 128.552 174.639 128.381 174.594 128.185C174.55 127.99 174.58 127.785 174.68 127.611L178.986 119.931C179.04 119.832 179.114 119.747 179.204 119.679C179.294 119.611 179.397 119.562 179.506 119.537C179.616 119.511 179.73 119.509 179.84 119.53C179.951 119.551 180.055 119.595 180.148 119.66L191.187 127.34C191.352 127.453 191.468 127.625 191.513 127.82C191.557 128.015 191.527 128.22 191.427 128.394Z" fill="#263238"/>
<path d="M181.249 136.632C180.334 136.633 179.441 136.354 178.689 135.834L177.926 135.322C177.011 134.691 176.365 133.74 176.116 132.657C175.867 131.574 176.032 130.437 176.579 129.469L177.506 127.821C177.596 127.659 177.719 127.517 177.867 127.405C178.016 127.293 178.185 127.213 178.366 127.171C178.546 127.131 178.733 127.128 178.915 127.164C179.096 127.199 179.268 127.271 179.421 127.375L185.365 131.507C185.636 131.696 185.828 131.978 185.902 132.3C185.976 132.622 185.927 132.96 185.764 133.248L185.135 134.369C184.83 134.912 184.415 135.386 183.917 135.76C183.419 136.133 182.848 136.399 182.242 136.54C181.915 136.608 181.582 136.639 181.249 136.632ZM178.822 129.116L178.177 130.325C177.847 130.904 177.747 131.586 177.897 132.236C178.047 132.886 178.435 133.455 178.986 133.832L179.743 134.344C180.05 134.559 180.399 134.706 180.767 134.777C181.135 134.847 181.514 134.839 181.878 134.753C182.243 134.673 182.586 134.515 182.884 134.29C183.183 134.066 183.43 133.781 183.609 133.453L184.034 132.695L178.822 129.116Z" fill="#263238"/>
<path d="M190.828 125.722L189.727 127.688C189.703 127.731 189.67 127.769 189.63 127.799C189.591 127.828 189.545 127.85 189.497 127.861C189.449 127.872 189.399 127.873 189.35 127.863C189.302 127.854 189.255 127.834 189.215 127.805L181.868 122.685C181.781 122.623 181.72 122.53 181.696 122.425C181.673 122.321 181.688 122.211 181.74 122.117L182.841 120.151C182.865 120.108 182.897 120.07 182.937 120.04C182.977 120.01 183.022 119.989 183.07 119.978C183.119 119.967 183.169 119.966 183.217 119.976C183.266 119.985 183.312 120.005 183.353 120.033L190.7 125.153C190.787 125.216 190.848 125.309 190.871 125.413C190.895 125.518 190.879 125.628 190.828 125.722Z" fill="#263238"/>
<path d="M197.694 68.818L188.375 75.3409C189.118 78.6433 189.143 82.0993 184.576 83.1181C184.955 84.6542 186.168 85.6321 188.365 85.9137C191.248 86.4769 193.444 86.7329 195.845 85.0433C196.787 84.3828 197.924 83.7684 197.417 82.6676C195.692 78.9249 196.746 72.53 197.694 68.818Z" fill="#CE7A63"/>
<path opacity="0.2" d="M193.895 71.4803L188.381 75.3357C188.577 76.1417 188.696 76.9647 188.734 77.7933C190.731 78.1927 193.721 76.3034 194.013 74.3629C194.138 73.4023 194.098 72.4275 193.895 71.4803Z" fill="black"/>
<path d="M200.607 63.1501C199.219 68.9562 198.697 72.4276 195.205 74.8903C189.952 78.6023 183.178 74.578 182.804 68.4596C182.466 62.9505 184.796 54.3847 190.95 53.0996C192.314 52.8162 193.727 52.8837 195.058 53.2956C196.388 53.7076 197.592 54.4505 198.557 55.4549C199.522 56.4593 200.217 57.6922 200.575 59.0381C200.933 60.384 200.944 61.7989 200.607 63.1501Z" fill="#CE7A63"/>
<path d="M183.977 67.5534C183.977 67.5534 186.328 67.3179 192.769 67.9835C191.801 69.627 190.209 70.8865 186.932 70.5179C183.655 70.1492 183.977 67.5534 183.977 67.5534Z" fill="white"/>
<path d="M199.736 52.0807C193.889 48.4967 186.071 50.3808 184.704 54.272C185.534 53.7611 186.512 53.548 187.479 53.6679C186.302 54.2515 184.704 55.68 185.293 57.5386C186.711 55.8746 188.196 55.8285 188.196 55.8285C188.196 55.8285 189.281 57.8765 192.773 58.3322C192.608 57.7232 192.473 57.1063 192.369 56.4839C192.894 57.5079 193.649 58.396 194.576 59.0784C195.503 59.7607 196.575 60.2186 197.709 60.416C196.685 61.5322 196.373 65.5821 198.892 67.1693C202.476 66.9389 205.44 65.7408 205.24 63.5392C205.497 64.08 205.721 64.6357 205.911 65.2032C205.911 65.2032 208.184 62.1722 205.491 58.7162C206.782 57.0778 204.037 54.7226 199.736 52.0807Z" fill="#263238"/>
<path d="M183.808 59.4945C183.808 59.4945 182.574 61.9777 182.784 63.8362C184.161 63.8362 187.448 63.3242 187.448 63.3242C188.629 64.3595 190.014 65.1357 191.513 65.6026C193.705 66.171 200.837 65.6948 200.837 65.6948L201.134 63.6468C201.134 63.6468 191.559 60.5082 187.863 59.858C184.166 59.2078 183.808 59.4945 183.808 59.4945Z" fill="#263238"/>
<path d="M202.379 69.4119C201.918 69.9934 201.348 70.4781 200.699 70.8384C200.051 71.1986 199.337 71.4272 198.6 71.511C196.624 71.721 195.948 69.8675 196.757 68.1728C197.489 66.6368 199.399 64.6963 201.263 65.2749C203.127 65.8534 203.5 67.9629 202.379 69.4119Z" fill="#CE7A63"/>
<path d="M191.575 62.6944C191.488 63.1706 191.171 63.5136 190.858 63.4573C190.546 63.401 190.346 62.9453 190.444 62.4845C190.541 62.0237 190.848 61.6653 191.161 61.7267C191.473 61.7882 191.657 62.2182 191.575 62.6944Z" fill="white"/>
<path d="M185.856 61.5834C185.775 62.0596 185.452 62.4026 185.14 62.3463C184.827 62.29 184.628 61.8343 184.725 61.3735C184.822 60.9127 185.129 60.5543 185.442 60.6158C185.754 60.6772 185.933 61.1073 185.856 61.5834Z" fill="white"/>
<path d="M187.955 61.5834C187.955 61.5834 186.384 64.1434 184.955 65.2493C185.662 66.1965 187.162 66.0992 187.162 66.0992L187.955 61.5834Z" fill="#BA4D3C"/>
<path d="M191.017 58.9057C190.979 58.9381 190.95 58.9783 190.93 59.0235C190.903 59.0941 190.905 59.1724 190.936 59.2415C190.967 59.3105 191.023 59.3646 191.094 59.3921C191.513 59.5665 191.968 59.639 192.421 59.6033C192.874 59.5677 193.312 59.4252 193.7 59.1873C193.73 59.1659 193.756 59.1387 193.776 59.1072C193.795 59.0757 193.809 59.0407 193.815 59.004C193.821 58.9674 193.82 58.9299 193.812 58.8937C193.803 58.8575 193.788 58.8233 193.766 58.7931C193.722 58.7314 193.655 58.6897 193.58 58.6772C193.505 58.6648 193.429 58.6825 193.367 58.7265C193.059 58.9059 192.714 59.0117 192.359 59.0357C192.004 59.0597 191.648 59.0012 191.319 58.8647C191.27 58.8425 191.215 58.8345 191.162 58.8417C191.108 58.849 191.058 58.8712 191.017 58.9057Z" fill="#263238"/>
<path d="M185.764 58.5216C185.754 58.4753 185.733 58.432 185.703 58.3955C185.673 58.359 185.634 58.3302 185.59 58.3117C185.255 58.1892 184.954 57.9889 184.712 57.7271C184.47 57.4654 184.294 57.1498 184.198 56.8064C184.183 56.7327 184.14 56.6678 184.077 56.6257C184.015 56.5836 183.939 56.5676 183.865 56.5811C183.791 56.5972 183.726 56.6414 183.684 56.7045C183.642 56.7675 183.626 56.8445 183.64 56.919C183.752 57.3564 183.968 57.7601 184.27 58.0954C184.573 58.4307 184.952 58.6876 185.375 58.8442C185.41 58.8583 185.448 58.8655 185.485 58.8652C185.523 58.8649 185.56 58.8571 185.595 58.8424C185.63 58.8276 185.661 58.8062 185.688 58.7792C185.714 58.7523 185.735 58.7204 185.749 58.6854C185.769 58.6332 185.774 58.5766 185.764 58.5216Z" fill="#263238"/>
<path d="M210.176 89.3185C210.688 90.3425 211.113 91.2948 211.538 92.2932C211.963 93.2916 212.378 94.2695 212.777 95.2679C213.581 97.2596 214.313 99.2922 214.984 101.366C215.654 103.439 216.264 105.564 216.745 107.802C216.986 108.923 217.201 110.07 217.364 111.278C217.551 112.577 217.63 113.888 217.6 115.2C217.584 116.001 217.502 116.799 217.354 117.586C217.264 118.066 217.142 118.54 216.991 119.004L216.858 119.388L216.694 119.793C216.592 120.034 216.477 120.27 216.351 120.499L216.1 120.95C215.987 121.134 215.874 121.324 215.757 121.503C215.526 121.856 215.281 122.194 215.035 122.527C214.568 123.113 214.054 123.661 213.499 124.165C211.61 125.834 209.471 127.197 207.16 128.205C206.106 128.717 205.046 129.101 203.986 129.475C202.926 129.848 201.866 130.176 200.801 130.463C199.736 130.75 198.671 131 197.601 131.221C196.531 131.441 195.482 131.605 194.319 131.733C193.665 131.808 193.005 131.653 192.453 131.294C191.902 130.934 191.493 130.393 191.299 129.764C191.104 129.134 191.136 128.457 191.388 127.849C191.641 127.241 192.098 126.74 192.681 126.433L192.824 126.362C196.29 124.565 199.895 122.665 202.87 120.55C204.224 119.642 205.45 118.555 206.515 117.32C206.688 117.094 206.846 116.856 206.986 116.608C207.04 116.516 207.086 116.42 207.124 116.321L207.165 116.204L207.263 115.963C207.261 115.978 207.261 115.994 207.263 116.009C207.263 116.009 207.263 115.983 207.263 115.917C207.263 115.85 207.263 115.523 207.232 115.221C207.164 114.472 207.051 113.728 206.894 112.993C206.725 112.164 206.5 111.294 206.244 110.433C205.732 108.662 205.128 106.849 204.447 105.006C203.766 103.163 203.049 101.34 202.317 99.5022L201.103 96.7681L199.972 94.0801L199.921 93.9623C199.443 92.6284 199.485 91.1634 200.039 89.8593C200.594 88.5553 201.619 87.5082 202.911 86.9267C204.203 86.3453 205.667 86.2722 207.011 86.7222C208.355 87.1721 209.479 88.112 210.161 89.3543L210.176 89.3185Z" fill="#263238"/>
<path opacity="0.2" d="M210.176 89.3185C210.688 90.3425 211.113 91.2948 211.538 92.2932C211.963 93.2916 212.378 94.2695 212.777 95.2679C213.581 97.2596 214.313 99.2922 214.984 101.366C215.654 103.439 216.264 105.564 216.745 107.802C216.986 108.923 217.201 110.07 217.364 111.278C217.551 112.577 217.63 113.888 217.6 115.2C217.584 116.001 217.502 116.799 217.354 117.586C217.264 118.066 217.142 118.54 216.991 119.004L216.858 119.388L216.694 119.793C216.592 120.034 216.477 120.27 216.351 120.499L216.1 120.95C215.987 121.134 215.874 121.324 215.757 121.503C215.526 121.856 215.281 122.194 215.035 122.527C214.568 123.113 214.054 123.661 213.499 124.165C211.61 125.834 209.471 127.197 207.16 128.205C206.106 128.717 205.046 129.101 203.986 129.475C202.926 129.848 201.866 130.176 200.801 130.463C199.736 130.75 198.671 131 197.601 131.221C196.531 131.441 195.482 131.605 194.319 131.733C193.665 131.808 193.005 131.653 192.453 131.294C191.902 130.934 191.493 130.393 191.299 129.764C191.104 129.134 191.136 128.457 191.388 127.849C191.641 127.241 192.098 126.74 192.681 126.433L192.824 126.362C196.29 124.565 199.895 122.665 202.87 120.55C204.224 119.642 205.45 118.555 206.515 117.32C206.688 117.094 206.846 116.856 206.986 116.608C207.04 116.516 207.086 116.42 207.124 116.321L207.165 116.204L207.263 115.963C207.261 115.978 207.261 115.994 207.263 116.009C207.263 116.009 207.263 115.983 207.263 115.917C207.263 115.85 207.263 115.523 207.232 115.221C207.164 114.472 207.051 113.728 206.894 112.993C206.725 112.164 206.5 111.294 206.244 110.433C205.732 108.662 205.128 106.849 204.447 105.006C203.766 103.163 203.049 101.34 202.317 99.5022L201.103 96.7681L199.972 94.0801L199.921 93.9623C199.443 92.6284 199.485 91.1634 200.039 89.8593C200.594 88.5553 201.619 87.5082 202.911 86.9267C204.203 86.3453 205.667 86.2722 207.011 86.7222C208.355 87.1721 209.479 88.112 210.161 89.3543L210.176 89.3185Z" fill="white"/>
<path d="M192.64 126.044L188.478 126.116L190.648 133.12C191.931 132.922 193.172 132.518 194.325 131.922C194.994 131.535 195.49 130.907 195.711 130.166C195.932 129.426 195.861 128.629 195.512 127.939L195.425 127.764C195.174 127.242 194.777 126.802 194.284 126.498C193.79 126.193 193.22 126.035 192.64 126.044Z" fill="#CE7A63"/>
<path d="M184.044 130.637L185.222 132.956C185.448 133.403 185.825 133.754 186.287 133.948C186.749 134.141 187.264 134.163 187.741 134.011L190.649 133.094L188.478 126.116L185.017 127.78C184.763 127.901 184.536 128.072 184.349 128.282C184.163 128.492 184.02 128.737 183.929 129.003C183.838 129.27 183.802 129.551 183.822 129.832C183.841 130.112 183.917 130.386 184.044 130.637Z" fill="#CE7A63"/>
<path opacity="0.2" d="M201.467 51.6199C196.89 49.9405 193.224 49.9815 190.838 50.3706C190.65 50.4051 190.478 50.5001 190.35 50.6412C190.221 50.7823 190.141 50.9617 190.124 51.152C190.107 51.3423 190.152 51.5331 190.253 51.6952C190.354 51.8574 190.506 51.9819 190.684 52.0499C194.238 53.3504 197.146 57.2314 196.434 63.1911C195.011 75.0541 188.329 86.0877 188.329 86.0877L196.844 86.1594C196.844 86.1594 203.09 83.0413 206.889 74.9722C210.688 66.9031 209.864 54.7021 201.467 51.6199Z" fill="black"/>
<path d="M188.366 85.9137C188.366 85.9137 198.693 72.4839 199.03 61.8036C199.368 51.1233 187.971 50.4986 187.971 50.4986C187.971 50.4986 191.525 47.7082 200.3 49.362C209.076 51.0157 211.902 62.9146 209.48 71.5009C207.95 76.7852 205.346 81.6969 201.831 85.929L187.495 89.9585L188.366 85.9137Z" fill="#263238"/>
<path opacity="0.4" d="M188.366 85.9137C188.366 85.9137 198.693 72.4839 199.03 61.8036C199.368 51.1233 187.971 50.4986 187.971 50.4986C187.971 50.4986 191.525 47.7082 200.3 49.362C209.076 51.0157 211.902 62.9146 209.48 71.5009C207.95 76.7852 205.346 81.6969 201.831 85.929L187.495 89.9585L188.366 85.9137Z" fill="white"/>
<path d="M170.531 174.991V112.758C170.531 109.803 168.136 107.407 165.181 107.407H64.9568C62.0019 107.407 59.6064 109.803 59.6064 112.758V174.991C59.6064 177.946 62.0019 180.342 64.9568 180.342H165.181C168.136 180.342 170.531 177.946 170.531 174.991Z" fill="#407BFF"/>
<path d="M64.6552 182.349C61.8699 182.349 58.9924 183.096 58.2244 184.023L37.6984 207.002C36.6129 208.323 38.4715 211.415 41.8558 211.415H164.393C167.777 211.415 170.537 210.324 170.537 209.003V184.023C170.537 183.096 168.269 182.349 165.483 182.349H64.6552Z" fill="#407BFF"/>
<path opacity="0.2" d="M64.6552 182.349C61.8699 182.349 58.9924 183.096 58.2244 184.023L37.6984 207.002C36.6129 208.323 38.4715 211.415 41.8558 211.415H164.393C167.777 211.415 170.537 210.324 170.537 209.003V184.023C170.537 183.096 168.269 182.349 165.483 182.349H64.6552Z" fill="black"/>
<path d="M64.6552 180.347C61.8699 180.347 58.9924 181.089 58.2244 182.021L37.6984 207.002C36.6129 208.323 38.4715 209.413 41.8558 209.413H164.393C167.777 209.413 170.537 208.323 170.537 207.002V182.021C170.537 181.089 168.269 180.347 165.483 180.347H64.6552Z" fill="#407BFF"/>
<path opacity="0.2" d="M62.2594 184.131L53.6578 195.159C53.069 195.917 54.2773 196.531 56.3612 196.531H160.466C162.555 196.531 164.27 195.917 164.306 195.159L164.762 184.131C164.787 183.485 163.272 182.968 161.372 182.968H66.6063C64.7068 182.968 62.7612 183.485 62.2594 184.131Z" fill="black"/>
<path opacity="0.2" d="M87.0397 199.532L83.3482 206.336C83.1536 206.7 83.7527 207.002 84.6896 207.002H123.525C124.462 207.002 125.307 206.7 125.409 206.336L127.324 199.511C127.416 199.178 126.771 198.907 125.88 198.907H88.9853C88.0944 198.927 87.224 199.199 87.0397 199.532Z" fill="black"/>
<path opacity="0.7" d="M165.263 108.851H64.8705C62.7582 108.851 61.0459 110.564 61.0459 112.676V175.078C61.0459 177.191 62.7582 178.903 64.8705 178.903H165.263C167.376 178.903 169.088 177.191 169.088 175.078V112.676C169.088 110.564 167.376 108.851 165.263 108.851Z" fill="white"/>
<path d="M143.267 134.932H86.8652V168.509H143.267V134.932Z" fill="#407BFF"/>
<path opacity="0.1" d="M143.267 134.932H86.8652V168.509H143.267V134.932Z" fill="black"/>
<path opacity="0.1" d="M115.066 153.247L143.267 134.932H86.8652L115.066 153.247Z" fill="#263238"/>
<path d="M118.589 118.907L143.267 134.932H86.8652L111.544 118.907C112.592 118.225 113.816 117.862 115.066 117.862C116.317 117.862 117.54 118.225 118.589 118.907Z" fill="#407BFF"/>
<path opacity="0.2" d="M88.96 134.933L112.41 119.706C113.201 119.192 114.124 118.919 115.067 118.919C116.01 118.919 116.933 119.192 117.724 119.706L141.174 134.933H88.96Z" fill="#263238"/>
<path d="M117.371 122.475C117.271 122.475 117.174 122.436 117.103 122.364C117.032 122.293 116.992 122.197 116.992 122.097V105.062C116.992 104.962 117.032 104.865 117.103 104.794C117.174 104.723 117.271 104.683 117.371 104.683C117.472 104.683 117.568 104.723 117.639 104.794C117.71 104.865 117.75 104.962 117.75 105.062V122.097C117.75 122.197 117.71 122.293 117.639 122.364C117.568 122.436 117.472 122.475 117.371 122.475Z" fill="#263238"/>
<path d="M117.371 105.441C117.068 105.441 116.772 105.352 116.52 105.184C116.268 105.016 116.071 104.778 115.954 104.499C115.837 104.22 115.805 103.912 115.863 103.615C115.92 103.318 116.064 103.044 116.276 102.828C116.488 102.612 116.759 102.464 117.056 102.402C117.352 102.34 117.66 102.367 117.941 102.479C118.222 102.591 118.464 102.784 118.636 103.033C118.807 103.283 118.902 103.577 118.907 103.88C118.91 104.084 118.873 104.286 118.797 104.475C118.722 104.665 118.609 104.837 118.466 104.982C118.323 105.128 118.153 105.243 117.965 105.322C117.776 105.401 117.575 105.441 117.371 105.441ZM117.371 103.076C117.212 103.076 117.056 103.123 116.924 103.211C116.792 103.3 116.689 103.425 116.628 103.572C116.567 103.719 116.551 103.881 116.582 104.036C116.613 104.192 116.69 104.336 116.802 104.448C116.915 104.56 117.058 104.637 117.214 104.668C117.37 104.699 117.531 104.683 117.678 104.622C117.825 104.561 117.951 104.458 118.039 104.326C118.127 104.194 118.175 104.039 118.175 103.88C118.175 103.666 118.09 103.462 117.939 103.311C117.788 103.161 117.584 103.076 117.371 103.076Z" fill="#263238"/>
<path d="M100.572 118.077L93.0404 120.34L91.873 138.184L115.067 153.247L138.26 138.184L139.448 121.462L100.572 118.077Z" fill="white"/>
<path opacity="0.6" d="M124.457 137.866C124.337 139.496 123.736 141.053 122.73 142.341C121.725 143.629 120.359 144.59 118.808 145.102C117.256 145.614 115.587 145.654 114.012 145.217C112.438 144.78 111.028 143.886 109.962 142.648C108.896 141.409 108.221 139.883 108.023 138.261C107.825 136.639 108.112 134.994 108.849 133.536C109.586 132.077 110.738 130.87 112.161 130.067C113.585 129.264 115.214 128.901 116.843 129.024C117.925 129.101 118.981 129.391 119.95 129.878C120.919 130.365 121.782 131.039 122.49 131.861C123.198 132.683 123.736 133.636 124.073 134.667C124.411 135.698 124.541 136.785 124.457 137.866Z" fill="#407BFF"/>
<path d="M122.368 141.312C121.652 142.424 120.65 143.321 119.466 143.91C118.283 144.5 116.962 144.758 115.644 144.659C114.326 144.56 113.059 144.107 111.976 143.347C110.894 142.588 110.037 141.55 109.496 140.344C111.498 139.217 113.788 138.708 116.078 138.88C118.369 139.052 120.557 139.898 122.368 141.312Z" fill="white"/>
<path d="M119.619 135.455C119.956 133.68 118.79 131.968 117.015 131.631C115.24 131.295 113.527 132.461 113.191 134.236C112.854 136.011 114.02 137.723 115.795 138.06C117.571 138.397 119.283 137.231 119.619 135.455Z" fill="white"/>
<path d="M113.663 126.177C112.727 126.173 111.821 125.848 111.095 125.256C110.369 124.665 109.868 123.842 109.675 122.926L109.276 123.325C109.204 123.363 109.122 123.377 109.042 123.365C108.962 123.353 108.888 123.316 108.831 123.258C108.773 123.201 108.736 123.127 108.724 123.047C108.712 122.967 108.726 122.885 108.764 122.813L109.721 121.851C109.774 121.799 109.841 121.763 109.914 121.749C109.987 121.734 110.063 121.742 110.132 121.77C110.201 121.799 110.26 121.847 110.301 121.908C110.343 121.97 110.366 122.043 110.366 122.117C110.366 122.994 110.713 123.835 111.33 124.458C111.948 125.08 112.787 125.433 113.663 125.44C113.764 125.44 113.86 125.48 113.931 125.551C114.002 125.622 114.042 125.718 114.042 125.819C114.042 125.919 114.002 126.016 113.931 126.087C113.86 126.158 113.764 126.198 113.663 126.198V126.177Z" fill="#263238"/>
<path d="M100.572 118.077L99.2608 122.097L93.04 120.34" fill="#E0E0E0"/>
<path d="M100.572 118.077L99.9367 121.38L93.04 120.34" fill="#F0F0F0"/>
<path d="M110.259 150.118L86.8652 168.509H143.267L119.874 150.118C118.503 149.041 116.81 148.456 115.066 148.456C113.323 148.456 111.63 149.041 110.259 150.118Z" fill="#407BFF"/>
</svg>
