<svg width="111" height="110" viewBox="0 0 111 110" fill="none" xmlns="http://www.w3.org/2000/svg">
<g clip-path="url(#clip0_85_1256)">
<path d="M99.2384 87.2837H91.9844V87.3384H99.2384V87.2837Z" fill="#EBEBEB"/>
<path d="M73.2451 87.8794H71.3418V87.9342H73.2451V87.8794Z" fill="#EBEBEB"/>
<path d="M91.7655 85.2512H87.5625V85.306H91.7655V85.2512Z" fill="#EBEBEB"/>
<path d="M21.65 85.6191H12.1904V85.6739H21.65V85.6191Z" fill="#EBEBEB"/>
<path d="M24.988 85.6191H23.6016V85.6739H24.988V85.6191Z" fill="#EBEBEB"/>
<path d="M50.0131 86.5435H29.4951V86.5982H50.0131V86.5435Z" fill="#EBEBEB"/>
<path d="M52.6088 73.991H10.32C9.98827 73.991 9.67017 73.8592 9.43563 73.6247C9.2011 73.3902 9.06934 73.0721 9.06934 72.7404V13.2912C9.07222 12.9614 9.20526 12.6461 9.43948 12.4139C9.67371 12.1818 9.99016 12.0515 10.32 12.0515H52.6088C52.9405 12.0515 53.2585 12.1833 53.4931 12.4178C53.7276 12.6523 53.8594 12.9704 53.8594 13.3021V72.7404C53.8594 73.0721 53.7276 73.3902 53.4931 73.6247C53.2585 73.8592 52.9405 73.991 52.6088 73.991ZM10.32 12.0953C10.003 12.0959 9.69913 12.2221 9.47499 12.4462C9.25085 12.6704 9.12467 12.9742 9.12409 13.2912V72.7404C9.12467 73.0574 9.25085 73.3612 9.47499 73.5853C9.69913 73.8095 10.003 73.9357 10.32 73.9362H52.6088C52.9258 73.9357 53.2296 73.8095 53.4537 73.5853C53.6779 73.3612 53.804 73.0574 53.8046 72.7404V13.2912C53.804 12.9742 53.6779 12.6704 53.4537 12.4462C53.2296 12.2221 52.9258 12.0959 52.6088 12.0953H10.32Z" fill="#EBEBEB"/>
<path d="M99.9852 73.991H57.692C57.3605 73.9904 57.0428 73.8585 56.8083 73.6241C56.5739 73.3896 56.442 73.0719 56.4414 72.7404V13.2912C56.4449 12.9616 56.5781 12.6466 56.8122 12.4146C57.0463 12.1825 57.3624 12.0521 57.692 12.0515H99.9852C100.314 12.0527 100.63 12.1834 100.863 12.4155C101.096 12.6475 101.229 12.9622 101.231 13.2912V72.7404C101.231 73.0713 101.1 73.3887 100.867 73.6231C100.633 73.8576 100.316 73.9898 99.9852 73.991ZM57.692 12.0953C57.375 12.0959 57.0712 12.2221 56.8471 12.4462C56.6229 12.6704 56.4967 12.9742 56.4962 13.2912V72.7404C56.4967 73.0574 56.6229 73.3612 56.8471 73.5853C57.0712 73.8095 57.375 73.9357 57.692 73.9362H99.9852C100.302 73.9357 100.606 73.8095 100.83 73.5853C101.054 73.3612 101.181 73.0574 101.181 72.7404V13.2912C101.181 12.9742 101.054 12.6704 100.83 12.4462C100.606 12.2221 100.302 12.0959 99.9852 12.0953H57.692Z" fill="#EBEBEB"/>
<path d="M110.211 83.76H0.700195V83.8148H110.211V83.76Z" fill="#EBEBEB"/>
<path d="M49.1047 62.1179H50.57V83.3981C50.57 83.4672 50.5425 83.5335 50.4936 83.5824C50.4448 83.6313 50.3785 83.6588 50.3094 83.6588H49.3632C49.294 83.6588 49.2278 83.6313 49.1789 83.5824C49.13 83.5335 49.1025 83.4672 49.1025 83.3981V62.1179H49.1047Z" fill="#F0F0F0"/>
<path d="M94.4484 60.2039H81.7539V62.1181H94.4484V60.2039Z" fill="#E6E6E6"/>
<path d="M58.1826 62.1179H59.6479V83.3981C59.6479 83.4672 59.6204 83.5335 59.5715 83.5824C59.5227 83.6313 59.4564 83.6588 59.3872 83.6588H58.4433C58.3741 83.6588 58.3078 83.6313 58.259 83.5824C58.2101 83.5335 58.1826 83.4672 58.1826 83.3981V62.1179Z" fill="#E6E6E6"/>
<path d="M92.1357 62.1179H93.601V83.3981C93.601 83.4672 93.5735 83.5335 93.5247 83.5824C93.4758 83.6313 93.4095 83.6588 93.3404 83.6588H92.3964C92.3273 83.6588 92.261 83.6313 92.2121 83.5824C92.1632 83.5335 92.1357 83.4672 92.1357 83.3981V62.1179Z" fill="#E6E6E6"/>
<path d="M85.3738 60.2039H48.2627V62.1181H85.3738V60.2039Z" fill="#F5F5F5"/>
<path d="M83.053 62.1179H84.5182V83.3981C84.5182 83.4672 84.4908 83.5335 84.4419 83.5824C84.393 83.6313 84.3267 83.6588 84.2576 83.6588H83.3114C83.2423 83.6588 83.176 83.6313 83.1271 83.5824C83.0782 83.5335 83.0508 83.4672 83.0508 83.3981V62.1179H83.053Z" fill="#F0F0F0"/>
<path d="M91.6974 60.2036H88.3311V59.9036C88.3312 59.7646 88.3595 59.6271 88.4144 59.4995C88.4693 59.3718 88.5496 59.2566 88.6504 59.161C88.7512 59.0653 88.8704 58.9911 89.0007 58.943C89.1311 58.8948 89.2699 58.8736 89.4086 58.8807L90.7228 58.953C90.9844 58.9671 91.2308 59.081 91.4109 59.2713C91.591 59.4616 91.6912 59.7138 91.6909 59.9759L91.6974 60.2036Z" fill="#F0F0F0"/>
<path d="M82.6145 53.2431C82.6083 53.1155 82.5532 52.9951 82.4606 52.907C82.368 52.8189 82.2451 52.7699 82.1173 52.77H78.7071C78.5793 52.7699 78.4564 52.8189 78.3638 52.907C78.2713 52.9951 78.2162 53.1155 78.21 53.2431L79.0181 60.335H84.0973L82.6145 53.2431Z" fill="#E0E0E0"/>
<path d="M91.849 42.3406H90.5809L89.1572 55.7339H90.4232C90.5275 55.7311 90.6274 55.6912 90.7049 55.6213C90.7824 55.5514 90.8324 55.4562 90.8459 55.3528L92.1885 42.7152C92.1941 42.6676 92.1895 42.6194 92.1749 42.5737C92.1604 42.5281 92.1362 42.4861 92.104 42.4506C92.0718 42.4151 92.0324 42.387 91.9884 42.368C91.9445 42.349 91.8969 42.3397 91.849 42.3406Z" fill="#E0E0E0"/>
<path d="M89.888 55.7334H70.8856C70.8371 55.7345 70.7889 55.725 70.7444 55.7056C70.6999 55.6863 70.6601 55.6575 70.6279 55.6212C70.5956 55.585 70.5715 55.5422 70.5574 55.4957C70.5433 55.4493 70.5395 55.4003 70.5462 55.3523L71.8822 42.7147C71.8957 42.6116 71.9453 42.5166 72.0224 42.4468C72.0994 42.377 72.1988 42.3369 72.3027 42.3336H91.3051C91.3536 42.3325 91.4018 42.3419 91.4463 42.3613C91.4908 42.3807 91.5306 42.4095 91.5629 42.4457C91.5952 42.4819 91.6192 42.5248 91.6333 42.5712C91.6474 42.6177 91.6512 42.6666 91.6446 42.7147L90.302 55.3457C90.2901 55.4489 90.242 55.5445 90.1662 55.6156C90.0904 55.6866 89.9918 55.7283 89.888 55.7334Z" fill="#EBEBEB"/>
<path d="M89.5339 54.4959H71.6135C71.5714 54.4966 71.5297 54.4882 71.4912 54.4713C71.4526 54.4544 71.4182 54.4295 71.3901 54.3981C71.3621 54.3667 71.3411 54.3297 71.3286 54.2895C71.3162 54.2493 71.3125 54.2069 71.3178 54.1652L72.4896 43.1528C72.5006 43.0623 72.5439 42.9789 72.6115 42.9177C72.6791 42.8566 72.7664 42.8218 72.8575 42.8199H90.7757C90.8181 42.8192 90.8601 42.8277 90.8989 42.8447C90.9377 42.8616 90.9724 42.8868 91.0006 42.9183C91.0289 42.9499 91.05 42.9872 91.0626 43.0276C91.0752 43.0681 91.0789 43.1108 91.0736 43.1528L89.8997 54.174C89.8863 54.2621 89.8423 54.3427 89.7754 54.4015C89.7085 54.4604 89.623 54.4939 89.5339 54.4959Z" fill="#FAFAFA"/>
<path d="M84.2881 59.7832H78.0416C78.0053 59.7829 77.9693 59.7899 77.9357 59.8036C77.902 59.8174 77.8715 59.8377 77.8458 59.8634C77.8201 59.8891 77.7998 59.9196 77.786 59.9532C77.7723 59.9868 77.7653 60.0229 77.7656 60.0592C77.7656 60.1324 77.7947 60.2026 77.8465 60.2543C77.8982 60.3061 77.9684 60.3352 78.0416 60.3352H84.2881C84.3611 60.3346 84.431 60.3053 84.4826 60.2537C84.5343 60.2021 84.5635 60.1322 84.5641 60.0592C84.5641 59.986 84.535 59.9158 84.4833 59.864C84.4315 59.8123 84.3613 59.7832 84.2881 59.7832Z" fill="#E0E0E0"/>
<path d="M82.4039 59.4153H71.8076V60.2038H82.4039V59.4153Z" fill="#EBEBEB"/>
<path d="M66.9127 62.9873H51.3184V83.7397H66.9127V62.9873Z" fill="#F5F5F5"/>
<path d="M69.8894 62.9873H66.915V83.7397H69.8894V62.9873Z" fill="#E6E6E6"/>
<path d="M65.9029 64.5273H52.4111V69.567H65.9029V64.5273Z" fill="#FAFAFA"/>
<path d="M65.9029 70.1172H52.4111V75.1569H65.9029V70.1172Z" fill="#FAFAFA"/>
<path d="M65.9029 75.7083H52.4111V80.7479H65.9029V75.7083Z" fill="#FAFAFA"/>
<path d="M59.7205 67.0482C59.7205 67.1596 59.6875 67.2684 59.6256 67.361C59.5638 67.4535 59.4759 67.5257 59.373 67.5683C59.2702 67.6109 59.157 67.622 59.0478 67.6003C58.9386 67.5786 58.8383 67.525 58.7596 67.4463C58.6809 67.3675 58.6273 67.2672 58.6055 67.1581C58.5838 67.0489 58.595 66.9357 58.6376 66.8328C58.6802 66.73 58.7523 66.6421 58.8449 66.5802C58.9375 66.5184 59.0463 66.4854 59.1576 66.4854C59.3069 66.4854 59.4501 66.5447 59.5556 66.6502C59.6612 66.7558 59.7205 66.899 59.7205 67.0482Z" fill="#EBEBEB"/>
<path d="M59.7205 72.6376C59.7205 72.7489 59.6875 72.8578 59.6256 72.9503C59.5638 73.0429 59.4759 73.115 59.373 73.1576C59.2702 73.2002 59.157 73.2114 59.0478 73.1897C58.9386 73.168 58.8383 73.1143 58.7596 73.0356C58.6809 72.9569 58.6273 72.8566 58.6055 72.7474C58.5838 72.6382 58.595 72.525 58.6376 72.4222C58.6802 72.3193 58.7523 72.2314 58.8449 72.1696C58.9375 72.1077 59.0463 72.0747 59.1576 72.0747C59.2316 72.0744 59.3049 72.0888 59.3734 72.117C59.4418 72.1452 59.504 72.1866 59.5563 72.2389C59.6086 72.2913 59.6501 72.3534 59.6782 72.4219C59.7064 72.4903 59.7208 72.5636 59.7205 72.6376Z" fill="#EBEBEB"/>
<path d="M59.7205 78.227C59.7205 78.3383 59.6875 78.4471 59.6256 78.5397C59.5638 78.6322 59.4759 78.7044 59.373 78.747C59.2702 78.7896 59.157 78.8007 59.0478 78.779C58.9386 78.7573 58.8383 78.7037 58.7596 78.625C58.6809 78.5463 58.6273 78.446 58.6055 78.3368C58.5838 78.2276 58.595 78.1144 58.6376 78.0115C58.6802 77.9087 58.7523 77.8208 58.8449 77.7589C58.9375 77.6971 59.0463 77.6641 59.1576 77.6641C59.3069 77.6641 59.4501 77.7234 59.5556 77.8289C59.6612 77.9345 59.7205 78.0777 59.7205 78.227Z" fill="#EBEBEB"/>
<path d="M41.2697 29.304H19.8516V83.2666H41.2697V29.304Z" fill="#E0E0E0"/>
<path d="M41.2695 28.8311V83.7399H45.2119V28.8311H41.2695Z" fill="#E0E0E0"/>
<path d="M16.0957 28.8311V83.7399H20.0381V28.8311H16.0957Z" fill="#E6E6E6"/>
<path d="M15.4248 28.8311V83.7399H41.7425V28.8311H15.4248ZM40.7963 29.7772V39.6332H16.371V29.7772H40.7963ZM16.371 61.2091V51.3531H40.7963V61.2091H16.371ZM40.7963 62.1553V72.0003H16.371V62.1553H40.7963ZM16.371 50.4157V40.5706H40.7963V50.4157H16.371ZM16.371 82.7938V72.9399H40.7963V82.7959L16.371 82.7938Z" fill="#F0F0F0"/>
<path d="M32.2617 61.2988H33.1729V53.6593H32.2617V61.2988Z" fill="#E6E6E6"/>
<path d="M33.1748 61.2988H34.0859V53.6593H33.1748V61.2988Z" fill="#E0E0E0"/>
<path d="M30.4416 61.2988H32.2617V54.1959H30.4416V61.2988Z" fill="#E6E6E6"/>
<path d="M28.3561 61.2988H29.5322V53.6593H28.3561V61.2988Z" fill="#F0F0F0"/>
<path d="M29.5303 61.2988H30.4414V53.6593H29.5303V61.2988Z" fill="#EBEBEB"/>
<path d="M21.4528 61.2988H22.6289V53.6593H21.4528V61.2988Z" fill="#E6E6E6"/>
<path d="M22.627 61.2988H23.5381V53.6593H22.627V61.2988Z" fill="#EBEBEB"/>
<path d="M25.36 61.2988H26.5361V53.6593H25.36V61.2988Z" fill="#E6E6E6"/>
<path d="M26.5361 61.2988H27.4473V53.6593H26.5361V61.2988Z" fill="#E0E0E0"/>
<path d="M19.6301 61.2988H21.4502V53.8411H19.6301V61.2988Z" fill="#EBEBEB"/>
<path d="M18.7197 61.2988H19.6309V53.8411H18.7197V61.2988Z" fill="#E0E0E0"/>
<path d="M24.144 61.2988H25.3574V53.8411H24.144V61.2988Z" fill="#E0E0E0"/>
<path d="M23.5378 61.2988H24.1445V53.8411H23.5378V61.2988Z" fill="#F0F0F0"/>
<path d="M26.5364 61.2988H28.3564V54.1959H26.5364V61.2988Z" fill="#F5F5F5"/>
<path d="M36.8151 61.2988H37.9912V53.6593H36.8151V61.2988Z" fill="#EBEBEB"/>
<path d="M37.9912 61.2988H38.9023V53.6593H37.9912V61.2988Z" fill="#E6E6E6"/>
<path d="M34.9944 61.2988H36.8145V53.8411H34.9944V61.2988Z" fill="#E0E0E0"/>
<path d="M34.084 61.2988H34.9951V53.8411H34.084V61.2988Z" fill="#EBEBEB"/>
<path d="M39.5093 61.2988H40.7227V53.8411H39.5093V61.2988Z" fill="#EBEBEB"/>
<path d="M38.9021 61.2988H39.5088V53.8411H38.9021V61.2988Z" fill="#FAFAFA"/>
<path d="M27.1807 64.5471H26.2695V72.1866H27.1807V64.5471Z" fill="#E6E6E6"/>
<path d="M26.2686 64.5471H25.3574V72.1866H26.2686V64.5471Z" fill="#E0E0E0"/>
<path d="M28.9998 64.5471H27.1797V71.65H28.9998V64.5471Z" fill="#E6E6E6"/>
<path d="M31.0853 64.5471H29.9092V72.1866H31.0853V64.5471Z" fill="#F0F0F0"/>
<path d="M29.9111 64.5471H29V72.1866H29.9111V64.5471Z" fill="#EBEBEB"/>
<path d="M37.9906 64.5471H36.8145V72.1866H37.9906V64.5471Z" fill="#E6E6E6"/>
<path d="M36.8145 64.5471H35.9033V72.1866H36.8145V64.5471Z" fill="#EBEBEB"/>
<path d="M34.0834 64.5471H32.9072V72.1866H34.0834V64.5471Z" fill="#E6E6E6"/>
<path d="M32.9072 64.5471H31.9961V72.1866H32.9072V64.5471Z" fill="#E0E0E0"/>
<path d="M39.8113 64.5471H37.9912V72.0048H39.8113V64.5471Z" fill="#EBEBEB"/>
<path d="M40.7217 64.5471H39.8105V72.0048H40.7217V64.5471Z" fill="#E0E0E0"/>
<path d="M35.2974 64.5471H34.084V72.0048H35.2974V64.5471Z" fill="#E0E0E0"/>
<path d="M35.9036 64.5471H35.2969V72.0048H35.9036V64.5471Z" fill="#F0F0F0"/>
<path d="M32.908 64.5471H31.0879V71.65H32.908V64.5471Z" fill="#F5F5F5"/>
<path d="M22.6263 64.5471H21.4502V72.1866H22.6263V64.5471Z" fill="#EBEBEB"/>
<path d="M21.4521 64.5471H20.541V72.1866H21.4521V64.5471Z" fill="#E6E6E6"/>
<path d="M24.447 64.5471H22.627V72.0048H24.447V64.5471Z" fill="#E0E0E0"/>
<path d="M25.3604 64.5471H24.4492V72.0048H25.3604V64.5471Z" fill="#EBEBEB"/>
<path d="M19.9331 64.5471H18.7197V72.0048H19.9331V64.5471Z" fill="#EBEBEB"/>
<path d="M20.5393 64.5471H19.9326V72.0048H20.5393V64.5471Z" fill="#FAFAFA"/>
<path d="M32.2617 83.074H33.1729V75.4345H32.2617V83.074Z" fill="#E6E6E6"/>
<path d="M33.1748 83.074H34.0859V75.4345H33.1748V83.074Z" fill="#E0E0E0"/>
<path d="M30.4416 83.074H32.2617V75.9711H30.4416V83.074Z" fill="#E6E6E6"/>
<path d="M28.3561 83.074H29.5322V75.4345H28.3561V83.074Z" fill="#F0F0F0"/>
<path d="M29.5303 83.074H30.4414V75.4345H29.5303V83.074Z" fill="#EBEBEB"/>
<path d="M21.4528 83.074H22.6289V75.4345H21.4528V83.074Z" fill="#E6E6E6"/>
<path d="M22.627 83.074H23.5381V75.4345H22.627V83.074Z" fill="#EBEBEB"/>
<path d="M25.36 83.074H26.5361V75.4345H25.36V83.074Z" fill="#E6E6E6"/>
<path d="M26.5361 83.074H27.4473V75.4345H26.5361V83.074Z" fill="#E0E0E0"/>
<path d="M19.6301 83.0718H21.4502V75.6141H19.6301V83.0718Z" fill="#EBEBEB"/>
<path d="M18.7197 83.0718H19.6309V75.6141H18.7197V83.0718Z" fill="#E0E0E0"/>
<path d="M24.144 83.0718H25.3574V75.6141H24.144V83.0718Z" fill="#E0E0E0"/>
<path d="M23.5378 83.0718H24.1445V75.6141H23.5378V83.0718Z" fill="#F0F0F0"/>
<path d="M26.5364 83.074H28.3564V75.9711H26.5364V83.074Z" fill="#F5F5F5"/>
<path d="M36.8151 83.074H37.9912V75.4345H36.8151V83.074Z" fill="#EBEBEB"/>
<path d="M37.9912 83.074H38.9023V75.4345H37.9912V83.074Z" fill="#E6E6E6"/>
<path d="M34.9944 83.0718H36.8145V75.6141H34.9944V83.0718Z" fill="#E0E0E0"/>
<path d="M34.084 83.0718H34.9951V75.6141H34.084V83.0718Z" fill="#EBEBEB"/>
<path d="M39.5093 83.0718H40.7227V75.6141H39.5093V83.0718Z" fill="#EBEBEB"/>
<path d="M38.9021 83.0718H39.5088V75.6141H38.9021V83.0718Z" fill="#FAFAFA"/>
<path d="M27.1278 39.7426L26.7139 35.0227H32.7019L33.1137 39.7426H27.1278Z" fill="#F0F0F0"/>
<path d="M27.1275 39.7426L26.7136 35.0227H26.3916L26.8056 39.7426H27.1275Z" fill="#E0E0E0"/>
<path d="M27.6947 39.2628L27.3662 35.5044H32.1321L32.4607 39.2628H27.6947Z" fill="#FAFAFA"/>
<path d="M28.0609 38.9521L27.7871 35.8135H31.7667L32.0427 38.9521H28.0609Z" fill="#EBEBEB"/>
<path d="M20.3768 39.7426H26.3911L25.7231 32.1162H19.7109L20.3768 39.7426Z" fill="#EBEBEB"/>
<path d="M20.3776 39.7426H20.0906L19.4248 32.1162H19.7117L20.3776 39.7426Z" fill="#E0E0E0"/>
<path d="M20.9226 38.9651H25.7104L25.1804 32.8938H20.3926L20.9226 38.9651Z" fill="#E0E0E0"/>
<path d="M21.2735 38.4659H25.2728L24.8304 33.3933H20.8311L21.2735 38.4659Z" fill="#FAFAFA"/>
<path d="M22.6403 34.3609L21.9759 35.0253C21.7039 35.2973 21.7039 35.7383 21.9759 36.0103L22.6403 36.6747C22.9123 36.9467 23.3533 36.9467 23.6253 36.6747L24.2897 36.0103C24.5617 35.7383 24.5617 35.2973 24.2897 35.0253L23.6253 34.3609C23.3533 34.0889 22.9123 34.0889 22.6403 34.3609Z" fill="#EBEBEB"/>
<path d="M23.0407 36.0164L22.5745 36.4826C22.3025 36.7546 22.3025 37.1956 22.5745 37.4676L23.0407 37.9338C23.3127 38.2058 23.7537 38.2058 24.0257 37.9338L24.4918 37.4676C24.7638 37.1956 24.7638 36.7546 24.4918 36.4826L24.0257 36.0164C23.7537 35.7444 23.3127 35.7444 23.0407 36.0164Z" fill="#E6E6E6"/>
<path d="M34.2461 39.7427L37.1919 36.7969L40.1378 39.7427H34.2461Z" fill="#F5F5F5"/>
<path d="M37.1919 36.7969L34.2461 39.7427H37.1919V36.7969Z" fill="#E6E6E6"/>
<path d="M25.3953 47.2826C26.4867 46.1912 26.4867 44.4216 25.3953 43.3302C24.3039 42.2388 22.5344 42.2388 21.443 43.3302C20.3516 44.4216 20.3516 46.1912 21.443 47.2826C22.5344 48.374 24.3039 48.374 25.3953 47.2826Z" fill="#F0F0F0"/>
<path d="M23.6145 50.2449H23.2246V48.3942H23.4195C24.2386 48.3942 25.0241 48.0688 25.6032 47.4897C26.1824 46.9105 26.5078 46.125 26.5078 45.306C26.5078 44.4869 26.1824 43.7014 25.6032 43.1223C25.0241 42.5431 24.2386 42.2178 23.4195 42.2178V41.8389C24.322 41.8435 25.1873 42.1988 25.8326 42.8296C26.478 43.4604 26.8529 44.3173 26.8782 45.2194C26.9035 46.1215 26.5772 46.9981 25.9682 47.664C25.3592 48.33 24.5152 48.7332 23.6145 48.7884V50.2449Z" fill="#EBEBEB"/>
<path d="M25.0621 50.2889H21.7373C21.7373 50.0912 21.8157 49.9015 21.9553 49.7615C22.0949 49.6215 22.2843 49.5426 22.482 49.542H24.3152C24.5133 49.542 24.7032 49.6207 24.8433 49.7607C24.9834 49.9008 25.0621 50.0908 25.0621 50.2889Z" fill="#EBEBEB"/>
<path d="M30.6494 50.1613V48.2251C30.6 48.2251 30.5527 48.2055 30.5178 48.1706C30.4829 48.1357 30.4632 48.0883 30.4632 48.039C30.4632 47.9896 30.4829 47.9422 30.5178 47.9073C30.5527 47.8724 30.6 47.8528 30.6494 47.8528C31.3853 47.8528 32.1256 47.8528 32.8637 47.8528V50.5402H30.6494C30.5992 50.5402 30.551 50.5202 30.5155 50.4847C30.4799 50.4492 30.46 50.401 30.46 50.3507C30.46 50.3005 30.4799 50.2523 30.5155 50.2168C30.551 50.1812 30.5992 50.1613 30.6494 50.1613Z" fill="#EBEBEB"/>
<path d="M32.3709 48.2253H30.6494V50.1593H32.3709V48.2253Z" fill="#F5F5F5"/>
<path d="M32.0078 50.3456H37.974C38.3835 50.3456 38.7165 49.8309 38.7165 49.1936C38.7165 48.5562 38.3835 48.0393 37.974 48.0393H32.0078V50.3456Z" fill="#FAFAFA"/>
<path d="M32.0075 47.8532C33.9611 47.8532 35.917 47.8182 37.8685 47.8532C39.2067 47.8773 39.279 50.4421 37.9671 50.5319C37.0515 50.5954 36.1119 50.5319 35.1964 50.5319H32.0075C31.9618 50.5269 31.9197 50.5053 31.889 50.4711C31.8584 50.4369 31.8415 50.3927 31.8415 50.3468C31.8415 50.3009 31.8584 50.2566 31.889 50.2225C31.9197 50.1883 31.9618 50.1667 32.0075 50.1617H37.5597C37.9977 50.1617 38.2956 50.1617 38.4599 49.6514C38.6044 49.2133 38.5584 48.3219 37.9736 48.2256C37.9066 48.2201 37.8392 48.2201 37.7721 48.2256H32.0075C31.9581 48.2256 31.9107 48.2059 31.8758 48.171C31.8409 48.1361 31.8213 48.0888 31.8213 48.0394C31.8213 47.99 31.8409 47.9427 31.8758 47.9077C31.9107 47.8728 31.9581 47.8532 32.0075 47.8532Z" fill="#EBEBEB"/>
<path d="M30.6494 47.5004V45.562C30.6038 45.5571 30.5616 45.5354 30.531 45.5013C30.5004 45.4671 30.4834 45.4229 30.4834 45.377C30.4834 45.3311 30.5004 45.2868 30.531 45.2527C30.5616 45.2185 30.6038 45.1969 30.6494 45.1919C31.3853 45.1919 32.1256 45.1919 32.8637 45.1919V47.8793H30.6494C30.5992 47.8793 30.551 47.8593 30.5155 47.8238C30.4799 47.7883 30.46 47.7401 30.46 47.6898C30.46 47.6396 30.4799 47.5914 30.5155 47.5559C30.551 47.5203 30.5992 47.5004 30.6494 47.5004Z" fill="#EBEBEB"/>
<path d="M32.3709 45.5645H30.6494V47.4984H32.3709V45.5645Z" fill="#F5F5F5"/>
<path d="M32.0078 47.6867H37.974C38.3835 47.6867 38.7165 47.1698 38.7165 46.5324C38.7165 45.8951 38.3835 45.3782 37.974 45.3782H32.0078V47.6867Z" fill="#FAFAFA"/>
<path d="M32.0068 45.194C33.9605 45.194 35.9164 45.159 37.8679 45.194C39.2061 45.2181 39.2784 47.7807 37.9664 47.8705C37.0509 47.934 36.1113 47.8705 35.1958 47.8705H32.0068C31.9612 47.8655 31.919 47.8439 31.8884 47.8097C31.8578 47.7756 31.8408 47.7313 31.8408 47.6854C31.8408 47.6395 31.8578 47.5953 31.8884 47.5611C31.919 47.527 31.9612 47.5053 32.0068 47.5003H37.559C37.9971 47.5003 38.295 47.5003 38.4592 46.99C38.6038 46.552 38.5578 45.6606 37.973 45.5642C37.9059 45.5587 37.8385 45.5587 37.7715 45.5642H32.0068C31.9612 45.5592 31.919 45.5376 31.8884 45.5034C31.8578 45.4693 31.8408 45.425 31.8408 45.3791C31.8408 45.3332 31.8578 45.289 31.8884 45.2548C31.919 45.2206 31.9612 45.199 32.0068 45.194Z" fill="#EBEBEB"/>
<path d="M54.3998 92.8073C77.8533 92.8073 96.866 91.6973 96.866 90.328C96.866 88.9587 77.8533 87.8486 54.3998 87.8486C30.9464 87.8486 11.9336 88.9587 11.9336 90.328C11.9336 91.6973 30.9464 92.8073 54.3998 92.8073Z" fill="#F5F5F5"/>
<path d="M67.7454 72.9067C67.7454 72.9067 65.1894 70.8938 63.0759 72.8169L63.9257 72.9286L62.6553 73.2615C62.4788 73.4759 62.3192 73.7036 62.1779 73.9426C61.9917 74.2536 61.8231 74.5428 61.6632 74.8187L62.513 74.9939L61.1989 75.6072C59.865 77.9573 59.6416 78.6735 59.6416 78.6735C60.4919 78.6716 61.3397 78.5813 62.1713 78.4041L62.9226 76.4504L63.0759 78.1763C63.9856 77.9186 64.8422 77.5011 65.6056 76.9432L65.2749 75.1911L66.2889 76.3344C66.8658 75.7305 67.2855 74.9942 67.5111 74.1901L66.9372 73.6382L67.614 73.7762C67.6781 73.4898 67.722 73.1992 67.7454 72.9067Z" fill="#407BFF"/>
<path opacity="0.2" d="M67.7454 72.9067C67.7454 72.9067 65.1894 70.8938 63.0759 72.8169L63.9257 72.9286L62.6553 73.2615C62.4788 73.4759 62.3192 73.7036 62.1779 73.9426C61.9917 74.2536 61.8231 74.5428 61.6632 74.8187L62.513 74.9939L61.1989 75.6072C59.865 77.9573 59.6416 78.6735 59.6416 78.6735C60.4919 78.6716 61.3397 78.5813 62.1713 78.4041L62.9226 76.4504L63.0759 78.1763C63.9856 77.9186 64.8422 77.5011 65.6056 76.9432L65.2749 75.1911L66.2889 76.3344C66.8658 75.7305 67.2855 74.9942 67.5111 74.1901L66.9372 73.6382L67.614 73.7762C67.6781 73.4898 67.722 73.1992 67.7454 72.9067Z" fill="white"/>
<path d="M72.7725 71.4065C72.7725 71.4065 76.0753 68.8045 78.8065 71.2904L77.7114 71.4349L79.3519 71.873C79.579 72.1494 79.7855 72.4422 79.9695 72.7491C80.2083 73.1499 80.4295 73.5244 80.6266 73.877L79.5315 74.0961L81.2136 74.8867C82.9373 77.9246 83.2264 78.8488 83.2264 78.8488C82.1272 78.847 81.0313 78.7303 79.9564 78.5006L78.9883 75.9753L78.7934 78.1961C77.6177 77.8643 76.5104 77.3259 75.5234 76.606L75.9614 74.3501L74.6473 75.8263C73.902 75.046 73.3597 74.0946 73.0681 73.0557L73.8106 72.3417L72.9345 72.5213C72.8547 72.1539 72.8005 71.7814 72.7725 71.4065Z" fill="#407BFF"/>
<path opacity="0.3" d="M72.7725 71.4065C72.7725 71.4065 76.0753 68.8045 78.8065 71.2904L77.7114 71.4349L79.3519 71.873C79.579 72.1494 79.7855 72.4422 79.9695 72.7491C80.2083 73.1499 80.4295 73.5244 80.6266 73.877L79.5315 74.0961L81.2136 74.8867C82.9373 77.9246 83.2264 78.8488 83.2264 78.8488C82.1272 78.847 81.0313 78.7303 79.9564 78.5006L78.9883 75.9753L78.7934 78.1961C77.6177 77.8643 76.5104 77.3259 75.5234 76.606L75.9614 74.3501L74.6473 75.8263C73.902 75.046 73.3597 74.0946 73.0681 73.0557L73.8106 72.3417L72.9345 72.5213C72.8547 72.1539 72.8005 71.7814 72.7725 71.4065Z" fill="white"/>
<path d="M71.4207 66.6338C71.4207 66.6338 70.9257 70.8106 67.2374 70.9836L67.912 70.1075L66.4489 70.9683C66.0907 70.9324 65.7357 70.8701 65.3866 70.7821C64.9355 70.6682 64.5105 70.5631 64.1207 70.4536L64.7339 69.5183L62.9818 70.1491C59.6154 69.2183 58.7568 68.7715 58.7568 68.7715C59.5352 67.9951 60.3926 67.3021 61.315 66.7039L63.7856 67.799L62.3488 66.0841C63.4146 65.4869 64.5783 65.0841 65.7853 64.8948L67.0775 66.7937L66.9636 64.8225C68.0393 64.8483 69.0923 65.1378 70.0299 65.6657L70.0102 66.6951L70.5008 65.9505C70.8236 66.1557 71.131 66.3841 71.4207 66.6338Z" fill="#407BFF"/>
<path opacity="0.5" d="M71.4207 66.6338C71.4207 66.6338 70.9257 70.8106 67.2374 70.9836L67.912 70.1075L66.4489 70.9683C66.0907 70.9324 65.7357 70.8701 65.3866 70.7821C64.9355 70.6682 64.5105 70.5631 64.1207 70.4536L64.7339 69.5183L62.9818 70.1491C59.6154 69.2183 58.7568 68.7715 58.7568 68.7715C59.5352 67.9951 60.3926 67.3021 61.315 66.7039L63.7856 67.799L62.3488 66.0841C63.4146 65.4869 64.5783 65.0841 65.7853 64.8948L67.0775 66.7937L66.9636 64.8225C68.0393 64.8483 69.0923 65.1378 70.0299 65.6657L70.0102 66.6951L70.5008 65.9505C70.8236 66.1557 71.131 66.3841 71.4207 66.6338Z" fill="white"/>
<path d="M63.376 74.7596C63.376 74.7596 69.0246 66.8178 70.8381 78.5268H70.181C70.181 78.5268 69.5743 73.1585 67.4213 72.7643C65.2683 72.3701 63.376 74.7596 63.376 74.7596Z" fill="#407BFF"/>
<path d="M77.3865 73.3054C77.3865 73.3054 71.9394 62.2929 70.1895 78.5269H70.8137C70.8137 78.5269 71.4094 71.0801 73.4835 70.5369C75.5577 69.9938 77.3865 73.3054 77.3865 73.3054Z" fill="#407BFF"/>
<path d="M64.4492 68.4147C64.4492 68.4147 72.7151 67.14 71.4207 78.689H72.0778C72.0778 78.689 73.6679 67.1838 64.4492 68.4147Z" fill="#407BFF"/>
<path d="M65.4609 77.7581L67.6512 90.0715H74.73L76.9202 77.7581H65.4609Z" fill="#263238"/>
<path opacity="0.5" d="M65.4609 77.7581L67.6512 90.0715H74.73L76.9202 77.7581H65.4609Z" fill="white"/>
<path d="M39.8174 56.0469V59.3607C39.818 59.9774 40.0632 60.5687 40.4993 61.0048C40.9354 61.4409 41.5267 61.6861 42.1434 61.6867H73.8534C74.4696 61.6855 75.0601 61.44 75.4953 61.0039C75.9306 60.5678 76.1751 59.9768 76.1751 59.3607V56.0469H39.8174Z" fill="#407BFF"/>
<path d="M73.8491 34.8237H42.1434C40.8588 34.8237 39.8174 35.8651 39.8174 37.1497V58.9227C39.8174 60.2074 40.8588 61.2488 42.1434 61.2488H73.8491C75.1337 61.2488 76.1751 60.2074 76.1751 58.9227V37.1497C76.1751 35.8651 75.1337 34.8237 73.8491 34.8237Z" fill="#407BFF"/>
<path opacity="0.8" d="M73.8491 34.8237H42.1434C40.8588 34.8237 39.8174 35.8651 39.8174 37.1497V58.9227C39.8174 60.2074 40.8588 61.2488 42.1434 61.2488H73.8491C75.1337 61.2488 76.1751 60.2074 76.1751 58.9227V37.1497C76.1751 35.8651 75.1337 34.8237 73.8491 34.8237Z" fill="white"/>
<path d="M54.1132 56.1891H53.5635V55.8562H55.0594V56.1804H54.5097V57.5733H54.1132V56.1891Z" fill="#263238"/>
<path d="M56.3669 57.5818L56.0361 57.1022H55.6748V57.5818H55.2783V55.8559H56.0208C56.1569 55.8531 56.292 55.8793 56.4172 55.9326C56.5227 55.9791 56.6125 56.0552 56.6757 56.1516C56.7377 56.2505 56.769 56.3656 56.7655 56.4823C56.7689 56.5993 56.7368 56.7146 56.6735 56.813C56.6102 56.9102 56.5195 56.9864 56.4129 57.0321L56.7983 57.584L56.3669 57.5818ZM56.2661 56.2677C56.1875 56.2108 56.0913 56.1836 55.9945 56.191H55.6748V56.789H55.9989C56.0959 56.7957 56.1922 56.7678 56.2705 56.7101C56.2996 56.6816 56.3228 56.6475 56.3386 56.6099C56.3544 56.5723 56.3625 56.5319 56.3625 56.4911C56.3625 56.4503 56.3544 56.4099 56.3386 56.3723C56.3228 56.3347 56.2996 56.3006 56.2705 56.2721L56.2661 56.2677Z" fill="#263238"/>
<path d="M58.4056 57.2623V57.5821H57.0762V55.8562H58.3728V56.1738H57.4704V56.5483H58.2677V56.8571H57.4704V57.2536L58.4056 57.2623Z" fill="#263238"/>
<path d="M60.2955 55.8562V57.5733H59.9691L59.1128 56.5308V57.5733H58.7207V55.8562H59.0492L59.9034 56.8987V55.8562H60.2955Z" fill="#263238"/>
<path d="M60.7119 55.8559H61.4916C61.6627 55.8525 61.8323 55.8893 61.9866 55.9633C62.1242 56.0291 62.2398 56.1333 62.3195 56.2633C62.3985 56.4006 62.4401 56.5561 62.4401 56.7145C62.4401 56.8729 62.3985 57.0284 62.3195 57.1657C62.2398 57.2957 62.1242 57.3999 61.9866 57.4657C61.8323 57.5397 61.6627 57.5765 61.4916 57.5731H60.7119V55.8559ZM61.4719 57.2467C61.6228 57.2544 61.7707 57.2025 61.8837 57.1022C61.9314 57.0535 61.9687 56.9955 61.9932 56.9318C62.0177 56.8682 62.0289 56.8002 62.026 56.732C62.0298 56.6599 62.0181 56.5877 61.9916 56.5205C61.9652 56.4532 61.9246 56.3924 61.8727 56.3422C61.7589 56.2434 61.6114 56.1924 61.461 56.1998H61.0996V57.2642L61.4719 57.2467Z" fill="#263238"/>
<path d="M47.1106 51.6509H43.8428V53.1797H47.1106V51.6509Z" fill="#407BFF"/>
<path d="M52.1194 50.2798H48.8516V53.1818H52.1194V50.2798Z" fill="#263238"/>
<path d="M57.1262 49.8833H53.8584V53.1818H57.1262V49.8833Z" fill="#407BFF"/>
<path d="M62.136 47.3425H58.8682V53.1817H62.136V47.3425Z" fill="#263238"/>
<path d="M67.1428 43.4902H63.875V53.1798H67.1428V43.4902Z" fill="#407BFF"/>
<path d="M72.1497 40.196H68.8818V53.1819H72.1497V40.196Z" fill="#263238"/>
<path d="M55.8502 21.1168C55.1654 20.4043 54.3436 19.8376 53.4343 19.4506C52.525 19.0637 51.5468 18.8646 50.5586 18.8652V23.4647C51.1155 23.4647 51.6664 23.5795 52.177 23.8018C52.6876 24.0241 53.147 24.3493 53.5263 24.7569L55.8502 22.4331V21.1168Z" fill="#407BFF"/>
<path opacity="0.3" d="M55.8502 21.1168C55.1654 20.4043 54.3436 19.8376 53.4343 19.4506C52.525 19.0637 51.5468 18.8646 50.5586 18.8652V23.4647C51.1155 23.4647 51.6664 23.5795 52.177 23.8018C52.6876 24.0241 53.147 24.3493 53.5263 24.7569L55.8502 22.4331V21.1168Z" fill="white"/>
<path d="M53.5263 23.4406L55.8502 21.1168C55.1654 20.4043 54.3436 19.8376 53.4343 19.4506C52.525 19.0637 51.5468 18.8646 50.5586 18.8652V22.1506C51.1153 22.1503 51.6662 22.2647 52.1768 22.4866C52.6874 22.7086 53.1468 23.0333 53.5263 23.4406Z" fill="#407BFF"/>
<path d="M53.0881 26.0689C53.639 26.6563 54.0027 27.3944 54.1329 28.1891C53.9782 29.1418 53.4895 30.0083 52.7544 30.6337C52.0192 31.2591 51.0856 31.6025 50.1204 31.6025C49.1552 31.6025 48.2215 31.2591 47.4864 30.6337C46.7513 30.0083 46.2626 29.1418 46.1079 28.1891C46.2628 27.2364 46.7515 26.3698 47.4865 25.7443C48.2216 25.1187 49.1552 24.775 50.1204 24.7745V20.175C48.1698 20.175 46.2991 20.9499 44.9198 22.3292C43.5405 23.7085 42.7656 25.5792 42.7656 27.5298C42.7656 27.7488 42.7788 27.9679 42.7963 28.1869C42.7788 28.4059 42.7656 28.6249 42.7656 28.8439C42.7989 30.7723 43.5883 32.6104 44.9638 33.9623C46.3392 35.3142 48.1907 36.0718 50.1193 36.0718C52.0479 36.0718 53.8994 35.3142 55.2748 33.9623C56.6503 32.6104 57.4397 30.7723 57.473 28.8439C57.473 28.6249 57.473 28.4059 57.4423 28.1869C57.462 27.9679 57.473 27.7488 57.473 27.5298C57.476 25.6254 56.7367 23.7948 55.412 22.4266L53.0881 24.7548V26.0689Z" fill="#407BFF"/>
<path opacity="0.3" d="M53.0881 26.0689C53.639 26.6563 54.0027 27.3944 54.1329 28.1891C53.9782 29.1418 53.4895 30.0083 52.7544 30.6337C52.0192 31.2591 51.0856 31.6025 50.1204 31.6025C49.1552 31.6025 48.2215 31.2591 47.4864 30.6337C46.7513 30.0083 46.2626 29.1418 46.1079 28.1891C46.2628 27.2364 46.7515 26.3698 47.4865 25.7443C48.2216 25.1187 49.1552 24.775 50.1204 24.7745V20.175C48.1698 20.175 46.2991 20.9499 44.9198 22.3292C43.5405 23.7085 42.7656 25.5792 42.7656 27.5298C42.7656 27.7488 42.7788 27.9679 42.7963 28.1869C42.7788 28.4059 42.7656 28.6249 42.7656 28.8439C42.7989 30.7723 43.5883 32.6104 44.9638 33.9623C46.3392 35.3142 48.1907 36.0718 50.1193 36.0718C52.0479 36.0718 53.8994 35.3142 55.2748 33.9623C56.6503 32.6104 57.4397 30.7723 57.473 28.8439C57.473 28.6249 57.473 28.4059 57.4423 28.1869C57.462 27.9679 57.473 27.7488 57.473 27.5298C57.476 25.6254 56.7367 23.7948 55.412 22.4266L53.0881 24.7548V26.0689Z" fill="white"/>
<path opacity="0.6" d="M55.4121 22.4315L53.0883 24.7553C53.7264 25.439 54.1093 26.3217 54.1727 27.2548C54.236 28.1878 53.9759 29.1142 53.4361 29.8779C52.8963 30.6416 52.1098 31.1959 51.2091 31.4476C50.3084 31.6992 49.3485 31.6327 48.491 31.2594C47.6336 30.886 46.931 30.2286 46.5016 29.3978C46.0722 28.567 45.9422 27.6136 46.1336 26.6982C46.3249 25.7828 46.8258 24.9613 47.552 24.372C48.2782 23.7827 49.1853 23.4617 50.1205 23.4631V20.1777C48.4235 20.1762 46.778 20.7613 45.4629 21.8339C44.1477 22.9065 43.2437 24.4007 42.9039 26.0634C42.5641 27.7261 42.8094 29.4552 43.5983 30.9577C44.3872 32.4603 45.6711 33.6441 47.2327 34.3085C48.7943 34.973 50.5376 35.0773 52.1673 34.6038C53.7969 34.1303 55.2129 33.1081 56.1753 31.7103C57.1378 30.3126 57.5875 28.6251 57.4484 26.9337C57.3093 25.2424 56.59 23.6511 55.4121 22.4293V22.4315Z" fill="white"/>
<path d="M48.4295 28.6122V29.0174H46.8066V28.6976L47.6345 27.9157C47.7053 27.853 47.7653 27.779 47.8119 27.6967C47.8417 27.6415 47.8575 27.5798 47.8579 27.5171C47.8601 27.4796 47.8533 27.4421 47.8381 27.4078C47.8229 27.3735 47.7996 27.3434 47.7703 27.32C47.6949 27.2691 47.6046 27.2451 47.514 27.2521C47.4265 27.2511 47.3399 27.269 47.2599 27.3046C47.1837 27.3415 47.1181 27.3973 47.0694 27.4667L46.708 27.2323C46.795 27.1058 46.9146 27.0052 47.0541 26.941C47.2123 26.8671 47.3854 26.8304 47.56 26.8337C47.7041 26.8307 47.8473 26.8576 47.9805 26.9126C48.092 26.9579 48.1884 27.0339 48.2587 27.1316C48.3257 27.2303 48.3602 27.3474 48.3572 27.4667C48.3578 27.5802 48.3331 27.6924 48.285 27.7952C48.2116 27.9274 48.1152 28.0454 48.0002 28.1435L47.5052 28.61L48.4295 28.6122Z" fill="#263238"/>
<path d="M49.0735 28.9167C48.9296 28.8236 48.8161 28.6904 48.7472 28.5334C48.5895 28.1519 48.5895 27.7235 48.7472 27.342C48.8161 27.185 48.9296 27.0518 49.0735 26.9587C49.2161 26.8703 49.3811 26.8246 49.5488 26.8273C49.7165 26.8246 49.8815 26.8703 50.0241 26.9587C50.1668 27.0532 50.2799 27.186 50.3504 27.342C50.5081 27.7235 50.5081 28.1519 50.3504 28.5334C50.2805 28.6898 50.1673 28.8228 50.0241 28.9167C49.8815 29.0051 49.7165 29.0507 49.5488 29.0481C49.3811 29.0507 49.2161 29.0051 49.0735 28.9167ZM49.8554 28.459C49.929 28.295 49.9671 28.1174 49.9671 27.9377C49.9671 27.758 49.929 27.5803 49.8554 27.4164C49.8226 27.3649 49.7773 27.3224 49.7237 27.293C49.6701 27.2636 49.6099 27.2482 49.5488 27.2482C49.4877 27.2482 49.4275 27.2636 49.3739 27.293C49.3203 27.3224 49.275 27.3649 49.2422 27.4164C49.1686 27.5803 49.1305 27.758 49.1305 27.9377C49.1305 28.1174 49.1686 28.295 49.2422 28.459C49.275 28.5105 49.3203 28.553 49.3739 28.5824C49.4275 28.6118 49.4877 28.6272 49.5488 28.6272C49.6099 28.6272 49.6701 28.6118 49.7237 28.5824C49.7773 28.553 49.8226 28.5105 49.8554 28.459Z" fill="#263238"/>
<path d="M50.821 27.8696C50.7244 27.7466 50.6719 27.5946 50.6719 27.4381C50.6719 27.2817 50.7244 27.1297 50.821 27.0067C50.87 26.9539 50.9298 26.9123 50.9963 26.8847C51.0629 26.8571 51.1345 26.8442 51.2065 26.8468C51.2782 26.8441 51.3495 26.857 51.4157 26.8846C51.4819 26.9122 51.5413 26.9539 51.5898 27.0067C51.685 27.1304 51.7366 27.2821 51.7366 27.4381C51.7366 27.5942 51.685 27.7459 51.5898 27.8696C51.5413 27.9224 51.4819 27.9641 51.4157 27.9917C51.3495 28.0193 51.2782 28.0322 51.2065 28.0295C51.1345 28.0321 51.0629 28.0191 50.9963 27.9916C50.9298 27.964 50.87 27.9224 50.821 27.8696ZM51.3708 27.6922C51.4096 27.6132 51.4298 27.5262 51.4298 27.4381C51.4298 27.3501 51.4096 27.2631 51.3708 27.1841C51.3527 27.1574 51.3284 27.1356 51.2999 27.1205C51.2715 27.1054 51.2398 27.0976 51.2076 27.0976C51.1754 27.0976 51.1437 27.1054 51.1152 27.1205C51.0868 27.1356 51.0625 27.1574 51.0444 27.1841C50.999 27.2599 50.9777 27.3477 50.9831 27.436C50.9772 27.5249 50.9986 27.6135 51.0444 27.69C51.0628 27.7162 51.0872 27.7376 51.1156 27.7524C51.144 27.7672 51.1756 27.7749 51.2076 27.7749C51.2396 27.7749 51.2712 27.7672 51.2996 27.7524C51.328 27.7376 51.3524 27.7162 51.3708 27.69V27.6922ZM52.4856 26.8709H52.8492L51.3839 29.0173H51.0203L52.4856 26.8709ZM52.3892 28.9691C52.3073 28.9208 52.2417 28.8491 52.2009 28.7632C52.1561 28.6649 52.1329 28.5581 52.1329 28.45C52.1329 28.342 52.1561 28.2352 52.2009 28.1368C52.2417 28.051 52.3073 27.9793 52.3892 27.9309C52.4721 27.8821 52.5668 27.857 52.663 27.8587C52.735 27.8561 52.8066 27.869 52.8732 27.8966C52.9397 27.9242 52.9995 27.9658 53.0485 28.0186C53.1451 28.1416 53.1976 28.2936 53.1976 28.45C53.1976 28.6065 53.1451 28.7584 53.0485 28.8815C52.9995 28.9343 52.9397 28.9759 52.8732 29.0034C52.8066 29.031 52.735 29.044 52.663 29.0414C52.5668 29.043 52.4721 29.018 52.3892 28.9691ZM52.8273 28.7041C52.8712 28.6269 52.8917 28.5387 52.8864 28.45C52.8925 28.362 52.8719 28.2742 52.8273 28.1982C52.81 28.1704 52.7857 28.1477 52.7569 28.1323C52.728 28.117 52.6957 28.1094 52.663 28.1105C52.631 28.11 52.5993 28.1176 52.571 28.1325C52.5427 28.1474 52.5186 28.1693 52.5009 28.196C52.4606 28.2746 52.4395 28.3617 52.4395 28.45C52.4395 28.5384 52.4606 28.6255 52.5009 28.7041C52.5193 28.7303 52.5437 28.7517 52.5721 28.7665C52.6005 28.7812 52.6321 28.789 52.6641 28.789C52.6961 28.789 52.7277 28.7812 52.7561 28.7665C52.7845 28.7517 52.8089 28.7303 52.8273 28.7041Z" fill="#263238"/>
<path d="M55.4117 49.0051C55.3901 49.0054 55.3686 49.0013 55.3485 48.9932C55.3284 48.985 55.3102 48.973 55.2949 48.9576C55.2796 48.9423 55.2675 48.9241 55.2594 48.904C55.2512 48.884 55.2472 48.8625 55.2475 48.8408V46.252C55.2476 45.9696 55.1358 45.6986 54.9364 45.4986L50.3852 40.9473C50.2554 40.8185 50.1524 40.6652 50.0821 40.4965C50.0119 40.3277 49.9756 40.1467 49.9756 39.9639V37.4692C49.9762 37.4258 49.9936 37.3844 50.0243 37.3537C50.055 37.323 50.0965 37.3055 50.1399 37.3049C50.1834 37.3049 50.2252 37.3222 50.256 37.353C50.2868 37.3838 50.3041 37.4256 50.3041 37.4692V39.9639C50.3039 40.1036 50.3315 40.242 50.3852 40.371C50.439 40.4999 50.5179 40.6169 50.6173 40.7151L55.1686 45.2664C55.2983 45.3956 55.4011 45.5492 55.471 45.7184C55.541 45.8876 55.5766 46.0689 55.576 46.252V48.8474C55.5743 48.8898 55.5562 48.9299 55.5256 48.9593C55.495 48.9887 55.4542 49.0051 55.4117 49.0051Z" fill="#263238"/>
<path d="M65.7253 26.3407H65.3749V26.7919H64.8908V26.3407H63.7344V26.0056L64.7463 24.6455H65.2675L64.3301 25.9355H64.9061V25.5347H65.3749V25.9355H65.7253V26.3407Z" fill="#263238"/>
<path d="M67.2828 25.6311C67.3543 25.6893 67.4113 25.7633 67.4493 25.8473C67.4873 25.9313 67.5053 26.023 67.5018 26.1151C67.5033 26.241 67.4691 26.3648 67.4033 26.4721C67.3315 26.5851 67.2279 26.6743 67.1054 26.7284C66.9493 26.7984 66.7793 26.8321 66.6082 26.8269C66.4602 26.8258 66.3129 26.8052 66.1702 26.7656C66.037 26.7322 65.9108 26.675 65.7979 26.597L65.9928 26.2159C66.0781 26.2792 66.1737 26.3273 66.2753 26.3582C66.3817 26.3915 66.4924 26.4084 66.6039 26.4086C66.7067 26.4144 66.8089 26.3892 66.8973 26.3363C66.9314 26.3141 66.9592 26.2835 66.978 26.2474C66.9968 26.2114 67.006 26.1711 67.0047 26.1304C67.0101 26.0869 67.0024 26.0428 66.9824 26.0038C66.9625 25.9647 66.9314 25.9326 66.893 25.9114C66.7724 25.8534 66.6386 25.8285 66.5053 25.8391H65.9555L66.0673 24.6323H67.3814V25.0309H66.4856L66.4505 25.4383H66.6258C66.8604 25.425 67.0925 25.4931 67.2828 25.6311Z" fill="#263238"/>
<path d="M67.7719 25.6421C67.6755 25.5194 67.623 25.3678 67.623 25.2117C67.623 25.0556 67.6755 24.9041 67.7719 24.7813C67.8209 24.7286 67.8807 24.687 67.9472 24.6594C68.0138 24.6318 68.0854 24.6189 68.1574 24.6214C68.2291 24.6187 68.3005 24.6316 68.3666 24.6592C68.4328 24.6869 68.4922 24.7285 68.5407 24.7813C68.6357 24.9047 68.6872 25.056 68.6872 25.2117C68.6872 25.3674 68.6357 25.5187 68.5407 25.6421C68.4923 25.6952 68.433 25.7372 68.3668 25.7652C68.3007 25.7931 68.2292 25.8064 68.1574 25.8042C68.0853 25.8063 68.0136 25.793 67.9471 25.765C67.8806 25.7371 67.8208 25.6951 67.7719 25.6421ZM68.3217 25.4669C68.3667 25.3902 68.3874 25.3015 68.3808 25.2128C68.3874 25.1241 68.3667 25.0355 68.3217 24.9587C68.3044 24.931 68.2801 24.9083 68.2513 24.8929C68.2224 24.8775 68.1901 24.87 68.1574 24.8711C68.1252 24.8708 68.0934 24.8787 68.0651 24.894C68.0367 24.9094 68.0127 24.9316 67.9953 24.9587C67.9495 25.0352 67.9281 25.1238 67.934 25.2128C67.9286 25.301 67.9499 25.3888 67.9953 25.4647C68.0123 25.4922 68.0362 25.5149 68.0646 25.5302C68.0931 25.5456 68.1251 25.5532 68.1574 25.5523C68.1898 25.5534 68.222 25.5461 68.2508 25.5312C68.2795 25.5162 68.304 25.494 68.3217 25.4669ZM69.4365 24.6455H69.8001L68.3348 26.792H67.9712L69.4365 24.6455ZM69.3401 26.7438C69.2582 26.6954 69.1927 26.6237 69.1518 26.5379C69.107 26.4396 69.0838 26.3327 69.0838 26.2247C69.0838 26.1166 69.107 26.0098 69.1518 25.9115C69.1908 25.821 69.2565 25.7446 69.3401 25.6925C69.4236 25.6453 69.5181 25.6211 69.6139 25.6224C69.6859 25.6198 69.7575 25.6327 69.8241 25.6603C69.8906 25.6879 69.9504 25.7295 69.9994 25.7823C70.1041 25.9034 70.1575 26.0605 70.1483 26.2203C70.1535 26.2995 70.143 26.379 70.1174 26.4541C70.0919 26.5293 70.0518 26.5987 69.9994 26.6584C69.9505 26.7114 69.8908 26.7533 69.8243 26.7813C69.7578 26.8092 69.686 26.8226 69.6139 26.8204C69.5173 26.8207 69.4225 26.7942 69.3401 26.7438ZM69.7782 26.4766C69.8228 26.4005 69.8434 26.3127 69.8373 26.2247C69.8429 26.136 69.8224 26.0477 69.7782 25.9706C69.7606 25.9432 69.7362 25.9207 69.7075 25.9054C69.6787 25.8901 69.6465 25.8823 69.6139 25.883C69.5816 25.8821 69.5496 25.8897 69.5211 25.9051C69.4927 25.9204 69.4688 25.9431 69.4518 25.9706C69.406 26.0471 69.3846 26.1357 69.3905 26.2247C69.3846 26.3136 69.406 26.4023 69.4518 26.4788C69.4699 26.5054 69.4942 26.5272 69.5227 26.5423C69.5511 26.5574 69.5828 26.5653 69.615 26.5653C69.6472 26.5653 69.6789 26.5574 69.7073 26.5423C69.7358 26.5272 69.7601 26.5054 69.7782 26.4788V26.4766Z" fill="#263238"/>
<path d="M72.8089 28.9162L69.9616 27.2714C69.5656 28.0285 68.9412 28.6417 68.1771 29.0239C67.4129 29.4062 66.5478 29.5381 65.7044 29.4008C64.8611 29.2636 64.0824 28.8643 63.4788 28.2596C62.8752 27.6548 62.4774 26.8753 62.3418 26.0317C62.4434 25.4227 62.6819 24.8448 63.0393 24.3413C63.3966 23.8379 63.8636 23.4221 64.405 23.1253V21.8112L62.7645 18.9639C61.6238 19.602 60.6739 20.533 60.0128 21.6606C59.3518 22.7883 59.0035 24.0719 59.0039 25.379C59.0039 25.598 59.0149 25.8171 59.0346 26.0361C59.017 26.2551 59.0039 26.4741 59.0039 26.6932C59.0068 28.324 59.5516 29.9077 60.5527 31.1951C61.5539 32.4826 62.9545 33.4007 64.5344 33.8052C66.1144 34.2097 67.7839 34.0776 69.2806 33.4297C70.7772 32.7818 72.0161 31.6548 72.8023 30.226L72.8089 28.9162Z" fill="#263238"/>
<path opacity="0.6" d="M66.3593 29.4638C65.4551 29.4633 64.5768 29.1619 63.8629 28.607C63.149 28.0522 62.6401 27.2755 62.4164 26.3994C62.1928 25.5233 62.2671 24.5977 62.6276 23.7685C62.9882 22.9394 63.6145 22.2538 64.4078 21.8199L62.7673 18.9727C61.7733 19.529 60.9221 20.3088 60.281 21.2503C59.6399 22.1919 59.2263 23.2696 59.0729 24.3983C58.9194 25.5271 59.0304 26.676 59.3969 27.7546C59.7635 28.8331 60.3756 29.8117 61.1851 30.6132C61.9945 31.4147 62.9791 32.0172 64.0612 32.3731C65.1433 32.729 66.2933 32.8286 67.4205 32.664C68.5477 32.4995 69.6212 32.0753 70.5564 31.4249C71.4916 30.7745 72.2629 29.9157 72.8095 28.9163L69.9622 27.2714C69.619 27.931 69.1018 28.484 68.4667 28.8705C67.8316 29.257 67.1027 29.4622 66.3593 29.4638Z" fill="white"/>
<path opacity="0.6" d="M72.8089 28.9162L69.9616 27.2714C69.5656 28.0285 68.9412 28.6417 68.1771 29.0239C67.4129 29.4062 66.5478 29.5381 65.7044 29.4008C64.8611 29.2636 64.0824 28.8643 63.4788 28.2596C62.8752 27.6548 62.4774 26.8753 62.3418 26.0317C62.4434 25.4227 62.6819 24.8448 63.0393 24.3413C63.3966 23.8379 63.8636 23.4221 64.405 23.1253V21.8112L62.7645 18.9639C61.6238 19.602 60.6739 20.533 60.0128 21.6606C59.3518 22.7883 59.0035 24.0719 59.0039 25.379C59.0039 25.598 59.0149 25.8171 59.0346 26.0361C59.017 26.2551 59.0039 26.4741 59.0039 26.6932C59.0068 28.324 59.5516 29.9077 60.5527 31.1951C61.5539 32.4826 62.9545 33.4007 64.5344 33.8052C66.1144 34.2097 67.7839 34.0776 69.2806 33.4297C70.7772 32.7818 72.0161 31.6548 72.8023 30.226L72.8089 28.9162Z" fill="white"/>
<path d="M70.8399 27.7184L73.6872 29.3632C74.2821 28.2809 74.5933 27.0655 74.5917 25.8304C74.5917 25.6114 74.5786 25.3924 74.5589 25.1733C74.5786 24.9543 74.5917 24.7353 74.5917 24.5163C74.5917 23.2332 74.2559 21.9724 73.6179 20.8592C72.9798 19.746 72.0616 18.8191 70.9545 18.1706C69.8474 17.522 68.5898 17.1744 67.3068 17.1622C66.0238 17.15 64.7599 17.4737 63.6406 18.1011V19.4152L65.2811 22.2625C65.8528 21.9493 66.4915 21.7782 67.1433 21.7636C67.795 21.749 68.4407 21.8914 69.0259 22.1787C69.6111 22.466 70.1186 22.8899 70.5056 23.4145C70.8925 23.9391 71.1477 24.5491 71.2495 25.1931C71.1785 25.6196 71.0403 26.0321 70.8399 26.4152V27.7184Z" fill="#263238"/>
<path opacity="0.4" d="M70.8399 27.7184L73.6872 29.3632C74.2821 28.2809 74.5933 27.0655 74.5917 25.8304C74.5917 25.6114 74.5786 25.3924 74.5589 25.1733C74.5786 24.9543 74.5917 24.7353 74.5917 24.5163C74.5917 23.2332 74.2559 21.9724 73.6179 20.8592C72.9798 19.746 72.0616 18.8191 70.9545 18.1706C69.8474 17.522 68.5898 17.1744 67.3068 17.1622C66.0238 17.15 64.7599 17.4737 63.6406 18.1011V19.4152L65.2811 22.2625C65.8528 21.9493 66.4915 21.7782 67.1433 21.7636C67.795 21.749 68.4407 21.8914 69.0259 22.1787C69.6111 22.466 70.1186 22.8899 70.5056 23.4145C70.8925 23.9391 71.1477 24.5491 71.2495 25.1931C71.1785 25.6196 71.0403 26.0321 70.8399 26.4152V27.7184Z" fill="white"/>
<path d="M67.2345 17.1636C65.9764 17.1611 64.739 17.484 63.6426 18.101L65.2831 20.9483C66.0495 20.5291 66.9306 20.3677 67.7959 20.488C68.6612 20.6083 69.4648 21.0038 70.0879 21.6161C70.711 22.2284 71.1205 23.025 71.2559 23.888C71.3913 24.7511 71.2453 25.6348 70.8396 26.4085L73.6869 28.0534C74.3005 26.9336 74.6118 25.6733 74.5903 24.3966C74.5687 23.1199 74.2151 21.8709 73.5642 20.7724C72.9133 19.6739 71.9875 18.7638 70.878 18.1318C69.7685 17.4998 68.5136 17.1676 67.2367 17.168L67.2345 17.1636Z" fill="#263238"/>
<path d="M60.4934 46.4821C60.45 46.4815 60.4085 46.464 60.3778 46.4333C60.3472 46.4027 60.3297 46.3612 60.3291 46.3178V44.3839C60.3296 44.014 60.4769 43.6595 60.7387 43.3983L65.29 38.8492C65.4893 38.6491 65.6011 38.3781 65.601 38.0957V35.382C65.6015 35.3387 65.619 35.2972 65.6497 35.2665C65.6804 35.2358 65.7218 35.2183 65.7652 35.2178C65.8086 35.2183 65.8501 35.2358 65.8808 35.2665C65.9114 35.2972 65.9289 35.3387 65.9295 35.382V38.0957C65.9289 38.4651 65.7825 38.8193 65.5221 39.0813L60.9708 43.6304C60.8714 43.729 60.7924 43.8464 60.7387 43.9757C60.6849 44.1051 60.6574 44.2438 60.6576 44.3839V46.3178C60.6576 46.3614 60.6403 46.4032 60.6095 46.434C60.5787 46.4648 60.5369 46.4821 60.4934 46.4821Z" fill="#263238"/>
<path d="M82.7173 55.3352C82.8262 55.3872 82.9187 55.4683 82.9845 55.5695C83.0512 55.6749 83.0854 55.7975 83.0831 55.9221C83.0848 56.0555 83.0475 56.1864 82.9758 56.2989C82.9022 56.407 82.8008 56.4932 82.6823 56.5485C82.5534 56.6086 82.4126 56.6385 82.2705 56.6362C82.14 56.6434 82.0095 56.6225 81.8879 56.5749C81.7662 56.5273 81.6561 56.4541 81.5653 56.3602C81.3826 56.1396 81.2917 55.8574 81.3112 55.5717C81.3054 55.3548 81.3527 55.1397 81.4492 54.9453C81.5347 54.7785 81.6682 54.6412 81.8325 54.5511C82.0084 54.4581 82.2051 54.4113 82.4041 54.4153C82.5156 54.4147 82.6266 54.428 82.7348 54.4547C82.8293 54.475 82.9197 54.5113 83.002 54.562L82.8181 54.9278C82.6986 54.8519 82.5587 54.8144 82.4173 54.8205C82.3371 54.8151 82.2568 54.8266 82.1813 54.8541C82.1059 54.8816 82.037 54.9246 81.9792 54.9803C81.8637 55.1061 81.8016 55.2718 81.8062 55.4425C81.8771 55.3767 81.9607 55.3258 82.0517 55.2931C82.1428 55.2604 82.2396 55.2464 82.3362 55.2519C82.468 55.2494 82.5986 55.2779 82.7173 55.3352ZM82.4983 56.1784C82.5318 56.1501 82.5584 56.1144 82.5759 56.0741C82.5934 56.0338 82.6013 55.9901 82.599 55.9462C82.6013 55.9021 82.5934 55.858 82.5759 55.8173C82.5584 55.7767 82.5319 55.7406 82.4983 55.7119C82.4243 55.65 82.3295 55.6187 82.2333 55.6243C82.1369 55.6206 82.0425 55.6526 81.9683 55.7141C81.9344 55.7424 81.9074 55.7779 81.8892 55.8181C81.871 55.8583 81.8621 55.9021 81.8631 55.9462C81.8632 55.9878 81.8722 56.0289 81.8896 56.0667C81.907 56.1045 81.9323 56.1381 81.9639 56.1653C82.0419 56.2275 82.1402 56.2586 82.2398 56.2529C82.3329 56.261 82.4258 56.2345 82.5005 56.1784H82.4983Z" fill="#263238"/>
<path d="M83.7093 56.5134C83.5661 56.4194 83.4528 56.2864 83.3829 56.1301C83.2252 55.7486 83.2252 55.3201 83.3829 54.9386C83.4513 54.7778 83.5646 54.6402 83.7093 54.5422C83.8518 54.4538 84.0168 54.4081 84.1845 54.4108C84.3523 54.4081 84.5172 54.4538 84.6598 54.5422C84.8031 54.636 84.9164 54.7691 84.9862 54.9255C85.1439 55.307 85.1439 55.7354 84.9862 56.1169C84.9172 56.2739 84.8038 56.4071 84.6598 56.5002C84.5172 56.5886 84.3523 56.6342 84.1845 56.6316C84.0181 56.6382 83.8532 56.5972 83.7093 56.5134ZM84.4934 56.0556C84.567 55.8917 84.605 55.714 84.605 55.5343C84.605 55.3546 84.567 55.177 84.4934 55.0131C84.4605 54.9615 84.4152 54.9191 84.3616 54.8897C84.308 54.8603 84.2479 54.8448 84.1867 54.8448C84.1256 54.8448 84.0655 54.8603 84.0119 54.8897C83.9583 54.9191 83.913 54.9615 83.8801 55.0131C83.8065 55.177 83.7684 55.3546 83.7684 55.5343C83.7684 55.714 83.8065 55.8917 83.8801 56.0556C83.913 56.1072 83.9583 56.1496 84.0119 56.179C84.0655 56.2084 84.1256 56.2238 84.1867 56.2238C84.2479 56.2238 84.308 56.2084 84.3616 56.179C84.4152 56.1496 84.4605 56.1072 84.4934 56.0556Z" fill="#263238"/>
<path d="M85.4616 55.451C85.365 55.3279 85.3125 55.176 85.3125 55.0195C85.3125 54.863 85.365 54.7111 85.4616 54.588C85.5119 54.5373 85.5718 54.4969 85.6378 54.4694C85.7038 54.4419 85.7745 54.4277 85.846 54.4277C85.9175 54.4277 85.9883 54.4419 86.0543 54.4694C86.1202 54.4969 86.1801 54.5373 86.2304 54.588C86.3256 54.7117 86.3772 54.8634 86.3772 55.0195C86.3772 55.1756 86.3256 55.3273 86.2304 55.451C86.1801 55.5018 86.1202 55.5421 86.0543 55.5696C85.9883 55.5971 85.9175 55.6113 85.846 55.6113C85.7745 55.6113 85.7038 55.5971 85.6378 55.5696C85.5718 55.5421 85.5119 55.5018 85.4616 55.451ZM86.0114 55.2736C86.0502 55.1945 86.0704 55.1076 86.0704 55.0195C86.0704 54.9314 86.0502 54.8445 86.0114 54.7655C85.9932 54.7387 85.9687 54.7169 85.9401 54.702C85.9114 54.6871 85.8794 54.6795 85.8471 54.68C85.8145 54.6794 85.7823 54.6871 85.7536 54.7024C85.7248 54.7177 85.7005 54.7402 85.6829 54.7676C85.6382 54.8437 85.6176 54.9315 85.6237 55.0195C85.6184 55.1081 85.6389 55.1964 85.6829 55.2736C85.7015 55.2998 85.7261 55.3212 85.7547 55.3359C85.7833 55.3507 85.815 55.3584 85.8471 55.3584C85.8793 55.3584 85.911 55.3507 85.9396 55.3359C85.9681 55.3212 85.9928 55.2998 86.0114 55.2736ZM87.1262 54.4522H87.4898L86.0245 56.5987H85.6588L87.1262 54.4522ZM87.0277 56.5505C86.9468 56.5009 86.8815 56.4295 86.8393 56.3446C86.796 56.2459 86.7736 56.1392 86.7736 56.0314C86.7736 55.9236 86.796 55.8169 86.8393 55.7182C86.8815 55.6333 86.9468 55.5619 87.0277 55.5123C87.1113 55.4635 87.2068 55.4385 87.3036 55.44C87.3753 55.4373 87.4467 55.4502 87.5128 55.4778C87.579 55.5054 87.6384 55.5471 87.6869 55.5999C87.7835 55.723 87.8361 55.8749 87.8361 56.0314C87.8361 56.1879 87.7835 56.3398 87.6869 56.4629C87.6384 56.5157 87.579 56.5573 87.5128 56.585C87.4467 56.6126 87.3753 56.6255 87.3036 56.6228C87.2053 56.6251 87.1082 56.6001 87.0233 56.5505H87.0277ZM87.4657 56.2855C87.5096 56.2083 87.5302 56.12 87.5248 56.0314C87.5309 55.9434 87.5103 55.8556 87.4657 55.7795C87.4481 55.7521 87.4238 55.7296 87.395 55.7143C87.3662 55.699 87.334 55.6912 87.3014 55.6919C87.2694 55.6912 87.2377 55.6986 87.2093 55.7136C87.181 55.7285 87.1569 55.7505 87.1394 55.7773C87.0976 55.8555 87.0757 55.9428 87.0757 56.0314C87.0757 56.12 87.0976 56.2073 87.1394 56.2855C87.1569 56.3123 87.181 56.3343 87.2093 56.3492C87.2377 56.3642 87.2694 56.3716 87.3014 56.3709C87.3326 56.372 87.3636 56.3656 87.3918 56.3523C87.42 56.339 87.4446 56.319 87.4635 56.2942L87.4657 56.2855Z" fill="#263238"/>
<path d="M78.3652 52.3759L81.2125 54.0186C81.608 53.2611 82.2321 52.6475 82.9962 52.2649C83.7603 51.8824 84.6256 51.7504 85.469 51.8876C86.3124 52.0249 87.0911 52.4244 87.6945 53.0295C88.2979 53.6346 88.6952 54.4144 88.8301 55.2582C88.7304 55.867 88.4936 56.4452 88.1377 56.949C87.7818 57.4529 87.3161 57.8693 86.7757 58.1668V59.481L88.4162 62.3283C89.5566 61.6897 90.5063 60.7587 91.1673 59.6311C91.8283 58.5036 92.1767 57.2202 92.1768 55.9131C92.1768 55.6941 92.1658 55.4641 92.1461 55.2451C92.1636 55.0261 92.1768 54.807 92.1768 54.599C92.1739 52.9681 91.6291 51.3844 90.6279 50.097C89.6268 48.8096 88.2261 47.8914 86.6462 47.4869C85.0663 47.0824 83.3968 47.2145 81.9001 47.8624C80.4035 48.5103 79.1646 49.6373 78.3784 51.0661L78.3652 52.3759Z" fill="#407BFF"/>
<path d="M80.3366 53.5807L77.4893 51.938C76.896 53.0209 76.5856 54.236 76.5869 55.4708C76.5869 55.6898 76.5869 55.9089 76.6198 56.1279C76.6001 56.3469 76.5869 56.5659 76.5869 56.7849C76.587 58.068 76.9227 59.3288 77.5608 60.442C78.1988 61.5552 79.117 62.4821 80.2242 63.1307C81.3313 63.7792 82.5888 64.1268 83.8718 64.139C85.1549 64.1512 86.4188 63.8275 87.538 63.2001V61.886L85.8975 59.0387C85.3262 59.3504 84.6884 59.5204 84.0377 59.5347C83.387 59.5489 82.7424 59.4068 82.1579 59.1204C81.5735 58.834 81.0663 58.4115 80.6789 57.8885C80.2914 57.3656 80.0351 56.7573 79.9314 56.1147C80.002 55.6875 80.1403 55.2742 80.341 54.8904L80.3366 53.5807Z" fill="#407BFF"/>
<path opacity="0.3" d="M78.3652 52.3759L81.2125 54.0186C81.608 53.2611 82.2321 52.6475 82.9962 52.2649C83.7603 51.8824 84.6256 51.7504 85.469 51.8876C86.3124 52.0249 87.0911 52.4244 87.6945 53.0295C88.2979 53.6346 88.6952 54.4144 88.8301 55.2582C88.7304 55.867 88.4936 56.4452 88.1377 56.949C87.7818 57.4529 87.3161 57.8693 86.7757 58.1668V59.481L88.4162 62.3283C89.5566 61.6897 90.5063 60.7587 91.1673 59.6311C91.8283 58.5036 92.1767 57.2202 92.1768 55.9131C92.1768 55.6941 92.1658 55.4641 92.1461 55.2451C92.1636 55.0261 92.1768 54.807 92.1768 54.599C92.1739 52.9681 91.6291 51.3844 90.6279 50.097C89.6268 48.8096 88.2261 47.8914 86.6462 47.4869C85.0663 47.0824 83.3968 47.2145 81.9001 47.8624C80.4035 48.5103 79.1646 49.6373 78.3784 51.0661L78.3652 52.3759Z" fill="white"/>
<path opacity="0.3" d="M80.3366 53.5807L77.4893 51.938C76.896 53.0209 76.5856 54.236 76.5869 55.4708C76.5869 55.6898 76.5869 55.9089 76.6198 56.1279C76.6001 56.3469 76.5869 56.5659 76.5869 56.7849C76.587 58.068 76.9227 59.3288 77.5608 60.442C78.1988 61.5552 79.117 62.4821 80.2242 63.1307C81.3313 63.7792 82.5888 64.1268 83.8718 64.139C85.1549 64.1512 86.4188 63.8275 87.538 63.2001V61.886L85.8975 59.0387C85.3262 59.3504 84.6884 59.5204 84.0377 59.5347C83.387 59.5489 82.7424 59.4068 82.1579 59.1204C81.5735 58.834 81.0663 58.4115 80.6789 57.8885C80.2914 57.3656 80.0351 56.7573 79.9314 56.1147C80.002 55.6875 80.1403 55.2742 80.341 54.8904L80.3366 53.5807Z" fill="white"/>
<path d="M84.8176 50.5234C85.7218 50.5239 86.6001 50.8254 87.314 51.3802C88.0279 51.9351 88.5368 52.7118 88.7605 53.5878C88.9841 54.4639 88.9098 55.3895 88.5493 56.2187C88.1887 57.0479 87.5624 57.7334 86.7691 58.1673L88.4096 61.0146C89.4038 60.4581 90.2552 59.6782 90.8965 58.7364C91.5379 57.7946 91.9516 56.7167 92.1051 55.5877C92.2586 54.4587 92.1478 53.3095 91.7812 52.2306C91.4146 51.1518 90.8025 50.1729 89.9929 49.3711C89.1834 48.5693 88.1986 47.9666 87.1163 47.6104C86.034 47.2543 84.8837 47.1545 83.7562 47.3189C82.6287 47.4833 81.5549 47.9074 80.6193 48.5578C79.6838 49.2082 78.9121 50.067 78.3652 51.0666L81.2125 52.7092C81.5565 52.0504 82.0744 51.4984 82.7099 51.1131C83.3455 50.7277 84.0744 50.5238 84.8176 50.5234Z" fill="#407BFF"/>
<path opacity="0.6" d="M83.9412 62.8231C85.1992 62.8245 86.4363 62.5017 87.5331 61.8857L85.8927 59.0384C85.126 59.4582 84.2445 59.6199 83.3788 59.4997C82.513 59.3795 81.709 58.9837 81.0856 58.3709C80.4623 57.7582 80.0529 56.961 79.9179 56.0974C79.7829 55.2339 79.9295 54.3498 80.3361 53.576L77.4888 51.9333C76.8759 53.0534 76.5651 54.3138 76.587 55.5904C76.609 56.867 76.9629 58.1159 77.6139 59.2142C78.265 60.3126 79.1907 61.2225 80.3001 61.8545C81.4096 62.4865 82.6644 62.8188 83.9412 62.8188V62.8231Z" fill="white"/>
<path d="M75.0776 56.6447H68.3777C68.0083 56.644 67.6541 56.4976 67.3921 56.2373L65.5129 54.3559C65.4821 54.3251 65.4648 54.2833 65.4648 54.2398C65.4648 54.1963 65.4821 54.1545 65.5129 54.1237C65.5437 54.093 65.5854 54.0757 65.629 54.0757C65.6725 54.0757 65.7143 54.093 65.7451 54.1237L67.6243 56.0051C67.8245 56.2042 68.0953 56.3161 68.3777 56.3161H75.082C75.1255 56.3161 75.1673 56.3334 75.1981 56.3642C75.2289 56.3951 75.2462 56.4368 75.2462 56.4804C75.2465 56.5024 75.2424 56.5243 75.234 56.5447C75.2255 56.565 75.213 56.5835 75.1973 56.5988C75.1815 56.6142 75.1627 56.6262 75.1421 56.6341C75.1216 56.642 75.0996 56.6456 75.0776 56.6447Z" fill="#263238"/>
<path d="M32.8969 36.4728C34.4608 35.91 34.176 33.2926 33.7205 31.328C33.4839 30.3139 34.7871 29.5758 33.876 28.0952C33.024 26.6672 28.0193 25.2764 27.8901 27.8587C26.1379 28.3646 26.0853 29.9438 26.2584 32.4582C26.2584 32.4647 23.8053 39.745 32.8969 36.4728Z" fill="#2E353A"/>
<path d="M37.9082 43.3301L38.9573 40.0207L39.0208 39.3636C39.0252 39.3226 39.034 39.2822 39.0471 39.2431L39.4304 38.0473C39.4734 37.9155 39.5616 37.8032 39.6795 37.7302C39.7973 37.6573 39.9372 37.6284 40.0743 37.6487C40.181 37.6654 40.2811 37.7113 40.3634 37.7812C40.4457 37.8512 40.5071 37.9425 40.5408 38.0451L40.7927 38.8117C40.8229 38.9008 40.8306 38.9959 40.8154 39.0887C40.8001 39.1815 40.7622 39.2691 40.7051 39.3439L39.8816 40.439L39.1413 43.9696L37.9082 43.3301Z" fill="#B97964"/>
<path d="M34.8374 36.2251C34.8374 36.2251 35.6828 37.2917 36.2347 39.5739C36.7867 41.8562 37.1349 43.547 37.5116 43.5842C37.8884 43.6215 37.7788 42.7082 37.7788 42.7082L39.1784 43.3652C39.1784 43.3652 38.6987 45.8665 37.3758 45.8665C35.4616 45.8665 35.0345 43.6083 34.8374 42.5921C34.5329 41.0283 33.8802 37.7714 34.8374 36.2251Z" fill="#407BFF"/>
<path opacity="0.2" d="M34.8372 42.5902C34.9598 43.2297 35.1767 44.3621 35.7965 45.1111C35.8337 39.5984 35.0102 37.4957 34.5831 36.7773C34.0158 38.4507 34.5656 41.195 34.8372 42.5902Z" fill="black"/>
<path d="M35.0668 54.323L41.8258 88.4686L40.2073 88.9066C40.2073 88.9066 36.0699 78.963 34.6485 72.9793C34.4754 72.2543 34.344 71.5863 34.2652 71.0081C34.1583 70.202 33.9231 69.4183 33.5687 68.6865C33.3869 68.3119 33.1723 67.852 32.9445 67.322C32.2071 65.5958 31.6123 63.8121 31.166 61.9888C31.166 61.9888 28.7217 58.3092 29.0919 54.7764L35.0668 54.323Z" fill="#B97964"/>
<path d="M31.565 58.743L31.5256 89.5003H29.6727C29.6727 89.5003 27.316 77.1628 27.5657 72.1056V71.9588C27.6337 70.8309 27.4934 69.7002 27.1517 68.6231C27.0422 68.2792 26.9327 67.8894 26.8188 67.4579C26.3311 65.5237 26.0724 63.5389 26.0479 61.5443V57.7114L31.565 58.743Z" fill="#B97964"/>
<path d="M31.4381 88.8802L29.5064 88.9196C29.4655 88.9208 29.4261 88.9356 29.3947 88.9619C29.3633 88.9881 29.3417 89.0241 29.3333 89.0642L28.9654 90.8865C28.9562 90.93 28.9569 90.975 28.9674 91.0183C28.978 91.0615 28.998 91.1018 29.0262 91.1363C29.0543 91.1707 29.0898 91.1984 29.1301 91.2174C29.1704 91.2363 29.2144 91.246 29.2589 91.2457C30.0605 91.2172 30.7767 91.1602 31.7754 91.1427C32.9581 91.123 32.6515 91.2698 34.0489 91.2632C34.8855 91.2632 35.0213 90.3061 34.6665 90.2644C33.0392 90.0892 32.5617 89.6074 31.9244 89.0335C31.7868 88.9242 31.6136 88.8695 31.4381 88.8802Z" fill="#263238"/>
<path d="M41.9071 88.039L40.0125 88.4113C39.9726 88.4192 39.9366 88.4404 39.9104 88.4715C39.8841 88.5025 39.8692 88.5415 39.868 88.5822L39.8176 90.4417C39.8161 90.4808 39.8224 90.5198 39.836 90.5565C39.8497 90.5932 39.8704 90.6269 39.897 90.6556C39.9237 90.6842 39.9557 90.7074 39.9913 90.7237C40.0269 90.74 40.0654 90.7491 40.1045 90.7505H40.168C40.9543 90.5818 41.6486 90.4022 42.632 90.2139C43.7907 89.9949 43.5234 90.1854 44.8901 89.9401C45.7159 89.7912 45.683 88.8275 45.3282 88.845C43.6965 88.9545 43.138 88.5559 42.4152 88.1047C42.2598 88.0207 42.0787 87.9973 41.9071 88.039Z" fill="#263238"/>
<path opacity="0.1" d="M31.5537 66.7723V63.5483L26.249 64.3981C26.3751 65.4156 26.5638 66.4243 26.8141 67.4185C28.4122 67.3686 30.0007 67.1521 31.5537 66.7723Z" fill="black"/>
<path opacity="0.1" d="M36.9489 63.8284L31.9004 64.5358C32.1588 65.3155 32.4239 66.0295 32.6801 66.6647C34.2674 66.6383 35.8471 66.4393 37.3913 66.0712L36.9489 63.8284Z" fill="black"/>
<path d="M26.1284 54.9803C26.1284 54.9803 25.099 58.7584 26.1284 66.9499L38.0498 65.5284L35.4478 53.2281L32.6531 51.3643L29.0918 52.7901L26.1284 54.9803Z" fill="#263238"/>
<path opacity="0.5" d="M32.4414 57.9326C32.4414 57.9326 31.2214 60.6704 31.6003 66.3058L32.5071 66.1985C32.1272 63.4577 32.1051 60.6791 32.4414 57.9326Z" fill="black"/>
<path d="M32.6294 53.3329L33.4486 55.9897C34.2984 55.8517 35.2227 55.6918 36.2346 55.5034C36.2346 55.5034 34.5415 49.1014 35.0562 45.1283C35.5709 41.1553 34.8372 36.2251 34.8372 36.2251C34.8372 36.2251 30.6429 35.7104 24.9023 37.0355C24.9023 37.0355 27.6993 44.4669 27.2568 48.6612C26.8144 52.8555 25.2703 56.765 25.2703 56.765C25.2703 56.765 26.9962 56.9577 32.0271 56.2196L32.6294 53.3329Z" fill="#407BFF"/>
<path d="M35.0232 48.4227C34.9948 48.0548 34.9772 47.6868 34.9663 47.3276C32.338 48.1314 28.435 48.2037 27.3005 48.2212C27.3005 48.3724 27.2808 48.5191 27.2655 48.6593C27.2501 48.7995 27.2304 48.9681 27.2129 49.1236C31.1728 49.2485 33.7179 48.7754 35.0232 48.4227Z" fill="#263238"/>
<path d="M33.2136 48.3281C33.2399 48.7157 32.8632 49.0552 32.3748 49.0859C31.8863 49.1166 31.468 48.8318 31.4417 48.4442C31.4154 48.0565 31.7922 47.717 32.2828 47.6863C32.7734 47.6557 33.1895 47.9404 33.2136 48.3281Z" fill="#263238"/>
<path opacity="0.6" d="M33.2136 48.3281C33.2399 48.7157 32.8632 49.0552 32.3748 49.0859C31.8863 49.1166 31.468 48.8318 31.4417 48.4442C31.4154 48.0565 31.7922 47.717 32.2828 47.6863C32.7734 47.6557 33.1895 47.9404 33.2136 48.3281Z" fill="white"/>
<path d="M29.4404 47.9249L29.539 49.3726H29.9069L29.8084 47.8022L29.4404 47.9249Z" fill="#407BFF"/>
<path d="M34.125 47.3866L34.1732 48.8934H34.5411L34.493 47.2639L34.125 47.3866Z" fill="#407BFF"/>
<path d="M29.6725 35.9077C29.6725 35.9077 27.1581 35.2944 27.4297 38.041C27.4297 38.041 27.7473 37.0597 29.0483 37.673L28.7526 38.4571C29.6805 38.4866 30.589 38.7302 31.4071 39.1689C31.4071 39.1689 32.4081 38.4812 32.5023 37.7453L31.9372 37.2809C31.9372 37.2809 31.9372 36.5691 33.0323 37.1824C33.0454 37.1824 32.3095 34.8761 29.6725 35.9077Z" fill="#407BFF"/>
<path opacity="0.6" d="M29.6725 35.9077C29.6725 35.9077 27.1581 35.2944 27.4297 38.041C27.4297 38.041 27.7473 37.0597 29.0483 37.673L28.7526 38.4571C29.6805 38.4866 30.589 38.7302 31.4071 39.1689C31.4071 39.1689 32.4081 38.4812 32.5023 37.7453L31.9372 37.2809C31.9372 37.2809 31.9372 36.5691 33.0323 37.1824C33.0454 37.1824 32.3095 34.8761 29.6725 35.9077Z" fill="white"/>
<path opacity="0.2" d="M25.4912 38.7458C25.8088 39.7205 26.203 41.028 26.5425 42.432C26.4943 39.4642 25.9402 38.2837 25.9402 38.2837L25.4912 38.7458Z" fill="black"/>
<path d="M31.1141 38.7266C32.1764 38.6455 31.7953 37.0051 31.5215 36.1487C30.6257 36.1815 29.5788 36.256 28.4092 36.4071C28.8188 37.0949 29.9577 38.8164 31.1141 38.7266Z" fill="#B97964"/>
<path d="M24.9023 37.0356C24.9023 37.0356 23.7743 37.7716 23.0866 41.6702C22.3989 45.5687 23.2487 47.8028 25.3447 47.264C25.5791 47.2027 26.2756 46.9924 26.2756 46.9924V45.0321C26.2756 45.0321 25.59 45.3015 25.1958 44.835C24.8388 44.4101 25.1082 42.9098 25.9821 40.3385C26.2624 39.5172 26.2274 37.7453 24.9023 37.0356Z" fill="#407BFF"/>
<path d="M33.8249 40.8707L29.762 40.2026C29.762 40.2026 28.8859 42.7389 29.14 46.8587L33.1306 46.39C33.1306 46.39 32.9466 44.4385 33.8249 40.8707Z" fill="#263238"/>
<path opacity="0.7" d="M33.8249 40.8707L29.762 40.2026C29.762 40.2026 28.8859 42.7389 29.14 46.8587L33.1306 46.39C33.1306 46.39 32.9466 44.4385 33.8249 40.8707Z" fill="white"/>
<path d="M29.493 46.5586C29.493 46.5586 29.0966 41.9109 31.0087 40.0317L35.1416 40.7852C35.1416 40.7852 32.9514 43.8515 33.6567 46.7316L29.493 46.5586Z" fill="#263238"/>
<path opacity="0.8" d="M29.493 46.5586C29.493 46.5586 29.0966 41.9109 31.0087 40.0317L35.1416 40.7852C35.1416 40.7852 32.9514 43.8515 33.6567 46.7316L29.493 46.5586Z" fill="white"/>
<path d="M30.1462 45.5641L30.1357 45.7346L32.781 45.8964L32.7914 45.7259L30.1462 45.5641Z" fill="#263238"/>
<path d="M30.173 44.6293L30.1592 44.7996L32.805 45.0148L32.8188 44.8445L30.173 44.6293Z" fill="#263238"/>
<path d="M30.0132 43.8006L29.9961 43.9697L32.6978 44.2426L32.7149 44.0735L30.0132 43.8006Z" fill="#263238"/>
<path d="M30.4005 42.7467L30.3799 42.9163L33.1998 43.259L33.2205 43.0894L30.4005 42.7467Z" fill="#263238"/>
<path d="M31.0136 40.9127L30.9863 41.0813L33.9635 41.5635L33.9908 41.3949L31.0136 40.9127Z" fill="#263238"/>
<path d="M30.6421 41.8226L30.6182 41.9917L33.5413 42.4062L33.5653 42.237L30.6421 41.8226Z" fill="#263238"/>
<path d="M26.0546 45.3431L28.6543 44.7058L29.2545 43.7859C29.3179 43.6869 29.4165 43.6157 29.5304 43.5866L30.3452 43.3676C30.4113 43.3499 30.4806 43.3471 30.5479 43.3592C30.6153 43.3713 30.6792 43.3981 30.7351 43.4376C30.8152 43.4934 30.8761 43.5726 30.9094 43.6644C30.9427 43.7561 30.9469 43.856 30.9212 43.9502L30.6212 45.0256C30.6008 45.0994 30.5629 45.1673 30.5107 45.2234C30.4584 45.2794 30.3934 45.322 30.3211 45.3475L28.8515 45.8535L25.7852 46.9946L26.0546 45.3431Z" fill="#B97964"/>
<path d="M25.5635 44.8591V45.9389H26.0541L25.5635 46.331V47.5575L26.5447 47.1413V44.8591H25.5635Z" fill="#407BFF"/>
<path opacity="0.6" d="M25.5635 44.8591V45.9389H26.0541L25.5635 46.331V47.5575L26.5447 47.1413V44.8591H25.5635Z" fill="white"/>
<path d="M37.1475 43.2711L38.1024 43.7771L38.3324 43.3434L38.4485 43.9611L39.5326 44.5349L39.6246 43.4726L37.6074 42.4038L37.1475 43.2711Z" fill="#407BFF"/>
<path opacity="0.6" d="M37.1475 43.2711L38.1024 43.7771L38.3324 43.3434L38.4485 43.9611L39.5326 44.5349L39.6246 43.4726L37.6074 42.4038L37.1475 43.2711Z" fill="white"/>
<path d="M28.542 36.4377L28.7172 36.5932L30.9841 38.284L31.4769 38.1942L31.5032 36.2712C30.8089 35.9032 30.5855 35.0162 30.7322 34.3L28.761 32.7668C28.991 33.7919 29.1334 35.6098 28.542 36.4377Z" fill="#B97964"/>
<path opacity="0.1" d="M30.7388 35.1915C30.6787 34.9025 30.6787 34.6043 30.7388 34.3154L28.7676 32.7822C28.8264 33.0381 28.8717 33.2969 28.9034 33.5576C29.0687 33.9492 29.3192 34.299 29.6367 34.5817C29.9542 34.8643 30.3307 35.0726 30.7388 35.1915Z" fill="black"/>
<path d="M28.2356 30.5569C28.3779 32.3595 28.3998 33.1261 29.3307 34.0372C30.728 35.4039 32.9139 34.8388 33.3125 33.0275C33.6717 31.398 33.3782 28.7303 31.5975 28.0316C31.2053 27.8783 30.7805 27.8278 30.3632 27.8849C29.946 27.9419 29.5503 28.1047 29.2137 28.3577C28.8771 28.6107 28.6107 28.9456 28.4399 29.3305C28.2691 29.7154 28.1995 30.1376 28.2377 30.5569H28.2356Z" fill="#B97964"/>
<path d="M29.4801 27.8586C31.8258 28.6274 27.4563 32.02 27.5089 34.0022C26.5649 31.674 26.9066 27.0154 29.4801 27.8586Z" fill="#2E353A"/>
<path d="M28.7522 30.802C28.7522 30.802 29.5648 32.5082 29.1311 34.0019C28.5813 35.9052 29.7465 36.9762 29.7465 36.9762C29.3044 36.9107 28.8967 36.6996 28.5881 36.3763C28.2794 36.053 28.0874 35.6359 28.0425 35.1912C27.8608 33.588 27.5322 31.5576 27.5322 31.5576L28.7522 30.802Z" fill="#2E353A"/>
<path d="M31.9873 31.3389C32.138 31.7085 32.34 32.055 32.5874 32.3683C32.5055 32.4298 32.411 32.4725 32.3107 32.4933C32.2103 32.5142 32.1067 32.5126 32.007 32.4887L31.9873 31.3389Z" fill="#A24E3F"/>
<path d="M31.5126 33.332C31.6044 33.3328 31.6961 33.3247 31.7864 33.3079C31.7988 33.3057 31.8099 33.2988 31.8173 33.2886C31.8247 33.2783 31.8277 33.2656 31.8258 33.2531C31.8237 33.2407 31.8167 33.2296 31.8065 33.2222C31.7963 33.2149 31.7835 33.2118 31.7711 33.2137C31.5722 33.2528 31.3669 33.2446 31.1717 33.1898C30.9766 33.135 30.797 33.0352 30.6475 32.8983C30.6388 32.8887 30.6266 32.883 30.6137 32.8824C30.6007 32.8818 30.5881 32.8863 30.5785 32.895C30.5689 32.9037 30.5632 32.9159 30.5626 32.9288C30.5619 32.9418 30.5665 32.9544 30.5752 32.964C30.8282 33.2035 31.1643 33.3354 31.5126 33.332Z" fill="#2E353A"/>
<path d="M28.5158 27.8565C27.7908 29.1838 29.8847 28.4282 31.5689 28.9779C33.1306 29.4839 33.9212 30.498 33.7592 29.0261C33.5533 27.2126 29.6634 25.7671 28.5158 27.8565Z" fill="#2E353A"/>
<path d="M30.1146 30.6251C30.1275 30.6228 30.1397 30.6179 30.1506 30.6108C30.1616 30.6036 30.1709 30.5943 30.1781 30.5835C30.2422 30.482 30.3294 30.3971 30.4326 30.3359C30.5357 30.2746 30.6519 30.2386 30.7717 30.2308C30.7973 30.2265 30.8202 30.2125 30.8357 30.1917C30.8512 30.1709 30.8581 30.1449 30.8549 30.1191C30.8514 30.0985 30.8415 30.0796 30.8265 30.065C30.8115 30.0505 30.7923 30.041 30.7717 30.0381C30.6201 30.0452 30.4725 30.0887 30.3414 30.165C30.2102 30.2412 30.0994 30.3479 30.0182 30.4761C30.0047 30.4972 29.9999 30.5226 30.0048 30.5472C30.0097 30.5717 30.0239 30.5933 30.0445 30.6075C30.0544 30.6152 30.0657 30.6206 30.0777 30.6237C30.0898 30.6267 30.1024 30.6272 30.1146 30.6251Z" fill="#2E353A"/>
<path d="M33.0369 30.3073C33.0492 30.3066 33.0612 30.3033 33.0722 30.2977C33.0831 30.292 33.0928 30.2841 33.1004 30.2745C33.1085 30.2647 33.1146 30.2534 33.1183 30.2413C33.122 30.2292 33.1233 30.2165 33.122 30.2038C33.1208 30.1912 33.1171 30.179 33.1112 30.1678C33.1052 30.1566 33.0971 30.1467 33.0873 30.1387C32.9712 30.0404 32.8335 29.9709 32.6854 29.9358C32.5374 29.9008 32.3832 29.9013 32.2353 29.9372C32.2115 29.9461 32.1919 29.9637 32.1806 29.9864C32.1692 30.0092 32.1668 30.0354 32.174 30.0598C32.1777 30.0716 32.1837 30.0826 32.1917 30.092C32.1997 30.1015 32.2094 30.1093 32.2204 30.115C32.2314 30.1207 32.2434 30.1242 32.2557 30.1252C32.268 30.1263 32.2805 30.1249 32.2923 30.1211C32.41 30.0932 32.5327 30.0939 32.6501 30.1233C32.7675 30.1526 32.8761 30.2097 32.9668 30.2898C32.9765 30.2978 32.9878 30.3035 32.9999 30.3066C33.012 30.3096 33.0247 30.3099 33.0369 30.3073Z" fill="#2E353A"/>
<path d="M30.7287 31.3126C30.7396 31.455 30.8251 31.5645 30.9192 31.558C31.0134 31.5514 31.0791 31.4309 31.066 31.2864C31.0529 31.1418 30.9696 31.0345 30.8776 31.0411C30.7856 31.0476 30.7177 31.1703 30.7287 31.3126Z" fill="#2E353A"/>
<path d="M32.3419 31.1876C32.3529 31.33 32.4383 31.4395 32.5303 31.433C32.6223 31.4264 32.6902 31.3059 32.6792 31.1614C32.6683 31.0168 32.5851 30.9095 32.4931 30.9161C32.4011 30.9226 32.331 31.0453 32.3419 31.1876Z" fill="#2E353A"/>
<path d="M32.458 30.9268L32.7931 30.802C32.7931 30.802 32.631 31.0845 32.458 30.9268Z" fill="#2E353A"/>
<path d="M30.8379 31.0518L31.173 30.927C31.173 30.927 31.0175 31.2074 30.8379 31.0518Z" fill="#2E353A"/>
</g>
<defs>
<clipPath id="clip0_85_1256">
<rect width="109.511" height="109.511" fill="white" transform="translate(0.700195 0.00561523)"/>
</clipPath>
</defs>
</svg>
