<svg width="111" height="110" viewBox="0 0 111 110" fill="none" xmlns="http://www.w3.org/2000/svg">
<g clip-path="url(#clip0_85_5005)">
<path d="M99.2384 87.2837H91.9844V87.3384H99.2384V87.2837Z" fill="#EBEBEB"/>
<path d="M73.2451 87.8794H71.3418V87.9342H73.2451V87.8794Z" fill="#EBEBEB"/>
<path d="M91.7655 85.2515H87.5625V85.3062H91.7655V85.2515Z" fill="#EBEBEB"/>
<path d="M21.65 85.6196H12.1904V85.6744H21.65V85.6196Z" fill="#EBEBEB"/>
<path d="M24.988 85.6196H23.6016V85.6744H24.988V85.6196Z" fill="#EBEBEB"/>
<path d="M50.0131 86.5439H29.4951V86.5987H50.0131V86.5439Z" fill="#EBEBEB"/>
<path d="M52.6088 73.9912H10.32C9.98827 73.9912 9.67017 73.8595 9.43563 73.6249C9.2011 73.3904 9.06934 73.0723 9.06934 72.7406V13.2914C9.07222 12.9616 9.20526 12.6463 9.43948 12.4142C9.67371 12.182 9.99016 12.0517 10.32 12.0518H52.6088C52.9405 12.0518 53.2585 12.1835 53.4931 12.4181C53.7276 12.6526 53.8594 12.9707 53.8594 13.3024V72.7406C53.8594 73.0723 53.7276 73.3904 53.4931 73.6249C53.2585 73.8595 52.9405 73.9912 52.6088 73.9912ZM10.32 12.0956C10.003 12.0961 9.69913 12.2223 9.47499 12.4465C9.25085 12.6706 9.12467 12.9744 9.12409 13.2914V72.7406C9.12467 73.0576 9.25085 73.3614 9.47499 73.5856C9.69913 73.8097 10.003 73.9359 10.32 73.9365H52.6088C52.9258 73.9359 53.2296 73.8097 53.4537 73.5856C53.6779 73.3614 53.804 73.0576 53.8046 72.7406V13.2914C53.804 12.9744 53.6779 12.6706 53.4537 12.4465C53.2296 12.2223 52.9258 12.0961 52.6088 12.0956H10.32Z" fill="#EBEBEB"/>
<path d="M99.9852 73.9912H57.692C57.3605 73.9907 57.0428 73.8587 56.8083 73.6243C56.5739 73.3899 56.442 73.0721 56.4414 72.7406V13.2914C56.4449 12.9618 56.5781 12.6469 56.8122 12.4148C57.0463 12.1828 57.3624 12.0523 57.692 12.0518H99.9852C100.314 12.0529 100.63 12.1837 100.863 12.4157C101.096 12.6478 101.229 12.9624 101.231 13.2914V72.7406C101.231 73.0715 101.1 73.389 100.867 73.6234C100.633 73.8578 100.316 73.9901 99.9852 73.9912ZM57.692 12.0956C57.375 12.0961 57.0712 12.2223 56.8471 12.4465C56.6229 12.6706 56.4967 12.9744 56.4962 13.2914V72.7406C56.4967 73.0576 56.6229 73.3614 56.8471 73.5856C57.0712 73.8097 57.375 73.9359 57.692 73.9365H99.9852C100.302 73.9359 100.606 73.8097 100.83 73.5856C101.054 73.3614 101.181 73.0576 101.181 72.7406V13.2914C101.181 12.9744 101.054 12.6706 100.83 12.4465C100.606 12.2223 100.302 12.0961 99.9852 12.0956H57.692Z" fill="#EBEBEB"/>
<path d="M110.211 83.7603H0.700195V83.815H110.211V83.7603Z" fill="#EBEBEB"/>
<path d="M49.1047 62.1182H50.57V83.3984C50.57 83.4675 50.5425 83.5338 50.4936 83.5827C50.4448 83.6315 50.3785 83.659 50.3094 83.659H49.3632C49.294 83.659 49.2278 83.6315 49.1789 83.5827C49.13 83.5338 49.1025 83.4675 49.1025 83.3984V62.1182H49.1047Z" fill="#F0F0F0"/>
<path d="M94.4484 60.2041H81.7539V62.1184H94.4484V60.2041Z" fill="#E6E6E6"/>
<path d="M58.1826 62.1182H59.6479V83.3984C59.6479 83.4675 59.6204 83.5338 59.5715 83.5827C59.5227 83.6315 59.4564 83.659 59.3872 83.659H58.4433C58.3741 83.659 58.3078 83.6315 58.259 83.5827C58.2101 83.5338 58.1826 83.4675 58.1826 83.3984V62.1182Z" fill="#E6E6E6"/>
<path d="M92.1357 62.1182H93.601V83.3984C93.601 83.4675 93.5735 83.5338 93.5247 83.5827C93.4758 83.6315 93.4095 83.659 93.3404 83.659H92.3964C92.3273 83.659 92.261 83.6315 92.2121 83.5827C92.1632 83.5338 92.1357 83.4675 92.1357 83.3984V62.1182Z" fill="#E6E6E6"/>
<path d="M85.3738 60.2041H48.2627V62.1184H85.3738V60.2041Z" fill="#F5F5F5"/>
<path d="M83.053 62.1182H84.5182V83.3984C84.5182 83.4675 84.4908 83.5338 84.4419 83.5827C84.393 83.6315 84.3267 83.659 84.2576 83.659H83.3114C83.2423 83.659 83.176 83.6315 83.1271 83.5827C83.0782 83.5338 83.0508 83.4675 83.0508 83.3984V62.1182H83.053Z" fill="#F0F0F0"/>
<path d="M91.6974 60.2041H88.3311V59.9041C88.3312 59.7651 88.3595 59.6276 88.4144 59.5C88.4693 59.3723 88.5496 59.2571 88.6504 59.1615C88.7512 59.0658 88.8704 58.9916 89.0007 58.9434C89.1311 58.8953 89.2699 58.8741 89.4086 58.8812L90.7228 58.9535C90.9844 58.9675 91.2308 59.0815 91.4109 59.2718C91.591 59.4621 91.6912 59.7143 91.6909 59.9763L91.6974 60.2041Z" fill="#F0F0F0"/>
<path d="M82.6145 53.2431C82.6083 53.1155 82.5532 52.9951 82.4606 52.907C82.368 52.8189 82.2451 52.7699 82.1173 52.77H78.7071C78.5793 52.7699 78.4564 52.8189 78.3638 52.907C78.2713 52.9951 78.2162 53.1155 78.21 53.2431L79.0181 60.335H84.0973L82.6145 53.2431Z" fill="#E0E0E0"/>
<path d="M91.849 42.3409H90.5809L89.1572 55.7341H90.4232C90.5275 55.7313 90.6274 55.6914 90.7049 55.6216C90.7824 55.5517 90.8324 55.4565 90.8459 55.353L92.1885 42.7154C92.1941 42.6678 92.1895 42.6196 92.1749 42.574C92.1604 42.5283 92.1362 42.4864 92.104 42.4509C92.0718 42.4154 92.0324 42.3872 91.9884 42.3682C91.9445 42.3492 91.8969 42.3399 91.849 42.3409Z" fill="#E0E0E0"/>
<path d="M89.888 55.7334H70.8856C70.8371 55.7345 70.7889 55.725 70.7444 55.7056C70.6999 55.6863 70.6601 55.6575 70.6279 55.6212C70.5956 55.585 70.5715 55.5422 70.5574 55.4957C70.5433 55.4493 70.5395 55.4003 70.5462 55.3523L71.8822 42.7147C71.8957 42.6116 71.9453 42.5166 72.0224 42.4468C72.0994 42.377 72.1988 42.3369 72.3027 42.3336H91.3051C91.3536 42.3325 91.4018 42.3419 91.4463 42.3613C91.4908 42.3807 91.5306 42.4095 91.5629 42.4457C91.5952 42.4819 91.6192 42.5248 91.6333 42.5712C91.6474 42.6177 91.6512 42.6666 91.6446 42.7147L90.302 55.3457C90.2901 55.4489 90.242 55.5445 90.1662 55.6156C90.0904 55.6866 89.9918 55.7283 89.888 55.7334Z" fill="#EBEBEB"/>
<path d="M89.5339 54.4964H71.6135C71.5714 54.4971 71.5297 54.4887 71.4912 54.4718C71.4526 54.4549 71.4182 54.4299 71.3901 54.3986C71.3621 54.3672 71.3411 54.3302 71.3286 54.29C71.3162 54.2498 71.3125 54.2074 71.3178 54.1657L72.4896 43.1533C72.5006 43.0628 72.5439 42.9793 72.6115 42.9182C72.6791 42.857 72.7664 42.8223 72.8575 42.8203H90.7757C90.8181 42.8197 90.8601 42.8282 90.8989 42.8451C90.9377 42.8621 90.9724 42.8873 91.0006 42.9188C91.0289 42.9504 91.05 42.9877 91.0626 43.0281C91.0752 43.0686 91.0789 43.1112 91.0736 43.1533L89.8997 54.1745C89.8863 54.2626 89.8423 54.3432 89.7754 54.402C89.7085 54.4609 89.623 54.4943 89.5339 54.4964Z" fill="#FAFAFA"/>
<path d="M84.2881 59.7837H78.0416C78.0053 59.7834 77.9693 59.7903 77.9357 59.8041C77.902 59.8179 77.8715 59.8382 77.8458 59.8639C77.8201 59.8896 77.7998 59.9201 77.786 59.9537C77.7723 59.9873 77.7653 60.0233 77.7656 60.0597C77.7656 60.1329 77.7947 60.2031 77.8465 60.2548C77.8982 60.3066 77.9684 60.3356 78.0416 60.3356H84.2881C84.3611 60.3351 84.431 60.3058 84.4826 60.2542C84.5343 60.2025 84.5635 60.1327 84.5641 60.0597C84.5641 59.9865 84.535 59.9163 84.4833 59.8645C84.4315 59.8128 84.3613 59.7837 84.2881 59.7837Z" fill="#E0E0E0"/>
<path d="M82.4039 59.4155H71.8076V60.204H82.4039V59.4155Z" fill="#EBEBEB"/>
<path d="M66.9127 62.9873H51.3184V83.7397H66.9127V62.9873Z" fill="#F5F5F5"/>
<path d="M69.8894 62.9873H66.915V83.7397H69.8894V62.9873Z" fill="#E6E6E6"/>
<path d="M65.9029 64.5273H52.4111V69.567H65.9029V64.5273Z" fill="#FAFAFA"/>
<path d="M65.9029 70.1172H52.4111V75.1569H65.9029V70.1172Z" fill="#FAFAFA"/>
<path d="M65.9029 75.7085H52.4111V80.7482H65.9029V75.7085Z" fill="#FAFAFA"/>
<path d="M59.7205 67.0487C59.7205 67.1601 59.6875 67.2689 59.6256 67.3614C59.5638 67.454 59.4759 67.5262 59.373 67.5688C59.2702 67.6114 59.157 67.6225 59.0478 67.6008C58.9386 67.5791 58.8383 67.5255 58.7596 67.4467C58.6809 67.368 58.6273 67.2677 58.6055 67.1585C58.5838 67.0494 58.595 66.9362 58.6376 66.8333C58.6802 66.7305 58.7523 66.6426 58.8449 66.5807C58.9375 66.5189 59.0463 66.4858 59.1576 66.4858C59.3069 66.4858 59.4501 66.5451 59.5556 66.6507C59.6612 66.7563 59.7205 66.8994 59.7205 67.0487Z" fill="#EBEBEB"/>
<path d="M59.7205 72.6381C59.7205 72.7494 59.6875 72.8582 59.6256 72.9508C59.5638 73.0434 59.4759 73.1155 59.373 73.1581C59.2702 73.2007 59.157 73.2119 59.0478 73.1902C58.9386 73.1684 58.8383 73.1148 58.7596 73.0361C58.6809 72.9574 58.6273 72.8571 58.6055 72.7479C58.5838 72.6387 58.595 72.5255 58.6376 72.4227C58.6802 72.3198 58.7523 72.2319 58.8449 72.1701C58.9375 72.1082 59.0463 72.0752 59.1576 72.0752C59.2316 72.0749 59.3049 72.0893 59.3734 72.1175C59.4418 72.1456 59.504 72.1871 59.5563 72.2394C59.6086 72.2917 59.6501 72.3539 59.6782 72.4223C59.7064 72.4908 59.7208 72.5641 59.7205 72.6381Z" fill="#EBEBEB"/>
<path d="M59.7205 78.2274C59.7205 78.3388 59.6875 78.4476 59.6256 78.5402C59.5638 78.6327 59.4759 78.7049 59.373 78.7475C59.2702 78.7901 59.157 78.8012 59.0478 78.7795C58.9386 78.7578 58.8383 78.7042 58.7596 78.6255C58.6809 78.5467 58.6273 78.4464 58.6055 78.3373C58.5838 78.2281 58.595 78.1149 58.6376 78.012C58.6802 77.9092 58.7523 77.8213 58.8449 77.7594C58.9375 77.6976 59.0463 77.6646 59.1576 77.6646C59.3069 77.6646 59.4501 77.7239 59.5556 77.8294C59.6612 77.935 59.7205 78.0782 59.7205 78.2274Z" fill="#EBEBEB"/>
<path d="M41.2697 29.3042H19.8516V83.2669H41.2697V29.3042Z" fill="#E0E0E0"/>
<path d="M41.2695 28.8315V83.7404H45.2119V28.8315H41.2695Z" fill="#E0E0E0"/>
<path d="M16.0957 28.8315V83.7404H20.0381V28.8315H16.0957Z" fill="#E6E6E6"/>
<path d="M15.4248 28.8315V83.7404H41.7425V28.8315H15.4248ZM40.7963 29.7777V39.6337H16.371V29.7777H40.7963ZM16.371 61.2096V51.3536H40.7963V61.2096H16.371ZM40.7963 62.1558V72.0008H16.371V62.1558H40.7963ZM16.371 50.4162V40.5711H40.7963V50.4162H16.371ZM16.371 82.7942V72.9404H40.7963V82.7964L16.371 82.7942Z" fill="#F0F0F0"/>
<path d="M32.2617 61.2993H33.1729V53.6598H32.2617V61.2993Z" fill="#E6E6E6"/>
<path d="M33.1748 61.2993H34.0859V53.6598H33.1748V61.2993Z" fill="#E0E0E0"/>
<path d="M30.4416 61.2993H32.2617V54.1964H30.4416V61.2993Z" fill="#E6E6E6"/>
<path d="M28.3561 61.2993H29.5322V53.6598H28.3561V61.2993Z" fill="#F0F0F0"/>
<path d="M29.5303 61.2993H30.4414V53.6598H29.5303V61.2993Z" fill="#EBEBEB"/>
<path d="M21.4528 61.2993H22.6289V53.6598H21.4528V61.2993Z" fill="#E6E6E6"/>
<path d="M22.627 61.2993H23.5381V53.6598H22.627V61.2993Z" fill="#EBEBEB"/>
<path d="M25.36 61.2993H26.5361V53.6598H25.36V61.2993Z" fill="#E6E6E6"/>
<path d="M26.5361 61.2993H27.4473V53.6598H26.5361V61.2993Z" fill="#E0E0E0"/>
<path d="M19.6301 61.2993H21.4502V53.8416H19.6301V61.2993Z" fill="#EBEBEB"/>
<path d="M18.7197 61.2993H19.6309V53.8416H18.7197V61.2993Z" fill="#E0E0E0"/>
<path d="M24.144 61.2993H25.3574V53.8416H24.144V61.2993Z" fill="#E0E0E0"/>
<path d="M23.5378 61.2993H24.1445V53.8416H23.5378V61.2993Z" fill="#F0F0F0"/>
<path d="M26.5364 61.2993H28.3564V54.1964H26.5364V61.2993Z" fill="#F5F5F5"/>
<path d="M36.8151 61.2993H37.9912V53.6598H36.8151V61.2993Z" fill="#EBEBEB"/>
<path d="M37.9912 61.2993H38.9023V53.6598H37.9912V61.2993Z" fill="#E6E6E6"/>
<path d="M34.9944 61.2993H36.8145V53.8416H34.9944V61.2993Z" fill="#E0E0E0"/>
<path d="M34.084 61.2993H34.9951V53.8416H34.084V61.2993Z" fill="#EBEBEB"/>
<path d="M39.5093 61.2993H40.7227V53.8416H39.5093V61.2993Z" fill="#EBEBEB"/>
<path d="M38.9021 61.2993H39.5088V53.8416H38.9021V61.2993Z" fill="#FAFAFA"/>
<path d="M27.1807 64.5474H26.2695V72.1869H27.1807V64.5474Z" fill="#E6E6E6"/>
<path d="M26.2686 64.5474H25.3574V72.1869H26.2686V64.5474Z" fill="#E0E0E0"/>
<path d="M28.9998 64.5474H27.1797V71.6503H28.9998V64.5474Z" fill="#E6E6E6"/>
<path d="M31.0853 64.5474H29.9092V72.1869H31.0853V64.5474Z" fill="#F0F0F0"/>
<path d="M29.9111 64.5474H29V72.1869H29.9111V64.5474Z" fill="#EBEBEB"/>
<path d="M37.9906 64.5474H36.8145V72.1869H37.9906V64.5474Z" fill="#E6E6E6"/>
<path d="M36.8145 64.5474H35.9033V72.1869H36.8145V64.5474Z" fill="#EBEBEB"/>
<path d="M34.0834 64.5474H32.9072V72.1869H34.0834V64.5474Z" fill="#E6E6E6"/>
<path d="M32.9072 64.5474H31.9961V72.1869H32.9072V64.5474Z" fill="#E0E0E0"/>
<path d="M39.8113 64.5474H37.9912V72.0051H39.8113V64.5474Z" fill="#EBEBEB"/>
<path d="M40.7217 64.5474H39.8105V72.0051H40.7217V64.5474Z" fill="#E0E0E0"/>
<path d="M35.2974 64.5474H34.084V72.0051H35.2974V64.5474Z" fill="#E0E0E0"/>
<path d="M35.9036 64.5474H35.2969V72.0051H35.9036V64.5474Z" fill="#F0F0F0"/>
<path d="M32.908 64.5474H31.0879V71.6503H32.908V64.5474Z" fill="#F5F5F5"/>
<path d="M22.6263 64.5474H21.4502V72.1869H22.6263V64.5474Z" fill="#EBEBEB"/>
<path d="M21.4521 64.5474H20.541V72.1869H21.4521V64.5474Z" fill="#E6E6E6"/>
<path d="M24.447 64.5474H22.627V72.0051H24.447V64.5474Z" fill="#E0E0E0"/>
<path d="M25.3604 64.5474H24.4492V72.0051H25.3604V64.5474Z" fill="#EBEBEB"/>
<path d="M19.9331 64.5474H18.7197V72.0051H19.9331V64.5474Z" fill="#EBEBEB"/>
<path d="M20.5393 64.5474H19.9326V72.0051H20.5393V64.5474Z" fill="#FAFAFA"/>
<path d="M32.2617 83.0742H33.1729V75.4347H32.2617V83.0742Z" fill="#E6E6E6"/>
<path d="M33.1748 83.0742H34.0859V75.4347H33.1748V83.0742Z" fill="#E0E0E0"/>
<path d="M30.4416 83.0742H32.2617V75.9713H30.4416V83.0742Z" fill="#E6E6E6"/>
<path d="M28.3561 83.0742H29.5322V75.4347H28.3561V83.0742Z" fill="#F0F0F0"/>
<path d="M29.5303 83.0742H30.4414V75.4347H29.5303V83.0742Z" fill="#EBEBEB"/>
<path d="M21.4528 83.0742H22.6289V75.4347H21.4528V83.0742Z" fill="#E6E6E6"/>
<path d="M22.627 83.0742H23.5381V75.4347H22.627V83.0742Z" fill="#EBEBEB"/>
<path d="M25.36 83.0742H26.5361V75.4347H25.36V83.0742Z" fill="#E6E6E6"/>
<path d="M26.5361 83.0742H27.4473V75.4347H26.5361V83.0742Z" fill="#E0E0E0"/>
<path d="M19.6301 83.0718H21.4502V75.6141H19.6301V83.0718Z" fill="#EBEBEB"/>
<path d="M18.7197 83.0718H19.6309V75.6141H18.7197V83.0718Z" fill="#E0E0E0"/>
<path d="M24.144 83.0718H25.3574V75.6141H24.144V83.0718Z" fill="#E0E0E0"/>
<path d="M23.5378 83.0718H24.1445V75.6141H23.5378V83.0718Z" fill="#F0F0F0"/>
<path d="M26.5364 83.0742H28.3564V75.9713H26.5364V83.0742Z" fill="#F5F5F5"/>
<path d="M36.8151 83.0742H37.9912V75.4347H36.8151V83.0742Z" fill="#EBEBEB"/>
<path d="M37.9912 83.0742H38.9023V75.4347H37.9912V83.0742Z" fill="#E6E6E6"/>
<path d="M34.9944 83.0718H36.8145V75.6141H34.9944V83.0718Z" fill="#E0E0E0"/>
<path d="M34.084 83.0718H34.9951V75.6141H34.084V83.0718Z" fill="#EBEBEB"/>
<path d="M39.5093 83.0718H40.7227V75.6141H39.5093V83.0718Z" fill="#EBEBEB"/>
<path d="M38.9021 83.0718H39.5088V75.6141H38.9021V83.0718Z" fill="#FAFAFA"/>
<path d="M27.1278 39.7429L26.7139 35.0229H32.7019L33.1137 39.7429H27.1278Z" fill="#F0F0F0"/>
<path d="M27.1275 39.7429L26.7136 35.0229H26.3916L26.8056 39.7429H27.1275Z" fill="#E0E0E0"/>
<path d="M27.6947 39.2633L27.3662 35.5049H32.1321L32.4607 39.2633H27.6947Z" fill="#FAFAFA"/>
<path d="M28.0609 38.9521L27.7871 35.8135H31.7667L32.0427 38.9521H28.0609Z" fill="#EBEBEB"/>
<path d="M20.3768 39.7431H26.3911L25.7231 32.1167H19.7109L20.3768 39.7431Z" fill="#EBEBEB"/>
<path d="M20.3776 39.7431H20.0906L19.4248 32.1167H19.7117L20.3776 39.7431Z" fill="#E0E0E0"/>
<path d="M20.9226 38.9653H25.7104L25.1804 32.894H20.3926L20.9226 38.9653Z" fill="#E0E0E0"/>
<path d="M21.2735 38.4661H25.2728L24.8304 33.3936H20.8311L21.2735 38.4661Z" fill="#FAFAFA"/>
<path d="M22.6403 34.3612L21.9759 35.0256C21.7039 35.2976 21.7039 35.7386 21.9759 36.0106L22.6403 36.675C22.9123 36.947 23.3533 36.947 23.6253 36.675L24.2897 36.0106C24.5617 35.7386 24.5617 35.2976 24.2897 35.0256L23.6253 34.3612C23.3533 34.0892 22.9123 34.0892 22.6403 34.3612Z" fill="#EBEBEB"/>
<path d="M23.0407 36.0164L22.5745 36.4826C22.3025 36.7546 22.3025 37.1956 22.5745 37.4676L23.0407 37.9338C23.3127 38.2058 23.7537 38.2058 24.0257 37.9338L24.4918 37.4676C24.7638 37.1956 24.7638 36.7546 24.4918 36.4826L24.0257 36.0164C23.7537 35.7444 23.3127 35.7444 23.0407 36.0164Z" fill="#E6E6E6"/>
<path d="M34.2461 39.7432L37.1919 36.7974L40.1378 39.7432H34.2461Z" fill="#F5F5F5"/>
<path d="M37.1919 36.7974L34.2461 39.7432H37.1919V36.7974Z" fill="#E6E6E6"/>
<path d="M25.3953 47.2828C26.4867 46.1914 26.4867 44.4219 25.3953 43.3305C24.3039 42.2391 22.5344 42.2391 21.443 43.3305C20.3516 44.4219 20.3516 46.1914 21.443 47.2828C22.5344 48.3742 24.3039 48.3742 25.3953 47.2828Z" fill="#F0F0F0"/>
<path d="M23.6145 50.2449H23.2246V48.3942H23.4195C24.2386 48.3942 25.0241 48.0688 25.6032 47.4897C26.1824 46.9105 26.5078 46.125 26.5078 45.306C26.5078 44.4869 26.1824 43.7014 25.6032 43.1223C25.0241 42.5431 24.2386 42.2178 23.4195 42.2178V41.8389C24.322 41.8435 25.1873 42.1988 25.8326 42.8296C26.478 43.4604 26.8529 44.3173 26.8782 45.2194C26.9035 46.1215 26.5772 46.9981 25.9682 47.664C25.3592 48.33 24.5152 48.7332 23.6145 48.7884V50.2449Z" fill="#EBEBEB"/>
<path d="M25.0621 50.2893H21.7373C21.7373 50.0916 21.8157 49.902 21.9553 49.762C22.0949 49.622 22.2843 49.5431 22.482 49.5425H24.3152C24.5133 49.5425 24.7032 49.6212 24.8433 49.7612C24.9834 49.9013 25.0621 50.0913 25.0621 50.2893Z" fill="#EBEBEB"/>
<path d="M30.6494 50.1615V48.2254C30.6 48.2254 30.5527 48.2057 30.5178 48.1708C30.4829 48.1359 30.4632 48.0886 30.4632 48.0392C30.4632 47.9898 30.4829 47.9425 30.5178 47.9076C30.5527 47.8726 30.6 47.853 30.6494 47.853C31.3853 47.853 32.1256 47.853 32.8637 47.853V50.5404H30.6494C30.5992 50.5404 30.551 50.5205 30.5155 50.4849C30.4799 50.4494 30.46 50.4012 30.46 50.351C30.46 50.3007 30.4799 50.2525 30.5155 50.217C30.551 50.1815 30.5992 50.1615 30.6494 50.1615Z" fill="#EBEBEB"/>
<path d="M32.3709 48.2256H30.6494V50.1596H32.3709V48.2256Z" fill="#F5F5F5"/>
<path d="M32.0078 50.3459H37.974C38.3835 50.3459 38.7165 49.8312 38.7165 49.1938C38.7165 48.5564 38.3835 48.0396 37.974 48.0396H32.0078V50.3459Z" fill="#FAFAFA"/>
<path d="M32.0075 47.8535C33.9611 47.8535 35.917 47.8184 37.8685 47.8535C39.2067 47.8776 39.279 50.4423 37.9671 50.5321C37.0515 50.5956 36.1119 50.5321 35.1964 50.5321H32.0075C31.9618 50.5271 31.9197 50.5055 31.889 50.4713C31.8584 50.4372 31.8415 50.3929 31.8415 50.347C31.8415 50.3011 31.8584 50.2569 31.889 50.2227C31.9197 50.1886 31.9618 50.1669 32.0075 50.162H37.5597C37.9977 50.162 38.2956 50.162 38.4599 49.6516C38.6044 49.2136 38.5584 48.3222 37.9736 48.2258C37.9066 48.2203 37.8392 48.2203 37.7721 48.2258H32.0075C31.9581 48.2258 31.9107 48.2062 31.8758 48.1713C31.8409 48.1364 31.8213 48.089 31.8213 48.0396C31.8213 47.9903 31.8409 47.9429 31.8758 47.908C31.9107 47.8731 31.9581 47.8535 32.0075 47.8535Z" fill="#EBEBEB"/>
<path d="M30.6494 47.5009V45.5625C30.6038 45.5576 30.5616 45.5359 30.531 45.5018C30.5004 45.4676 30.4834 45.4233 30.4834 45.3775C30.4834 45.3316 30.5004 45.2873 30.531 45.2531C30.5616 45.219 30.6038 45.1974 30.6494 45.1924C31.3853 45.1924 32.1256 45.1924 32.8637 45.1924V47.8798H30.6494C30.5992 47.8798 30.551 47.8598 30.5155 47.8243C30.4799 47.7888 30.46 47.7406 30.46 47.6903C30.46 47.6401 30.4799 47.5919 30.5155 47.5564C30.551 47.5208 30.5992 47.5009 30.6494 47.5009Z" fill="#EBEBEB"/>
<path d="M32.3709 45.5649H30.6494V47.4989H32.3709V45.5649Z" fill="#F5F5F5"/>
<path d="M32.0078 47.6869H37.974C38.3835 47.6869 38.7165 47.17 38.7165 46.5327C38.7165 45.8953 38.3835 45.3784 37.974 45.3784H32.0078V47.6869Z" fill="#FAFAFA"/>
<path d="M32.0068 45.1943C33.9605 45.1943 35.9164 45.1592 37.8679 45.1943C39.2061 45.2184 39.2784 47.7809 37.9664 47.8707C37.0509 47.9343 36.1113 47.8707 35.1958 47.8707H32.0068C31.9612 47.8658 31.919 47.8441 31.8884 47.81C31.8578 47.7758 31.8408 47.7315 31.8408 47.6857C31.8408 47.6398 31.8578 47.5955 31.8884 47.5614C31.919 47.5272 31.9612 47.5056 32.0068 47.5006H37.559C37.9971 47.5006 38.295 47.5006 38.4592 46.9903C38.6038 46.5522 38.5578 45.6608 37.973 45.5644C37.9059 45.559 37.8385 45.559 37.7715 45.5644H32.0068C31.9612 45.5595 31.919 45.5378 31.8884 45.5037C31.8578 45.4695 31.8408 45.4252 31.8408 45.3794C31.8408 45.3335 31.8578 45.2892 31.8884 45.2551C31.919 45.2209 31.9612 45.1993 32.0068 45.1943Z" fill="#EBEBEB"/>
<path d="M54.3998 92.8073C77.8533 92.8073 96.866 91.6973 96.866 90.328C96.866 88.9587 77.8533 87.8486 54.3998 87.8486C30.9464 87.8486 11.9336 88.9587 11.9336 90.328C11.9336 91.6973 30.9464 92.8073 54.3998 92.8073Z" fill="#F5F5F5"/>
<path d="M67.7454 72.9067C67.7454 72.9067 65.1894 70.8938 63.0759 72.8169L63.9257 72.9286L62.6553 73.2615C62.4788 73.4759 62.3192 73.7036 62.1779 73.9426C61.9917 74.2536 61.8231 74.5428 61.6632 74.8187L62.513 74.9939L61.1989 75.6072C59.865 77.9573 59.6416 78.6735 59.6416 78.6735C60.4919 78.6716 61.3397 78.5813 62.1713 78.4041L62.9226 76.4504L63.0759 78.1763C63.9856 77.9186 64.8422 77.5011 65.6056 76.9432L65.2749 75.1911L66.2889 76.3344C66.8658 75.7305 67.2855 74.9942 67.5111 74.1901L66.9372 73.6382L67.614 73.7762C67.6781 73.4898 67.722 73.1992 67.7454 72.9067Z" fill="#407BFF"/>
<path opacity="0.2" d="M67.7454 72.9067C67.7454 72.9067 65.1894 70.8938 63.0759 72.8169L63.9257 72.9286L62.6553 73.2615C62.4788 73.4759 62.3192 73.7036 62.1779 73.9426C61.9917 74.2536 61.8231 74.5428 61.6632 74.8187L62.513 74.9939L61.1989 75.6072C59.865 77.9573 59.6416 78.6735 59.6416 78.6735C60.4919 78.6716 61.3397 78.5813 62.1713 78.4041L62.9226 76.4504L63.0759 78.1763C63.9856 77.9186 64.8422 77.5011 65.6056 76.9432L65.2749 75.1911L66.2889 76.3344C66.8658 75.7305 67.2855 74.9942 67.5111 74.1901L66.9372 73.6382L67.614 73.7762C67.6781 73.4898 67.722 73.1992 67.7454 72.9067Z" fill="white"/>
<path d="M72.7725 71.4065C72.7725 71.4065 76.0753 68.8045 78.8065 71.2904L77.7114 71.4349L79.3519 71.873C79.579 72.1494 79.7855 72.4422 79.9695 72.7491C80.2083 73.1499 80.4295 73.5244 80.6266 73.877L79.5315 74.0961L81.2136 74.8867C82.9373 77.9246 83.2264 78.8488 83.2264 78.8488C82.1272 78.847 81.0313 78.7303 79.9564 78.5006L78.9883 75.9753L78.7934 78.1961C77.6177 77.8643 76.5104 77.3259 75.5234 76.606L75.9614 74.3501L74.6473 75.8263C73.902 75.046 73.3597 74.0946 73.0681 73.0557L73.8106 72.3417L72.9345 72.5213C72.8547 72.1539 72.8005 71.7814 72.7725 71.4065Z" fill="#407BFF"/>
<path opacity="0.3" d="M72.7725 71.4065C72.7725 71.4065 76.0753 68.8045 78.8065 71.2904L77.7114 71.4349L79.3519 71.873C79.579 72.1494 79.7855 72.4422 79.9695 72.7491C80.2083 73.1499 80.4295 73.5244 80.6266 73.877L79.5315 74.0961L81.2136 74.8867C82.9373 77.9246 83.2264 78.8488 83.2264 78.8488C82.1272 78.847 81.0313 78.7303 79.9564 78.5006L78.9883 75.9753L78.7934 78.1961C77.6177 77.8643 76.5104 77.3259 75.5234 76.606L75.9614 74.3501L74.6473 75.8263C73.902 75.046 73.3597 74.0946 73.0681 73.0557L73.8106 72.3417L72.9345 72.5213C72.8547 72.1539 72.8005 71.7814 72.7725 71.4065Z" fill="white"/>
<path d="M71.4207 66.6341C71.4207 66.6341 70.9257 70.8108 67.2374 70.9839L67.912 70.1078L66.4489 70.9685C66.0907 70.9326 65.7357 70.8704 65.3866 70.7823C64.9355 70.6685 64.5105 70.5633 64.1207 70.4538L64.7339 69.5186L62.9818 70.1494C59.6154 69.2185 58.7568 68.7717 58.7568 68.7717C59.5352 67.9953 60.3926 67.3023 61.315 66.7042L63.7856 67.7993L62.3488 66.0843C63.4146 65.4871 64.5783 65.0844 65.7853 64.895L67.0775 66.794L66.9636 64.8228C68.0393 64.8485 69.0923 65.1381 70.0299 65.666L70.0102 66.6954L70.5008 65.9507C70.8236 66.156 71.131 66.3843 71.4207 66.6341Z" fill="#407BFF"/>
<path opacity="0.5" d="M71.4207 66.6341C71.4207 66.6341 70.9257 70.8108 67.2374 70.9839L67.912 70.1078L66.4489 70.9685C66.0907 70.9326 65.7357 70.8704 65.3866 70.7823C64.9355 70.6685 64.5105 70.5633 64.1207 70.4538L64.7339 69.5186L62.9818 70.1494C59.6154 69.2185 58.7568 68.7717 58.7568 68.7717C59.5352 67.9953 60.3926 67.3023 61.315 66.7042L63.7856 67.7993L62.3488 66.0843C63.4146 65.4871 64.5783 65.0844 65.7853 64.895L67.0775 66.794L66.9636 64.8228C68.0393 64.8485 69.0923 65.1381 70.0299 65.666L70.0102 66.6954L70.5008 65.9507C70.8236 66.156 71.131 66.3843 71.4207 66.6341Z" fill="white"/>
<path d="M63.376 74.7596C63.376 74.7596 69.0246 66.8178 70.8381 78.5268H70.181C70.181 78.5268 69.5743 73.1585 67.4213 72.7643C65.2683 72.3701 63.376 74.7596 63.376 74.7596Z" fill="#407BFF"/>
<path d="M77.3865 73.3054C77.3865 73.3054 71.9394 62.2929 70.1895 78.5269H70.8137C70.8137 78.5269 71.4094 71.0801 73.4835 70.5369C75.5577 69.9938 77.3865 73.3054 77.3865 73.3054Z" fill="#407BFF"/>
<path d="M64.4492 68.4149C64.4492 68.4149 72.7151 67.1402 71.4207 78.6893H72.0778C72.0778 78.6893 73.6679 67.184 64.4492 68.4149Z" fill="#407BFF"/>
<path d="M65.4609 77.7583L67.6512 90.0717H74.73L76.9202 77.7583H65.4609Z" fill="#263238"/>
<path opacity="0.5" d="M65.4609 77.7583L67.6512 90.0717H74.73L76.9202 77.7583H65.4609Z" fill="white"/>
<path d="M39.8174 56.0474V59.3612C39.818 59.9779 40.0632 60.5692 40.4993 61.0053C40.9354 61.4414 41.5267 61.6866 42.1434 61.6872H73.8534C74.4696 61.686 75.0601 61.4405 75.4953 61.0044C75.9306 60.5683 76.1751 59.9773 76.1751 59.3612V56.0474H39.8174Z" fill="#407BFF"/>
<path d="M73.8491 34.8242H42.1434C40.8588 34.8242 39.8174 35.8656 39.8174 37.1502V58.9232C39.8174 60.2079 40.8588 61.2492 42.1434 61.2492H73.8491C75.1337 61.2492 76.1751 60.2079 76.1751 58.9232V37.1502C76.1751 35.8656 75.1337 34.8242 73.8491 34.8242Z" fill="#407BFF"/>
<path opacity="0.8" d="M73.8491 34.8242H42.1434C40.8588 34.8242 39.8174 35.8656 39.8174 37.1502V58.9232C39.8174 60.2079 40.8588 61.2492 42.1434 61.2492H73.8491C75.1337 61.2492 76.1751 60.2079 76.1751 58.9232V37.1502C76.1751 35.8656 75.1337 34.8242 73.8491 34.8242Z" fill="white"/>
<path d="M54.1132 56.1898H53.5635V55.8569H55.0594V56.1811H54.5097V57.5741H54.1132V56.1898Z" fill="#263238"/>
<path d="M56.3669 57.5825L56.0361 57.1029H55.6748V57.5825H55.2783V55.8566H56.0208C56.1569 55.8539 56.292 55.88 56.4172 55.9333C56.5227 55.9799 56.6125 56.0559 56.6757 56.1523C56.7377 56.2512 56.769 56.3663 56.7655 56.483C56.7689 56.6 56.7368 56.7153 56.6735 56.8138C56.6102 56.9109 56.5195 56.9871 56.4129 57.0328L56.7983 57.5847L56.3669 57.5825ZM56.2661 56.2684C56.1875 56.2115 56.0913 56.1843 55.9945 56.1918H55.6748V56.7897H55.9989C56.0959 56.7965 56.1922 56.7685 56.2705 56.7108C56.2996 56.6823 56.3228 56.6482 56.3386 56.6106C56.3544 56.573 56.3625 56.5326 56.3625 56.4918C56.3625 56.451 56.3544 56.4106 56.3386 56.373C56.3228 56.3354 56.2996 56.3013 56.2705 56.2728L56.2661 56.2684Z" fill="#263238"/>
<path d="M58.4056 57.2631V57.5828H57.0762V55.8569H58.3728V56.1745H57.4704V56.549H58.2677V56.8579H57.4704V57.2543L58.4056 57.2631Z" fill="#263238"/>
<path d="M60.2955 55.8569V57.5741H59.9691L59.1128 56.5315V57.5741H58.7207V55.8569H59.0492L59.9034 56.8995V55.8569H60.2955Z" fill="#263238"/>
<path d="M60.7119 55.8567H61.4916C61.6627 55.8533 61.8323 55.89 61.9866 55.964C62.1242 56.0298 62.2398 56.134 62.3195 56.264C62.3985 56.4013 62.4401 56.5569 62.4401 56.7152C62.4401 56.8736 62.3985 57.0292 62.3195 57.1664C62.2398 57.2965 62.1242 57.4007 61.9866 57.4665C61.8323 57.5404 61.6627 57.5772 61.4916 57.5738H60.7119V55.8567ZM61.4719 57.2475C61.6228 57.2551 61.7707 57.2032 61.8837 57.1029C61.9314 57.0542 61.9687 56.9962 61.9932 56.9326C62.0177 56.8689 62.0289 56.8009 62.026 56.7328C62.0298 56.6606 62.0181 56.5885 61.9916 56.5212C61.9652 56.454 61.9246 56.3932 61.8727 56.3429C61.7589 56.2442 61.6114 56.1932 61.461 56.2005H61.0996V57.265L61.4719 57.2475Z" fill="#263238"/>
<path d="M47.1106 51.6514H43.8428V53.1801H47.1106V51.6514Z" fill="#407BFF"/>
<path d="M52.1194 50.2803H48.8516V53.1823H52.1194V50.2803Z" fill="#263238"/>
<path d="M57.1262 49.8838H53.8584V53.1823H57.1262V49.8838Z" fill="#407BFF"/>
<path d="M62.136 47.3433H58.8682V53.1824H62.136V47.3433Z" fill="#263238"/>
<path d="M67.1428 43.4907H63.875V53.1803H67.1428V43.4907Z" fill="#407BFF"/>
<path d="M72.1497 40.1968H68.8818V53.1826H72.1497V40.1968Z" fill="#263238"/>
<path d="M55.8502 21.1173C55.1654 20.4048 54.3436 19.838 53.4343 19.4511C52.525 19.0642 51.5468 18.8651 50.5586 18.8657V23.4652C51.1155 23.4652 51.6664 23.5799 52.177 23.8023C52.6876 24.0246 53.147 24.3497 53.5263 24.7574L55.8502 22.4336V21.1173Z" fill="#407BFF"/>
<path opacity="0.3" d="M55.8502 21.1173C55.1654 20.4048 54.3436 19.838 53.4343 19.4511C52.525 19.0642 51.5468 18.8651 50.5586 18.8657V23.4652C51.1155 23.4652 51.6664 23.5799 52.177 23.8023C52.6876 24.0246 53.147 24.3497 53.5263 24.7574L55.8502 22.4336V21.1173Z" fill="white"/>
<path d="M53.5263 23.4411L55.8502 21.1173C55.1654 20.4048 54.3436 19.838 53.4343 19.4511C52.525 19.0642 51.5468 18.8651 50.5586 18.8657V22.1511C51.1153 22.1508 51.6662 22.2652 52.1768 22.4871C52.6874 22.7091 53.1468 23.0338 53.5263 23.4411Z" fill="#407BFF"/>
<path d="M53.0881 26.0697C53.639 26.6571 54.0027 27.3951 54.1329 28.1898C53.9782 29.1425 53.4895 30.0091 52.7544 30.6344C52.0192 31.2598 51.0856 31.6032 50.1204 31.6032C49.1552 31.6032 48.2215 31.2598 47.4864 30.6344C46.7513 30.0091 46.2626 29.1425 46.1079 28.1898C46.2628 27.2371 46.7515 26.3705 47.4865 25.745C48.2216 25.1195 49.1552 24.7757 50.1204 24.7752V20.1758C48.1698 20.1758 46.2991 20.9507 44.9198 22.3299C43.5405 23.7092 42.7656 25.5799 42.7656 27.5305C42.7656 27.7496 42.7788 27.9686 42.7963 28.1876C42.7788 28.4066 42.7656 28.6257 42.7656 28.8447C42.7989 30.773 43.5883 32.6111 44.9638 33.9631C46.3392 35.315 48.1907 36.0725 50.1193 36.0725C52.0479 36.0725 53.8994 35.315 55.2748 33.9631C56.6503 32.6111 57.4397 30.773 57.473 28.8447C57.473 28.6257 57.473 28.4066 57.4423 28.1876C57.462 27.9686 57.473 27.7496 57.473 27.5305C57.476 25.6261 56.7367 23.7955 55.412 22.4273L53.0881 24.7555V26.0697Z" fill="#407BFF"/>
<path opacity="0.3" d="M53.0881 26.0697C53.639 26.6571 54.0027 27.3951 54.1329 28.1898C53.9782 29.1425 53.4895 30.0091 52.7544 30.6344C52.0192 31.2598 51.0856 31.6032 50.1204 31.6032C49.1552 31.6032 48.2215 31.2598 47.4864 30.6344C46.7513 30.0091 46.2626 29.1425 46.1079 28.1898C46.2628 27.2371 46.7515 26.3705 47.4865 25.745C48.2216 25.1195 49.1552 24.7757 50.1204 24.7752V20.1758C48.1698 20.1758 46.2991 20.9507 44.9198 22.3299C43.5405 23.7092 42.7656 25.5799 42.7656 27.5305C42.7656 27.7496 42.7788 27.9686 42.7963 28.1876C42.7788 28.4066 42.7656 28.6257 42.7656 28.8447C42.7989 30.773 43.5883 32.6111 44.9638 33.9631C46.3392 35.315 48.1907 36.0725 50.1193 36.0725C52.0479 36.0725 53.8994 35.315 55.2748 33.9631C56.6503 32.6111 57.4397 30.773 57.473 28.8447C57.473 28.6257 57.473 28.4066 57.4423 28.1876C57.462 27.9686 57.473 27.7496 57.473 27.5305C57.476 25.6261 56.7367 23.7955 55.412 22.4273L53.0881 24.7555V26.0697Z" fill="white"/>
<path opacity="0.6" d="M55.4121 22.432L53.0883 24.7558C53.7264 25.4395 54.1093 26.3222 54.1727 27.2553C54.236 28.1883 53.9759 29.1147 53.4361 29.8784C52.8963 30.6421 52.1098 31.1964 51.2091 31.4481C50.3084 31.6997 49.3485 31.6332 48.491 31.2599C47.6336 30.8865 46.931 30.2291 46.5016 29.3983C46.0722 28.5675 45.9422 27.6141 46.1336 26.6987C46.3249 25.7833 46.8258 24.9618 47.552 24.3725C48.2782 23.7832 49.1853 23.4622 50.1205 23.4636V20.1782C48.4235 20.1767 46.778 20.7618 45.4629 21.8344C44.1477 22.907 43.2437 24.4012 42.9039 26.0639C42.5641 27.7266 42.8094 29.4557 43.5983 30.9582C44.3872 32.4608 45.6711 33.6446 47.2327 34.309C48.7943 34.9735 50.5376 35.0778 52.1673 34.6043C53.7969 34.1308 55.2129 33.1086 56.1753 31.7108C57.1378 30.3131 57.5875 28.6256 57.4484 26.9342C57.3093 25.2429 56.59 23.6515 55.4121 22.4298V22.432Z" fill="white"/>
<path d="M48.4295 28.6127V29.0179H46.8066V28.6981L47.6345 27.9162C47.7053 27.8535 47.7653 27.7795 47.8119 27.6972C47.8417 27.642 47.8575 27.5803 47.8579 27.5176C47.8601 27.4801 47.8533 27.4426 47.8381 27.4083C47.8229 27.374 47.7996 27.3439 47.7703 27.3204C47.6949 27.2696 47.6046 27.2456 47.514 27.2525C47.4265 27.2515 47.3399 27.2695 47.2599 27.3051C47.1837 27.342 47.1181 27.3978 47.0694 27.4672L46.708 27.2328C46.795 27.1063 46.9146 27.0057 47.0541 26.9415C47.2123 26.8676 47.3854 26.8309 47.56 26.8342C47.7041 26.8312 47.8473 26.858 47.9805 26.9131C48.092 26.9584 48.1884 27.0344 48.2587 27.1321C48.3257 27.2308 48.3602 27.3479 48.3572 27.4672C48.3578 27.5807 48.3331 27.6929 48.285 27.7957C48.2116 27.9279 48.1152 28.0458 48.0002 28.144L47.5052 28.6105L48.4295 28.6127Z" fill="#263238"/>
<path d="M49.0735 28.9172C48.9296 28.8241 48.8161 28.6909 48.7472 28.5339C48.5895 28.1524 48.5895 27.7239 48.7472 27.3424C48.8161 27.1855 48.9296 27.0522 49.0735 26.9592C49.2161 26.8707 49.3811 26.8251 49.5488 26.8277C49.7165 26.8251 49.8815 26.8707 50.0241 26.9592C50.1668 27.0536 50.2799 27.1865 50.3504 27.3424C50.5081 27.7239 50.5081 28.1524 50.3504 28.5339C50.2805 28.6903 50.1673 28.8233 50.0241 28.9172C49.8815 29.0056 49.7165 29.0512 49.5488 29.0486C49.3811 29.0512 49.2161 29.0056 49.0735 28.9172ZM49.8554 28.4595C49.929 28.2955 49.9671 28.1179 49.9671 27.9382C49.9671 27.7585 49.929 27.5808 49.8554 27.4169C49.8226 27.3654 49.7773 27.3229 49.7237 27.2935C49.6701 27.2641 49.6099 27.2487 49.5488 27.2487C49.4877 27.2487 49.4275 27.2641 49.3739 27.2935C49.3203 27.3229 49.275 27.3654 49.2422 27.4169C49.1686 27.5808 49.1305 27.7585 49.1305 27.9382C49.1305 28.1179 49.1686 28.2955 49.2422 28.4595C49.275 28.511 49.3203 28.5535 49.3739 28.5829C49.4275 28.6123 49.4877 28.6277 49.5488 28.6277C49.6099 28.6277 49.6701 28.6123 49.7237 28.5829C49.7773 28.5535 49.8226 28.511 49.8554 28.4595Z" fill="#263238"/>
<path d="M50.821 27.8699C50.7244 27.7468 50.6719 27.5949 50.6719 27.4384C50.6719 27.2819 50.7244 27.13 50.821 27.0069C50.87 26.9542 50.9298 26.9126 50.9963 26.885C51.0629 26.8574 51.1345 26.8444 51.2065 26.847C51.2782 26.8443 51.3495 26.8572 51.4157 26.8848C51.4819 26.9124 51.5413 26.9541 51.5898 27.0069C51.685 27.1306 51.7366 27.2823 51.7366 27.4384C51.7366 27.5945 51.685 27.7462 51.5898 27.8699C51.5413 27.9227 51.4819 27.9643 51.4157 27.9919C51.3495 28.0196 51.2782 28.0325 51.2065 28.0298C51.1345 28.0323 51.0629 28.0194 50.9963 27.9918C50.9298 27.9642 50.87 27.9226 50.821 27.8699ZM51.3708 27.6925C51.4096 27.6134 51.4298 27.5265 51.4298 27.4384C51.4298 27.3503 51.4096 27.2634 51.3708 27.1843C51.3527 27.1577 51.3284 27.1359 51.2999 27.1208C51.2715 27.1057 51.2398 27.0978 51.2076 27.0978C51.1754 27.0978 51.1437 27.1057 51.1152 27.1208C51.0868 27.1359 51.0625 27.1577 51.0444 27.1843C50.999 27.2602 50.9777 27.348 50.9831 27.4362C50.9772 27.5252 50.9986 27.6138 51.0444 27.6903C51.0628 27.7165 51.0872 27.7379 51.1156 27.7526C51.144 27.7674 51.1756 27.7751 51.2076 27.7751C51.2396 27.7751 51.2712 27.7674 51.2996 27.7526C51.328 27.7379 51.3524 27.7165 51.3708 27.6903V27.6925ZM52.4856 26.8711H52.8492L51.3839 29.0175H51.0203L52.4856 26.8711ZM52.3892 28.9694C52.3073 28.921 52.2417 28.8493 52.2009 28.7635C52.1561 28.6651 52.1329 28.5583 52.1329 28.4503C52.1329 28.3422 52.1561 28.2354 52.2009 28.1371C52.2417 28.0512 52.3073 27.9795 52.3892 27.9312C52.4721 27.8823 52.5668 27.8573 52.663 27.8589C52.735 27.8563 52.8066 27.8693 52.8732 27.8969C52.9397 27.9245 52.9995 27.966 53.0485 28.0188C53.1451 28.1419 53.1976 28.2938 53.1976 28.4503C53.1976 28.6067 53.1451 28.7587 53.0485 28.8817C52.9995 28.9345 52.9397 28.9761 52.8732 29.0037C52.8066 29.0313 52.735 29.0442 52.663 29.0416C52.5668 29.0433 52.4721 29.0182 52.3892 28.9694ZM52.8273 28.7043C52.8712 28.6272 52.8917 28.5389 52.8864 28.4503C52.8925 28.3623 52.8719 28.2745 52.8273 28.1984C52.81 28.1707 52.7857 28.148 52.7569 28.1326C52.728 28.1172 52.6957 28.1097 52.663 28.1108C52.631 28.1103 52.5993 28.1178 52.571 28.1327C52.5427 28.1477 52.5186 28.1695 52.5009 28.1962C52.4606 28.2748 52.4395 28.3619 52.4395 28.4503C52.4395 28.5386 52.4606 28.6257 52.5009 28.7043C52.5193 28.7305 52.5437 28.7519 52.5721 28.7667C52.6005 28.7815 52.6321 28.7892 52.6641 28.7892C52.6961 28.7892 52.7277 28.7815 52.7561 28.7667C52.7845 28.7519 52.8089 28.7305 52.8273 28.7043Z" fill="#263238"/>
<path d="M55.4117 49.0058C55.3901 49.0061 55.3686 49.0021 55.3485 48.9939C55.3284 48.9858 55.3102 48.9737 55.2949 48.9584C55.2796 48.9431 55.2675 48.9248 55.2594 48.9048C55.2512 48.8847 55.2472 48.8632 55.2475 48.8416V46.2527C55.2476 45.9703 55.1358 45.6994 54.9364 45.4993L50.3852 40.948C50.2554 40.8192 50.1524 40.666 50.0821 40.4972C50.0119 40.3284 49.9756 40.1474 49.9756 39.9646V37.4699C49.9762 37.4265 49.9936 37.3851 50.0243 37.3544C50.055 37.3237 50.0965 37.3062 50.1399 37.3057C50.1834 37.3057 50.2252 37.323 50.256 37.3538C50.2868 37.3846 50.3041 37.4264 50.3041 37.4699V39.9646C50.3039 40.1043 50.3315 40.2427 50.3852 40.3717C50.439 40.5007 50.5179 40.6176 50.6173 40.7158L55.1686 45.2671C55.2983 45.3963 55.4011 45.5499 55.471 45.7191C55.541 45.8883 55.5766 46.0697 55.576 46.2527V48.8481C55.5743 48.8906 55.5562 48.9307 55.5256 48.9601C55.495 48.9895 55.4542 49.0059 55.4117 49.0058Z" fill="#263238"/>
<path d="M65.7253 26.3407H65.3749V26.7919H64.8908V26.3407H63.7344V26.0056L64.7463 24.6455H65.2675L64.3301 25.9355H64.9061V25.5347H65.3749V25.9355H65.7253V26.3407Z" fill="#263238"/>
<path d="M67.2828 25.6311C67.3543 25.6893 67.4113 25.7633 67.4493 25.8473C67.4873 25.9313 67.5053 26.023 67.5018 26.1151C67.5033 26.241 67.4691 26.3648 67.4033 26.4721C67.3315 26.5851 67.2279 26.6743 67.1054 26.7284C66.9493 26.7984 66.7793 26.8321 66.6082 26.8269C66.4602 26.8258 66.3129 26.8052 66.1702 26.7656C66.037 26.7322 65.9108 26.675 65.7979 26.597L65.9928 26.2159C66.0781 26.2792 66.1737 26.3273 66.2753 26.3582C66.3817 26.3915 66.4924 26.4084 66.6039 26.4086C66.7067 26.4144 66.8089 26.3892 66.8973 26.3363C66.9314 26.3141 66.9592 26.2835 66.978 26.2474C66.9968 26.2114 67.006 26.1711 67.0047 26.1304C67.0101 26.0869 67.0024 26.0428 66.9824 26.0038C66.9625 25.9647 66.9314 25.9326 66.893 25.9114C66.7724 25.8534 66.6386 25.8285 66.5053 25.8391H65.9555L66.0673 24.6323H67.3814V25.0309H66.4856L66.4505 25.4383H66.6258C66.8604 25.425 67.0925 25.4931 67.2828 25.6311Z" fill="#263238"/>
<path d="M67.7719 25.6426C67.6755 25.5199 67.623 25.3683 67.623 25.2122C67.623 25.0561 67.6755 24.9045 67.7719 24.7818C67.8209 24.7291 67.8807 24.6875 67.9472 24.6599C68.0138 24.6323 68.0854 24.6193 68.1574 24.6219C68.2291 24.6192 68.3005 24.6321 68.3666 24.6597C68.4328 24.6873 68.4922 24.729 68.5407 24.7818C68.6357 24.9052 68.6872 25.0565 68.6872 25.2122C68.6872 25.3679 68.6357 25.5192 68.5407 25.6426C68.4923 25.6957 68.433 25.7377 68.3668 25.7656C68.3007 25.7936 68.2292 25.8069 68.1574 25.8047C68.0853 25.8068 68.0136 25.7935 67.9471 25.7655C67.8806 25.7375 67.8208 25.6956 67.7719 25.6426ZM68.3217 25.4674C68.3667 25.3906 68.3874 25.302 68.3808 25.2133C68.3874 25.1246 68.3667 25.0359 68.3217 24.9592C68.3044 24.9315 68.2801 24.9088 68.2513 24.8934C68.2224 24.878 68.1901 24.8705 68.1574 24.8716C68.1252 24.8713 68.0934 24.8792 68.0651 24.8945C68.0367 24.9099 68.0127 24.9321 67.9953 24.9592C67.9495 25.0357 67.9281 25.1243 67.934 25.2133C67.9286 25.3015 67.9499 25.3893 67.9953 25.4652C68.0123 25.4927 68.0362 25.5153 68.0646 25.5307C68.0931 25.5461 68.1251 25.5537 68.1574 25.5528C68.1898 25.5539 68.222 25.5466 68.2508 25.5316C68.2795 25.5167 68.304 25.4945 68.3217 25.4674ZM69.4365 24.646H69.8001L68.3348 26.7924H67.9712L69.4365 24.646ZM69.3401 26.7443C69.2582 26.6959 69.1927 26.6242 69.1518 26.5384C69.107 26.44 69.0838 26.3332 69.0838 26.2252C69.0838 26.1171 69.107 26.0103 69.1518 25.912C69.1908 25.8215 69.2565 25.7451 69.3401 25.693C69.4236 25.6457 69.5181 25.6216 69.6139 25.6229C69.6859 25.6203 69.7575 25.6332 69.8241 25.6608C69.8906 25.6884 69.9504 25.73 69.9994 25.7828C70.1041 25.9038 70.1575 26.061 70.1483 26.2208C70.1535 26.3 70.143 26.3795 70.1174 26.4546C70.0919 26.5298 70.0518 26.5992 69.9994 26.6588C69.9505 26.7119 69.8908 26.7538 69.8243 26.7818C69.7578 26.8097 69.686 26.8231 69.6139 26.8209C69.5173 26.8212 69.4225 26.7947 69.3401 26.7443ZM69.7782 26.4771C69.8228 26.401 69.8434 26.3132 69.8373 26.2252C69.8429 26.1365 69.8224 26.0482 69.7782 25.9711C69.7606 25.9437 69.7362 25.9212 69.7075 25.9059C69.6787 25.8905 69.6465 25.8828 69.6139 25.8835C69.5816 25.8826 69.5496 25.8902 69.5211 25.9056C69.4927 25.9209 69.4688 25.9435 69.4518 25.9711C69.406 26.0476 69.3846 26.1362 69.3905 26.2252C69.3846 26.3141 69.406 26.4028 69.4518 26.4792C69.4699 26.5059 69.4942 26.5277 69.5227 26.5428C69.5511 26.5579 69.5828 26.5658 69.615 26.5658C69.6472 26.5658 69.6789 26.5579 69.7073 26.5428C69.7358 26.5277 69.7601 26.5059 69.7782 26.4792V26.4771Z" fill="#263238"/>
<path d="M72.8089 28.9167L69.9616 27.2719C69.5656 28.029 68.9412 28.6422 68.1771 29.0244C67.4129 29.4067 66.5478 29.5385 65.7044 29.4013C64.8611 29.2641 64.0824 28.8648 63.4788 28.2601C62.8752 27.6553 62.4774 26.8758 62.3418 26.0322C62.4434 25.4232 62.6819 24.8452 63.0393 24.3418C63.3966 23.8384 63.8636 23.4226 64.405 23.1258V21.8116L62.7645 18.9644C61.6238 19.6025 60.6739 20.5335 60.0128 21.6611C59.3518 22.7888 59.0035 24.0724 59.0039 25.3795C59.0039 25.5985 59.0149 25.8176 59.0346 26.0366C59.017 26.2556 59.0039 26.4746 59.0039 26.6936C59.0068 28.3245 59.5516 29.9082 60.5527 31.1956C61.5539 32.483 62.9545 33.4012 64.5344 33.8057C66.1144 34.2102 67.7839 34.0781 69.2806 33.4302C70.7772 32.7823 72.0161 31.6553 72.8023 30.2265L72.8089 28.9167Z" fill="#263238"/>
<path opacity="0.6" d="M66.3593 29.4638C65.4551 29.4633 64.5768 29.1619 63.8629 28.607C63.149 28.0522 62.6401 27.2755 62.4164 26.3994C62.1928 25.5233 62.2671 24.5977 62.6276 23.7685C62.9882 22.9394 63.6145 22.2538 64.4078 21.8199L62.7673 18.9727C61.7733 19.529 60.9221 20.3088 60.281 21.2503C59.6399 22.1919 59.2263 23.2696 59.0729 24.3983C58.9194 25.5271 59.0304 26.676 59.3969 27.7546C59.7635 28.8331 60.3756 29.8117 61.1851 30.6132C61.9945 31.4147 62.9791 32.0172 64.0612 32.3731C65.1433 32.729 66.2933 32.8286 67.4205 32.664C68.5477 32.4995 69.6212 32.0753 70.5564 31.4249C71.4916 30.7745 72.2629 29.9157 72.8095 28.9163L69.9622 27.2714C69.619 27.931 69.1018 28.484 68.4667 28.8705C67.8316 29.257 67.1027 29.4622 66.3593 29.4638Z" fill="white"/>
<path opacity="0.6" d="M72.8089 28.9167L69.9616 27.2719C69.5656 28.029 68.9412 28.6422 68.1771 29.0244C67.4129 29.4067 66.5478 29.5385 65.7044 29.4013C64.8611 29.2641 64.0824 28.8648 63.4788 28.2601C62.8752 27.6553 62.4774 26.8758 62.3418 26.0322C62.4434 25.4232 62.6819 24.8452 63.0393 24.3418C63.3966 23.8384 63.8636 23.4226 64.405 23.1258V21.8116L62.7645 18.9644C61.6238 19.6025 60.6739 20.5335 60.0128 21.6611C59.3518 22.7888 59.0035 24.0724 59.0039 25.3795C59.0039 25.5985 59.0149 25.8176 59.0346 26.0366C59.017 26.2556 59.0039 26.4746 59.0039 26.6936C59.0068 28.3245 59.5516 29.9082 60.5527 31.1956C61.5539 32.483 62.9545 33.4012 64.5344 33.8057C66.1144 34.2102 67.7839 34.0781 69.2806 33.4302C70.7772 32.7823 72.0161 31.6553 72.8023 30.2265L72.8089 28.9167Z" fill="white"/>
<path d="M70.8399 27.7186L73.6872 29.3635C74.2821 28.2811 74.5933 27.0657 74.5917 25.8307C74.5917 25.6116 74.5786 25.3926 74.5589 25.1736C74.5786 24.9546 74.5917 24.7355 74.5917 24.5165C74.5917 23.2334 74.2559 21.9727 73.6179 20.8595C72.9798 19.7463 72.0616 18.8194 70.9545 18.1708C69.8474 17.5223 68.5898 17.1746 67.3068 17.1624C66.0238 17.1503 64.7599 17.4739 63.6406 18.1014V19.4155L65.2811 22.2628C65.8528 21.9496 66.4915 21.7784 67.1433 21.7638C67.795 21.7492 68.4407 21.8916 69.0259 22.179C69.6111 22.4663 70.1186 22.8901 70.5056 23.4148C70.8925 23.9394 71.1477 24.5494 71.2495 25.1933C71.1785 25.6198 71.0403 26.0323 70.8399 26.4154V27.7186Z" fill="#263238"/>
<path opacity="0.4" d="M70.8399 27.7186L73.6872 29.3635C74.2821 28.2811 74.5933 27.0657 74.5917 25.8307C74.5917 25.6116 74.5786 25.3926 74.5589 25.1736C74.5786 24.9546 74.5917 24.7355 74.5917 24.5165C74.5917 23.2334 74.2559 21.9727 73.6179 20.8595C72.9798 19.7463 72.0616 18.8194 70.9545 18.1708C69.8474 17.5223 68.5898 17.1746 67.3068 17.1624C66.0238 17.1503 64.7599 17.4739 63.6406 18.1014V19.4155L65.2811 22.2628C65.8528 21.9496 66.4915 21.7784 67.1433 21.7638C67.795 21.7492 68.4407 21.8916 69.0259 22.179C69.6111 22.4663 70.1186 22.8901 70.5056 23.4148C70.8925 23.9394 71.1477 24.5494 71.2495 25.1933C71.1785 25.6198 71.0403 26.0323 70.8399 26.4154V27.7186Z" fill="white"/>
<path d="M67.2345 17.1641C65.9764 17.1616 64.739 17.4845 63.6426 18.1015L65.2831 20.9488C66.0495 20.5296 66.9306 20.3682 67.7959 20.4885C68.6612 20.6087 69.4648 21.0043 70.0879 21.6166C70.711 22.2289 71.1205 23.0255 71.2559 23.8885C71.3913 24.7516 71.2453 25.6353 70.8396 26.409L73.6869 28.0539C74.3005 26.9341 74.6118 25.6738 74.5903 24.3971C74.5687 23.1204 74.2151 21.8713 73.5642 20.7728C72.9133 19.6744 71.9875 18.7643 70.878 18.1323C69.7685 17.5003 68.5136 17.1681 67.2367 17.1685L67.2345 17.1641Z" fill="#263238"/>
<path d="M60.4934 46.4821C60.45 46.4815 60.4085 46.464 60.3778 46.4333C60.3472 46.4027 60.3297 46.3612 60.3291 46.3178V44.3839C60.3296 44.014 60.4769 43.6595 60.7387 43.3983L65.29 38.8492C65.4893 38.6491 65.6011 38.3781 65.601 38.0957V35.382C65.6015 35.3387 65.619 35.2972 65.6497 35.2665C65.6804 35.2358 65.7218 35.2183 65.7652 35.2178C65.8086 35.2183 65.8501 35.2358 65.8808 35.2665C65.9114 35.2972 65.9289 35.3387 65.9295 35.382V38.0957C65.9289 38.4651 65.7825 38.8193 65.5221 39.0813L60.9708 43.6304C60.8714 43.729 60.7924 43.8464 60.7387 43.9757C60.6849 44.1051 60.6574 44.2438 60.6576 44.3839V46.3178C60.6576 46.3614 60.6403 46.4032 60.6095 46.434C60.5787 46.4648 60.5369 46.4821 60.4934 46.4821Z" fill="#263238"/>
<path d="M82.7173 55.3352C82.8262 55.3872 82.9187 55.4683 82.9845 55.5695C83.0512 55.6749 83.0854 55.7975 83.0831 55.9221C83.0848 56.0555 83.0475 56.1864 82.9758 56.2989C82.9022 56.407 82.8008 56.4932 82.6823 56.5485C82.5534 56.6086 82.4126 56.6385 82.2705 56.6362C82.14 56.6434 82.0095 56.6225 81.8879 56.5749C81.7662 56.5273 81.6561 56.4541 81.5653 56.3602C81.3826 56.1396 81.2917 55.8574 81.3112 55.5717C81.3054 55.3548 81.3527 55.1397 81.4492 54.9453C81.5347 54.7785 81.6682 54.6412 81.8325 54.5511C82.0084 54.4581 82.2051 54.4113 82.4041 54.4153C82.5156 54.4147 82.6266 54.428 82.7348 54.4547C82.8293 54.475 82.9197 54.5113 83.002 54.562L82.8181 54.9278C82.6986 54.8519 82.5587 54.8144 82.4173 54.8205C82.3371 54.8151 82.2568 54.8266 82.1813 54.8541C82.1059 54.8816 82.037 54.9246 81.9792 54.9803C81.8637 55.1061 81.8016 55.2718 81.8062 55.4425C81.8771 55.3767 81.9607 55.3258 82.0517 55.2931C82.1428 55.2604 82.2396 55.2464 82.3362 55.2519C82.468 55.2494 82.5986 55.2779 82.7173 55.3352ZM82.4983 56.1784C82.5318 56.1501 82.5584 56.1144 82.5759 56.0741C82.5934 56.0338 82.6013 55.9901 82.599 55.9462C82.6013 55.9021 82.5934 55.858 82.5759 55.8173C82.5584 55.7767 82.5319 55.7406 82.4983 55.7119C82.4243 55.65 82.3295 55.6187 82.2333 55.6243C82.1369 55.6206 82.0425 55.6526 81.9683 55.7141C81.9344 55.7424 81.9074 55.7779 81.8892 55.8181C81.871 55.8583 81.8621 55.9021 81.8631 55.9462C81.8632 55.9878 81.8722 56.0289 81.8896 56.0667C81.907 56.1045 81.9323 56.1381 81.9639 56.1653C82.0419 56.2275 82.1402 56.2586 82.2398 56.2529C82.3329 56.261 82.4258 56.2345 82.5005 56.1784H82.4983Z" fill="#263238"/>
<path d="M83.7093 56.5139C83.5661 56.4199 83.4528 56.2869 83.3829 56.1306C83.2252 55.7491 83.2252 55.3206 83.3829 54.9391C83.4513 54.7783 83.5646 54.6407 83.7093 54.5427C83.8518 54.4542 84.0168 54.4086 84.1845 54.4112C84.3523 54.4086 84.5172 54.4542 84.6598 54.5427C84.8031 54.6365 84.9164 54.7695 84.9862 54.9259C85.1439 55.3074 85.1439 55.7359 84.9862 56.1174C84.9172 56.2744 84.8038 56.4076 84.6598 56.5007C84.5172 56.5891 84.3523 56.6347 84.1845 56.6321C84.0181 56.6387 83.8532 56.5977 83.7093 56.5139ZM84.4934 56.0561C84.567 55.8922 84.605 55.7145 84.605 55.5348C84.605 55.3551 84.567 55.1775 84.4934 55.0135C84.4605 54.962 84.4152 54.9196 84.3616 54.8901C84.308 54.8607 84.2479 54.8453 84.1867 54.8453C84.1256 54.8453 84.0655 54.8607 84.0119 54.8901C83.9583 54.9196 83.913 54.962 83.8801 55.0135C83.8065 55.1775 83.7684 55.3551 83.7684 55.5348C83.7684 55.7145 83.8065 55.8922 83.8801 56.0561C83.913 56.1077 83.9583 56.1501 84.0119 56.1795C84.0655 56.2089 84.1256 56.2243 84.1867 56.2243C84.2479 56.2243 84.308 56.2089 84.3616 56.1795C84.4152 56.1501 84.4605 56.1077 84.4934 56.0561Z" fill="#263238"/>
<path d="M85.4616 55.4515C85.365 55.3284 85.3125 55.1765 85.3125 55.02C85.3125 54.8635 85.365 54.7116 85.4616 54.5885C85.5119 54.5377 85.5718 54.4974 85.6378 54.4699C85.7038 54.4424 85.7745 54.4282 85.846 54.4282C85.9175 54.4282 85.9883 54.4424 86.0543 54.4699C86.1202 54.4974 86.1801 54.5377 86.2304 54.5885C86.3256 54.7122 86.3772 54.8639 86.3772 55.02C86.3772 55.1761 86.3256 55.3278 86.2304 55.4515C86.1801 55.5023 86.1202 55.5426 86.0543 55.5701C85.9883 55.5976 85.9175 55.6118 85.846 55.6118C85.7745 55.6118 85.7038 55.5976 85.6378 55.5701C85.5718 55.5426 85.5119 55.5023 85.4616 55.4515ZM86.0114 55.2741C86.0502 55.195 86.0704 55.1081 86.0704 55.02C86.0704 54.9319 86.0502 54.845 86.0114 54.7659C85.9932 54.7392 85.9687 54.7174 85.9401 54.7025C85.9114 54.6876 85.8794 54.68 85.8471 54.6805C85.8145 54.6799 85.7823 54.6876 85.7536 54.7029C85.7248 54.7182 85.7005 54.7407 85.6829 54.7681C85.6382 54.8442 85.6176 54.932 85.6237 55.02C85.6184 55.1086 85.6389 55.1969 85.6829 55.2741C85.7015 55.3003 85.7261 55.3217 85.7547 55.3364C85.7833 55.3512 85.815 55.3589 85.8471 55.3589C85.8793 55.3589 85.911 55.3512 85.9396 55.3364C85.9681 55.3217 85.9928 55.3003 86.0114 55.2741ZM87.1262 54.4527H87.4898L86.0245 56.5992H85.6588L87.1262 54.4527ZM87.0277 56.551C86.9468 56.5014 86.8815 56.43 86.8393 56.3451C86.796 56.2464 86.7736 56.1397 86.7736 56.0319C86.7736 55.9241 86.796 55.8174 86.8393 55.7187C86.8815 55.6338 86.9468 55.5624 87.0277 55.5128C87.1113 55.4639 87.2068 55.4389 87.3036 55.4405C87.3753 55.4378 87.4467 55.4507 87.5128 55.4783C87.579 55.5059 87.6384 55.5476 87.6869 55.6004C87.7835 55.7235 87.8361 55.8754 87.8361 56.0319C87.8361 56.1884 87.7835 56.3403 87.6869 56.4634C87.6384 56.5162 87.579 56.5578 87.5128 56.5854C87.4467 56.613 87.3753 56.626 87.3036 56.6232C87.2053 56.6256 87.1082 56.6006 87.0233 56.551H87.0277ZM87.4657 56.286C87.5096 56.2088 87.5302 56.1205 87.5248 56.0319C87.5309 55.9439 87.5103 55.8561 87.4657 55.78C87.4481 55.7526 87.4238 55.7301 87.395 55.7148C87.3662 55.6994 87.334 55.6917 87.3014 55.6924C87.2694 55.6917 87.2377 55.6991 87.2093 55.7141C87.181 55.729 87.1569 55.751 87.1394 55.7778C87.0976 55.856 87.0757 55.9433 87.0757 56.0319C87.0757 56.1205 87.0976 56.2078 87.1394 56.286C87.1569 56.3128 87.181 56.3347 87.2093 56.3497C87.2377 56.3646 87.2694 56.3721 87.3014 56.3714C87.3326 56.3725 87.3636 56.3661 87.3918 56.3528C87.42 56.3394 87.4446 56.3195 87.4635 56.2947L87.4657 56.286Z" fill="#263238"/>
<path d="M78.3652 52.3761L81.2125 54.0188C81.608 53.2613 82.2321 52.6477 82.9962 52.2652C83.7603 51.8826 84.6256 51.7506 85.469 51.8879C86.3124 52.0251 87.0911 52.4247 87.6945 53.0298C88.2979 53.6348 88.6952 54.4147 88.8301 55.2585C88.7304 55.8673 88.4936 56.4454 88.1377 56.9493C87.7818 57.4532 87.3161 57.8696 86.7757 58.1671V59.4812L88.4162 62.3285C89.5566 61.69 90.5063 60.759 91.1673 59.6314C91.8283 58.5038 92.1767 57.2204 92.1768 55.9133C92.1768 55.6943 92.1658 55.4644 92.1461 55.2453C92.1636 55.0263 92.1768 54.8073 92.1768 54.5992C92.1739 52.9683 91.6291 51.3847 90.6279 50.0972C89.6268 48.8098 88.2261 47.8917 86.6462 47.4871C85.0663 47.0826 83.3968 47.2147 81.9001 47.8626C80.4035 48.5106 79.1646 49.6375 78.3784 51.0664L78.3652 52.3761Z" fill="#407BFF"/>
<path d="M80.3366 53.5807L77.4893 51.938C76.896 53.0209 76.5856 54.236 76.5869 55.4708C76.5869 55.6898 76.5869 55.9089 76.6198 56.1279C76.6001 56.3469 76.5869 56.5659 76.5869 56.7849C76.587 58.068 76.9227 59.3288 77.5608 60.442C78.1988 61.5552 79.117 62.4821 80.2242 63.1307C81.3313 63.7792 82.5888 64.1268 83.8718 64.139C85.1549 64.1512 86.4188 63.8275 87.538 63.2001V61.886L85.8975 59.0387C85.3262 59.3504 84.6884 59.5204 84.0377 59.5347C83.387 59.5489 82.7424 59.4068 82.1579 59.1204C81.5735 58.834 81.0663 58.4115 80.6789 57.8885C80.2914 57.3656 80.0351 56.7573 79.9314 56.1147C80.002 55.6875 80.1403 55.2742 80.341 54.8904L80.3366 53.5807Z" fill="#407BFF"/>
<path opacity="0.3" d="M78.3652 52.3761L81.2125 54.0188C81.608 53.2613 82.2321 52.6477 82.9962 52.2652C83.7603 51.8826 84.6256 51.7506 85.469 51.8879C86.3124 52.0251 87.0911 52.4247 87.6945 53.0298C88.2979 53.6348 88.6952 54.4147 88.8301 55.2585C88.7304 55.8673 88.4936 56.4454 88.1377 56.9493C87.7818 57.4532 87.3161 57.8696 86.7757 58.1671V59.4812L88.4162 62.3285C89.5566 61.69 90.5063 60.759 91.1673 59.6314C91.8283 58.5038 92.1767 57.2204 92.1768 55.9133C92.1768 55.6943 92.1658 55.4644 92.1461 55.2453C92.1636 55.0263 92.1768 54.8073 92.1768 54.5992C92.1739 52.9683 91.6291 51.3847 90.6279 50.0972C89.6268 48.8098 88.2261 47.8917 86.6462 47.4871C85.0663 47.0826 83.3968 47.2147 81.9001 47.8626C80.4035 48.5106 79.1646 49.6375 78.3784 51.0664L78.3652 52.3761Z" fill="white"/>
<path opacity="0.3" d="M80.3366 53.5807L77.4893 51.938C76.896 53.0209 76.5856 54.236 76.5869 55.4708C76.5869 55.6898 76.5869 55.9089 76.6198 56.1279C76.6001 56.3469 76.5869 56.5659 76.5869 56.7849C76.587 58.068 76.9227 59.3288 77.5608 60.442C78.1988 61.5552 79.117 62.4821 80.2242 63.1307C81.3313 63.7792 82.5888 64.1268 83.8718 64.139C85.1549 64.1512 86.4188 63.8275 87.538 63.2001V61.886L85.8975 59.0387C85.3262 59.3504 84.6884 59.5204 84.0377 59.5347C83.387 59.5489 82.7424 59.4068 82.1579 59.1204C81.5735 58.834 81.0663 58.4115 80.6789 57.8885C80.2914 57.3656 80.0351 56.7573 79.9314 56.1147C80.002 55.6875 80.1403 55.2742 80.341 54.8904L80.3366 53.5807Z" fill="white"/>
<path d="M84.8176 50.5236C85.7218 50.5241 86.6001 50.8256 87.314 51.3805C88.0279 51.9353 88.5368 52.712 88.7605 53.5881C88.9841 54.4642 88.9098 55.3898 88.5493 56.2189C88.1887 57.0481 87.5624 57.7337 86.7691 58.1675L88.4096 61.0148C89.4038 60.4583 90.2552 59.6784 90.8965 58.7366C91.5379 57.7949 91.9516 56.717 92.1051 55.588C92.2586 54.4589 92.1478 53.3097 91.7812 52.2309C91.4146 51.152 90.8025 50.1731 89.9929 49.3713C89.1834 48.5696 88.1986 47.9668 87.1163 47.6107C86.034 47.2546 84.8837 47.1547 83.7562 47.3192C82.6287 47.4836 81.5549 47.9077 80.6193 48.558C79.6838 49.2084 78.9121 50.0673 78.3652 51.0668L81.2125 52.7095C81.5565 52.0507 82.0744 51.4986 82.7099 51.1133C83.3455 50.728 84.0744 50.524 84.8176 50.5236Z" fill="#407BFF"/>
<path opacity="0.6" d="M83.9412 62.8234C85.1992 62.8248 86.4363 62.5019 87.5331 61.886L85.8927 59.0387C85.126 59.4584 84.2445 59.6202 83.3788 59.4999C82.513 59.3797 81.709 58.9839 81.0856 58.3712C80.4623 57.7584 80.0529 56.9613 79.9179 56.0977C79.7829 55.2341 79.9295 54.35 80.3361 53.5763L77.4888 51.9336C76.8759 53.0537 76.5651 54.314 76.587 55.5906C76.609 56.8672 76.9629 58.1161 77.6139 59.2145C78.265 60.3128 79.1907 61.2228 80.3001 61.8548C81.4096 62.4868 82.6644 62.8191 83.9412 62.819V62.8234Z" fill="white"/>
<path d="M75.0776 56.6452H68.3777C68.0083 56.6445 67.6541 56.4981 67.3921 56.2378L65.5129 54.3564C65.4821 54.3256 65.4648 54.2838 65.4648 54.2403C65.4648 54.1968 65.4821 54.155 65.5129 54.1242C65.5437 54.0934 65.5854 54.0762 65.629 54.0762C65.6725 54.0762 65.7143 54.0934 65.7451 54.1242L67.6243 56.0056C67.8245 56.2047 68.0953 56.3165 68.3777 56.3166H75.082C75.1255 56.3166 75.1673 56.3339 75.1981 56.3647C75.2289 56.3955 75.2462 56.4373 75.2462 56.4809C75.2465 56.5029 75.2424 56.5248 75.234 56.5452C75.2255 56.5655 75.213 56.5839 75.1973 56.5993C75.1815 56.6147 75.1627 56.6267 75.1421 56.6346C75.1216 56.6425 75.0996 56.6461 75.0776 56.6452Z" fill="#263238"/>
<path d="M32.8969 36.4731C34.4608 35.9102 34.176 33.2929 33.7205 31.3283C33.4839 30.3142 34.7871 29.5761 33.876 28.0955C33.024 26.6675 28.0193 25.2767 27.8901 27.8589C26.1379 28.3649 26.0853 29.944 26.2584 32.4584C26.2584 32.465 23.8053 39.7453 32.8969 36.4731Z" fill="#2E353A"/>
<path d="M37.9082 43.3303L38.9573 40.0209L39.0208 39.3638C39.0252 39.3228 39.034 39.2824 39.0471 39.2434L39.4304 38.0475C39.4734 37.9157 39.5616 37.8034 39.6795 37.7305C39.7973 37.6575 39.9372 37.6286 40.0743 37.6489C40.181 37.6657 40.2811 37.7115 40.3634 37.7815C40.4457 37.8514 40.5071 37.9427 40.5408 38.0453L40.7927 38.8119C40.8229 38.901 40.8306 38.9961 40.8154 39.089C40.8001 39.1818 40.7622 39.2694 40.7051 39.3441L39.8816 40.4392L39.1413 43.9699L37.9082 43.3303Z" fill="#B97964"/>
<path d="M34.8374 36.2256C34.8374 36.2256 35.6828 37.2922 36.2347 39.5744C36.7867 41.8566 37.1349 43.5475 37.5116 43.5847C37.8884 43.622 37.7788 42.7086 37.7788 42.7086L39.1784 43.3657C39.1784 43.3657 38.6987 45.8669 37.3758 45.8669C35.4616 45.8669 35.0345 43.6088 34.8374 42.5926C34.5329 41.0287 33.8802 37.7719 34.8374 36.2256Z" fill="#407BFF"/>
<path opacity="0.2" d="M34.8372 42.5907C34.9598 43.2302 35.1767 44.3626 35.7965 45.1116C35.8337 39.5988 35.0102 37.4962 34.5831 36.7778C34.0158 38.4512 34.5656 41.1955 34.8372 42.5907Z" fill="black"/>
<path d="M35.0668 54.3232L41.8258 88.4688L40.2073 88.9068C40.2073 88.9068 36.0699 78.9632 34.6485 72.9796C34.4754 72.2546 34.344 71.5866 34.2652 71.0084C34.1583 70.2023 33.9231 69.4185 33.5687 68.6867C33.3869 68.3122 33.1723 67.8522 32.9445 67.3222C32.2071 65.596 31.6123 63.8123 31.166 61.989C31.166 61.989 28.7217 58.3094 29.0919 54.7766L35.0668 54.3232Z" fill="#B97964"/>
<path d="M31.565 58.7435L31.5256 89.5008H29.6727C29.6727 89.5008 27.316 77.1633 27.5657 72.1061V71.9593C27.6337 70.8314 27.4934 69.7006 27.1517 68.6236C27.0422 68.2797 26.9327 67.8899 26.8188 67.4584C26.3311 65.5242 26.0724 63.5394 26.0479 61.5448V57.7119L31.565 58.7435Z" fill="#B97964"/>
<path d="M31.4381 88.8807L29.5064 88.9201C29.4655 88.9212 29.4261 88.9361 29.3947 88.9623C29.3633 88.9886 29.3417 89.0246 29.3333 89.0647L28.9654 90.887C28.9562 90.9305 28.9569 90.9755 28.9674 91.0188C28.978 91.062 28.998 91.1023 29.0262 91.1368C29.0543 91.1712 29.0898 91.1989 29.1301 91.2178C29.1704 91.2368 29.2144 91.2464 29.2589 91.2461C30.0605 91.2177 30.7767 91.1607 31.7754 91.1432C32.9581 91.1235 32.6515 91.2702 34.0489 91.2637C34.8855 91.2637 35.0213 90.3065 34.6665 90.2649C33.0392 90.0897 32.5617 89.6079 31.9244 89.034C31.7868 88.9246 31.6136 88.87 31.4381 88.8807Z" fill="#263238"/>
<path d="M41.9071 88.0392L40.0125 88.4116C39.9726 88.4195 39.9366 88.4407 39.9104 88.4717C39.8841 88.5028 39.8692 88.5418 39.868 88.5824L39.8176 90.4419C39.8161 90.481 39.8224 90.5201 39.836 90.5568C39.8497 90.5935 39.8704 90.6271 39.897 90.6558C39.9237 90.6845 39.9557 90.7076 39.9913 90.7239C40.0269 90.7402 40.0654 90.7493 40.1045 90.7507H40.168C40.9543 90.5821 41.6486 90.4025 42.632 90.2141C43.7907 89.9951 43.5234 90.1857 44.8901 89.9403C45.7159 89.7914 45.683 88.8277 45.3282 88.8452C43.6965 88.9547 43.138 88.5561 42.4152 88.1049C42.2598 88.0209 42.0787 87.9975 41.9071 88.0392Z" fill="#263238"/>
<path opacity="0.1" d="M31.5537 66.7723V63.5483L26.249 64.3981C26.3751 65.4156 26.5638 66.4243 26.8141 67.4185C28.4122 67.3686 30.0007 67.1521 31.5537 66.7723Z" fill="black"/>
<path opacity="0.1" d="M36.9489 63.8286L31.9004 64.5361C32.1588 65.3158 32.4239 66.0298 32.6801 66.665C34.2674 66.6386 35.8471 66.4395 37.3913 66.0714L36.9489 63.8286Z" fill="black"/>
<path d="M26.1284 54.9808C26.1284 54.9808 25.099 58.7589 26.1284 66.9504L38.0498 65.5289L35.4478 53.2286L32.6531 51.3647L29.0918 52.7906L26.1284 54.9808Z" fill="#263238"/>
<path opacity="0.5" d="M32.4414 57.9326C32.4414 57.9326 31.2214 60.6704 31.6003 66.3058L32.5071 66.1985C32.1272 63.4577 32.1051 60.6791 32.4414 57.9326Z" fill="black"/>
<path d="M32.6294 53.3332L33.4486 55.9899C34.2984 55.8519 35.2227 55.692 36.2346 55.5037C36.2346 55.5037 34.5415 49.1017 35.0562 45.1286C35.5709 41.1555 34.8372 36.2253 34.8372 36.2253C34.8372 36.2253 30.6429 35.7106 24.9023 37.0357C24.9023 37.0357 27.6993 44.4671 27.2568 48.6614C26.8144 52.8557 25.2703 56.7652 25.2703 56.7652C25.2703 56.7652 26.9962 56.958 32.0271 56.2199L32.6294 53.3332Z" fill="#407BFF"/>
<path d="M35.0232 48.4227C34.9948 48.0548 34.9772 47.6868 34.9663 47.3276C32.338 48.1314 28.435 48.2037 27.3005 48.2212C27.3005 48.3724 27.2808 48.5191 27.2655 48.6593C27.2501 48.7995 27.2304 48.9681 27.2129 49.1236C31.1728 49.2485 33.7179 48.7754 35.0232 48.4227Z" fill="#263238"/>
<path d="M33.2136 48.3286C33.2399 48.7162 32.8632 49.0557 32.3748 49.0864C31.8863 49.117 31.468 48.8323 31.4417 48.4446C31.4154 48.057 31.7922 47.7175 32.2828 47.6868C32.7734 47.6562 33.1895 47.9409 33.2136 48.3286Z" fill="#263238"/>
<path opacity="0.6" d="M33.2136 48.3286C33.2399 48.7162 32.8632 49.0557 32.3748 49.0864C31.8863 49.117 31.468 48.8323 31.4417 48.4446C31.4154 48.057 31.7922 47.7175 32.2828 47.6868C32.7734 47.6562 33.1895 47.9409 33.2136 48.3286Z" fill="white"/>
<path d="M29.4404 47.9254L29.539 49.3731H29.9069L29.8084 47.8027L29.4404 47.9254Z" fill="#407BFF"/>
<path d="M34.125 47.3868L34.1732 48.8937H34.5411L34.493 47.2642L34.125 47.3868Z" fill="#407BFF"/>
<path d="M29.6725 35.9082C29.6725 35.9082 27.1581 35.2949 27.4297 38.0414C27.4297 38.0414 27.7473 37.0602 29.0483 37.6735L28.7526 38.4576C29.6805 38.4871 30.589 38.7307 31.4071 39.1694C31.4071 39.1694 32.4081 38.4817 32.5023 37.7458L31.9372 37.2814C31.9372 37.2814 31.9372 36.5696 33.0323 37.1829C33.0454 37.1829 32.3095 34.8766 29.6725 35.9082Z" fill="#407BFF"/>
<path opacity="0.6" d="M29.6725 35.9082C29.6725 35.9082 27.1581 35.2949 27.4297 38.0414C27.4297 38.0414 27.7473 37.0602 29.0483 37.6735L28.7526 38.4576C29.6805 38.4871 30.589 38.7307 31.4071 39.1694C31.4071 39.1694 32.4081 38.4817 32.5023 37.7458L31.9372 37.2814C31.9372 37.2814 31.9372 36.5696 33.0323 37.1829C33.0454 37.1829 32.3095 34.8766 29.6725 35.9082Z" fill="white"/>
<path opacity="0.2" d="M25.4912 38.7463C25.8088 39.721 26.203 41.0285 26.5425 42.4325C26.4943 39.4647 25.9402 38.2842 25.9402 38.2842L25.4912 38.7463Z" fill="black"/>
<path d="M31.1141 38.7268C32.1764 38.6458 31.7953 37.0053 31.5215 36.1489C30.6257 36.1818 29.5788 36.2562 28.4092 36.4074C28.8188 37.0951 29.9577 38.8166 31.1141 38.7268Z" fill="#B97964"/>
<path d="M24.9023 37.0356C24.9023 37.0356 23.7743 37.7716 23.0866 41.6702C22.3989 45.5687 23.2487 47.8028 25.3447 47.264C25.5791 47.2027 26.2756 46.9924 26.2756 46.9924V45.0321C26.2756 45.0321 25.59 45.3015 25.1958 44.835C24.8388 44.4101 25.1082 42.9098 25.9821 40.3385C26.2624 39.5172 26.2274 37.7453 24.9023 37.0356Z" fill="#407BFF"/>
<path d="M33.8249 40.8711L29.762 40.2031C29.762 40.2031 28.8859 42.7394 29.14 46.8592L33.1306 46.3905C33.1306 46.3905 32.9466 44.439 33.8249 40.8711Z" fill="#263238"/>
<path opacity="0.7" d="M33.8249 40.8711L29.762 40.2031C29.762 40.2031 28.8859 42.7394 29.14 46.8592L33.1306 46.3905C33.1306 46.3905 32.9466 44.439 33.8249 40.8711Z" fill="white"/>
<path d="M29.493 46.5586C29.493 46.5586 29.0966 41.9109 31.0087 40.0317L35.1416 40.7852C35.1416 40.7852 32.9514 43.8515 33.6567 46.7316L29.493 46.5586Z" fill="#263238"/>
<path opacity="0.8" d="M29.493 46.5586C29.493 46.5586 29.0966 41.9109 31.0087 40.0317L35.1416 40.7852C35.1416 40.7852 32.9514 43.8515 33.6567 46.7316L29.493 46.5586Z" fill="white"/>
<path d="M30.1462 45.5643L30.1357 45.7349L32.781 45.8967L32.7914 45.7261L30.1462 45.5643Z" fill="#263238"/>
<path d="M30.173 44.6295L30.1592 44.7998L32.805 45.015L32.8188 44.8447L30.173 44.6295Z" fill="#263238"/>
<path d="M30.0132 43.8006L29.9961 43.9697L32.6978 44.2426L32.7149 44.0735L30.0132 43.8006Z" fill="#263238"/>
<path d="M30.4005 42.7469L30.3799 42.9165L33.1998 43.2593L33.2205 43.0897L30.4005 42.7469Z" fill="#263238"/>
<path d="M31.0136 40.9129L30.9863 41.0815L33.9635 41.5637L33.9908 41.3951L31.0136 40.9129Z" fill="#263238"/>
<path d="M30.6421 41.8226L30.6182 41.9917L33.5413 42.4062L33.5653 42.237L30.6421 41.8226Z" fill="#263238"/>
<path d="M26.0546 45.3434L28.6543 44.706L29.2545 43.7861C29.3179 43.6872 29.4165 43.6159 29.5304 43.5868L30.3452 43.3678C30.4113 43.3502 30.4806 43.3473 30.5479 43.3594C30.6153 43.3715 30.6792 43.3983 30.7351 43.4379C30.8152 43.4937 30.8761 43.5729 30.9094 43.6646C30.9427 43.7564 30.9469 43.8562 30.9212 43.9504L30.6212 45.0258C30.6008 45.0997 30.5629 45.1675 30.5107 45.2236C30.4584 45.2797 30.3934 45.3223 30.3211 45.3478L28.8515 45.8537L25.7852 46.9948L26.0546 45.3434Z" fill="#B97964"/>
<path d="M25.5635 44.8594V45.9392H26.0541L25.5635 46.3312V47.5577L26.5447 47.1416V44.8594H25.5635Z" fill="#407BFF"/>
<path opacity="0.6" d="M25.5635 44.8594V45.9392H26.0541L25.5635 46.3312V47.5577L26.5447 47.1416V44.8594H25.5635Z" fill="white"/>
<path d="M37.1475 43.2716L38.1024 43.7776L38.3324 43.3439L38.4485 43.9615L39.5326 44.5354L39.6246 43.4731L37.6074 42.4043L37.1475 43.2716Z" fill="#407BFF"/>
<path opacity="0.6" d="M37.1475 43.2716L38.1024 43.7776L38.3324 43.3439L38.4485 43.9615L39.5326 44.5354L39.6246 43.4731L37.6074 42.4043L37.1475 43.2716Z" fill="white"/>
<path d="M28.542 36.4379L28.7172 36.5934L30.9841 38.2843L31.4769 38.1945L31.5032 36.2714C30.8089 35.9035 30.5855 35.0164 30.7322 34.3002L28.761 32.7671C28.991 33.7921 29.1334 35.61 28.542 36.4379Z" fill="#B97964"/>
<path opacity="0.1" d="M30.7388 35.192C30.6787 34.903 30.6787 34.6048 30.7388 34.3159L28.7676 32.7827C28.8264 33.0386 28.8717 33.2974 28.9034 33.5581C29.0687 33.9497 29.3192 34.2995 29.6367 34.5821C29.9542 34.8648 30.3307 35.0731 30.7388 35.192Z" fill="black"/>
<path d="M28.2356 30.5572C28.3779 32.3597 28.3998 33.1263 29.3307 34.0374C30.728 35.4041 32.9139 34.8391 33.3125 33.0277C33.6717 31.3982 33.3782 28.7305 31.5975 28.0318C31.2053 27.8785 30.7805 27.828 30.3632 27.8851C29.946 27.9422 29.5503 28.105 29.2137 28.358C28.8771 28.611 28.6107 28.9458 28.4399 29.3307C28.2691 29.7156 28.1995 30.1378 28.2377 30.5572H28.2356Z" fill="#B97964"/>
<path d="M29.4801 27.8586C31.8258 28.6274 27.4563 32.02 27.5089 34.0022C26.5649 31.674 26.9066 27.0154 29.4801 27.8586Z" fill="#2E353A"/>
<path d="M28.7522 30.8022C28.7522 30.8022 29.5648 32.5084 29.1311 34.0022C28.5813 35.9055 29.7465 36.9765 29.7465 36.9765C29.3044 36.911 28.8967 36.6999 28.5881 36.3765C28.2794 36.0532 28.0874 35.6362 28.0425 35.1914C27.8608 33.5882 27.5322 31.5579 27.5322 31.5579L28.7522 30.8022Z" fill="#2E353A"/>
<path d="M31.9873 31.3389C32.138 31.7085 32.34 32.055 32.5874 32.3683C32.5055 32.4298 32.411 32.4725 32.3107 32.4933C32.2103 32.5142 32.1067 32.5126 32.007 32.4887L31.9873 31.3389Z" fill="#A24E3F"/>
<path d="M31.5126 33.332C31.6044 33.3328 31.6961 33.3247 31.7864 33.3079C31.7988 33.3057 31.8099 33.2988 31.8173 33.2886C31.8247 33.2783 31.8277 33.2656 31.8258 33.2531C31.8237 33.2407 31.8167 33.2296 31.8065 33.2222C31.7963 33.2149 31.7835 33.2118 31.7711 33.2137C31.5722 33.2528 31.3669 33.2446 31.1717 33.1898C30.9766 33.135 30.797 33.0352 30.6475 32.8983C30.6388 32.8887 30.6266 32.883 30.6137 32.8824C30.6007 32.8818 30.5881 32.8863 30.5785 32.895C30.5689 32.9037 30.5632 32.9159 30.5626 32.9288C30.5619 32.9418 30.5665 32.9544 30.5752 32.964C30.8282 33.2035 31.1643 33.3354 31.5126 33.332Z" fill="#2E353A"/>
<path d="M28.5158 27.8568C27.7908 29.1841 29.8847 28.4284 31.5689 28.9782C33.1306 29.4841 33.9212 30.4982 33.7592 29.0264C33.5533 27.2129 29.6634 25.7673 28.5158 27.8568Z" fill="#2E353A"/>
<path d="M30.1146 30.6251C30.1275 30.6228 30.1397 30.6179 30.1506 30.6108C30.1616 30.6036 30.1709 30.5943 30.1781 30.5835C30.2422 30.482 30.3294 30.3971 30.4326 30.3359C30.5357 30.2746 30.6519 30.2386 30.7717 30.2308C30.7973 30.2265 30.8202 30.2125 30.8357 30.1917C30.8512 30.1709 30.8581 30.1449 30.8549 30.1191C30.8514 30.0985 30.8415 30.0796 30.8265 30.065C30.8115 30.0505 30.7923 30.041 30.7717 30.0381C30.6201 30.0452 30.4725 30.0887 30.3414 30.165C30.2102 30.2412 30.0994 30.3479 30.0182 30.4761C30.0047 30.4972 29.9999 30.5226 30.0048 30.5472C30.0097 30.5717 30.0239 30.5933 30.0445 30.6075C30.0544 30.6152 30.0657 30.6206 30.0777 30.6237C30.0898 30.6267 30.1024 30.6272 30.1146 30.6251Z" fill="#2E353A"/>
<path d="M33.0369 30.3076C33.0492 30.3069 33.0612 30.3036 33.0722 30.2979C33.0831 30.2922 33.0928 30.2843 33.1004 30.2747C33.1085 30.2649 33.1146 30.2537 33.1183 30.2415C33.122 30.2294 33.1233 30.2167 33.122 30.2041C33.1208 30.1915 33.1171 30.1792 33.1112 30.168C33.1052 30.1569 33.0971 30.147 33.0873 30.1389C32.9712 30.0406 32.8335 29.9711 32.6854 29.9361C32.5374 29.9011 32.3832 29.9015 32.2353 29.9374C32.2115 29.9463 32.1919 29.9639 32.1806 29.9867C32.1692 30.0094 32.1668 30.0357 32.174 30.0601C32.1777 30.0719 32.1837 30.0828 32.1917 30.0923C32.1997 30.1017 32.2094 30.1095 32.2204 30.1152C32.2314 30.1209 32.2434 30.1244 32.2557 30.1255C32.268 30.1265 32.2805 30.1251 32.2923 30.1214C32.41 30.0934 32.5327 30.0942 32.6501 30.1235C32.7675 30.1529 32.8761 30.21 32.9668 30.29C32.9765 30.298 32.9878 30.3038 32.9999 30.3068C33.012 30.3098 33.0247 30.3101 33.0369 30.3076Z" fill="#2E353A"/>
<path d="M30.7287 31.3129C30.7396 31.4553 30.8251 31.5648 30.9192 31.5582C31.0134 31.5516 31.0791 31.4312 31.066 31.2866C31.0529 31.1421 30.9696 31.0347 30.8776 31.0413C30.7856 31.0479 30.7177 31.1705 30.7287 31.3129Z" fill="#2E353A"/>
<path d="M32.3419 31.1879C32.3529 31.3303 32.4383 31.4398 32.5303 31.4332C32.6223 31.4266 32.6902 31.3062 32.6792 31.1616C32.6683 31.0171 32.5851 30.9097 32.4931 30.9163C32.4011 30.9229 32.331 31.0455 32.3419 31.1879Z" fill="#2E353A"/>
<path d="M32.458 30.9271L32.7931 30.8022C32.7931 30.8022 32.631 31.0848 32.458 30.9271Z" fill="#2E353A"/>
<path d="M30.8379 31.0521L31.173 30.9272C31.173 30.9272 31.0175 31.2076 30.8379 31.0521Z" fill="#2E353A"/>
</g>
<defs>
<clipPath id="clip0_85_5005">
<rect width="109.511" height="109.511" fill="white" transform="translate(0.700195 0.00585938)"/>
</clipPath>
</defs>
</svg>
