<svg width="181" height="181" viewBox="0 0 181 181" fill="none" xmlns="http://www.w3.org/2000/svg">
<g clip-path="url(#clip0_85_2504)">
<path d="M162.699 144.343H150.755V144.433H162.699V144.343Z" fill="#EBEBEB"/>
<path d="M119.9 145.324H116.767V145.414H119.9V145.324Z" fill="#EBEBEB"/>
<path d="M150.394 140.997H143.474V141.087H150.394V140.997Z" fill="#EBEBEB"/>
<path d="M34.95 141.603H19.375V141.693H34.95V141.603Z" fill="#EBEBEB"/>
<path d="M40.4458 141.603H38.1631V141.693H40.4458V141.603Z" fill="#EBEBEB"/>
<path d="M81.6497 143.125H47.8672V143.215H81.6497V143.125Z" fill="#EBEBEB"/>
<path d="M85.9233 122.457H16.2954C15.7493 122.457 15.2256 122.241 14.8394 121.854C14.4533 121.468 14.2363 120.944 14.2363 120.398V22.5162C14.2411 21.9732 14.4601 21.4541 14.8458 21.0718C15.2314 20.6895 15.7524 20.4751 16.2954 20.4751H85.9233C86.4694 20.4751 86.9931 20.692 87.3793 21.0782C87.7655 21.4644 87.9824 21.9881 87.9824 22.5342V120.398C87.9824 120.944 87.7655 121.468 87.3793 121.854C86.9931 122.241 86.4694 122.457 85.9233 122.457ZM16.2954 20.5472C15.7735 20.5482 15.2733 20.7559 14.9042 21.125C14.5352 21.494 14.3274 21.9943 14.3265 22.5162V120.398C14.3274 120.92 14.5352 121.42 14.9042 121.79C15.2733 122.159 15.7735 122.366 16.2954 122.367H85.9233C86.4452 122.366 86.9455 122.159 87.3145 121.79C87.6836 121.42 87.8913 120.92 87.8923 120.398V22.5162C87.8913 21.9943 87.6836 21.494 87.3145 21.125C86.9455 20.7559 86.4452 20.5482 85.9233 20.5472H16.2954Z" fill="#EBEBEB"/>
<path d="M163.928 122.457H94.2925C93.7467 122.456 93.2235 122.239 92.8376 121.853C92.4516 121.467 92.2344 120.944 92.2334 120.398V22.5162C92.2391 21.9735 92.4584 21.4549 92.8439 21.0729C93.2293 20.6908 93.7498 20.476 94.2925 20.4751H163.928C164.469 20.477 164.989 20.6923 165.373 21.0743C165.757 21.4564 165.975 21.9745 165.979 22.5162V120.398C165.979 120.943 165.764 121.466 165.379 121.852C164.994 122.238 164.472 122.456 163.928 122.457ZM94.2925 20.5472C93.7706 20.5482 93.2703 20.7559 92.9013 21.125C92.5323 21.494 92.3245 21.9943 92.3236 22.5162V120.398C92.3245 120.92 92.5323 121.42 92.9013 121.79C93.2703 122.159 93.7706 122.366 94.2925 122.367H163.928C164.449 122.366 164.95 122.159 165.319 121.79C165.688 121.42 165.896 120.92 165.897 120.398V22.5162C165.896 21.9943 165.688 21.494 165.319 21.125C164.95 20.7559 164.449 20.5482 163.928 20.5472H94.2925Z" fill="#EBEBEB"/>
<path d="M180.765 138.542H0.457031V138.632H180.765V138.542Z" fill="#EBEBEB"/>
<path d="M80.153 102.908H82.5655V137.946C82.5655 138.06 82.5203 138.169 82.4399 138.249C82.3594 138.33 82.2502 138.375 82.1364 138.375H80.5785C80.4647 138.375 80.3556 138.33 80.2751 138.249C80.1946 138.169 80.1494 138.06 80.1494 137.946V102.908H80.153Z" fill="#F0F0F0"/>
<path d="M154.811 99.7568H133.91V102.909H154.811V99.7568Z" fill="#E6E6E6"/>
<path d="M95.1006 102.908H97.5131V137.946C97.5131 138.06 97.4679 138.169 97.3874 138.249C97.3069 138.33 97.1978 138.375 97.084 138.375H95.5297C95.4159 138.375 95.3068 138.33 95.2263 138.249C95.1458 138.169 95.1006 138.06 95.1006 137.946V102.908Z" fill="#E6E6E6"/>
<path d="M151.003 102.908H153.415V137.946C153.415 138.06 153.37 138.169 153.29 138.249C153.209 138.33 153.1 138.375 152.986 138.375H151.432C151.318 138.375 151.209 138.33 151.129 138.249C151.048 138.169 151.003 138.06 151.003 137.946V102.908Z" fill="#E6E6E6"/>
<path d="M139.871 99.7568H78.7686V102.909H139.871V99.7568Z" fill="#F5F5F5"/>
<path d="M136.049 102.908H138.461V137.946C138.461 138.06 138.416 138.169 138.335 138.249C138.255 138.33 138.146 138.375 138.032 138.375H136.474C136.36 138.375 136.251 138.33 136.171 138.249C136.09 138.169 136.045 138.06 136.045 137.946V102.908H136.049Z" fill="#F0F0F0"/>
<path d="M150.282 99.7565H144.739V99.2625C144.739 99.0337 144.786 98.8073 144.877 98.5971C144.967 98.3869 145.099 98.1973 145.265 98.0398C145.431 97.8823 145.627 97.7601 145.842 97.6808C146.056 97.6015 146.285 97.5667 146.513 97.5784L148.677 97.6974C149.108 97.7205 149.514 97.9081 149.81 98.2214C150.107 98.5348 150.272 98.95 150.271 99.3815L150.282 99.7565Z" fill="#F0F0F0"/>
<path d="M135.327 88.2965C135.317 88.0864 135.226 87.8882 135.074 87.7432C134.921 87.5981 134.719 87.5173 134.509 87.5176H128.894C128.683 87.5173 128.481 87.5981 128.329 87.7432C128.176 87.8882 128.085 88.0864 128.075 88.2965L129.406 99.9733H137.769L135.327 88.2965Z" fill="#E0E0E0"/>
<path d="M150.531 70.3453H148.443L146.099 92.397H148.183C148.355 92.3925 148.519 92.3268 148.647 92.2117C148.774 92.0967 148.857 91.9399 148.879 91.7696L151.09 70.962C151.099 70.8837 151.091 70.8042 151.067 70.7291C151.043 70.654 151.003 70.5849 150.95 70.5264C150.897 70.468 150.833 70.4216 150.76 70.3903C150.688 70.3591 150.609 70.3437 150.531 70.3453Z" fill="#E0E0E0"/>
<path d="M147.303 92.3962H116.016C115.936 92.398 115.857 92.3824 115.784 92.3505C115.711 92.3186 115.645 92.2712 115.592 92.2116C115.539 92.1519 115.499 92.0814 115.476 92.0049C115.453 91.9284 115.446 91.8478 115.457 91.7687L117.657 70.9611C117.679 70.7914 117.761 70.635 117.888 70.5201C118.015 70.4051 118.178 70.339 118.35 70.3336H149.637C149.717 70.3318 149.796 70.3474 149.869 70.3793C149.942 70.4112 150.008 70.4586 150.061 70.5182C150.114 70.5779 150.154 70.6484 150.177 70.7249C150.2 70.8014 150.207 70.882 150.196 70.9611L147.985 91.7579C147.966 91.9278 147.886 92.0853 147.761 92.2022C147.637 92.3191 147.474 92.3879 147.303 92.3962Z" fill="#EBEBEB"/>
<path d="M146.719 90.3588H117.213C117.144 90.3599 117.075 90.3461 117.012 90.3183C116.949 90.2905 116.892 90.2494 116.846 90.1977C116.799 90.1461 116.765 90.0851 116.744 90.0189C116.724 89.9528 116.718 89.883 116.727 89.8143L118.656 71.6825C118.674 71.5335 118.745 71.3961 118.857 71.2954C118.968 71.1948 119.112 71.1376 119.262 71.1343H148.764C148.833 71.1333 148.903 71.1472 148.967 71.1752C149.03 71.2031 149.088 71.2445 149.134 71.2965C149.181 71.3485 149.215 71.4098 149.236 71.4764C149.257 71.543 149.263 71.6133 149.254 71.6825L147.321 89.8287C147.299 89.9738 147.227 90.1064 147.117 90.2034C147.007 90.3004 146.866 90.3554 146.719 90.3588Z" fill="#FAFAFA"/>
<path d="M138.083 99.0645H127.798C127.738 99.064 127.679 99.0754 127.624 99.0981C127.568 99.1207 127.518 99.1542 127.476 99.1965C127.433 99.2388 127.4 99.2891 127.377 99.3444C127.355 99.3997 127.343 99.459 127.344 99.5188C127.344 99.6394 127.392 99.7549 127.477 99.8401C127.562 99.9254 127.678 99.9732 127.798 99.9732H138.083C138.203 99.9723 138.318 99.9241 138.403 99.8391C138.488 99.7541 138.536 99.6391 138.537 99.5188C138.537 99.3983 138.489 99.2828 138.404 99.1976C138.319 99.1123 138.203 99.0645 138.083 99.0645Z" fill="#E0E0E0"/>
<path d="M134.981 98.4585H117.534V99.7567H134.981V98.4585Z" fill="#EBEBEB"/>
<path d="M109.475 104.34H83.7988V138.508H109.475V104.34Z" fill="#F5F5F5"/>
<path d="M114.376 104.34H109.479V138.508H114.376V104.34Z" fill="#E6E6E6"/>
<path d="M107.813 106.875H85.5986V115.173H107.813V106.875Z" fill="#FAFAFA"/>
<path d="M107.813 116.079H85.5986V124.377H107.813V116.079Z" fill="#FAFAFA"/>
<path d="M107.813 125.285H85.5986V133.582H107.813V125.285Z" fill="#FAFAFA"/>
<path d="M97.6319 111.026C97.6319 111.21 97.5775 111.389 97.4757 111.541C97.3739 111.694 97.2291 111.812 97.0598 111.883C96.8904 111.953 96.7041 111.971 96.5243 111.935C96.3445 111.9 96.1794 111.811 96.0498 111.682C95.9202 111.552 95.8319 111.387 95.7961 111.207C95.7604 111.027 95.7787 110.841 95.8489 110.672C95.919 110.502 96.0378 110.358 96.1902 110.256C96.3426 110.154 96.5218 110.1 96.7051 110.1C96.9509 110.1 97.1866 110.197 97.3604 110.371C97.5342 110.545 97.6319 110.781 97.6319 111.026Z" fill="#EBEBEB"/>
<path d="M97.6319 120.229C97.6319 120.412 97.5775 120.592 97.4757 120.744C97.3739 120.896 97.2291 121.015 97.0598 121.085C96.8904 121.155 96.7041 121.174 96.5243 121.138C96.3445 121.102 96.1794 121.014 96.0498 120.884C95.9202 120.755 95.8319 120.59 95.7961 120.41C95.7604 120.23 95.7787 120.044 95.8489 119.874C95.919 119.705 96.0378 119.56 96.1902 119.458C96.3426 119.357 96.5218 119.302 96.7051 119.302C96.8269 119.302 96.9477 119.325 97.0603 119.372C97.173 119.418 97.2753 119.486 97.3615 119.573C97.4477 119.659 97.5159 119.761 97.5623 119.874C97.6087 119.986 97.6324 120.107 97.6319 120.229Z" fill="#EBEBEB"/>
<path d="M97.6319 129.432C97.6319 129.615 97.5775 129.794 97.4757 129.947C97.3739 130.099 97.2291 130.218 97.0598 130.288C96.8904 130.358 96.7041 130.376 96.5243 130.341C96.3445 130.305 96.1794 130.217 96.0498 130.087C95.9202 129.957 95.8319 129.792 95.7961 129.612C95.7604 129.433 95.7787 129.246 95.8489 129.077C95.919 128.908 96.0378 128.763 96.1902 128.661C96.3426 128.559 96.5218 128.505 96.7051 128.505C96.9509 128.505 97.1866 128.603 97.3604 128.776C97.5342 128.95 97.6319 129.186 97.6319 129.432Z" fill="#EBEBEB"/>
<path d="M67.2539 48.8809H31.9893V137.73H67.2539V48.8809Z" fill="#E0E0E0"/>
<path d="M67.2539 48.1021V138.509H73.745V48.1021H67.2539Z" fill="#E0E0E0"/>
<path d="M25.8047 48.1021V138.509H32.2958V48.1021H25.8047Z" fill="#E6E6E6"/>
<path d="M24.7012 48.1021V138.509H68.0329V48.1021H24.7012ZM66.475 49.6599V65.8877H26.259V49.6599H66.475ZM26.259 101.412V85.1843H66.475V101.412H26.259ZM66.475 102.97V119.18H26.259V102.97H66.475ZM26.259 83.6408V67.4311H66.475V83.6408H26.259ZM26.259 136.951V120.727H66.475V136.954L26.259 136.951Z" fill="#F0F0F0"/>
<path d="M52.4217 101.56H53.9219V88.9818H52.4217V101.56Z" fill="#E6E6E6"/>
<path d="M53.9256 101.56H55.4258V88.9818H53.9256V101.56Z" fill="#E0E0E0"/>
<path d="M49.4252 101.56H52.4219V89.8653H49.4252V101.56Z" fill="#E6E6E6"/>
<path d="M45.9922 101.56H47.9287V88.9818H45.9922V101.56Z" fill="#F0F0F0"/>
<path d="M47.9246 101.56H49.4248V88.9818H47.9246V101.56Z" fill="#EBEBEB"/>
<path d="M34.625 101.56H36.5615V88.9818H34.625V101.56Z" fill="#E6E6E6"/>
<path d="M36.5584 101.56H38.0586V88.9818H36.5584V101.56Z" fill="#EBEBEB"/>
<path d="M41.0586 101.56H42.9951V88.9818H41.0586V101.56Z" fill="#E6E6E6"/>
<path d="M42.995 101.56H44.4951V88.9818H42.995V101.56Z" fill="#E0E0E0"/>
<path d="M31.6244 101.56H34.6211V89.2811H31.6244V101.56Z" fill="#EBEBEB"/>
<path d="M30.1248 101.56H31.625V89.2811H30.1248V101.56Z" fill="#E0E0E0"/>
<path d="M39.0569 101.56H41.0547V89.2811H39.0569V101.56Z" fill="#E0E0E0"/>
<path d="M38.0587 101.56H39.0576V89.2811H38.0587V101.56Z" fill="#F0F0F0"/>
<path d="M42.9955 101.56H45.9922V89.8653H42.9955V101.56Z" fill="#F5F5F5"/>
<path d="M59.919 101.56H61.8555V88.9818H59.919V101.56Z" fill="#EBEBEB"/>
<path d="M61.8553 101.56H63.3555V88.9818H61.8553V101.56Z" fill="#E6E6E6"/>
<path d="M56.9222 101.56H59.9189V89.2811H56.9222V101.56Z" fill="#E0E0E0"/>
<path d="M55.4217 101.56H56.9219V89.2811H55.4217V101.56Z" fill="#EBEBEB"/>
<path d="M64.3547 101.56H66.3525V89.2811H64.3547V101.56Z" fill="#EBEBEB"/>
<path d="M63.3556 101.56H64.3545V89.2811H63.3556V101.56Z" fill="#FAFAFA"/>
<path d="M44.0558 106.908H42.5557V119.487H44.0558V106.908Z" fill="#E6E6E6"/>
<path d="M42.5549 106.908H41.0547V119.487H42.5549V106.908Z" fill="#E0E0E0"/>
<path d="M47.0524 106.908H44.0557V118.603H47.0524V106.908Z" fill="#E6E6E6"/>
<path d="M50.4853 106.908H48.5488V119.487H50.4853V106.908Z" fill="#F0F0F0"/>
<path d="M48.5519 106.908H47.0518V119.487H48.5519V106.908Z" fill="#EBEBEB"/>
<path d="M61.8555 106.908H59.9189V119.487H61.8555V106.908Z" fill="#E6E6E6"/>
<path d="M59.9191 106.908H58.4189V119.487H59.9191V106.908Z" fill="#EBEBEB"/>
<path d="M55.4219 106.908H53.4854V119.487H55.4219V106.908Z" fill="#E6E6E6"/>
<path d="M53.4855 106.908H51.9854V119.487H53.4855V106.908Z" fill="#E0E0E0"/>
<path d="M64.8522 106.908H61.8555V119.187H64.8522V106.908Z" fill="#EBEBEB"/>
<path d="M66.3517 106.908H64.8516V119.187H66.3517V106.908Z" fill="#E0E0E0"/>
<path d="M57.4197 106.908H55.4219V119.187H57.4197V106.908Z" fill="#E0E0E0"/>
<path d="M58.4188 106.908H57.4199V119.187H58.4188V106.908Z" fill="#F0F0F0"/>
<path d="M53.486 106.908H50.4893V118.603H53.486V106.908Z" fill="#F5F5F5"/>
<path d="M36.5576 106.908H34.6211V119.487H36.5576V106.908Z" fill="#EBEBEB"/>
<path d="M34.6252 106.908H33.125V119.487H34.6252V106.908Z" fill="#E6E6E6"/>
<path d="M39.5553 106.908H36.5586V119.187H39.5553V106.908Z" fill="#E0E0E0"/>
<path d="M41.0588 106.908H39.5586V119.187H41.0588V106.908Z" fill="#EBEBEB"/>
<path d="M32.1228 106.908H30.125V119.187H32.1228V106.908Z" fill="#EBEBEB"/>
<path d="M33.122 106.908H32.123V119.187H33.122V106.908Z" fill="#FAFAFA"/>
<path d="M52.4217 137.412H53.9219V124.834H52.4217V137.412Z" fill="#E6E6E6"/>
<path d="M53.9256 137.412H55.4258V124.834H53.9256V137.412Z" fill="#E0E0E0"/>
<path d="M49.4252 137.412H52.4219V125.717H49.4252V137.412Z" fill="#E6E6E6"/>
<path d="M45.9922 137.412H47.9287V124.834H45.9922V137.412Z" fill="#F0F0F0"/>
<path d="M47.9246 137.412H49.4248V124.834H47.9246V137.412Z" fill="#EBEBEB"/>
<path d="M34.625 137.412H36.5615V124.834H34.625V137.412Z" fill="#E6E6E6"/>
<path d="M36.5584 137.412H38.0586V124.834H36.5584V137.412Z" fill="#EBEBEB"/>
<path d="M41.0586 137.412H42.9951V124.834H41.0586V137.412Z" fill="#E6E6E6"/>
<path d="M42.995 137.412H44.4951V124.834H42.995V137.412Z" fill="#E0E0E0"/>
<path d="M31.6244 137.409H34.6211V125.13H31.6244V137.409Z" fill="#EBEBEB"/>
<path d="M30.1248 137.409H31.625V125.13H30.1248V137.409Z" fill="#E0E0E0"/>
<path d="M39.0569 137.409H41.0547V125.13H39.0569V137.409Z" fill="#E0E0E0"/>
<path d="M38.0587 137.409H39.0576V125.13H38.0587V137.409Z" fill="#F0F0F0"/>
<path d="M42.9955 137.412H45.9922V125.717H42.9955V137.412Z" fill="#F5F5F5"/>
<path d="M59.919 137.412H61.8555V124.834H59.919V137.412Z" fill="#EBEBEB"/>
<path d="M61.8553 137.412H63.3555V124.834H61.8553V137.412Z" fill="#E6E6E6"/>
<path d="M56.9222 137.409H59.9189V125.13H56.9222V137.409Z" fill="#E0E0E0"/>
<path d="M55.4217 137.409H56.9219V125.13H55.4217V137.409Z" fill="#EBEBEB"/>
<path d="M64.3547 137.409H66.3525V125.13H64.3547V137.409Z" fill="#EBEBEB"/>
<path d="M63.3556 137.409H64.3545V125.13H63.3556V137.409Z" fill="#FAFAFA"/>
<path d="M43.9687 66.0682L43.2871 58.2969H53.1464L53.8243 66.0682H43.9687Z" fill="#F0F0F0"/>
<path d="M43.9685 66.0682L43.2869 58.2969H42.7568L43.4384 66.0682H43.9685Z" fill="#E0E0E0"/>
<path d="M44.9023 65.278L44.3613 59.0898H52.2083L52.7493 65.278H44.9023Z" fill="#FAFAFA"/>
<path d="M45.5055 64.7663L45.0547 59.5986H51.6071L52.0615 64.7663H45.5055Z" fill="#EBEBEB"/>
<path d="M32.8541 66.0679H42.7566L41.6567 53.5112H31.7578L32.8541 66.0679Z" fill="#EBEBEB"/>
<path d="M32.8548 66.0679H32.3824L31.2861 53.5112H31.7585L32.8548 66.0679Z" fill="#E0E0E0"/>
<path d="M33.7526 64.7878H41.6357L40.763 54.7915H32.8799L33.7526 64.7878Z" fill="#E0E0E0"/>
<path d="M34.329 63.9656H40.9139L40.1854 55.6138H33.6006L34.329 63.9656Z" fill="#FAFAFA"/>
<path d="M36.5816 57.207L35.4876 58.3009C35.0398 58.7488 35.0398 59.4749 35.4876 59.9227L36.5816 61.0166C37.0294 61.4645 37.7555 61.4645 38.2033 61.0166L39.2973 59.9227C39.7451 59.4749 39.7451 58.7488 39.2973 58.3009L38.2033 57.207C37.7555 56.7592 37.0294 56.7592 36.5816 57.207Z" fill="#EBEBEB"/>
<path d="M37.2395 59.9328L36.472 60.7003C36.0242 61.1482 36.0242 61.8743 36.472 62.3221L37.2395 63.0896C37.6874 63.5375 38.4135 63.5375 38.8613 63.0896L39.6288 62.3221C40.0767 61.8743 40.0767 61.1482 39.6288 60.7003L38.8613 59.9328C38.4135 59.485 37.6874 59.485 37.2395 59.9328Z" fill="#E6E6E6"/>
<path d="M55.6885 66.0681L60.5388 61.2178L65.3891 66.0681H55.6885Z" fill="#F5F5F5"/>
<path d="M60.5388 61.2178L55.6885 66.0681H60.5388V61.2178Z" fill="#E6E6E6"/>
<path d="M41.1167 78.4822C42.9136 76.6853 42.9136 73.7718 41.1167 71.9748C39.3197 70.1778 36.4062 70.1778 34.6092 71.9748C32.8122 73.7718 32.8122 76.6853 34.6092 78.4822C36.4062 80.2792 39.3197 80.2792 41.1167 78.4822Z" fill="#F0F0F0"/>
<path d="M38.1849 83.36H37.543V80.3128H37.8639C39.2125 80.3128 40.5058 79.7771 41.4593 78.8235C42.4129 77.8699 42.9486 76.5766 42.9486 75.2281C42.9486 73.8795 42.4129 72.5862 41.4593 71.6327C40.5058 70.6791 39.2125 70.1434 37.8639 70.1434V69.5195C39.3498 69.5272 40.7744 70.1121 41.837 71.1507C42.8996 72.1893 43.517 73.6002 43.5586 75.0855C43.6003 76.5708 43.063 78.0141 42.0603 79.1106C41.0576 80.2071 39.6679 80.8709 38.1849 80.9619V83.36Z" fill="#EBEBEB"/>
<path d="M40.5679 83.4323H35.0938C35.0937 83.1068 35.2228 82.7946 35.4526 82.5641C35.6825 82.3336 35.9943 82.2036 36.3198 82.2026H39.3382C39.6643 82.2026 39.9771 82.3322 40.2077 82.5628C40.4383 82.7934 40.5679 83.1062 40.5679 83.4323Z" fill="#EBEBEB"/>
<path d="M49.768 83.2223V80.0344C49.6867 80.0344 49.6087 80.0021 49.5512 79.9447C49.4938 79.8872 49.4615 79.8092 49.4615 79.7279C49.4615 79.6466 49.4938 79.5686 49.5512 79.5112C49.6087 79.4537 49.6867 79.4214 49.768 79.4214C50.9797 79.4214 52.1985 79.4214 53.4138 79.4214V83.8461H49.768C49.6853 83.8461 49.6059 83.8133 49.5474 83.7548C49.4889 83.6963 49.4561 83.6169 49.4561 83.5342C49.4561 83.4515 49.4889 83.3721 49.5474 83.3136C49.6059 83.2551 49.6853 83.2223 49.768 83.2223Z" fill="#EBEBEB"/>
<path d="M52.602 80.0347H49.7676V83.2189H52.602V80.0347Z" fill="#F5F5F5"/>
<path d="M52.0029 83.5258H61.8261C62.5005 83.5258 63.0486 82.6784 63.0486 81.629C63.0486 80.5796 62.5005 79.7285 61.8261 79.7285H52.0029V83.5258Z" fill="#FAFAFA"/>
<path d="M52.0028 79.4216C55.2195 79.4216 58.4398 79.3639 61.6529 79.4216C63.8563 79.4613 63.9753 83.6841 61.8152 83.832C60.3078 83.9366 58.7608 83.832 57.2534 83.832H52.0028C51.9277 83.8238 51.8583 83.7882 51.8078 83.7319C51.7574 83.6757 51.7295 83.6028 51.7295 83.5273C51.7295 83.4517 51.7574 83.3788 51.8078 83.3226C51.8583 83.2663 51.9277 83.2307 52.0028 83.2225H61.1444C61.8657 83.2225 62.3561 83.2225 62.6266 82.3823C62.8646 81.6611 62.7889 80.1934 61.826 80.0347C61.7156 80.0257 61.6046 80.0257 61.4942 80.0347H52.0028C51.9215 80.0347 51.8436 80.0024 51.7861 79.9449C51.7286 79.8874 51.6963 79.8095 51.6963 79.7282C51.6963 79.6469 51.7286 79.5689 51.7861 79.5114C51.8436 79.4539 51.9215 79.4216 52.0028 79.4216Z" fill="#EBEBEB"/>
<path d="M49.768 78.8409V75.6495C49.6929 75.6413 49.6235 75.6057 49.573 75.5494C49.5226 75.4932 49.4947 75.4203 49.4947 75.3448C49.4947 75.2692 49.5226 75.1963 49.573 75.1401C49.6235 75.0838 49.6929 75.0482 49.768 75.04C50.9797 75.04 52.1985 75.04 53.4138 75.04V79.4648H49.768C49.6853 79.4648 49.6059 79.4319 49.5474 79.3734C49.4889 79.3149 49.4561 79.2356 49.4561 79.1529C49.4561 79.0701 49.4889 78.9908 49.5474 78.9323C49.6059 78.8738 49.6853 78.8409 49.768 78.8409Z" fill="#EBEBEB"/>
<path d="M52.602 75.6533H49.7676V78.8376H52.602V75.6533Z" fill="#F5F5F5"/>
<path d="M52.0029 79.1476H61.8261C62.5005 79.1476 63.0486 78.2965 63.0486 77.2471C63.0486 76.1977 62.5005 75.3467 61.8261 75.3467H52.0029V79.1476Z" fill="#FAFAFA"/>
<path d="M52.0028 75.0437C55.2195 75.0437 58.4398 74.986 61.6529 75.0437C63.8563 75.0834 63.9753 79.3026 61.8152 79.4504C60.3078 79.555 58.7608 79.4504 57.2534 79.4504H52.0028C51.9277 79.4423 51.8583 79.4066 51.8078 79.3504C51.7574 79.2942 51.7295 79.2213 51.7295 79.1457C51.7295 79.0702 51.7574 78.9973 51.8078 78.941C51.8583 78.8848 51.9277 78.8492 52.0028 78.841H61.1444C61.8657 78.841 62.3561 78.841 62.6266 78.0008C62.8646 77.2795 62.7889 75.8118 61.826 75.6531C61.7156 75.6441 61.6047 75.6441 61.4942 75.6531H52.0028C51.9277 75.645 51.8583 75.6093 51.8078 75.5531C51.7574 75.4969 51.7295 75.424 51.7295 75.3484C51.7295 75.2729 51.7574 75.2 51.8078 75.1438C51.8583 75.0875 51.9277 75.0519 52.0028 75.0437Z" fill="#EBEBEB"/>
<path d="M88.8731 153.439C127.489 153.439 158.793 151.611 158.793 149.357C158.793 147.102 127.489 145.274 88.8731 145.274C50.2573 145.274 18.9531 147.102 18.9531 149.357C18.9531 151.611 50.2573 153.439 88.8731 153.439Z" fill="#F5F5F5"/>
<path d="M110.846 120.673C110.846 120.673 106.637 117.358 103.157 120.525L104.557 120.709L102.465 121.257C102.174 121.61 101.912 121.985 101.679 122.378C101.372 122.89 101.095 123.366 100.831 123.821L102.231 124.109L100.067 125.119C97.8708 128.988 97.5029 130.168 97.5029 130.168C98.9029 130.164 100.299 130.016 101.668 129.724L102.905 126.507L103.157 129.349C104.655 128.925 106.066 128.237 107.323 127.319L106.778 124.434L108.448 126.316C109.398 125.322 110.089 124.11 110.46 122.786L109.515 121.877L110.629 122.104C110.735 121.633 110.807 121.154 110.846 120.673Z" fill="#407BFF"/>
<path opacity="0.2" d="M110.846 120.673C110.846 120.673 106.637 117.358 103.157 120.525L104.557 120.709L102.465 121.257C102.174 121.61 101.912 121.985 101.679 122.378C101.372 122.89 101.095 123.366 100.831 123.821L102.231 124.109L100.067 125.119C97.8708 128.988 97.5029 130.168 97.5029 130.168C98.9029 130.164 100.299 130.016 101.668 129.724L102.905 126.507L103.157 129.349C104.655 128.925 106.066 128.237 107.323 127.319L106.778 124.434L108.448 126.316C109.398 125.322 110.089 124.11 110.46 122.786L109.515 121.877L110.629 122.104C110.735 121.633 110.807 121.154 110.846 120.673Z" fill="white"/>
<path d="M119.122 118.203C119.122 118.203 124.56 113.919 129.057 118.012L127.254 118.25L129.955 118.971C130.329 119.426 130.669 119.908 130.972 120.413C131.365 121.073 131.729 121.69 132.054 122.27L130.251 122.631L133.02 123.933C135.858 128.935 136.334 130.456 136.334 130.456C134.525 130.453 132.72 130.261 130.95 129.883L129.356 125.725L129.035 129.382C127.1 128.836 125.277 127.949 123.651 126.764L124.373 123.049L122.209 125.48C120.982 124.195 120.089 122.629 119.609 120.918L120.831 119.743L119.389 120.038C119.257 119.433 119.168 118.82 119.122 118.203Z" fill="#407BFF"/>
<path opacity="0.3" d="M119.122 118.203C119.122 118.203 124.56 113.919 129.057 118.012L127.254 118.25L129.955 118.971C130.329 119.426 130.669 119.908 130.972 120.413C131.365 121.073 131.729 121.69 132.054 122.27L130.251 122.631L133.02 123.933C135.858 128.935 136.334 130.456 136.334 130.456C134.525 130.453 132.72 130.261 130.95 129.883L129.356 125.725L129.035 129.382C127.1 128.836 125.277 127.949 123.651 126.764L124.373 123.049L122.209 125.48C120.982 124.195 120.089 122.629 119.609 120.918L120.831 119.743L119.389 120.038C119.257 119.433 119.168 118.82 119.122 118.203Z" fill="white"/>
<path d="M116.897 110.345C116.897 110.345 116.082 117.222 110.009 117.506L111.12 116.064L108.711 117.481C108.121 117.422 107.536 117.32 106.962 117.175C106.219 116.987 105.519 116.814 104.877 116.634L105.887 115.094L103.002 116.133C97.4595 114.6 96.0459 113.864 96.0459 113.864C97.3275 112.586 98.7391 111.445 100.258 110.46L104.326 112.263L101.96 109.439C103.715 108.456 105.631 107.793 107.618 107.481L109.746 110.608L109.558 107.362C111.329 107.405 113.063 107.881 114.607 108.751L114.574 110.446L115.382 109.219C115.914 109.557 116.42 109.933 116.897 110.345Z" fill="#407BFF"/>
<path opacity="0.5" d="M116.897 110.345C116.897 110.345 116.082 117.222 110.009 117.506L111.12 116.064L108.711 117.481C108.121 117.422 107.536 117.32 106.962 117.175C106.219 116.987 105.519 116.814 104.877 116.634L105.887 115.094L103.002 116.133C97.4595 114.6 96.0459 113.864 96.0459 113.864C97.3275 112.586 98.7391 111.445 100.258 110.46L104.326 112.263L101.96 109.439C103.715 108.456 105.631 107.793 107.618 107.481L109.746 110.608L109.558 107.362C111.329 107.405 113.063 107.881 114.607 108.751L114.574 110.446L115.382 109.219C115.914 109.557 116.42 109.933 116.897 110.345Z" fill="white"/>
<path d="M103.651 123.724C103.651 123.724 112.952 110.648 115.938 129.926H114.856C114.856 129.926 113.857 121.087 110.312 120.438C106.767 119.789 103.651 123.724 103.651 123.724Z" fill="#407BFF"/>
<path d="M126.72 121.329C126.72 121.329 117.751 103.198 114.87 129.926H115.898C115.898 129.926 116.879 117.665 120.294 116.771C123.709 115.877 126.72 121.329 126.72 121.329Z" fill="#407BFF"/>
<path d="M105.418 113.277C105.418 113.277 119.028 111.178 116.896 130.193H117.978C117.978 130.193 120.596 111.25 105.418 113.277Z" fill="#407BFF"/>
<path d="M107.084 128.66L110.69 148.934H122.345L125.951 128.66H107.084Z" fill="#263238"/>
<path opacity="0.5" d="M107.084 128.66L110.69 148.934H122.345L125.951 128.66H107.084Z" fill="white"/>
<path d="M64.8633 92.9126V98.3687C64.8642 99.3841 65.268 100.358 65.986 101.076C66.7041 101.794 67.6776 102.198 68.693 102.198H120.903C121.918 102.197 122.89 101.792 123.606 101.074C124.323 100.356 124.726 99.3832 124.726 98.3687V92.9126H64.8633Z" fill="#407BFF"/>
<path d="M120.896 57.9692H68.693C66.5779 57.9692 64.8633 59.6839 64.8633 61.799V97.6479C64.8633 99.763 66.5779 101.478 68.693 101.478H120.896C123.011 101.478 124.726 99.763 124.726 97.6479V61.799C124.726 59.6839 123.011 57.9692 120.896 57.9692Z" fill="#407BFF"/>
<path opacity="0.8" d="M120.896 57.9692H68.693C66.5779 57.9692 64.8633 59.6839 64.8633 61.799V97.6479C64.8633 99.763 66.5779 101.478 68.693 101.478H120.896C123.011 101.478 124.726 99.763 124.726 97.6479V61.799C124.726 59.6839 123.011 57.9692 120.896 57.9692Z" fill="white"/>
<path d="M88.4003 93.1473H87.4951V92.5991H89.9581V93.1328H89.053V95.4264H88.4003V93.1473Z" fill="#263238"/>
<path d="M92.1116 95.4401L91.5671 94.6504H90.9721V95.4401H90.3193V92.5985H91.5418C91.7659 92.5939 91.9884 92.6369 92.1945 92.7247C92.3682 92.8014 92.516 92.9266 92.6201 93.0853C92.7222 93.2482 92.7737 93.4377 92.7679 93.6298C92.7735 93.8225 92.7207 94.0123 92.6165 94.1744C92.5122 94.3343 92.3629 94.4598 92.1873 94.535L92.822 95.4437L92.1116 95.4401ZM91.9457 93.2764C91.8163 93.1827 91.6579 93.138 91.4986 93.1502H90.9721V94.1347H91.5058C91.6655 94.1459 91.824 94.0999 91.9529 94.0049C92.0009 93.9579 92.039 93.9018 92.065 93.8398C92.0911 93.7779 92.1045 93.7114 92.1045 93.6443C92.1045 93.5771 92.0911 93.5106 92.065 93.4487C92.039 93.3868 92.0009 93.3307 91.9529 93.2836L91.9457 93.2764Z" fill="#263238"/>
<path d="M95.4682 94.9143V95.4408H93.2793V92.5991H95.4142V93.122H93.9284V93.7387H95.2411V94.2471H93.9284V94.8999L95.4682 94.9143Z" fill="#263238"/>
<path d="M98.5801 92.5991V95.4264H98.0428L96.6328 93.7098V95.4264H95.9873V92.5991H96.5282L97.9346 94.3157V92.5991H98.5801Z" fill="#263238"/>
<path d="M99.2656 92.5985H100.549C100.831 92.5929 101.11 92.6534 101.364 92.7752C101.591 92.8836 101.781 93.0551 101.913 93.2692C102.043 93.4952 102.111 93.7514 102.111 94.0121C102.111 94.2729 102.043 94.529 101.913 94.755C101.781 94.9691 101.591 95.1407 101.364 95.249C101.11 95.3708 100.831 95.4313 100.549 95.4257H99.2656V92.5985ZM100.517 94.8884C100.765 94.9011 101.009 94.8156 101.195 94.6504C101.274 94.5702 101.335 94.4748 101.375 94.37C101.416 94.2651 101.434 94.1532 101.429 94.041C101.436 93.9222 101.416 93.8034 101.373 93.6927C101.329 93.5819 101.262 93.4818 101.177 93.3991C100.99 93.2365 100.747 93.1526 100.499 93.1647H99.9039V94.9173L100.517 94.8884Z" fill="#263238"/>
<path d="M76.8716 85.6748H71.4912V88.1919H76.8716V85.6748Z" fill="#407BFF"/>
<path d="M85.1187 83.4175H79.7383V88.1956H85.1187V83.4175Z" fill="#263238"/>
<path d="M93.3628 82.7646H87.9824V88.1955H93.3628V82.7646Z" fill="#407BFF"/>
<path d="M101.61 78.5815H96.2295V88.1956H101.61V78.5815Z" fill="#263238"/>
<path d="M109.854 72.2383H104.474V88.192H109.854V72.2383Z" fill="#407BFF"/>
<path d="M118.097 66.8149H112.717V88.1959H118.097V66.8149Z" fill="#263238"/>
<path d="M91.2603 35.401C90.1329 34.2279 88.7799 33.2948 87.2827 32.6577C85.7855 32.0207 84.1749 31.6928 82.5479 31.6939V39.2668C83.4648 39.2668 84.3719 39.4557 85.2126 39.8218C86.0533 40.1879 86.8095 40.7232 87.4342 41.3944L91.2603 37.5683V35.401Z" fill="#407BFF"/>
<path opacity="0.3" d="M91.2603 35.401C90.1329 34.2279 88.7799 33.2948 87.2827 32.6577C85.7855 32.0207 84.1749 31.6928 82.5479 31.6939V39.2668C83.4648 39.2668 84.3719 39.4557 85.2126 39.8218C86.0533 40.1879 86.8095 40.7232 87.4342 41.3944L91.2603 37.5683V35.401Z" fill="white"/>
<path d="M87.4342 39.2271L91.2603 35.401C90.1329 34.2279 88.7799 33.2948 87.2827 32.6577C85.7855 32.0207 84.1749 31.6928 82.5479 31.6939V37.1031C83.4645 37.1026 84.3715 37.291 85.2121 37.6564C86.0528 38.0219 86.8092 38.5565 87.4342 39.2271Z" fill="#407BFF"/>
<path d="M86.7127 43.5548C87.6197 44.5219 88.2184 45.7371 88.4328 47.0455C88.1781 48.6141 87.3735 50.0409 86.1631 51.0706C84.9527 52.1003 83.4154 52.6657 81.8263 52.6657C80.2372 52.6657 78.6999 52.1003 77.4895 51.0706C76.2791 50.0409 75.4745 48.6141 75.2198 47.0455C75.4748 45.4769 76.2794 44.0502 77.4897 43.0202C78.7 41.9903 80.2371 41.4243 81.8263 41.4235V33.8506C78.6147 33.8506 75.5346 35.1264 73.2636 37.3974C70.9926 39.6684 69.7168 42.7485 69.7168 45.9601C69.7168 46.3207 69.7384 46.6813 69.7673 47.0419C69.7384 47.4026 69.7168 47.7632 69.7168 48.1238C69.7716 51.2988 71.0713 54.3252 73.336 56.5511C75.6007 58.777 78.649 60.0243 81.8245 60.0243C84.9999 60.0243 88.0483 58.777 90.313 56.5511C92.5777 54.3252 93.8774 51.2988 93.9322 48.1238C93.9322 47.7632 93.9322 47.4026 93.8817 47.0419C93.9142 46.6813 93.9322 46.3207 93.9322 45.9601C93.9372 42.8245 92.7199 39.8104 90.5388 37.5577L86.7127 41.3911V43.5548Z" fill="#407BFF"/>
<path opacity="0.3" d="M86.7127 43.5548C87.6197 44.5219 88.2184 45.7371 88.4328 47.0455C88.1781 48.6141 87.3735 50.0409 86.1631 51.0706C84.9527 52.1003 83.4154 52.6657 81.8263 52.6657C80.2372 52.6657 78.6999 52.1003 77.4895 51.0706C76.2791 50.0409 75.4745 48.6141 75.2198 47.0455C75.4748 45.4769 76.2794 44.0502 77.4897 43.0202C78.7 41.9903 80.2371 41.4243 81.8263 41.4235V33.8506C78.6147 33.8506 75.5346 35.1264 73.2636 37.3974C70.9926 39.6684 69.7168 42.7485 69.7168 45.9601C69.7168 46.3207 69.7384 46.6813 69.7673 47.0419C69.7384 47.4026 69.7168 47.7632 69.7168 48.1238C69.7716 51.2988 71.0713 54.3252 73.336 56.5511C75.6007 58.777 78.649 60.0243 81.8245 60.0243C84.9999 60.0243 88.0483 58.777 90.313 56.5511C92.5777 54.3252 93.8774 51.2988 93.9322 48.1238C93.9322 47.7632 93.9322 47.4026 93.8817 47.0419C93.9142 46.6813 93.9322 46.3207 93.9322 45.9601C93.9372 42.8245 92.7199 39.8104 90.5388 37.5577L86.7127 41.3911V43.5548Z" fill="white"/>
<path opacity="0.6" d="M90.5391 37.5657L86.713 41.3919C87.7636 42.5176 88.3941 43.971 88.4984 45.5072C88.6027 47.0435 88.1744 48.5688 87.2857 49.8262C86.3969 51.0836 85.102 51.9963 83.619 52.4106C82.1359 52.8249 80.5555 52.7154 79.1437 52.1007C77.7319 51.486 76.5751 50.4036 75.8681 49.0357C75.1611 47.6678 74.9471 46.0981 75.2621 44.5908C75.5772 43.0836 76.402 41.731 77.5977 40.7608C78.7933 39.7906 80.2868 39.2621 81.8266 39.2642V33.855C79.0324 33.8525 76.3232 34.8159 74.1579 36.5819C71.9925 38.3479 70.5041 40.808 69.9446 43.5456C69.3851 46.2833 69.789 49.1301 71.0879 51.6041C72.3868 54.0781 74.5008 56.0271 77.0719 57.1211C79.6431 58.2151 82.5133 58.3869 85.1965 57.6073C87.8798 56.8277 90.2111 55.1447 91.7958 52.8432C93.3804 50.5418 94.1209 47.7634 93.8919 44.9786C93.6629 42.1938 92.4784 39.5738 90.5391 37.5621V37.5657Z" fill="white"/>
<path d="M79.0425 47.7421V48.4092H76.3703V47.8827L77.7334 46.5953C77.8501 46.4921 77.9488 46.3702 78.0255 46.2347C78.0746 46.1438 78.1006 46.0423 78.1012 45.939C78.105 45.8773 78.0938 45.8156 78.0687 45.7591C78.0436 45.7026 78.0053 45.653 77.957 45.6144C77.833 45.5306 77.6843 45.4912 77.5351 45.5026C77.391 45.501 77.2483 45.5305 77.1168 45.5892C76.9911 45.6499 76.8832 45.7418 76.803 45.856L76.208 45.4702C76.3512 45.2619 76.5481 45.0962 76.7778 44.9906C77.0383 44.8688 77.3233 44.8083 77.6108 44.8139C77.8481 44.8089 78.0838 44.8531 78.3032 44.9437C78.4867 45.0184 78.6455 45.1434 78.7612 45.3043C78.8715 45.4668 78.9282 45.6597 78.9234 45.856C78.9243 46.0429 78.8837 46.2277 78.8044 46.397C78.6837 46.6146 78.5249 46.8088 78.3356 46.9703L77.5207 47.7385L79.0425 47.7421Z" fill="#263238"/>
<path d="M80.1032 48.2432C79.8662 48.0899 79.6793 47.8705 79.5658 47.6121C79.3062 46.984 79.3062 46.2785 79.5658 45.6504C79.6793 45.392 79.8662 45.1725 80.1032 45.0193C80.3379 44.8737 80.6095 44.7986 80.8857 44.8029C81.1619 44.7986 81.4335 44.8737 81.6682 45.0193C81.9032 45.1749 82.0894 45.3936 82.2056 45.6504C82.4652 46.2785 82.4652 46.984 82.2056 47.6121C82.0905 47.8695 81.904 48.0885 81.6682 48.2432C81.4335 48.3887 81.1619 48.4639 80.8857 48.4596C80.6095 48.4639 80.3379 48.3887 80.1032 48.2432ZM81.3906 47.4895C81.5118 47.2196 81.5744 46.9271 81.5744 46.6312C81.5744 46.3354 81.5118 46.0429 81.3906 45.773C81.3365 45.6881 81.2619 45.6182 81.1736 45.5698C81.0854 45.5214 80.9863 45.496 80.8857 45.496C80.785 45.496 80.686 45.5214 80.5978 45.5698C80.5095 45.6182 80.4349 45.6881 80.3808 45.773C80.2596 46.0429 80.197 46.3354 80.197 46.6312C80.197 46.9271 80.2596 47.2196 80.3808 47.4895C80.4349 47.5744 80.5095 47.6443 80.5978 47.6927C80.686 47.7411 80.785 47.7665 80.8857 47.7665C80.9863 47.7665 81.0854 47.7411 81.1736 47.6927C81.2619 47.6443 81.3365 47.5744 81.3906 47.4895Z" fill="#263238"/>
<path d="M82.9799 46.5196C82.8208 46.317 82.7344 46.0668 82.7344 45.8092C82.7344 45.5516 82.8208 45.3014 82.9799 45.0988C83.0606 45.0119 83.1591 44.9434 83.2686 44.898C83.3781 44.8526 83.4961 44.8313 83.6146 44.8355C83.7326 44.8311 83.8502 44.8523 83.9591 44.8978C84.0681 44.9432 84.1659 45.0118 84.2457 45.0988C84.4024 45.3024 84.4874 45.5522 84.4874 45.8092C84.4874 46.0662 84.4024 46.316 84.2457 46.5196C84.1659 46.6066 84.0681 46.6752 83.9591 46.7206C83.8502 46.7661 83.7326 46.7873 83.6146 46.7829C83.4961 46.7871 83.3781 46.7658 83.2686 46.7204C83.1591 46.675 83.0606 46.6065 82.9799 46.5196ZM83.8851 46.2275C83.9491 46.0974 83.9823 45.9542 83.9823 45.8092C83.9823 45.6642 83.9491 45.5211 83.8851 45.3909C83.8554 45.347 83.8153 45.3111 83.7685 45.2862C83.7216 45.2614 83.6694 45.2484 83.6164 45.2484C83.5634 45.2484 83.5112 45.2614 83.4644 45.2862C83.4176 45.3111 83.3775 45.347 83.3478 45.3909C83.273 45.5158 83.2378 45.6603 83.2468 45.8056C83.2371 45.9521 83.2723 46.098 83.3478 46.2239C83.378 46.2671 83.4183 46.3023 83.465 46.3266C83.5118 46.3509 83.5637 46.3636 83.6164 46.3636C83.6691 46.3636 83.7211 46.3509 83.7678 46.3266C83.8146 46.3023 83.8548 46.2671 83.8851 46.2239V46.2275ZM85.7206 44.8752H86.3193L83.9067 48.4093H83.3081L85.7206 44.8752ZM85.562 48.3299C85.4271 48.2503 85.3191 48.1323 85.2518 47.9909C85.1781 47.829 85.1399 47.6532 85.1399 47.4753C85.1399 47.2973 85.1781 47.1215 85.2518 46.9596C85.3191 46.8182 85.4271 46.7002 85.562 46.6206C85.6984 46.5401 85.8544 46.4989 86.0127 46.5016C86.1312 46.4973 86.2492 46.5186 86.3588 46.5641C86.4683 46.6095 86.5667 46.678 86.6474 46.7648C86.8065 46.9675 86.893 47.2176 86.893 47.4753C86.893 47.7329 86.8065 47.983 86.6474 48.1857C86.5667 48.2725 86.4683 48.341 86.3588 48.3864C86.2492 48.4319 86.1312 48.4532 86.0127 48.4489C85.8544 48.4516 85.6984 48.4104 85.562 48.3299ZM86.2832 47.8936C86.3555 47.7665 86.3894 47.6212 86.3806 47.4753C86.3906 47.3304 86.3567 47.1858 86.2832 47.0605C86.2547 47.0149 86.2148 46.9775 86.1673 46.9522C86.1198 46.9269 86.0665 46.9145 86.0127 46.9163C85.96 46.9154 85.9079 46.9279 85.8613 46.9524C85.8146 46.977 85.775 47.013 85.7459 47.0569C85.6794 47.1864 85.6448 47.3298 85.6448 47.4753C85.6448 47.6207 85.6794 47.7641 85.7459 47.8936C85.7761 47.9367 85.8164 47.9719 85.8631 47.9963C85.9099 48.0206 85.9618 48.0333 86.0145 48.0333C86.0672 48.0333 86.1192 48.0206 86.1659 47.9963C86.2127 47.9719 86.2529 47.9367 86.2832 47.8936Z" fill="#263238"/>
<path d="M90.5394 81.3183C90.5037 81.3188 90.4683 81.3122 90.4353 81.2987C90.4023 81.2853 90.3723 81.2654 90.347 81.2402C90.3218 81.215 90.3019 81.185 90.2885 81.1519C90.2751 81.1189 90.2684 81.0835 90.2689 81.0479V76.7854C90.2692 76.3204 90.085 75.8743 89.7568 75.5449L82.2632 68.0512C82.0496 67.8392 81.8801 67.5869 81.7643 67.309C81.6486 67.0311 81.589 66.7331 81.5889 66.4321V62.3247C81.5898 62.2532 81.6186 62.185 81.6691 62.1344C81.7196 62.0839 81.7879 62.0551 81.8593 62.0542C81.9311 62.0542 81.9999 62.0827 82.0506 62.1334C82.1013 62.1841 82.1298 62.2529 82.1298 62.3247V66.4321C82.1294 66.6622 82.1748 66.89 82.2634 67.1024C82.3519 67.3147 82.4818 67.5073 82.6455 67.669L90.1391 75.1626C90.3526 75.3753 90.5219 75.6283 90.637 75.9068C90.7522 76.1854 90.8109 76.484 90.8098 76.7854V81.0587C90.807 81.1285 90.7773 81.1946 90.7269 81.243C90.6765 81.2914 90.6093 81.3184 90.5394 81.3183Z" fill="#263238"/>
<path d="M107.52 44.0026H106.943V44.7455H106.146V44.0026H104.242V43.4509L105.908 41.2114H106.767L105.223 43.3355H106.171V42.6755H106.943V43.3355H107.52V44.0026Z" fill="#263238"/>
<path d="M110.085 42.8344C110.202 42.9302 110.296 43.0521 110.359 43.1904C110.421 43.3287 110.451 43.4796 110.445 43.6313C110.448 43.8386 110.391 44.0424 110.283 44.2191C110.165 44.4052 109.994 44.552 109.793 44.641C109.535 44.7564 109.256 44.8119 108.974 44.8033C108.73 44.8014 108.488 44.7675 108.253 44.7023C108.033 44.6473 107.826 44.5532 107.64 44.4247L107.961 43.7972C108.101 43.9014 108.258 43.9807 108.426 44.0316C108.601 44.0863 108.783 44.1143 108.967 44.1145C109.136 44.1241 109.304 44.0827 109.45 43.9955C109.506 43.959 109.552 43.9086 109.583 43.8492C109.614 43.7898 109.629 43.7235 109.627 43.6566C109.636 43.5849 109.623 43.5123 109.59 43.448C109.557 43.3837 109.506 43.3307 109.443 43.2959C109.244 43.2005 109.024 43.1594 108.804 43.1769H107.899L108.083 41.1899H110.247V41.8463H108.772L108.714 42.517H109.003C109.389 42.4951 109.771 42.6071 110.085 42.8344Z" fill="#263238"/>
<path d="M110.889 42.8524C110.73 42.6504 110.644 42.4008 110.644 42.1438C110.644 41.8868 110.73 41.6373 110.889 41.4352C110.969 41.3483 111.068 41.2799 111.177 41.2344C111.287 41.189 111.405 41.1677 111.523 41.172C111.641 41.1675 111.759 41.1888 111.868 41.2342C111.977 41.2797 112.075 41.3482 112.154 41.4352C112.311 41.6383 112.396 41.8875 112.396 42.1438C112.396 42.4002 112.311 42.6493 112.154 42.8524C112.075 42.9399 111.977 43.009 111.868 43.0551C111.759 43.1011 111.642 43.1231 111.523 43.1193C111.405 43.1229 111.287 43.1009 111.177 43.0548C111.068 43.0088 110.969 42.9398 110.889 42.8524ZM111.794 42.5639C111.868 42.4376 111.902 42.2917 111.891 42.1456C111.902 41.9995 111.868 41.8536 111.794 41.7273C111.765 41.6816 111.725 41.6443 111.678 41.619C111.63 41.5936 111.577 41.5813 111.523 41.5831C111.47 41.5826 111.418 41.5956 111.371 41.6208C111.325 41.646 111.285 41.6827 111.257 41.7273C111.181 41.8532 111.146 41.9992 111.156 42.1456C111.147 42.2909 111.182 42.4355 111.257 42.5603C111.284 42.6057 111.324 42.643 111.371 42.6683C111.417 42.6936 111.47 42.7061 111.523 42.7046C111.577 42.7064 111.63 42.6944 111.677 42.6698C111.724 42.6452 111.765 42.6087 111.794 42.5639ZM113.629 41.2116H114.228L111.815 44.7457H111.217L113.629 41.2116ZM113.471 44.6663C113.336 44.5868 113.228 44.4687 113.161 44.3274C113.087 44.1654 113.049 43.9896 113.049 43.8117C113.049 43.6338 113.087 43.4579 113.161 43.296C113.225 43.147 113.333 43.0212 113.471 42.9354C113.608 42.8577 113.764 42.8178 113.921 42.82C114.04 42.8157 114.158 42.837 114.267 42.8825C114.377 42.9279 114.475 42.9964 114.556 43.0832C114.729 43.2826 114.817 43.5413 114.801 43.8045C114.81 43.9349 114.793 44.0657 114.75 44.1895C114.708 44.3132 114.642 44.4275 114.556 44.5257C114.476 44.613 114.377 44.6821 114.268 44.7281C114.158 44.7741 114.04 44.7961 113.921 44.7926C113.762 44.7931 113.606 44.7494 113.471 44.6663ZM114.192 44.2264C114.265 44.1011 114.299 43.9566 114.289 43.8117C114.299 43.6657 114.265 43.5203 114.192 43.3934C114.163 43.3482 114.123 43.3112 114.076 43.286C114.028 43.2607 113.975 43.248 113.921 43.2491C113.868 43.2476 113.816 43.2601 113.769 43.2854C113.722 43.3108 113.682 43.348 113.655 43.3934C113.579 43.5193 113.544 43.6652 113.554 43.8117C113.544 43.9581 113.579 44.1041 113.655 44.23C113.684 44.2739 113.724 44.3098 113.771 44.3346C113.818 44.3595 113.87 44.3725 113.923 44.3725C113.976 44.3725 114.028 44.3595 114.075 44.3346C114.122 44.3098 114.162 44.2739 114.192 44.23V44.2264Z" fill="#263238"/>
<path d="M119.183 48.2429L114.495 45.5346C113.843 46.7812 112.815 47.7908 111.557 48.4202C110.298 49.0495 108.874 49.2667 107.485 49.0408C106.097 48.8149 104.815 48.1574 103.821 47.1617C102.827 46.1659 102.172 44.8825 101.949 43.4935C102.116 42.4909 102.509 41.5392 103.097 40.7103C103.686 39.8814 104.455 39.1968 105.346 38.7082V36.5445L102.645 31.8564C100.767 32.9072 99.2027 34.4399 98.1143 36.2966C97.0259 38.1533 96.4525 40.2667 96.4531 42.4189C96.4531 42.7795 96.4712 43.1401 96.5036 43.5008C96.4748 43.8614 96.4531 44.222 96.4531 44.5826C96.4578 47.2678 97.3549 49.8753 99.0032 51.995C100.652 54.1148 102.958 55.6265 105.559 56.2925C108.16 56.9585 110.909 56.741 113.373 55.6743C115.838 54.6075 117.877 52.7519 119.172 50.3993L119.183 48.2429Z" fill="#263238"/>
<path opacity="0.6" d="M108.563 49.1446C107.075 49.1438 105.629 48.6475 104.453 47.7339C103.278 46.8203 102.44 45.5415 102.072 44.0991C101.703 42.6566 101.826 41.1327 102.419 39.7674C103.013 38.4022 104.044 37.2735 105.35 36.5591L102.649 31.8711C101.013 32.7872 99.6112 34.071 98.5556 35.6212C97.4999 37.1715 96.819 38.9459 96.5664 40.8043C96.3138 42.6628 96.4964 44.5545 97.0999 46.3303C97.7035 48.1061 98.7114 49.7174 100.044 51.0371C101.377 52.3567 102.998 53.3487 104.78 53.9347C106.561 54.5207 108.455 54.6847 110.311 54.4137C112.167 54.1428 113.934 53.4444 115.474 52.3735C117.014 51.3027 118.284 49.8887 119.183 48.2431L114.495 45.5349C113.93 46.6208 113.079 47.5313 112.033 48.1677C110.987 48.804 109.787 49.1419 108.563 49.1446Z" fill="white"/>
<path opacity="0.6" d="M119.183 48.2429L114.495 45.5346C113.843 46.7812 112.815 47.7908 111.557 48.4202C110.298 49.0495 108.874 49.2667 107.485 49.0408C106.097 48.8149 104.815 48.1574 103.821 47.1617C102.827 46.1659 102.172 44.8825 101.949 43.4935C102.116 42.4909 102.509 41.5392 103.097 40.7103C103.686 39.8814 104.455 39.1968 105.346 38.7082V36.5445L102.645 31.8564C100.767 32.9072 99.2027 34.4399 98.1143 36.2966C97.0259 38.1533 96.4525 40.2667 96.4531 42.4189C96.4531 42.7795 96.4712 43.1401 96.5036 43.5008C96.4748 43.8614 96.4531 44.222 96.4531 44.5826C96.4578 47.2678 97.3549 49.8753 99.0032 51.995C100.652 54.1148 102.958 55.6265 105.559 56.2925C108.16 56.9585 110.909 56.741 113.373 55.6743C115.838 54.6075 117.877 52.7519 119.172 50.3993L119.183 48.2429Z" fill="white"/>
<path d="M115.941 46.2708L120.629 48.979C121.609 47.1969 122.121 45.1958 122.119 43.1623C122.119 42.8016 122.097 42.441 122.065 42.0804C122.097 41.7198 122.119 41.3592 122.119 40.9986C122.119 38.886 121.566 36.8101 120.515 34.9773C119.465 33.1444 117.953 31.6183 116.13 30.5505C114.307 29.4826 112.237 28.9103 110.124 28.8902C108.012 28.8701 105.931 29.4031 104.088 30.4361V32.5998L106.789 37.2878C107.73 36.7721 108.782 36.4903 109.855 36.4663C110.928 36.4423 111.991 36.6767 112.955 37.1498C113.918 37.6229 114.754 38.3207 115.391 39.1845C116.028 40.0483 116.448 41.0527 116.616 42.1129C116.499 42.8151 116.271 43.4943 115.941 44.1251V46.2708Z" fill="#263238"/>
<path opacity="0.4" d="M115.941 46.2708L120.629 48.979C121.609 47.1969 122.121 45.1958 122.119 43.1623C122.119 42.8016 122.097 42.441 122.065 42.0804C122.097 41.7198 122.119 41.3592 122.119 40.9986C122.119 38.886 121.566 36.8101 120.515 34.9773C119.465 33.1444 117.953 31.6183 116.13 30.5505C114.307 29.4826 112.237 28.9103 110.124 28.8902C108.012 28.8701 105.931 29.4031 104.088 30.4361V32.5998L106.789 37.2878C107.73 36.7721 108.782 36.4903 109.855 36.4663C110.928 36.4423 111.991 36.6767 112.955 37.1498C113.918 37.6229 114.754 38.3207 115.391 39.1845C116.028 40.0483 116.448 41.0527 116.616 42.1129C116.499 42.8151 116.271 43.4943 115.941 44.1251V46.2708Z" fill="white"/>
<path d="M110.005 28.8926C107.933 28.8885 105.896 29.4202 104.091 30.436L106.792 35.1241C108.054 34.4339 109.504 34.1682 110.929 34.3662C112.354 34.5642 113.677 35.2154 114.703 36.2236C115.729 37.2317 116.403 38.5433 116.626 39.9643C116.849 41.3853 116.609 42.8404 115.941 44.1142L120.629 46.8225C121.639 44.9787 122.151 42.9037 122.116 40.8016C122.081 38.6996 121.498 36.643 120.427 34.8344C119.355 33.0257 117.831 31.5274 116.004 30.4868C114.177 29.4462 112.111 28.8992 110.009 28.8998L110.005 28.8926Z" fill="#263238"/>
<path d="M98.9052 77.1652C98.8338 77.1642 98.7655 77.1354 98.715 77.0849C98.6645 77.0344 98.6357 76.9661 98.6348 76.8947V73.7105C98.6356 73.1015 98.8781 72.5178 99.3091 72.0877L106.803 64.5977C107.131 64.2683 107.315 63.8221 107.315 63.3572V58.8891C107.316 58.8177 107.345 58.7494 107.395 58.6989C107.446 58.6484 107.514 58.6196 107.585 58.6187C107.657 58.6196 107.725 58.6484 107.775 58.6989C107.826 58.7494 107.855 58.8177 107.856 58.8891V63.3572C107.855 63.9653 107.614 64.5485 107.185 64.9799L99.6914 72.4699C99.5276 72.6323 99.3976 72.8255 99.3091 73.0385C99.2206 73.2514 99.1752 73.4798 99.1757 73.7105V76.8947C99.1757 76.9664 99.1472 77.0352 99.0965 77.0859C99.0458 77.1367 98.977 77.1652 98.9052 77.1652Z" fill="#263238"/>
<path d="M135.496 91.7415C135.676 91.8273 135.828 91.9608 135.936 92.1274C136.046 92.3009 136.102 92.5027 136.098 92.708C136.101 92.9275 136.04 93.1432 135.922 93.3282C135.801 93.5062 135.634 93.6483 135.438 93.7393C135.226 93.8382 134.995 93.8875 134.761 93.8836C134.546 93.8955 134.331 93.8612 134.131 93.7828C133.93 93.7044 133.749 93.5838 133.599 93.4292C133.299 93.0661 133.149 92.6014 133.181 92.131C133.171 91.7738 133.249 91.4197 133.408 91.0996C133.549 90.825 133.769 90.5989 134.039 90.4505C134.329 90.2974 134.653 90.2205 134.981 90.2269C135.164 90.2261 135.347 90.2479 135.525 90.2919C135.681 90.3254 135.829 90.3851 135.965 90.4686L135.662 91.0708C135.465 90.9458 135.235 90.8841 135.002 90.8941C134.87 90.8853 134.738 90.9041 134.614 90.9495C134.489 90.9948 134.376 91.0656 134.281 91.1573C134.091 91.3643 133.989 91.6372 133.996 91.9182C134.113 91.8098 134.25 91.7262 134.4 91.6723C134.55 91.6184 134.71 91.5953 134.869 91.6045C135.086 91.6004 135.301 91.6473 135.496 91.7415ZM135.136 93.1299C135.191 93.0833 135.235 93.0245 135.263 92.9582C135.292 92.8919 135.305 92.8198 135.301 92.7476C135.305 92.6749 135.292 92.6023 135.263 92.5354C135.235 92.4685 135.191 92.4091 135.136 92.3618C135.014 92.2599 134.858 92.2083 134.699 92.2175C134.541 92.2115 134.385 92.2641 134.263 92.3654C134.207 92.412 134.163 92.4706 134.133 92.5368C134.103 92.6029 134.088 92.675 134.09 92.7476C134.09 92.8162 134.105 92.8838 134.133 92.9461C134.162 93.0083 134.204 93.0636 134.256 93.1083C134.384 93.2107 134.546 93.262 134.71 93.2525C134.863 93.266 135.016 93.2223 135.139 93.1299H135.136Z" fill="#263238"/>
<path d="M137.13 93.6808C136.895 93.5262 136.708 93.3072 136.593 93.0498C136.334 92.4216 136.334 91.7162 136.593 91.088C136.706 90.8233 136.892 90.5967 137.13 90.4353C137.365 90.2897 137.637 90.2146 137.913 90.2189C138.189 90.2146 138.461 90.2897 138.696 90.4353C138.931 90.5898 139.118 90.8089 139.233 91.0664C139.493 91.6945 139.493 92.4 139.233 93.0281C139.119 93.2865 138.933 93.5059 138.696 93.6592C138.461 93.8048 138.189 93.8799 137.913 93.8756C137.639 93.8864 137.368 93.8188 137.13 93.6808ZM138.421 92.9272C138.543 92.6573 138.605 92.3647 138.605 92.0689C138.605 91.773 138.543 91.4805 138.421 91.2106C138.367 91.1257 138.293 91.0559 138.205 91.0074C138.116 90.959 138.017 90.9337 137.917 90.9337C137.816 90.9337 137.717 90.959 137.629 91.0074C137.54 91.0559 137.466 91.1257 137.412 91.2106C137.291 91.4805 137.228 91.773 137.228 92.0689C137.228 92.3647 137.291 92.6573 137.412 92.9272C137.466 93.012 137.54 93.0819 137.629 93.1303C137.717 93.1787 137.816 93.2041 137.917 93.2041C138.017 93.2041 138.116 93.1787 138.205 93.1303C138.293 93.0819 138.367 93.012 138.421 92.9272Z" fill="#263238"/>
<path d="M140.015 91.9323C139.856 91.7297 139.77 91.4795 139.77 91.2219C139.77 90.9643 139.856 90.7141 140.015 90.5115C140.098 90.4279 140.196 90.3615 140.305 90.3162C140.414 90.2709 140.53 90.2476 140.648 90.2476C140.766 90.2476 140.882 90.2709 140.991 90.3162C141.099 90.3615 141.198 90.4279 141.281 90.5115C141.438 90.7152 141.523 90.9649 141.523 91.2219C141.523 91.4789 141.438 91.7287 141.281 91.9323C141.198 92.016 141.099 92.0823 140.991 92.1276C140.882 92.173 140.766 92.1963 140.648 92.1963C140.53 92.1963 140.414 92.173 140.305 92.1276C140.196 92.0823 140.098 92.016 140.015 91.9323ZM140.92 91.6402C140.984 91.5101 141.017 91.367 141.017 91.2219C141.017 91.0769 140.984 90.9338 140.92 90.8036C140.89 90.7596 140.85 90.7237 140.803 90.6991C140.756 90.6746 140.703 90.6621 140.65 90.663C140.596 90.6619 140.543 90.6746 140.496 90.6998C140.448 90.7251 140.408 90.762 140.379 90.8072C140.306 90.9325 140.272 91.077 140.282 91.2219C140.273 91.3678 140.307 91.5132 140.379 91.6402C140.41 91.6834 140.451 91.7186 140.498 91.7429C140.545 91.7672 140.597 91.7799 140.65 91.7799C140.703 91.7799 140.755 91.7672 140.802 91.7429C140.849 91.7186 140.89 91.6834 140.92 91.6402ZM142.756 90.2879H143.354L140.942 93.822H140.34L142.756 90.2879ZM142.594 93.7426C142.46 93.6609 142.353 93.5435 142.283 93.4037C142.212 93.2411 142.175 93.0655 142.175 92.888C142.175 92.7104 142.212 92.5349 142.283 92.3723C142.353 92.2325 142.46 92.115 142.594 92.0333C142.731 91.9529 142.888 91.9117 143.048 91.9143C143.166 91.9099 143.283 91.9311 143.392 91.9765C143.501 92.022 143.599 92.0906 143.679 92.1776C143.838 92.3802 143.925 92.6303 143.925 92.888C143.925 93.1456 143.838 93.3958 143.679 93.5984C143.599 93.6853 143.501 93.7539 143.392 93.7994C143.283 93.8448 143.166 93.8661 143.048 93.8616C142.886 93.8656 142.726 93.8244 142.586 93.7426H142.594ZM143.315 93.3063C143.387 93.1792 143.421 93.0339 143.412 92.888C143.422 92.7431 143.388 92.5985 143.315 92.4733C143.286 92.4281 143.246 92.3911 143.198 92.3659C143.151 92.3406 143.098 92.3279 143.044 92.329C142.992 92.3278 142.939 92.3401 142.893 92.3647C142.846 92.3893 142.806 92.4254 142.777 92.4697C142.709 92.5983 142.673 92.742 142.673 92.888C142.673 93.0339 142.709 93.1776 142.777 93.3063C142.806 93.3505 142.846 93.3866 142.893 93.4112C142.939 93.4358 142.992 93.4481 143.044 93.4469C143.096 93.4488 143.147 93.4383 143.193 93.4163C143.24 93.3944 143.28 93.3616 143.311 93.3207L143.315 93.3063Z" fill="#263238"/>
<path d="M128.331 86.869L133.019 89.5736C133.67 88.3264 134.698 87.3161 135.956 86.6863C137.214 86.0564 138.639 85.839 140.027 86.065C141.416 86.291 142.698 86.9489 143.692 87.9451C144.685 88.9414 145.339 90.2254 145.561 91.6147C145.397 92.617 145.007 93.5689 144.421 94.3986C143.835 95.2282 143.069 95.9138 142.179 96.4037V98.5674L144.88 103.255C146.757 102.204 148.321 100.671 149.409 98.8146C150.498 96.9581 151.071 94.845 151.072 92.6929C151.072 92.3323 151.053 91.9537 151.021 91.593C151.05 91.2324 151.072 90.8718 151.072 90.5292C151.067 87.844 150.17 85.2365 148.521 83.1168C146.873 80.9971 144.567 79.4853 141.966 78.8193C139.364 78.1533 136.615 78.3708 134.151 79.4376C131.687 80.5044 129.647 82.3599 128.353 84.7125L128.331 86.869Z" fill="#407BFF"/>
<path d="M131.576 88.8526L126.888 86.1479C125.911 87.931 125.4 89.9317 125.402 91.9647C125.402 92.3253 125.402 92.6859 125.456 93.0465C125.424 93.4072 125.402 93.7678 125.402 94.1284C125.402 96.241 125.955 98.3168 127.006 100.15C128.056 101.983 129.568 103.509 131.391 104.576C133.214 105.644 135.284 106.217 137.397 106.237C139.509 106.257 141.59 105.724 143.433 104.691V102.527L140.732 97.8391C139.791 98.3523 138.741 98.6323 137.67 98.6558C136.599 98.6792 135.537 98.4452 134.575 97.9736C133.613 97.502 132.778 96.8065 132.14 95.9454C131.502 95.0844 131.08 94.0828 130.909 93.0249C131.025 92.3214 131.253 91.6409 131.583 91.0091L131.576 88.8526Z" fill="#407BFF"/>
<path opacity="0.3" d="M128.331 86.869L133.019 89.5736C133.67 88.3264 134.698 87.3161 135.956 86.6863C137.214 86.0564 138.639 85.839 140.027 86.065C141.416 86.291 142.698 86.9489 143.692 87.9451C144.685 88.9414 145.339 90.2254 145.561 91.6147C145.397 92.617 145.007 93.5689 144.421 94.3986C143.835 95.2282 143.069 95.9138 142.179 96.4037V98.5674L144.88 103.255C146.757 102.204 148.321 100.671 149.409 98.8146C150.498 96.9581 151.071 94.845 151.072 92.6929C151.072 92.3323 151.053 91.9537 151.021 91.593C151.05 91.2324 151.072 90.8718 151.072 90.5292C151.067 87.844 150.17 85.2365 148.521 83.1168C146.873 80.9971 144.567 79.4853 141.966 78.8193C139.364 78.1533 136.615 78.3708 134.151 79.4376C131.687 80.5044 129.647 82.3599 128.353 84.7125L128.331 86.869Z" fill="white"/>
<path opacity="0.3" d="M131.576 88.8526L126.888 86.1479C125.911 87.931 125.4 89.9317 125.402 91.9647C125.402 92.3253 125.402 92.6859 125.456 93.0465C125.424 93.4072 125.402 93.7678 125.402 94.1284C125.402 96.241 125.955 98.3168 127.006 100.15C128.056 101.983 129.568 103.509 131.391 104.576C133.214 105.644 135.284 106.217 137.397 106.237C139.509 106.257 141.59 105.724 143.433 104.691V102.527L140.732 97.8391C139.791 98.3523 138.741 98.6323 137.67 98.6558C136.599 98.6792 135.537 98.4452 134.575 97.9736C133.613 97.502 132.778 96.8065 132.14 95.9454C131.502 95.0844 131.08 94.0828 130.909 93.0249C131.025 92.3214 131.253 91.6409 131.583 91.0091L131.576 88.8526Z" fill="white"/>
<path d="M138.955 83.8189C140.444 83.8197 141.89 84.316 143.065 85.2296C144.24 86.1432 145.078 87.422 145.447 88.8644C145.815 90.3069 145.693 91.8309 145.099 93.1961C144.505 94.5613 143.474 95.6901 142.168 96.4044L144.869 101.092C146.506 100.176 147.908 98.8921 148.964 97.3414C150.02 95.7908 150.701 94.0161 150.954 92.1572C151.206 90.2983 151.024 88.4061 150.42 86.6298C149.817 84.8535 148.809 83.2418 147.476 81.9216C146.143 80.6015 144.521 79.6091 142.739 79.0227C140.957 78.4364 139.064 78.272 137.207 78.5427C135.351 78.8134 133.583 79.5117 132.042 80.5825C130.502 81.6534 129.231 83.0674 128.331 84.7132L133.019 87.4178C133.585 86.3331 134.438 85.4242 135.485 84.7898C136.531 84.1553 137.731 83.8195 138.955 83.8189Z" fill="#407BFF"/>
<path opacity="0.6" d="M137.513 104.07C139.584 104.072 141.621 103.541 143.427 102.527L140.726 97.8385C139.463 98.5296 138.012 98.7959 136.587 98.598C135.161 98.4001 133.837 97.7484 132.811 96.7395C131.785 95.7306 131.111 94.4181 130.888 92.9963C130.666 91.5744 130.907 90.1187 131.577 88.8448L126.889 86.1401C125.88 87.9843 125.368 90.0594 125.404 92.1614C125.44 94.2633 126.023 96.3196 127.095 98.128C128.167 99.9364 129.691 101.435 131.518 102.475C133.344 103.516 135.41 104.063 137.513 104.063V104.07Z" fill="white"/>
<path d="M122.918 93.8973H111.887C111.279 93.8962 110.695 93.6552 110.264 93.2265L107.17 90.1288C107.119 90.0781 107.091 90.0094 107.091 89.9377C107.091 89.866 107.119 89.7973 107.17 89.7466C107.221 89.6959 107.289 89.6675 107.361 89.6675C107.433 89.6675 107.501 89.6959 107.552 89.7466L110.646 92.8443C110.976 93.1721 111.422 93.3562 111.887 93.3564H122.925C122.997 93.3564 123.066 93.3848 123.117 93.4356C123.167 93.4863 123.196 93.5551 123.196 93.6268C123.196 93.6631 123.189 93.6991 123.176 93.7326C123.162 93.7661 123.141 93.7965 123.115 93.8218C123.089 93.8471 123.058 93.8669 123.024 93.8798C122.99 93.8928 122.954 93.8987 122.918 93.8973Z" fill="#263238"/>
<path d="M53.4675 60.6849C56.0423 59.7581 55.5735 55.4488 54.8234 52.214C54.4339 50.5444 56.5796 49.3291 55.0794 46.8913C53.6766 44.5401 45.4365 42.2502 45.2238 46.5019C42.3388 47.3349 42.2523 49.9349 42.5372 54.0748C42.5372 54.0856 38.4983 66.0725 53.4675 60.6849Z" fill="#2E353A"/>
<path d="M61.7188 71.9751L63.4461 66.5262L63.5507 65.4444C63.5578 65.3769 63.5723 65.3104 63.594 65.246L64.225 63.2771C64.2958 63.0601 64.4411 62.8752 64.6351 62.7551C64.8292 62.6349 65.0595 62.5874 65.2852 62.6208C65.4609 62.6483 65.6256 62.7239 65.7611 62.839C65.8967 62.9542 65.9978 63.1045 66.0534 63.2735L66.4681 64.5356C66.5177 64.6823 66.5305 64.839 66.5053 64.9918C66.4802 65.1446 66.4178 65.2889 66.3238 65.4119L64.9679 67.215L63.749 73.0281L61.7188 71.9751Z" fill="#B97964"/>
<path d="M56.6625 60.2769C56.6625 60.2769 58.0545 62.0331 58.9632 65.7907C59.872 69.5483 60.4454 72.3323 61.0656 72.3936C61.6859 72.4549 61.5056 70.9511 61.5056 70.9511L63.8099 72.033C63.8099 72.033 63.0202 76.1512 60.8421 76.1512C57.6903 76.1512 56.9871 72.4332 56.6625 70.76C56.1613 68.1852 55.0866 62.8228 56.6625 60.2769Z" fill="#407BFF"/>
<path opacity="0.2" d="M56.6632 70.7573C56.8651 71.8103 57.2221 73.6747 58.2427 74.908C58.304 65.8313 56.9481 62.3693 56.2449 61.1865C55.3109 63.9416 56.216 68.4602 56.6632 70.7573Z" fill="black"/>
<path d="M57.0421 90.0752L68.1707 146.295L65.5057 147.017C65.5057 147.017 58.6937 130.645 56.3533 120.793C56.0684 119.599 55.852 118.499 55.7222 117.547C55.5462 116.22 55.159 114.929 54.5754 113.724C54.2761 113.108 53.9227 112.35 53.5477 111.478C52.3336 108.636 51.3542 105.699 50.6195 102.697C50.6195 102.697 46.595 96.6384 47.2044 90.8217L57.0421 90.0752Z" fill="#B97964"/>
<path d="M51.2753 97.3523L51.2104 147.994H48.1596C48.1596 147.994 44.2794 127.68 44.6905 119.354V119.112C44.8025 117.255 44.5715 115.393 44.0089 113.62C43.8286 113.054 43.6483 112.412 43.4608 111.701C42.6578 108.517 42.2318 105.249 42.1914 101.965V95.6538L51.2753 97.3523Z" fill="#B97964"/>
<path d="M51.0662 146.973L47.8856 147.038C47.8183 147.04 47.7535 147.064 47.7018 147.107C47.6501 147.15 47.6145 147.21 47.6007 147.276L46.9949 150.276C46.9798 150.348 46.981 150.422 46.9983 150.493C47.0156 150.564 47.0487 150.631 47.095 150.687C47.1414 150.744 47.1998 150.79 47.2661 150.821C47.3324 150.852 47.4049 150.868 47.4781 150.868C48.798 150.821 49.9772 150.727 51.6216 150.698C53.5689 150.666 53.0641 150.907 55.3648 150.896C56.7423 150.896 56.9659 149.32 56.3817 149.252C53.7024 148.963 52.9162 148.17 51.8668 147.225C51.6403 147.045 51.3551 146.955 51.0662 146.973Z" fill="#263238"/>
<path d="M68.3039 145.588L65.1846 146.201C65.1189 146.214 65.0596 146.249 65.0164 146.3C64.9732 146.351 64.9485 146.415 64.9466 146.482L64.8636 149.544C64.8612 149.608 64.8715 149.673 64.894 149.733C64.9164 149.793 64.9505 149.849 64.9944 149.896C65.0383 149.943 65.091 149.981 65.1497 150.008C65.2083 150.035 65.2716 150.05 65.336 150.052H65.4406C66.7352 149.775 67.8784 149.479 69.4975 149.169C71.4052 148.808 70.9653 149.122 73.2155 148.718C74.575 148.473 74.5209 146.886 73.9367 146.915C71.2501 147.095 70.3306 146.439 69.1405 145.696C68.8846 145.558 68.5866 145.519 68.3039 145.588Z" fill="#263238"/>
<path opacity="0.1" d="M51.2576 110.573V105.265L42.5234 106.664C42.731 108.339 43.0417 110 43.4538 111.637C46.085 111.555 48.7004 111.198 51.2576 110.573Z" fill="black"/>
<path opacity="0.1" d="M60.1394 105.726L51.8271 106.89C52.2527 108.174 52.689 109.35 53.1109 110.396C55.7244 110.352 58.3253 110.024 60.8678 109.418L60.1394 105.726Z" fill="black"/>
<path d="M42.3246 91.1569C42.3246 91.1569 40.6297 97.3775 42.3246 110.865L61.9529 108.524L57.6688 88.272L53.0673 85.2031L47.2037 87.5507L42.3246 91.1569Z" fill="#263238"/>
<path opacity="0.5" d="M52.7178 96.0181C52.7178 96.0181 50.7092 100.526 51.333 109.804L52.826 109.628C52.2005 105.115 52.1642 100.54 52.7178 96.0181Z" fill="black"/>
<path d="M53.0282 88.4445L54.3769 92.8188C55.7761 92.5916 57.2979 92.3283 58.964 92.0182C58.964 92.0182 56.1764 81.4774 57.0238 74.9358C57.8713 68.3942 56.6632 60.2767 56.6632 60.2767C56.6632 60.2767 49.7574 59.4293 40.3057 61.611C40.3057 61.611 44.9107 73.8467 44.1823 80.7525C43.4538 87.6583 40.9115 94.0954 40.9115 94.0954C40.9115 94.0954 43.7532 94.4127 52.0365 93.1974L53.0282 88.4445Z" fill="#407BFF"/>
<path d="M56.9699 80.3602C56.9231 79.7544 56.8942 79.1485 56.8762 78.5571C52.5488 79.8806 46.1226 79.9996 44.2546 80.0284C44.2546 80.2773 44.2221 80.5189 44.1969 80.7497C44.1717 80.9805 44.1392 81.2581 44.1104 81.5142C50.6303 81.7197 54.8207 80.9408 56.9699 80.3602Z" fill="#263238"/>
<path d="M53.9908 80.2044C54.0341 80.8427 53.4138 81.4016 52.6096 81.4521C51.8055 81.5026 51.1167 81.0338 51.0734 80.3955C51.0301 79.7572 51.6504 79.1983 52.4582 79.1478C53.266 79.0973 53.9511 79.5661 53.9908 80.2044Z" fill="#263238"/>
<path opacity="0.6" d="M53.9908 80.2044C54.0341 80.8427 53.4138 81.4016 52.6096 81.4521C51.8055 81.5026 51.1167 81.0338 51.0734 80.3955C51.0301 79.7572 51.6504 79.1983 52.4582 79.1478C53.266 79.0973 53.9511 79.5661 53.9908 80.2044Z" fill="white"/>
<path d="M47.7773 79.5408L47.9396 81.9245H48.5455L48.3832 79.3389L47.7773 79.5408Z" fill="#407BFF"/>
<path d="M55.4912 78.6541L55.5705 81.1351H56.1764L56.097 78.4521L55.4912 78.6541Z" fill="#407BFF"/>
<path d="M48.1591 59.7547C48.1591 59.7547 44.0192 58.7449 44.4664 63.2671C44.4664 63.2671 44.9893 61.6515 47.1314 62.6612L46.6445 63.9522C48.1723 64.0009 49.6681 64.402 51.0152 65.1242C51.0152 65.1242 52.6632 63.9919 52.8183 62.7802L51.8879 62.0157C51.8879 62.0157 51.8879 60.8437 53.691 61.8535C53.7126 61.8535 52.5009 58.0562 48.1591 59.7547Z" fill="#407BFF"/>
<path opacity="0.6" d="M48.1591 59.7547C48.1591 59.7547 44.0192 58.7449 44.4664 63.2671C44.4664 63.2671 44.9893 61.6515 47.1314 62.6612L46.6445 63.9522C48.1723 64.0009 49.6681 64.402 51.0152 65.1242C51.0152 65.1242 52.6632 63.9919 52.8183 62.7802L51.8879 62.0157C51.8879 62.0157 51.8879 60.8437 53.691 61.8535C53.7126 61.8535 52.5009 58.0562 48.1591 59.7547Z" fill="white"/>
<path opacity="0.2" d="M41.2754 64.4274C41.7983 66.0321 42.4474 68.185 43.0063 70.4966C42.927 65.6102 42.0147 63.6665 42.0147 63.6665L41.2754 64.4274Z" fill="black"/>
<path d="M50.5327 64.3958C52.2817 64.2624 51.6542 61.5614 51.2035 60.1514C49.7285 60.2055 48.0048 60.3281 46.0791 60.5769C46.7535 61.7092 48.6287 64.5437 50.5327 64.3958Z" fill="#B97964"/>
<path d="M40.3056 61.6118C40.3056 61.6118 38.4484 62.8235 37.3161 69.2425C36.1837 75.6614 37.5829 79.3397 41.034 78.4526C41.4199 78.3516 42.5666 78.0054 42.5666 78.0054V74.7779C42.5666 74.7779 41.4379 75.2215 40.7888 74.4534C40.201 73.7538 40.6446 71.2835 42.0834 67.0499C42.545 65.6976 42.4873 62.7802 40.3056 61.6118Z" fill="#407BFF"/>
<path d="M54.9967 67.9261L48.3073 66.8262C48.3073 66.8262 46.8648 71.0021 47.2831 77.7853L53.8536 77.0136C53.8536 77.0136 53.5507 73.8005 54.9967 67.9261Z" fill="#263238"/>
<path opacity="0.7" d="M54.9967 67.9261L48.3073 66.8262C48.3073 66.8262 46.8648 71.0021 47.2831 77.7853L53.8536 77.0136C53.8536 77.0136 53.5507 73.8005 54.9967 67.9261Z" fill="white"/>
<path d="M47.8637 77.2913C47.8637 77.2913 47.211 69.639 50.3592 66.5449L57.164 67.7854C57.164 67.7854 53.5578 72.8341 54.719 77.5762L47.8637 77.2913Z" fill="#263238"/>
<path opacity="0.8" d="M47.8637 77.2913C47.8637 77.2913 47.211 69.639 50.3592 66.5449L57.164 67.7854C57.164 67.7854 53.5578 72.8341 54.719 77.5762L47.8637 77.2913Z" fill="white"/>
<path d="M48.939 75.6538L48.9219 75.9346L53.2772 76.201L53.2944 75.9202L48.939 75.6538Z" fill="#263238"/>
<path d="M48.9828 74.1142L48.96 74.3945L53.3162 74.7489L53.339 74.4685L48.9828 74.1142Z" fill="#263238"/>
<path d="M48.7205 72.7503L48.6924 73.0288L53.1407 73.4781L53.1689 73.1997L48.7205 72.7503Z" fill="#263238"/>
<path d="M49.3582 71.0147L49.3242 71.2939L53.9672 71.8583L54.0012 71.5791L49.3582 71.0147Z" fill="#263238"/>
<path d="M50.3682 67.9953L50.3232 68.2729L55.2251 69.0669L55.27 68.7892L50.3682 67.9953Z" fill="#263238"/>
<path d="M49.7563 69.4935L49.7168 69.772L54.5298 70.4544L54.5693 70.1759L49.7563 69.4935Z" fill="#263238"/>
<path d="M42.2023 75.2899L46.4829 74.2405L47.471 72.7259C47.5754 72.563 47.7378 72.4457 47.9253 72.3978L49.2668 72.0372C49.3757 72.0081 49.4897 72.0034 49.6006 72.0233C49.7116 72.0433 49.8168 72.0874 49.9087 72.1526C50.0406 72.2444 50.1409 72.3748 50.1958 72.5259C50.2507 72.677 50.2575 72.8413 50.2152 72.9964L49.7212 74.767C49.6877 74.8887 49.6253 75.0004 49.5392 75.0927C49.4532 75.185 49.3461 75.2552 49.2272 75.2971L46.8074 76.1302L41.7588 78.009L42.2023 75.2899Z" fill="#B97964"/>
<path d="M41.3945 74.4932V76.271H42.2023L41.3945 76.9165V78.936L43.0101 78.2508V74.4932H41.3945Z" fill="#407BFF"/>
<path opacity="0.6" d="M41.3945 74.4932V76.271H42.2023L41.3945 76.9165V78.936L43.0101 78.2508V74.4932H41.3945Z" fill="white"/>
<path d="M60.4678 71.8782L62.0401 72.7113L62.4187 71.9972L62.6098 73.0142L64.3949 73.959L64.5463 72.21L61.2251 70.4502L60.4678 71.8782Z" fill="#407BFF"/>
<path opacity="0.6" d="M60.4678 71.8782L62.0401 72.7113L62.4187 71.9972L62.6098 73.0142L64.3949 73.959L64.5463 72.21L61.2251 70.4502L60.4678 71.8782Z" fill="white"/>
<path d="M46.2988 60.6269L46.5873 60.883L50.3197 63.6669L51.1311 63.5191L51.1744 60.3529C50.0312 59.747 49.6634 58.2865 49.905 57.1073L46.6594 54.583C47.0381 56.2707 47.2725 59.2638 46.2988 60.6269Z" fill="#B97964"/>
<path opacity="0.1" d="M49.9155 58.5752C49.8166 58.0994 49.8166 57.6085 49.9155 57.1327L46.6699 54.6084C46.7667 55.0297 46.8414 55.4558 46.8935 55.885C47.1657 56.5298 47.5781 57.1058 48.1009 57.5711C48.6236 58.0365 49.2435 58.3795 49.9155 58.5752Z" fill="black"/>
<path d="M45.7944 50.9444C46.0288 53.9123 46.0649 55.1744 47.5975 56.6746C49.8983 58.9248 53.4972 57.9944 54.1535 55.0121C54.7449 52.3291 54.2617 47.9368 51.3299 46.7865C50.6842 46.5341 49.9846 46.4509 49.2976 46.5449C48.6107 46.6388 47.9592 46.9068 47.405 47.3234C46.8507 47.74 46.4122 48.2913 46.1309 48.9251C45.8497 49.5588 45.7351 50.2539 45.798 50.9444H45.7944Z" fill="#B97964"/>
<path d="M47.8424 46.5019C51.7046 47.7676 44.5103 53.3536 44.5969 56.6172C43.0426 52.7838 43.6052 45.1135 47.8424 46.5019Z" fill="#2E353A"/>
<path d="M46.6454 51.3481C46.6454 51.3481 47.9832 54.1573 47.2692 56.6168C46.3641 59.7505 48.2825 61.5139 48.2825 61.5139C47.5545 61.4061 46.8833 61.0585 46.3751 60.5261C45.8669 59.9938 45.5509 59.3071 45.477 58.5749C45.1776 55.9352 44.6367 52.5923 44.6367 52.5923L46.6454 51.3481Z" fill="#2E353A"/>
<path d="M51.9717 52.2319C52.2198 52.8405 52.5524 53.4111 52.9598 53.9268C52.8249 54.0281 52.6693 54.0985 52.5041 54.1327C52.3389 54.167 52.1682 54.1644 52.0041 54.1252L51.9717 52.2319Z" fill="#A24E3F"/>
<path d="M51.1884 55.5138C51.3396 55.5151 51.4905 55.5018 51.6391 55.4741C51.6596 55.4706 51.6779 55.4592 51.69 55.4423C51.7022 55.4254 51.7072 55.4045 51.7041 55.384C51.7005 55.3635 51.6891 55.3452 51.6722 55.3331C51.6554 55.321 51.6344 55.3159 51.6139 55.319C51.2864 55.3834 50.9484 55.3699 50.6271 55.2797C50.3058 55.1895 50.0101 55.0251 49.7639 54.7998C49.7496 54.784 49.7296 54.7745 49.7083 54.7735C49.687 54.7725 49.6661 54.78 49.6503 54.7944C49.6346 54.8087 49.6251 54.8287 49.6241 54.85C49.6231 54.8713 49.6306 54.8922 49.6449 54.9079C50.0615 55.3022 50.6148 55.5194 51.1884 55.5138Z" fill="#2E353A"/>
<path d="M46.2557 46.4987C45.0621 48.684 48.5096 47.4399 51.2827 48.345C53.8539 49.178 55.1557 50.8477 54.8889 48.4243C54.5499 45.4384 48.1453 43.0584 46.2557 46.4987Z" fill="#2E353A"/>
<path d="M48.888 51.0568C48.9091 51.053 48.9293 51.045 48.9473 51.0333C48.9653 51.0215 48.9807 51.0062 48.9926 50.9883C49.0981 50.8212 49.2416 50.6815 49.4115 50.5806C49.5813 50.4797 49.7727 50.4204 49.9698 50.4077C50.012 50.4006 50.0497 50.3775 50.0753 50.3432C50.1008 50.309 50.1121 50.2662 50.1069 50.2238C50.1011 50.1899 50.0847 50.1587 50.0601 50.1347C50.0355 50.1107 50.0039 50.0952 49.9698 50.0903C49.7203 50.102 49.4773 50.1737 49.2614 50.2992C49.0454 50.4248 48.8629 50.6005 48.7293 50.8116C48.707 50.8462 48.6991 50.8881 48.7072 50.9285C48.7153 50.9689 48.7387 51.0045 48.7726 51.0279C48.7888 51.0405 48.8074 51.0495 48.8273 51.0545C48.8471 51.0594 48.8678 51.0602 48.888 51.0568Z" fill="#2E353A"/>
<path d="M53.698 50.5337C53.7183 50.5326 53.7381 50.5271 53.7561 50.5178C53.7741 50.5085 53.79 50.4955 53.8026 50.4796C53.8159 50.4635 53.8259 50.445 53.832 50.425C53.8381 50.4051 53.8402 50.3841 53.8382 50.3633C53.8361 50.3426 53.8301 50.3224 53.8202 50.304C53.8104 50.2856 53.7971 50.2693 53.781 50.256C53.5898 50.0942 53.3631 49.9797 53.1193 49.9221C52.8755 49.8644 52.6216 49.8652 52.3782 49.9243C52.339 49.939 52.3067 49.968 52.288 50.0054C52.2693 50.0429 52.2654 50.086 52.2772 50.1262C52.2833 50.1456 52.2933 50.1637 52.3064 50.1792C52.3195 50.1948 52.3356 50.2077 52.3536 50.217C52.3717 50.2264 52.3915 50.2321 52.4118 50.2339C52.4321 50.2356 52.4525 50.2334 52.4719 50.2272C52.6658 50.1812 52.8678 50.1824 53.0611 50.2307C53.2544 50.279 53.4333 50.373 53.5826 50.5049C53.5985 50.518 53.6171 50.5275 53.637 50.5325C53.657 50.5375 53.6779 50.5379 53.698 50.5337Z" fill="#2E353A"/>
<path d="M49.8974 52.1888C49.9154 52.4232 50.0561 52.6036 50.2112 52.5927C50.3662 52.5819 50.4744 52.3836 50.4528 52.1456C50.4311 51.9076 50.2941 51.7309 50.1426 51.7417C49.9912 51.7525 49.8794 51.9544 49.8974 52.1888Z" fill="#2E353A"/>
<path d="M52.5556 51.9828C52.5736 52.2172 52.7142 52.3975 52.8657 52.3867C53.0172 52.3759 53.1289 52.1775 53.1109 51.9395C53.0929 51.7015 52.9559 51.5248 52.8044 51.5356C52.6529 51.5464 52.5375 51.7484 52.5556 51.9828Z" fill="#2E353A"/>
<path d="M52.7471 51.5537L53.2988 51.3481C53.2988 51.3481 53.032 51.8133 52.7471 51.5537Z" fill="#2E353A"/>
<path d="M50.0781 51.7593L50.6299 51.5537C50.6299 51.5537 50.3738 52.0153 50.0781 51.7593Z" fill="#2E353A"/>
</g>
<defs>
<clipPath id="clip0_85_2504">
<rect width="180.308" height="180.308" fill="white" transform="translate(0.457031 0.64209)"/>
</clipPath>
</defs>
</svg>
