<svg width="256" height="256" viewBox="0 0 256 256" fill="none" xmlns="http://www.w3.org/2000/svg">
<path d="M230.349 204.027H213.392V204.155H230.349V204.027Z" fill="#EBEBEB"/>
<path d="M169.585 205.419H165.136V205.547H169.585V205.419Z" fill="#EBEBEB"/>
<path d="M212.879 199.276H203.054V199.404H212.879V199.276Z" fill="#EBEBEB"/>
<path d="M48.9727 200.136H26.8594V200.264H48.9727V200.136Z" fill="#EBEBEB"/>
<path d="M56.7761 200.136H53.5352V200.264H56.7761V200.136Z" fill="#EBEBEB"/>
<path d="M115.277 202.296H67.3125V202.424H115.277V202.296Z" fill="#EBEBEB"/>
<path d="M121.344 172.954H22.487C21.7116 172.954 20.968 172.646 20.4198 172.097C19.8715 171.549 19.5635 170.805 19.5635 170.03V31.058C19.5702 30.287 19.8812 29.55 20.4288 29.0072C20.9763 28.4645 21.716 28.16 22.487 28.16H121.344C122.119 28.16 122.863 28.468 123.411 29.0163C123.959 29.5646 124.267 30.3082 124.267 31.0836V170.03C124.267 170.805 123.959 171.549 123.411 172.097C122.863 172.646 122.119 172.954 121.344 172.954ZM22.487 28.2624C21.746 28.2638 21.0357 28.5587 20.5118 29.0827C19.9878 29.6067 19.6928 30.317 19.6915 31.058V170.03C19.6928 170.771 19.9878 171.481 20.5118 172.005C21.0357 172.529 21.746 172.824 22.487 172.826H121.344C122.085 172.824 122.795 172.529 123.319 172.005C123.843 171.481 124.138 170.771 124.139 170.03V31.058C124.138 30.317 123.843 29.6067 123.319 29.0827C122.795 28.5587 122.085 28.2638 121.344 28.2624H22.487Z" fill="#EBEBEB"/>
<path d="M232.094 172.954H133.227C132.452 172.952 131.709 172.644 131.161 172.096C130.614 171.548 130.305 170.805 130.304 170.03V31.058C130.312 30.2875 130.623 29.5512 131.17 29.0087C131.718 28.4663 132.457 28.1613 133.227 28.16H232.094C232.864 28.1627 233.601 28.4684 234.146 29.0108C234.691 29.5533 235.001 30.2888 235.008 31.058V170.03C235.008 170.804 234.701 171.546 234.155 172.094C233.609 172.642 232.868 172.951 232.094 172.954ZM133.227 28.2624C132.486 28.2638 131.776 28.5587 131.252 29.0827C130.728 29.6067 130.433 30.317 130.432 31.058V170.03C130.433 170.771 130.728 171.481 131.252 172.005C131.776 172.529 132.486 172.824 133.227 172.826H232.094C232.835 172.824 233.546 172.529 234.07 172.005C234.594 171.481 234.889 170.771 234.89 170.03V31.058C234.889 30.317 234.594 29.6067 234.07 29.0827C233.546 28.5587 232.835 28.2638 232.094 28.2624H133.227Z" fill="#EBEBEB"/>
<path d="M256 195.789H0V195.917H256V195.789Z" fill="#EBEBEB"/>
<path d="M113.152 145.198H116.577V194.944C116.577 195.106 116.513 195.26 116.398 195.375C116.284 195.489 116.129 195.553 115.968 195.553H113.756C113.594 195.553 113.439 195.489 113.325 195.375C113.211 195.26 113.146 195.106 113.146 194.944V145.198H113.152Z" fill="#F0F0F0"/>
<path d="M219.151 140.723H189.476V145.198H219.151V140.723Z" fill="#E6E6E6"/>
<path d="M134.374 145.198H137.799V194.944C137.799 195.106 137.735 195.26 137.621 195.375C137.507 195.489 137.352 195.553 137.19 195.553H134.983C134.822 195.553 134.667 195.489 134.552 195.375C134.438 195.26 134.374 195.106 134.374 194.944V145.198Z" fill="#E6E6E6"/>
<path d="M213.745 145.198H217.17V194.944C217.17 195.106 217.106 195.26 216.992 195.375C216.878 195.489 216.723 195.553 216.561 195.553H214.354C214.193 195.553 214.038 195.489 213.924 195.375C213.809 195.26 213.745 195.106 213.745 194.944V145.198Z" fill="#E6E6E6"/>
<path d="M197.939 140.723H111.186V145.198H197.939V140.723Z" fill="#F5F5F5"/>
<path d="M192.512 145.198H195.937V194.944C195.937 195.106 195.873 195.26 195.759 195.375C195.645 195.489 195.49 195.553 195.328 195.553H193.116C192.955 195.553 192.8 195.489 192.685 195.375C192.571 195.26 192.507 195.106 192.507 194.944V145.198H192.512Z" fill="#F0F0F0"/>
<path d="M212.721 140.723H204.852V140.022C204.852 139.697 204.918 139.376 205.046 139.077C205.175 138.779 205.362 138.51 205.598 138.286C205.834 138.062 206.112 137.889 206.417 137.776C206.722 137.664 207.046 137.614 207.371 137.631L210.443 137.8C211.054 137.833 211.63 138.099 212.051 138.544C212.472 138.989 212.707 139.578 212.706 140.191L212.721 140.723Z" fill="#F0F0F0"/>
<path d="M191.488 124.452C191.473 124.153 191.344 123.872 191.128 123.666C190.912 123.46 190.624 123.346 190.325 123.346H182.354C182.055 123.346 181.768 123.46 181.551 123.666C181.335 123.872 181.206 124.153 181.191 124.452L183.081 141.03H194.954L191.488 124.452Z" fill="#E0E0E0"/>
<path d="M213.074 98.9645H210.109L206.781 130.273H209.741C209.984 130.267 210.218 130.174 210.399 130.01C210.58 129.847 210.697 129.624 210.729 129.382L213.867 99.84C213.881 99.7288 213.87 99.6161 213.836 99.5094C213.802 99.4027 213.745 99.3046 213.67 99.2216C213.595 99.1386 213.503 99.0728 213.4 99.0284C213.297 98.9841 213.186 98.9623 213.074 98.9645Z" fill="#E0E0E0"/>
<path d="M208.492 130.273H164.071C163.957 130.276 163.845 130.254 163.74 130.209C163.636 130.163 163.543 130.096 163.468 130.011C163.392 129.927 163.336 129.826 163.303 129.718C163.27 129.609 163.261 129.495 163.277 129.382L166.4 99.8401C166.432 99.5991 166.548 99.3771 166.728 99.2139C166.908 99.0507 167.14 98.9568 167.383 98.9492H211.804C211.918 98.9466 212.03 98.9687 212.134 99.014C212.239 99.0592 212.331 99.1266 212.407 99.2113C212.482 99.296 212.539 99.3961 212.572 99.5047C212.605 99.6132 212.614 99.7277 212.598 99.8401L209.459 129.367C209.432 129.608 209.319 129.832 209.142 129.998C208.965 130.164 208.734 130.262 208.492 130.273Z" fill="#EBEBEB"/>
<path d="M207.662 127.38H165.77C165.672 127.382 165.574 127.362 165.484 127.323C165.394 127.283 165.313 127.225 165.248 127.152C165.182 127.078 165.133 126.992 165.104 126.898C165.075 126.804 165.066 126.705 165.079 126.607L167.818 100.864C167.844 100.653 167.945 100.457 168.103 100.315C168.261 100.172 168.465 100.09 168.678 100.086H210.565C210.664 100.084 210.762 100.104 210.853 100.144C210.943 100.183 211.025 100.242 211.091 100.316C211.157 100.39 211.206 100.477 211.235 100.571C211.265 100.666 211.274 100.766 211.261 100.864L208.517 126.628C208.486 126.834 208.383 127.022 208.226 127.16C208.07 127.298 207.87 127.376 207.662 127.38Z" fill="#FAFAFA"/>
<path d="M195.4 139.74H180.797C180.713 139.74 180.628 139.756 180.55 139.788C180.471 139.82 180.4 139.868 180.34 139.928C180.28 139.988 180.232 140.059 180.2 140.138C180.168 140.216 180.152 140.3 180.152 140.385C180.152 140.556 180.22 140.721 180.341 140.842C180.462 140.963 180.626 141.031 180.797 141.031H195.4C195.57 141.029 195.734 140.961 195.854 140.84C195.975 140.719 196.044 140.556 196.045 140.385C196.045 140.214 195.977 140.05 195.856 139.929C195.735 139.808 195.571 139.74 195.4 139.74Z" fill="#E0E0E0"/>
<path d="M190.996 138.88H166.226V140.723H190.996V138.88Z" fill="#EBEBEB"/>
<path d="M154.783 147.231H118.328V195.743H154.783V147.231Z" fill="#F5F5F5"/>
<path d="M161.741 147.231H154.788V195.743H161.741V147.231Z" fill="#E6E6E6"/>
<path d="M152.422 150.83H120.883V162.611H152.422V150.83Z" fill="#FAFAFA"/>
<path d="M152.422 163.896H120.883V175.677H152.422V163.896Z" fill="#FAFAFA"/>
<path d="M152.422 176.968H120.883V188.749H152.422V176.968Z" fill="#FAFAFA"/>
<path d="M137.969 156.723C137.969 156.984 137.891 157.238 137.747 157.454C137.602 157.671 137.397 157.839 137.156 157.939C136.916 158.039 136.651 158.065 136.396 158.014C136.141 157.963 135.906 157.838 135.722 157.654C135.538 157.47 135.413 157.235 135.362 156.98C135.311 156.725 135.337 156.46 135.437 156.22C135.537 155.979 135.705 155.774 135.922 155.629C136.138 155.485 136.392 155.407 136.653 155.407C137.002 155.407 137.336 155.546 137.583 155.793C137.83 156.04 137.969 156.374 137.969 156.723Z" fill="#EBEBEB"/>
<path d="M137.969 169.789C137.969 170.05 137.891 170.304 137.747 170.521C137.602 170.737 137.397 170.906 137.156 171.005C136.916 171.105 136.651 171.131 136.396 171.08C136.141 171.029 135.906 170.904 135.722 170.72C135.538 170.536 135.413 170.301 135.362 170.046C135.311 169.791 135.337 169.526 135.437 169.286C135.537 169.046 135.705 168.84 135.922 168.695C136.138 168.551 136.392 168.474 136.653 168.474C136.826 168.473 136.997 168.507 137.157 168.572C137.317 168.638 137.462 168.735 137.585 168.858C137.707 168.98 137.804 169.125 137.87 169.285C137.936 169.445 137.969 169.616 137.969 169.789Z" fill="#EBEBEB"/>
<path d="M137.969 182.856C137.969 183.116 137.891 183.37 137.747 183.587C137.602 183.803 137.397 183.972 137.156 184.071C136.916 184.171 136.651 184.197 136.396 184.146C136.141 184.095 135.906 183.97 135.722 183.786C135.538 183.602 135.413 183.368 135.362 183.112C135.311 182.857 135.337 182.593 135.437 182.352C135.537 182.112 135.705 181.906 135.922 181.762C136.138 181.617 136.392 181.54 136.653 181.54C137.002 181.54 137.336 181.678 137.583 181.925C137.83 182.172 137.969 182.507 137.969 182.856Z" fill="#EBEBEB"/>
<path d="M94.838 68.4902H44.7695V194.637H94.838V68.4902Z" fill="#E0E0E0"/>
<path d="M94.8379 67.3844V195.743H104.054V67.3844H94.8379Z" fill="#E0E0E0"/>
<path d="M35.9883 67.3844V195.743H45.2043V67.3844H35.9883Z" fill="#E6E6E6"/>
<path d="M34.4219 67.3844V195.743H95.9438V67.3844H34.4219ZM93.732 69.5962V92.6362H36.6337V69.5962H93.732ZM36.6337 143.073V120.033H93.732V143.073H36.6337ZM93.732 145.285V168.3H36.6337V145.285H93.732ZM36.6337 117.842V94.8276H93.732V117.842H36.6337ZM36.6337 193.531V170.496H93.732V193.536L36.6337 193.531Z" fill="#F0F0F0"/>
<path d="M73.7793 143.283H75.9092V125.425H73.7793V143.283Z" fill="#E6E6E6"/>
<path d="M75.914 143.283H78.0439V125.425H75.914V143.283Z" fill="#E0E0E0"/>
<path d="M69.5246 143.283H73.7793V126.679H69.5246V143.283Z" fill="#E6E6E6"/>
<path d="M64.65 143.283H67.3994V125.425H64.65V143.283Z" fill="#F0F0F0"/>
<path d="M67.3945 143.283H69.5244V125.425H67.3945V143.283Z" fill="#EBEBEB"/>
<path d="M48.5123 143.283H51.2617V125.425H48.5123V143.283Z" fill="#E6E6E6"/>
<path d="M51.2568 143.283H53.3867V125.425H51.2568V143.283Z" fill="#EBEBEB"/>
<path d="M57.6461 143.283H60.3955V125.425H57.6461V143.283Z" fill="#E6E6E6"/>
<path d="M60.3955 143.283H62.5254V125.425H60.3955V143.283Z" fill="#E0E0E0"/>
<path d="M44.2521 143.283H48.5068V125.85H44.2521V143.283Z" fill="#EBEBEB"/>
<path d="M42.122 143.283H44.252V125.85H42.122V143.283Z" fill="#E0E0E0"/>
<path d="M54.8041 143.283H57.6406V125.85H54.8041V143.283Z" fill="#E0E0E0"/>
<path d="M53.3864 143.283H54.8047V125.85H53.3864V143.283Z" fill="#F0F0F0"/>
<path d="M60.3957 143.283H64.6504V126.679H60.3957V143.283Z" fill="#F5F5F5"/>
<path d="M84.4234 143.283H87.1729V125.425H84.4234V143.283Z" fill="#EBEBEB"/>
<path d="M87.1728 143.283H89.3027V125.425H87.1728V143.283Z" fill="#E6E6E6"/>
<path d="M80.1691 143.283H84.4238V125.85H80.1691V143.283Z" fill="#E0E0E0"/>
<path d="M78.039 143.283H80.1689V125.85H78.039V143.283Z" fill="#EBEBEB"/>
<path d="M90.7211 143.283H93.5576V125.85H90.7211V143.283Z" fill="#EBEBEB"/>
<path d="M89.3034 143.283H90.7217V125.85H89.3034V143.283Z" fill="#FAFAFA"/>
<path d="M61.9004 150.876H59.7705V168.735H61.9004V150.876Z" fill="#E6E6E6"/>
<path d="M59.7705 150.876H57.6406V168.735H59.7705V150.876Z" fill="#E0E0E0"/>
<path d="M66.1551 150.876H61.9004V167.48H66.1551V150.876Z" fill="#E6E6E6"/>
<path d="M71.0297 150.876H68.2803V168.735H71.0297V150.876Z" fill="#F0F0F0"/>
<path d="M68.2852 150.876H66.1553V168.735H68.2852V150.876Z" fill="#EBEBEB"/>
<path d="M87.1733 150.876H84.4238V168.735H87.1733V150.876Z" fill="#E6E6E6"/>
<path d="M84.4239 150.876H82.2939V168.735H84.4239V150.876Z" fill="#EBEBEB"/>
<path d="M78.0395 150.876H75.29V168.735H78.0395V150.876Z" fill="#E6E6E6"/>
<path d="M75.2901 150.876H73.1602V168.735H75.2901V150.876Z" fill="#E0E0E0"/>
<path d="M91.4276 150.876H87.1729V168.31H91.4276V150.876Z" fill="#EBEBEB"/>
<path d="M93.5576 150.876H91.4277V168.31H93.5576V150.876Z" fill="#E0E0E0"/>
<path d="M80.8755 150.876H78.0391V168.31H80.8755V150.876Z" fill="#E0E0E0"/>
<path d="M82.2942 150.876H80.876V168.31H82.2942V150.876Z" fill="#F0F0F0"/>
<path d="M75.2899 150.876H71.0352V167.48H75.2899V150.876Z" fill="#F5F5F5"/>
<path d="M51.2563 150.876H48.5068V168.735H51.2563V150.876Z" fill="#EBEBEB"/>
<path d="M48.5118 150.876H46.3818V168.735H48.5118V150.876Z" fill="#E6E6E6"/>
<path d="M55.5106 150.876H51.2559V168.31H55.5106V150.876Z" fill="#E0E0E0"/>
<path d="M57.6465 150.876H55.5166V168.31H57.6465V150.876Z" fill="#EBEBEB"/>
<path d="M44.9586 150.876H42.1221V168.31H44.9586V150.876Z" fill="#EBEBEB"/>
<path d="M46.3772 150.876H44.959V168.31H46.3772V150.876Z" fill="#FAFAFA"/>
<path d="M73.7793 194.186H75.9092V176.328H73.7793V194.186Z" fill="#E6E6E6"/>
<path d="M75.914 194.186H78.0439V176.328H75.914V194.186Z" fill="#E0E0E0"/>
<path d="M69.5246 194.186H73.7793V177.582H69.5246V194.186Z" fill="#E6E6E6"/>
<path d="M64.65 194.186H67.3994V176.328H64.65V194.186Z" fill="#F0F0F0"/>
<path d="M67.3945 194.186H69.5244V176.328H67.3945V194.186Z" fill="#EBEBEB"/>
<path d="M48.5123 194.186H51.2617V176.328H48.5123V194.186Z" fill="#E6E6E6"/>
<path d="M51.2568 194.186H53.3867V176.328H51.2568V194.186Z" fill="#EBEBEB"/>
<path d="M57.6461 194.186H60.3955V176.328H57.6461V194.186Z" fill="#E6E6E6"/>
<path d="M60.3955 194.186H62.5254V176.328H60.3955V194.186Z" fill="#E0E0E0"/>
<path d="M44.2521 194.181H48.5068V176.748H44.2521V194.181Z" fill="#EBEBEB"/>
<path d="M42.122 194.181H44.252V176.748H42.122V194.181Z" fill="#E0E0E0"/>
<path d="M54.8041 194.181H57.6406V176.748H54.8041V194.181Z" fill="#E0E0E0"/>
<path d="M53.3864 194.181H54.8047V176.748H53.3864V194.181Z" fill="#F0F0F0"/>
<path d="M60.3957 194.186H64.6504V177.582H60.3957V194.186Z" fill="#F5F5F5"/>
<path d="M84.4234 194.186H87.1729V176.328H84.4234V194.186Z" fill="#EBEBEB"/>
<path d="M87.1728 194.186H89.3027V176.328H87.1728V194.186Z" fill="#E6E6E6"/>
<path d="M80.1691 194.181H84.4238V176.748H80.1691V194.181Z" fill="#E0E0E0"/>
<path d="M78.039 194.181H80.1689V176.748H78.039V194.181Z" fill="#EBEBEB"/>
<path d="M90.7211 194.181H93.5576V176.748H90.7211V194.181Z" fill="#EBEBEB"/>
<path d="M89.3034 194.181H90.7217V176.748H89.3034V194.181Z" fill="#FAFAFA"/>
<path d="M61.7782 92.8922L60.8105 81.8586H74.8086L75.7712 92.8922H61.7782Z" fill="#F0F0F0"/>
<path d="M61.7779 92.8922L60.8103 81.8586H60.0576L61.0253 92.8922H61.7779Z" fill="#E0E0E0"/>
<path d="M63.1039 91.7709L62.3359 82.985H73.4771L74.2451 91.7709H63.1039Z" fill="#FAFAFA"/>
<path d="M63.9593 91.0439L63.3193 83.7069H72.6224L73.2675 91.0439H63.9593Z" fill="#EBEBEB"/>
<path d="M45.9979 92.8922H60.0574L58.4958 75.0643H44.4414L45.9979 92.8922Z" fill="#EBEBEB"/>
<path d="M45.9977 92.8922H45.327L43.7705 75.0643H44.4412L45.9977 92.8922Z" fill="#E0E0E0"/>
<path d="M47.2732 91.0746H58.4655L57.2265 76.882H46.0342L47.2732 91.0746Z" fill="#E0E0E0"/>
<path d="M48.0919 89.9072H57.441L56.4067 78.0493H47.0576L48.0919 89.9072Z" fill="#FAFAFA"/>
<path d="M51.2884 80.3119L49.7353 81.8651C49.0994 82.5009 49.0994 83.5318 49.7353 84.1676L51.2884 85.7208C51.9242 86.3566 52.9551 86.3566 53.591 85.7208L55.1441 84.1676C55.78 83.5318 55.78 82.5009 55.1441 81.8651L53.591 80.3119C52.9551 79.6761 51.9242 79.6761 51.2884 80.3119Z" fill="#EBEBEB"/>
<path d="M52.2234 84.1815L51.1337 85.2712C50.4979 85.907 50.4979 86.9379 51.1337 87.5738L52.2234 88.6635C52.8593 89.2993 53.8902 89.2993 54.526 88.6635L55.6157 87.5738C56.2516 86.9379 56.2516 85.907 55.6157 85.2712L54.526 84.1815C53.8902 83.5456 52.8593 83.5456 52.2234 84.1815Z" fill="#E6E6E6"/>
<path d="M78.418 92.8921L85.3044 86.0057L92.1908 92.8921H78.418Z" fill="#F5F5F5"/>
<path d="M85.3044 86.0057L78.418 92.8921H85.3044V86.0057Z" fill="#E6E6E6"/>
<path d="M57.729 110.518C60.2803 107.967 60.2803 103.83 57.729 101.279C55.1776 98.7275 51.0411 98.7275 48.4897 101.279C45.9384 103.83 45.9384 107.967 48.4897 110.518C51.0411 113.069 55.1776 113.069 57.729 110.518Z" fill="#F0F0F0"/>
<path d="M53.5657 117.443H52.6543V113.116H53.11C55.0246 113.116 56.8609 112.356 58.2147 111.002C59.5686 109.648 60.3292 107.812 60.3292 105.897C60.3292 103.982 59.5686 102.146 58.2147 100.792C56.8609 99.4383 55.0246 98.6777 53.11 98.6777V97.792C55.2196 97.8029 57.2423 98.6334 58.751 100.108C60.2596 101.582 61.1361 103.586 61.1953 105.694C61.2544 107.803 60.4916 109.852 59.068 111.409C57.6443 112.966 55.6713 113.909 53.5657 114.038V117.443Z" fill="#EBEBEB"/>
<path d="M56.9499 117.545H49.1777C49.1777 117.083 49.361 116.64 49.6873 116.312C50.0136 115.985 50.4564 115.8 50.9185 115.799H55.204C55.667 115.799 56.1111 115.983 56.4385 116.31C56.7659 116.638 56.9499 117.082 56.9499 117.545Z" fill="#EBEBEB"/>
<path d="M70.0112 117.248V112.722C69.8958 112.722 69.7851 112.676 69.7035 112.594C69.6219 112.513 69.576 112.402 69.576 112.287C69.576 112.171 69.6219 112.061 69.7035 111.979C69.7851 111.897 69.8958 111.852 70.0112 111.852C71.7316 111.852 73.4621 111.852 75.1876 111.852V118.134H70.0112C69.8938 118.134 69.7811 118.087 69.6981 118.004C69.615 117.921 69.5684 117.808 69.5684 117.691C69.5684 117.573 69.615 117.461 69.6981 117.378C69.7811 117.295 69.8938 117.248 70.0112 117.248Z" fill="#EBEBEB"/>
<path d="M74.0351 112.722H70.0107V117.243H74.0351V112.722Z" fill="#F5F5F5"/>
<path d="M73.1855 117.678H87.1324C88.0899 117.678 88.8681 116.475 88.8681 114.985C88.8681 113.495 88.0899 112.287 87.1324 112.287H73.1855V117.678Z" fill="#FAFAFA"/>
<path d="M73.1852 111.852C77.7522 111.852 82.3244 111.77 86.8863 111.852C90.0146 111.908 90.1836 117.903 87.1167 118.113C84.9766 118.262 82.7801 118.113 80.6399 118.113H73.1852C73.0786 118.102 72.98 118.051 72.9084 117.971C72.8367 117.891 72.7971 117.788 72.7971 117.681C72.7971 117.573 72.8367 117.47 72.9084 117.39C72.98 117.31 73.0786 117.26 73.1852 117.248H86.1644C87.1884 117.248 87.8847 117.248 88.2687 116.055C88.6066 115.031 88.4991 112.947 87.1321 112.722C86.9753 112.709 86.8178 112.709 86.661 112.722H73.1852C73.0698 112.722 72.9591 112.676 72.8775 112.595C72.7959 112.513 72.75 112.402 72.75 112.287C72.75 112.171 72.7959 112.061 72.8775 111.979C72.9591 111.897 73.0698 111.852 73.1852 111.852Z" fill="#EBEBEB"/>
<path d="M70.0112 111.027V106.496C69.9046 106.484 69.806 106.434 69.7344 106.354C69.6628 106.274 69.6232 106.171 69.6232 106.063C69.6232 105.956 69.6628 105.853 69.7344 105.773C69.806 105.693 69.9046 105.642 70.0112 105.631C71.7316 105.631 73.4621 105.631 75.1876 105.631V111.913H70.0112C69.8938 111.913 69.7811 111.866 69.6981 111.783C69.615 111.7 69.5684 111.588 69.5684 111.47C69.5684 111.353 69.615 111.24 69.6981 111.157C69.7811 111.074 69.8938 111.027 70.0112 111.027Z" fill="#EBEBEB"/>
<path d="M74.0351 106.501H70.0107V111.022H74.0351V106.501Z" fill="#F5F5F5"/>
<path d="M73.1855 111.462H87.1324C88.0899 111.462 88.8681 110.254 88.8681 108.764C88.8681 107.274 88.0899 106.066 87.1324 106.066H73.1855V111.462Z" fill="#FAFAFA"/>
<path d="M73.1849 105.636C77.752 105.636 82.3241 105.554 86.8861 105.636C90.0144 105.692 90.1833 111.683 87.1165 111.893C84.9763 112.041 82.7798 111.893 80.6397 111.893H73.1849C73.0783 111.881 72.9797 111.83 72.9081 111.75C72.8365 111.671 72.7969 111.567 72.7969 111.46C72.7969 111.353 72.8365 111.249 72.9081 111.169C72.9797 111.089 73.0783 111.039 73.1849 111.027H86.1641C87.1881 111.027 87.8845 111.027 88.2685 109.834C88.6064 108.81 88.4989 106.726 87.1318 106.501C86.9751 106.488 86.8175 106.488 86.6608 106.501H73.1849C73.0783 106.49 72.9797 106.439 72.9081 106.359C72.8365 106.279 72.7969 106.176 72.7969 106.069C72.7969 105.961 72.8365 105.858 72.9081 105.778C72.9797 105.698 73.0783 105.648 73.1849 105.636Z" fill="#EBEBEB"/>
<path d="M125.532 216.94C180.359 216.94 224.804 214.345 224.804 211.144C224.804 207.943 180.359 205.348 125.532 205.348C70.7062 205.348 26.2607 207.943 26.2607 211.144C26.2607 214.345 70.7062 216.94 125.532 216.94Z" fill="#F5F5F5"/>
<path d="M156.728 170.419C156.728 170.419 150.753 165.714 145.812 170.209L147.799 170.47L144.829 171.249C144.417 171.75 144.044 172.282 143.713 172.841C143.278 173.568 142.884 174.244 142.51 174.889L144.497 175.299L141.425 176.732C138.306 182.226 137.784 183.9 137.784 183.9C139.772 183.896 141.754 183.685 143.698 183.27L145.454 178.703L145.812 182.738C147.939 182.135 149.941 181.159 151.726 179.855L150.953 175.759L153.323 178.432C154.672 177.021 155.653 175.299 156.18 173.42L154.839 172.129L156.421 172.452C156.571 171.782 156.673 171.103 156.728 170.419Z" fill="#407BFF"/>
<path opacity="0.2" d="M156.728 170.419C156.728 170.419 150.753 165.714 145.812 170.209L147.799 170.47L144.829 171.249C144.417 171.75 144.044 172.282 143.713 172.841C143.278 173.568 142.884 174.244 142.51 174.889L144.497 175.299L141.425 176.732C138.306 182.226 137.784 183.9 137.784 183.9C139.772 183.896 141.754 183.685 143.698 183.27L145.454 178.703L145.812 182.738C147.939 182.135 149.941 181.159 151.726 179.855L150.953 175.759L153.323 178.432C154.672 177.021 155.653 175.299 156.18 173.42L154.839 172.129L156.421 172.452C156.571 171.782 156.673 171.103 156.728 170.419Z" fill="white"/>
<path d="M168.479 166.912C168.479 166.912 176.199 160.829 182.584 166.641L180.024 166.979L183.859 168.003C184.39 168.649 184.873 169.333 185.303 170.051C185.861 170.988 186.378 171.863 186.839 172.687L184.279 173.199L188.211 175.048C192.24 182.149 192.916 184.31 192.916 184.31C190.347 184.306 187.785 184.033 185.272 183.496L183.009 177.592L182.553 182.784C179.805 182.008 177.217 180.75 174.909 179.067L175.933 173.793L172.861 177.244C171.119 175.42 169.851 173.196 169.17 170.767L170.905 169.098L168.857 169.518C168.671 168.659 168.544 167.788 168.479 166.912Z" fill="#407BFF"/>
<path opacity="0.3" d="M168.479 166.912C168.479 166.912 176.199 160.829 182.584 166.641L180.024 166.979L183.859 168.003C184.39 168.649 184.873 169.333 185.303 170.051C185.861 170.988 186.378 171.863 186.839 172.687L184.279 173.199L188.211 175.048C192.24 182.149 192.916 184.31 192.916 184.31C190.347 184.306 187.785 184.033 185.272 183.496L183.009 177.592L182.553 182.784C179.805 182.008 177.217 180.75 174.909 179.067L175.933 173.793L172.861 177.244C171.119 175.42 169.851 173.196 169.17 170.767L170.905 169.098L168.857 169.518C168.671 168.659 168.544 167.788 168.479 166.912Z" fill="white"/>
<path d="M165.32 155.755C165.32 155.755 164.163 165.519 155.54 165.924L157.117 163.876L153.697 165.888C152.86 165.804 152.03 165.659 151.214 165.453C150.159 165.187 149.166 164.941 148.255 164.685L149.688 162.499L145.592 163.973C137.723 161.797 135.716 160.753 135.716 160.753C137.535 158.938 139.54 157.318 141.696 155.919L147.471 158.479L144.113 154.47C146.604 153.074 149.324 152.133 152.146 151.69L155.167 156.129L154.9 151.521C157.415 151.581 159.877 152.258 162.068 153.492L162.022 155.899L163.169 154.158C163.924 154.638 164.642 155.172 165.32 155.755Z" fill="#407BFF"/>
<path opacity="0.5" d="M165.32 155.755C165.32 155.755 164.163 165.519 155.54 165.924L157.117 163.876L153.697 165.888C152.86 165.804 152.03 165.659 151.214 165.453C150.159 165.187 149.166 164.941 148.255 164.685L149.688 162.499L145.592 163.973C137.723 161.797 135.716 160.753 135.716 160.753C137.535 158.938 139.54 157.318 141.696 155.919L147.471 158.479L144.113 154.47C146.604 153.074 149.324 152.133 152.146 151.69L155.167 156.129L154.9 151.521C157.415 151.581 159.877 152.258 162.068 153.492L162.022 155.899L163.169 154.158C163.924 154.638 164.642 155.172 165.32 155.755Z" fill="white"/>
<path d="M146.514 174.751C146.514 174.751 159.718 156.186 163.958 183.557H162.422C162.422 183.557 161.003 171.008 155.97 170.086C150.937 169.165 146.514 174.751 146.514 174.751Z" fill="#407BFF"/>
<path d="M179.267 171.351C179.267 171.351 166.533 145.608 162.442 183.557H163.902C163.902 183.557 165.294 166.149 170.143 164.879C174.992 163.609 179.267 171.351 179.267 171.351Z" fill="#407BFF"/>
<path d="M149.022 159.918C149.022 159.918 168.345 156.938 165.319 183.936H166.855C166.855 183.936 170.573 157.041 149.022 159.918Z" fill="#407BFF"/>
<path d="M151.388 181.76L156.508 210.545H173.056L178.176 181.76H151.388Z" fill="#263238"/>
<path opacity="0.5" d="M151.388 181.76L156.508 210.545H173.056L178.176 181.76H151.388Z" fill="white"/>
<path d="M91.4434 131.005V138.752C91.4447 140.194 92.018 141.576 93.0374 142.595C94.0569 143.615 95.4391 144.188 96.8808 144.189H171.008C172.448 144.187 173.829 143.613 174.846 142.593C175.864 141.574 176.435 140.192 176.435 138.752V131.005H91.4434Z" fill="#407BFF"/>
<path d="M170.998 81.3926H96.8808C93.8778 81.3926 91.4434 83.827 91.4434 86.83V137.728C91.4434 140.731 93.8778 143.165 96.8808 143.165H170.998C174.001 143.165 176.435 140.731 176.435 137.728V86.83C176.435 83.827 174.001 81.3926 170.998 81.3926Z" fill="#407BFF"/>
<path opacity="0.8" d="M170.998 81.3926H96.8808C93.8778 81.3926 91.4434 83.827 91.4434 86.83V137.728C91.4434 140.731 93.8778 143.165 96.8808 143.165H170.998C174.001 143.165 176.435 140.731 176.435 137.728V86.83C176.435 83.827 174.001 81.3926 170.998 81.3926Z" fill="white"/>
<path d="M124.861 131.338H123.576V130.56H127.073V131.318H125.788V134.574H124.861V131.338Z" fill="#263238"/>
<path d="M130.13 134.595L129.356 133.473H128.512V134.595H127.585V130.56H129.321C129.639 130.554 129.955 130.615 130.247 130.739C130.494 130.848 130.704 131.026 130.852 131.251C130.997 131.482 131.07 131.752 131.061 132.024C131.069 132.298 130.994 132.567 130.846 132.797C130.698 133.025 130.486 133.203 130.237 133.309L131.138 134.6L130.13 134.595ZM129.894 131.523C129.71 131.39 129.485 131.326 129.259 131.343H128.512V132.741H129.269C129.496 132.757 129.721 132.692 129.904 132.557C129.972 132.49 130.027 132.41 130.063 132.323C130.1 132.235 130.119 132.14 130.119 132.045C130.119 131.949 130.1 131.855 130.063 131.767C130.027 131.679 129.972 131.6 129.904 131.533L129.894 131.523Z" fill="#263238"/>
<path d="M134.897 133.847V134.595H131.789V130.56H134.82V131.302H132.711V132.178H134.574V132.9H132.711V133.827L134.897 133.847Z" fill="#263238"/>
<path d="M139.315 130.56V134.574H138.552L136.55 132.137V134.574H135.634V130.56H136.402L138.399 132.997V130.56H139.315Z" fill="#263238"/>
<path d="M140.288 130.56H142.111C142.511 130.552 142.907 130.638 143.268 130.811C143.59 130.965 143.86 131.208 144.046 131.512C144.231 131.833 144.328 132.197 144.328 132.567C144.328 132.937 144.231 133.301 144.046 133.622C143.86 133.926 143.59 134.169 143.268 134.323C142.907 134.496 142.511 134.582 142.111 134.574H140.288V130.56ZM142.065 133.811C142.417 133.829 142.763 133.708 143.027 133.473C143.139 133.359 143.226 133.224 143.283 133.075C143.34 132.926 143.367 132.767 143.36 132.608C143.369 132.439 143.341 132.271 143.28 132.113C143.218 131.956 143.123 131.814 143.002 131.696C142.736 131.466 142.391 131.346 142.039 131.364H141.194V133.852L142.065 133.811Z" fill="#263238"/>
<path d="M108.493 120.729H100.854V124.303H108.493V120.729Z" fill="#407BFF"/>
<path d="M120.203 117.524H112.563V124.308H120.203V117.524Z" fill="#263238"/>
<path d="M131.907 116.598H124.268V124.308H131.907V116.598Z" fill="#407BFF"/>
<path d="M143.617 110.658H135.978V124.308H143.617V110.658Z" fill="#263238"/>
<path d="M155.321 101.652H147.682V124.303H155.321V101.652Z" fill="#407BFF"/>
<path d="M167.025 93.9519H159.386V124.308H167.025V93.9519Z" fill="#263238"/>
<path d="M128.922 49.3517C127.321 47.6862 125.4 46.3613 123.274 45.4569C121.148 44.5524 118.862 44.0869 116.552 44.0884V54.8404C117.854 54.8404 119.142 55.1086 120.335 55.6284C121.529 56.1481 122.602 56.9082 123.489 57.8612L128.922 52.4289V49.3517Z" fill="#407BFF"/>
<path opacity="0.3" d="M128.922 49.3517C127.321 47.6862 125.4 46.3613 123.274 45.4569C121.148 44.5524 118.862 44.0869 116.552 44.0884V54.8404C117.854 54.8404 119.142 55.1086 120.335 55.6284C121.529 56.1481 122.602 56.9082 123.489 57.8612L128.922 52.4289V49.3517Z" fill="white"/>
<path d="M123.489 54.7841L128.922 49.3517C127.321 47.6862 125.4 46.3613 123.274 45.4569C121.148 44.5524 118.862 44.0869 116.552 44.0884V51.7684C117.853 51.7677 119.141 52.0352 120.334 52.554C121.528 53.0728 122.602 53.832 123.489 54.7841Z" fill="#407BFF"/>
<path d="M122.466 60.9281C123.753 62.3012 124.603 64.0265 124.908 65.8842C124.546 68.1113 123.404 70.137 121.685 71.599C119.967 73.0609 117.784 73.8637 115.528 73.8637C113.272 73.8637 111.089 73.0609 109.371 71.599C107.652 70.137 106.51 68.1113 106.148 65.8842C106.51 63.6571 107.652 61.6314 109.371 60.1691C111.089 58.7068 113.272 57.9033 115.528 57.9021V47.1501C110.968 47.1501 106.595 48.9615 103.371 52.1858C100.146 55.4102 98.335 59.7833 98.335 64.3431C98.335 64.8551 98.3657 65.3671 98.4066 65.8791C98.3657 66.3911 98.335 66.9031 98.335 67.4151C98.4128 71.9229 100.258 76.2198 103.473 79.3801C106.689 82.5405 111.017 84.3114 115.525 84.3114C120.034 84.3114 124.362 82.5405 127.577 79.3801C130.793 76.2198 132.638 71.9229 132.716 67.4151C132.716 66.9031 132.716 66.3911 132.644 65.8791C132.69 65.3671 132.716 64.8551 132.716 64.3431C132.723 59.8912 130.995 55.6119 127.898 52.4135L122.466 57.8561V60.9281Z" fill="#407BFF"/>
<path opacity="0.3" d="M122.466 60.9281C123.753 62.3012 124.603 64.0265 124.908 65.8842C124.546 68.1113 123.404 70.137 121.685 71.599C119.967 73.0609 117.784 73.8637 115.528 73.8637C113.272 73.8637 111.089 73.0609 109.371 71.599C107.652 70.137 106.51 68.1113 106.148 65.8842C106.51 63.6571 107.652 61.6314 109.371 60.1691C111.089 58.7068 113.272 57.9033 115.528 57.9021V47.1501C110.968 47.1501 106.595 48.9615 103.371 52.1858C100.146 55.4102 98.335 59.7833 98.335 64.3431C98.335 64.8551 98.3657 65.3671 98.4066 65.8791C98.3657 66.3911 98.335 66.9031 98.335 67.4151C98.4128 71.9229 100.258 76.2198 103.473 79.3801C106.689 82.5405 111.017 84.3114 115.525 84.3114C120.034 84.3114 124.362 82.5405 127.577 79.3801C130.793 76.2198 132.638 71.9229 132.716 67.4151C132.716 66.9031 132.716 66.3911 132.644 65.8791C132.69 65.3671 132.716 64.8551 132.716 64.3431C132.723 59.8912 130.995 55.6119 127.898 52.4135L122.466 57.8561V60.9281Z" fill="white"/>
<path opacity="0.6" d="M127.898 52.4238L122.466 57.8561C123.957 59.4544 124.852 61.5179 125 63.699C125.149 65.8802 124.54 68.0458 123.279 69.831C122.017 71.6163 120.178 72.9121 118.073 73.5003C115.967 74.0886 113.723 73.9332 111.719 73.0604C109.714 72.1876 108.072 70.6508 107.068 68.7087C106.064 66.7666 105.76 64.5379 106.208 62.3979C106.655 60.258 107.826 58.3375 109.524 56.9601C111.221 55.5826 113.342 54.8322 115.528 54.8353V47.1553C111.561 47.1518 107.714 48.5195 104.64 51.0269C101.566 53.5343 99.4523 57.0271 98.658 60.914C97.8636 64.8008 98.4371 68.8428 100.281 72.3553C102.125 75.8678 105.127 78.635 108.777 80.1883C112.428 81.7415 116.503 81.9854 120.313 80.8785C124.122 79.7717 127.432 77.3822 129.682 74.1146C131.932 70.8471 132.983 66.9024 132.658 62.9485C132.333 58.9947 130.651 55.2747 127.898 52.4186V52.4238Z" fill="white"/>
<path d="M111.575 66.8723V67.8195H107.781V67.072L109.717 65.2442C109.882 65.0976 110.022 64.9246 110.131 64.7322C110.201 64.6031 110.238 64.459 110.239 64.3123C110.244 64.2247 110.228 64.1372 110.193 64.057C110.157 63.9768 110.103 63.9063 110.034 63.8515C109.858 63.7326 109.647 63.6766 109.435 63.6928C109.23 63.6905 109.028 63.7324 108.841 63.8157C108.663 63.902 108.509 64.0324 108.396 64.1946L107.551 63.6467C107.754 63.351 108.034 63.1157 108.36 62.9658C108.73 62.7929 109.134 62.7071 109.542 62.7149C109.879 62.7079 110.214 62.7706 110.525 62.8992C110.786 63.0053 111.011 63.1828 111.176 63.4112C111.332 63.6419 111.413 63.9158 111.406 64.1946C111.407 64.4599 111.35 64.7222 111.237 64.9626C111.066 65.2715 110.84 65.5473 110.572 65.7766L109.414 66.8672L111.575 66.8723Z" fill="#263238"/>
<path d="M113.08 67.5841C112.744 67.3665 112.479 67.0549 112.318 66.6881C111.949 65.7962 111.949 64.7946 112.318 63.9028C112.479 63.5359 112.744 63.2244 113.08 63.0068C113.414 62.8001 113.799 62.6935 114.191 62.6996C114.584 62.6935 114.969 62.8001 115.302 63.0068C115.636 63.2277 115.9 63.5383 116.065 63.9028C116.434 64.7946 116.434 65.7962 116.065 66.6881C115.902 67.0535 115.637 67.3645 115.302 67.5841C114.969 67.7907 114.584 67.8974 114.191 67.8913C113.799 67.8974 113.414 67.7907 113.08 67.5841ZM114.908 66.514C115.08 66.1308 115.169 65.7155 115.169 65.2954C115.169 64.8754 115.08 64.4601 114.908 64.0769C114.831 63.9563 114.726 63.8571 114.6 63.7884C114.475 63.7197 114.334 63.6836 114.191 63.6836C114.049 63.6836 113.908 63.7197 113.783 63.7884C113.657 63.8571 113.551 63.9563 113.475 64.0769C113.303 64.4601 113.214 64.8754 113.214 65.2954C113.214 65.7155 113.303 66.1308 113.475 66.514C113.551 66.6345 113.657 66.7337 113.783 66.8025C113.908 66.8712 114.049 66.9072 114.191 66.9072C114.334 66.9072 114.475 66.8712 114.6 66.8025C114.726 66.7337 114.831 66.6345 114.908 66.514Z" fill="#263238"/>
<path d="M117.166 65.1367C116.94 64.849 116.817 64.4939 116.817 64.1281C116.817 63.7623 116.94 63.4071 117.166 63.1195C117.281 62.9961 117.42 62.8989 117.576 62.8344C117.731 62.7699 117.899 62.7397 118.067 62.7457C118.235 62.7394 118.402 62.7695 118.556 62.8341C118.711 62.8986 118.85 62.996 118.963 63.1195C119.186 63.4086 119.306 63.7632 119.306 64.1281C119.306 64.493 119.186 64.8476 118.963 65.1367C118.85 65.2602 118.711 65.3576 118.556 65.4221C118.402 65.4867 118.235 65.5168 118.067 65.5105C117.899 65.5165 117.731 65.4863 117.576 65.4218C117.42 65.3573 117.281 65.2601 117.166 65.1367ZM118.451 64.722C118.542 64.5372 118.589 64.334 118.589 64.1281C118.589 63.9222 118.542 63.719 118.451 63.5342C118.409 63.4719 118.352 63.4209 118.286 63.3856C118.219 63.3503 118.145 63.3319 118.07 63.3319C117.994 63.3319 117.92 63.3503 117.854 63.3856C117.787 63.4209 117.731 63.4719 117.688 63.5342C117.582 63.7115 117.532 63.9167 117.545 64.123C117.531 64.3309 117.581 64.5381 117.688 64.7169C117.731 64.7782 117.788 64.8282 117.855 64.8627C117.921 64.8972 117.995 64.9153 118.07 64.9153C118.145 64.9153 118.218 64.8972 118.285 64.8627C118.351 64.8282 118.408 64.7782 118.451 64.7169V64.722ZM121.057 62.802H121.907L118.482 67.8196H117.632L121.057 62.802ZM120.832 67.707C120.641 67.594 120.487 67.4264 120.392 67.2257C120.287 66.9958 120.233 66.7461 120.233 66.4935C120.233 66.2409 120.287 65.9913 120.392 65.7614C120.487 65.5607 120.641 65.3931 120.832 65.2801C121.026 65.1658 121.247 65.1073 121.472 65.1111C121.64 65.1051 121.808 65.1353 121.963 65.1998C122.119 65.2643 122.259 65.3616 122.373 65.4849C122.599 65.7726 122.722 66.1278 122.722 66.4935C122.722 66.8593 122.599 67.2145 122.373 67.5022C122.259 67.6255 122.119 67.7227 121.963 67.7872C121.808 67.8517 121.64 67.882 121.472 67.8759C121.247 67.8797 121.026 67.8213 120.832 67.707ZM121.856 67.0875C121.959 66.9071 122.007 66.7007 121.994 66.4935C122.008 66.2878 121.96 66.0826 121.856 65.9047C121.816 65.8399 121.759 65.7868 121.691 65.7509C121.624 65.7149 121.548 65.6974 121.472 65.6999C121.397 65.6987 121.323 65.7163 121.257 65.7512C121.191 65.7861 121.134 65.8372 121.093 65.8996C120.999 66.0834 120.95 66.287 120.95 66.4935C120.95 66.7001 120.999 66.9037 121.093 67.0875C121.136 67.1487 121.193 67.1987 121.26 67.2333C121.326 67.2678 121.4 67.2858 121.475 67.2858C121.549 67.2858 121.623 67.2678 121.689 67.2333C121.756 67.1987 121.813 67.1487 121.856 67.0875Z" fill="#263238"/>
<path d="M127.898 114.545C127.848 114.545 127.797 114.536 127.751 114.517C127.704 114.498 127.661 114.47 127.625 114.434C127.589 114.398 127.561 114.355 127.542 114.308C127.523 114.262 127.514 114.211 127.514 114.161V108.109C127.515 107.449 127.253 106.815 126.787 106.348L116.148 95.7082C115.845 95.407 115.604 95.0489 115.44 94.6544C115.275 94.2598 115.191 93.8367 115.19 93.4093V87.5776C115.192 87.4762 115.233 87.3793 115.304 87.3075C115.376 87.2358 115.473 87.1949 115.574 87.1936C115.676 87.1936 115.774 87.2341 115.846 87.3061C115.918 87.3781 115.958 87.4758 115.958 87.5776V93.4093C115.958 93.7359 116.022 94.0594 116.148 94.3609C116.274 94.6624 116.458 94.9359 116.691 95.1654L127.33 105.805C127.633 106.107 127.873 106.466 128.037 106.861C128.2 107.257 128.284 107.681 128.282 108.109V114.176C128.278 114.275 128.236 114.369 128.165 114.438C128.093 114.506 127.998 114.545 127.898 114.545Z" fill="#263238"/>
<path d="M152.008 61.5629H151.188V62.6176H150.057V61.5629H147.354V60.7795L149.719 57.6H150.938L148.746 60.6157H150.093V59.6787H151.188V60.6157H152.008V61.5629Z" fill="#263238"/>
<path d="M155.647 59.9041C155.814 60.0402 155.947 60.2132 156.036 60.4096C156.125 60.6059 156.167 60.8202 156.159 61.0356C156.163 61.3299 156.083 61.6192 155.929 61.8701C155.761 62.1343 155.519 62.3428 155.232 62.4692C154.867 62.633 154.47 62.7118 154.07 62.6996C153.724 62.6969 153.38 62.6487 153.046 62.5562C152.735 62.478 152.44 62.3445 152.176 62.162L152.631 61.2711C152.831 61.4191 153.054 61.5317 153.292 61.6039C153.541 61.6816 153.799 61.7213 154.06 61.7217C154.3 61.7353 154.539 61.6764 154.746 61.5527C154.826 61.5008 154.891 61.4293 154.935 61.345C154.979 61.2606 155 61.1664 154.997 61.0714C155.01 60.9697 154.992 60.8666 154.945 60.7753C154.898 60.684 154.826 60.6088 154.736 60.5594C154.454 60.4239 154.141 60.3656 153.83 60.3905H152.544L152.806 57.5693H155.878V58.5012H153.783L153.702 59.4535H154.111C154.66 59.4223 155.202 59.5815 155.647 59.9041Z" fill="#263238"/>
<path d="M156.789 59.9296C156.564 59.6427 156.441 59.2884 156.441 58.9235C156.441 58.5586 156.564 58.2043 156.789 57.9174C156.904 57.7941 157.044 57.6969 157.199 57.6324C157.355 57.5679 157.522 57.5376 157.691 57.5437C157.858 57.5374 158.025 57.5675 158.18 57.632C158.334 57.6966 158.473 57.7939 158.587 57.9174C158.809 58.2058 158.929 58.5595 158.929 58.9235C158.929 59.2875 158.809 59.6412 158.587 59.9296C158.473 60.0537 158.335 60.1519 158.18 60.2173C158.025 60.2827 157.858 60.3138 157.691 60.3085C157.522 60.3135 157.354 60.2823 157.199 60.2169C157.043 60.1516 156.904 60.0536 156.789 59.9296ZM158.075 59.52C158.18 59.3406 158.228 59.1335 158.213 58.9261C158.228 58.7186 158.18 58.5115 158.075 58.3321C158.034 58.2673 157.977 58.2143 157.91 58.1783C157.843 58.1424 157.767 58.1248 157.691 58.1273C157.615 58.1267 157.541 58.1451 157.475 58.1809C157.408 58.2167 157.352 58.2688 157.312 58.3321C157.205 58.5109 157.155 58.7181 157.168 58.9261C157.156 59.1323 157.206 59.3376 157.312 59.5149C157.351 59.5793 157.407 59.6322 157.474 59.6681C157.54 59.7041 157.615 59.7219 157.691 59.7197C157.766 59.7223 157.842 59.7052 157.909 59.6703C157.976 59.6353 158.033 59.5835 158.075 59.52ZM160.681 57.6H161.531L158.105 62.6176H157.255L160.681 57.6ZM160.455 62.505C160.264 62.3919 160.111 62.2244 160.015 62.0237C159.91 61.7938 159.856 61.5441 159.856 61.2915C159.856 61.0389 159.91 60.7892 160.015 60.5593C160.106 60.3478 160.26 60.1692 160.455 60.0473C160.65 59.937 160.871 59.8805 161.095 59.8835C161.264 59.8775 161.431 59.9077 161.587 59.9722C161.742 60.0367 161.882 60.1339 161.996 60.2573C162.241 60.5403 162.366 60.9076 162.345 61.2813C162.357 61.4665 162.332 61.6522 162.272 61.8279C162.213 62.0036 162.119 62.1658 161.996 62.3053C161.882 62.4293 161.743 62.5273 161.587 62.5926C161.432 62.658 161.264 62.6892 161.095 62.6841C160.87 62.6849 160.648 62.6228 160.455 62.505ZM161.479 61.8803C161.584 61.7024 161.632 61.4972 161.618 61.2915C161.631 61.0843 161.583 60.8777 161.479 60.6976C161.438 60.6335 161.381 60.581 161.314 60.5451C161.247 60.5092 161.172 60.4912 161.095 60.4928C161.02 60.4906 160.945 60.5084 160.878 60.5443C160.812 60.5803 160.756 60.6332 160.716 60.6976C160.609 60.8764 160.559 61.0836 160.573 61.2915C160.559 61.4995 160.609 61.7067 160.716 61.8854C160.759 61.9477 160.816 61.9987 160.882 62.034C160.949 62.0693 161.023 62.0877 161.098 62.0877C161.173 62.0877 161.247 62.0693 161.314 62.034C161.38 61.9987 161.437 61.9477 161.479 61.8854V61.8803Z" fill="#263238"/>
<path d="M168.565 67.584L161.909 63.7389C160.984 65.5088 159.524 66.9422 157.738 67.8358C155.951 68.7293 153.929 69.0376 151.957 68.7169C149.986 68.3961 148.166 67.4627 146.755 66.0489C145.344 64.6352 144.414 62.813 144.097 60.841C144.334 59.4174 144.892 58.0663 145.727 56.8894C146.563 55.7125 147.654 54.7405 148.92 54.0467V50.9747L145.085 44.3187C142.418 45.8106 140.198 47.9868 138.652 50.6229C137.107 53.259 136.293 56.2596 136.294 59.3152C136.294 59.8272 136.32 60.3392 136.366 60.8512C136.325 61.3632 136.294 61.8752 136.294 62.3872C136.301 66.1996 137.574 69.9017 139.915 72.9113C142.255 75.9209 145.529 78.0672 149.222 79.0128C152.916 79.9584 156.819 79.6496 160.317 78.135C163.816 76.6204 166.712 73.9859 168.55 70.6458L168.565 67.584Z" fill="#263238"/>
<path opacity="0.6" d="M153.487 68.864C151.373 68.8629 149.32 68.1582 147.651 66.8611C145.982 65.564 144.793 63.7484 144.27 61.7004C143.747 59.6525 143.921 57.4887 144.763 55.5504C145.606 53.6121 147.07 52.0095 148.925 50.9952L145.09 44.3392C142.766 45.6398 140.776 47.4626 139.278 49.6636C137.779 51.8647 136.812 54.3839 136.453 57.0226C136.095 59.6612 136.354 62.3471 137.211 64.8683C138.068 67.3896 139.499 69.6773 141.391 71.5509C143.283 73.4246 145.585 74.8329 148.115 75.6649C150.644 76.4969 153.333 76.7297 155.968 76.3451C158.602 75.9604 161.112 74.9688 163.298 73.4484C165.484 71.928 167.287 69.9204 168.565 67.584L161.909 63.7389C161.107 65.2807 159.898 66.5735 158.413 67.477C156.928 68.3805 155.225 68.8601 153.487 68.864Z" fill="white"/>
<path opacity="0.6" d="M168.565 67.584L161.909 63.7389C160.984 65.5088 159.524 66.9422 157.738 67.8358C155.951 68.7293 153.929 69.0376 151.957 68.7169C149.986 68.3961 148.166 67.4627 146.755 66.0489C145.344 64.6352 144.414 62.813 144.097 60.841C144.334 59.4174 144.892 58.0663 145.727 56.8894C146.563 55.7125 147.654 54.7405 148.92 54.0467V50.9747L145.085 44.3187C142.418 45.8106 140.198 47.9868 138.652 50.6229C137.107 53.259 136.293 56.2596 136.294 59.3152C136.294 59.8272 136.32 60.3392 136.366 60.8512C136.325 61.3632 136.294 61.8752 136.294 62.3872C136.301 66.1996 137.574 69.9017 139.915 72.9113C142.255 75.9209 145.529 78.0672 149.222 79.0128C152.916 79.9584 156.819 79.6496 160.317 78.135C163.816 76.6204 166.712 73.9859 168.55 70.6458L168.565 67.584Z" fill="white"/>
<path d="M163.962 64.7834L170.618 68.6285C172.009 66.0983 172.736 63.2572 172.733 60.37C172.733 59.858 172.702 59.346 172.656 58.834C172.702 58.322 172.733 57.81 172.733 57.298C172.733 54.2985 171.948 51.3513 170.456 48.749C168.965 46.1467 166.818 43.9799 164.23 42.4638C161.642 40.9477 158.702 40.1351 155.703 40.1066C152.704 40.0781 149.749 40.8348 147.133 42.3015V45.3735L150.968 52.0295C152.304 51.2973 153.797 50.8972 155.321 50.8631C156.844 50.829 158.354 51.1618 159.722 51.8335C161.09 52.5052 162.276 53.496 163.181 54.7224C164.085 55.9488 164.682 57.3748 164.92 58.88C164.754 59.877 164.431 60.8414 163.962 61.737V64.7834Z" fill="#263238"/>
<path opacity="0.4" d="M163.962 64.7834L170.618 68.6285C172.009 66.0983 172.736 63.2572 172.733 60.37C172.733 59.858 172.702 59.346 172.656 58.834C172.702 58.322 172.733 57.81 172.733 57.298C172.733 54.2985 171.948 51.3513 170.456 48.749C168.965 46.1467 166.818 43.9799 164.23 42.4638C161.642 40.9477 158.702 40.1351 155.703 40.1066C152.704 40.0781 149.749 40.8348 147.133 42.3015V45.3735L150.968 52.0295C152.304 51.2973 153.797 50.8972 155.321 50.8631C156.844 50.829 158.354 51.1618 159.722 51.8335C161.09 52.5052 162.276 53.496 163.181 54.7224C164.085 55.9488 164.682 57.3748 164.92 58.88C164.754 59.877 164.431 60.8414 163.962 61.737V64.7834Z" fill="white"/>
<path d="M155.534 40.1101C152.593 40.1044 149.701 40.8593 147.138 42.3015L150.973 48.9575C152.764 47.9776 154.824 47.6003 156.847 47.8815C158.869 48.1626 160.748 49.0872 162.205 50.5186C163.661 51.95 164.619 53.8121 164.935 55.8297C165.252 57.8472 164.91 59.913 163.962 61.7217L170.618 65.5668C172.052 62.949 172.78 60.0029 172.73 57.0185C172.679 54.034 171.853 51.1141 170.331 48.5462C168.809 45.9783 166.645 43.8509 164.052 42.3735C161.458 40.8961 158.524 40.1196 155.54 40.1204L155.534 40.1101Z" fill="#263238"/>
<path d="M139.776 108.646C139.674 108.645 139.577 108.604 139.506 108.533C139.434 108.461 139.393 108.364 139.392 108.262V103.742C139.393 102.877 139.737 102.048 140.349 101.438L150.988 90.8033C151.454 90.3356 151.716 89.7022 151.715 89.042V82.6983C151.717 82.5969 151.758 82.5 151.829 82.4283C151.901 82.3565 151.998 82.3157 152.099 82.3143C152.201 82.3157 152.298 82.3565 152.37 82.4283C152.441 82.5 152.482 82.5969 152.483 82.6983V89.042C152.482 89.9055 152.14 90.7335 151.531 91.346L140.892 101.98C140.659 102.211 140.475 102.485 140.349 102.787C140.223 103.09 140.159 103.414 140.16 103.742V108.262C140.16 108.364 140.119 108.462 140.047 108.534C139.975 108.606 139.877 108.646 139.776 108.646Z" fill="#263238"/>
<path d="M191.729 129.341C191.983 129.463 192.199 129.653 192.353 129.889C192.509 130.136 192.589 130.422 192.584 130.714C192.588 131.025 192.501 131.331 192.333 131.594C192.161 131.847 191.924 132.049 191.647 132.178C191.346 132.318 191.016 132.388 190.684 132.383C190.379 132.4 190.074 132.351 189.79 132.239C189.505 132.128 189.248 131.957 189.036 131.738C188.609 131.222 188.396 130.562 188.442 129.894C188.428 129.387 188.539 128.884 188.764 128.43C188.964 128.04 189.276 127.719 189.66 127.508C190.072 127.291 190.531 127.182 190.997 127.191C191.257 127.19 191.517 127.221 191.77 127.283C191.991 127.331 192.202 127.416 192.394 127.534L191.964 128.389C191.685 128.212 191.358 128.124 191.027 128.138C190.84 128.126 190.652 128.152 190.476 128.217C190.299 128.281 190.138 128.382 190.003 128.512C189.733 128.806 189.588 129.193 189.599 129.592C189.765 129.438 189.96 129.32 190.173 129.243C190.386 129.166 190.612 129.134 190.838 129.147C191.146 129.141 191.451 129.208 191.729 129.341ZM191.217 131.313C191.295 131.246 191.357 131.163 191.398 131.069C191.439 130.975 191.457 130.872 191.452 130.77C191.457 130.667 191.439 130.564 191.398 130.469C191.357 130.374 191.295 130.289 191.217 130.222C191.044 130.077 190.822 130.004 190.597 130.017C190.372 130.009 190.151 130.083 189.978 130.227C189.898 130.293 189.835 130.376 189.793 130.47C189.75 130.564 189.729 130.667 189.732 130.77C189.732 130.867 189.753 130.963 189.794 131.052C189.834 131.14 189.894 131.218 189.967 131.282C190.15 131.427 190.38 131.5 190.613 131.487C190.83 131.506 191.047 131.444 191.222 131.313H191.217Z" fill="#263238"/>
<path d="M194.048 132.096C193.713 131.877 193.449 131.566 193.285 131.2C192.917 130.308 192.917 129.307 193.285 128.415C193.445 128.039 193.71 127.717 194.048 127.488C194.381 127.281 194.767 127.175 195.159 127.181C195.551 127.175 195.937 127.281 196.27 127.488C196.605 127.708 196.87 128.019 197.033 128.384C197.402 129.276 197.402 130.278 197.033 131.169C196.872 131.536 196.607 131.848 196.27 132.065C195.937 132.272 195.551 132.379 195.159 132.373C194.77 132.388 194.385 132.292 194.048 132.096ZM195.881 131.026C196.053 130.643 196.142 130.228 196.142 129.807C196.142 129.387 196.053 128.972 195.881 128.589C195.804 128.468 195.698 128.369 195.573 128.3C195.448 128.232 195.307 128.196 195.164 128.196C195.021 128.196 194.881 128.232 194.756 128.3C194.63 128.369 194.524 128.468 194.448 128.589C194.275 128.972 194.186 129.387 194.186 129.807C194.186 130.228 194.275 130.643 194.448 131.026C194.524 131.147 194.63 131.246 194.756 131.315C194.881 131.383 195.021 131.419 195.164 131.419C195.307 131.419 195.448 131.383 195.573 131.315C195.698 131.246 195.804 131.147 195.881 131.026Z" fill="#263238"/>
<path d="M198.144 129.613C197.918 129.325 197.795 128.97 197.795 128.604C197.795 128.238 197.918 127.883 198.144 127.595C198.261 127.477 198.401 127.382 198.555 127.318C198.71 127.254 198.875 127.221 199.042 127.221C199.209 127.221 199.375 127.254 199.529 127.318C199.683 127.382 199.823 127.477 199.941 127.595C200.163 127.885 200.284 128.239 200.284 128.604C200.284 128.969 200.163 129.324 199.941 129.613C199.823 129.731 199.683 129.826 199.529 129.89C199.375 129.954 199.209 129.987 199.042 129.987C198.875 129.987 198.71 129.954 198.555 129.89C198.401 129.826 198.261 129.731 198.144 129.613ZM199.429 129.198C199.52 129.013 199.567 128.81 199.567 128.604C199.567 128.398 199.52 128.195 199.429 128.01C199.386 127.948 199.329 127.897 199.262 127.862C199.195 127.827 199.12 127.809 199.045 127.81C198.969 127.809 198.893 127.827 198.826 127.863C198.759 127.899 198.702 127.951 198.661 128.015C198.556 128.193 198.508 128.398 198.522 128.604C198.51 128.811 198.558 129.018 198.661 129.198C198.704 129.259 198.762 129.309 198.829 129.344C198.895 129.378 198.97 129.396 199.045 129.396C199.12 129.396 199.194 129.378 199.261 129.344C199.328 129.309 199.385 129.259 199.429 129.198ZM202.035 127.278H202.885L199.459 132.296H198.604L202.035 127.278ZM201.804 132.183C201.615 132.067 201.463 131.9 201.364 131.702C201.263 131.471 201.211 131.222 201.211 130.97C201.211 130.717 201.263 130.468 201.364 130.237C201.463 130.039 201.615 129.872 201.804 129.756C202 129.642 202.223 129.583 202.449 129.587C202.617 129.581 202.784 129.611 202.939 129.675C203.093 129.74 203.232 129.837 203.345 129.961C203.571 130.249 203.694 130.604 203.694 130.97C203.694 131.335 203.571 131.69 203.345 131.978C203.232 132.102 203.093 132.199 202.939 132.264C202.784 132.328 202.617 132.358 202.449 132.352C202.22 132.358 201.993 132.299 201.794 132.183H201.804ZM202.828 131.563C202.931 131.383 202.979 131.177 202.967 130.97C202.981 130.764 202.933 130.559 202.828 130.381C202.787 130.317 202.73 130.264 202.663 130.228C202.596 130.192 202.521 130.174 202.444 130.176C202.369 130.174 202.295 130.192 202.229 130.227C202.163 130.262 202.106 130.313 202.065 130.376C201.968 130.558 201.917 130.762 201.917 130.97C201.917 131.177 201.968 131.381 202.065 131.563C202.106 131.626 202.163 131.678 202.229 131.712C202.295 131.747 202.369 131.765 202.444 131.763C202.517 131.766 202.59 131.751 202.656 131.72C202.722 131.688 202.779 131.642 202.823 131.584L202.828 131.563Z" fill="#263238"/>
<path d="M181.555 122.424L188.211 126.264C189.135 124.494 190.594 123.059 192.38 122.165C194.167 121.271 196.189 120.962 198.161 121.283C200.132 121.604 201.953 122.538 203.363 123.952C204.774 125.367 205.703 127.19 206.018 129.162C205.785 130.585 205.231 131.937 204.4 133.115C203.568 134.293 202.479 135.266 201.215 135.962V139.034L205.05 145.69C207.716 144.197 209.936 142.021 211.481 139.385C213.027 136.749 213.841 133.749 213.841 130.693C213.841 130.181 213.816 129.644 213.77 129.132C213.811 128.62 213.841 128.108 213.841 127.621C213.835 123.809 212.561 120.107 210.221 117.097C207.88 114.087 204.606 111.941 200.913 110.996C197.22 110.05 193.317 110.359 189.818 111.873C186.319 113.388 183.423 116.022 181.585 119.363L181.555 122.424Z" fill="#407BFF"/>
<path d="M186.163 125.24L179.507 121.4C178.12 123.932 177.395 126.772 177.397 129.659C177.397 130.171 177.397 130.683 177.474 131.195C177.428 131.707 177.397 132.219 177.397 132.731C177.398 135.73 178.182 138.678 179.674 141.28C181.166 143.882 183.312 146.049 185.9 147.565C188.488 149.081 191.428 149.894 194.427 149.922C197.426 149.951 200.381 149.194 202.997 147.727V144.655L199.163 137.999C197.827 138.728 196.336 139.126 194.815 139.159C193.294 139.192 191.787 138.86 190.421 138.19C189.054 137.521 187.869 136.533 186.963 135.311C186.057 134.088 185.458 132.666 185.216 131.164C185.381 130.165 185.704 129.199 186.173 128.302L186.163 125.24Z" fill="#407BFF"/>
<path opacity="0.3" d="M181.555 122.424L188.211 126.264C189.135 124.494 190.594 123.059 192.38 122.165C194.167 121.271 196.189 120.962 198.161 121.283C200.132 121.604 201.953 122.538 203.363 123.952C204.774 125.367 205.703 127.19 206.018 129.162C205.785 130.585 205.231 131.937 204.4 133.115C203.568 134.293 202.479 135.266 201.215 135.962V139.034L205.05 145.69C207.716 144.197 209.936 142.021 211.481 139.385C213.027 136.749 213.841 133.749 213.841 130.693C213.841 130.181 213.816 129.644 213.77 129.132C213.811 128.62 213.841 128.108 213.841 127.621C213.835 123.809 212.561 120.107 210.221 117.097C207.88 114.087 204.606 111.941 200.913 110.996C197.22 110.05 193.317 110.359 189.818 111.873C186.319 113.388 183.423 116.022 181.585 119.363L181.555 122.424Z" fill="white"/>
<path opacity="0.3" d="M186.163 125.24L179.507 121.4C178.12 123.932 177.395 126.772 177.397 129.659C177.397 130.171 177.397 130.683 177.474 131.195C177.428 131.707 177.397 132.219 177.397 132.731C177.398 135.73 178.182 138.678 179.674 141.28C181.166 143.882 183.312 146.049 185.9 147.565C188.488 149.081 191.428 149.894 194.427 149.922C197.426 149.951 200.381 149.194 202.997 147.727V144.655L199.163 137.999C197.827 138.728 196.336 139.126 194.815 139.159C193.294 139.192 191.787 138.86 190.421 138.19C189.054 137.521 187.869 136.533 186.963 135.311C186.057 134.088 185.458 132.666 185.216 131.164C185.381 130.165 185.704 129.199 186.173 128.302L186.163 125.24Z" fill="white"/>
<path d="M196.638 118.093C198.752 118.094 200.805 118.799 202.474 120.096C204.143 121.393 205.332 123.208 205.855 125.256C206.378 127.304 206.204 129.468 205.361 131.406C204.519 133.345 203.055 134.947 201.2 135.962L205.035 142.618C207.359 141.317 209.349 139.494 210.849 137.292C212.348 135.09 213.315 132.571 213.674 129.931C214.033 127.292 213.774 124.606 212.917 122.084C212.06 119.562 210.629 117.273 208.736 115.399C206.844 113.525 204.542 112.116 202.012 111.283C199.482 110.451 196.793 110.217 194.157 110.602C191.521 110.986 189.011 111.978 186.824 113.498C184.637 115.018 182.833 117.026 181.555 119.363L188.211 123.203C189.015 121.662 190.225 120.372 191.711 119.471C193.197 118.57 194.901 118.094 196.638 118.093Z" fill="#407BFF"/>
<path opacity="0.6" d="M194.591 146.847C197.531 146.85 200.423 146.095 202.987 144.655L199.152 137.999C197.36 138.981 195.3 139.359 193.276 139.078C191.252 138.797 189.372 137.871 187.915 136.439C186.458 135.007 185.501 133.143 185.185 131.124C184.87 129.106 185.213 127.039 186.163 125.23L179.507 121.39C178.074 124.008 177.348 126.955 177.399 129.939C177.45 132.923 178.278 135.843 179.8 138.41C181.321 140.978 183.486 143.105 186.079 144.582C188.672 146.06 191.606 146.837 194.591 146.837V146.847Z" fill="white"/>
<path d="M173.87 132.403H158.208C157.344 132.402 156.516 132.059 155.904 131.451L151.511 127.053C151.439 126.981 151.398 126.883 151.398 126.781C151.398 126.68 151.439 126.582 151.511 126.51C151.583 126.438 151.68 126.398 151.782 126.398C151.884 126.398 151.981 126.438 152.053 126.51L156.446 130.908C156.914 131.374 157.548 131.635 158.208 131.635H173.88C173.982 131.635 174.08 131.676 174.152 131.748C174.224 131.82 174.264 131.917 174.264 132.019C174.265 132.071 174.255 132.122 174.235 132.169C174.216 132.217 174.186 132.26 174.15 132.296C174.113 132.332 174.069 132.36 174.021 132.378C173.973 132.397 173.921 132.405 173.87 132.403Z" fill="#263238"/>
<path d="M75.2642 85.248C78.9199 83.9322 78.2543 77.8138 77.1893 73.2212C76.6363 70.8506 79.6827 69.1252 77.5528 65.664C75.5611 62.3258 63.8619 59.0746 63.5599 65.1111C59.4639 66.2938 59.341 69.9853 59.7455 75.8631C59.7455 75.8784 54.0111 92.8973 75.2642 85.248Z" fill="#2E353A"/>
<path d="M86.9785 101.279L89.431 93.5424L89.5795 92.0064C89.5896 91.9106 89.6102 91.8161 89.6409 91.7248L90.5369 88.9293C90.6374 88.6212 90.8437 88.3587 91.1192 88.1881C91.3947 88.0176 91.7217 87.95 92.0422 87.9974C92.2916 88.0366 92.5254 88.1439 92.7179 88.3074C92.9103 88.4709 93.0538 88.6843 93.1328 88.9242L93.7216 90.7162C93.792 90.9244 93.8102 91.1469 93.7744 91.3638C93.7387 91.5808 93.6502 91.7856 93.5168 91.9603L91.5916 94.5203L89.8611 102.774L86.9785 101.279Z" fill="#B97964"/>
<path d="M79.8001 84.6694C79.8001 84.6694 81.7764 87.1629 83.0667 92.4979C84.3569 97.833 85.171 101.786 86.0516 101.873C86.9323 101.96 86.6763 99.8246 86.6763 99.8246L89.9479 101.361C89.9479 101.361 88.8267 107.208 85.7342 107.208C81.2593 107.208 80.2609 101.929 79.8001 99.5533C79.0884 95.8976 77.5627 88.2842 79.8001 84.6694Z" fill="#407BFF"/>
<path opacity="0.2" d="M79.8006 99.5482C80.0874 101.043 80.5942 103.69 82.0432 105.441C82.1302 92.5543 80.2051 87.6391 79.2067 85.9597C77.8806 89.8714 79.1658 96.2868 79.8006 99.5482Z" fill="black"/>
<path d="M80.3378 126.976L96.1381 206.797L92.3545 207.821C92.3545 207.821 82.6828 184.576 79.3599 170.588C78.9554 168.894 78.6482 167.332 78.4639 165.98C78.214 164.096 77.6643 162.264 76.8357 160.553C76.4108 159.678 75.909 158.602 75.3765 157.363C73.6528 153.328 72.2623 149.158 71.2191 144.896C71.2191 144.896 65.5052 136.294 66.3705 128.036L80.3378 126.976Z" fill="#B97964"/>
<path d="M72.1512 137.308L72.059 209.208H67.7275C67.7275 209.208 62.2184 180.367 62.8021 168.545V168.202C62.9612 165.566 62.6331 162.922 61.8344 160.405C61.5784 159.601 61.3224 158.689 61.0561 157.681C59.9161 153.159 59.3112 148.519 59.2539 143.857V134.897L72.1512 137.308Z" fill="#B97964"/>
<path d="M71.854 207.759L67.3382 207.852C67.2425 207.854 67.1506 207.889 67.0772 207.95C67.0038 208.012 66.9532 208.096 66.9337 208.19L66.0735 212.449C66.0521 212.551 66.0538 212.656 66.0784 212.757C66.103 212.859 66.1499 212.953 66.2157 213.033C66.2815 213.114 66.3645 213.179 66.4586 213.223C66.5528 213.267 66.6556 213.29 66.7596 213.289C68.6335 213.222 70.3078 213.089 72.6425 213.048C75.4073 213.002 74.6905 213.345 77.957 213.33C79.9129 213.33 80.2303 211.093 79.4009 210.995C75.5967 210.586 74.4806 209.459 72.9906 208.118C72.669 207.862 72.2641 207.734 71.854 207.759Z" fill="#263238"/>
<path d="M96.3273 205.793L91.8986 206.664C91.8053 206.682 91.7212 206.732 91.6598 206.804C91.5984 206.877 91.5634 206.968 91.5606 207.063L91.4429 211.41C91.4394 211.501 91.4541 211.593 91.4859 211.678C91.5178 211.764 91.5663 211.843 91.6286 211.91C91.6909 211.977 91.7658 212.031 91.849 212.069C91.9322 212.107 92.0221 212.129 92.1136 212.132H92.2621C94.1001 211.738 95.7232 211.318 98.0221 210.877C100.731 210.365 100.106 210.811 103.301 210.237C105.231 209.889 105.154 207.636 104.325 207.677C100.51 207.933 99.2048 207.002 97.5152 205.947C97.1519 205.75 96.7287 205.696 96.3273 205.793Z" fill="#263238"/>
<path opacity="0.1" d="M72.1252 156.078V148.542L59.7246 150.528C60.0193 152.906 60.4604 155.264 61.0456 157.589C64.7813 157.472 68.4947 156.966 72.1252 156.078Z" fill="black"/>
<path opacity="0.1" d="M84.7362 149.197L72.9346 150.851C73.5387 152.673 74.1582 154.342 74.7573 155.827C78.4678 155.765 82.1606 155.3 85.7704 154.44L84.7362 149.197Z" fill="black"/>
<path d="M59.4435 128.512C59.4435 128.512 57.0371 137.344 59.4435 156.493L87.3117 153.17L81.2291 124.416L74.696 120.059L66.3709 123.392L59.4435 128.512Z" fill="#263238"/>
<path opacity="0.5" d="M74.1992 135.414C74.1992 135.414 71.3473 141.814 72.2331 154.988L74.3528 154.737C73.4647 148.33 73.4131 141.834 74.1992 135.414Z" fill="black"/>
<path d="M74.6395 124.662L76.5544 130.872C78.541 130.55 80.7016 130.176 83.0671 129.736C83.0671 129.736 79.1093 114.77 80.3125 105.482C81.5157 96.1946 79.8005 84.6694 79.8005 84.6694C79.8005 84.6694 69.9957 83.4663 56.5762 86.5639C56.5762 86.5639 63.1144 103.936 62.0802 113.741C61.0459 123.546 57.4363 132.685 57.4363 132.685C57.4363 132.685 61.4709 133.135 73.2315 131.41L74.6395 124.662Z" fill="#407BFF"/>
<path d="M80.2355 113.183C80.1689 112.323 80.1279 111.462 80.1023 110.623C73.9583 112.502 64.8345 112.671 62.1823 112.712C62.1823 113.065 62.1363 113.408 62.1004 113.736C62.0646 114.063 62.0185 114.458 61.9775 114.821C71.2345 115.113 77.1839 114.007 80.2355 113.183Z" fill="#263238"/>
<path d="M76.0064 112.963C76.0679 113.869 75.1872 114.662 74.0455 114.734C72.9037 114.806 71.9258 114.14 71.8644 113.234C71.8029 112.328 72.6836 111.534 73.8304 111.462C74.9773 111.391 75.9501 112.056 76.0064 112.963Z" fill="#263238"/>
<path opacity="0.6" d="M76.0064 112.963C76.0679 113.869 75.1872 114.662 74.0455 114.734C72.9037 114.806 71.9258 114.14 71.8644 113.234C71.8029 112.328 72.6836 111.534 73.8304 111.462C74.9773 111.391 75.9501 112.056 76.0064 112.963Z" fill="white"/>
<path d="M67.1846 112.02L67.415 115.405H68.2751L68.0447 111.734L67.1846 112.02Z" fill="#407BFF"/>
<path d="M78.1357 110.761L78.2484 114.284H79.1085L78.9959 110.474L78.1357 110.761Z" fill="#407BFF"/>
<path d="M67.7274 83.9271C67.7274 83.9271 61.8496 82.4935 62.4845 88.914C62.4845 88.914 63.2269 86.6202 66.2682 88.0538L65.577 89.8868C67.746 89.9558 69.8698 90.5253 71.7824 91.5508C71.7824 91.5508 74.1222 89.9431 74.3424 88.2228L73.0214 87.1374C73.0214 87.1374 73.0214 85.4734 75.5814 86.907C75.6122 86.907 73.8918 81.5156 67.7274 83.9271Z" fill="#407BFF"/>
<path opacity="0.6" d="M67.7274 83.9271C67.7274 83.9271 61.8496 82.4935 62.4845 88.914C62.4845 88.914 63.2269 86.6202 66.2682 88.0538L65.577 89.8868C67.746 89.9558 69.8698 90.5253 71.7824 91.5508C71.7824 91.5508 74.1222 89.9431 74.3424 88.2228L73.0214 87.1374C73.0214 87.1374 73.0214 85.4734 75.5814 86.907C75.6122 86.907 73.8918 81.5156 67.7274 83.9271Z" fill="white"/>
<path opacity="0.2" d="M57.9531 90.5626C58.6955 92.841 59.6171 95.8977 60.4107 99.1796C60.2981 92.242 59.0027 89.4823 59.0027 89.4823L57.9531 90.5626Z" fill="black"/>
<path d="M71.0966 90.5165C73.5798 90.327 72.689 86.4922 72.049 84.4902C69.9549 84.567 67.5075 84.7411 64.7734 85.0944C65.7309 86.7021 68.3933 90.7264 71.0966 90.5165Z" fill="#B97964"/>
<path d="M56.5759 86.5638C56.5759 86.5638 53.9391 88.2842 52.3314 97.3978C50.7237 106.511 52.7103 111.734 57.6101 110.474C58.1579 110.331 59.7861 109.839 59.7861 109.839V105.257C59.7861 105.257 58.1835 105.887 57.2619 104.796C56.4274 103.803 57.0571 100.296 59.1 94.2848C59.7554 92.3648 59.6735 88.2227 56.5759 86.5638Z" fill="#407BFF"/>
<path d="M77.4347 95.529L67.9371 93.9674C67.9371 93.9674 65.8891 99.8964 66.4831 109.527L75.8117 108.431C75.8117 108.431 75.3816 103.869 77.4347 95.529Z" fill="#263238"/>
<path opacity="0.7" d="M77.4347 95.529L67.9371 93.9674C67.9371 93.9674 65.8891 99.8964 66.4831 109.527L75.8117 108.431C75.8117 108.431 75.3816 103.869 77.4347 95.529Z" fill="white"/>
<path d="M67.3072 108.826C67.3072 108.826 66.3804 97.961 70.8502 93.568L80.5116 95.3293C80.5116 95.3293 75.3916 102.497 77.0403 109.23L67.3072 108.826Z" fill="#263238"/>
<path opacity="0.8" d="M67.3072 108.826C67.3072 108.826 66.3804 97.961 70.8502 93.568L80.5116 95.3293C80.5116 95.3293 75.3916 102.497 77.0403 109.23L67.3072 108.826Z" fill="white"/>
<path d="M68.834 106.501L68.8096 106.9L74.9932 107.278L75.0176 106.879L68.834 106.501Z" fill="#263238"/>
<path d="M68.8966 104.315L68.8643 104.714L75.0493 105.217L75.0816 104.819L68.8966 104.315Z" fill="#263238"/>
<path d="M68.5233 102.378L68.4834 102.773L74.7991 103.411L74.8391 103.016L68.5233 102.378Z" fill="#263238"/>
<path d="M69.429 99.9146L69.3809 100.311L75.973 101.112L76.0212 100.716L69.429 99.9146Z" fill="#263238"/>
<path d="M70.8627 95.6269L70.7988 96.0211L77.7584 97.1483L77.8222 96.7541L70.8627 95.6269Z" fill="#263238"/>
<path d="M69.9936 97.7539L69.9375 98.1493L76.7709 99.1182L76.827 98.7228L69.9936 97.7539Z" fill="#263238"/>
<path d="M59.2694 105.984L65.3468 104.494L66.7497 102.344C66.898 102.112 67.1286 101.946 67.3949 101.878L69.2995 101.366C69.4541 101.325 69.6159 101.318 69.7734 101.346C69.9309 101.375 70.0803 101.437 70.2109 101.53C70.3981 101.66 70.5405 101.845 70.6184 102.06C70.6963 102.274 70.706 102.508 70.646 102.728L69.9446 105.242C69.897 105.414 69.8084 105.573 69.6863 105.704C69.5641 105.835 69.4121 105.935 69.2432 105.994L65.8076 107.177L58.6396 109.845L59.2694 105.984Z" fill="#B97964"/>
<path d="M58.1221 104.853V107.377H59.269L58.1221 108.293V111.16L60.4158 110.188V104.853H58.1221Z" fill="#407BFF"/>
<path opacity="0.6" d="M58.1221 104.853V107.377H59.269L58.1221 108.293V111.16L60.4158 110.188V104.853H58.1221Z" fill="white"/>
<path d="M85.2021 101.141L87.4345 102.323L87.9721 101.31L88.2434 102.753L90.7778 104.095L90.9929 101.612L86.2773 99.113L85.2021 101.141Z" fill="#407BFF"/>
<path opacity="0.6" d="M85.2021 101.141L87.4345 102.323L87.9721 101.31L88.2434 102.753L90.7778 104.095L90.9929 101.612L86.2773 99.113L85.2021 101.141Z" fill="white"/>
<path d="M65.085 85.1661L65.4946 85.5296L70.7938 89.4822L71.9458 89.2723L72.0072 84.777C70.3842 83.9168 69.8619 81.8432 70.205 80.169L65.597 76.585C66.1346 78.9811 66.4674 83.2307 65.085 85.1661Z" fill="#B97964"/>
<path opacity="0.1" d="M70.2203 82.2529C70.0799 81.5774 70.0799 80.8803 70.2203 80.2048L65.6123 76.6208C65.7497 77.219 65.8557 77.824 65.9297 78.4333C66.3162 79.3488 66.9018 80.1666 67.644 80.8273C68.3862 81.488 69.2663 81.975 70.2203 82.2529Z" fill="black"/>
<path d="M64.3683 71.419C64.7011 75.6327 64.7523 77.4247 66.9283 79.5546C70.1949 82.7495 75.3047 81.4286 76.2365 77.1943C77.0762 73.385 76.3901 67.1489 72.2275 65.5156C71.3107 65.1572 70.3175 65.0391 69.3422 65.1726C68.3669 65.306 67.4418 65.6865 66.6549 66.2779C65.868 66.8694 65.2454 67.6522 64.8461 68.552C64.4468 69.4517 64.2841 70.4386 64.3735 71.419H64.3683Z" fill="#B97964"/>
<path d="M67.2763 65.1111C72.7598 66.9082 62.5454 74.8391 62.6683 79.4727C60.4616 74.0301 61.2603 63.1399 67.2763 65.1111Z" fill="#2E353A"/>
<path d="M65.5764 71.9923C65.5764 71.9923 67.476 75.9808 66.4622 79.4726C65.1771 83.9219 67.9009 86.4256 67.9009 86.4256C66.8673 86.2725 65.9143 85.7789 65.1928 85.0231C64.4713 84.2673 64.0225 83.2924 63.9176 82.2528C63.4926 78.5049 62.7246 73.7587 62.7246 73.7587L65.5764 71.9923Z" fill="#2E353A"/>
<path d="M73.1387 73.2467C73.4909 74.1107 73.9632 74.9208 74.5415 75.6531C74.35 75.797 74.1291 75.8968 73.8946 75.9455C73.6601 75.9941 73.4177 75.9905 73.1847 75.9347L73.1387 73.2467Z" fill="#A24E3F"/>
<path d="M72.0277 77.906C72.2423 77.9078 72.4567 77.8889 72.6677 77.8497C72.6968 77.8447 72.7227 77.8284 72.7399 77.8045C72.7572 77.7806 72.7643 77.7508 72.7599 77.7217C72.7548 77.6926 72.7386 77.6667 72.7147 77.6494C72.6907 77.6322 72.661 77.6251 72.6319 77.6295C72.1669 77.7209 71.687 77.7017 71.2308 77.5737C70.7746 77.4456 70.3548 77.2122 70.0053 76.8922C69.9849 76.8698 69.9565 76.8564 69.9262 76.855C69.896 76.8535 69.8664 76.8642 69.844 76.8846C69.8216 76.9049 69.8082 76.9334 69.8068 76.9636C69.8053 76.9939 69.816 77.0234 69.8363 77.0458C70.4278 77.6056 71.2134 77.9139 72.0277 77.906Z" fill="#2E353A"/>
<path d="M65.0237 65.106C63.329 68.2087 68.2237 66.4423 72.161 67.7274C75.8116 68.9102 77.6599 71.2807 77.281 67.8401C76.7997 63.6007 67.7066 60.2215 65.0237 65.106Z" fill="#2E353A"/>
<path d="M68.7611 71.5776C68.7911 71.5723 68.8198 71.5609 68.8453 71.5442C68.8708 71.5275 68.8927 71.5058 68.9096 71.4803C69.0593 71.2431 69.2631 71.0448 69.5043 70.9015C69.7455 70.7582 70.0171 70.6741 70.2971 70.656C70.3569 70.6459 70.4105 70.6131 70.4468 70.5645C70.483 70.5158 70.4991 70.4551 70.4916 70.3949C70.4834 70.3468 70.4602 70.3025 70.4252 70.2685C70.3903 70.2344 70.3454 70.2123 70.2971 70.2054C69.9428 70.222 69.5978 70.3238 69.2912 70.502C68.9846 70.6803 68.7255 70.9298 68.5358 71.2294C68.5042 71.2786 68.4929 71.3382 68.5044 71.3955C68.5158 71.4528 68.5491 71.5034 68.5972 71.5366C68.6202 71.5544 68.6467 71.5673 68.6749 71.5743C68.7031 71.5814 68.7324 71.5825 68.7611 71.5776Z" fill="#2E353A"/>
<path d="M75.5912 70.8352C75.62 70.8336 75.6481 70.8259 75.6737 70.8127C75.6992 70.7995 75.7217 70.781 75.7397 70.7584C75.7586 70.7356 75.7727 70.7093 75.7814 70.6809C75.7901 70.6526 75.793 70.6228 75.7902 70.5933C75.7873 70.5639 75.7787 70.5352 75.7648 70.5091C75.7508 70.4829 75.7319 70.4598 75.709 70.441C75.4376 70.2112 75.1157 70.0487 74.7696 69.9669C74.4235 69.885 74.0629 69.8861 73.7173 69.97C73.6616 69.9908 73.6159 70.032 73.5893 70.0852C73.5627 70.1384 73.5572 70.1996 73.5739 70.2567C73.5827 70.2843 73.5968 70.3098 73.6154 70.332C73.634 70.3541 73.6568 70.3723 73.6825 70.3856C73.7082 70.399 73.7362 70.4071 73.765 70.4096C73.7938 70.412 73.8229 70.4088 73.8504 70.4C74.1256 70.3347 74.4125 70.3364 74.687 70.405C74.9614 70.4736 75.2153 70.6071 75.4274 70.7943C75.4499 70.813 75.4763 70.8264 75.5046 70.8335C75.533 70.8406 75.5626 70.8412 75.5912 70.8352Z" fill="#2E353A"/>
<path d="M70.1951 73.1854C70.2207 73.5182 70.4204 73.7742 70.6405 73.7588C70.8607 73.7434 71.0143 73.4618 70.9836 73.1239C70.9529 72.786 70.7583 72.5351 70.5433 72.5505C70.3282 72.5658 70.1695 72.8526 70.1951 73.1854Z" fill="#2E353A"/>
<path d="M73.9685 72.8935C73.9941 73.2263 74.1937 73.4823 74.4088 73.4669C74.6238 73.4516 74.7825 73.17 74.7569 72.832C74.7313 72.4941 74.5368 72.2432 74.3217 72.2586C74.1067 72.274 73.9429 72.5607 73.9685 72.8935Z" fill="#2E353A"/>
<path d="M74.2402 72.2841L75.0236 71.9923C75.0236 71.9923 74.6447 72.6528 74.2402 72.2841Z" fill="#2E353A"/>
<path d="M70.4512 72.576L71.2345 72.2842C71.2345 72.2842 70.871 72.9395 70.4512 72.576Z" fill="#2E353A"/>
</svg>
